%TF.GenerationSoftware,KiCad,Pcbnew,(5.1.10)-1*%
%TF.CreationDate,2021-05-28T10:13:55+00:00*%
%TF.ProjectId,co2_sensor_node,636f325f-7365-46e7-936f-725f6e6f6465,rev?*%
%TF.SameCoordinates,Original*%
%TF.FileFunction,Copper,L2,Inr*%
%TF.FilePolarity,Positive*%
%FSLAX46Y46*%
G04 Gerber Fmt 4.6, Leading zero omitted, Abs format (unit mm)*
G04 Created by KiCad (PCBNEW (5.1.10)-1) date 2021-05-28 10:13:55*
%MOMM*%
%LPD*%
G01*
G04 APERTURE LIST*
%TA.AperFunction,ComponentPad*%
%ADD10O,1.700000X1.700000*%
%TD*%
%TA.AperFunction,ComponentPad*%
%ADD11R,1.700000X1.700000*%
%TD*%
%TA.AperFunction,ComponentPad*%
%ADD12C,0.500000*%
%TD*%
%TA.AperFunction,ComponentPad*%
%ADD13O,1.700000X2.000000*%
%TD*%
%TA.AperFunction,ComponentPad*%
%ADD14C,2.500000*%
%TD*%
%TA.AperFunction,ComponentPad*%
%ADD15C,2.800000*%
%TD*%
%TA.AperFunction,ViaPad*%
%ADD16C,0.600000*%
%TD*%
%TA.AperFunction,ViaPad*%
%ADD17C,1.500000*%
%TD*%
%TA.AperFunction,ViaPad*%
%ADD18C,0.800000*%
%TD*%
%TA.AperFunction,Conductor*%
%ADD19C,0.254000*%
%TD*%
%TA.AperFunction,Conductor*%
%ADD20C,0.100000*%
%TD*%
G04 APERTURE END LIST*
D10*
%TO.N,/Microprocessor section/BOOT*%
%TO.C,J15*%
X147500000Y-87600000D03*
%TO.N,/Microprocessor section/EN*%
X144960000Y-87600000D03*
%TO.N,/Microprocessor section/TXD0*%
X142420000Y-87600000D03*
%TO.N,/Microprocessor section/RXD0*%
X139880000Y-87600000D03*
%TO.N,GND*%
X137340000Y-87600000D03*
D11*
%TO.N,+3V3*%
X134800000Y-87600000D03*
%TD*%
D12*
%TO.N,GND*%
%TO.C,U4*%
X129710000Y-122470000D03*
X128530000Y-122470000D03*
X129710000Y-121290000D03*
X128530000Y-121290000D03*
%TD*%
%TO.N,GND*%
%TO.C,U3*%
X129670000Y-111490000D03*
X128490000Y-111490000D03*
X129670000Y-110310000D03*
X128490000Y-110310000D03*
%TD*%
D10*
%TO.N,GND*%
%TO.C,JP4*%
X138160000Y-108700000D03*
D11*
%TO.N,/Microprocessor section/BOOT*%
X140700000Y-108700000D03*
%TD*%
D10*
%TO.N,+3V3*%
%TO.C,JP3*%
X138160000Y-104800000D03*
D11*
%TO.N,/CO2 Sensor Connector 2/ENABLE*%
X140700000Y-104800000D03*
%TD*%
D10*
%TO.N,+3V3*%
%TO.C,JP2*%
X130200000Y-82762000D03*
%TO.N,Net-(JP2-Pad2)*%
X127660000Y-82762000D03*
D11*
%TO.N,+6V*%
X125120000Y-82762000D03*
%TD*%
D10*
%TO.N,+3V3*%
%TO.C,JP1*%
X130222000Y-57962000D03*
%TO.N,Net-(JP1-Pad2)*%
X127682000Y-57962000D03*
D11*
%TO.N,+6V*%
X125142000Y-57962000D03*
%TD*%
D13*
%TO.N,Net-(J14-Pad2)*%
%TO.C,J14*%
X136400000Y-122800000D03*
%TO.N,GND*%
%TA.AperFunction,ComponentPad*%
G36*
G01*
X139750000Y-122050000D02*
X139750000Y-123550000D01*
G75*
G02*
X139500000Y-123800000I-250000J0D01*
G01*
X138300000Y-123800000D01*
G75*
G02*
X138050000Y-123550000I0J250000D01*
G01*
X138050000Y-122050000D01*
G75*
G02*
X138300000Y-121800000I250000J0D01*
G01*
X139500000Y-121800000D01*
G75*
G02*
X139750000Y-122050000I0J-250000D01*
G01*
G37*
%TD.AperFunction*%
%TD*%
D14*
%TO.N,GND*%
%TO.C,J7*%
X140440000Y-132460000D03*
X135360000Y-132460000D03*
X135360000Y-137540000D03*
X140440000Y-137540000D03*
D15*
%TO.N,Net-(J7-Pad1)*%
X137900000Y-135000000D03*
%TD*%
D10*
%TO.N,+3V3*%
%TO.C,J5*%
X130200000Y-53800000D03*
%TO.N,GND*%
X127660000Y-53800000D03*
%TO.N,/Microprocessor section/I2C_SCL*%
X125120000Y-53800000D03*
D11*
%TO.N,/Microprocessor section/I2C_SDA*%
X122580000Y-53800000D03*
%TD*%
D10*
%TO.N,GND*%
%TO.C,J4*%
X125158000Y-100288000D03*
%TO.N,/CO2 Sensor Connector 2/VCC*%
X125158000Y-97748000D03*
%TO.N,/Microprocessor section/UART2_TX*%
X125158000Y-95208000D03*
D11*
%TO.N,/Microprocessor section/UART2_RX*%
X125158000Y-92668000D03*
%TD*%
D10*
%TO.N,/CO2 Sensor Connector 2/VCC*%
%TO.C,J3*%
X130200000Y-102828000D03*
%TO.N,Net-(J3-Pad6)*%
X130200000Y-100288000D03*
%TO.N,/CO2 Sensor Connector 2/N_RDY*%
X130200000Y-97748000D03*
%TO.N,/Microprocessor section/UART2_TX*%
X130200000Y-95208000D03*
%TO.N,/Microprocessor section/UART2_RX*%
X130200000Y-92668000D03*
%TO.N,GND*%
X130200000Y-90128000D03*
D11*
%TO.N,/CO2 Sensor Connector 2/VCC*%
X130200000Y-87588000D03*
%TD*%
D10*
%TO.N,GND*%
%TO.C,J2*%
X125142000Y-75488000D03*
%TO.N,/CO2 Sensor Connector 1/VCC*%
X125142000Y-72948000D03*
%TO.N,/Microprocessor section/UART1_TX*%
X125142000Y-70408000D03*
D11*
%TO.N,/Microprocessor section/UART1_RX*%
X125142000Y-67868000D03*
%TD*%
D10*
%TO.N,/CO2 Sensor Connector 1/VCC*%
%TO.C,J1*%
X130222000Y-78028000D03*
%TO.N,Net-(J1-Pad6)*%
X130222000Y-75488000D03*
%TO.N,/CO2 Sensor Connector 1/N_RDY*%
X130222000Y-72948000D03*
%TO.N,/Microprocessor section/UART1_TX*%
X130222000Y-70408000D03*
%TO.N,/Microprocessor section/UART1_RX*%
X130222000Y-67868000D03*
%TO.N,GND*%
X130222000Y-65328000D03*
D11*
%TO.N,/CO2 Sensor Connector 1/VCC*%
X130222000Y-62788000D03*
%TD*%
D16*
%TO.N,GND*%
X136600000Y-112000000D03*
X136400000Y-115000000D03*
X136400000Y-116500000D03*
X136600000Y-113500000D03*
D17*
X123100000Y-129000000D03*
D16*
X172000000Y-133900000D03*
X172000000Y-126400000D03*
X172000000Y-123900000D03*
X172000000Y-118900000D03*
X172000000Y-136400000D03*
X172002000Y-50034000D03*
X172002000Y-80034000D03*
X172002000Y-65034000D03*
X172002000Y-57534000D03*
X172002000Y-70034000D03*
X172002000Y-52534000D03*
X172002000Y-75034000D03*
X172002000Y-62534000D03*
X172002000Y-77534000D03*
X172002000Y-85034000D03*
X172002000Y-67534000D03*
X172002000Y-55034000D03*
X172002000Y-60034000D03*
X172002000Y-82534000D03*
X172002000Y-72534000D03*
X147000000Y-45000000D03*
X164500000Y-45000000D03*
X144500000Y-45000000D03*
X167000000Y-45000000D03*
X142000000Y-45000000D03*
X139500000Y-45000000D03*
X124500000Y-45000000D03*
X159500000Y-45000000D03*
X132000000Y-45000000D03*
X154500000Y-45000000D03*
X137000000Y-45000000D03*
X129500000Y-45000000D03*
X157000000Y-45000000D03*
X134500000Y-45000000D03*
X152000000Y-45000000D03*
X149500000Y-45000000D03*
X169500000Y-45000000D03*
X162000000Y-45000000D03*
X127000000Y-45000000D03*
X121600000Y-66000000D03*
X121600000Y-68500000D03*
X121600000Y-71000000D03*
X121600000Y-73500000D03*
X121600000Y-76000000D03*
X121600000Y-78500000D03*
X121600000Y-81000000D03*
X121600000Y-91000000D03*
X121600000Y-93500000D03*
X121600000Y-96000000D03*
X121600000Y-98500000D03*
X169100000Y-139000000D03*
X166600000Y-139000000D03*
X164100000Y-139000000D03*
X161600000Y-139000000D03*
X159100000Y-139000000D03*
X156600000Y-139000000D03*
X154100000Y-139000000D03*
X151600000Y-139000000D03*
X149100000Y-139000000D03*
X146600000Y-139000000D03*
X126600000Y-139000000D03*
X129100000Y-139000000D03*
X131600000Y-139000000D03*
X134100000Y-139000000D03*
X141600000Y-139000000D03*
X136600000Y-139000000D03*
X144100000Y-139000000D03*
X139100000Y-139000000D03*
X124100000Y-139000000D03*
X121600000Y-120000000D03*
X121600000Y-123000000D03*
X121600000Y-115500000D03*
X121600000Y-118500000D03*
X121600000Y-114000000D03*
X121600000Y-126000000D03*
X121600000Y-124500000D03*
X121600000Y-121500000D03*
X121600000Y-117000000D03*
X121600000Y-106500000D03*
X121600000Y-109500000D03*
X121600000Y-102000000D03*
X121600000Y-105000000D03*
X121600000Y-100500000D03*
X121600000Y-112500000D03*
X121600000Y-111000000D03*
X121600000Y-108000000D03*
X121600000Y-103500000D03*
X143650000Y-131200000D03*
X144350000Y-131200000D03*
X143000000Y-132900000D03*
X143000000Y-132200000D03*
X145000000Y-133600000D03*
X145000000Y-132900000D03*
X145000000Y-132200000D03*
X145000000Y-131500000D03*
X143000000Y-131500000D03*
X139700000Y-134200000D03*
X143000000Y-133600000D03*
X140400000Y-134200000D03*
X141100000Y-134200000D03*
X141800000Y-134200000D03*
X142500000Y-134200000D03*
X140400000Y-135800000D03*
X139700000Y-135800000D03*
X141100000Y-135800000D03*
D18*
X146000000Y-134700000D03*
X144000000Y-114900000D03*
X144300000Y-94000000D03*
X124650000Y-60750000D03*
X150500000Y-85000000D03*
X143700000Y-101400000D03*
X149100000Y-136300000D03*
X156600000Y-136300000D03*
X159000000Y-130200000D03*
X163800000Y-111100000D03*
X163800000Y-86800000D03*
X162200000Y-126900000D03*
X128600000Y-115600000D03*
X129700000Y-115600000D03*
X130900000Y-115600000D03*
X123000000Y-114000000D03*
X123100000Y-124900000D03*
X133400000Y-124900000D03*
D16*
X141800000Y-135800000D03*
X142500000Y-135800000D03*
X143200000Y-135800000D03*
X144800000Y-134300000D03*
X143900000Y-135500000D03*
X144500000Y-135000000D03*
X124600000Y-85600000D03*
D18*
X124300000Y-90500000D03*
X124300000Y-65700000D03*
D16*
X122100000Y-127500000D03*
X123600000Y-127500000D03*
X125100000Y-127500000D03*
X126600000Y-127500000D03*
X128100000Y-127500000D03*
X129600000Y-127500000D03*
X131100000Y-127500000D03*
X132600000Y-127500000D03*
X134100000Y-127500000D03*
X135100000Y-126500000D03*
X135100000Y-125000000D03*
X135100000Y-123500000D03*
X135100000Y-122000000D03*
X135100000Y-120500000D03*
X135100000Y-119000000D03*
X125100000Y-104500000D03*
X126600000Y-104500000D03*
X128100000Y-104500000D03*
X129600000Y-104500000D03*
X131100000Y-104500000D03*
X132600000Y-104500000D03*
X134100000Y-104500000D03*
X135100000Y-105500000D03*
X135100000Y-107000000D03*
X135100000Y-108500000D03*
X135100000Y-110000000D03*
X121600000Y-136500000D03*
X121600000Y-134000000D03*
X121600000Y-131500000D03*
X121600000Y-129000000D03*
X121600000Y-48000000D03*
X121600000Y-51000000D03*
X121600000Y-56000000D03*
X136600000Y-51000000D03*
X146600000Y-51000000D03*
X156600000Y-51000000D03*
X166600000Y-51000000D03*
X166600000Y-61000000D03*
X166600000Y-71000000D03*
X166600000Y-81000000D03*
X156600000Y-81000000D03*
X146600000Y-81000000D03*
X136600000Y-81000000D03*
X136600000Y-71000000D03*
X136600000Y-61000000D03*
X151600000Y-101000000D03*
X161600000Y-96000000D03*
X161600000Y-106000000D03*
X141600000Y-96000000D03*
X131600000Y-131000000D03*
X161600000Y-136000000D03*
X151100000Y-128000000D03*
X156600000Y-121000000D03*
X166600000Y-121000000D03*
X141600000Y-126000000D03*
X133100000Y-93500000D03*
X134600000Y-100000000D03*
X126100000Y-79000000D03*
X151100000Y-122000000D03*
X145100000Y-123500000D03*
D18*
X127500000Y-120300000D03*
X126500000Y-120300000D03*
X125000000Y-120300000D03*
D16*
X172002000Y-47534000D03*
D18*
X135750000Y-135500000D03*
X135750000Y-134500000D03*
X137250000Y-132750000D03*
X138500000Y-132750000D03*
X137250000Y-137000000D03*
X138500000Y-137000000D03*
D17*
%TO.N,+3V3*%
X123100000Y-123500000D03*
D18*
X126500000Y-112300000D03*
X125000000Y-112300000D03*
X125000000Y-109300000D03*
X126500000Y-109300000D03*
X122750000Y-117000000D03*
X123750000Y-117000000D03*
X124750000Y-117000000D03*
X125750000Y-117000000D03*
X147200000Y-113200000D03*
X160490000Y-89900000D03*
X153000000Y-90000000D03*
X151700000Y-73700000D03*
X161450000Y-66500000D03*
X152000000Y-138000000D03*
X153700000Y-138000000D03*
X162200000Y-86800000D03*
X164500008Y-123600000D03*
X157500000Y-111600000D03*
X129000000Y-126300000D03*
D17*
%TO.N,+6V*%
X123100000Y-103250000D03*
D18*
X122750000Y-106250000D03*
X123750000Y-106250000D03*
X124750000Y-106250000D03*
X125750000Y-106250000D03*
X125750000Y-115300028D03*
%TO.N,/Microprocessor section/UART1_TX*%
X142799992Y-93825022D03*
%TO.N,/Microprocessor section/UART1_RX*%
X143600000Y-93034941D03*
D16*
%TO.N,/CO2 Sensor Connector 2/N_RDY*%
X154900000Y-95300000D03*
D18*
%TO.N,/Microprocessor section/UART2_TX*%
X153100006Y-96200000D03*
%TO.N,/Microprocessor section/UART2_RX*%
X152332653Y-95300000D03*
%TO.N,/Microprocessor section/I2C_SCL*%
X155900000Y-88500000D03*
X143700000Y-62700000D03*
%TO.N,/Microprocessor section/I2C_SDA*%
X157500000Y-88500000D03*
X150400000Y-56000000D03*
%TO.N,/SD Card/CSN*%
X163100000Y-117000000D03*
X161500000Y-111200014D03*
%TO.N,/LoRa Transceiver/MISO*%
X163200000Y-128000000D03*
X154900000Y-111000000D03*
X156000000Y-113900000D03*
%TO.N,/LoRa Transceiver/SCLK*%
X162200000Y-125800000D03*
X153595000Y-112905000D03*
%TO.N,/LoRa Transceiver/MOSI*%
X154000000Y-114700000D03*
X162200000Y-123600000D03*
%TO.N,/LoRa Transceiver/IRQ2*%
X154900000Y-112400000D03*
%TO.N,Net-(J8-Pad1)*%
X154000000Y-131000000D03*
%TO.N,/LoRa Transceiver/IRQ1*%
X152325000Y-111000000D03*
%TO.N,Net-(J10-Pad1)*%
X156000000Y-131000000D03*
%TO.N,Net-(J12-Pad1)*%
X158000000Y-131000000D03*
%TO.N,/Microprocessor section/BOOT*%
X136300000Y-92000000D03*
%TO.N,/Microprocessor section/TXD0*%
X159900000Y-107400000D03*
%TO.N,/Microprocessor section/RXD0*%
X158700000Y-107400000D03*
%TO.N,/CO2 Sensor Connector 1/ENABLE*%
X122850000Y-58150000D03*
X144433032Y-106467000D03*
%TO.N,/CO2 Sensor Connector 2/ENABLE*%
X123575000Y-83750000D03*
%TO.N,/GNSS/ENABLE*%
X154300000Y-85100000D03*
X154299988Y-73200000D03*
%TO.N,Net-(J9-Pad1)*%
X146000000Y-119000000D03*
%TO.N,Net-(J11-Pad1)*%
X150000000Y-131000000D03*
%TO.N,Net-(J13-Pad1)*%
X148000000Y-131000000D03*
%TD*%
D19*
%TO.N,GND*%
X170559354Y-44728032D02*
X170426825Y-44926376D01*
X170335538Y-45146764D01*
X170289000Y-45380727D01*
X170289000Y-45619273D01*
X170335538Y-45853236D01*
X170426825Y-46073624D01*
X170559354Y-46271968D01*
X170728032Y-46440646D01*
X170926376Y-46573175D01*
X171146764Y-46664462D01*
X171380727Y-46711000D01*
X171619273Y-46711000D01*
X171853236Y-46664462D01*
X172073624Y-46573175D01*
X172271968Y-46440646D01*
X172340000Y-46372614D01*
X172340000Y-85953906D01*
X164900000Y-85953906D01*
X164875224Y-85956346D01*
X164851399Y-85963573D01*
X164829443Y-85975309D01*
X164810197Y-85991103D01*
X164794403Y-86010349D01*
X164782667Y-86032305D01*
X164775440Y-86056130D01*
X164773000Y-86080906D01*
X164773000Y-115080906D01*
X164775440Y-115105682D01*
X164782667Y-115129507D01*
X164794403Y-115151463D01*
X164810197Y-115170709D01*
X164829443Y-115186503D01*
X164851399Y-115198239D01*
X164875224Y-115205466D01*
X164900000Y-115207906D01*
X172340001Y-115207906D01*
X172340001Y-119734869D01*
X172323520Y-119718388D01*
X172137624Y-119594176D01*
X171931067Y-119508617D01*
X171711788Y-119465000D01*
X171488212Y-119465000D01*
X171268933Y-119508617D01*
X171062376Y-119594176D01*
X170876480Y-119718388D01*
X170718388Y-119876480D01*
X170594176Y-120062376D01*
X170508617Y-120268933D01*
X170465000Y-120488212D01*
X170465000Y-120711788D01*
X170508617Y-120931067D01*
X170594176Y-121137624D01*
X170718388Y-121323520D01*
X170876480Y-121481612D01*
X171062376Y-121605824D01*
X171268933Y-121691383D01*
X171488212Y-121735000D01*
X171711788Y-121735000D01*
X171931067Y-121691383D01*
X172137624Y-121605824D01*
X172323520Y-121481612D01*
X172340001Y-121465131D01*
X172340001Y-127734869D01*
X172323520Y-127718388D01*
X172137624Y-127594176D01*
X171931067Y-127508617D01*
X171711788Y-127465000D01*
X171488212Y-127465000D01*
X171268933Y-127508617D01*
X171062376Y-127594176D01*
X170876480Y-127718388D01*
X170718388Y-127876480D01*
X170594176Y-128062376D01*
X170508617Y-128268933D01*
X170465000Y-128488212D01*
X170465000Y-128711788D01*
X170508617Y-128931067D01*
X170594176Y-129137624D01*
X170718388Y-129323520D01*
X170876480Y-129481612D01*
X171062376Y-129605824D01*
X171268933Y-129691383D01*
X171488212Y-129735000D01*
X171711788Y-129735000D01*
X171931067Y-129691383D01*
X172137624Y-129605824D01*
X172323520Y-129481612D01*
X172340001Y-129465131D01*
X172340001Y-137627387D01*
X172271968Y-137559354D01*
X172073624Y-137426825D01*
X171853236Y-137335538D01*
X171619273Y-137289000D01*
X171380727Y-137289000D01*
X171146764Y-137335538D01*
X170926376Y-137426825D01*
X170728032Y-137559354D01*
X170559354Y-137728032D01*
X170426825Y-137926376D01*
X170335538Y-138146764D01*
X170289000Y-138380727D01*
X170289000Y-138619273D01*
X170335538Y-138853236D01*
X170426825Y-139073624D01*
X170559354Y-139271968D01*
X170627386Y-139340000D01*
X122872614Y-139340000D01*
X122940646Y-139271968D01*
X123073175Y-139073624D01*
X123164462Y-138853236D01*
X123211000Y-138619273D01*
X123211000Y-138380727D01*
X123164462Y-138146764D01*
X123073175Y-137926376D01*
X122940646Y-137728032D01*
X122771968Y-137559354D01*
X122573624Y-137426825D01*
X122353236Y-137335538D01*
X122119273Y-137289000D01*
X121880727Y-137289000D01*
X121646764Y-137335538D01*
X121426376Y-137426825D01*
X121228032Y-137559354D01*
X121160000Y-137627386D01*
X121160000Y-135779872D01*
X122265000Y-135779872D01*
X122265000Y-136220128D01*
X122350890Y-136651925D01*
X122519369Y-137058669D01*
X122763962Y-137424729D01*
X123075271Y-137736038D01*
X123441331Y-137980631D01*
X123848075Y-138149110D01*
X124279872Y-138235000D01*
X124720128Y-138235000D01*
X125151925Y-138149110D01*
X125558669Y-137980631D01*
X125682243Y-137898061D01*
X150965000Y-137898061D01*
X150965000Y-138101939D01*
X151004774Y-138301898D01*
X151082795Y-138490256D01*
X151196063Y-138659774D01*
X151340226Y-138803937D01*
X151509744Y-138917205D01*
X151698102Y-138995226D01*
X151898061Y-139035000D01*
X152101939Y-139035000D01*
X152301898Y-138995226D01*
X152490256Y-138917205D01*
X152659774Y-138803937D01*
X152803937Y-138659774D01*
X152850000Y-138590836D01*
X152896063Y-138659774D01*
X153040226Y-138803937D01*
X153209744Y-138917205D01*
X153398102Y-138995226D01*
X153598061Y-139035000D01*
X153801939Y-139035000D01*
X154001898Y-138995226D01*
X154190256Y-138917205D01*
X154359774Y-138803937D01*
X154503937Y-138659774D01*
X154617205Y-138490256D01*
X154695226Y-138301898D01*
X154735000Y-138101939D01*
X154735000Y-137898061D01*
X154695226Y-137698102D01*
X154617205Y-137509744D01*
X154503937Y-137340226D01*
X154359774Y-137196063D01*
X154190256Y-137082795D01*
X154001898Y-137004774D01*
X153801939Y-136965000D01*
X153598061Y-136965000D01*
X153398102Y-137004774D01*
X153209744Y-137082795D01*
X153040226Y-137196063D01*
X152896063Y-137340226D01*
X152850000Y-137409164D01*
X152803937Y-137340226D01*
X152659774Y-137196063D01*
X152490256Y-137082795D01*
X152301898Y-137004774D01*
X152101939Y-136965000D01*
X151898061Y-136965000D01*
X151698102Y-137004774D01*
X151509744Y-137082795D01*
X151340226Y-137196063D01*
X151196063Y-137340226D01*
X151082795Y-137509744D01*
X151004774Y-137698102D01*
X150965000Y-137898061D01*
X125682243Y-137898061D01*
X125924729Y-137736038D01*
X126236038Y-137424729D01*
X126480631Y-137058669D01*
X126649110Y-136651925D01*
X126735000Y-136220128D01*
X126735000Y-135779872D01*
X126649110Y-135348075D01*
X126480631Y-134941331D01*
X126385910Y-134799570D01*
X135865000Y-134799570D01*
X135865000Y-135200430D01*
X135943204Y-135593587D01*
X136096607Y-135963934D01*
X136319313Y-136297237D01*
X136602763Y-136580687D01*
X136936066Y-136803393D01*
X137306413Y-136956796D01*
X137699570Y-137035000D01*
X138100430Y-137035000D01*
X138493587Y-136956796D01*
X138863934Y-136803393D01*
X139197237Y-136580687D01*
X139480687Y-136297237D01*
X139703393Y-135963934D01*
X139779634Y-135779872D01*
X166765000Y-135779872D01*
X166765000Y-136220128D01*
X166850890Y-136651925D01*
X167019369Y-137058669D01*
X167263962Y-137424729D01*
X167575271Y-137736038D01*
X167941331Y-137980631D01*
X168348075Y-138149110D01*
X168779872Y-138235000D01*
X169220128Y-138235000D01*
X169651925Y-138149110D01*
X170058669Y-137980631D01*
X170424729Y-137736038D01*
X170736038Y-137424729D01*
X170980631Y-137058669D01*
X171149110Y-136651925D01*
X171235000Y-136220128D01*
X171235000Y-135779872D01*
X171149110Y-135348075D01*
X170980631Y-134941331D01*
X170736038Y-134575271D01*
X170424729Y-134263962D01*
X170058669Y-134019369D01*
X169651925Y-133850890D01*
X169220128Y-133765000D01*
X168779872Y-133765000D01*
X168348075Y-133850890D01*
X167941331Y-134019369D01*
X167575271Y-134263962D01*
X167263962Y-134575271D01*
X167019369Y-134941331D01*
X166850890Y-135348075D01*
X166765000Y-135779872D01*
X139779634Y-135779872D01*
X139856796Y-135593587D01*
X139935000Y-135200430D01*
X139935000Y-134799570D01*
X139856796Y-134406413D01*
X139703393Y-134036066D01*
X139480687Y-133702763D01*
X139197237Y-133419313D01*
X138863934Y-133196607D01*
X138493587Y-133043204D01*
X138100430Y-132965000D01*
X137699570Y-132965000D01*
X137306413Y-133043204D01*
X136936066Y-133196607D01*
X136602763Y-133419313D01*
X136319313Y-133702763D01*
X136096607Y-134036066D01*
X135943204Y-134406413D01*
X135865000Y-134799570D01*
X126385910Y-134799570D01*
X126236038Y-134575271D01*
X125924729Y-134263962D01*
X125558669Y-134019369D01*
X125151925Y-133850890D01*
X124720128Y-133765000D01*
X124279872Y-133765000D01*
X123848075Y-133850890D01*
X123441331Y-134019369D01*
X123075271Y-134263962D01*
X122763962Y-134575271D01*
X122519369Y-134941331D01*
X122350890Y-135348075D01*
X122265000Y-135779872D01*
X121160000Y-135779872D01*
X121160000Y-130898061D01*
X146965000Y-130898061D01*
X146965000Y-131101939D01*
X147004774Y-131301898D01*
X147082795Y-131490256D01*
X147196063Y-131659774D01*
X147340226Y-131803937D01*
X147509744Y-131917205D01*
X147698102Y-131995226D01*
X147898061Y-132035000D01*
X148101939Y-132035000D01*
X148301898Y-131995226D01*
X148490256Y-131917205D01*
X148659774Y-131803937D01*
X148803937Y-131659774D01*
X148917205Y-131490256D01*
X148995226Y-131301898D01*
X149000000Y-131277897D01*
X149004774Y-131301898D01*
X149082795Y-131490256D01*
X149196063Y-131659774D01*
X149340226Y-131803937D01*
X149509744Y-131917205D01*
X149698102Y-131995226D01*
X149898061Y-132035000D01*
X150101939Y-132035000D01*
X150301898Y-131995226D01*
X150490256Y-131917205D01*
X150659774Y-131803937D01*
X150803937Y-131659774D01*
X150917205Y-131490256D01*
X150995226Y-131301898D01*
X151035000Y-131101939D01*
X151035000Y-130898061D01*
X152965000Y-130898061D01*
X152965000Y-131101939D01*
X153004774Y-131301898D01*
X153082795Y-131490256D01*
X153196063Y-131659774D01*
X153340226Y-131803937D01*
X153509744Y-131917205D01*
X153698102Y-131995226D01*
X153898061Y-132035000D01*
X154101939Y-132035000D01*
X154301898Y-131995226D01*
X154490256Y-131917205D01*
X154659774Y-131803937D01*
X154803937Y-131659774D01*
X154917205Y-131490256D01*
X154995226Y-131301898D01*
X155000000Y-131277897D01*
X155004774Y-131301898D01*
X155082795Y-131490256D01*
X155196063Y-131659774D01*
X155340226Y-131803937D01*
X155509744Y-131917205D01*
X155698102Y-131995226D01*
X155898061Y-132035000D01*
X156101939Y-132035000D01*
X156301898Y-131995226D01*
X156490256Y-131917205D01*
X156659774Y-131803937D01*
X156803937Y-131659774D01*
X156917205Y-131490256D01*
X156995226Y-131301898D01*
X157000000Y-131277897D01*
X157004774Y-131301898D01*
X157082795Y-131490256D01*
X157196063Y-131659774D01*
X157340226Y-131803937D01*
X157509744Y-131917205D01*
X157698102Y-131995226D01*
X157898061Y-132035000D01*
X158101939Y-132035000D01*
X158301898Y-131995226D01*
X158490256Y-131917205D01*
X158659774Y-131803937D01*
X158803937Y-131659774D01*
X158917205Y-131490256D01*
X158995226Y-131301898D01*
X159035000Y-131101939D01*
X159035000Y-130898061D01*
X158995226Y-130698102D01*
X158917205Y-130509744D01*
X158803937Y-130340226D01*
X158659774Y-130196063D01*
X158490256Y-130082795D01*
X158301898Y-130004774D01*
X158101939Y-129965000D01*
X157898061Y-129965000D01*
X157698102Y-130004774D01*
X157509744Y-130082795D01*
X157340226Y-130196063D01*
X157196063Y-130340226D01*
X157082795Y-130509744D01*
X157004774Y-130698102D01*
X157000000Y-130722103D01*
X156995226Y-130698102D01*
X156917205Y-130509744D01*
X156803937Y-130340226D01*
X156659774Y-130196063D01*
X156490256Y-130082795D01*
X156301898Y-130004774D01*
X156101939Y-129965000D01*
X155898061Y-129965000D01*
X155698102Y-130004774D01*
X155509744Y-130082795D01*
X155340226Y-130196063D01*
X155196063Y-130340226D01*
X155082795Y-130509744D01*
X155004774Y-130698102D01*
X155000000Y-130722103D01*
X154995226Y-130698102D01*
X154917205Y-130509744D01*
X154803937Y-130340226D01*
X154659774Y-130196063D01*
X154490256Y-130082795D01*
X154301898Y-130004774D01*
X154101939Y-129965000D01*
X153898061Y-129965000D01*
X153698102Y-130004774D01*
X153509744Y-130082795D01*
X153340226Y-130196063D01*
X153196063Y-130340226D01*
X153082795Y-130509744D01*
X153004774Y-130698102D01*
X152965000Y-130898061D01*
X151035000Y-130898061D01*
X150995226Y-130698102D01*
X150917205Y-130509744D01*
X150803937Y-130340226D01*
X150659774Y-130196063D01*
X150490256Y-130082795D01*
X150301898Y-130004774D01*
X150101939Y-129965000D01*
X149898061Y-129965000D01*
X149698102Y-130004774D01*
X149509744Y-130082795D01*
X149340226Y-130196063D01*
X149196063Y-130340226D01*
X149082795Y-130509744D01*
X149004774Y-130698102D01*
X149000000Y-130722103D01*
X148995226Y-130698102D01*
X148917205Y-130509744D01*
X148803937Y-130340226D01*
X148659774Y-130196063D01*
X148490256Y-130082795D01*
X148301898Y-130004774D01*
X148101939Y-129965000D01*
X147898061Y-129965000D01*
X147698102Y-130004774D01*
X147509744Y-130082795D01*
X147340226Y-130196063D01*
X147196063Y-130340226D01*
X147082795Y-130509744D01*
X147004774Y-130698102D01*
X146965000Y-130898061D01*
X121160000Y-130898061D01*
X121160000Y-127898061D01*
X162165000Y-127898061D01*
X162165000Y-128101939D01*
X162204774Y-128301898D01*
X162282795Y-128490256D01*
X162396063Y-128659774D01*
X162540226Y-128803937D01*
X162709744Y-128917205D01*
X162898102Y-128995226D01*
X163098061Y-129035000D01*
X163301939Y-129035000D01*
X163501898Y-128995226D01*
X163690256Y-128917205D01*
X163859774Y-128803937D01*
X164003937Y-128659774D01*
X164117205Y-128490256D01*
X164195226Y-128301898D01*
X164235000Y-128101939D01*
X164235000Y-127898061D01*
X164195226Y-127698102D01*
X164117205Y-127509744D01*
X164003937Y-127340226D01*
X163859774Y-127196063D01*
X163690256Y-127082795D01*
X163501898Y-127004774D01*
X163301939Y-126965000D01*
X163098061Y-126965000D01*
X162898102Y-127004774D01*
X162709744Y-127082795D01*
X162540226Y-127196063D01*
X162396063Y-127340226D01*
X162282795Y-127509744D01*
X162204774Y-127698102D01*
X162165000Y-127898061D01*
X121160000Y-127898061D01*
X121160000Y-126198061D01*
X127965000Y-126198061D01*
X127965000Y-126401939D01*
X128004774Y-126601898D01*
X128082795Y-126790256D01*
X128196063Y-126959774D01*
X128340226Y-127103937D01*
X128509744Y-127217205D01*
X128698102Y-127295226D01*
X128898061Y-127335000D01*
X129101939Y-127335000D01*
X129301898Y-127295226D01*
X129490256Y-127217205D01*
X129659774Y-127103937D01*
X129803937Y-126959774D01*
X129917205Y-126790256D01*
X129995226Y-126601898D01*
X130035000Y-126401939D01*
X130035000Y-126198061D01*
X129995226Y-125998102D01*
X129917205Y-125809744D01*
X129842582Y-125698061D01*
X161165000Y-125698061D01*
X161165000Y-125901939D01*
X161204774Y-126101898D01*
X161282795Y-126290256D01*
X161396063Y-126459774D01*
X161540226Y-126603937D01*
X161709744Y-126717205D01*
X161898102Y-126795226D01*
X162098061Y-126835000D01*
X162301939Y-126835000D01*
X162501898Y-126795226D01*
X162690256Y-126717205D01*
X162859774Y-126603937D01*
X163003937Y-126459774D01*
X163117205Y-126290256D01*
X163195226Y-126101898D01*
X163235000Y-125901939D01*
X163235000Y-125698061D01*
X163195226Y-125498102D01*
X163117205Y-125309744D01*
X163003937Y-125140226D01*
X162859774Y-124996063D01*
X162690256Y-124882795D01*
X162501898Y-124804774D01*
X162301939Y-124765000D01*
X162098061Y-124765000D01*
X161898102Y-124804774D01*
X161709744Y-124882795D01*
X161540226Y-124996063D01*
X161396063Y-125140226D01*
X161282795Y-125309744D01*
X161204774Y-125498102D01*
X161165000Y-125698061D01*
X129842582Y-125698061D01*
X129803937Y-125640226D01*
X129659774Y-125496063D01*
X129490256Y-125382795D01*
X129301898Y-125304774D01*
X129101939Y-125265000D01*
X128898061Y-125265000D01*
X128698102Y-125304774D01*
X128509744Y-125382795D01*
X128340226Y-125496063D01*
X128196063Y-125640226D01*
X128082795Y-125809744D01*
X128004774Y-125998102D01*
X127965000Y-126198061D01*
X121160000Y-126198061D01*
X121160000Y-123363589D01*
X121715000Y-123363589D01*
X121715000Y-123636411D01*
X121768225Y-123903989D01*
X121872629Y-124156043D01*
X122024201Y-124382886D01*
X122217114Y-124575799D01*
X122443957Y-124727371D01*
X122696011Y-124831775D01*
X122963589Y-124885000D01*
X123236411Y-124885000D01*
X123503989Y-124831775D01*
X123756043Y-124727371D01*
X123982886Y-124575799D01*
X124175799Y-124382886D01*
X124327371Y-124156043D01*
X124431775Y-123903989D01*
X124485000Y-123636411D01*
X124485000Y-123363589D01*
X124431775Y-123096011D01*
X124327371Y-122843957D01*
X124175799Y-122617114D01*
X124135735Y-122577050D01*
X134915000Y-122577050D01*
X134915000Y-123022949D01*
X134936487Y-123241110D01*
X135021401Y-123521033D01*
X135159294Y-123779013D01*
X135344866Y-124005134D01*
X135570986Y-124190706D01*
X135828966Y-124328599D01*
X136108889Y-124413513D01*
X136400000Y-124442185D01*
X136691110Y-124413513D01*
X136971033Y-124328599D01*
X137229013Y-124190706D01*
X137449945Y-124009392D01*
X137460498Y-124044180D01*
X137519463Y-124154494D01*
X137598815Y-124251185D01*
X137695506Y-124330537D01*
X137805820Y-124389502D01*
X137925518Y-124425812D01*
X138050000Y-124438072D01*
X138614250Y-124435000D01*
X138773000Y-124276250D01*
X138773000Y-122927000D01*
X139027000Y-122927000D01*
X139027000Y-124276250D01*
X139185750Y-124435000D01*
X139750000Y-124438072D01*
X139874482Y-124425812D01*
X139994180Y-124389502D01*
X140104494Y-124330537D01*
X140201185Y-124251185D01*
X140280537Y-124154494D01*
X140339502Y-124044180D01*
X140375812Y-123924482D01*
X140388072Y-123800000D01*
X140386774Y-123498061D01*
X161165000Y-123498061D01*
X161165000Y-123701939D01*
X161204774Y-123901898D01*
X161282795Y-124090256D01*
X161396063Y-124259774D01*
X161540226Y-124403937D01*
X161709744Y-124517205D01*
X161898102Y-124595226D01*
X162098061Y-124635000D01*
X162301939Y-124635000D01*
X162501898Y-124595226D01*
X162690256Y-124517205D01*
X162859774Y-124403937D01*
X163003937Y-124259774D01*
X163117205Y-124090256D01*
X163195226Y-123901898D01*
X163235000Y-123701939D01*
X163235000Y-123498061D01*
X163465008Y-123498061D01*
X163465008Y-123701939D01*
X163504782Y-123901898D01*
X163582803Y-124090256D01*
X163696071Y-124259774D01*
X163840234Y-124403937D01*
X164009752Y-124517205D01*
X164198110Y-124595226D01*
X164398069Y-124635000D01*
X164601947Y-124635000D01*
X164801906Y-124595226D01*
X164990264Y-124517205D01*
X165159782Y-124403937D01*
X165303945Y-124259774D01*
X165417213Y-124090256D01*
X165495234Y-123901898D01*
X165535008Y-123701939D01*
X165535008Y-123498061D01*
X165495234Y-123298102D01*
X165417213Y-123109744D01*
X165303945Y-122940226D01*
X165159782Y-122796063D01*
X164990264Y-122682795D01*
X164801906Y-122604774D01*
X164601947Y-122565000D01*
X164398069Y-122565000D01*
X164198110Y-122604774D01*
X164009752Y-122682795D01*
X163840234Y-122796063D01*
X163696071Y-122940226D01*
X163582803Y-123109744D01*
X163504782Y-123298102D01*
X163465008Y-123498061D01*
X163235000Y-123498061D01*
X163195226Y-123298102D01*
X163117205Y-123109744D01*
X163003937Y-122940226D01*
X162859774Y-122796063D01*
X162690256Y-122682795D01*
X162501898Y-122604774D01*
X162301939Y-122565000D01*
X162098061Y-122565000D01*
X161898102Y-122604774D01*
X161709744Y-122682795D01*
X161540226Y-122796063D01*
X161396063Y-122940226D01*
X161282795Y-123109744D01*
X161204774Y-123298102D01*
X161165000Y-123498061D01*
X140386774Y-123498061D01*
X140385000Y-123085750D01*
X140226250Y-122927000D01*
X139027000Y-122927000D01*
X138773000Y-122927000D01*
X138753000Y-122927000D01*
X138753000Y-122673000D01*
X138773000Y-122673000D01*
X138773000Y-121323750D01*
X139027000Y-121323750D01*
X139027000Y-122673000D01*
X140226250Y-122673000D01*
X140385000Y-122514250D01*
X140387061Y-122035000D01*
X140621637Y-122035000D01*
X140860236Y-121987540D01*
X141084992Y-121894443D01*
X141287267Y-121759287D01*
X141459287Y-121587267D01*
X141594443Y-121384992D01*
X141687540Y-121160236D01*
X141735000Y-120921637D01*
X141735000Y-120678363D01*
X141687540Y-120439764D01*
X141594443Y-120215008D01*
X141459287Y-120012733D01*
X141287267Y-119840713D01*
X141084992Y-119705557D01*
X140860236Y-119612460D01*
X140621637Y-119565000D01*
X140378363Y-119565000D01*
X140139764Y-119612460D01*
X139915008Y-119705557D01*
X139712733Y-119840713D01*
X139540713Y-120012733D01*
X139405557Y-120215008D01*
X139312460Y-120439764D01*
X139265000Y-120678363D01*
X139265000Y-120921637D01*
X139312460Y-121160236D01*
X139314144Y-121164301D01*
X139185750Y-121165000D01*
X139027000Y-121323750D01*
X138773000Y-121323750D01*
X138614250Y-121165000D01*
X138050000Y-121161928D01*
X137925518Y-121174188D01*
X137805820Y-121210498D01*
X137695506Y-121269463D01*
X137598815Y-121348815D01*
X137519463Y-121445506D01*
X137460498Y-121555820D01*
X137449945Y-121590608D01*
X137229014Y-121409294D01*
X136971034Y-121271401D01*
X136691111Y-121186487D01*
X136400000Y-121157815D01*
X136108890Y-121186487D01*
X135828967Y-121271401D01*
X135570987Y-121409294D01*
X135344866Y-121594866D01*
X135159294Y-121820986D01*
X135021401Y-122078966D01*
X134936487Y-122358889D01*
X134915000Y-122577050D01*
X124135735Y-122577050D01*
X123982886Y-122424201D01*
X123756043Y-122272629D01*
X123503989Y-122168225D01*
X123236411Y-122115000D01*
X122963589Y-122115000D01*
X122696011Y-122168225D01*
X122443957Y-122272629D01*
X122217114Y-122424201D01*
X122024201Y-122617114D01*
X121872629Y-122843957D01*
X121768225Y-123096011D01*
X121715000Y-123363589D01*
X121160000Y-123363589D01*
X121160000Y-118898061D01*
X144965000Y-118898061D01*
X144965000Y-119101939D01*
X145004774Y-119301898D01*
X145082795Y-119490256D01*
X145196063Y-119659774D01*
X145340226Y-119803937D01*
X145509744Y-119917205D01*
X145698102Y-119995226D01*
X145898061Y-120035000D01*
X146101939Y-120035000D01*
X146301898Y-119995226D01*
X146490256Y-119917205D01*
X146659774Y-119803937D01*
X146803937Y-119659774D01*
X146917205Y-119490256D01*
X146995226Y-119301898D01*
X147035000Y-119101939D01*
X147035000Y-118898061D01*
X146995226Y-118698102D01*
X146917205Y-118509744D01*
X146803937Y-118340226D01*
X146659774Y-118196063D01*
X146490256Y-118082795D01*
X146301898Y-118004774D01*
X146101939Y-117965000D01*
X145898061Y-117965000D01*
X145698102Y-118004774D01*
X145509744Y-118082795D01*
X145340226Y-118196063D01*
X145196063Y-118340226D01*
X145082795Y-118509744D01*
X145004774Y-118698102D01*
X144965000Y-118898061D01*
X121160000Y-118898061D01*
X121160000Y-116898061D01*
X121715000Y-116898061D01*
X121715000Y-117101939D01*
X121754774Y-117301898D01*
X121832795Y-117490256D01*
X121946063Y-117659774D01*
X122090226Y-117803937D01*
X122259744Y-117917205D01*
X122448102Y-117995226D01*
X122648061Y-118035000D01*
X122851939Y-118035000D01*
X123051898Y-117995226D01*
X123240256Y-117917205D01*
X123250000Y-117910694D01*
X123259744Y-117917205D01*
X123448102Y-117995226D01*
X123648061Y-118035000D01*
X123851939Y-118035000D01*
X124051898Y-117995226D01*
X124240256Y-117917205D01*
X124250000Y-117910694D01*
X124259744Y-117917205D01*
X124448102Y-117995226D01*
X124648061Y-118035000D01*
X124851939Y-118035000D01*
X125051898Y-117995226D01*
X125240256Y-117917205D01*
X125250000Y-117910694D01*
X125259744Y-117917205D01*
X125448102Y-117995226D01*
X125648061Y-118035000D01*
X125851939Y-118035000D01*
X126051898Y-117995226D01*
X126240256Y-117917205D01*
X126409774Y-117803937D01*
X126553937Y-117659774D01*
X126667205Y-117490256D01*
X126745226Y-117301898D01*
X126785000Y-117101939D01*
X126785000Y-116898061D01*
X162065000Y-116898061D01*
X162065000Y-117101939D01*
X162104774Y-117301898D01*
X162182795Y-117490256D01*
X162296063Y-117659774D01*
X162440226Y-117803937D01*
X162609744Y-117917205D01*
X162798102Y-117995226D01*
X162998061Y-118035000D01*
X163201939Y-118035000D01*
X163401898Y-117995226D01*
X163590256Y-117917205D01*
X163759774Y-117803937D01*
X163903937Y-117659774D01*
X164017205Y-117490256D01*
X164095226Y-117301898D01*
X164135000Y-117101939D01*
X164135000Y-116898061D01*
X164095226Y-116698102D01*
X164017205Y-116509744D01*
X163903937Y-116340226D01*
X163759774Y-116196063D01*
X163590256Y-116082795D01*
X163401898Y-116004774D01*
X163201939Y-115965000D01*
X162998061Y-115965000D01*
X162798102Y-116004774D01*
X162609744Y-116082795D01*
X162440226Y-116196063D01*
X162296063Y-116340226D01*
X162182795Y-116509744D01*
X162104774Y-116698102D01*
X162065000Y-116898061D01*
X126785000Y-116898061D01*
X126745226Y-116698102D01*
X126667205Y-116509744D01*
X126553937Y-116340226D01*
X126409774Y-116196063D01*
X126340857Y-116150014D01*
X126409774Y-116103965D01*
X126553937Y-115959802D01*
X126667205Y-115790284D01*
X126745226Y-115601926D01*
X126785000Y-115401967D01*
X126785000Y-115198089D01*
X126745226Y-114998130D01*
X126667205Y-114809772D01*
X126553937Y-114640254D01*
X126409774Y-114496091D01*
X126240256Y-114382823D01*
X126051898Y-114304802D01*
X125851939Y-114265028D01*
X125648061Y-114265028D01*
X125448102Y-114304802D01*
X125259744Y-114382823D01*
X125090226Y-114496091D01*
X124946063Y-114640254D01*
X124832795Y-114809772D01*
X124754774Y-114998130D01*
X124715000Y-115198089D01*
X124715000Y-115401967D01*
X124754774Y-115601926D01*
X124832795Y-115790284D01*
X124946063Y-115959802D01*
X124975923Y-115989662D01*
X124851939Y-115965000D01*
X124648061Y-115965000D01*
X124448102Y-116004774D01*
X124259744Y-116082795D01*
X124250000Y-116089306D01*
X124240256Y-116082795D01*
X124051898Y-116004774D01*
X123851939Y-115965000D01*
X123648061Y-115965000D01*
X123448102Y-116004774D01*
X123259744Y-116082795D01*
X123250000Y-116089306D01*
X123240256Y-116082795D01*
X123051898Y-116004774D01*
X122851939Y-115965000D01*
X122648061Y-115965000D01*
X122448102Y-116004774D01*
X122259744Y-116082795D01*
X122090226Y-116196063D01*
X121946063Y-116340226D01*
X121832795Y-116509744D01*
X121754774Y-116698102D01*
X121715000Y-116898061D01*
X121160000Y-116898061D01*
X121160000Y-112198061D01*
X123965000Y-112198061D01*
X123965000Y-112401939D01*
X124004774Y-112601898D01*
X124082795Y-112790256D01*
X124196063Y-112959774D01*
X124340226Y-113103937D01*
X124509744Y-113217205D01*
X124698102Y-113295226D01*
X124898061Y-113335000D01*
X125101939Y-113335000D01*
X125301898Y-113295226D01*
X125490256Y-113217205D01*
X125659774Y-113103937D01*
X125750000Y-113013711D01*
X125840226Y-113103937D01*
X126009744Y-113217205D01*
X126198102Y-113295226D01*
X126398061Y-113335000D01*
X126601939Y-113335000D01*
X126801898Y-113295226D01*
X126990256Y-113217205D01*
X127159774Y-113103937D01*
X127165650Y-113098061D01*
X146165000Y-113098061D01*
X146165000Y-113301939D01*
X146204774Y-113501898D01*
X146282795Y-113690256D01*
X146396063Y-113859774D01*
X146540226Y-114003937D01*
X146709744Y-114117205D01*
X146898102Y-114195226D01*
X147098061Y-114235000D01*
X147301939Y-114235000D01*
X147501898Y-114195226D01*
X147690256Y-114117205D01*
X147859774Y-114003937D01*
X148003937Y-113859774D01*
X148117205Y-113690256D01*
X148195226Y-113501898D01*
X148235000Y-113301939D01*
X148235000Y-113098061D01*
X148195226Y-112898102D01*
X148155859Y-112803061D01*
X152560000Y-112803061D01*
X152560000Y-113006939D01*
X152599774Y-113206898D01*
X152677795Y-113395256D01*
X152791063Y-113564774D01*
X152935226Y-113708937D01*
X153104744Y-113822205D01*
X153293102Y-113900226D01*
X153328935Y-113907354D01*
X153196063Y-114040226D01*
X153082795Y-114209744D01*
X153004774Y-114398102D01*
X152965000Y-114598061D01*
X152965000Y-114801939D01*
X153004774Y-115001898D01*
X153082795Y-115190256D01*
X153196063Y-115359774D01*
X153340226Y-115503937D01*
X153509744Y-115617205D01*
X153698102Y-115695226D01*
X153898061Y-115735000D01*
X154101939Y-115735000D01*
X154301898Y-115695226D01*
X154490256Y-115617205D01*
X154659774Y-115503937D01*
X154803937Y-115359774D01*
X154917205Y-115190256D01*
X154995226Y-115001898D01*
X155035000Y-114801939D01*
X155035000Y-114598061D01*
X154995226Y-114398102D01*
X154917205Y-114209744D01*
X154803937Y-114040226D01*
X154659774Y-113896063D01*
X154490256Y-113782795D01*
X154301898Y-113704774D01*
X154266065Y-113697646D01*
X154398937Y-113564774D01*
X154512205Y-113395256D01*
X154524795Y-113364861D01*
X154598102Y-113395226D01*
X154798061Y-113435000D01*
X155001939Y-113435000D01*
X155078654Y-113419741D01*
X155004774Y-113598102D01*
X154965000Y-113798061D01*
X154965000Y-114001939D01*
X155004774Y-114201898D01*
X155082795Y-114390256D01*
X155196063Y-114559774D01*
X155340226Y-114703937D01*
X155509744Y-114817205D01*
X155698102Y-114895226D01*
X155898061Y-114935000D01*
X156101939Y-114935000D01*
X156301898Y-114895226D01*
X156490256Y-114817205D01*
X156659774Y-114703937D01*
X156803937Y-114559774D01*
X156917205Y-114390256D01*
X156995226Y-114201898D01*
X157035000Y-114001939D01*
X157035000Y-113798061D01*
X156995226Y-113598102D01*
X156917205Y-113409744D01*
X156803937Y-113240226D01*
X156659774Y-113096063D01*
X156490256Y-112982795D01*
X156301898Y-112904774D01*
X156101939Y-112865000D01*
X155898061Y-112865000D01*
X155821346Y-112880259D01*
X155895226Y-112701898D01*
X155935000Y-112501939D01*
X155935000Y-112298061D01*
X155895226Y-112098102D01*
X155817205Y-111909744D01*
X155703937Y-111740226D01*
X155663711Y-111700000D01*
X155703937Y-111659774D01*
X155811989Y-111498061D01*
X156465000Y-111498061D01*
X156465000Y-111701939D01*
X156504774Y-111901898D01*
X156582795Y-112090256D01*
X156696063Y-112259774D01*
X156840226Y-112403937D01*
X157009744Y-112517205D01*
X157198102Y-112595226D01*
X157398061Y-112635000D01*
X157601939Y-112635000D01*
X157801898Y-112595226D01*
X157990256Y-112517205D01*
X158159774Y-112403937D01*
X158303937Y-112259774D01*
X158417205Y-112090256D01*
X158495226Y-111901898D01*
X158535000Y-111701939D01*
X158535000Y-111498061D01*
X158495226Y-111298102D01*
X158417205Y-111109744D01*
X158409409Y-111098075D01*
X160465000Y-111098075D01*
X160465000Y-111301953D01*
X160504774Y-111501912D01*
X160582795Y-111690270D01*
X160696063Y-111859788D01*
X160840226Y-112003951D01*
X161009744Y-112117219D01*
X161198102Y-112195240D01*
X161398061Y-112235014D01*
X161601939Y-112235014D01*
X161801898Y-112195240D01*
X161990256Y-112117219D01*
X162159774Y-112003951D01*
X162303937Y-111859788D01*
X162417205Y-111690270D01*
X162495226Y-111501912D01*
X162535000Y-111301953D01*
X162535000Y-111098075D01*
X162495226Y-110898116D01*
X162417205Y-110709758D01*
X162303937Y-110540240D01*
X162159774Y-110396077D01*
X161990256Y-110282809D01*
X161801898Y-110204788D01*
X161601939Y-110165014D01*
X161398061Y-110165014D01*
X161198102Y-110204788D01*
X161009744Y-110282809D01*
X160840226Y-110396077D01*
X160696063Y-110540240D01*
X160582795Y-110709758D01*
X160504774Y-110898116D01*
X160465000Y-111098075D01*
X158409409Y-111098075D01*
X158303937Y-110940226D01*
X158159774Y-110796063D01*
X157990256Y-110682795D01*
X157801898Y-110604774D01*
X157601939Y-110565000D01*
X157398061Y-110565000D01*
X157198102Y-110604774D01*
X157009744Y-110682795D01*
X156840226Y-110796063D01*
X156696063Y-110940226D01*
X156582795Y-111109744D01*
X156504774Y-111298102D01*
X156465000Y-111498061D01*
X155811989Y-111498061D01*
X155817205Y-111490256D01*
X155895226Y-111301898D01*
X155935000Y-111101939D01*
X155935000Y-110898061D01*
X155895226Y-110698102D01*
X155817205Y-110509744D01*
X155703937Y-110340226D01*
X155559774Y-110196063D01*
X155390256Y-110082795D01*
X155201898Y-110004774D01*
X155001939Y-109965000D01*
X154798061Y-109965000D01*
X154598102Y-110004774D01*
X154409744Y-110082795D01*
X154240226Y-110196063D01*
X154096063Y-110340226D01*
X153982795Y-110509744D01*
X153904774Y-110698102D01*
X153865000Y-110898061D01*
X153865000Y-111101939D01*
X153904774Y-111301898D01*
X153982795Y-111490256D01*
X154096063Y-111659774D01*
X154136289Y-111700000D01*
X154096063Y-111740226D01*
X153982795Y-111909744D01*
X153970205Y-111940139D01*
X153896898Y-111909774D01*
X153696939Y-111870000D01*
X153493061Y-111870000D01*
X153293102Y-111909774D01*
X153104744Y-111987795D01*
X152935226Y-112101063D01*
X152791063Y-112245226D01*
X152677795Y-112414744D01*
X152599774Y-112603102D01*
X152560000Y-112803061D01*
X148155859Y-112803061D01*
X148117205Y-112709744D01*
X148003937Y-112540226D01*
X147859774Y-112396063D01*
X147690256Y-112282795D01*
X147501898Y-112204774D01*
X147301939Y-112165000D01*
X147098061Y-112165000D01*
X146898102Y-112204774D01*
X146709744Y-112282795D01*
X146540226Y-112396063D01*
X146396063Y-112540226D01*
X146282795Y-112709744D01*
X146204774Y-112898102D01*
X146165000Y-113098061D01*
X127165650Y-113098061D01*
X127303937Y-112959774D01*
X127417205Y-112790256D01*
X127495226Y-112601898D01*
X127535000Y-112401939D01*
X127535000Y-112198061D01*
X127495226Y-111998102D01*
X127417205Y-111809744D01*
X127303937Y-111640226D01*
X127159774Y-111496063D01*
X126990256Y-111382795D01*
X126801898Y-111304774D01*
X126601939Y-111265000D01*
X126398061Y-111265000D01*
X126198102Y-111304774D01*
X126009744Y-111382795D01*
X125840226Y-111496063D01*
X125750000Y-111586289D01*
X125659774Y-111496063D01*
X125490256Y-111382795D01*
X125301898Y-111304774D01*
X125101939Y-111265000D01*
X124898061Y-111265000D01*
X124698102Y-111304774D01*
X124509744Y-111382795D01*
X124340226Y-111496063D01*
X124196063Y-111640226D01*
X124082795Y-111809744D01*
X124004774Y-111998102D01*
X123965000Y-112198061D01*
X121160000Y-112198061D01*
X121160000Y-110898061D01*
X151290000Y-110898061D01*
X151290000Y-111101939D01*
X151329774Y-111301898D01*
X151407795Y-111490256D01*
X151521063Y-111659774D01*
X151665226Y-111803937D01*
X151834744Y-111917205D01*
X152023102Y-111995226D01*
X152223061Y-112035000D01*
X152426939Y-112035000D01*
X152626898Y-111995226D01*
X152815256Y-111917205D01*
X152984774Y-111803937D01*
X153128937Y-111659774D01*
X153242205Y-111490256D01*
X153320226Y-111301898D01*
X153360000Y-111101939D01*
X153360000Y-110898061D01*
X153320226Y-110698102D01*
X153242205Y-110509744D01*
X153128937Y-110340226D01*
X152984774Y-110196063D01*
X152815256Y-110082795D01*
X152626898Y-110004774D01*
X152426939Y-109965000D01*
X152223061Y-109965000D01*
X152023102Y-110004774D01*
X151834744Y-110082795D01*
X151665226Y-110196063D01*
X151521063Y-110340226D01*
X151407795Y-110509744D01*
X151329774Y-110698102D01*
X151290000Y-110898061D01*
X121160000Y-110898061D01*
X121160000Y-109198061D01*
X123965000Y-109198061D01*
X123965000Y-109401939D01*
X124004774Y-109601898D01*
X124082795Y-109790256D01*
X124196063Y-109959774D01*
X124340226Y-110103937D01*
X124509744Y-110217205D01*
X124698102Y-110295226D01*
X124898061Y-110335000D01*
X125101939Y-110335000D01*
X125301898Y-110295226D01*
X125490256Y-110217205D01*
X125659774Y-110103937D01*
X125750000Y-110013711D01*
X125840226Y-110103937D01*
X126009744Y-110217205D01*
X126198102Y-110295226D01*
X126398061Y-110335000D01*
X126601939Y-110335000D01*
X126801898Y-110295226D01*
X126990256Y-110217205D01*
X127159774Y-110103937D01*
X127303937Y-109959774D01*
X127417205Y-109790256D01*
X127495226Y-109601898D01*
X127535000Y-109401939D01*
X127535000Y-109198061D01*
X127506920Y-109056891D01*
X136718519Y-109056891D01*
X136815843Y-109331252D01*
X136964822Y-109581355D01*
X137159731Y-109797588D01*
X137393080Y-109971641D01*
X137655901Y-110096825D01*
X137803110Y-110141476D01*
X138033000Y-110020155D01*
X138033000Y-108827000D01*
X136839186Y-108827000D01*
X136718519Y-109056891D01*
X127506920Y-109056891D01*
X127495226Y-108998102D01*
X127417205Y-108809744D01*
X127303937Y-108640226D01*
X127159774Y-108496063D01*
X126990256Y-108382795D01*
X126894447Y-108343109D01*
X136718519Y-108343109D01*
X136839186Y-108573000D01*
X138033000Y-108573000D01*
X138033000Y-107379845D01*
X138287000Y-107379845D01*
X138287000Y-108573000D01*
X138307000Y-108573000D01*
X138307000Y-108827000D01*
X138287000Y-108827000D01*
X138287000Y-110020155D01*
X138516890Y-110141476D01*
X138664099Y-110096825D01*
X138926920Y-109971641D01*
X139160269Y-109797588D01*
X139236034Y-109713534D01*
X139260498Y-109794180D01*
X139319463Y-109904494D01*
X139398815Y-110001185D01*
X139495506Y-110080537D01*
X139605820Y-110139502D01*
X139725518Y-110175812D01*
X139850000Y-110188072D01*
X141550000Y-110188072D01*
X141674482Y-110175812D01*
X141794180Y-110139502D01*
X141904494Y-110080537D01*
X142001185Y-110001185D01*
X142080537Y-109904494D01*
X142139502Y-109794180D01*
X142175812Y-109674482D01*
X142188072Y-109550000D01*
X142188072Y-107850000D01*
X142175812Y-107725518D01*
X142139502Y-107605820D01*
X142080537Y-107495506D01*
X142001185Y-107398815D01*
X141904494Y-107319463D01*
X141794180Y-107260498D01*
X141674482Y-107224188D01*
X141550000Y-107211928D01*
X139850000Y-107211928D01*
X139725518Y-107224188D01*
X139605820Y-107260498D01*
X139495506Y-107319463D01*
X139398815Y-107398815D01*
X139319463Y-107495506D01*
X139260498Y-107605820D01*
X139236034Y-107686466D01*
X139160269Y-107602412D01*
X138926920Y-107428359D01*
X138664099Y-107303175D01*
X138516890Y-107258524D01*
X138287000Y-107379845D01*
X138033000Y-107379845D01*
X137803110Y-107258524D01*
X137655901Y-107303175D01*
X137393080Y-107428359D01*
X137159731Y-107602412D01*
X136964822Y-107818645D01*
X136815843Y-108068748D01*
X136718519Y-108343109D01*
X126894447Y-108343109D01*
X126801898Y-108304774D01*
X126601939Y-108265000D01*
X126398061Y-108265000D01*
X126198102Y-108304774D01*
X126009744Y-108382795D01*
X125840226Y-108496063D01*
X125750000Y-108586289D01*
X125659774Y-108496063D01*
X125490256Y-108382795D01*
X125301898Y-108304774D01*
X125101939Y-108265000D01*
X124898061Y-108265000D01*
X124698102Y-108304774D01*
X124509744Y-108382795D01*
X124340226Y-108496063D01*
X124196063Y-108640226D01*
X124082795Y-108809744D01*
X124004774Y-108998102D01*
X123965000Y-109198061D01*
X121160000Y-109198061D01*
X121160000Y-106148061D01*
X121715000Y-106148061D01*
X121715000Y-106351939D01*
X121754774Y-106551898D01*
X121832795Y-106740256D01*
X121946063Y-106909774D01*
X122090226Y-107053937D01*
X122259744Y-107167205D01*
X122448102Y-107245226D01*
X122648061Y-107285000D01*
X122851939Y-107285000D01*
X123051898Y-107245226D01*
X123240256Y-107167205D01*
X123250000Y-107160694D01*
X123259744Y-107167205D01*
X123448102Y-107245226D01*
X123648061Y-107285000D01*
X123851939Y-107285000D01*
X124051898Y-107245226D01*
X124240256Y-107167205D01*
X124250000Y-107160694D01*
X124259744Y-107167205D01*
X124448102Y-107245226D01*
X124648061Y-107285000D01*
X124851939Y-107285000D01*
X125051898Y-107245226D01*
X125240256Y-107167205D01*
X125250000Y-107160694D01*
X125259744Y-107167205D01*
X125448102Y-107245226D01*
X125648061Y-107285000D01*
X125851939Y-107285000D01*
X126051898Y-107245226D01*
X126240256Y-107167205D01*
X126409774Y-107053937D01*
X126553937Y-106909774D01*
X126667205Y-106740256D01*
X126745226Y-106551898D01*
X126782389Y-106365061D01*
X143398032Y-106365061D01*
X143398032Y-106568939D01*
X143437806Y-106768898D01*
X143515827Y-106957256D01*
X143629095Y-107126774D01*
X143773258Y-107270937D01*
X143942776Y-107384205D01*
X144131134Y-107462226D01*
X144331093Y-107502000D01*
X144534971Y-107502000D01*
X144734930Y-107462226D01*
X144923288Y-107384205D01*
X145052211Y-107298061D01*
X157665000Y-107298061D01*
X157665000Y-107501939D01*
X157704774Y-107701898D01*
X157782795Y-107890256D01*
X157896063Y-108059774D01*
X158040226Y-108203937D01*
X158209744Y-108317205D01*
X158398102Y-108395226D01*
X158598061Y-108435000D01*
X158801939Y-108435000D01*
X159001898Y-108395226D01*
X159190256Y-108317205D01*
X159300000Y-108243877D01*
X159409744Y-108317205D01*
X159598102Y-108395226D01*
X159798061Y-108435000D01*
X160001939Y-108435000D01*
X160201898Y-108395226D01*
X160390256Y-108317205D01*
X160559774Y-108203937D01*
X160703937Y-108059774D01*
X160817205Y-107890256D01*
X160895226Y-107701898D01*
X160935000Y-107501939D01*
X160935000Y-107298061D01*
X160895226Y-107098102D01*
X160817205Y-106909744D01*
X160703937Y-106740226D01*
X160559774Y-106596063D01*
X160390256Y-106482795D01*
X160201898Y-106404774D01*
X160001939Y-106365000D01*
X159798061Y-106365000D01*
X159598102Y-106404774D01*
X159409744Y-106482795D01*
X159300000Y-106556123D01*
X159190256Y-106482795D01*
X159001898Y-106404774D01*
X158801939Y-106365000D01*
X158598061Y-106365000D01*
X158398102Y-106404774D01*
X158209744Y-106482795D01*
X158040226Y-106596063D01*
X157896063Y-106740226D01*
X157782795Y-106909744D01*
X157704774Y-107098102D01*
X157665000Y-107298061D01*
X145052211Y-107298061D01*
X145092806Y-107270937D01*
X145236969Y-107126774D01*
X145350237Y-106957256D01*
X145428258Y-106768898D01*
X145468032Y-106568939D01*
X145468032Y-106365061D01*
X145428258Y-106165102D01*
X145350237Y-105976744D01*
X145236969Y-105807226D01*
X145092806Y-105663063D01*
X144923288Y-105549795D01*
X144734930Y-105471774D01*
X144534971Y-105432000D01*
X144331093Y-105432000D01*
X144131134Y-105471774D01*
X143942776Y-105549795D01*
X143773258Y-105663063D01*
X143629095Y-105807226D01*
X143515827Y-105976744D01*
X143437806Y-106165102D01*
X143398032Y-106365061D01*
X126782389Y-106365061D01*
X126785000Y-106351939D01*
X126785000Y-106148061D01*
X126745226Y-105948102D01*
X126667205Y-105759744D01*
X126553937Y-105590226D01*
X126409774Y-105446063D01*
X126240256Y-105332795D01*
X126051898Y-105254774D01*
X125851939Y-105215000D01*
X125648061Y-105215000D01*
X125448102Y-105254774D01*
X125259744Y-105332795D01*
X125250000Y-105339306D01*
X125240256Y-105332795D01*
X125051898Y-105254774D01*
X124851939Y-105215000D01*
X124648061Y-105215000D01*
X124448102Y-105254774D01*
X124259744Y-105332795D01*
X124250000Y-105339306D01*
X124240256Y-105332795D01*
X124051898Y-105254774D01*
X123851939Y-105215000D01*
X123648061Y-105215000D01*
X123448102Y-105254774D01*
X123259744Y-105332795D01*
X123250000Y-105339306D01*
X123240256Y-105332795D01*
X123051898Y-105254774D01*
X122851939Y-105215000D01*
X122648061Y-105215000D01*
X122448102Y-105254774D01*
X122259744Y-105332795D01*
X122090226Y-105446063D01*
X121946063Y-105590226D01*
X121832795Y-105759744D01*
X121754774Y-105948102D01*
X121715000Y-106148061D01*
X121160000Y-106148061D01*
X121160000Y-104653740D01*
X136675000Y-104653740D01*
X136675000Y-104946260D01*
X136732068Y-105233158D01*
X136844010Y-105503411D01*
X137006525Y-105746632D01*
X137213368Y-105953475D01*
X137456589Y-106115990D01*
X137726842Y-106227932D01*
X138013740Y-106285000D01*
X138306260Y-106285000D01*
X138593158Y-106227932D01*
X138863411Y-106115990D01*
X139106632Y-105953475D01*
X139238487Y-105821620D01*
X139260498Y-105894180D01*
X139319463Y-106004494D01*
X139398815Y-106101185D01*
X139495506Y-106180537D01*
X139605820Y-106239502D01*
X139725518Y-106275812D01*
X139850000Y-106288072D01*
X141550000Y-106288072D01*
X141674482Y-106275812D01*
X141794180Y-106239502D01*
X141904494Y-106180537D01*
X142001185Y-106101185D01*
X142080537Y-106004494D01*
X142139502Y-105894180D01*
X142175812Y-105774482D01*
X142188072Y-105650000D01*
X142188072Y-103950000D01*
X142175812Y-103825518D01*
X142139502Y-103705820D01*
X142080537Y-103595506D01*
X142001185Y-103498815D01*
X141904494Y-103419463D01*
X141794180Y-103360498D01*
X141674482Y-103324188D01*
X141550000Y-103311928D01*
X139850000Y-103311928D01*
X139725518Y-103324188D01*
X139605820Y-103360498D01*
X139495506Y-103419463D01*
X139398815Y-103498815D01*
X139319463Y-103595506D01*
X139260498Y-103705820D01*
X139238487Y-103778380D01*
X139106632Y-103646525D01*
X138863411Y-103484010D01*
X138593158Y-103372068D01*
X138306260Y-103315000D01*
X138013740Y-103315000D01*
X137726842Y-103372068D01*
X137456589Y-103484010D01*
X137213368Y-103646525D01*
X137006525Y-103853368D01*
X136844010Y-104096589D01*
X136732068Y-104366842D01*
X136675000Y-104653740D01*
X121160000Y-104653740D01*
X121160000Y-103113589D01*
X121715000Y-103113589D01*
X121715000Y-103386411D01*
X121768225Y-103653989D01*
X121872629Y-103906043D01*
X122024201Y-104132886D01*
X122217114Y-104325799D01*
X122443957Y-104477371D01*
X122696011Y-104581775D01*
X122963589Y-104635000D01*
X123236411Y-104635000D01*
X123503989Y-104581775D01*
X123756043Y-104477371D01*
X123982886Y-104325799D01*
X124175799Y-104132886D01*
X124327371Y-103906043D01*
X124431775Y-103653989D01*
X124485000Y-103386411D01*
X124485000Y-103113589D01*
X124431775Y-102846011D01*
X124327371Y-102593957D01*
X124175799Y-102367114D01*
X123982886Y-102174201D01*
X123756043Y-102022629D01*
X123503989Y-101918225D01*
X123236411Y-101865000D01*
X122963589Y-101865000D01*
X122696011Y-101918225D01*
X122443957Y-102022629D01*
X122217114Y-102174201D01*
X122024201Y-102367114D01*
X121872629Y-102593957D01*
X121768225Y-102846011D01*
X121715000Y-103113589D01*
X121160000Y-103113589D01*
X121160000Y-100644890D01*
X123716524Y-100644890D01*
X123761175Y-100792099D01*
X123886359Y-101054920D01*
X124060412Y-101288269D01*
X124276645Y-101483178D01*
X124526748Y-101632157D01*
X124801109Y-101729481D01*
X125031000Y-101608814D01*
X125031000Y-100415000D01*
X125285000Y-100415000D01*
X125285000Y-101608814D01*
X125514891Y-101729481D01*
X125789252Y-101632157D01*
X126039355Y-101483178D01*
X126255588Y-101288269D01*
X126429641Y-101054920D01*
X126554825Y-100792099D01*
X126599476Y-100644890D01*
X126478155Y-100415000D01*
X125285000Y-100415000D01*
X125031000Y-100415000D01*
X123837845Y-100415000D01*
X123716524Y-100644890D01*
X121160000Y-100644890D01*
X121160000Y-91818000D01*
X123669928Y-91818000D01*
X123669928Y-93518000D01*
X123682188Y-93642482D01*
X123718498Y-93762180D01*
X123777463Y-93872494D01*
X123856815Y-93969185D01*
X123953506Y-94048537D01*
X124063820Y-94107502D01*
X124136380Y-94129513D01*
X124004525Y-94261368D01*
X123842010Y-94504589D01*
X123730068Y-94774842D01*
X123673000Y-95061740D01*
X123673000Y-95354260D01*
X123730068Y-95641158D01*
X123842010Y-95911411D01*
X124004525Y-96154632D01*
X124211368Y-96361475D01*
X124385760Y-96478000D01*
X124211368Y-96594525D01*
X124004525Y-96801368D01*
X123842010Y-97044589D01*
X123730068Y-97314842D01*
X123673000Y-97601740D01*
X123673000Y-97894260D01*
X123730068Y-98181158D01*
X123842010Y-98451411D01*
X124004525Y-98694632D01*
X124211368Y-98901475D01*
X124393534Y-99023195D01*
X124276645Y-99092822D01*
X124060412Y-99287731D01*
X123886359Y-99521080D01*
X123761175Y-99783901D01*
X123716524Y-99931110D01*
X123837845Y-100161000D01*
X125031000Y-100161000D01*
X125031000Y-100141000D01*
X125285000Y-100141000D01*
X125285000Y-100161000D01*
X126478155Y-100161000D01*
X126599476Y-99931110D01*
X126554825Y-99783901D01*
X126429641Y-99521080D01*
X126255588Y-99287731D01*
X126039355Y-99092822D01*
X125922466Y-99023195D01*
X126104632Y-98901475D01*
X126311475Y-98694632D01*
X126473990Y-98451411D01*
X126585932Y-98181158D01*
X126643000Y-97894260D01*
X126643000Y-97601740D01*
X126585932Y-97314842D01*
X126473990Y-97044589D01*
X126311475Y-96801368D01*
X126104632Y-96594525D01*
X125930240Y-96478000D01*
X126104632Y-96361475D01*
X126311475Y-96154632D01*
X126473990Y-95911411D01*
X126585932Y-95641158D01*
X126643000Y-95354260D01*
X126643000Y-95061740D01*
X126585932Y-94774842D01*
X126473990Y-94504589D01*
X126311475Y-94261368D01*
X126179620Y-94129513D01*
X126252180Y-94107502D01*
X126362494Y-94048537D01*
X126459185Y-93969185D01*
X126538537Y-93872494D01*
X126597502Y-93762180D01*
X126633812Y-93642482D01*
X126646072Y-93518000D01*
X126646072Y-92521740D01*
X128715000Y-92521740D01*
X128715000Y-92814260D01*
X128772068Y-93101158D01*
X128884010Y-93371411D01*
X129046525Y-93614632D01*
X129253368Y-93821475D01*
X129427760Y-93938000D01*
X129253368Y-94054525D01*
X129046525Y-94261368D01*
X128884010Y-94504589D01*
X128772068Y-94774842D01*
X128715000Y-95061740D01*
X128715000Y-95354260D01*
X128772068Y-95641158D01*
X128884010Y-95911411D01*
X129046525Y-96154632D01*
X129253368Y-96361475D01*
X129427760Y-96478000D01*
X129253368Y-96594525D01*
X129046525Y-96801368D01*
X128884010Y-97044589D01*
X128772068Y-97314842D01*
X128715000Y-97601740D01*
X128715000Y-97894260D01*
X128772068Y-98181158D01*
X128884010Y-98451411D01*
X129046525Y-98694632D01*
X129253368Y-98901475D01*
X129427760Y-99018000D01*
X129253368Y-99134525D01*
X129046525Y-99341368D01*
X128884010Y-99584589D01*
X128772068Y-99854842D01*
X128715000Y-100141740D01*
X128715000Y-100434260D01*
X128772068Y-100721158D01*
X128884010Y-100991411D01*
X129046525Y-101234632D01*
X129253368Y-101441475D01*
X129427760Y-101558000D01*
X129253368Y-101674525D01*
X129046525Y-101881368D01*
X128884010Y-102124589D01*
X128772068Y-102394842D01*
X128715000Y-102681740D01*
X128715000Y-102974260D01*
X128772068Y-103261158D01*
X128884010Y-103531411D01*
X129046525Y-103774632D01*
X129253368Y-103981475D01*
X129496589Y-104143990D01*
X129766842Y-104255932D01*
X130053740Y-104313000D01*
X130346260Y-104313000D01*
X130633158Y-104255932D01*
X130903411Y-104143990D01*
X131146632Y-103981475D01*
X131353475Y-103774632D01*
X131515990Y-103531411D01*
X131627932Y-103261158D01*
X131685000Y-102974260D01*
X131685000Y-102681740D01*
X131627932Y-102394842D01*
X131515990Y-102124589D01*
X131353475Y-101881368D01*
X131146632Y-101674525D01*
X130972240Y-101558000D01*
X131146632Y-101441475D01*
X131353475Y-101234632D01*
X131515990Y-100991411D01*
X131627932Y-100721158D01*
X131685000Y-100434260D01*
X131685000Y-100141740D01*
X131627932Y-99854842D01*
X131515990Y-99584589D01*
X131353475Y-99341368D01*
X131146632Y-99134525D01*
X130972240Y-99018000D01*
X131146632Y-98901475D01*
X131353475Y-98694632D01*
X131515990Y-98451411D01*
X131627932Y-98181158D01*
X131685000Y-97894260D01*
X131685000Y-97601740D01*
X131627932Y-97314842D01*
X131515990Y-97044589D01*
X131353475Y-96801368D01*
X131146632Y-96594525D01*
X130972240Y-96478000D01*
X131146632Y-96361475D01*
X131353475Y-96154632D01*
X131515990Y-95911411D01*
X131627932Y-95641158D01*
X131685000Y-95354260D01*
X131685000Y-95198061D01*
X151297653Y-95198061D01*
X151297653Y-95401939D01*
X151337427Y-95601898D01*
X151415448Y-95790256D01*
X151528716Y-95959774D01*
X151672879Y-96103937D01*
X151842397Y-96217205D01*
X152030755Y-96295226D01*
X152065027Y-96302043D01*
X152104780Y-96501898D01*
X152182801Y-96690256D01*
X152296069Y-96859774D01*
X152440232Y-97003937D01*
X152609750Y-97117205D01*
X152798108Y-97195226D01*
X152998067Y-97235000D01*
X153201945Y-97235000D01*
X153401904Y-97195226D01*
X153590262Y-97117205D01*
X153759780Y-97003937D01*
X153903943Y-96859774D01*
X154017211Y-96690256D01*
X154095232Y-96501898D01*
X154135006Y-96301939D01*
X154135006Y-96098061D01*
X154095232Y-95898102D01*
X154017211Y-95709744D01*
X153903943Y-95540226D01*
X153759780Y-95396063D01*
X153590262Y-95282795D01*
X153409478Y-95207911D01*
X153965000Y-95207911D01*
X153965000Y-95392089D01*
X154000932Y-95572729D01*
X154071414Y-95742889D01*
X154173738Y-95896028D01*
X154303972Y-96026262D01*
X154457111Y-96128586D01*
X154627271Y-96199068D01*
X154807911Y-96235000D01*
X154992089Y-96235000D01*
X155172729Y-96199068D01*
X155342889Y-96128586D01*
X155496028Y-96026262D01*
X155626262Y-95896028D01*
X155728586Y-95742889D01*
X155799068Y-95572729D01*
X155835000Y-95392089D01*
X155835000Y-95207911D01*
X155799068Y-95027271D01*
X155728586Y-94857111D01*
X155626262Y-94703972D01*
X155496028Y-94573738D01*
X155342889Y-94471414D01*
X155172729Y-94400932D01*
X154992089Y-94365000D01*
X154807911Y-94365000D01*
X154627271Y-94400932D01*
X154457111Y-94471414D01*
X154303972Y-94573738D01*
X154173738Y-94703972D01*
X154071414Y-94857111D01*
X154000932Y-95027271D01*
X153965000Y-95207911D01*
X153409478Y-95207911D01*
X153401904Y-95204774D01*
X153367632Y-95197957D01*
X153327879Y-94998102D01*
X153249858Y-94809744D01*
X153136590Y-94640226D01*
X152992427Y-94496063D01*
X152822909Y-94382795D01*
X152634551Y-94304774D01*
X152434592Y-94265000D01*
X152230714Y-94265000D01*
X152030755Y-94304774D01*
X151842397Y-94382795D01*
X151672879Y-94496063D01*
X151528716Y-94640226D01*
X151415448Y-94809744D01*
X151337427Y-94998102D01*
X151297653Y-95198061D01*
X131685000Y-95198061D01*
X131685000Y-95061740D01*
X131627932Y-94774842D01*
X131515990Y-94504589D01*
X131353475Y-94261368D01*
X131146632Y-94054525D01*
X130972240Y-93938000D01*
X131146632Y-93821475D01*
X131245024Y-93723083D01*
X141764992Y-93723083D01*
X141764992Y-93926961D01*
X141804766Y-94126920D01*
X141882787Y-94315278D01*
X141996055Y-94484796D01*
X142140218Y-94628959D01*
X142309736Y-94742227D01*
X142498094Y-94820248D01*
X142698053Y-94860022D01*
X142901931Y-94860022D01*
X143101890Y-94820248D01*
X143290248Y-94742227D01*
X143459766Y-94628959D01*
X143603929Y-94484796D01*
X143717197Y-94315278D01*
X143795218Y-94126920D01*
X143810861Y-94048275D01*
X143901898Y-94030167D01*
X144090256Y-93952146D01*
X144259774Y-93838878D01*
X144403937Y-93694715D01*
X144517205Y-93525197D01*
X144595226Y-93336839D01*
X144635000Y-93136880D01*
X144635000Y-92933002D01*
X144595226Y-92733043D01*
X144517205Y-92544685D01*
X144403937Y-92375167D01*
X144259774Y-92231004D01*
X144090256Y-92117736D01*
X143901898Y-92039715D01*
X143701939Y-91999941D01*
X143498061Y-91999941D01*
X143298102Y-92039715D01*
X143109744Y-92117736D01*
X142940226Y-92231004D01*
X142796063Y-92375167D01*
X142682795Y-92544685D01*
X142604774Y-92733043D01*
X142589131Y-92811688D01*
X142498094Y-92829796D01*
X142309736Y-92907817D01*
X142140218Y-93021085D01*
X141996055Y-93165248D01*
X141882787Y-93334766D01*
X141804766Y-93523124D01*
X141764992Y-93723083D01*
X131245024Y-93723083D01*
X131353475Y-93614632D01*
X131515990Y-93371411D01*
X131627932Y-93101158D01*
X131685000Y-92814260D01*
X131685000Y-92521740D01*
X131627932Y-92234842D01*
X131515990Y-91964589D01*
X131471538Y-91898061D01*
X135265000Y-91898061D01*
X135265000Y-92101939D01*
X135304774Y-92301898D01*
X135382795Y-92490256D01*
X135496063Y-92659774D01*
X135640226Y-92803937D01*
X135809744Y-92917205D01*
X135998102Y-92995226D01*
X136198061Y-93035000D01*
X136401939Y-93035000D01*
X136601898Y-92995226D01*
X136790256Y-92917205D01*
X136959774Y-92803937D01*
X137103937Y-92659774D01*
X137217205Y-92490256D01*
X137295226Y-92301898D01*
X137335000Y-92101939D01*
X137335000Y-91898061D01*
X137295226Y-91698102D01*
X137217205Y-91509744D01*
X137103937Y-91340226D01*
X136959774Y-91196063D01*
X136790256Y-91082795D01*
X136601898Y-91004774D01*
X136401939Y-90965000D01*
X136198061Y-90965000D01*
X135998102Y-91004774D01*
X135809744Y-91082795D01*
X135640226Y-91196063D01*
X135496063Y-91340226D01*
X135382795Y-91509744D01*
X135304774Y-91698102D01*
X135265000Y-91898061D01*
X131471538Y-91898061D01*
X131353475Y-91721368D01*
X131146632Y-91514525D01*
X130964466Y-91392805D01*
X131081355Y-91323178D01*
X131297588Y-91128269D01*
X131471641Y-90894920D01*
X131596825Y-90632099D01*
X131641476Y-90484890D01*
X131520155Y-90255000D01*
X130327000Y-90255000D01*
X130327000Y-90275000D01*
X130073000Y-90275000D01*
X130073000Y-90255000D01*
X128879845Y-90255000D01*
X128758524Y-90484890D01*
X128803175Y-90632099D01*
X128928359Y-90894920D01*
X129102412Y-91128269D01*
X129318645Y-91323178D01*
X129435534Y-91392805D01*
X129253368Y-91514525D01*
X129046525Y-91721368D01*
X128884010Y-91964589D01*
X128772068Y-92234842D01*
X128715000Y-92521740D01*
X126646072Y-92521740D01*
X126646072Y-91818000D01*
X126633812Y-91693518D01*
X126597502Y-91573820D01*
X126538537Y-91463506D01*
X126459185Y-91366815D01*
X126362494Y-91287463D01*
X126252180Y-91228498D01*
X126132482Y-91192188D01*
X126008000Y-91179928D01*
X124308000Y-91179928D01*
X124183518Y-91192188D01*
X124063820Y-91228498D01*
X123953506Y-91287463D01*
X123856815Y-91366815D01*
X123777463Y-91463506D01*
X123718498Y-91573820D01*
X123682188Y-91693518D01*
X123669928Y-91818000D01*
X121160000Y-91818000D01*
X121160000Y-86738000D01*
X128711928Y-86738000D01*
X128711928Y-88438000D01*
X128724188Y-88562482D01*
X128760498Y-88682180D01*
X128819463Y-88792494D01*
X128898815Y-88889185D01*
X128995506Y-88968537D01*
X129105820Y-89027502D01*
X129186466Y-89051966D01*
X129102412Y-89127731D01*
X128928359Y-89361080D01*
X128803175Y-89623901D01*
X128758524Y-89771110D01*
X128879845Y-90001000D01*
X130073000Y-90001000D01*
X130073000Y-89981000D01*
X130327000Y-89981000D01*
X130327000Y-90001000D01*
X131520155Y-90001000D01*
X131574479Y-89898061D01*
X151965000Y-89898061D01*
X151965000Y-90101939D01*
X152004774Y-90301898D01*
X152082795Y-90490256D01*
X152196063Y-90659774D01*
X152340226Y-90803937D01*
X152509744Y-90917205D01*
X152698102Y-90995226D01*
X152898061Y-91035000D01*
X153101939Y-91035000D01*
X153301898Y-90995226D01*
X153490256Y-90917205D01*
X153659774Y-90803937D01*
X153803937Y-90659774D01*
X153917205Y-90490256D01*
X153995226Y-90301898D01*
X154035000Y-90101939D01*
X154035000Y-89898061D01*
X154015109Y-89798061D01*
X159455000Y-89798061D01*
X159455000Y-90001939D01*
X159494774Y-90201898D01*
X159572795Y-90390256D01*
X159686063Y-90559774D01*
X159830226Y-90703937D01*
X159999744Y-90817205D01*
X160188102Y-90895226D01*
X160388061Y-90935000D01*
X160591939Y-90935000D01*
X160791898Y-90895226D01*
X160980256Y-90817205D01*
X161149774Y-90703937D01*
X161293937Y-90559774D01*
X161407205Y-90390256D01*
X161485226Y-90201898D01*
X161525000Y-90001939D01*
X161525000Y-89798061D01*
X161485226Y-89598102D01*
X161407205Y-89409744D01*
X161293937Y-89240226D01*
X161149774Y-89096063D01*
X160980256Y-88982795D01*
X160791898Y-88904774D01*
X160591939Y-88865000D01*
X160388061Y-88865000D01*
X160188102Y-88904774D01*
X159999744Y-88982795D01*
X159830226Y-89096063D01*
X159686063Y-89240226D01*
X159572795Y-89409744D01*
X159494774Y-89598102D01*
X159455000Y-89798061D01*
X154015109Y-89798061D01*
X153995226Y-89698102D01*
X153917205Y-89509744D01*
X153803937Y-89340226D01*
X153659774Y-89196063D01*
X153490256Y-89082795D01*
X153301898Y-89004774D01*
X153101939Y-88965000D01*
X152898061Y-88965000D01*
X152698102Y-89004774D01*
X152509744Y-89082795D01*
X152340226Y-89196063D01*
X152196063Y-89340226D01*
X152082795Y-89509744D01*
X152004774Y-89698102D01*
X151965000Y-89898061D01*
X131574479Y-89898061D01*
X131641476Y-89771110D01*
X131596825Y-89623901D01*
X131471641Y-89361080D01*
X131297588Y-89127731D01*
X131213534Y-89051966D01*
X131294180Y-89027502D01*
X131404494Y-88968537D01*
X131501185Y-88889185D01*
X131580537Y-88792494D01*
X131639502Y-88682180D01*
X131675812Y-88562482D01*
X131688072Y-88438000D01*
X131688072Y-86750000D01*
X133311928Y-86750000D01*
X133311928Y-88450000D01*
X133324188Y-88574482D01*
X133360498Y-88694180D01*
X133419463Y-88804494D01*
X133498815Y-88901185D01*
X133595506Y-88980537D01*
X133705820Y-89039502D01*
X133825518Y-89075812D01*
X133950000Y-89088072D01*
X135650000Y-89088072D01*
X135774482Y-89075812D01*
X135894180Y-89039502D01*
X136004494Y-88980537D01*
X136101185Y-88901185D01*
X136180537Y-88804494D01*
X136239502Y-88694180D01*
X136263966Y-88613534D01*
X136339731Y-88697588D01*
X136573080Y-88871641D01*
X136835901Y-88996825D01*
X136983110Y-89041476D01*
X137213000Y-88920155D01*
X137213000Y-87727000D01*
X137193000Y-87727000D01*
X137193000Y-87473000D01*
X137213000Y-87473000D01*
X137213000Y-86279845D01*
X137467000Y-86279845D01*
X137467000Y-87473000D01*
X137487000Y-87473000D01*
X137487000Y-87727000D01*
X137467000Y-87727000D01*
X137467000Y-88920155D01*
X137696890Y-89041476D01*
X137844099Y-88996825D01*
X138106920Y-88871641D01*
X138340269Y-88697588D01*
X138535178Y-88481355D01*
X138604805Y-88364466D01*
X138726525Y-88546632D01*
X138933368Y-88753475D01*
X139176589Y-88915990D01*
X139446842Y-89027932D01*
X139733740Y-89085000D01*
X140026260Y-89085000D01*
X140313158Y-89027932D01*
X140583411Y-88915990D01*
X140826632Y-88753475D01*
X141033475Y-88546632D01*
X141150000Y-88372240D01*
X141266525Y-88546632D01*
X141473368Y-88753475D01*
X141716589Y-88915990D01*
X141986842Y-89027932D01*
X142273740Y-89085000D01*
X142566260Y-89085000D01*
X142853158Y-89027932D01*
X143123411Y-88915990D01*
X143366632Y-88753475D01*
X143573475Y-88546632D01*
X143690000Y-88372240D01*
X143806525Y-88546632D01*
X144013368Y-88753475D01*
X144256589Y-88915990D01*
X144526842Y-89027932D01*
X144813740Y-89085000D01*
X145106260Y-89085000D01*
X145393158Y-89027932D01*
X145663411Y-88915990D01*
X145906632Y-88753475D01*
X146113475Y-88546632D01*
X146230000Y-88372240D01*
X146346525Y-88546632D01*
X146553368Y-88753475D01*
X146796589Y-88915990D01*
X147066842Y-89027932D01*
X147353740Y-89085000D01*
X147646260Y-89085000D01*
X147933158Y-89027932D01*
X148203411Y-88915990D01*
X148446632Y-88753475D01*
X148653475Y-88546632D01*
X148752746Y-88398061D01*
X154865000Y-88398061D01*
X154865000Y-88601939D01*
X154904774Y-88801898D01*
X154982795Y-88990256D01*
X155096063Y-89159774D01*
X155240226Y-89303937D01*
X155409744Y-89417205D01*
X155598102Y-89495226D01*
X155798061Y-89535000D01*
X156001939Y-89535000D01*
X156201898Y-89495226D01*
X156390256Y-89417205D01*
X156559774Y-89303937D01*
X156700000Y-89163711D01*
X156840226Y-89303937D01*
X157009744Y-89417205D01*
X157198102Y-89495226D01*
X157398061Y-89535000D01*
X157601939Y-89535000D01*
X157801898Y-89495226D01*
X157990256Y-89417205D01*
X158159774Y-89303937D01*
X158303937Y-89159774D01*
X158417205Y-88990256D01*
X158495226Y-88801898D01*
X158535000Y-88601939D01*
X158535000Y-88398061D01*
X158495226Y-88198102D01*
X158417205Y-88009744D01*
X158303937Y-87840226D01*
X158159774Y-87696063D01*
X157990256Y-87582795D01*
X157801898Y-87504774D01*
X157601939Y-87465000D01*
X157398061Y-87465000D01*
X157198102Y-87504774D01*
X157009744Y-87582795D01*
X156840226Y-87696063D01*
X156700000Y-87836289D01*
X156559774Y-87696063D01*
X156390256Y-87582795D01*
X156201898Y-87504774D01*
X156001939Y-87465000D01*
X155798061Y-87465000D01*
X155598102Y-87504774D01*
X155409744Y-87582795D01*
X155240226Y-87696063D01*
X155096063Y-87840226D01*
X154982795Y-88009744D01*
X154904774Y-88198102D01*
X154865000Y-88398061D01*
X148752746Y-88398061D01*
X148815990Y-88303411D01*
X148927932Y-88033158D01*
X148985000Y-87746260D01*
X148985000Y-87453740D01*
X148927932Y-87166842D01*
X148815990Y-86896589D01*
X148683338Y-86698061D01*
X161165000Y-86698061D01*
X161165000Y-86901939D01*
X161204774Y-87101898D01*
X161282795Y-87290256D01*
X161396063Y-87459774D01*
X161540226Y-87603937D01*
X161709744Y-87717205D01*
X161898102Y-87795226D01*
X162098061Y-87835000D01*
X162301939Y-87835000D01*
X162501898Y-87795226D01*
X162690256Y-87717205D01*
X162859774Y-87603937D01*
X163003937Y-87459774D01*
X163117205Y-87290256D01*
X163195226Y-87101898D01*
X163235000Y-86901939D01*
X163235000Y-86698061D01*
X163195226Y-86498102D01*
X163117205Y-86309744D01*
X163003937Y-86140226D01*
X162859774Y-85996063D01*
X162690256Y-85882795D01*
X162501898Y-85804774D01*
X162301939Y-85765000D01*
X162098061Y-85765000D01*
X161898102Y-85804774D01*
X161709744Y-85882795D01*
X161540226Y-85996063D01*
X161396063Y-86140226D01*
X161282795Y-86309744D01*
X161204774Y-86498102D01*
X161165000Y-86698061D01*
X148683338Y-86698061D01*
X148653475Y-86653368D01*
X148446632Y-86446525D01*
X148203411Y-86284010D01*
X147933158Y-86172068D01*
X147646260Y-86115000D01*
X147353740Y-86115000D01*
X147066842Y-86172068D01*
X146796589Y-86284010D01*
X146553368Y-86446525D01*
X146346525Y-86653368D01*
X146230000Y-86827760D01*
X146113475Y-86653368D01*
X145906632Y-86446525D01*
X145663411Y-86284010D01*
X145393158Y-86172068D01*
X145106260Y-86115000D01*
X144813740Y-86115000D01*
X144526842Y-86172068D01*
X144256589Y-86284010D01*
X144013368Y-86446525D01*
X143806525Y-86653368D01*
X143690000Y-86827760D01*
X143573475Y-86653368D01*
X143366632Y-86446525D01*
X143123411Y-86284010D01*
X142853158Y-86172068D01*
X142566260Y-86115000D01*
X142273740Y-86115000D01*
X141986842Y-86172068D01*
X141716589Y-86284010D01*
X141473368Y-86446525D01*
X141266525Y-86653368D01*
X141150000Y-86827760D01*
X141033475Y-86653368D01*
X140826632Y-86446525D01*
X140583411Y-86284010D01*
X140313158Y-86172068D01*
X140026260Y-86115000D01*
X139733740Y-86115000D01*
X139446842Y-86172068D01*
X139176589Y-86284010D01*
X138933368Y-86446525D01*
X138726525Y-86653368D01*
X138604805Y-86835534D01*
X138535178Y-86718645D01*
X138340269Y-86502412D01*
X138106920Y-86328359D01*
X137844099Y-86203175D01*
X137696890Y-86158524D01*
X137467000Y-86279845D01*
X137213000Y-86279845D01*
X136983110Y-86158524D01*
X136835901Y-86203175D01*
X136573080Y-86328359D01*
X136339731Y-86502412D01*
X136263966Y-86586466D01*
X136239502Y-86505820D01*
X136180537Y-86395506D01*
X136101185Y-86298815D01*
X136004494Y-86219463D01*
X135894180Y-86160498D01*
X135774482Y-86124188D01*
X135650000Y-86111928D01*
X133950000Y-86111928D01*
X133825518Y-86124188D01*
X133705820Y-86160498D01*
X133595506Y-86219463D01*
X133498815Y-86298815D01*
X133419463Y-86395506D01*
X133360498Y-86505820D01*
X133324188Y-86625518D01*
X133311928Y-86750000D01*
X131688072Y-86750000D01*
X131688072Y-86738000D01*
X131675812Y-86613518D01*
X131639502Y-86493820D01*
X131580537Y-86383506D01*
X131501185Y-86286815D01*
X131404494Y-86207463D01*
X131294180Y-86148498D01*
X131174482Y-86112188D01*
X131050000Y-86099928D01*
X129350000Y-86099928D01*
X129225518Y-86112188D01*
X129105820Y-86148498D01*
X128995506Y-86207463D01*
X128898815Y-86286815D01*
X128819463Y-86383506D01*
X128760498Y-86493820D01*
X128724188Y-86613518D01*
X128711928Y-86738000D01*
X121160000Y-86738000D01*
X121160000Y-84998061D01*
X153265000Y-84998061D01*
X153265000Y-85201939D01*
X153304774Y-85401898D01*
X153382795Y-85590256D01*
X153496063Y-85759774D01*
X153640226Y-85903937D01*
X153809744Y-86017205D01*
X153998102Y-86095226D01*
X154198061Y-86135000D01*
X154401939Y-86135000D01*
X154601898Y-86095226D01*
X154790256Y-86017205D01*
X154959774Y-85903937D01*
X155103937Y-85759774D01*
X155217205Y-85590256D01*
X155295226Y-85401898D01*
X155335000Y-85201939D01*
X155335000Y-84998061D01*
X155295226Y-84798102D01*
X155217205Y-84609744D01*
X155103937Y-84440226D01*
X154959774Y-84296063D01*
X154790256Y-84182795D01*
X154601898Y-84104774D01*
X154401939Y-84065000D01*
X154198061Y-84065000D01*
X153998102Y-84104774D01*
X153809744Y-84182795D01*
X153640226Y-84296063D01*
X153496063Y-84440226D01*
X153382795Y-84609744D01*
X153304774Y-84798102D01*
X153265000Y-84998061D01*
X121160000Y-84998061D01*
X121160000Y-83648061D01*
X122540000Y-83648061D01*
X122540000Y-83851939D01*
X122579774Y-84051898D01*
X122657795Y-84240256D01*
X122771063Y-84409774D01*
X122915226Y-84553937D01*
X123084744Y-84667205D01*
X123273102Y-84745226D01*
X123473061Y-84785000D01*
X123676939Y-84785000D01*
X123876898Y-84745226D01*
X124065256Y-84667205D01*
X124234774Y-84553937D01*
X124378937Y-84409774D01*
X124485646Y-84250072D01*
X125970000Y-84250072D01*
X126094482Y-84237812D01*
X126214180Y-84201502D01*
X126324494Y-84142537D01*
X126421185Y-84063185D01*
X126500537Y-83966494D01*
X126559502Y-83856180D01*
X126581513Y-83783620D01*
X126713368Y-83915475D01*
X126956589Y-84077990D01*
X127226842Y-84189932D01*
X127513740Y-84247000D01*
X127806260Y-84247000D01*
X128093158Y-84189932D01*
X128363411Y-84077990D01*
X128606632Y-83915475D01*
X128813475Y-83708632D01*
X128930000Y-83534240D01*
X129046525Y-83708632D01*
X129253368Y-83915475D01*
X129496589Y-84077990D01*
X129766842Y-84189932D01*
X130053740Y-84247000D01*
X130346260Y-84247000D01*
X130633158Y-84189932D01*
X130903411Y-84077990D01*
X131146632Y-83915475D01*
X131353475Y-83708632D01*
X131515990Y-83465411D01*
X131627932Y-83195158D01*
X131685000Y-82908260D01*
X131685000Y-82615740D01*
X131627932Y-82328842D01*
X131515990Y-82058589D01*
X131353475Y-81815368D01*
X131146632Y-81608525D01*
X130903411Y-81446010D01*
X130633158Y-81334068D01*
X130346260Y-81277000D01*
X130053740Y-81277000D01*
X129766842Y-81334068D01*
X129496589Y-81446010D01*
X129253368Y-81608525D01*
X129046525Y-81815368D01*
X128930000Y-81989760D01*
X128813475Y-81815368D01*
X128606632Y-81608525D01*
X128363411Y-81446010D01*
X128093158Y-81334068D01*
X127806260Y-81277000D01*
X127513740Y-81277000D01*
X127226842Y-81334068D01*
X126956589Y-81446010D01*
X126713368Y-81608525D01*
X126581513Y-81740380D01*
X126559502Y-81667820D01*
X126500537Y-81557506D01*
X126421185Y-81460815D01*
X126324494Y-81381463D01*
X126214180Y-81322498D01*
X126094482Y-81286188D01*
X125970000Y-81273928D01*
X124270000Y-81273928D01*
X124145518Y-81286188D01*
X124025820Y-81322498D01*
X123915506Y-81381463D01*
X123818815Y-81460815D01*
X123739463Y-81557506D01*
X123680498Y-81667820D01*
X123644188Y-81787518D01*
X123631928Y-81912000D01*
X123631928Y-82715000D01*
X123473061Y-82715000D01*
X123273102Y-82754774D01*
X123084744Y-82832795D01*
X122915226Y-82946063D01*
X122771063Y-83090226D01*
X122657795Y-83259744D01*
X122579774Y-83448102D01*
X122540000Y-83648061D01*
X121160000Y-83648061D01*
X121160000Y-75844890D01*
X123700524Y-75844890D01*
X123745175Y-75992099D01*
X123870359Y-76254920D01*
X124044412Y-76488269D01*
X124260645Y-76683178D01*
X124510748Y-76832157D01*
X124785109Y-76929481D01*
X125015000Y-76808814D01*
X125015000Y-75615000D01*
X125269000Y-75615000D01*
X125269000Y-76808814D01*
X125498891Y-76929481D01*
X125773252Y-76832157D01*
X126023355Y-76683178D01*
X126239588Y-76488269D01*
X126413641Y-76254920D01*
X126538825Y-75992099D01*
X126583476Y-75844890D01*
X126462155Y-75615000D01*
X125269000Y-75615000D01*
X125015000Y-75615000D01*
X123821845Y-75615000D01*
X123700524Y-75844890D01*
X121160000Y-75844890D01*
X121160000Y-67018000D01*
X123653928Y-67018000D01*
X123653928Y-68718000D01*
X123666188Y-68842482D01*
X123702498Y-68962180D01*
X123761463Y-69072494D01*
X123840815Y-69169185D01*
X123937506Y-69248537D01*
X124047820Y-69307502D01*
X124120380Y-69329513D01*
X123988525Y-69461368D01*
X123826010Y-69704589D01*
X123714068Y-69974842D01*
X123657000Y-70261740D01*
X123657000Y-70554260D01*
X123714068Y-70841158D01*
X123826010Y-71111411D01*
X123988525Y-71354632D01*
X124195368Y-71561475D01*
X124369760Y-71678000D01*
X124195368Y-71794525D01*
X123988525Y-72001368D01*
X123826010Y-72244589D01*
X123714068Y-72514842D01*
X123657000Y-72801740D01*
X123657000Y-73094260D01*
X123714068Y-73381158D01*
X123826010Y-73651411D01*
X123988525Y-73894632D01*
X124195368Y-74101475D01*
X124377534Y-74223195D01*
X124260645Y-74292822D01*
X124044412Y-74487731D01*
X123870359Y-74721080D01*
X123745175Y-74983901D01*
X123700524Y-75131110D01*
X123821845Y-75361000D01*
X125015000Y-75361000D01*
X125015000Y-75341000D01*
X125269000Y-75341000D01*
X125269000Y-75361000D01*
X126462155Y-75361000D01*
X126583476Y-75131110D01*
X126538825Y-74983901D01*
X126413641Y-74721080D01*
X126239588Y-74487731D01*
X126023355Y-74292822D01*
X125906466Y-74223195D01*
X126088632Y-74101475D01*
X126295475Y-73894632D01*
X126457990Y-73651411D01*
X126569932Y-73381158D01*
X126627000Y-73094260D01*
X126627000Y-72801740D01*
X126569932Y-72514842D01*
X126457990Y-72244589D01*
X126295475Y-72001368D01*
X126088632Y-71794525D01*
X125914240Y-71678000D01*
X126088632Y-71561475D01*
X126295475Y-71354632D01*
X126457990Y-71111411D01*
X126569932Y-70841158D01*
X126627000Y-70554260D01*
X126627000Y-70261740D01*
X126569932Y-69974842D01*
X126457990Y-69704589D01*
X126295475Y-69461368D01*
X126163620Y-69329513D01*
X126236180Y-69307502D01*
X126346494Y-69248537D01*
X126443185Y-69169185D01*
X126522537Y-69072494D01*
X126581502Y-68962180D01*
X126617812Y-68842482D01*
X126630072Y-68718000D01*
X126630072Y-67721740D01*
X128737000Y-67721740D01*
X128737000Y-68014260D01*
X128794068Y-68301158D01*
X128906010Y-68571411D01*
X129068525Y-68814632D01*
X129275368Y-69021475D01*
X129449760Y-69138000D01*
X129275368Y-69254525D01*
X129068525Y-69461368D01*
X128906010Y-69704589D01*
X128794068Y-69974842D01*
X128737000Y-70261740D01*
X128737000Y-70554260D01*
X128794068Y-70841158D01*
X128906010Y-71111411D01*
X129068525Y-71354632D01*
X129275368Y-71561475D01*
X129449760Y-71678000D01*
X129275368Y-71794525D01*
X129068525Y-72001368D01*
X128906010Y-72244589D01*
X128794068Y-72514842D01*
X128737000Y-72801740D01*
X128737000Y-73094260D01*
X128794068Y-73381158D01*
X128906010Y-73651411D01*
X129068525Y-73894632D01*
X129275368Y-74101475D01*
X129449760Y-74218000D01*
X129275368Y-74334525D01*
X129068525Y-74541368D01*
X128906010Y-74784589D01*
X128794068Y-75054842D01*
X128737000Y-75341740D01*
X128737000Y-75634260D01*
X128794068Y-75921158D01*
X128906010Y-76191411D01*
X129068525Y-76434632D01*
X129275368Y-76641475D01*
X129449760Y-76758000D01*
X129275368Y-76874525D01*
X129068525Y-77081368D01*
X128906010Y-77324589D01*
X128794068Y-77594842D01*
X128737000Y-77881740D01*
X128737000Y-78174260D01*
X128794068Y-78461158D01*
X128906010Y-78731411D01*
X129068525Y-78974632D01*
X129275368Y-79181475D01*
X129518589Y-79343990D01*
X129788842Y-79455932D01*
X130075740Y-79513000D01*
X130368260Y-79513000D01*
X130655158Y-79455932D01*
X130925411Y-79343990D01*
X131168632Y-79181475D01*
X131375475Y-78974632D01*
X131537990Y-78731411D01*
X131649932Y-78461158D01*
X131707000Y-78174260D01*
X131707000Y-77881740D01*
X131649932Y-77594842D01*
X131537990Y-77324589D01*
X131375475Y-77081368D01*
X131168632Y-76874525D01*
X130994240Y-76758000D01*
X131168632Y-76641475D01*
X131375475Y-76434632D01*
X131537990Y-76191411D01*
X131649932Y-75921158D01*
X131707000Y-75634260D01*
X131707000Y-75341740D01*
X131649932Y-75054842D01*
X131537990Y-74784589D01*
X131375475Y-74541368D01*
X131168632Y-74334525D01*
X130994240Y-74218000D01*
X131168632Y-74101475D01*
X131375475Y-73894632D01*
X131537990Y-73651411D01*
X131560088Y-73598061D01*
X150665000Y-73598061D01*
X150665000Y-73801939D01*
X150704774Y-74001898D01*
X150782795Y-74190256D01*
X150896063Y-74359774D01*
X151040226Y-74503937D01*
X151209744Y-74617205D01*
X151398102Y-74695226D01*
X151598061Y-74735000D01*
X151801939Y-74735000D01*
X152001898Y-74695226D01*
X152190256Y-74617205D01*
X152359774Y-74503937D01*
X152503937Y-74359774D01*
X152617205Y-74190256D01*
X152695226Y-74001898D01*
X152735000Y-73801939D01*
X152735000Y-73598061D01*
X152695226Y-73398102D01*
X152617205Y-73209744D01*
X152542582Y-73098061D01*
X153264988Y-73098061D01*
X153264988Y-73301939D01*
X153304762Y-73501898D01*
X153382783Y-73690256D01*
X153496051Y-73859774D01*
X153640214Y-74003937D01*
X153809732Y-74117205D01*
X153998090Y-74195226D01*
X154198049Y-74235000D01*
X154401927Y-74235000D01*
X154601886Y-74195226D01*
X154790244Y-74117205D01*
X154959762Y-74003937D01*
X155103925Y-73859774D01*
X155217193Y-73690256D01*
X155295214Y-73501898D01*
X155334988Y-73301939D01*
X155334988Y-73098061D01*
X155295214Y-72898102D01*
X155217193Y-72709744D01*
X155103925Y-72540226D01*
X154959762Y-72396063D01*
X154790244Y-72282795D01*
X154601886Y-72204774D01*
X154401927Y-72165000D01*
X154198049Y-72165000D01*
X153998090Y-72204774D01*
X153809732Y-72282795D01*
X153640214Y-72396063D01*
X153496051Y-72540226D01*
X153382783Y-72709744D01*
X153304762Y-72898102D01*
X153264988Y-73098061D01*
X152542582Y-73098061D01*
X152503937Y-73040226D01*
X152359774Y-72896063D01*
X152190256Y-72782795D01*
X152001898Y-72704774D01*
X151801939Y-72665000D01*
X151598061Y-72665000D01*
X151398102Y-72704774D01*
X151209744Y-72782795D01*
X151040226Y-72896063D01*
X150896063Y-73040226D01*
X150782795Y-73209744D01*
X150704774Y-73398102D01*
X150665000Y-73598061D01*
X131560088Y-73598061D01*
X131649932Y-73381158D01*
X131707000Y-73094260D01*
X131707000Y-72801740D01*
X131649932Y-72514842D01*
X131537990Y-72244589D01*
X131375475Y-72001368D01*
X131168632Y-71794525D01*
X130994240Y-71678000D01*
X131168632Y-71561475D01*
X131375475Y-71354632D01*
X131537990Y-71111411D01*
X131649932Y-70841158D01*
X131707000Y-70554260D01*
X131707000Y-70261740D01*
X131649932Y-69974842D01*
X131537990Y-69704589D01*
X131375475Y-69461368D01*
X131168632Y-69254525D01*
X130994240Y-69138000D01*
X131168632Y-69021475D01*
X131375475Y-68814632D01*
X131537990Y-68571411D01*
X131649932Y-68301158D01*
X131707000Y-68014260D01*
X131707000Y-67721740D01*
X131649932Y-67434842D01*
X131537990Y-67164589D01*
X131375475Y-66921368D01*
X131168632Y-66714525D01*
X130986466Y-66592805D01*
X131103355Y-66523178D01*
X131242160Y-66398061D01*
X160415000Y-66398061D01*
X160415000Y-66601939D01*
X160454774Y-66801898D01*
X160532795Y-66990256D01*
X160646063Y-67159774D01*
X160790226Y-67303937D01*
X160959744Y-67417205D01*
X161148102Y-67495226D01*
X161348061Y-67535000D01*
X161551939Y-67535000D01*
X161751898Y-67495226D01*
X161940256Y-67417205D01*
X162109774Y-67303937D01*
X162253937Y-67159774D01*
X162367205Y-66990256D01*
X162445226Y-66801898D01*
X162485000Y-66601939D01*
X162485000Y-66398061D01*
X162445226Y-66198102D01*
X162367205Y-66009744D01*
X162253937Y-65840226D01*
X162109774Y-65696063D01*
X161940256Y-65582795D01*
X161751898Y-65504774D01*
X161551939Y-65465000D01*
X161348061Y-65465000D01*
X161148102Y-65504774D01*
X160959744Y-65582795D01*
X160790226Y-65696063D01*
X160646063Y-65840226D01*
X160532795Y-66009744D01*
X160454774Y-66198102D01*
X160415000Y-66398061D01*
X131242160Y-66398061D01*
X131319588Y-66328269D01*
X131493641Y-66094920D01*
X131618825Y-65832099D01*
X131663476Y-65684890D01*
X131542155Y-65455000D01*
X130349000Y-65455000D01*
X130349000Y-65475000D01*
X130095000Y-65475000D01*
X130095000Y-65455000D01*
X128901845Y-65455000D01*
X128780524Y-65684890D01*
X128825175Y-65832099D01*
X128950359Y-66094920D01*
X129124412Y-66328269D01*
X129340645Y-66523178D01*
X129457534Y-66592805D01*
X129275368Y-66714525D01*
X129068525Y-66921368D01*
X128906010Y-67164589D01*
X128794068Y-67434842D01*
X128737000Y-67721740D01*
X126630072Y-67721740D01*
X126630072Y-67018000D01*
X126617812Y-66893518D01*
X126581502Y-66773820D01*
X126522537Y-66663506D01*
X126443185Y-66566815D01*
X126346494Y-66487463D01*
X126236180Y-66428498D01*
X126116482Y-66392188D01*
X125992000Y-66379928D01*
X124292000Y-66379928D01*
X124167518Y-66392188D01*
X124047820Y-66428498D01*
X123937506Y-66487463D01*
X123840815Y-66566815D01*
X123761463Y-66663506D01*
X123702498Y-66773820D01*
X123666188Y-66893518D01*
X123653928Y-67018000D01*
X121160000Y-67018000D01*
X121160000Y-61938000D01*
X128733928Y-61938000D01*
X128733928Y-63638000D01*
X128746188Y-63762482D01*
X128782498Y-63882180D01*
X128841463Y-63992494D01*
X128920815Y-64089185D01*
X129017506Y-64168537D01*
X129127820Y-64227502D01*
X129208466Y-64251966D01*
X129124412Y-64327731D01*
X128950359Y-64561080D01*
X128825175Y-64823901D01*
X128780524Y-64971110D01*
X128901845Y-65201000D01*
X130095000Y-65201000D01*
X130095000Y-65181000D01*
X130349000Y-65181000D01*
X130349000Y-65201000D01*
X131542155Y-65201000D01*
X131663476Y-64971110D01*
X131618825Y-64823901D01*
X131493641Y-64561080D01*
X131319588Y-64327731D01*
X131235534Y-64251966D01*
X131316180Y-64227502D01*
X131426494Y-64168537D01*
X131523185Y-64089185D01*
X131602537Y-63992494D01*
X131661502Y-63882180D01*
X131697812Y-63762482D01*
X131710072Y-63638000D01*
X131710072Y-62598061D01*
X142665000Y-62598061D01*
X142665000Y-62801939D01*
X142704774Y-63001898D01*
X142782795Y-63190256D01*
X142896063Y-63359774D01*
X143040226Y-63503937D01*
X143209744Y-63617205D01*
X143398102Y-63695226D01*
X143598061Y-63735000D01*
X143801939Y-63735000D01*
X144001898Y-63695226D01*
X144190256Y-63617205D01*
X144359774Y-63503937D01*
X144503937Y-63359774D01*
X144617205Y-63190256D01*
X144695226Y-63001898D01*
X144735000Y-62801939D01*
X144735000Y-62598061D01*
X144695226Y-62398102D01*
X144617205Y-62209744D01*
X144503937Y-62040226D01*
X144359774Y-61896063D01*
X144190256Y-61782795D01*
X144001898Y-61704774D01*
X143801939Y-61665000D01*
X143598061Y-61665000D01*
X143398102Y-61704774D01*
X143209744Y-61782795D01*
X143040226Y-61896063D01*
X142896063Y-62040226D01*
X142782795Y-62209744D01*
X142704774Y-62398102D01*
X142665000Y-62598061D01*
X131710072Y-62598061D01*
X131710072Y-61938000D01*
X131697812Y-61813518D01*
X131661502Y-61693820D01*
X131602537Y-61583506D01*
X131523185Y-61486815D01*
X131426494Y-61407463D01*
X131316180Y-61348498D01*
X131196482Y-61312188D01*
X131072000Y-61299928D01*
X129372000Y-61299928D01*
X129247518Y-61312188D01*
X129127820Y-61348498D01*
X129017506Y-61407463D01*
X128920815Y-61486815D01*
X128841463Y-61583506D01*
X128782498Y-61693820D01*
X128746188Y-61813518D01*
X128733928Y-61938000D01*
X121160000Y-61938000D01*
X121160000Y-58048061D01*
X121815000Y-58048061D01*
X121815000Y-58251939D01*
X121854774Y-58451898D01*
X121932795Y-58640256D01*
X122046063Y-58809774D01*
X122190226Y-58953937D01*
X122359744Y-59067205D01*
X122548102Y-59145226D01*
X122748061Y-59185000D01*
X122951939Y-59185000D01*
X123151898Y-59145226D01*
X123340256Y-59067205D01*
X123509774Y-58953937D01*
X123653928Y-58809783D01*
X123653928Y-58812000D01*
X123666188Y-58936482D01*
X123702498Y-59056180D01*
X123761463Y-59166494D01*
X123840815Y-59263185D01*
X123937506Y-59342537D01*
X124047820Y-59401502D01*
X124167518Y-59437812D01*
X124292000Y-59450072D01*
X125992000Y-59450072D01*
X126116482Y-59437812D01*
X126236180Y-59401502D01*
X126346494Y-59342537D01*
X126443185Y-59263185D01*
X126522537Y-59166494D01*
X126581502Y-59056180D01*
X126603513Y-58983620D01*
X126735368Y-59115475D01*
X126978589Y-59277990D01*
X127248842Y-59389932D01*
X127535740Y-59447000D01*
X127828260Y-59447000D01*
X128115158Y-59389932D01*
X128385411Y-59277990D01*
X128628632Y-59115475D01*
X128835475Y-58908632D01*
X128952000Y-58734240D01*
X129068525Y-58908632D01*
X129275368Y-59115475D01*
X129518589Y-59277990D01*
X129788842Y-59389932D01*
X130075740Y-59447000D01*
X130368260Y-59447000D01*
X130655158Y-59389932D01*
X130925411Y-59277990D01*
X131168632Y-59115475D01*
X131375475Y-58908632D01*
X131537990Y-58665411D01*
X131649932Y-58395158D01*
X131707000Y-58108260D01*
X131707000Y-57815740D01*
X131649932Y-57528842D01*
X131537990Y-57258589D01*
X131375475Y-57015368D01*
X131168632Y-56808525D01*
X130925411Y-56646010D01*
X130655158Y-56534068D01*
X130368260Y-56477000D01*
X130075740Y-56477000D01*
X129788842Y-56534068D01*
X129518589Y-56646010D01*
X129275368Y-56808525D01*
X129068525Y-57015368D01*
X128952000Y-57189760D01*
X128835475Y-57015368D01*
X128628632Y-56808525D01*
X128385411Y-56646010D01*
X128115158Y-56534068D01*
X127828260Y-56477000D01*
X127535740Y-56477000D01*
X127248842Y-56534068D01*
X126978589Y-56646010D01*
X126735368Y-56808525D01*
X126603513Y-56940380D01*
X126581502Y-56867820D01*
X126522537Y-56757506D01*
X126443185Y-56660815D01*
X126346494Y-56581463D01*
X126236180Y-56522498D01*
X126116482Y-56486188D01*
X125992000Y-56473928D01*
X124292000Y-56473928D01*
X124167518Y-56486188D01*
X124047820Y-56522498D01*
X123937506Y-56581463D01*
X123840815Y-56660815D01*
X123761463Y-56757506D01*
X123702498Y-56867820D01*
X123666188Y-56987518D01*
X123653928Y-57112000D01*
X123653928Y-57490217D01*
X123509774Y-57346063D01*
X123340256Y-57232795D01*
X123151898Y-57154774D01*
X122951939Y-57115000D01*
X122748061Y-57115000D01*
X122548102Y-57154774D01*
X122359744Y-57232795D01*
X122190226Y-57346063D01*
X122046063Y-57490226D01*
X121932795Y-57659744D01*
X121854774Y-57848102D01*
X121815000Y-58048061D01*
X121160000Y-58048061D01*
X121160000Y-55898061D01*
X149365000Y-55898061D01*
X149365000Y-56101939D01*
X149404774Y-56301898D01*
X149482795Y-56490256D01*
X149596063Y-56659774D01*
X149740226Y-56803937D01*
X149909744Y-56917205D01*
X150098102Y-56995226D01*
X150298061Y-57035000D01*
X150501939Y-57035000D01*
X150701898Y-56995226D01*
X150890256Y-56917205D01*
X151059774Y-56803937D01*
X151203937Y-56659774D01*
X151317205Y-56490256D01*
X151395226Y-56301898D01*
X151435000Y-56101939D01*
X151435000Y-55898061D01*
X151395226Y-55698102D01*
X151317205Y-55509744D01*
X151203937Y-55340226D01*
X151059774Y-55196063D01*
X150890256Y-55082795D01*
X150701898Y-55004774D01*
X150501939Y-54965000D01*
X150298061Y-54965000D01*
X150098102Y-55004774D01*
X149909744Y-55082795D01*
X149740226Y-55196063D01*
X149596063Y-55340226D01*
X149482795Y-55509744D01*
X149404774Y-55698102D01*
X149365000Y-55898061D01*
X121160000Y-55898061D01*
X121160000Y-54930665D01*
X121199463Y-55004494D01*
X121278815Y-55101185D01*
X121375506Y-55180537D01*
X121485820Y-55239502D01*
X121605518Y-55275812D01*
X121730000Y-55288072D01*
X123430000Y-55288072D01*
X123554482Y-55275812D01*
X123674180Y-55239502D01*
X123784494Y-55180537D01*
X123881185Y-55101185D01*
X123960537Y-55004494D01*
X124019502Y-54894180D01*
X124041513Y-54821620D01*
X124173368Y-54953475D01*
X124416589Y-55115990D01*
X124686842Y-55227932D01*
X124973740Y-55285000D01*
X125266260Y-55285000D01*
X125553158Y-55227932D01*
X125823411Y-55115990D01*
X126066632Y-54953475D01*
X126273475Y-54746632D01*
X126395195Y-54564466D01*
X126464822Y-54681355D01*
X126659731Y-54897588D01*
X126893080Y-55071641D01*
X127155901Y-55196825D01*
X127303110Y-55241476D01*
X127533000Y-55120155D01*
X127533000Y-53927000D01*
X127513000Y-53927000D01*
X127513000Y-53673000D01*
X127533000Y-53673000D01*
X127533000Y-52479845D01*
X127787000Y-52479845D01*
X127787000Y-53673000D01*
X127807000Y-53673000D01*
X127807000Y-53927000D01*
X127787000Y-53927000D01*
X127787000Y-55120155D01*
X128016890Y-55241476D01*
X128164099Y-55196825D01*
X128426920Y-55071641D01*
X128660269Y-54897588D01*
X128855178Y-54681355D01*
X128924805Y-54564466D01*
X129046525Y-54746632D01*
X129253368Y-54953475D01*
X129496589Y-55115990D01*
X129766842Y-55227932D01*
X130053740Y-55285000D01*
X130346260Y-55285000D01*
X130633158Y-55227932D01*
X130903411Y-55115990D01*
X131146632Y-54953475D01*
X131353475Y-54746632D01*
X131515990Y-54503411D01*
X131627932Y-54233158D01*
X131685000Y-53946260D01*
X131685000Y-53653740D01*
X131627932Y-53366842D01*
X131515990Y-53096589D01*
X131353475Y-52853368D01*
X131146632Y-52646525D01*
X130903411Y-52484010D01*
X130633158Y-52372068D01*
X130346260Y-52315000D01*
X130053740Y-52315000D01*
X129766842Y-52372068D01*
X129496589Y-52484010D01*
X129253368Y-52646525D01*
X129046525Y-52853368D01*
X128924805Y-53035534D01*
X128855178Y-52918645D01*
X128660269Y-52702412D01*
X128426920Y-52528359D01*
X128164099Y-52403175D01*
X128016890Y-52358524D01*
X127787000Y-52479845D01*
X127533000Y-52479845D01*
X127303110Y-52358524D01*
X127155901Y-52403175D01*
X126893080Y-52528359D01*
X126659731Y-52702412D01*
X126464822Y-52918645D01*
X126395195Y-53035534D01*
X126273475Y-52853368D01*
X126066632Y-52646525D01*
X125823411Y-52484010D01*
X125553158Y-52372068D01*
X125266260Y-52315000D01*
X124973740Y-52315000D01*
X124686842Y-52372068D01*
X124416589Y-52484010D01*
X124173368Y-52646525D01*
X124041513Y-52778380D01*
X124019502Y-52705820D01*
X123960537Y-52595506D01*
X123881185Y-52498815D01*
X123784494Y-52419463D01*
X123674180Y-52360498D01*
X123554482Y-52324188D01*
X123430000Y-52311928D01*
X121730000Y-52311928D01*
X121605518Y-52324188D01*
X121485820Y-52360498D01*
X121375506Y-52419463D01*
X121278815Y-52498815D01*
X121199463Y-52595506D01*
X121160000Y-52669335D01*
X121160000Y-47779872D01*
X122265000Y-47779872D01*
X122265000Y-48220128D01*
X122350890Y-48651925D01*
X122519369Y-49058669D01*
X122763962Y-49424729D01*
X123075271Y-49736038D01*
X123441331Y-49980631D01*
X123848075Y-50149110D01*
X124279872Y-50235000D01*
X124720128Y-50235000D01*
X125151925Y-50149110D01*
X125558669Y-49980631D01*
X125924729Y-49736038D01*
X126236038Y-49424729D01*
X126480631Y-49058669D01*
X126649110Y-48651925D01*
X126735000Y-48220128D01*
X126735000Y-47779872D01*
X166765000Y-47779872D01*
X166765000Y-48220128D01*
X166850890Y-48651925D01*
X167019369Y-49058669D01*
X167263962Y-49424729D01*
X167575271Y-49736038D01*
X167941331Y-49980631D01*
X168348075Y-50149110D01*
X168779872Y-50235000D01*
X169220128Y-50235000D01*
X169651925Y-50149110D01*
X170058669Y-49980631D01*
X170424729Y-49736038D01*
X170736038Y-49424729D01*
X170980631Y-49058669D01*
X171149110Y-48651925D01*
X171235000Y-48220128D01*
X171235000Y-47779872D01*
X171149110Y-47348075D01*
X170980631Y-46941331D01*
X170736038Y-46575271D01*
X170424729Y-46263962D01*
X170058669Y-46019369D01*
X169651925Y-45850890D01*
X169220128Y-45765000D01*
X168779872Y-45765000D01*
X168348075Y-45850890D01*
X167941331Y-46019369D01*
X167575271Y-46263962D01*
X167263962Y-46575271D01*
X167019369Y-46941331D01*
X166850890Y-47348075D01*
X166765000Y-47779872D01*
X126735000Y-47779872D01*
X126649110Y-47348075D01*
X126480631Y-46941331D01*
X126236038Y-46575271D01*
X125924729Y-46263962D01*
X125558669Y-46019369D01*
X125151925Y-45850890D01*
X124720128Y-45765000D01*
X124279872Y-45765000D01*
X123848075Y-45850890D01*
X123441331Y-46019369D01*
X123075271Y-46263962D01*
X122763962Y-46575271D01*
X122519369Y-46941331D01*
X122350890Y-47348075D01*
X122265000Y-47779872D01*
X121160000Y-47779872D01*
X121160000Y-46372614D01*
X121228032Y-46440646D01*
X121426376Y-46573175D01*
X121646764Y-46664462D01*
X121880727Y-46711000D01*
X122119273Y-46711000D01*
X122353236Y-46664462D01*
X122573624Y-46573175D01*
X122771968Y-46440646D01*
X122940646Y-46271968D01*
X123073175Y-46073624D01*
X123164462Y-45853236D01*
X123211000Y-45619273D01*
X123211000Y-45380727D01*
X123164462Y-45146764D01*
X123073175Y-44926376D01*
X122940646Y-44728032D01*
X122872614Y-44660000D01*
X170627386Y-44660000D01*
X170559354Y-44728032D01*
%TA.AperFunction,Conductor*%
D20*
G36*
X170559354Y-44728032D02*
G01*
X170426825Y-44926376D01*
X170335538Y-45146764D01*
X170289000Y-45380727D01*
X170289000Y-45619273D01*
X170335538Y-45853236D01*
X170426825Y-46073624D01*
X170559354Y-46271968D01*
X170728032Y-46440646D01*
X170926376Y-46573175D01*
X171146764Y-46664462D01*
X171380727Y-46711000D01*
X171619273Y-46711000D01*
X171853236Y-46664462D01*
X172073624Y-46573175D01*
X172271968Y-46440646D01*
X172340000Y-46372614D01*
X172340000Y-85953906D01*
X164900000Y-85953906D01*
X164875224Y-85956346D01*
X164851399Y-85963573D01*
X164829443Y-85975309D01*
X164810197Y-85991103D01*
X164794403Y-86010349D01*
X164782667Y-86032305D01*
X164775440Y-86056130D01*
X164773000Y-86080906D01*
X164773000Y-115080906D01*
X164775440Y-115105682D01*
X164782667Y-115129507D01*
X164794403Y-115151463D01*
X164810197Y-115170709D01*
X164829443Y-115186503D01*
X164851399Y-115198239D01*
X164875224Y-115205466D01*
X164900000Y-115207906D01*
X172340001Y-115207906D01*
X172340001Y-119734869D01*
X172323520Y-119718388D01*
X172137624Y-119594176D01*
X171931067Y-119508617D01*
X171711788Y-119465000D01*
X171488212Y-119465000D01*
X171268933Y-119508617D01*
X171062376Y-119594176D01*
X170876480Y-119718388D01*
X170718388Y-119876480D01*
X170594176Y-120062376D01*
X170508617Y-120268933D01*
X170465000Y-120488212D01*
X170465000Y-120711788D01*
X170508617Y-120931067D01*
X170594176Y-121137624D01*
X170718388Y-121323520D01*
X170876480Y-121481612D01*
X171062376Y-121605824D01*
X171268933Y-121691383D01*
X171488212Y-121735000D01*
X171711788Y-121735000D01*
X171931067Y-121691383D01*
X172137624Y-121605824D01*
X172323520Y-121481612D01*
X172340001Y-121465131D01*
X172340001Y-127734869D01*
X172323520Y-127718388D01*
X172137624Y-127594176D01*
X171931067Y-127508617D01*
X171711788Y-127465000D01*
X171488212Y-127465000D01*
X171268933Y-127508617D01*
X171062376Y-127594176D01*
X170876480Y-127718388D01*
X170718388Y-127876480D01*
X170594176Y-128062376D01*
X170508617Y-128268933D01*
X170465000Y-128488212D01*
X170465000Y-128711788D01*
X170508617Y-128931067D01*
X170594176Y-129137624D01*
X170718388Y-129323520D01*
X170876480Y-129481612D01*
X171062376Y-129605824D01*
X171268933Y-129691383D01*
X171488212Y-129735000D01*
X171711788Y-129735000D01*
X171931067Y-129691383D01*
X172137624Y-129605824D01*
X172323520Y-129481612D01*
X172340001Y-129465131D01*
X172340001Y-137627387D01*
X172271968Y-137559354D01*
X172073624Y-137426825D01*
X171853236Y-137335538D01*
X171619273Y-137289000D01*
X171380727Y-137289000D01*
X171146764Y-137335538D01*
X170926376Y-137426825D01*
X170728032Y-137559354D01*
X170559354Y-137728032D01*
X170426825Y-137926376D01*
X170335538Y-138146764D01*
X170289000Y-138380727D01*
X170289000Y-138619273D01*
X170335538Y-138853236D01*
X170426825Y-139073624D01*
X170559354Y-139271968D01*
X170627386Y-139340000D01*
X122872614Y-139340000D01*
X122940646Y-139271968D01*
X123073175Y-139073624D01*
X123164462Y-138853236D01*
X123211000Y-138619273D01*
X123211000Y-138380727D01*
X123164462Y-138146764D01*
X123073175Y-137926376D01*
X122940646Y-137728032D01*
X122771968Y-137559354D01*
X122573624Y-137426825D01*
X122353236Y-137335538D01*
X122119273Y-137289000D01*
X121880727Y-137289000D01*
X121646764Y-137335538D01*
X121426376Y-137426825D01*
X121228032Y-137559354D01*
X121160000Y-137627386D01*
X121160000Y-135779872D01*
X122265000Y-135779872D01*
X122265000Y-136220128D01*
X122350890Y-136651925D01*
X122519369Y-137058669D01*
X122763962Y-137424729D01*
X123075271Y-137736038D01*
X123441331Y-137980631D01*
X123848075Y-138149110D01*
X124279872Y-138235000D01*
X124720128Y-138235000D01*
X125151925Y-138149110D01*
X125558669Y-137980631D01*
X125682243Y-137898061D01*
X150965000Y-137898061D01*
X150965000Y-138101939D01*
X151004774Y-138301898D01*
X151082795Y-138490256D01*
X151196063Y-138659774D01*
X151340226Y-138803937D01*
X151509744Y-138917205D01*
X151698102Y-138995226D01*
X151898061Y-139035000D01*
X152101939Y-139035000D01*
X152301898Y-138995226D01*
X152490256Y-138917205D01*
X152659774Y-138803937D01*
X152803937Y-138659774D01*
X152850000Y-138590836D01*
X152896063Y-138659774D01*
X153040226Y-138803937D01*
X153209744Y-138917205D01*
X153398102Y-138995226D01*
X153598061Y-139035000D01*
X153801939Y-139035000D01*
X154001898Y-138995226D01*
X154190256Y-138917205D01*
X154359774Y-138803937D01*
X154503937Y-138659774D01*
X154617205Y-138490256D01*
X154695226Y-138301898D01*
X154735000Y-138101939D01*
X154735000Y-137898061D01*
X154695226Y-137698102D01*
X154617205Y-137509744D01*
X154503937Y-137340226D01*
X154359774Y-137196063D01*
X154190256Y-137082795D01*
X154001898Y-137004774D01*
X153801939Y-136965000D01*
X153598061Y-136965000D01*
X153398102Y-137004774D01*
X153209744Y-137082795D01*
X153040226Y-137196063D01*
X152896063Y-137340226D01*
X152850000Y-137409164D01*
X152803937Y-137340226D01*
X152659774Y-137196063D01*
X152490256Y-137082795D01*
X152301898Y-137004774D01*
X152101939Y-136965000D01*
X151898061Y-136965000D01*
X151698102Y-137004774D01*
X151509744Y-137082795D01*
X151340226Y-137196063D01*
X151196063Y-137340226D01*
X151082795Y-137509744D01*
X151004774Y-137698102D01*
X150965000Y-137898061D01*
X125682243Y-137898061D01*
X125924729Y-137736038D01*
X126236038Y-137424729D01*
X126480631Y-137058669D01*
X126649110Y-136651925D01*
X126735000Y-136220128D01*
X126735000Y-135779872D01*
X126649110Y-135348075D01*
X126480631Y-134941331D01*
X126385910Y-134799570D01*
X135865000Y-134799570D01*
X135865000Y-135200430D01*
X135943204Y-135593587D01*
X136096607Y-135963934D01*
X136319313Y-136297237D01*
X136602763Y-136580687D01*
X136936066Y-136803393D01*
X137306413Y-136956796D01*
X137699570Y-137035000D01*
X138100430Y-137035000D01*
X138493587Y-136956796D01*
X138863934Y-136803393D01*
X139197237Y-136580687D01*
X139480687Y-136297237D01*
X139703393Y-135963934D01*
X139779634Y-135779872D01*
X166765000Y-135779872D01*
X166765000Y-136220128D01*
X166850890Y-136651925D01*
X167019369Y-137058669D01*
X167263962Y-137424729D01*
X167575271Y-137736038D01*
X167941331Y-137980631D01*
X168348075Y-138149110D01*
X168779872Y-138235000D01*
X169220128Y-138235000D01*
X169651925Y-138149110D01*
X170058669Y-137980631D01*
X170424729Y-137736038D01*
X170736038Y-137424729D01*
X170980631Y-137058669D01*
X171149110Y-136651925D01*
X171235000Y-136220128D01*
X171235000Y-135779872D01*
X171149110Y-135348075D01*
X170980631Y-134941331D01*
X170736038Y-134575271D01*
X170424729Y-134263962D01*
X170058669Y-134019369D01*
X169651925Y-133850890D01*
X169220128Y-133765000D01*
X168779872Y-133765000D01*
X168348075Y-133850890D01*
X167941331Y-134019369D01*
X167575271Y-134263962D01*
X167263962Y-134575271D01*
X167019369Y-134941331D01*
X166850890Y-135348075D01*
X166765000Y-135779872D01*
X139779634Y-135779872D01*
X139856796Y-135593587D01*
X139935000Y-135200430D01*
X139935000Y-134799570D01*
X139856796Y-134406413D01*
X139703393Y-134036066D01*
X139480687Y-133702763D01*
X139197237Y-133419313D01*
X138863934Y-133196607D01*
X138493587Y-133043204D01*
X138100430Y-132965000D01*
X137699570Y-132965000D01*
X137306413Y-133043204D01*
X136936066Y-133196607D01*
X136602763Y-133419313D01*
X136319313Y-133702763D01*
X136096607Y-134036066D01*
X135943204Y-134406413D01*
X135865000Y-134799570D01*
X126385910Y-134799570D01*
X126236038Y-134575271D01*
X125924729Y-134263962D01*
X125558669Y-134019369D01*
X125151925Y-133850890D01*
X124720128Y-133765000D01*
X124279872Y-133765000D01*
X123848075Y-133850890D01*
X123441331Y-134019369D01*
X123075271Y-134263962D01*
X122763962Y-134575271D01*
X122519369Y-134941331D01*
X122350890Y-135348075D01*
X122265000Y-135779872D01*
X121160000Y-135779872D01*
X121160000Y-130898061D01*
X146965000Y-130898061D01*
X146965000Y-131101939D01*
X147004774Y-131301898D01*
X147082795Y-131490256D01*
X147196063Y-131659774D01*
X147340226Y-131803937D01*
X147509744Y-131917205D01*
X147698102Y-131995226D01*
X147898061Y-132035000D01*
X148101939Y-132035000D01*
X148301898Y-131995226D01*
X148490256Y-131917205D01*
X148659774Y-131803937D01*
X148803937Y-131659774D01*
X148917205Y-131490256D01*
X148995226Y-131301898D01*
X149000000Y-131277897D01*
X149004774Y-131301898D01*
X149082795Y-131490256D01*
X149196063Y-131659774D01*
X149340226Y-131803937D01*
X149509744Y-131917205D01*
X149698102Y-131995226D01*
X149898061Y-132035000D01*
X150101939Y-132035000D01*
X150301898Y-131995226D01*
X150490256Y-131917205D01*
X150659774Y-131803937D01*
X150803937Y-131659774D01*
X150917205Y-131490256D01*
X150995226Y-131301898D01*
X151035000Y-131101939D01*
X151035000Y-130898061D01*
X152965000Y-130898061D01*
X152965000Y-131101939D01*
X153004774Y-131301898D01*
X153082795Y-131490256D01*
X153196063Y-131659774D01*
X153340226Y-131803937D01*
X153509744Y-131917205D01*
X153698102Y-131995226D01*
X153898061Y-132035000D01*
X154101939Y-132035000D01*
X154301898Y-131995226D01*
X154490256Y-131917205D01*
X154659774Y-131803937D01*
X154803937Y-131659774D01*
X154917205Y-131490256D01*
X154995226Y-131301898D01*
X155000000Y-131277897D01*
X155004774Y-131301898D01*
X155082795Y-131490256D01*
X155196063Y-131659774D01*
X155340226Y-131803937D01*
X155509744Y-131917205D01*
X155698102Y-131995226D01*
X155898061Y-132035000D01*
X156101939Y-132035000D01*
X156301898Y-131995226D01*
X156490256Y-131917205D01*
X156659774Y-131803937D01*
X156803937Y-131659774D01*
X156917205Y-131490256D01*
X156995226Y-131301898D01*
X157000000Y-131277897D01*
X157004774Y-131301898D01*
X157082795Y-131490256D01*
X157196063Y-131659774D01*
X157340226Y-131803937D01*
X157509744Y-131917205D01*
X157698102Y-131995226D01*
X157898061Y-132035000D01*
X158101939Y-132035000D01*
X158301898Y-131995226D01*
X158490256Y-131917205D01*
X158659774Y-131803937D01*
X158803937Y-131659774D01*
X158917205Y-131490256D01*
X158995226Y-131301898D01*
X159035000Y-131101939D01*
X159035000Y-130898061D01*
X158995226Y-130698102D01*
X158917205Y-130509744D01*
X158803937Y-130340226D01*
X158659774Y-130196063D01*
X158490256Y-130082795D01*
X158301898Y-130004774D01*
X158101939Y-129965000D01*
X157898061Y-129965000D01*
X157698102Y-130004774D01*
X157509744Y-130082795D01*
X157340226Y-130196063D01*
X157196063Y-130340226D01*
X157082795Y-130509744D01*
X157004774Y-130698102D01*
X157000000Y-130722103D01*
X156995226Y-130698102D01*
X156917205Y-130509744D01*
X156803937Y-130340226D01*
X156659774Y-130196063D01*
X156490256Y-130082795D01*
X156301898Y-130004774D01*
X156101939Y-129965000D01*
X155898061Y-129965000D01*
X155698102Y-130004774D01*
X155509744Y-130082795D01*
X155340226Y-130196063D01*
X155196063Y-130340226D01*
X155082795Y-130509744D01*
X155004774Y-130698102D01*
X155000000Y-130722103D01*
X154995226Y-130698102D01*
X154917205Y-130509744D01*
X154803937Y-130340226D01*
X154659774Y-130196063D01*
X154490256Y-130082795D01*
X154301898Y-130004774D01*
X154101939Y-129965000D01*
X153898061Y-129965000D01*
X153698102Y-130004774D01*
X153509744Y-130082795D01*
X153340226Y-130196063D01*
X153196063Y-130340226D01*
X153082795Y-130509744D01*
X153004774Y-130698102D01*
X152965000Y-130898061D01*
X151035000Y-130898061D01*
X150995226Y-130698102D01*
X150917205Y-130509744D01*
X150803937Y-130340226D01*
X150659774Y-130196063D01*
X150490256Y-130082795D01*
X150301898Y-130004774D01*
X150101939Y-129965000D01*
X149898061Y-129965000D01*
X149698102Y-130004774D01*
X149509744Y-130082795D01*
X149340226Y-130196063D01*
X149196063Y-130340226D01*
X149082795Y-130509744D01*
X149004774Y-130698102D01*
X149000000Y-130722103D01*
X148995226Y-130698102D01*
X148917205Y-130509744D01*
X148803937Y-130340226D01*
X148659774Y-130196063D01*
X148490256Y-130082795D01*
X148301898Y-130004774D01*
X148101939Y-129965000D01*
X147898061Y-129965000D01*
X147698102Y-130004774D01*
X147509744Y-130082795D01*
X147340226Y-130196063D01*
X147196063Y-130340226D01*
X147082795Y-130509744D01*
X147004774Y-130698102D01*
X146965000Y-130898061D01*
X121160000Y-130898061D01*
X121160000Y-127898061D01*
X162165000Y-127898061D01*
X162165000Y-128101939D01*
X162204774Y-128301898D01*
X162282795Y-128490256D01*
X162396063Y-128659774D01*
X162540226Y-128803937D01*
X162709744Y-128917205D01*
X162898102Y-128995226D01*
X163098061Y-129035000D01*
X163301939Y-129035000D01*
X163501898Y-128995226D01*
X163690256Y-128917205D01*
X163859774Y-128803937D01*
X164003937Y-128659774D01*
X164117205Y-128490256D01*
X164195226Y-128301898D01*
X164235000Y-128101939D01*
X164235000Y-127898061D01*
X164195226Y-127698102D01*
X164117205Y-127509744D01*
X164003937Y-127340226D01*
X163859774Y-127196063D01*
X163690256Y-127082795D01*
X163501898Y-127004774D01*
X163301939Y-126965000D01*
X163098061Y-126965000D01*
X162898102Y-127004774D01*
X162709744Y-127082795D01*
X162540226Y-127196063D01*
X162396063Y-127340226D01*
X162282795Y-127509744D01*
X162204774Y-127698102D01*
X162165000Y-127898061D01*
X121160000Y-127898061D01*
X121160000Y-126198061D01*
X127965000Y-126198061D01*
X127965000Y-126401939D01*
X128004774Y-126601898D01*
X128082795Y-126790256D01*
X128196063Y-126959774D01*
X128340226Y-127103937D01*
X128509744Y-127217205D01*
X128698102Y-127295226D01*
X128898061Y-127335000D01*
X129101939Y-127335000D01*
X129301898Y-127295226D01*
X129490256Y-127217205D01*
X129659774Y-127103937D01*
X129803937Y-126959774D01*
X129917205Y-126790256D01*
X129995226Y-126601898D01*
X130035000Y-126401939D01*
X130035000Y-126198061D01*
X129995226Y-125998102D01*
X129917205Y-125809744D01*
X129842582Y-125698061D01*
X161165000Y-125698061D01*
X161165000Y-125901939D01*
X161204774Y-126101898D01*
X161282795Y-126290256D01*
X161396063Y-126459774D01*
X161540226Y-126603937D01*
X161709744Y-126717205D01*
X161898102Y-126795226D01*
X162098061Y-126835000D01*
X162301939Y-126835000D01*
X162501898Y-126795226D01*
X162690256Y-126717205D01*
X162859774Y-126603937D01*
X163003937Y-126459774D01*
X163117205Y-126290256D01*
X163195226Y-126101898D01*
X163235000Y-125901939D01*
X163235000Y-125698061D01*
X163195226Y-125498102D01*
X163117205Y-125309744D01*
X163003937Y-125140226D01*
X162859774Y-124996063D01*
X162690256Y-124882795D01*
X162501898Y-124804774D01*
X162301939Y-124765000D01*
X162098061Y-124765000D01*
X161898102Y-124804774D01*
X161709744Y-124882795D01*
X161540226Y-124996063D01*
X161396063Y-125140226D01*
X161282795Y-125309744D01*
X161204774Y-125498102D01*
X161165000Y-125698061D01*
X129842582Y-125698061D01*
X129803937Y-125640226D01*
X129659774Y-125496063D01*
X129490256Y-125382795D01*
X129301898Y-125304774D01*
X129101939Y-125265000D01*
X128898061Y-125265000D01*
X128698102Y-125304774D01*
X128509744Y-125382795D01*
X128340226Y-125496063D01*
X128196063Y-125640226D01*
X128082795Y-125809744D01*
X128004774Y-125998102D01*
X127965000Y-126198061D01*
X121160000Y-126198061D01*
X121160000Y-123363589D01*
X121715000Y-123363589D01*
X121715000Y-123636411D01*
X121768225Y-123903989D01*
X121872629Y-124156043D01*
X122024201Y-124382886D01*
X122217114Y-124575799D01*
X122443957Y-124727371D01*
X122696011Y-124831775D01*
X122963589Y-124885000D01*
X123236411Y-124885000D01*
X123503989Y-124831775D01*
X123756043Y-124727371D01*
X123982886Y-124575799D01*
X124175799Y-124382886D01*
X124327371Y-124156043D01*
X124431775Y-123903989D01*
X124485000Y-123636411D01*
X124485000Y-123363589D01*
X124431775Y-123096011D01*
X124327371Y-122843957D01*
X124175799Y-122617114D01*
X124135735Y-122577050D01*
X134915000Y-122577050D01*
X134915000Y-123022949D01*
X134936487Y-123241110D01*
X135021401Y-123521033D01*
X135159294Y-123779013D01*
X135344866Y-124005134D01*
X135570986Y-124190706D01*
X135828966Y-124328599D01*
X136108889Y-124413513D01*
X136400000Y-124442185D01*
X136691110Y-124413513D01*
X136971033Y-124328599D01*
X137229013Y-124190706D01*
X137449945Y-124009392D01*
X137460498Y-124044180D01*
X137519463Y-124154494D01*
X137598815Y-124251185D01*
X137695506Y-124330537D01*
X137805820Y-124389502D01*
X137925518Y-124425812D01*
X138050000Y-124438072D01*
X138614250Y-124435000D01*
X138773000Y-124276250D01*
X138773000Y-122927000D01*
X139027000Y-122927000D01*
X139027000Y-124276250D01*
X139185750Y-124435000D01*
X139750000Y-124438072D01*
X139874482Y-124425812D01*
X139994180Y-124389502D01*
X140104494Y-124330537D01*
X140201185Y-124251185D01*
X140280537Y-124154494D01*
X140339502Y-124044180D01*
X140375812Y-123924482D01*
X140388072Y-123800000D01*
X140386774Y-123498061D01*
X161165000Y-123498061D01*
X161165000Y-123701939D01*
X161204774Y-123901898D01*
X161282795Y-124090256D01*
X161396063Y-124259774D01*
X161540226Y-124403937D01*
X161709744Y-124517205D01*
X161898102Y-124595226D01*
X162098061Y-124635000D01*
X162301939Y-124635000D01*
X162501898Y-124595226D01*
X162690256Y-124517205D01*
X162859774Y-124403937D01*
X163003937Y-124259774D01*
X163117205Y-124090256D01*
X163195226Y-123901898D01*
X163235000Y-123701939D01*
X163235000Y-123498061D01*
X163465008Y-123498061D01*
X163465008Y-123701939D01*
X163504782Y-123901898D01*
X163582803Y-124090256D01*
X163696071Y-124259774D01*
X163840234Y-124403937D01*
X164009752Y-124517205D01*
X164198110Y-124595226D01*
X164398069Y-124635000D01*
X164601947Y-124635000D01*
X164801906Y-124595226D01*
X164990264Y-124517205D01*
X165159782Y-124403937D01*
X165303945Y-124259774D01*
X165417213Y-124090256D01*
X165495234Y-123901898D01*
X165535008Y-123701939D01*
X165535008Y-123498061D01*
X165495234Y-123298102D01*
X165417213Y-123109744D01*
X165303945Y-122940226D01*
X165159782Y-122796063D01*
X164990264Y-122682795D01*
X164801906Y-122604774D01*
X164601947Y-122565000D01*
X164398069Y-122565000D01*
X164198110Y-122604774D01*
X164009752Y-122682795D01*
X163840234Y-122796063D01*
X163696071Y-122940226D01*
X163582803Y-123109744D01*
X163504782Y-123298102D01*
X163465008Y-123498061D01*
X163235000Y-123498061D01*
X163195226Y-123298102D01*
X163117205Y-123109744D01*
X163003937Y-122940226D01*
X162859774Y-122796063D01*
X162690256Y-122682795D01*
X162501898Y-122604774D01*
X162301939Y-122565000D01*
X162098061Y-122565000D01*
X161898102Y-122604774D01*
X161709744Y-122682795D01*
X161540226Y-122796063D01*
X161396063Y-122940226D01*
X161282795Y-123109744D01*
X161204774Y-123298102D01*
X161165000Y-123498061D01*
X140386774Y-123498061D01*
X140385000Y-123085750D01*
X140226250Y-122927000D01*
X139027000Y-122927000D01*
X138773000Y-122927000D01*
X138753000Y-122927000D01*
X138753000Y-122673000D01*
X138773000Y-122673000D01*
X138773000Y-121323750D01*
X139027000Y-121323750D01*
X139027000Y-122673000D01*
X140226250Y-122673000D01*
X140385000Y-122514250D01*
X140387061Y-122035000D01*
X140621637Y-122035000D01*
X140860236Y-121987540D01*
X141084992Y-121894443D01*
X141287267Y-121759287D01*
X141459287Y-121587267D01*
X141594443Y-121384992D01*
X141687540Y-121160236D01*
X141735000Y-120921637D01*
X141735000Y-120678363D01*
X141687540Y-120439764D01*
X141594443Y-120215008D01*
X141459287Y-120012733D01*
X141287267Y-119840713D01*
X141084992Y-119705557D01*
X140860236Y-119612460D01*
X140621637Y-119565000D01*
X140378363Y-119565000D01*
X140139764Y-119612460D01*
X139915008Y-119705557D01*
X139712733Y-119840713D01*
X139540713Y-120012733D01*
X139405557Y-120215008D01*
X139312460Y-120439764D01*
X139265000Y-120678363D01*
X139265000Y-120921637D01*
X139312460Y-121160236D01*
X139314144Y-121164301D01*
X139185750Y-121165000D01*
X139027000Y-121323750D01*
X138773000Y-121323750D01*
X138614250Y-121165000D01*
X138050000Y-121161928D01*
X137925518Y-121174188D01*
X137805820Y-121210498D01*
X137695506Y-121269463D01*
X137598815Y-121348815D01*
X137519463Y-121445506D01*
X137460498Y-121555820D01*
X137449945Y-121590608D01*
X137229014Y-121409294D01*
X136971034Y-121271401D01*
X136691111Y-121186487D01*
X136400000Y-121157815D01*
X136108890Y-121186487D01*
X135828967Y-121271401D01*
X135570987Y-121409294D01*
X135344866Y-121594866D01*
X135159294Y-121820986D01*
X135021401Y-122078966D01*
X134936487Y-122358889D01*
X134915000Y-122577050D01*
X124135735Y-122577050D01*
X123982886Y-122424201D01*
X123756043Y-122272629D01*
X123503989Y-122168225D01*
X123236411Y-122115000D01*
X122963589Y-122115000D01*
X122696011Y-122168225D01*
X122443957Y-122272629D01*
X122217114Y-122424201D01*
X122024201Y-122617114D01*
X121872629Y-122843957D01*
X121768225Y-123096011D01*
X121715000Y-123363589D01*
X121160000Y-123363589D01*
X121160000Y-118898061D01*
X144965000Y-118898061D01*
X144965000Y-119101939D01*
X145004774Y-119301898D01*
X145082795Y-119490256D01*
X145196063Y-119659774D01*
X145340226Y-119803937D01*
X145509744Y-119917205D01*
X145698102Y-119995226D01*
X145898061Y-120035000D01*
X146101939Y-120035000D01*
X146301898Y-119995226D01*
X146490256Y-119917205D01*
X146659774Y-119803937D01*
X146803937Y-119659774D01*
X146917205Y-119490256D01*
X146995226Y-119301898D01*
X147035000Y-119101939D01*
X147035000Y-118898061D01*
X146995226Y-118698102D01*
X146917205Y-118509744D01*
X146803937Y-118340226D01*
X146659774Y-118196063D01*
X146490256Y-118082795D01*
X146301898Y-118004774D01*
X146101939Y-117965000D01*
X145898061Y-117965000D01*
X145698102Y-118004774D01*
X145509744Y-118082795D01*
X145340226Y-118196063D01*
X145196063Y-118340226D01*
X145082795Y-118509744D01*
X145004774Y-118698102D01*
X144965000Y-118898061D01*
X121160000Y-118898061D01*
X121160000Y-116898061D01*
X121715000Y-116898061D01*
X121715000Y-117101939D01*
X121754774Y-117301898D01*
X121832795Y-117490256D01*
X121946063Y-117659774D01*
X122090226Y-117803937D01*
X122259744Y-117917205D01*
X122448102Y-117995226D01*
X122648061Y-118035000D01*
X122851939Y-118035000D01*
X123051898Y-117995226D01*
X123240256Y-117917205D01*
X123250000Y-117910694D01*
X123259744Y-117917205D01*
X123448102Y-117995226D01*
X123648061Y-118035000D01*
X123851939Y-118035000D01*
X124051898Y-117995226D01*
X124240256Y-117917205D01*
X124250000Y-117910694D01*
X124259744Y-117917205D01*
X124448102Y-117995226D01*
X124648061Y-118035000D01*
X124851939Y-118035000D01*
X125051898Y-117995226D01*
X125240256Y-117917205D01*
X125250000Y-117910694D01*
X125259744Y-117917205D01*
X125448102Y-117995226D01*
X125648061Y-118035000D01*
X125851939Y-118035000D01*
X126051898Y-117995226D01*
X126240256Y-117917205D01*
X126409774Y-117803937D01*
X126553937Y-117659774D01*
X126667205Y-117490256D01*
X126745226Y-117301898D01*
X126785000Y-117101939D01*
X126785000Y-116898061D01*
X162065000Y-116898061D01*
X162065000Y-117101939D01*
X162104774Y-117301898D01*
X162182795Y-117490256D01*
X162296063Y-117659774D01*
X162440226Y-117803937D01*
X162609744Y-117917205D01*
X162798102Y-117995226D01*
X162998061Y-118035000D01*
X163201939Y-118035000D01*
X163401898Y-117995226D01*
X163590256Y-117917205D01*
X163759774Y-117803937D01*
X163903937Y-117659774D01*
X164017205Y-117490256D01*
X164095226Y-117301898D01*
X164135000Y-117101939D01*
X164135000Y-116898061D01*
X164095226Y-116698102D01*
X164017205Y-116509744D01*
X163903937Y-116340226D01*
X163759774Y-116196063D01*
X163590256Y-116082795D01*
X163401898Y-116004774D01*
X163201939Y-115965000D01*
X162998061Y-115965000D01*
X162798102Y-116004774D01*
X162609744Y-116082795D01*
X162440226Y-116196063D01*
X162296063Y-116340226D01*
X162182795Y-116509744D01*
X162104774Y-116698102D01*
X162065000Y-116898061D01*
X126785000Y-116898061D01*
X126745226Y-116698102D01*
X126667205Y-116509744D01*
X126553937Y-116340226D01*
X126409774Y-116196063D01*
X126340857Y-116150014D01*
X126409774Y-116103965D01*
X126553937Y-115959802D01*
X126667205Y-115790284D01*
X126745226Y-115601926D01*
X126785000Y-115401967D01*
X126785000Y-115198089D01*
X126745226Y-114998130D01*
X126667205Y-114809772D01*
X126553937Y-114640254D01*
X126409774Y-114496091D01*
X126240256Y-114382823D01*
X126051898Y-114304802D01*
X125851939Y-114265028D01*
X125648061Y-114265028D01*
X125448102Y-114304802D01*
X125259744Y-114382823D01*
X125090226Y-114496091D01*
X124946063Y-114640254D01*
X124832795Y-114809772D01*
X124754774Y-114998130D01*
X124715000Y-115198089D01*
X124715000Y-115401967D01*
X124754774Y-115601926D01*
X124832795Y-115790284D01*
X124946063Y-115959802D01*
X124975923Y-115989662D01*
X124851939Y-115965000D01*
X124648061Y-115965000D01*
X124448102Y-116004774D01*
X124259744Y-116082795D01*
X124250000Y-116089306D01*
X124240256Y-116082795D01*
X124051898Y-116004774D01*
X123851939Y-115965000D01*
X123648061Y-115965000D01*
X123448102Y-116004774D01*
X123259744Y-116082795D01*
X123250000Y-116089306D01*
X123240256Y-116082795D01*
X123051898Y-116004774D01*
X122851939Y-115965000D01*
X122648061Y-115965000D01*
X122448102Y-116004774D01*
X122259744Y-116082795D01*
X122090226Y-116196063D01*
X121946063Y-116340226D01*
X121832795Y-116509744D01*
X121754774Y-116698102D01*
X121715000Y-116898061D01*
X121160000Y-116898061D01*
X121160000Y-112198061D01*
X123965000Y-112198061D01*
X123965000Y-112401939D01*
X124004774Y-112601898D01*
X124082795Y-112790256D01*
X124196063Y-112959774D01*
X124340226Y-113103937D01*
X124509744Y-113217205D01*
X124698102Y-113295226D01*
X124898061Y-113335000D01*
X125101939Y-113335000D01*
X125301898Y-113295226D01*
X125490256Y-113217205D01*
X125659774Y-113103937D01*
X125750000Y-113013711D01*
X125840226Y-113103937D01*
X126009744Y-113217205D01*
X126198102Y-113295226D01*
X126398061Y-113335000D01*
X126601939Y-113335000D01*
X126801898Y-113295226D01*
X126990256Y-113217205D01*
X127159774Y-113103937D01*
X127165650Y-113098061D01*
X146165000Y-113098061D01*
X146165000Y-113301939D01*
X146204774Y-113501898D01*
X146282795Y-113690256D01*
X146396063Y-113859774D01*
X146540226Y-114003937D01*
X146709744Y-114117205D01*
X146898102Y-114195226D01*
X147098061Y-114235000D01*
X147301939Y-114235000D01*
X147501898Y-114195226D01*
X147690256Y-114117205D01*
X147859774Y-114003937D01*
X148003937Y-113859774D01*
X148117205Y-113690256D01*
X148195226Y-113501898D01*
X148235000Y-113301939D01*
X148235000Y-113098061D01*
X148195226Y-112898102D01*
X148155859Y-112803061D01*
X152560000Y-112803061D01*
X152560000Y-113006939D01*
X152599774Y-113206898D01*
X152677795Y-113395256D01*
X152791063Y-113564774D01*
X152935226Y-113708937D01*
X153104744Y-113822205D01*
X153293102Y-113900226D01*
X153328935Y-113907354D01*
X153196063Y-114040226D01*
X153082795Y-114209744D01*
X153004774Y-114398102D01*
X152965000Y-114598061D01*
X152965000Y-114801939D01*
X153004774Y-115001898D01*
X153082795Y-115190256D01*
X153196063Y-115359774D01*
X153340226Y-115503937D01*
X153509744Y-115617205D01*
X153698102Y-115695226D01*
X153898061Y-115735000D01*
X154101939Y-115735000D01*
X154301898Y-115695226D01*
X154490256Y-115617205D01*
X154659774Y-115503937D01*
X154803937Y-115359774D01*
X154917205Y-115190256D01*
X154995226Y-115001898D01*
X155035000Y-114801939D01*
X155035000Y-114598061D01*
X154995226Y-114398102D01*
X154917205Y-114209744D01*
X154803937Y-114040226D01*
X154659774Y-113896063D01*
X154490256Y-113782795D01*
X154301898Y-113704774D01*
X154266065Y-113697646D01*
X154398937Y-113564774D01*
X154512205Y-113395256D01*
X154524795Y-113364861D01*
X154598102Y-113395226D01*
X154798061Y-113435000D01*
X155001939Y-113435000D01*
X155078654Y-113419741D01*
X155004774Y-113598102D01*
X154965000Y-113798061D01*
X154965000Y-114001939D01*
X155004774Y-114201898D01*
X155082795Y-114390256D01*
X155196063Y-114559774D01*
X155340226Y-114703937D01*
X155509744Y-114817205D01*
X155698102Y-114895226D01*
X155898061Y-114935000D01*
X156101939Y-114935000D01*
X156301898Y-114895226D01*
X156490256Y-114817205D01*
X156659774Y-114703937D01*
X156803937Y-114559774D01*
X156917205Y-114390256D01*
X156995226Y-114201898D01*
X157035000Y-114001939D01*
X157035000Y-113798061D01*
X156995226Y-113598102D01*
X156917205Y-113409744D01*
X156803937Y-113240226D01*
X156659774Y-113096063D01*
X156490256Y-112982795D01*
X156301898Y-112904774D01*
X156101939Y-112865000D01*
X155898061Y-112865000D01*
X155821346Y-112880259D01*
X155895226Y-112701898D01*
X155935000Y-112501939D01*
X155935000Y-112298061D01*
X155895226Y-112098102D01*
X155817205Y-111909744D01*
X155703937Y-111740226D01*
X155663711Y-111700000D01*
X155703937Y-111659774D01*
X155811989Y-111498061D01*
X156465000Y-111498061D01*
X156465000Y-111701939D01*
X156504774Y-111901898D01*
X156582795Y-112090256D01*
X156696063Y-112259774D01*
X156840226Y-112403937D01*
X157009744Y-112517205D01*
X157198102Y-112595226D01*
X157398061Y-112635000D01*
X157601939Y-112635000D01*
X157801898Y-112595226D01*
X157990256Y-112517205D01*
X158159774Y-112403937D01*
X158303937Y-112259774D01*
X158417205Y-112090256D01*
X158495226Y-111901898D01*
X158535000Y-111701939D01*
X158535000Y-111498061D01*
X158495226Y-111298102D01*
X158417205Y-111109744D01*
X158409409Y-111098075D01*
X160465000Y-111098075D01*
X160465000Y-111301953D01*
X160504774Y-111501912D01*
X160582795Y-111690270D01*
X160696063Y-111859788D01*
X160840226Y-112003951D01*
X161009744Y-112117219D01*
X161198102Y-112195240D01*
X161398061Y-112235014D01*
X161601939Y-112235014D01*
X161801898Y-112195240D01*
X161990256Y-112117219D01*
X162159774Y-112003951D01*
X162303937Y-111859788D01*
X162417205Y-111690270D01*
X162495226Y-111501912D01*
X162535000Y-111301953D01*
X162535000Y-111098075D01*
X162495226Y-110898116D01*
X162417205Y-110709758D01*
X162303937Y-110540240D01*
X162159774Y-110396077D01*
X161990256Y-110282809D01*
X161801898Y-110204788D01*
X161601939Y-110165014D01*
X161398061Y-110165014D01*
X161198102Y-110204788D01*
X161009744Y-110282809D01*
X160840226Y-110396077D01*
X160696063Y-110540240D01*
X160582795Y-110709758D01*
X160504774Y-110898116D01*
X160465000Y-111098075D01*
X158409409Y-111098075D01*
X158303937Y-110940226D01*
X158159774Y-110796063D01*
X157990256Y-110682795D01*
X157801898Y-110604774D01*
X157601939Y-110565000D01*
X157398061Y-110565000D01*
X157198102Y-110604774D01*
X157009744Y-110682795D01*
X156840226Y-110796063D01*
X156696063Y-110940226D01*
X156582795Y-111109744D01*
X156504774Y-111298102D01*
X156465000Y-111498061D01*
X155811989Y-111498061D01*
X155817205Y-111490256D01*
X155895226Y-111301898D01*
X155935000Y-111101939D01*
X155935000Y-110898061D01*
X155895226Y-110698102D01*
X155817205Y-110509744D01*
X155703937Y-110340226D01*
X155559774Y-110196063D01*
X155390256Y-110082795D01*
X155201898Y-110004774D01*
X155001939Y-109965000D01*
X154798061Y-109965000D01*
X154598102Y-110004774D01*
X154409744Y-110082795D01*
X154240226Y-110196063D01*
X154096063Y-110340226D01*
X153982795Y-110509744D01*
X153904774Y-110698102D01*
X153865000Y-110898061D01*
X153865000Y-111101939D01*
X153904774Y-111301898D01*
X153982795Y-111490256D01*
X154096063Y-111659774D01*
X154136289Y-111700000D01*
X154096063Y-111740226D01*
X153982795Y-111909744D01*
X153970205Y-111940139D01*
X153896898Y-111909774D01*
X153696939Y-111870000D01*
X153493061Y-111870000D01*
X153293102Y-111909774D01*
X153104744Y-111987795D01*
X152935226Y-112101063D01*
X152791063Y-112245226D01*
X152677795Y-112414744D01*
X152599774Y-112603102D01*
X152560000Y-112803061D01*
X148155859Y-112803061D01*
X148117205Y-112709744D01*
X148003937Y-112540226D01*
X147859774Y-112396063D01*
X147690256Y-112282795D01*
X147501898Y-112204774D01*
X147301939Y-112165000D01*
X147098061Y-112165000D01*
X146898102Y-112204774D01*
X146709744Y-112282795D01*
X146540226Y-112396063D01*
X146396063Y-112540226D01*
X146282795Y-112709744D01*
X146204774Y-112898102D01*
X146165000Y-113098061D01*
X127165650Y-113098061D01*
X127303937Y-112959774D01*
X127417205Y-112790256D01*
X127495226Y-112601898D01*
X127535000Y-112401939D01*
X127535000Y-112198061D01*
X127495226Y-111998102D01*
X127417205Y-111809744D01*
X127303937Y-111640226D01*
X127159774Y-111496063D01*
X126990256Y-111382795D01*
X126801898Y-111304774D01*
X126601939Y-111265000D01*
X126398061Y-111265000D01*
X126198102Y-111304774D01*
X126009744Y-111382795D01*
X125840226Y-111496063D01*
X125750000Y-111586289D01*
X125659774Y-111496063D01*
X125490256Y-111382795D01*
X125301898Y-111304774D01*
X125101939Y-111265000D01*
X124898061Y-111265000D01*
X124698102Y-111304774D01*
X124509744Y-111382795D01*
X124340226Y-111496063D01*
X124196063Y-111640226D01*
X124082795Y-111809744D01*
X124004774Y-111998102D01*
X123965000Y-112198061D01*
X121160000Y-112198061D01*
X121160000Y-110898061D01*
X151290000Y-110898061D01*
X151290000Y-111101939D01*
X151329774Y-111301898D01*
X151407795Y-111490256D01*
X151521063Y-111659774D01*
X151665226Y-111803937D01*
X151834744Y-111917205D01*
X152023102Y-111995226D01*
X152223061Y-112035000D01*
X152426939Y-112035000D01*
X152626898Y-111995226D01*
X152815256Y-111917205D01*
X152984774Y-111803937D01*
X153128937Y-111659774D01*
X153242205Y-111490256D01*
X153320226Y-111301898D01*
X153360000Y-111101939D01*
X153360000Y-110898061D01*
X153320226Y-110698102D01*
X153242205Y-110509744D01*
X153128937Y-110340226D01*
X152984774Y-110196063D01*
X152815256Y-110082795D01*
X152626898Y-110004774D01*
X152426939Y-109965000D01*
X152223061Y-109965000D01*
X152023102Y-110004774D01*
X151834744Y-110082795D01*
X151665226Y-110196063D01*
X151521063Y-110340226D01*
X151407795Y-110509744D01*
X151329774Y-110698102D01*
X151290000Y-110898061D01*
X121160000Y-110898061D01*
X121160000Y-109198061D01*
X123965000Y-109198061D01*
X123965000Y-109401939D01*
X124004774Y-109601898D01*
X124082795Y-109790256D01*
X124196063Y-109959774D01*
X124340226Y-110103937D01*
X124509744Y-110217205D01*
X124698102Y-110295226D01*
X124898061Y-110335000D01*
X125101939Y-110335000D01*
X125301898Y-110295226D01*
X125490256Y-110217205D01*
X125659774Y-110103937D01*
X125750000Y-110013711D01*
X125840226Y-110103937D01*
X126009744Y-110217205D01*
X126198102Y-110295226D01*
X126398061Y-110335000D01*
X126601939Y-110335000D01*
X126801898Y-110295226D01*
X126990256Y-110217205D01*
X127159774Y-110103937D01*
X127303937Y-109959774D01*
X127417205Y-109790256D01*
X127495226Y-109601898D01*
X127535000Y-109401939D01*
X127535000Y-109198061D01*
X127506920Y-109056891D01*
X136718519Y-109056891D01*
X136815843Y-109331252D01*
X136964822Y-109581355D01*
X137159731Y-109797588D01*
X137393080Y-109971641D01*
X137655901Y-110096825D01*
X137803110Y-110141476D01*
X138033000Y-110020155D01*
X138033000Y-108827000D01*
X136839186Y-108827000D01*
X136718519Y-109056891D01*
X127506920Y-109056891D01*
X127495226Y-108998102D01*
X127417205Y-108809744D01*
X127303937Y-108640226D01*
X127159774Y-108496063D01*
X126990256Y-108382795D01*
X126894447Y-108343109D01*
X136718519Y-108343109D01*
X136839186Y-108573000D01*
X138033000Y-108573000D01*
X138033000Y-107379845D01*
X138287000Y-107379845D01*
X138287000Y-108573000D01*
X138307000Y-108573000D01*
X138307000Y-108827000D01*
X138287000Y-108827000D01*
X138287000Y-110020155D01*
X138516890Y-110141476D01*
X138664099Y-110096825D01*
X138926920Y-109971641D01*
X139160269Y-109797588D01*
X139236034Y-109713534D01*
X139260498Y-109794180D01*
X139319463Y-109904494D01*
X139398815Y-110001185D01*
X139495506Y-110080537D01*
X139605820Y-110139502D01*
X139725518Y-110175812D01*
X139850000Y-110188072D01*
X141550000Y-110188072D01*
X141674482Y-110175812D01*
X141794180Y-110139502D01*
X141904494Y-110080537D01*
X142001185Y-110001185D01*
X142080537Y-109904494D01*
X142139502Y-109794180D01*
X142175812Y-109674482D01*
X142188072Y-109550000D01*
X142188072Y-107850000D01*
X142175812Y-107725518D01*
X142139502Y-107605820D01*
X142080537Y-107495506D01*
X142001185Y-107398815D01*
X141904494Y-107319463D01*
X141794180Y-107260498D01*
X141674482Y-107224188D01*
X141550000Y-107211928D01*
X139850000Y-107211928D01*
X139725518Y-107224188D01*
X139605820Y-107260498D01*
X139495506Y-107319463D01*
X139398815Y-107398815D01*
X139319463Y-107495506D01*
X139260498Y-107605820D01*
X139236034Y-107686466D01*
X139160269Y-107602412D01*
X138926920Y-107428359D01*
X138664099Y-107303175D01*
X138516890Y-107258524D01*
X138287000Y-107379845D01*
X138033000Y-107379845D01*
X137803110Y-107258524D01*
X137655901Y-107303175D01*
X137393080Y-107428359D01*
X137159731Y-107602412D01*
X136964822Y-107818645D01*
X136815843Y-108068748D01*
X136718519Y-108343109D01*
X126894447Y-108343109D01*
X126801898Y-108304774D01*
X126601939Y-108265000D01*
X126398061Y-108265000D01*
X126198102Y-108304774D01*
X126009744Y-108382795D01*
X125840226Y-108496063D01*
X125750000Y-108586289D01*
X125659774Y-108496063D01*
X125490256Y-108382795D01*
X125301898Y-108304774D01*
X125101939Y-108265000D01*
X124898061Y-108265000D01*
X124698102Y-108304774D01*
X124509744Y-108382795D01*
X124340226Y-108496063D01*
X124196063Y-108640226D01*
X124082795Y-108809744D01*
X124004774Y-108998102D01*
X123965000Y-109198061D01*
X121160000Y-109198061D01*
X121160000Y-106148061D01*
X121715000Y-106148061D01*
X121715000Y-106351939D01*
X121754774Y-106551898D01*
X121832795Y-106740256D01*
X121946063Y-106909774D01*
X122090226Y-107053937D01*
X122259744Y-107167205D01*
X122448102Y-107245226D01*
X122648061Y-107285000D01*
X122851939Y-107285000D01*
X123051898Y-107245226D01*
X123240256Y-107167205D01*
X123250000Y-107160694D01*
X123259744Y-107167205D01*
X123448102Y-107245226D01*
X123648061Y-107285000D01*
X123851939Y-107285000D01*
X124051898Y-107245226D01*
X124240256Y-107167205D01*
X124250000Y-107160694D01*
X124259744Y-107167205D01*
X124448102Y-107245226D01*
X124648061Y-107285000D01*
X124851939Y-107285000D01*
X125051898Y-107245226D01*
X125240256Y-107167205D01*
X125250000Y-107160694D01*
X125259744Y-107167205D01*
X125448102Y-107245226D01*
X125648061Y-107285000D01*
X125851939Y-107285000D01*
X126051898Y-107245226D01*
X126240256Y-107167205D01*
X126409774Y-107053937D01*
X126553937Y-106909774D01*
X126667205Y-106740256D01*
X126745226Y-106551898D01*
X126782389Y-106365061D01*
X143398032Y-106365061D01*
X143398032Y-106568939D01*
X143437806Y-106768898D01*
X143515827Y-106957256D01*
X143629095Y-107126774D01*
X143773258Y-107270937D01*
X143942776Y-107384205D01*
X144131134Y-107462226D01*
X144331093Y-107502000D01*
X144534971Y-107502000D01*
X144734930Y-107462226D01*
X144923288Y-107384205D01*
X145052211Y-107298061D01*
X157665000Y-107298061D01*
X157665000Y-107501939D01*
X157704774Y-107701898D01*
X157782795Y-107890256D01*
X157896063Y-108059774D01*
X158040226Y-108203937D01*
X158209744Y-108317205D01*
X158398102Y-108395226D01*
X158598061Y-108435000D01*
X158801939Y-108435000D01*
X159001898Y-108395226D01*
X159190256Y-108317205D01*
X159300000Y-108243877D01*
X159409744Y-108317205D01*
X159598102Y-108395226D01*
X159798061Y-108435000D01*
X160001939Y-108435000D01*
X160201898Y-108395226D01*
X160390256Y-108317205D01*
X160559774Y-108203937D01*
X160703937Y-108059774D01*
X160817205Y-107890256D01*
X160895226Y-107701898D01*
X160935000Y-107501939D01*
X160935000Y-107298061D01*
X160895226Y-107098102D01*
X160817205Y-106909744D01*
X160703937Y-106740226D01*
X160559774Y-106596063D01*
X160390256Y-106482795D01*
X160201898Y-106404774D01*
X160001939Y-106365000D01*
X159798061Y-106365000D01*
X159598102Y-106404774D01*
X159409744Y-106482795D01*
X159300000Y-106556123D01*
X159190256Y-106482795D01*
X159001898Y-106404774D01*
X158801939Y-106365000D01*
X158598061Y-106365000D01*
X158398102Y-106404774D01*
X158209744Y-106482795D01*
X158040226Y-106596063D01*
X157896063Y-106740226D01*
X157782795Y-106909744D01*
X157704774Y-107098102D01*
X157665000Y-107298061D01*
X145052211Y-107298061D01*
X145092806Y-107270937D01*
X145236969Y-107126774D01*
X145350237Y-106957256D01*
X145428258Y-106768898D01*
X145468032Y-106568939D01*
X145468032Y-106365061D01*
X145428258Y-106165102D01*
X145350237Y-105976744D01*
X145236969Y-105807226D01*
X145092806Y-105663063D01*
X144923288Y-105549795D01*
X144734930Y-105471774D01*
X144534971Y-105432000D01*
X144331093Y-105432000D01*
X144131134Y-105471774D01*
X143942776Y-105549795D01*
X143773258Y-105663063D01*
X143629095Y-105807226D01*
X143515827Y-105976744D01*
X143437806Y-106165102D01*
X143398032Y-106365061D01*
X126782389Y-106365061D01*
X126785000Y-106351939D01*
X126785000Y-106148061D01*
X126745226Y-105948102D01*
X126667205Y-105759744D01*
X126553937Y-105590226D01*
X126409774Y-105446063D01*
X126240256Y-105332795D01*
X126051898Y-105254774D01*
X125851939Y-105215000D01*
X125648061Y-105215000D01*
X125448102Y-105254774D01*
X125259744Y-105332795D01*
X125250000Y-105339306D01*
X125240256Y-105332795D01*
X125051898Y-105254774D01*
X124851939Y-105215000D01*
X124648061Y-105215000D01*
X124448102Y-105254774D01*
X124259744Y-105332795D01*
X124250000Y-105339306D01*
X124240256Y-105332795D01*
X124051898Y-105254774D01*
X123851939Y-105215000D01*
X123648061Y-105215000D01*
X123448102Y-105254774D01*
X123259744Y-105332795D01*
X123250000Y-105339306D01*
X123240256Y-105332795D01*
X123051898Y-105254774D01*
X122851939Y-105215000D01*
X122648061Y-105215000D01*
X122448102Y-105254774D01*
X122259744Y-105332795D01*
X122090226Y-105446063D01*
X121946063Y-105590226D01*
X121832795Y-105759744D01*
X121754774Y-105948102D01*
X121715000Y-106148061D01*
X121160000Y-106148061D01*
X121160000Y-104653740D01*
X136675000Y-104653740D01*
X136675000Y-104946260D01*
X136732068Y-105233158D01*
X136844010Y-105503411D01*
X137006525Y-105746632D01*
X137213368Y-105953475D01*
X137456589Y-106115990D01*
X137726842Y-106227932D01*
X138013740Y-106285000D01*
X138306260Y-106285000D01*
X138593158Y-106227932D01*
X138863411Y-106115990D01*
X139106632Y-105953475D01*
X139238487Y-105821620D01*
X139260498Y-105894180D01*
X139319463Y-106004494D01*
X139398815Y-106101185D01*
X139495506Y-106180537D01*
X139605820Y-106239502D01*
X139725518Y-106275812D01*
X139850000Y-106288072D01*
X141550000Y-106288072D01*
X141674482Y-106275812D01*
X141794180Y-106239502D01*
X141904494Y-106180537D01*
X142001185Y-106101185D01*
X142080537Y-106004494D01*
X142139502Y-105894180D01*
X142175812Y-105774482D01*
X142188072Y-105650000D01*
X142188072Y-103950000D01*
X142175812Y-103825518D01*
X142139502Y-103705820D01*
X142080537Y-103595506D01*
X142001185Y-103498815D01*
X141904494Y-103419463D01*
X141794180Y-103360498D01*
X141674482Y-103324188D01*
X141550000Y-103311928D01*
X139850000Y-103311928D01*
X139725518Y-103324188D01*
X139605820Y-103360498D01*
X139495506Y-103419463D01*
X139398815Y-103498815D01*
X139319463Y-103595506D01*
X139260498Y-103705820D01*
X139238487Y-103778380D01*
X139106632Y-103646525D01*
X138863411Y-103484010D01*
X138593158Y-103372068D01*
X138306260Y-103315000D01*
X138013740Y-103315000D01*
X137726842Y-103372068D01*
X137456589Y-103484010D01*
X137213368Y-103646525D01*
X137006525Y-103853368D01*
X136844010Y-104096589D01*
X136732068Y-104366842D01*
X136675000Y-104653740D01*
X121160000Y-104653740D01*
X121160000Y-103113589D01*
X121715000Y-103113589D01*
X121715000Y-103386411D01*
X121768225Y-103653989D01*
X121872629Y-103906043D01*
X122024201Y-104132886D01*
X122217114Y-104325799D01*
X122443957Y-104477371D01*
X122696011Y-104581775D01*
X122963589Y-104635000D01*
X123236411Y-104635000D01*
X123503989Y-104581775D01*
X123756043Y-104477371D01*
X123982886Y-104325799D01*
X124175799Y-104132886D01*
X124327371Y-103906043D01*
X124431775Y-103653989D01*
X124485000Y-103386411D01*
X124485000Y-103113589D01*
X124431775Y-102846011D01*
X124327371Y-102593957D01*
X124175799Y-102367114D01*
X123982886Y-102174201D01*
X123756043Y-102022629D01*
X123503989Y-101918225D01*
X123236411Y-101865000D01*
X122963589Y-101865000D01*
X122696011Y-101918225D01*
X122443957Y-102022629D01*
X122217114Y-102174201D01*
X122024201Y-102367114D01*
X121872629Y-102593957D01*
X121768225Y-102846011D01*
X121715000Y-103113589D01*
X121160000Y-103113589D01*
X121160000Y-100644890D01*
X123716524Y-100644890D01*
X123761175Y-100792099D01*
X123886359Y-101054920D01*
X124060412Y-101288269D01*
X124276645Y-101483178D01*
X124526748Y-101632157D01*
X124801109Y-101729481D01*
X125031000Y-101608814D01*
X125031000Y-100415000D01*
X125285000Y-100415000D01*
X125285000Y-101608814D01*
X125514891Y-101729481D01*
X125789252Y-101632157D01*
X126039355Y-101483178D01*
X126255588Y-101288269D01*
X126429641Y-101054920D01*
X126554825Y-100792099D01*
X126599476Y-100644890D01*
X126478155Y-100415000D01*
X125285000Y-100415000D01*
X125031000Y-100415000D01*
X123837845Y-100415000D01*
X123716524Y-100644890D01*
X121160000Y-100644890D01*
X121160000Y-91818000D01*
X123669928Y-91818000D01*
X123669928Y-93518000D01*
X123682188Y-93642482D01*
X123718498Y-93762180D01*
X123777463Y-93872494D01*
X123856815Y-93969185D01*
X123953506Y-94048537D01*
X124063820Y-94107502D01*
X124136380Y-94129513D01*
X124004525Y-94261368D01*
X123842010Y-94504589D01*
X123730068Y-94774842D01*
X123673000Y-95061740D01*
X123673000Y-95354260D01*
X123730068Y-95641158D01*
X123842010Y-95911411D01*
X124004525Y-96154632D01*
X124211368Y-96361475D01*
X124385760Y-96478000D01*
X124211368Y-96594525D01*
X124004525Y-96801368D01*
X123842010Y-97044589D01*
X123730068Y-97314842D01*
X123673000Y-97601740D01*
X123673000Y-97894260D01*
X123730068Y-98181158D01*
X123842010Y-98451411D01*
X124004525Y-98694632D01*
X124211368Y-98901475D01*
X124393534Y-99023195D01*
X124276645Y-99092822D01*
X124060412Y-99287731D01*
X123886359Y-99521080D01*
X123761175Y-99783901D01*
X123716524Y-99931110D01*
X123837845Y-100161000D01*
X125031000Y-100161000D01*
X125031000Y-100141000D01*
X125285000Y-100141000D01*
X125285000Y-100161000D01*
X126478155Y-100161000D01*
X126599476Y-99931110D01*
X126554825Y-99783901D01*
X126429641Y-99521080D01*
X126255588Y-99287731D01*
X126039355Y-99092822D01*
X125922466Y-99023195D01*
X126104632Y-98901475D01*
X126311475Y-98694632D01*
X126473990Y-98451411D01*
X126585932Y-98181158D01*
X126643000Y-97894260D01*
X126643000Y-97601740D01*
X126585932Y-97314842D01*
X126473990Y-97044589D01*
X126311475Y-96801368D01*
X126104632Y-96594525D01*
X125930240Y-96478000D01*
X126104632Y-96361475D01*
X126311475Y-96154632D01*
X126473990Y-95911411D01*
X126585932Y-95641158D01*
X126643000Y-95354260D01*
X126643000Y-95061740D01*
X126585932Y-94774842D01*
X126473990Y-94504589D01*
X126311475Y-94261368D01*
X126179620Y-94129513D01*
X126252180Y-94107502D01*
X126362494Y-94048537D01*
X126459185Y-93969185D01*
X126538537Y-93872494D01*
X126597502Y-93762180D01*
X126633812Y-93642482D01*
X126646072Y-93518000D01*
X126646072Y-92521740D01*
X128715000Y-92521740D01*
X128715000Y-92814260D01*
X128772068Y-93101158D01*
X128884010Y-93371411D01*
X129046525Y-93614632D01*
X129253368Y-93821475D01*
X129427760Y-93938000D01*
X129253368Y-94054525D01*
X129046525Y-94261368D01*
X128884010Y-94504589D01*
X128772068Y-94774842D01*
X128715000Y-95061740D01*
X128715000Y-95354260D01*
X128772068Y-95641158D01*
X128884010Y-95911411D01*
X129046525Y-96154632D01*
X129253368Y-96361475D01*
X129427760Y-96478000D01*
X129253368Y-96594525D01*
X129046525Y-96801368D01*
X128884010Y-97044589D01*
X128772068Y-97314842D01*
X128715000Y-97601740D01*
X128715000Y-97894260D01*
X128772068Y-98181158D01*
X128884010Y-98451411D01*
X129046525Y-98694632D01*
X129253368Y-98901475D01*
X129427760Y-99018000D01*
X129253368Y-99134525D01*
X129046525Y-99341368D01*
X128884010Y-99584589D01*
X128772068Y-99854842D01*
X128715000Y-100141740D01*
X128715000Y-100434260D01*
X128772068Y-100721158D01*
X128884010Y-100991411D01*
X129046525Y-101234632D01*
X129253368Y-101441475D01*
X129427760Y-101558000D01*
X129253368Y-101674525D01*
X129046525Y-101881368D01*
X128884010Y-102124589D01*
X128772068Y-102394842D01*
X128715000Y-102681740D01*
X128715000Y-102974260D01*
X128772068Y-103261158D01*
X128884010Y-103531411D01*
X129046525Y-103774632D01*
X129253368Y-103981475D01*
X129496589Y-104143990D01*
X129766842Y-104255932D01*
X130053740Y-104313000D01*
X130346260Y-104313000D01*
X130633158Y-104255932D01*
X130903411Y-104143990D01*
X131146632Y-103981475D01*
X131353475Y-103774632D01*
X131515990Y-103531411D01*
X131627932Y-103261158D01*
X131685000Y-102974260D01*
X131685000Y-102681740D01*
X131627932Y-102394842D01*
X131515990Y-102124589D01*
X131353475Y-101881368D01*
X131146632Y-101674525D01*
X130972240Y-101558000D01*
X131146632Y-101441475D01*
X131353475Y-101234632D01*
X131515990Y-100991411D01*
X131627932Y-100721158D01*
X131685000Y-100434260D01*
X131685000Y-100141740D01*
X131627932Y-99854842D01*
X131515990Y-99584589D01*
X131353475Y-99341368D01*
X131146632Y-99134525D01*
X130972240Y-99018000D01*
X131146632Y-98901475D01*
X131353475Y-98694632D01*
X131515990Y-98451411D01*
X131627932Y-98181158D01*
X131685000Y-97894260D01*
X131685000Y-97601740D01*
X131627932Y-97314842D01*
X131515990Y-97044589D01*
X131353475Y-96801368D01*
X131146632Y-96594525D01*
X130972240Y-96478000D01*
X131146632Y-96361475D01*
X131353475Y-96154632D01*
X131515990Y-95911411D01*
X131627932Y-95641158D01*
X131685000Y-95354260D01*
X131685000Y-95198061D01*
X151297653Y-95198061D01*
X151297653Y-95401939D01*
X151337427Y-95601898D01*
X151415448Y-95790256D01*
X151528716Y-95959774D01*
X151672879Y-96103937D01*
X151842397Y-96217205D01*
X152030755Y-96295226D01*
X152065027Y-96302043D01*
X152104780Y-96501898D01*
X152182801Y-96690256D01*
X152296069Y-96859774D01*
X152440232Y-97003937D01*
X152609750Y-97117205D01*
X152798108Y-97195226D01*
X152998067Y-97235000D01*
X153201945Y-97235000D01*
X153401904Y-97195226D01*
X153590262Y-97117205D01*
X153759780Y-97003937D01*
X153903943Y-96859774D01*
X154017211Y-96690256D01*
X154095232Y-96501898D01*
X154135006Y-96301939D01*
X154135006Y-96098061D01*
X154095232Y-95898102D01*
X154017211Y-95709744D01*
X153903943Y-95540226D01*
X153759780Y-95396063D01*
X153590262Y-95282795D01*
X153409478Y-95207911D01*
X153965000Y-95207911D01*
X153965000Y-95392089D01*
X154000932Y-95572729D01*
X154071414Y-95742889D01*
X154173738Y-95896028D01*
X154303972Y-96026262D01*
X154457111Y-96128586D01*
X154627271Y-96199068D01*
X154807911Y-96235000D01*
X154992089Y-96235000D01*
X155172729Y-96199068D01*
X155342889Y-96128586D01*
X155496028Y-96026262D01*
X155626262Y-95896028D01*
X155728586Y-95742889D01*
X155799068Y-95572729D01*
X155835000Y-95392089D01*
X155835000Y-95207911D01*
X155799068Y-95027271D01*
X155728586Y-94857111D01*
X155626262Y-94703972D01*
X155496028Y-94573738D01*
X155342889Y-94471414D01*
X155172729Y-94400932D01*
X154992089Y-94365000D01*
X154807911Y-94365000D01*
X154627271Y-94400932D01*
X154457111Y-94471414D01*
X154303972Y-94573738D01*
X154173738Y-94703972D01*
X154071414Y-94857111D01*
X154000932Y-95027271D01*
X153965000Y-95207911D01*
X153409478Y-95207911D01*
X153401904Y-95204774D01*
X153367632Y-95197957D01*
X153327879Y-94998102D01*
X153249858Y-94809744D01*
X153136590Y-94640226D01*
X152992427Y-94496063D01*
X152822909Y-94382795D01*
X152634551Y-94304774D01*
X152434592Y-94265000D01*
X152230714Y-94265000D01*
X152030755Y-94304774D01*
X151842397Y-94382795D01*
X151672879Y-94496063D01*
X151528716Y-94640226D01*
X151415448Y-94809744D01*
X151337427Y-94998102D01*
X151297653Y-95198061D01*
X131685000Y-95198061D01*
X131685000Y-95061740D01*
X131627932Y-94774842D01*
X131515990Y-94504589D01*
X131353475Y-94261368D01*
X131146632Y-94054525D01*
X130972240Y-93938000D01*
X131146632Y-93821475D01*
X131245024Y-93723083D01*
X141764992Y-93723083D01*
X141764992Y-93926961D01*
X141804766Y-94126920D01*
X141882787Y-94315278D01*
X141996055Y-94484796D01*
X142140218Y-94628959D01*
X142309736Y-94742227D01*
X142498094Y-94820248D01*
X142698053Y-94860022D01*
X142901931Y-94860022D01*
X143101890Y-94820248D01*
X143290248Y-94742227D01*
X143459766Y-94628959D01*
X143603929Y-94484796D01*
X143717197Y-94315278D01*
X143795218Y-94126920D01*
X143810861Y-94048275D01*
X143901898Y-94030167D01*
X144090256Y-93952146D01*
X144259774Y-93838878D01*
X144403937Y-93694715D01*
X144517205Y-93525197D01*
X144595226Y-93336839D01*
X144635000Y-93136880D01*
X144635000Y-92933002D01*
X144595226Y-92733043D01*
X144517205Y-92544685D01*
X144403937Y-92375167D01*
X144259774Y-92231004D01*
X144090256Y-92117736D01*
X143901898Y-92039715D01*
X143701939Y-91999941D01*
X143498061Y-91999941D01*
X143298102Y-92039715D01*
X143109744Y-92117736D01*
X142940226Y-92231004D01*
X142796063Y-92375167D01*
X142682795Y-92544685D01*
X142604774Y-92733043D01*
X142589131Y-92811688D01*
X142498094Y-92829796D01*
X142309736Y-92907817D01*
X142140218Y-93021085D01*
X141996055Y-93165248D01*
X141882787Y-93334766D01*
X141804766Y-93523124D01*
X141764992Y-93723083D01*
X131245024Y-93723083D01*
X131353475Y-93614632D01*
X131515990Y-93371411D01*
X131627932Y-93101158D01*
X131685000Y-92814260D01*
X131685000Y-92521740D01*
X131627932Y-92234842D01*
X131515990Y-91964589D01*
X131471538Y-91898061D01*
X135265000Y-91898061D01*
X135265000Y-92101939D01*
X135304774Y-92301898D01*
X135382795Y-92490256D01*
X135496063Y-92659774D01*
X135640226Y-92803937D01*
X135809744Y-92917205D01*
X135998102Y-92995226D01*
X136198061Y-93035000D01*
X136401939Y-93035000D01*
X136601898Y-92995226D01*
X136790256Y-92917205D01*
X136959774Y-92803937D01*
X137103937Y-92659774D01*
X137217205Y-92490256D01*
X137295226Y-92301898D01*
X137335000Y-92101939D01*
X137335000Y-91898061D01*
X137295226Y-91698102D01*
X137217205Y-91509744D01*
X137103937Y-91340226D01*
X136959774Y-91196063D01*
X136790256Y-91082795D01*
X136601898Y-91004774D01*
X136401939Y-90965000D01*
X136198061Y-90965000D01*
X135998102Y-91004774D01*
X135809744Y-91082795D01*
X135640226Y-91196063D01*
X135496063Y-91340226D01*
X135382795Y-91509744D01*
X135304774Y-91698102D01*
X135265000Y-91898061D01*
X131471538Y-91898061D01*
X131353475Y-91721368D01*
X131146632Y-91514525D01*
X130964466Y-91392805D01*
X131081355Y-91323178D01*
X131297588Y-91128269D01*
X131471641Y-90894920D01*
X131596825Y-90632099D01*
X131641476Y-90484890D01*
X131520155Y-90255000D01*
X130327000Y-90255000D01*
X130327000Y-90275000D01*
X130073000Y-90275000D01*
X130073000Y-90255000D01*
X128879845Y-90255000D01*
X128758524Y-90484890D01*
X128803175Y-90632099D01*
X128928359Y-90894920D01*
X129102412Y-91128269D01*
X129318645Y-91323178D01*
X129435534Y-91392805D01*
X129253368Y-91514525D01*
X129046525Y-91721368D01*
X128884010Y-91964589D01*
X128772068Y-92234842D01*
X128715000Y-92521740D01*
X126646072Y-92521740D01*
X126646072Y-91818000D01*
X126633812Y-91693518D01*
X126597502Y-91573820D01*
X126538537Y-91463506D01*
X126459185Y-91366815D01*
X126362494Y-91287463D01*
X126252180Y-91228498D01*
X126132482Y-91192188D01*
X126008000Y-91179928D01*
X124308000Y-91179928D01*
X124183518Y-91192188D01*
X124063820Y-91228498D01*
X123953506Y-91287463D01*
X123856815Y-91366815D01*
X123777463Y-91463506D01*
X123718498Y-91573820D01*
X123682188Y-91693518D01*
X123669928Y-91818000D01*
X121160000Y-91818000D01*
X121160000Y-86738000D01*
X128711928Y-86738000D01*
X128711928Y-88438000D01*
X128724188Y-88562482D01*
X128760498Y-88682180D01*
X128819463Y-88792494D01*
X128898815Y-88889185D01*
X128995506Y-88968537D01*
X129105820Y-89027502D01*
X129186466Y-89051966D01*
X129102412Y-89127731D01*
X128928359Y-89361080D01*
X128803175Y-89623901D01*
X128758524Y-89771110D01*
X128879845Y-90001000D01*
X130073000Y-90001000D01*
X130073000Y-89981000D01*
X130327000Y-89981000D01*
X130327000Y-90001000D01*
X131520155Y-90001000D01*
X131574479Y-89898061D01*
X151965000Y-89898061D01*
X151965000Y-90101939D01*
X152004774Y-90301898D01*
X152082795Y-90490256D01*
X152196063Y-90659774D01*
X152340226Y-90803937D01*
X152509744Y-90917205D01*
X152698102Y-90995226D01*
X152898061Y-91035000D01*
X153101939Y-91035000D01*
X153301898Y-90995226D01*
X153490256Y-90917205D01*
X153659774Y-90803937D01*
X153803937Y-90659774D01*
X153917205Y-90490256D01*
X153995226Y-90301898D01*
X154035000Y-90101939D01*
X154035000Y-89898061D01*
X154015109Y-89798061D01*
X159455000Y-89798061D01*
X159455000Y-90001939D01*
X159494774Y-90201898D01*
X159572795Y-90390256D01*
X159686063Y-90559774D01*
X159830226Y-90703937D01*
X159999744Y-90817205D01*
X160188102Y-90895226D01*
X160388061Y-90935000D01*
X160591939Y-90935000D01*
X160791898Y-90895226D01*
X160980256Y-90817205D01*
X161149774Y-90703937D01*
X161293937Y-90559774D01*
X161407205Y-90390256D01*
X161485226Y-90201898D01*
X161525000Y-90001939D01*
X161525000Y-89798061D01*
X161485226Y-89598102D01*
X161407205Y-89409744D01*
X161293937Y-89240226D01*
X161149774Y-89096063D01*
X160980256Y-88982795D01*
X160791898Y-88904774D01*
X160591939Y-88865000D01*
X160388061Y-88865000D01*
X160188102Y-88904774D01*
X159999744Y-88982795D01*
X159830226Y-89096063D01*
X159686063Y-89240226D01*
X159572795Y-89409744D01*
X159494774Y-89598102D01*
X159455000Y-89798061D01*
X154015109Y-89798061D01*
X153995226Y-89698102D01*
X153917205Y-89509744D01*
X153803937Y-89340226D01*
X153659774Y-89196063D01*
X153490256Y-89082795D01*
X153301898Y-89004774D01*
X153101939Y-88965000D01*
X152898061Y-88965000D01*
X152698102Y-89004774D01*
X152509744Y-89082795D01*
X152340226Y-89196063D01*
X152196063Y-89340226D01*
X152082795Y-89509744D01*
X152004774Y-89698102D01*
X151965000Y-89898061D01*
X131574479Y-89898061D01*
X131641476Y-89771110D01*
X131596825Y-89623901D01*
X131471641Y-89361080D01*
X131297588Y-89127731D01*
X131213534Y-89051966D01*
X131294180Y-89027502D01*
X131404494Y-88968537D01*
X131501185Y-88889185D01*
X131580537Y-88792494D01*
X131639502Y-88682180D01*
X131675812Y-88562482D01*
X131688072Y-88438000D01*
X131688072Y-86750000D01*
X133311928Y-86750000D01*
X133311928Y-88450000D01*
X133324188Y-88574482D01*
X133360498Y-88694180D01*
X133419463Y-88804494D01*
X133498815Y-88901185D01*
X133595506Y-88980537D01*
X133705820Y-89039502D01*
X133825518Y-89075812D01*
X133950000Y-89088072D01*
X135650000Y-89088072D01*
X135774482Y-89075812D01*
X135894180Y-89039502D01*
X136004494Y-88980537D01*
X136101185Y-88901185D01*
X136180537Y-88804494D01*
X136239502Y-88694180D01*
X136263966Y-88613534D01*
X136339731Y-88697588D01*
X136573080Y-88871641D01*
X136835901Y-88996825D01*
X136983110Y-89041476D01*
X137213000Y-88920155D01*
X137213000Y-87727000D01*
X137193000Y-87727000D01*
X137193000Y-87473000D01*
X137213000Y-87473000D01*
X137213000Y-86279845D01*
X137467000Y-86279845D01*
X137467000Y-87473000D01*
X137487000Y-87473000D01*
X137487000Y-87727000D01*
X137467000Y-87727000D01*
X137467000Y-88920155D01*
X137696890Y-89041476D01*
X137844099Y-88996825D01*
X138106920Y-88871641D01*
X138340269Y-88697588D01*
X138535178Y-88481355D01*
X138604805Y-88364466D01*
X138726525Y-88546632D01*
X138933368Y-88753475D01*
X139176589Y-88915990D01*
X139446842Y-89027932D01*
X139733740Y-89085000D01*
X140026260Y-89085000D01*
X140313158Y-89027932D01*
X140583411Y-88915990D01*
X140826632Y-88753475D01*
X141033475Y-88546632D01*
X141150000Y-88372240D01*
X141266525Y-88546632D01*
X141473368Y-88753475D01*
X141716589Y-88915990D01*
X141986842Y-89027932D01*
X142273740Y-89085000D01*
X142566260Y-89085000D01*
X142853158Y-89027932D01*
X143123411Y-88915990D01*
X143366632Y-88753475D01*
X143573475Y-88546632D01*
X143690000Y-88372240D01*
X143806525Y-88546632D01*
X144013368Y-88753475D01*
X144256589Y-88915990D01*
X144526842Y-89027932D01*
X144813740Y-89085000D01*
X145106260Y-89085000D01*
X145393158Y-89027932D01*
X145663411Y-88915990D01*
X145906632Y-88753475D01*
X146113475Y-88546632D01*
X146230000Y-88372240D01*
X146346525Y-88546632D01*
X146553368Y-88753475D01*
X146796589Y-88915990D01*
X147066842Y-89027932D01*
X147353740Y-89085000D01*
X147646260Y-89085000D01*
X147933158Y-89027932D01*
X148203411Y-88915990D01*
X148446632Y-88753475D01*
X148653475Y-88546632D01*
X148752746Y-88398061D01*
X154865000Y-88398061D01*
X154865000Y-88601939D01*
X154904774Y-88801898D01*
X154982795Y-88990256D01*
X155096063Y-89159774D01*
X155240226Y-89303937D01*
X155409744Y-89417205D01*
X155598102Y-89495226D01*
X155798061Y-89535000D01*
X156001939Y-89535000D01*
X156201898Y-89495226D01*
X156390256Y-89417205D01*
X156559774Y-89303937D01*
X156700000Y-89163711D01*
X156840226Y-89303937D01*
X157009744Y-89417205D01*
X157198102Y-89495226D01*
X157398061Y-89535000D01*
X157601939Y-89535000D01*
X157801898Y-89495226D01*
X157990256Y-89417205D01*
X158159774Y-89303937D01*
X158303937Y-89159774D01*
X158417205Y-88990256D01*
X158495226Y-88801898D01*
X158535000Y-88601939D01*
X158535000Y-88398061D01*
X158495226Y-88198102D01*
X158417205Y-88009744D01*
X158303937Y-87840226D01*
X158159774Y-87696063D01*
X157990256Y-87582795D01*
X157801898Y-87504774D01*
X157601939Y-87465000D01*
X157398061Y-87465000D01*
X157198102Y-87504774D01*
X157009744Y-87582795D01*
X156840226Y-87696063D01*
X156700000Y-87836289D01*
X156559774Y-87696063D01*
X156390256Y-87582795D01*
X156201898Y-87504774D01*
X156001939Y-87465000D01*
X155798061Y-87465000D01*
X155598102Y-87504774D01*
X155409744Y-87582795D01*
X155240226Y-87696063D01*
X155096063Y-87840226D01*
X154982795Y-88009744D01*
X154904774Y-88198102D01*
X154865000Y-88398061D01*
X148752746Y-88398061D01*
X148815990Y-88303411D01*
X148927932Y-88033158D01*
X148985000Y-87746260D01*
X148985000Y-87453740D01*
X148927932Y-87166842D01*
X148815990Y-86896589D01*
X148683338Y-86698061D01*
X161165000Y-86698061D01*
X161165000Y-86901939D01*
X161204774Y-87101898D01*
X161282795Y-87290256D01*
X161396063Y-87459774D01*
X161540226Y-87603937D01*
X161709744Y-87717205D01*
X161898102Y-87795226D01*
X162098061Y-87835000D01*
X162301939Y-87835000D01*
X162501898Y-87795226D01*
X162690256Y-87717205D01*
X162859774Y-87603937D01*
X163003937Y-87459774D01*
X163117205Y-87290256D01*
X163195226Y-87101898D01*
X163235000Y-86901939D01*
X163235000Y-86698061D01*
X163195226Y-86498102D01*
X163117205Y-86309744D01*
X163003937Y-86140226D01*
X162859774Y-85996063D01*
X162690256Y-85882795D01*
X162501898Y-85804774D01*
X162301939Y-85765000D01*
X162098061Y-85765000D01*
X161898102Y-85804774D01*
X161709744Y-85882795D01*
X161540226Y-85996063D01*
X161396063Y-86140226D01*
X161282795Y-86309744D01*
X161204774Y-86498102D01*
X161165000Y-86698061D01*
X148683338Y-86698061D01*
X148653475Y-86653368D01*
X148446632Y-86446525D01*
X148203411Y-86284010D01*
X147933158Y-86172068D01*
X147646260Y-86115000D01*
X147353740Y-86115000D01*
X147066842Y-86172068D01*
X146796589Y-86284010D01*
X146553368Y-86446525D01*
X146346525Y-86653368D01*
X146230000Y-86827760D01*
X146113475Y-86653368D01*
X145906632Y-86446525D01*
X145663411Y-86284010D01*
X145393158Y-86172068D01*
X145106260Y-86115000D01*
X144813740Y-86115000D01*
X144526842Y-86172068D01*
X144256589Y-86284010D01*
X144013368Y-86446525D01*
X143806525Y-86653368D01*
X143690000Y-86827760D01*
X143573475Y-86653368D01*
X143366632Y-86446525D01*
X143123411Y-86284010D01*
X142853158Y-86172068D01*
X142566260Y-86115000D01*
X142273740Y-86115000D01*
X141986842Y-86172068D01*
X141716589Y-86284010D01*
X141473368Y-86446525D01*
X141266525Y-86653368D01*
X141150000Y-86827760D01*
X141033475Y-86653368D01*
X140826632Y-86446525D01*
X140583411Y-86284010D01*
X140313158Y-86172068D01*
X140026260Y-86115000D01*
X139733740Y-86115000D01*
X139446842Y-86172068D01*
X139176589Y-86284010D01*
X138933368Y-86446525D01*
X138726525Y-86653368D01*
X138604805Y-86835534D01*
X138535178Y-86718645D01*
X138340269Y-86502412D01*
X138106920Y-86328359D01*
X137844099Y-86203175D01*
X137696890Y-86158524D01*
X137467000Y-86279845D01*
X137213000Y-86279845D01*
X136983110Y-86158524D01*
X136835901Y-86203175D01*
X136573080Y-86328359D01*
X136339731Y-86502412D01*
X136263966Y-86586466D01*
X136239502Y-86505820D01*
X136180537Y-86395506D01*
X136101185Y-86298815D01*
X136004494Y-86219463D01*
X135894180Y-86160498D01*
X135774482Y-86124188D01*
X135650000Y-86111928D01*
X133950000Y-86111928D01*
X133825518Y-86124188D01*
X133705820Y-86160498D01*
X133595506Y-86219463D01*
X133498815Y-86298815D01*
X133419463Y-86395506D01*
X133360498Y-86505820D01*
X133324188Y-86625518D01*
X133311928Y-86750000D01*
X131688072Y-86750000D01*
X131688072Y-86738000D01*
X131675812Y-86613518D01*
X131639502Y-86493820D01*
X131580537Y-86383506D01*
X131501185Y-86286815D01*
X131404494Y-86207463D01*
X131294180Y-86148498D01*
X131174482Y-86112188D01*
X131050000Y-86099928D01*
X129350000Y-86099928D01*
X129225518Y-86112188D01*
X129105820Y-86148498D01*
X128995506Y-86207463D01*
X128898815Y-86286815D01*
X128819463Y-86383506D01*
X128760498Y-86493820D01*
X128724188Y-86613518D01*
X128711928Y-86738000D01*
X121160000Y-86738000D01*
X121160000Y-84998061D01*
X153265000Y-84998061D01*
X153265000Y-85201939D01*
X153304774Y-85401898D01*
X153382795Y-85590256D01*
X153496063Y-85759774D01*
X153640226Y-85903937D01*
X153809744Y-86017205D01*
X153998102Y-86095226D01*
X154198061Y-86135000D01*
X154401939Y-86135000D01*
X154601898Y-86095226D01*
X154790256Y-86017205D01*
X154959774Y-85903937D01*
X155103937Y-85759774D01*
X155217205Y-85590256D01*
X155295226Y-85401898D01*
X155335000Y-85201939D01*
X155335000Y-84998061D01*
X155295226Y-84798102D01*
X155217205Y-84609744D01*
X155103937Y-84440226D01*
X154959774Y-84296063D01*
X154790256Y-84182795D01*
X154601898Y-84104774D01*
X154401939Y-84065000D01*
X154198061Y-84065000D01*
X153998102Y-84104774D01*
X153809744Y-84182795D01*
X153640226Y-84296063D01*
X153496063Y-84440226D01*
X153382795Y-84609744D01*
X153304774Y-84798102D01*
X153265000Y-84998061D01*
X121160000Y-84998061D01*
X121160000Y-83648061D01*
X122540000Y-83648061D01*
X122540000Y-83851939D01*
X122579774Y-84051898D01*
X122657795Y-84240256D01*
X122771063Y-84409774D01*
X122915226Y-84553937D01*
X123084744Y-84667205D01*
X123273102Y-84745226D01*
X123473061Y-84785000D01*
X123676939Y-84785000D01*
X123876898Y-84745226D01*
X124065256Y-84667205D01*
X124234774Y-84553937D01*
X124378937Y-84409774D01*
X124485646Y-84250072D01*
X125970000Y-84250072D01*
X126094482Y-84237812D01*
X126214180Y-84201502D01*
X126324494Y-84142537D01*
X126421185Y-84063185D01*
X126500537Y-83966494D01*
X126559502Y-83856180D01*
X126581513Y-83783620D01*
X126713368Y-83915475D01*
X126956589Y-84077990D01*
X127226842Y-84189932D01*
X127513740Y-84247000D01*
X127806260Y-84247000D01*
X128093158Y-84189932D01*
X128363411Y-84077990D01*
X128606632Y-83915475D01*
X128813475Y-83708632D01*
X128930000Y-83534240D01*
X129046525Y-83708632D01*
X129253368Y-83915475D01*
X129496589Y-84077990D01*
X129766842Y-84189932D01*
X130053740Y-84247000D01*
X130346260Y-84247000D01*
X130633158Y-84189932D01*
X130903411Y-84077990D01*
X131146632Y-83915475D01*
X131353475Y-83708632D01*
X131515990Y-83465411D01*
X131627932Y-83195158D01*
X131685000Y-82908260D01*
X131685000Y-82615740D01*
X131627932Y-82328842D01*
X131515990Y-82058589D01*
X131353475Y-81815368D01*
X131146632Y-81608525D01*
X130903411Y-81446010D01*
X130633158Y-81334068D01*
X130346260Y-81277000D01*
X130053740Y-81277000D01*
X129766842Y-81334068D01*
X129496589Y-81446010D01*
X129253368Y-81608525D01*
X129046525Y-81815368D01*
X128930000Y-81989760D01*
X128813475Y-81815368D01*
X128606632Y-81608525D01*
X128363411Y-81446010D01*
X128093158Y-81334068D01*
X127806260Y-81277000D01*
X127513740Y-81277000D01*
X127226842Y-81334068D01*
X126956589Y-81446010D01*
X126713368Y-81608525D01*
X126581513Y-81740380D01*
X126559502Y-81667820D01*
X126500537Y-81557506D01*
X126421185Y-81460815D01*
X126324494Y-81381463D01*
X126214180Y-81322498D01*
X126094482Y-81286188D01*
X125970000Y-81273928D01*
X124270000Y-81273928D01*
X124145518Y-81286188D01*
X124025820Y-81322498D01*
X123915506Y-81381463D01*
X123818815Y-81460815D01*
X123739463Y-81557506D01*
X123680498Y-81667820D01*
X123644188Y-81787518D01*
X123631928Y-81912000D01*
X123631928Y-82715000D01*
X123473061Y-82715000D01*
X123273102Y-82754774D01*
X123084744Y-82832795D01*
X122915226Y-82946063D01*
X122771063Y-83090226D01*
X122657795Y-83259744D01*
X122579774Y-83448102D01*
X122540000Y-83648061D01*
X121160000Y-83648061D01*
X121160000Y-75844890D01*
X123700524Y-75844890D01*
X123745175Y-75992099D01*
X123870359Y-76254920D01*
X124044412Y-76488269D01*
X124260645Y-76683178D01*
X124510748Y-76832157D01*
X124785109Y-76929481D01*
X125015000Y-76808814D01*
X125015000Y-75615000D01*
X125269000Y-75615000D01*
X125269000Y-76808814D01*
X125498891Y-76929481D01*
X125773252Y-76832157D01*
X126023355Y-76683178D01*
X126239588Y-76488269D01*
X126413641Y-76254920D01*
X126538825Y-75992099D01*
X126583476Y-75844890D01*
X126462155Y-75615000D01*
X125269000Y-75615000D01*
X125015000Y-75615000D01*
X123821845Y-75615000D01*
X123700524Y-75844890D01*
X121160000Y-75844890D01*
X121160000Y-67018000D01*
X123653928Y-67018000D01*
X123653928Y-68718000D01*
X123666188Y-68842482D01*
X123702498Y-68962180D01*
X123761463Y-69072494D01*
X123840815Y-69169185D01*
X123937506Y-69248537D01*
X124047820Y-69307502D01*
X124120380Y-69329513D01*
X123988525Y-69461368D01*
X123826010Y-69704589D01*
X123714068Y-69974842D01*
X123657000Y-70261740D01*
X123657000Y-70554260D01*
X123714068Y-70841158D01*
X123826010Y-71111411D01*
X123988525Y-71354632D01*
X124195368Y-71561475D01*
X124369760Y-71678000D01*
X124195368Y-71794525D01*
X123988525Y-72001368D01*
X123826010Y-72244589D01*
X123714068Y-72514842D01*
X123657000Y-72801740D01*
X123657000Y-73094260D01*
X123714068Y-73381158D01*
X123826010Y-73651411D01*
X123988525Y-73894632D01*
X124195368Y-74101475D01*
X124377534Y-74223195D01*
X124260645Y-74292822D01*
X124044412Y-74487731D01*
X123870359Y-74721080D01*
X123745175Y-74983901D01*
X123700524Y-75131110D01*
X123821845Y-75361000D01*
X125015000Y-75361000D01*
X125015000Y-75341000D01*
X125269000Y-75341000D01*
X125269000Y-75361000D01*
X126462155Y-75361000D01*
X126583476Y-75131110D01*
X126538825Y-74983901D01*
X126413641Y-74721080D01*
X126239588Y-74487731D01*
X126023355Y-74292822D01*
X125906466Y-74223195D01*
X126088632Y-74101475D01*
X126295475Y-73894632D01*
X126457990Y-73651411D01*
X126569932Y-73381158D01*
X126627000Y-73094260D01*
X126627000Y-72801740D01*
X126569932Y-72514842D01*
X126457990Y-72244589D01*
X126295475Y-72001368D01*
X126088632Y-71794525D01*
X125914240Y-71678000D01*
X126088632Y-71561475D01*
X126295475Y-71354632D01*
X126457990Y-71111411D01*
X126569932Y-70841158D01*
X126627000Y-70554260D01*
X126627000Y-70261740D01*
X126569932Y-69974842D01*
X126457990Y-69704589D01*
X126295475Y-69461368D01*
X126163620Y-69329513D01*
X126236180Y-69307502D01*
X126346494Y-69248537D01*
X126443185Y-69169185D01*
X126522537Y-69072494D01*
X126581502Y-68962180D01*
X126617812Y-68842482D01*
X126630072Y-68718000D01*
X126630072Y-67721740D01*
X128737000Y-67721740D01*
X128737000Y-68014260D01*
X128794068Y-68301158D01*
X128906010Y-68571411D01*
X129068525Y-68814632D01*
X129275368Y-69021475D01*
X129449760Y-69138000D01*
X129275368Y-69254525D01*
X129068525Y-69461368D01*
X128906010Y-69704589D01*
X128794068Y-69974842D01*
X128737000Y-70261740D01*
X128737000Y-70554260D01*
X128794068Y-70841158D01*
X128906010Y-71111411D01*
X129068525Y-71354632D01*
X129275368Y-71561475D01*
X129449760Y-71678000D01*
X129275368Y-71794525D01*
X129068525Y-72001368D01*
X128906010Y-72244589D01*
X128794068Y-72514842D01*
X128737000Y-72801740D01*
X128737000Y-73094260D01*
X128794068Y-73381158D01*
X128906010Y-73651411D01*
X129068525Y-73894632D01*
X129275368Y-74101475D01*
X129449760Y-74218000D01*
X129275368Y-74334525D01*
X129068525Y-74541368D01*
X128906010Y-74784589D01*
X128794068Y-75054842D01*
X128737000Y-75341740D01*
X128737000Y-75634260D01*
X128794068Y-75921158D01*
X128906010Y-76191411D01*
X129068525Y-76434632D01*
X129275368Y-76641475D01*
X129449760Y-76758000D01*
X129275368Y-76874525D01*
X129068525Y-77081368D01*
X128906010Y-77324589D01*
X128794068Y-77594842D01*
X128737000Y-77881740D01*
X128737000Y-78174260D01*
X128794068Y-78461158D01*
X128906010Y-78731411D01*
X129068525Y-78974632D01*
X129275368Y-79181475D01*
X129518589Y-79343990D01*
X129788842Y-79455932D01*
X130075740Y-79513000D01*
X130368260Y-79513000D01*
X130655158Y-79455932D01*
X130925411Y-79343990D01*
X131168632Y-79181475D01*
X131375475Y-78974632D01*
X131537990Y-78731411D01*
X131649932Y-78461158D01*
X131707000Y-78174260D01*
X131707000Y-77881740D01*
X131649932Y-77594842D01*
X131537990Y-77324589D01*
X131375475Y-77081368D01*
X131168632Y-76874525D01*
X130994240Y-76758000D01*
X131168632Y-76641475D01*
X131375475Y-76434632D01*
X131537990Y-76191411D01*
X131649932Y-75921158D01*
X131707000Y-75634260D01*
X131707000Y-75341740D01*
X131649932Y-75054842D01*
X131537990Y-74784589D01*
X131375475Y-74541368D01*
X131168632Y-74334525D01*
X130994240Y-74218000D01*
X131168632Y-74101475D01*
X131375475Y-73894632D01*
X131537990Y-73651411D01*
X131560088Y-73598061D01*
X150665000Y-73598061D01*
X150665000Y-73801939D01*
X150704774Y-74001898D01*
X150782795Y-74190256D01*
X150896063Y-74359774D01*
X151040226Y-74503937D01*
X151209744Y-74617205D01*
X151398102Y-74695226D01*
X151598061Y-74735000D01*
X151801939Y-74735000D01*
X152001898Y-74695226D01*
X152190256Y-74617205D01*
X152359774Y-74503937D01*
X152503937Y-74359774D01*
X152617205Y-74190256D01*
X152695226Y-74001898D01*
X152735000Y-73801939D01*
X152735000Y-73598061D01*
X152695226Y-73398102D01*
X152617205Y-73209744D01*
X152542582Y-73098061D01*
X153264988Y-73098061D01*
X153264988Y-73301939D01*
X153304762Y-73501898D01*
X153382783Y-73690256D01*
X153496051Y-73859774D01*
X153640214Y-74003937D01*
X153809732Y-74117205D01*
X153998090Y-74195226D01*
X154198049Y-74235000D01*
X154401927Y-74235000D01*
X154601886Y-74195226D01*
X154790244Y-74117205D01*
X154959762Y-74003937D01*
X155103925Y-73859774D01*
X155217193Y-73690256D01*
X155295214Y-73501898D01*
X155334988Y-73301939D01*
X155334988Y-73098061D01*
X155295214Y-72898102D01*
X155217193Y-72709744D01*
X155103925Y-72540226D01*
X154959762Y-72396063D01*
X154790244Y-72282795D01*
X154601886Y-72204774D01*
X154401927Y-72165000D01*
X154198049Y-72165000D01*
X153998090Y-72204774D01*
X153809732Y-72282795D01*
X153640214Y-72396063D01*
X153496051Y-72540226D01*
X153382783Y-72709744D01*
X153304762Y-72898102D01*
X153264988Y-73098061D01*
X152542582Y-73098061D01*
X152503937Y-73040226D01*
X152359774Y-72896063D01*
X152190256Y-72782795D01*
X152001898Y-72704774D01*
X151801939Y-72665000D01*
X151598061Y-72665000D01*
X151398102Y-72704774D01*
X151209744Y-72782795D01*
X151040226Y-72896063D01*
X150896063Y-73040226D01*
X150782795Y-73209744D01*
X150704774Y-73398102D01*
X150665000Y-73598061D01*
X131560088Y-73598061D01*
X131649932Y-73381158D01*
X131707000Y-73094260D01*
X131707000Y-72801740D01*
X131649932Y-72514842D01*
X131537990Y-72244589D01*
X131375475Y-72001368D01*
X131168632Y-71794525D01*
X130994240Y-71678000D01*
X131168632Y-71561475D01*
X131375475Y-71354632D01*
X131537990Y-71111411D01*
X131649932Y-70841158D01*
X131707000Y-70554260D01*
X131707000Y-70261740D01*
X131649932Y-69974842D01*
X131537990Y-69704589D01*
X131375475Y-69461368D01*
X131168632Y-69254525D01*
X130994240Y-69138000D01*
X131168632Y-69021475D01*
X131375475Y-68814632D01*
X131537990Y-68571411D01*
X131649932Y-68301158D01*
X131707000Y-68014260D01*
X131707000Y-67721740D01*
X131649932Y-67434842D01*
X131537990Y-67164589D01*
X131375475Y-66921368D01*
X131168632Y-66714525D01*
X130986466Y-66592805D01*
X131103355Y-66523178D01*
X131242160Y-66398061D01*
X160415000Y-66398061D01*
X160415000Y-66601939D01*
X160454774Y-66801898D01*
X160532795Y-66990256D01*
X160646063Y-67159774D01*
X160790226Y-67303937D01*
X160959744Y-67417205D01*
X161148102Y-67495226D01*
X161348061Y-67535000D01*
X161551939Y-67535000D01*
X161751898Y-67495226D01*
X161940256Y-67417205D01*
X162109774Y-67303937D01*
X162253937Y-67159774D01*
X162367205Y-66990256D01*
X162445226Y-66801898D01*
X162485000Y-66601939D01*
X162485000Y-66398061D01*
X162445226Y-66198102D01*
X162367205Y-66009744D01*
X162253937Y-65840226D01*
X162109774Y-65696063D01*
X161940256Y-65582795D01*
X161751898Y-65504774D01*
X161551939Y-65465000D01*
X161348061Y-65465000D01*
X161148102Y-65504774D01*
X160959744Y-65582795D01*
X160790226Y-65696063D01*
X160646063Y-65840226D01*
X160532795Y-66009744D01*
X160454774Y-66198102D01*
X160415000Y-66398061D01*
X131242160Y-66398061D01*
X131319588Y-66328269D01*
X131493641Y-66094920D01*
X131618825Y-65832099D01*
X131663476Y-65684890D01*
X131542155Y-65455000D01*
X130349000Y-65455000D01*
X130349000Y-65475000D01*
X130095000Y-65475000D01*
X130095000Y-65455000D01*
X128901845Y-65455000D01*
X128780524Y-65684890D01*
X128825175Y-65832099D01*
X128950359Y-66094920D01*
X129124412Y-66328269D01*
X129340645Y-66523178D01*
X129457534Y-66592805D01*
X129275368Y-66714525D01*
X129068525Y-66921368D01*
X128906010Y-67164589D01*
X128794068Y-67434842D01*
X128737000Y-67721740D01*
X126630072Y-67721740D01*
X126630072Y-67018000D01*
X126617812Y-66893518D01*
X126581502Y-66773820D01*
X126522537Y-66663506D01*
X126443185Y-66566815D01*
X126346494Y-66487463D01*
X126236180Y-66428498D01*
X126116482Y-66392188D01*
X125992000Y-66379928D01*
X124292000Y-66379928D01*
X124167518Y-66392188D01*
X124047820Y-66428498D01*
X123937506Y-66487463D01*
X123840815Y-66566815D01*
X123761463Y-66663506D01*
X123702498Y-66773820D01*
X123666188Y-66893518D01*
X123653928Y-67018000D01*
X121160000Y-67018000D01*
X121160000Y-61938000D01*
X128733928Y-61938000D01*
X128733928Y-63638000D01*
X128746188Y-63762482D01*
X128782498Y-63882180D01*
X128841463Y-63992494D01*
X128920815Y-64089185D01*
X129017506Y-64168537D01*
X129127820Y-64227502D01*
X129208466Y-64251966D01*
X129124412Y-64327731D01*
X128950359Y-64561080D01*
X128825175Y-64823901D01*
X128780524Y-64971110D01*
X128901845Y-65201000D01*
X130095000Y-65201000D01*
X130095000Y-65181000D01*
X130349000Y-65181000D01*
X130349000Y-65201000D01*
X131542155Y-65201000D01*
X131663476Y-64971110D01*
X131618825Y-64823901D01*
X131493641Y-64561080D01*
X131319588Y-64327731D01*
X131235534Y-64251966D01*
X131316180Y-64227502D01*
X131426494Y-64168537D01*
X131523185Y-64089185D01*
X131602537Y-63992494D01*
X131661502Y-63882180D01*
X131697812Y-63762482D01*
X131710072Y-63638000D01*
X131710072Y-62598061D01*
X142665000Y-62598061D01*
X142665000Y-62801939D01*
X142704774Y-63001898D01*
X142782795Y-63190256D01*
X142896063Y-63359774D01*
X143040226Y-63503937D01*
X143209744Y-63617205D01*
X143398102Y-63695226D01*
X143598061Y-63735000D01*
X143801939Y-63735000D01*
X144001898Y-63695226D01*
X144190256Y-63617205D01*
X144359774Y-63503937D01*
X144503937Y-63359774D01*
X144617205Y-63190256D01*
X144695226Y-63001898D01*
X144735000Y-62801939D01*
X144735000Y-62598061D01*
X144695226Y-62398102D01*
X144617205Y-62209744D01*
X144503937Y-62040226D01*
X144359774Y-61896063D01*
X144190256Y-61782795D01*
X144001898Y-61704774D01*
X143801939Y-61665000D01*
X143598061Y-61665000D01*
X143398102Y-61704774D01*
X143209744Y-61782795D01*
X143040226Y-61896063D01*
X142896063Y-62040226D01*
X142782795Y-62209744D01*
X142704774Y-62398102D01*
X142665000Y-62598061D01*
X131710072Y-62598061D01*
X131710072Y-61938000D01*
X131697812Y-61813518D01*
X131661502Y-61693820D01*
X131602537Y-61583506D01*
X131523185Y-61486815D01*
X131426494Y-61407463D01*
X131316180Y-61348498D01*
X131196482Y-61312188D01*
X131072000Y-61299928D01*
X129372000Y-61299928D01*
X129247518Y-61312188D01*
X129127820Y-61348498D01*
X129017506Y-61407463D01*
X128920815Y-61486815D01*
X128841463Y-61583506D01*
X128782498Y-61693820D01*
X128746188Y-61813518D01*
X128733928Y-61938000D01*
X121160000Y-61938000D01*
X121160000Y-58048061D01*
X121815000Y-58048061D01*
X121815000Y-58251939D01*
X121854774Y-58451898D01*
X121932795Y-58640256D01*
X122046063Y-58809774D01*
X122190226Y-58953937D01*
X122359744Y-59067205D01*
X122548102Y-59145226D01*
X122748061Y-59185000D01*
X122951939Y-59185000D01*
X123151898Y-59145226D01*
X123340256Y-59067205D01*
X123509774Y-58953937D01*
X123653928Y-58809783D01*
X123653928Y-58812000D01*
X123666188Y-58936482D01*
X123702498Y-59056180D01*
X123761463Y-59166494D01*
X123840815Y-59263185D01*
X123937506Y-59342537D01*
X124047820Y-59401502D01*
X124167518Y-59437812D01*
X124292000Y-59450072D01*
X125992000Y-59450072D01*
X126116482Y-59437812D01*
X126236180Y-59401502D01*
X126346494Y-59342537D01*
X126443185Y-59263185D01*
X126522537Y-59166494D01*
X126581502Y-59056180D01*
X126603513Y-58983620D01*
X126735368Y-59115475D01*
X126978589Y-59277990D01*
X127248842Y-59389932D01*
X127535740Y-59447000D01*
X127828260Y-59447000D01*
X128115158Y-59389932D01*
X128385411Y-59277990D01*
X128628632Y-59115475D01*
X128835475Y-58908632D01*
X128952000Y-58734240D01*
X129068525Y-58908632D01*
X129275368Y-59115475D01*
X129518589Y-59277990D01*
X129788842Y-59389932D01*
X130075740Y-59447000D01*
X130368260Y-59447000D01*
X130655158Y-59389932D01*
X130925411Y-59277990D01*
X131168632Y-59115475D01*
X131375475Y-58908632D01*
X131537990Y-58665411D01*
X131649932Y-58395158D01*
X131707000Y-58108260D01*
X131707000Y-57815740D01*
X131649932Y-57528842D01*
X131537990Y-57258589D01*
X131375475Y-57015368D01*
X131168632Y-56808525D01*
X130925411Y-56646010D01*
X130655158Y-56534068D01*
X130368260Y-56477000D01*
X130075740Y-56477000D01*
X129788842Y-56534068D01*
X129518589Y-56646010D01*
X129275368Y-56808525D01*
X129068525Y-57015368D01*
X128952000Y-57189760D01*
X128835475Y-57015368D01*
X128628632Y-56808525D01*
X128385411Y-56646010D01*
X128115158Y-56534068D01*
X127828260Y-56477000D01*
X127535740Y-56477000D01*
X127248842Y-56534068D01*
X126978589Y-56646010D01*
X126735368Y-56808525D01*
X126603513Y-56940380D01*
X126581502Y-56867820D01*
X126522537Y-56757506D01*
X126443185Y-56660815D01*
X126346494Y-56581463D01*
X126236180Y-56522498D01*
X126116482Y-56486188D01*
X125992000Y-56473928D01*
X124292000Y-56473928D01*
X124167518Y-56486188D01*
X124047820Y-56522498D01*
X123937506Y-56581463D01*
X123840815Y-56660815D01*
X123761463Y-56757506D01*
X123702498Y-56867820D01*
X123666188Y-56987518D01*
X123653928Y-57112000D01*
X123653928Y-57490217D01*
X123509774Y-57346063D01*
X123340256Y-57232795D01*
X123151898Y-57154774D01*
X122951939Y-57115000D01*
X122748061Y-57115000D01*
X122548102Y-57154774D01*
X122359744Y-57232795D01*
X122190226Y-57346063D01*
X122046063Y-57490226D01*
X121932795Y-57659744D01*
X121854774Y-57848102D01*
X121815000Y-58048061D01*
X121160000Y-58048061D01*
X121160000Y-55898061D01*
X149365000Y-55898061D01*
X149365000Y-56101939D01*
X149404774Y-56301898D01*
X149482795Y-56490256D01*
X149596063Y-56659774D01*
X149740226Y-56803937D01*
X149909744Y-56917205D01*
X150098102Y-56995226D01*
X150298061Y-57035000D01*
X150501939Y-57035000D01*
X150701898Y-56995226D01*
X150890256Y-56917205D01*
X151059774Y-56803937D01*
X151203937Y-56659774D01*
X151317205Y-56490256D01*
X151395226Y-56301898D01*
X151435000Y-56101939D01*
X151435000Y-55898061D01*
X151395226Y-55698102D01*
X151317205Y-55509744D01*
X151203937Y-55340226D01*
X151059774Y-55196063D01*
X150890256Y-55082795D01*
X150701898Y-55004774D01*
X150501939Y-54965000D01*
X150298061Y-54965000D01*
X150098102Y-55004774D01*
X149909744Y-55082795D01*
X149740226Y-55196063D01*
X149596063Y-55340226D01*
X149482795Y-55509744D01*
X149404774Y-55698102D01*
X149365000Y-55898061D01*
X121160000Y-55898061D01*
X121160000Y-54930665D01*
X121199463Y-55004494D01*
X121278815Y-55101185D01*
X121375506Y-55180537D01*
X121485820Y-55239502D01*
X121605518Y-55275812D01*
X121730000Y-55288072D01*
X123430000Y-55288072D01*
X123554482Y-55275812D01*
X123674180Y-55239502D01*
X123784494Y-55180537D01*
X123881185Y-55101185D01*
X123960537Y-55004494D01*
X124019502Y-54894180D01*
X124041513Y-54821620D01*
X124173368Y-54953475D01*
X124416589Y-55115990D01*
X124686842Y-55227932D01*
X124973740Y-55285000D01*
X125266260Y-55285000D01*
X125553158Y-55227932D01*
X125823411Y-55115990D01*
X126066632Y-54953475D01*
X126273475Y-54746632D01*
X126395195Y-54564466D01*
X126464822Y-54681355D01*
X126659731Y-54897588D01*
X126893080Y-55071641D01*
X127155901Y-55196825D01*
X127303110Y-55241476D01*
X127533000Y-55120155D01*
X127533000Y-53927000D01*
X127513000Y-53927000D01*
X127513000Y-53673000D01*
X127533000Y-53673000D01*
X127533000Y-52479845D01*
X127787000Y-52479845D01*
X127787000Y-53673000D01*
X127807000Y-53673000D01*
X127807000Y-53927000D01*
X127787000Y-53927000D01*
X127787000Y-55120155D01*
X128016890Y-55241476D01*
X128164099Y-55196825D01*
X128426920Y-55071641D01*
X128660269Y-54897588D01*
X128855178Y-54681355D01*
X128924805Y-54564466D01*
X129046525Y-54746632D01*
X129253368Y-54953475D01*
X129496589Y-55115990D01*
X129766842Y-55227932D01*
X130053740Y-55285000D01*
X130346260Y-55285000D01*
X130633158Y-55227932D01*
X130903411Y-55115990D01*
X131146632Y-54953475D01*
X131353475Y-54746632D01*
X131515990Y-54503411D01*
X131627932Y-54233158D01*
X131685000Y-53946260D01*
X131685000Y-53653740D01*
X131627932Y-53366842D01*
X131515990Y-53096589D01*
X131353475Y-52853368D01*
X131146632Y-52646525D01*
X130903411Y-52484010D01*
X130633158Y-52372068D01*
X130346260Y-52315000D01*
X130053740Y-52315000D01*
X129766842Y-52372068D01*
X129496589Y-52484010D01*
X129253368Y-52646525D01*
X129046525Y-52853368D01*
X128924805Y-53035534D01*
X128855178Y-52918645D01*
X128660269Y-52702412D01*
X128426920Y-52528359D01*
X128164099Y-52403175D01*
X128016890Y-52358524D01*
X127787000Y-52479845D01*
X127533000Y-52479845D01*
X127303110Y-52358524D01*
X127155901Y-52403175D01*
X126893080Y-52528359D01*
X126659731Y-52702412D01*
X126464822Y-52918645D01*
X126395195Y-53035534D01*
X126273475Y-52853368D01*
X126066632Y-52646525D01*
X125823411Y-52484010D01*
X125553158Y-52372068D01*
X125266260Y-52315000D01*
X124973740Y-52315000D01*
X124686842Y-52372068D01*
X124416589Y-52484010D01*
X124173368Y-52646525D01*
X124041513Y-52778380D01*
X124019502Y-52705820D01*
X123960537Y-52595506D01*
X123881185Y-52498815D01*
X123784494Y-52419463D01*
X123674180Y-52360498D01*
X123554482Y-52324188D01*
X123430000Y-52311928D01*
X121730000Y-52311928D01*
X121605518Y-52324188D01*
X121485820Y-52360498D01*
X121375506Y-52419463D01*
X121278815Y-52498815D01*
X121199463Y-52595506D01*
X121160000Y-52669335D01*
X121160000Y-47779872D01*
X122265000Y-47779872D01*
X122265000Y-48220128D01*
X122350890Y-48651925D01*
X122519369Y-49058669D01*
X122763962Y-49424729D01*
X123075271Y-49736038D01*
X123441331Y-49980631D01*
X123848075Y-50149110D01*
X124279872Y-50235000D01*
X124720128Y-50235000D01*
X125151925Y-50149110D01*
X125558669Y-49980631D01*
X125924729Y-49736038D01*
X126236038Y-49424729D01*
X126480631Y-49058669D01*
X126649110Y-48651925D01*
X126735000Y-48220128D01*
X126735000Y-47779872D01*
X166765000Y-47779872D01*
X166765000Y-48220128D01*
X166850890Y-48651925D01*
X167019369Y-49058669D01*
X167263962Y-49424729D01*
X167575271Y-49736038D01*
X167941331Y-49980631D01*
X168348075Y-50149110D01*
X168779872Y-50235000D01*
X169220128Y-50235000D01*
X169651925Y-50149110D01*
X170058669Y-49980631D01*
X170424729Y-49736038D01*
X170736038Y-49424729D01*
X170980631Y-49058669D01*
X171149110Y-48651925D01*
X171235000Y-48220128D01*
X171235000Y-47779872D01*
X171149110Y-47348075D01*
X170980631Y-46941331D01*
X170736038Y-46575271D01*
X170424729Y-46263962D01*
X170058669Y-46019369D01*
X169651925Y-45850890D01*
X169220128Y-45765000D01*
X168779872Y-45765000D01*
X168348075Y-45850890D01*
X167941331Y-46019369D01*
X167575271Y-46263962D01*
X167263962Y-46575271D01*
X167019369Y-46941331D01*
X166850890Y-47348075D01*
X166765000Y-47779872D01*
X126735000Y-47779872D01*
X126649110Y-47348075D01*
X126480631Y-46941331D01*
X126236038Y-46575271D01*
X125924729Y-46263962D01*
X125558669Y-46019369D01*
X125151925Y-45850890D01*
X124720128Y-45765000D01*
X124279872Y-45765000D01*
X123848075Y-45850890D01*
X123441331Y-46019369D01*
X123075271Y-46263962D01*
X122763962Y-46575271D01*
X122519369Y-46941331D01*
X122350890Y-47348075D01*
X122265000Y-47779872D01*
X121160000Y-47779872D01*
X121160000Y-46372614D01*
X121228032Y-46440646D01*
X121426376Y-46573175D01*
X121646764Y-46664462D01*
X121880727Y-46711000D01*
X122119273Y-46711000D01*
X122353236Y-46664462D01*
X122573624Y-46573175D01*
X122771968Y-46440646D01*
X122940646Y-46271968D01*
X123073175Y-46073624D01*
X123164462Y-45853236D01*
X123211000Y-45619273D01*
X123211000Y-45380727D01*
X123164462Y-45146764D01*
X123073175Y-44926376D01*
X122940646Y-44728032D01*
X122872614Y-44660000D01*
X170627386Y-44660000D01*
X170559354Y-44728032D01*
G37*
%TD.AperFunction*%
%TD*%
M02*
