%TF.GenerationSoftware,KiCad,Pcbnew,(5.1.10)-1*%
%TF.CreationDate,2021-05-28T10:13:55+00:00*%
%TF.ProjectId,co2_sensor_node,636f325f-7365-46e7-936f-725f6e6f6465,rev?*%
%TF.SameCoordinates,Original*%
%TF.FileFunction,Legend,Top*%
%TF.FilePolarity,Positive*%
%FSLAX46Y46*%
G04 Gerber Fmt 4.6, Leading zero omitted, Abs format (unit mm)*
G04 Created by KiCad (PCBNEW (5.1.10)-1) date 2021-05-28 10:13:55*
%MOMM*%
%LPD*%
G01*
G04 APERTURE LIST*
%ADD10C,0.120000*%
%ADD11C,0.150000*%
%ADD12C,0.010000*%
G04 APERTURE END LIST*
D10*
X123850000Y-55130000D02*
X121260000Y-55140000D01*
D11*
X157095238Y-55452380D02*
X157190476Y-55452380D01*
X157285714Y-55500000D01*
X157333333Y-55547619D01*
X157380952Y-55642857D01*
X157428571Y-55833333D01*
X157428571Y-56071428D01*
X157380952Y-56261904D01*
X157333333Y-56357142D01*
X157285714Y-56404761D01*
X157190476Y-56452380D01*
X157095238Y-56452380D01*
X157000000Y-56404761D01*
X156952380Y-56357142D01*
X156904761Y-56261904D01*
X156857142Y-56071428D01*
X156857142Y-55833333D01*
X156904761Y-55642857D01*
X156952380Y-55547619D01*
X157000000Y-55500000D01*
X157095238Y-55452380D01*
X157761904Y-56452380D02*
X158285714Y-55785714D01*
X157761904Y-55785714D02*
X158285714Y-56452380D01*
X159095238Y-55785714D02*
X159095238Y-56452380D01*
X158857142Y-55404761D02*
X158619047Y-56119047D01*
X159238095Y-56119047D01*
X159571428Y-55547619D02*
X159619047Y-55500000D01*
X159714285Y-55452380D01*
X159952380Y-55452380D01*
X160047619Y-55500000D01*
X160095238Y-55547619D01*
X160142857Y-55642857D01*
X160142857Y-55738095D01*
X160095238Y-55880952D01*
X159523809Y-56452380D01*
X160142857Y-56452380D01*
X135638095Y-52152380D02*
X135733333Y-52152380D01*
X135828571Y-52200000D01*
X135876190Y-52247619D01*
X135923809Y-52342857D01*
X135971428Y-52533333D01*
X135971428Y-52771428D01*
X135923809Y-52961904D01*
X135876190Y-53057142D01*
X135828571Y-53104761D01*
X135733333Y-53152380D01*
X135638095Y-53152380D01*
X135542857Y-53104761D01*
X135495238Y-53057142D01*
X135447619Y-52961904D01*
X135400000Y-52771428D01*
X135400000Y-52533333D01*
X135447619Y-52342857D01*
X135495238Y-52247619D01*
X135542857Y-52200000D01*
X135638095Y-52152380D01*
X136304761Y-53152380D02*
X136828571Y-52485714D01*
X136304761Y-52485714D02*
X136828571Y-53152380D01*
X137114285Y-52152380D02*
X137780952Y-52152380D01*
X137352380Y-53152380D01*
X138590476Y-52152380D02*
X138400000Y-52152380D01*
X138304761Y-52200000D01*
X138257142Y-52247619D01*
X138161904Y-52390476D01*
X138114285Y-52580952D01*
X138114285Y-52961904D01*
X138161904Y-53057142D01*
X138209523Y-53104761D01*
X138304761Y-53152380D01*
X138495238Y-53152380D01*
X138590476Y-53104761D01*
X138638095Y-53057142D01*
X138685714Y-52961904D01*
X138685714Y-52723809D01*
X138638095Y-52628571D01*
X138590476Y-52580952D01*
X138495238Y-52533333D01*
X138304761Y-52533333D01*
X138209523Y-52580952D01*
X138161904Y-52628571D01*
X138114285Y-52723809D01*
X139828571Y-52104761D02*
X138971428Y-53390476D01*
X140352380Y-52152380D02*
X140447619Y-52152380D01*
X140542857Y-52200000D01*
X140590476Y-52247619D01*
X140638095Y-52342857D01*
X140685714Y-52533333D01*
X140685714Y-52771428D01*
X140638095Y-52961904D01*
X140590476Y-53057142D01*
X140542857Y-53104761D01*
X140447619Y-53152380D01*
X140352380Y-53152380D01*
X140257142Y-53104761D01*
X140209523Y-53057142D01*
X140161904Y-52961904D01*
X140114285Y-52771428D01*
X140114285Y-52533333D01*
X140161904Y-52342857D01*
X140209523Y-52247619D01*
X140257142Y-52200000D01*
X140352380Y-52152380D01*
X141019047Y-53152380D02*
X141542857Y-52485714D01*
X141019047Y-52485714D02*
X141542857Y-53152380D01*
X141828571Y-52152380D02*
X142495238Y-52152380D01*
X142066666Y-53152380D01*
X142780952Y-52152380D02*
X143447619Y-52152380D01*
X143019047Y-53152380D01*
X161785714Y-72452380D02*
X161214285Y-72452380D01*
X161500000Y-72452380D02*
X161500000Y-71452380D01*
X161404761Y-71595238D01*
X161309523Y-71690476D01*
X161214285Y-71738095D01*
D10*
X160500000Y-73000000D02*
X160500000Y-71000000D01*
X158500000Y-73000000D02*
X160500000Y-73000000D01*
D11*
X152647619Y-82052380D02*
X152314285Y-81576190D01*
X152076190Y-82052380D02*
X152076190Y-81052380D01*
X152457142Y-81052380D01*
X152552380Y-81100000D01*
X152600000Y-81147619D01*
X152647619Y-81242857D01*
X152647619Y-81385714D01*
X152600000Y-81480952D01*
X152552380Y-81528571D01*
X152457142Y-81576190D01*
X152076190Y-81576190D01*
X153076190Y-81528571D02*
X153409523Y-81528571D01*
X153552380Y-82052380D02*
X153076190Y-82052380D01*
X153076190Y-81052380D01*
X153552380Y-81052380D01*
X153933333Y-82004761D02*
X154076190Y-82052380D01*
X154314285Y-82052380D01*
X154409523Y-82004761D01*
X154457142Y-81957142D01*
X154504761Y-81861904D01*
X154504761Y-81766666D01*
X154457142Y-81671428D01*
X154409523Y-81623809D01*
X154314285Y-81576190D01*
X154123809Y-81528571D01*
X154028571Y-81480952D01*
X153980952Y-81433333D01*
X153933333Y-81338095D01*
X153933333Y-81242857D01*
X153980952Y-81147619D01*
X154028571Y-81100000D01*
X154123809Y-81052380D01*
X154361904Y-81052380D01*
X154504761Y-81100000D01*
X154933333Y-81528571D02*
X155266666Y-81528571D01*
X155409523Y-82052380D02*
X154933333Y-82052380D01*
X154933333Y-81052380D01*
X155409523Y-81052380D01*
X155695238Y-81052380D02*
X156266666Y-81052380D01*
X155980952Y-82052380D02*
X155980952Y-81052380D01*
X134926071Y-98702380D02*
X135021309Y-98702380D01*
X135116547Y-98750000D01*
X135164166Y-98797619D01*
X135211785Y-98892857D01*
X135259404Y-99083333D01*
X135259404Y-99321428D01*
X135211785Y-99511904D01*
X135164166Y-99607142D01*
X135116547Y-99654761D01*
X135021309Y-99702380D01*
X134926071Y-99702380D01*
X134830833Y-99654761D01*
X134783214Y-99607142D01*
X134735595Y-99511904D01*
X134687976Y-99321428D01*
X134687976Y-99083333D01*
X134735595Y-98892857D01*
X134783214Y-98797619D01*
X134830833Y-98750000D01*
X134926071Y-98702380D01*
X135687976Y-99321428D02*
X136449880Y-99321428D01*
X137116547Y-98702380D02*
X137307023Y-98702380D01*
X137402261Y-98750000D01*
X137497500Y-98845238D01*
X137545119Y-99035714D01*
X137545119Y-99369047D01*
X137497500Y-99559523D01*
X137402261Y-99654761D01*
X137307023Y-99702380D01*
X137116547Y-99702380D01*
X137021309Y-99654761D01*
X136926071Y-99559523D01*
X136878452Y-99369047D01*
X136878452Y-99035714D01*
X136926071Y-98845238D01*
X137021309Y-98750000D01*
X137116547Y-98702380D01*
X138307023Y-99178571D02*
X137973690Y-99178571D01*
X137973690Y-99702380D02*
X137973690Y-98702380D01*
X138449880Y-98702380D01*
X139164166Y-99178571D02*
X138830833Y-99178571D01*
X138830833Y-99702380D02*
X138830833Y-98702380D01*
X139307023Y-98702380D01*
X135259404Y-101352380D02*
X134687976Y-101352380D01*
X134973690Y-101352380D02*
X134973690Y-100352380D01*
X134878452Y-100495238D01*
X134783214Y-100590476D01*
X134687976Y-100638095D01*
X135687976Y-100971428D02*
X136449880Y-100971428D01*
X137116547Y-100352380D02*
X137307023Y-100352380D01*
X137402261Y-100400000D01*
X137497500Y-100495238D01*
X137545119Y-100685714D01*
X137545119Y-101019047D01*
X137497500Y-101209523D01*
X137402261Y-101304761D01*
X137307023Y-101352380D01*
X137116547Y-101352380D01*
X137021309Y-101304761D01*
X136926071Y-101209523D01*
X136878452Y-101019047D01*
X136878452Y-100685714D01*
X136926071Y-100495238D01*
X137021309Y-100400000D01*
X137116547Y-100352380D01*
X137973690Y-101352380D02*
X137973690Y-100352380D01*
X138545119Y-101352380D01*
X138545119Y-100352380D01*
X134735595Y-102002380D02*
X134735595Y-102811904D01*
X134783214Y-102907142D01*
X134830833Y-102954761D01*
X134926071Y-103002380D01*
X135116547Y-103002380D01*
X135211785Y-102954761D01*
X135259404Y-102907142D01*
X135307023Y-102811904D01*
X135307023Y-102002380D01*
X135973690Y-102002380D02*
X136068928Y-102002380D01*
X136164166Y-102050000D01*
X136211785Y-102097619D01*
X136259404Y-102192857D01*
X136307023Y-102383333D01*
X136307023Y-102621428D01*
X136259404Y-102811904D01*
X136211785Y-102907142D01*
X136164166Y-102954761D01*
X136068928Y-103002380D01*
X135973690Y-103002380D01*
X135878452Y-102954761D01*
X135830833Y-102907142D01*
X135783214Y-102811904D01*
X135735595Y-102621428D01*
X135735595Y-102383333D01*
X135783214Y-102192857D01*
X135830833Y-102097619D01*
X135878452Y-102050000D01*
X135973690Y-102002380D01*
X137497500Y-103002380D02*
X137497500Y-102002380D01*
X137735595Y-102002380D01*
X137878452Y-102050000D01*
X137973690Y-102145238D01*
X138021309Y-102240476D01*
X138068928Y-102430952D01*
X138068928Y-102573809D01*
X138021309Y-102764285D01*
X137973690Y-102859523D01*
X137878452Y-102954761D01*
X137735595Y-103002380D01*
X137497500Y-103002380D01*
X138497500Y-102478571D02*
X138830833Y-102478571D01*
X138973690Y-103002380D02*
X138497500Y-103002380D01*
X138497500Y-102002380D01*
X138973690Y-102002380D01*
X139735595Y-102478571D02*
X139878452Y-102526190D01*
X139926071Y-102573809D01*
X139973690Y-102669047D01*
X139973690Y-102811904D01*
X139926071Y-102907142D01*
X139878452Y-102954761D01*
X139783214Y-103002380D01*
X139402261Y-103002380D01*
X139402261Y-102002380D01*
X139735595Y-102002380D01*
X139830833Y-102050000D01*
X139878452Y-102097619D01*
X139926071Y-102192857D01*
X139926071Y-102288095D01*
X139878452Y-102383333D01*
X139830833Y-102430952D01*
X139735595Y-102478571D01*
X139402261Y-102478571D01*
X140402261Y-102002380D02*
X140402261Y-102811904D01*
X140449880Y-102907142D01*
X140497500Y-102954761D01*
X140592738Y-103002380D01*
X140783214Y-103002380D01*
X140878452Y-102954761D01*
X140926071Y-102907142D01*
X140973690Y-102811904D01*
X140973690Y-102002380D01*
X141973690Y-102050000D02*
X141878452Y-102002380D01*
X141735595Y-102002380D01*
X141592738Y-102050000D01*
X141497500Y-102145238D01*
X141449880Y-102240476D01*
X141402261Y-102430952D01*
X141402261Y-102573809D01*
X141449880Y-102764285D01*
X141497500Y-102859523D01*
X141592738Y-102954761D01*
X141735595Y-103002380D01*
X141830833Y-103002380D01*
X141973690Y-102954761D01*
X142021309Y-102907142D01*
X142021309Y-102573809D01*
X141830833Y-102573809D01*
X140614285Y-111827380D02*
X140709523Y-111827380D01*
X140804761Y-111875000D01*
X140852380Y-111922619D01*
X140900000Y-112017857D01*
X140947619Y-112208333D01*
X140947619Y-112446428D01*
X140900000Y-112636904D01*
X140852380Y-112732142D01*
X140804761Y-112779761D01*
X140709523Y-112827380D01*
X140614285Y-112827380D01*
X140519047Y-112779761D01*
X140471428Y-112732142D01*
X140423809Y-112636904D01*
X140376190Y-112446428D01*
X140376190Y-112208333D01*
X140423809Y-112017857D01*
X140471428Y-111922619D01*
X140519047Y-111875000D01*
X140614285Y-111827380D01*
X141376190Y-112446428D02*
X142138095Y-112446428D01*
X142614285Y-112827380D02*
X142614285Y-111827380D01*
X143185714Y-112827380D01*
X143185714Y-111827380D01*
X143852380Y-111827380D02*
X144042857Y-111827380D01*
X144138095Y-111875000D01*
X144233333Y-111970238D01*
X144280952Y-112160714D01*
X144280952Y-112494047D01*
X144233333Y-112684523D01*
X144138095Y-112779761D01*
X144042857Y-112827380D01*
X143852380Y-112827380D01*
X143757142Y-112779761D01*
X143661904Y-112684523D01*
X143614285Y-112494047D01*
X143614285Y-112160714D01*
X143661904Y-111970238D01*
X143757142Y-111875000D01*
X143852380Y-111827380D01*
X145280952Y-112827380D02*
X144947619Y-112351190D01*
X144709523Y-112827380D02*
X144709523Y-111827380D01*
X145090476Y-111827380D01*
X145185714Y-111875000D01*
X145233333Y-111922619D01*
X145280952Y-112017857D01*
X145280952Y-112160714D01*
X145233333Y-112255952D01*
X145185714Y-112303571D01*
X145090476Y-112351190D01*
X144709523Y-112351190D01*
X145709523Y-112827380D02*
X145709523Y-111827380D01*
X146042857Y-112541666D01*
X146376190Y-111827380D01*
X146376190Y-112827380D01*
X141042857Y-114477380D02*
X140471428Y-114477380D01*
X140757142Y-114477380D02*
X140757142Y-113477380D01*
X140661904Y-113620238D01*
X140566666Y-113715476D01*
X140471428Y-113763095D01*
X141471428Y-114096428D02*
X142233333Y-114096428D01*
X142709523Y-114477380D02*
X142709523Y-113477380D01*
X143090476Y-113477380D01*
X143185714Y-113525000D01*
X143233333Y-113572619D01*
X143280952Y-113667857D01*
X143280952Y-113810714D01*
X143233333Y-113905952D01*
X143185714Y-113953571D01*
X143090476Y-114001190D01*
X142709523Y-114001190D01*
X144280952Y-114477380D02*
X143947619Y-114001190D01*
X143709523Y-114477380D02*
X143709523Y-113477380D01*
X144090476Y-113477380D01*
X144185714Y-113525000D01*
X144233333Y-113572619D01*
X144280952Y-113667857D01*
X144280952Y-113810714D01*
X144233333Y-113905952D01*
X144185714Y-113953571D01*
X144090476Y-114001190D01*
X143709523Y-114001190D01*
X144900000Y-113477380D02*
X145090476Y-113477380D01*
X145185714Y-113525000D01*
X145280952Y-113620238D01*
X145328571Y-113810714D01*
X145328571Y-114144047D01*
X145280952Y-114334523D01*
X145185714Y-114429761D01*
X145090476Y-114477380D01*
X144900000Y-114477380D01*
X144804761Y-114429761D01*
X144709523Y-114334523D01*
X144661904Y-114144047D01*
X144661904Y-113810714D01*
X144709523Y-113620238D01*
X144804761Y-113525000D01*
X144900000Y-113477380D01*
X146280952Y-113525000D02*
X146185714Y-113477380D01*
X146042857Y-113477380D01*
X145900000Y-113525000D01*
X145804761Y-113620238D01*
X145757142Y-113715476D01*
X145709523Y-113905952D01*
X145709523Y-114048809D01*
X145757142Y-114239285D01*
X145804761Y-114334523D01*
X145900000Y-114429761D01*
X146042857Y-114477380D01*
X146138095Y-114477380D01*
X146280952Y-114429761D01*
X146328571Y-114382142D01*
X146328571Y-114048809D01*
X146138095Y-114048809D01*
X137214285Y-110928571D02*
X137357142Y-110976190D01*
X137404761Y-111023809D01*
X137452380Y-111119047D01*
X137452380Y-111261904D01*
X137404761Y-111357142D01*
X137357142Y-111404761D01*
X137261904Y-111452380D01*
X136880952Y-111452380D01*
X136880952Y-110452380D01*
X137214285Y-110452380D01*
X137309523Y-110500000D01*
X137357142Y-110547619D01*
X137404761Y-110642857D01*
X137404761Y-110738095D01*
X137357142Y-110833333D01*
X137309523Y-110880952D01*
X137214285Y-110928571D01*
X136880952Y-110928571D01*
X138071428Y-110452380D02*
X138261904Y-110452380D01*
X138357142Y-110500000D01*
X138452380Y-110595238D01*
X138500000Y-110785714D01*
X138500000Y-111119047D01*
X138452380Y-111309523D01*
X138357142Y-111404761D01*
X138261904Y-111452380D01*
X138071428Y-111452380D01*
X137976190Y-111404761D01*
X137880952Y-111309523D01*
X137833333Y-111119047D01*
X137833333Y-110785714D01*
X137880952Y-110595238D01*
X137976190Y-110500000D01*
X138071428Y-110452380D01*
X139119047Y-110452380D02*
X139309523Y-110452380D01*
X139404761Y-110500000D01*
X139500000Y-110595238D01*
X139547619Y-110785714D01*
X139547619Y-111119047D01*
X139500000Y-111309523D01*
X139404761Y-111404761D01*
X139309523Y-111452380D01*
X139119047Y-111452380D01*
X139023809Y-111404761D01*
X138928571Y-111309523D01*
X138880952Y-111119047D01*
X138880952Y-110785714D01*
X138928571Y-110595238D01*
X139023809Y-110500000D01*
X139119047Y-110452380D01*
X139833333Y-110452380D02*
X140404761Y-110452380D01*
X140119047Y-111452380D02*
X140119047Y-110452380D01*
X141500000Y-111452380D02*
X141500000Y-110452380D01*
X141833333Y-111166666D01*
X142166666Y-110452380D01*
X142166666Y-111452380D01*
X142833333Y-110452380D02*
X143023809Y-110452380D01*
X143119047Y-110500000D01*
X143214285Y-110595238D01*
X143261904Y-110785714D01*
X143261904Y-111119047D01*
X143214285Y-111309523D01*
X143119047Y-111404761D01*
X143023809Y-111452380D01*
X142833333Y-111452380D01*
X142738095Y-111404761D01*
X142642857Y-111309523D01*
X142595238Y-111119047D01*
X142595238Y-110785714D01*
X142642857Y-110595238D01*
X142738095Y-110500000D01*
X142833333Y-110452380D01*
X143690476Y-111452380D02*
X143690476Y-110452380D01*
X143928571Y-110452380D01*
X144071428Y-110500000D01*
X144166666Y-110595238D01*
X144214285Y-110690476D01*
X144261904Y-110880952D01*
X144261904Y-111023809D01*
X144214285Y-111214285D01*
X144166666Y-111309523D01*
X144071428Y-111404761D01*
X143928571Y-111452380D01*
X143690476Y-111452380D01*
X144690476Y-110928571D02*
X145023809Y-110928571D01*
X145166666Y-111452380D02*
X144690476Y-111452380D01*
X144690476Y-110452380D01*
X145166666Y-110452380D01*
X124826190Y-128785714D02*
X124064285Y-129071428D01*
X124826190Y-129357142D01*
X125492857Y-128452380D02*
X125588095Y-128452380D01*
X125683333Y-128500000D01*
X125730952Y-128547619D01*
X125778571Y-128642857D01*
X125826190Y-128833333D01*
X125826190Y-129071428D01*
X125778571Y-129261904D01*
X125730952Y-129357142D01*
X125683333Y-129404761D01*
X125588095Y-129452380D01*
X125492857Y-129452380D01*
X125397619Y-129404761D01*
X125350000Y-129357142D01*
X125302380Y-129261904D01*
X125254761Y-129071428D01*
X125254761Y-128833333D01*
X125302380Y-128642857D01*
X125350000Y-128547619D01*
X125397619Y-128500000D01*
X125492857Y-128452380D01*
X126111904Y-128452380D02*
X126445238Y-129452380D01*
X126778571Y-128452380D01*
X124826190Y-123285714D02*
X124064285Y-123571428D01*
X124826190Y-123857142D01*
X125207142Y-122952380D02*
X125826190Y-122952380D01*
X125492857Y-123333333D01*
X125635714Y-123333333D01*
X125730952Y-123380952D01*
X125778571Y-123428571D01*
X125826190Y-123523809D01*
X125826190Y-123761904D01*
X125778571Y-123857142D01*
X125730952Y-123904761D01*
X125635714Y-123952380D01*
X125350000Y-123952380D01*
X125254761Y-123904761D01*
X125207142Y-123857142D01*
X126111904Y-122952380D02*
X126445238Y-123952380D01*
X126778571Y-122952380D01*
X124826190Y-103035714D02*
X124064285Y-103321428D01*
X124826190Y-103607142D01*
X125730952Y-102702380D02*
X125540476Y-102702380D01*
X125445238Y-102750000D01*
X125397619Y-102797619D01*
X125302380Y-102940476D01*
X125254761Y-103130952D01*
X125254761Y-103511904D01*
X125302380Y-103607142D01*
X125350000Y-103654761D01*
X125445238Y-103702380D01*
X125635714Y-103702380D01*
X125730952Y-103654761D01*
X125778571Y-103607142D01*
X125826190Y-103511904D01*
X125826190Y-103273809D01*
X125778571Y-103178571D01*
X125730952Y-103130952D01*
X125635714Y-103083333D01*
X125445238Y-103083333D01*
X125350000Y-103130952D01*
X125302380Y-103178571D01*
X125254761Y-103273809D01*
X126111904Y-102702380D02*
X126445238Y-103702380D01*
X126778571Y-102702380D01*
X127169166Y-132702380D02*
X126692976Y-132702380D01*
X126692976Y-131702380D01*
X127645357Y-132702380D02*
X127550119Y-132654761D01*
X127502500Y-132607142D01*
X127454880Y-132511904D01*
X127454880Y-132226190D01*
X127502500Y-132130952D01*
X127550119Y-132083333D01*
X127645357Y-132035714D01*
X127788214Y-132035714D01*
X127883452Y-132083333D01*
X127931071Y-132130952D01*
X127978690Y-132226190D01*
X127978690Y-132511904D01*
X127931071Y-132607142D01*
X127883452Y-132654761D01*
X127788214Y-132702380D01*
X127645357Y-132702380D01*
X128978690Y-132702380D02*
X128645357Y-132226190D01*
X128407261Y-132702380D02*
X128407261Y-131702380D01*
X128788214Y-131702380D01*
X128883452Y-131750000D01*
X128931071Y-131797619D01*
X128978690Y-131892857D01*
X128978690Y-132035714D01*
X128931071Y-132130952D01*
X128883452Y-132178571D01*
X128788214Y-132226190D01*
X128407261Y-132226190D01*
X129835833Y-132702380D02*
X129835833Y-132178571D01*
X129788214Y-132083333D01*
X129692976Y-132035714D01*
X129502500Y-132035714D01*
X129407261Y-132083333D01*
X129835833Y-132654761D02*
X129740595Y-132702380D01*
X129502500Y-132702380D01*
X129407261Y-132654761D01*
X129359642Y-132559523D01*
X129359642Y-132464285D01*
X129407261Y-132369047D01*
X129502500Y-132321428D01*
X129740595Y-132321428D01*
X129835833Y-132273809D01*
X131026309Y-132416666D02*
X131502500Y-132416666D01*
X130931071Y-132702380D02*
X131264404Y-131702380D01*
X131597738Y-132702380D01*
X131931071Y-132702380D02*
X131931071Y-131702380D01*
X132502500Y-132702380D01*
X132502500Y-131702380D01*
X132835833Y-131702380D02*
X133407261Y-131702380D01*
X133121547Y-132702380D02*
X133121547Y-131702380D01*
X136219047Y-126171428D02*
X136980952Y-126171428D01*
X136600000Y-126552380D02*
X136600000Y-125790476D01*
X138219047Y-126171428D02*
X138980952Y-126171428D01*
X136504761Y-127202380D02*
X136838095Y-128202380D01*
X137171428Y-127202380D01*
X137504761Y-128202380D02*
X137504761Y-127202380D01*
X137980952Y-128202380D02*
X137980952Y-127202380D01*
X138552380Y-128202380D01*
X138552380Y-127202380D01*
X135790476Y-128852380D02*
X135600000Y-128852380D01*
X135504761Y-128900000D01*
X135457142Y-128947619D01*
X135361904Y-129090476D01*
X135314285Y-129280952D01*
X135314285Y-129661904D01*
X135361904Y-129757142D01*
X135409523Y-129804761D01*
X135504761Y-129852380D01*
X135695238Y-129852380D01*
X135790476Y-129804761D01*
X135838095Y-129757142D01*
X135885714Y-129661904D01*
X135885714Y-129423809D01*
X135838095Y-129328571D01*
X135790476Y-129280952D01*
X135695238Y-129233333D01*
X135504761Y-129233333D01*
X135409523Y-129280952D01*
X135361904Y-129328571D01*
X135314285Y-129423809D01*
X136314285Y-129471428D02*
X137076190Y-129471428D01*
X138076190Y-129852380D02*
X137504761Y-129852380D01*
X137790476Y-129852380D02*
X137790476Y-128852380D01*
X137695238Y-128995238D01*
X137600000Y-129090476D01*
X137504761Y-129138095D01*
X138980952Y-128852380D02*
X138504761Y-128852380D01*
X138457142Y-129328571D01*
X138504761Y-129280952D01*
X138600000Y-129233333D01*
X138838095Y-129233333D01*
X138933333Y-129280952D01*
X138980952Y-129328571D01*
X139028571Y-129423809D01*
X139028571Y-129661904D01*
X138980952Y-129757142D01*
X138933333Y-129804761D01*
X138838095Y-129852380D01*
X138600000Y-129852380D01*
X138504761Y-129804761D01*
X138457142Y-129757142D01*
X139314285Y-128852380D02*
X139647619Y-129852380D01*
X139980952Y-128852380D01*
D10*
X121250000Y-78600000D02*
X121250000Y-104150000D01*
X128900000Y-104150000D02*
X123850000Y-104150000D01*
X121250000Y-104150000D02*
X123850000Y-104150000D01*
X131552000Y-79358000D02*
X131530000Y-88858000D01*
D11*
X122094047Y-92076190D02*
X122034523Y-92254761D01*
X122034523Y-92552380D01*
X122094047Y-92671428D01*
X122153571Y-92730952D01*
X122272619Y-92790476D01*
X122391666Y-92790476D01*
X122510714Y-92730952D01*
X122570238Y-92671428D01*
X122629761Y-92552380D01*
X122689285Y-92314285D01*
X122748809Y-92195238D01*
X122808333Y-92135714D01*
X122927380Y-92076190D01*
X123046428Y-92076190D01*
X123165476Y-92135714D01*
X123225000Y-92195238D01*
X123284523Y-92314285D01*
X123284523Y-92611904D01*
X123225000Y-92790476D01*
X122689285Y-93326190D02*
X122689285Y-93742857D01*
X122034523Y-93921428D02*
X122034523Y-93326190D01*
X123284523Y-93326190D01*
X123284523Y-93921428D01*
X122034523Y-94457142D02*
X123284523Y-94457142D01*
X122034523Y-95171428D01*
X123284523Y-95171428D01*
X122094047Y-95707142D02*
X122034523Y-95885714D01*
X122034523Y-96183333D01*
X122094047Y-96302380D01*
X122153571Y-96361904D01*
X122272619Y-96421428D01*
X122391666Y-96421428D01*
X122510714Y-96361904D01*
X122570238Y-96302380D01*
X122629761Y-96183333D01*
X122689285Y-95945238D01*
X122748809Y-95826190D01*
X122808333Y-95766666D01*
X122927380Y-95707142D01*
X123046428Y-95707142D01*
X123165476Y-95766666D01*
X123225000Y-95826190D01*
X123284523Y-95945238D01*
X123284523Y-96242857D01*
X123225000Y-96421428D01*
X123284523Y-97195238D02*
X123284523Y-97433333D01*
X123225000Y-97552380D01*
X123105952Y-97671428D01*
X122867857Y-97730952D01*
X122451190Y-97730952D01*
X122213095Y-97671428D01*
X122094047Y-97552380D01*
X122034523Y-97433333D01*
X122034523Y-97195238D01*
X122094047Y-97076190D01*
X122213095Y-96957142D01*
X122451190Y-96897619D01*
X122867857Y-96897619D01*
X123105952Y-96957142D01*
X123225000Y-97076190D01*
X123284523Y-97195238D01*
X122034523Y-98980952D02*
X122629761Y-98564285D01*
X122034523Y-98266666D02*
X123284523Y-98266666D01*
X123284523Y-98742857D01*
X123225000Y-98861904D01*
X123165476Y-98921428D01*
X123046428Y-98980952D01*
X122867857Y-98980952D01*
X122748809Y-98921428D01*
X122689285Y-98861904D01*
X122629761Y-98742857D01*
X122629761Y-98266666D01*
X123165476Y-100409523D02*
X123225000Y-100469047D01*
X123284523Y-100588095D01*
X123284523Y-100885714D01*
X123225000Y-101004761D01*
X123165476Y-101064285D01*
X123046428Y-101123809D01*
X122927380Y-101123809D01*
X122748809Y-101064285D01*
X122034523Y-100350000D01*
X122034523Y-101123809D01*
X122094047Y-67226190D02*
X122034523Y-67404761D01*
X122034523Y-67702380D01*
X122094047Y-67821428D01*
X122153571Y-67880952D01*
X122272619Y-67940476D01*
X122391666Y-67940476D01*
X122510714Y-67880952D01*
X122570238Y-67821428D01*
X122629761Y-67702380D01*
X122689285Y-67464285D01*
X122748809Y-67345238D01*
X122808333Y-67285714D01*
X122927380Y-67226190D01*
X123046428Y-67226190D01*
X123165476Y-67285714D01*
X123225000Y-67345238D01*
X123284523Y-67464285D01*
X123284523Y-67761904D01*
X123225000Y-67940476D01*
X122689285Y-68476190D02*
X122689285Y-68892857D01*
X122034523Y-69071428D02*
X122034523Y-68476190D01*
X123284523Y-68476190D01*
X123284523Y-69071428D01*
X122034523Y-69607142D02*
X123284523Y-69607142D01*
X122034523Y-70321428D01*
X123284523Y-70321428D01*
X122094047Y-70857142D02*
X122034523Y-71035714D01*
X122034523Y-71333333D01*
X122094047Y-71452380D01*
X122153571Y-71511904D01*
X122272619Y-71571428D01*
X122391666Y-71571428D01*
X122510714Y-71511904D01*
X122570238Y-71452380D01*
X122629761Y-71333333D01*
X122689285Y-71095238D01*
X122748809Y-70976190D01*
X122808333Y-70916666D01*
X122927380Y-70857142D01*
X123046428Y-70857142D01*
X123165476Y-70916666D01*
X123225000Y-70976190D01*
X123284523Y-71095238D01*
X123284523Y-71392857D01*
X123225000Y-71571428D01*
X123284523Y-72345238D02*
X123284523Y-72583333D01*
X123225000Y-72702380D01*
X123105952Y-72821428D01*
X122867857Y-72880952D01*
X122451190Y-72880952D01*
X122213095Y-72821428D01*
X122094047Y-72702380D01*
X122034523Y-72583333D01*
X122034523Y-72345238D01*
X122094047Y-72226190D01*
X122213095Y-72107142D01*
X122451190Y-72047619D01*
X122867857Y-72047619D01*
X123105952Y-72107142D01*
X123225000Y-72226190D01*
X123284523Y-72345238D01*
X122034523Y-74130952D02*
X122629761Y-73714285D01*
X122034523Y-73416666D02*
X123284523Y-73416666D01*
X123284523Y-73892857D01*
X123225000Y-74011904D01*
X123165476Y-74071428D01*
X123046428Y-74130952D01*
X122867857Y-74130952D01*
X122748809Y-74071428D01*
X122689285Y-74011904D01*
X122629761Y-73892857D01*
X122629761Y-73416666D01*
X122034523Y-76273809D02*
X122034523Y-75559523D01*
X122034523Y-75916666D02*
X123284523Y-75916666D01*
X123105952Y-75797619D01*
X122986904Y-75678571D01*
X122927380Y-75559523D01*
D10*
X131550000Y-55100000D02*
X131550000Y-64050000D01*
X121250000Y-79350000D02*
X123850000Y-79350000D01*
X121250000Y-53800000D02*
X121250000Y-79350000D01*
X128900000Y-79350000D02*
X123850000Y-79350000D01*
D11*
X137816666Y-62452380D02*
X138150000Y-63452380D01*
X138483333Y-62452380D01*
X139388095Y-63357142D02*
X139340476Y-63404761D01*
X139197619Y-63452380D01*
X139102380Y-63452380D01*
X138959523Y-63404761D01*
X138864285Y-63309523D01*
X138816666Y-63214285D01*
X138769047Y-63023809D01*
X138769047Y-62880952D01*
X138816666Y-62690476D01*
X138864285Y-62595238D01*
X138959523Y-62500000D01*
X139102380Y-62452380D01*
X139197619Y-62452380D01*
X139340476Y-62500000D01*
X139388095Y-62547619D01*
X140388095Y-63357142D02*
X140340476Y-63404761D01*
X140197619Y-63452380D01*
X140102380Y-63452380D01*
X139959523Y-63404761D01*
X139864285Y-63309523D01*
X139816666Y-63214285D01*
X139769047Y-63023809D01*
X139769047Y-62880952D01*
X139816666Y-62690476D01*
X139864285Y-62595238D01*
X139959523Y-62500000D01*
X140102380Y-62452380D01*
X140197619Y-62452380D01*
X140340476Y-62500000D01*
X140388095Y-62547619D01*
X138388095Y-65000000D02*
X138292857Y-64952380D01*
X138150000Y-64952380D01*
X138007142Y-65000000D01*
X137911904Y-65095238D01*
X137864285Y-65190476D01*
X137816666Y-65380952D01*
X137816666Y-65523809D01*
X137864285Y-65714285D01*
X137911904Y-65809523D01*
X138007142Y-65904761D01*
X138150000Y-65952380D01*
X138245238Y-65952380D01*
X138388095Y-65904761D01*
X138435714Y-65857142D01*
X138435714Y-65523809D01*
X138245238Y-65523809D01*
X138864285Y-65952380D02*
X138864285Y-64952380D01*
X139435714Y-65952380D01*
X139435714Y-64952380D01*
X139911904Y-65952380D02*
X139911904Y-64952380D01*
X140150000Y-64952380D01*
X140292857Y-65000000D01*
X140388095Y-65095238D01*
X140435714Y-65190476D01*
X140483333Y-65380952D01*
X140483333Y-65523809D01*
X140435714Y-65714285D01*
X140388095Y-65809523D01*
X140292857Y-65904761D01*
X140150000Y-65952380D01*
X139911904Y-65952380D01*
X137816666Y-77452380D02*
X138150000Y-78452380D01*
X138483333Y-77452380D01*
X139388095Y-78357142D02*
X139340476Y-78404761D01*
X139197619Y-78452380D01*
X139102380Y-78452380D01*
X138959523Y-78404761D01*
X138864285Y-78309523D01*
X138816666Y-78214285D01*
X138769047Y-78023809D01*
X138769047Y-77880952D01*
X138816666Y-77690476D01*
X138864285Y-77595238D01*
X138959523Y-77500000D01*
X139102380Y-77452380D01*
X139197619Y-77452380D01*
X139340476Y-77500000D01*
X139388095Y-77547619D01*
X140388095Y-78357142D02*
X140340476Y-78404761D01*
X140197619Y-78452380D01*
X140102380Y-78452380D01*
X139959523Y-78404761D01*
X139864285Y-78309523D01*
X139816666Y-78214285D01*
X139769047Y-78023809D01*
X139769047Y-77880952D01*
X139816666Y-77690476D01*
X139864285Y-77595238D01*
X139959523Y-77500000D01*
X140102380Y-77452380D01*
X140197619Y-77452380D01*
X140340476Y-77500000D01*
X140388095Y-77547619D01*
D10*
X141400000Y-61750000D02*
X136900000Y-61750000D01*
X141400000Y-64250000D02*
X136900000Y-64250000D01*
X141400000Y-79250000D02*
X136900000Y-79250000D01*
D11*
X138388095Y-69952380D02*
X138959523Y-69952380D01*
X138673809Y-70952380D02*
X138673809Y-69952380D01*
X139197619Y-69952380D02*
X139864285Y-70952380D01*
X139864285Y-69952380D02*
X139197619Y-70952380D01*
X138983333Y-68452380D02*
X138650000Y-67976190D01*
X138411904Y-68452380D02*
X138411904Y-67452380D01*
X138792857Y-67452380D01*
X138888095Y-67500000D01*
X138935714Y-67547619D01*
X138983333Y-67642857D01*
X138983333Y-67785714D01*
X138935714Y-67880952D01*
X138888095Y-67928571D01*
X138792857Y-67976190D01*
X138411904Y-67976190D01*
X139316666Y-67452380D02*
X139983333Y-68452380D01*
X139983333Y-67452380D02*
X139316666Y-68452380D01*
X138530952Y-73452380D02*
X138197619Y-72976190D01*
X137959523Y-73452380D02*
X137959523Y-72452380D01*
X138340476Y-72452380D01*
X138435714Y-72500000D01*
X138483333Y-72547619D01*
X138530952Y-72642857D01*
X138530952Y-72785714D01*
X138483333Y-72880952D01*
X138435714Y-72928571D01*
X138340476Y-72976190D01*
X137959523Y-72976190D01*
X138959523Y-73452380D02*
X138959523Y-72452380D01*
X139197619Y-72452380D01*
X139340476Y-72500000D01*
X139435714Y-72595238D01*
X139483333Y-72690476D01*
X139530952Y-72880952D01*
X139530952Y-73023809D01*
X139483333Y-73214285D01*
X139435714Y-73309523D01*
X139340476Y-73404761D01*
X139197619Y-73452380D01*
X138959523Y-73452380D01*
X140150000Y-72976190D02*
X140150000Y-73452380D01*
X139816666Y-72452380D02*
X140150000Y-72976190D01*
X140483333Y-72452380D01*
X138364285Y-75952380D02*
X138364285Y-74952380D01*
X138935714Y-75952380D01*
X138935714Y-74952380D01*
X139983333Y-75857142D02*
X139935714Y-75904761D01*
X139792857Y-75952380D01*
X139697619Y-75952380D01*
X139554761Y-75904761D01*
X139459523Y-75809523D01*
X139411904Y-75714285D01*
X139364285Y-75523809D01*
X139364285Y-75380952D01*
X139411904Y-75190476D01*
X139459523Y-75095238D01*
X139554761Y-75000000D01*
X139697619Y-74952380D01*
X139792857Y-74952380D01*
X139935714Y-75000000D01*
X139983333Y-75047619D01*
D10*
X141400000Y-76750000D02*
X136900000Y-76750000D01*
X136900000Y-71750000D02*
X141400000Y-71750000D01*
X136900000Y-79250000D02*
X136900000Y-61750000D01*
X141400000Y-61750000D02*
X141400000Y-79250000D01*
X141400000Y-69250000D02*
X136900000Y-69250000D01*
X136900000Y-66750000D02*
X141400000Y-66750000D01*
X141400000Y-74250000D02*
X136900000Y-74250000D01*
D11*
X133888095Y-75000000D02*
X133792857Y-74952380D01*
X133650000Y-74952380D01*
X133507142Y-75000000D01*
X133411904Y-75095238D01*
X133364285Y-75190476D01*
X133316666Y-75380952D01*
X133316666Y-75523809D01*
X133364285Y-75714285D01*
X133411904Y-75809523D01*
X133507142Y-75904761D01*
X133650000Y-75952380D01*
X133745238Y-75952380D01*
X133888095Y-75904761D01*
X133935714Y-75857142D01*
X133935714Y-75523809D01*
X133745238Y-75523809D01*
X134364285Y-75952380D02*
X134364285Y-74952380D01*
X134935714Y-75952380D01*
X134935714Y-74952380D01*
X135411904Y-75952380D02*
X135411904Y-74952380D01*
X135650000Y-74952380D01*
X135792857Y-75000000D01*
X135888095Y-75095238D01*
X135935714Y-75190476D01*
X135983333Y-75380952D01*
X135983333Y-75523809D01*
X135935714Y-75714285D01*
X135888095Y-75809523D01*
X135792857Y-75904761D01*
X135650000Y-75952380D01*
X135411904Y-75952380D01*
X133316666Y-72452380D02*
X133650000Y-73452380D01*
X133983333Y-72452380D01*
X134888095Y-73357142D02*
X134840476Y-73404761D01*
X134697619Y-73452380D01*
X134602380Y-73452380D01*
X134459523Y-73404761D01*
X134364285Y-73309523D01*
X134316666Y-73214285D01*
X134269047Y-73023809D01*
X134269047Y-72880952D01*
X134316666Y-72690476D01*
X134364285Y-72595238D01*
X134459523Y-72500000D01*
X134602380Y-72452380D01*
X134697619Y-72452380D01*
X134840476Y-72500000D01*
X134888095Y-72547619D01*
X135888095Y-73357142D02*
X135840476Y-73404761D01*
X135697619Y-73452380D01*
X135602380Y-73452380D01*
X135459523Y-73404761D01*
X135364285Y-73309523D01*
X135316666Y-73214285D01*
X135269047Y-73023809D01*
X135269047Y-72880952D01*
X135316666Y-72690476D01*
X135364285Y-72595238D01*
X135459523Y-72500000D01*
X135602380Y-72452380D01*
X135697619Y-72452380D01*
X135840476Y-72500000D01*
X135888095Y-72547619D01*
X133888095Y-69952380D02*
X134459523Y-69952380D01*
X134173809Y-70952380D02*
X134173809Y-69952380D01*
X134697619Y-69952380D02*
X135364285Y-70952380D01*
X135364285Y-69952380D02*
X134697619Y-70952380D01*
X134483333Y-68452380D02*
X134150000Y-67976190D01*
X133911904Y-68452380D02*
X133911904Y-67452380D01*
X134292857Y-67452380D01*
X134388095Y-67500000D01*
X134435714Y-67547619D01*
X134483333Y-67642857D01*
X134483333Y-67785714D01*
X134435714Y-67880952D01*
X134388095Y-67928571D01*
X134292857Y-67976190D01*
X133911904Y-67976190D01*
X134816666Y-67452380D02*
X135483333Y-68452380D01*
X135483333Y-67452380D02*
X134816666Y-68452380D01*
D10*
X136900000Y-69250000D02*
X132400000Y-69250000D01*
X132400000Y-71750000D02*
X136900000Y-71750000D01*
X136900000Y-74250000D02*
X132400000Y-74250000D01*
X132400000Y-76750000D02*
X132400000Y-66750000D01*
X136900000Y-76750000D02*
X132400000Y-76750000D01*
X132400000Y-66750000D02*
X136900000Y-66750000D01*
D11*
X132292738Y-57427380D02*
X132626071Y-58427380D01*
X132959404Y-57427380D01*
X133435595Y-58427380D02*
X133340357Y-58379761D01*
X133292738Y-58332142D01*
X133245119Y-58236904D01*
X133245119Y-57951190D01*
X133292738Y-57855952D01*
X133340357Y-57808333D01*
X133435595Y-57760714D01*
X133578452Y-57760714D01*
X133673690Y-57808333D01*
X133721309Y-57855952D01*
X133768928Y-57951190D01*
X133768928Y-58236904D01*
X133721309Y-58332142D01*
X133673690Y-58379761D01*
X133578452Y-58427380D01*
X133435595Y-58427380D01*
X134340357Y-58427380D02*
X134245119Y-58379761D01*
X134197500Y-58284523D01*
X134197500Y-57427380D01*
X134578452Y-57760714D02*
X134959404Y-57760714D01*
X134721309Y-57427380D02*
X134721309Y-58284523D01*
X134768928Y-58379761D01*
X134864166Y-58427380D01*
X134959404Y-58427380D01*
X135721309Y-58427380D02*
X135721309Y-57903571D01*
X135673690Y-57808333D01*
X135578452Y-57760714D01*
X135387976Y-57760714D01*
X135292738Y-57808333D01*
X135721309Y-58379761D02*
X135626071Y-58427380D01*
X135387976Y-58427380D01*
X135292738Y-58379761D01*
X135245119Y-58284523D01*
X135245119Y-58189285D01*
X135292738Y-58094047D01*
X135387976Y-58046428D01*
X135626071Y-58046428D01*
X135721309Y-57998809D01*
X136626071Y-57760714D02*
X136626071Y-58570238D01*
X136578452Y-58665476D01*
X136530833Y-58713095D01*
X136435595Y-58760714D01*
X136292738Y-58760714D01*
X136197500Y-58713095D01*
X136626071Y-58379761D02*
X136530833Y-58427380D01*
X136340357Y-58427380D01*
X136245119Y-58379761D01*
X136197500Y-58332142D01*
X136149880Y-58236904D01*
X136149880Y-57951190D01*
X136197500Y-57855952D01*
X136245119Y-57808333D01*
X136340357Y-57760714D01*
X136530833Y-57760714D01*
X136626071Y-57808333D01*
X137483214Y-58379761D02*
X137387976Y-58427380D01*
X137197500Y-58427380D01*
X137102261Y-58379761D01*
X137054642Y-58284523D01*
X137054642Y-57903571D01*
X137102261Y-57808333D01*
X137197500Y-57760714D01*
X137387976Y-57760714D01*
X137483214Y-57808333D01*
X137530833Y-57903571D01*
X137530833Y-57998809D01*
X137054642Y-58094047D01*
X138673690Y-58379761D02*
X138768928Y-58427380D01*
X138959404Y-58427380D01*
X139054642Y-58379761D01*
X139102261Y-58284523D01*
X139102261Y-58236904D01*
X139054642Y-58141666D01*
X138959404Y-58094047D01*
X138816547Y-58094047D01*
X138721309Y-58046428D01*
X138673690Y-57951190D01*
X138673690Y-57903571D01*
X138721309Y-57808333D01*
X138816547Y-57760714D01*
X138959404Y-57760714D01*
X139054642Y-57808333D01*
X139911785Y-58379761D02*
X139816547Y-58427380D01*
X139626071Y-58427380D01*
X139530833Y-58379761D01*
X139483214Y-58284523D01*
X139483214Y-57903571D01*
X139530833Y-57808333D01*
X139626071Y-57760714D01*
X139816547Y-57760714D01*
X139911785Y-57808333D01*
X139959404Y-57903571D01*
X139959404Y-57998809D01*
X139483214Y-58094047D01*
X140530833Y-58427380D02*
X140435595Y-58379761D01*
X140387976Y-58284523D01*
X140387976Y-57427380D01*
X141292738Y-58379761D02*
X141197500Y-58427380D01*
X141007023Y-58427380D01*
X140911785Y-58379761D01*
X140864166Y-58284523D01*
X140864166Y-57903571D01*
X140911785Y-57808333D01*
X141007023Y-57760714D01*
X141197500Y-57760714D01*
X141292738Y-57808333D01*
X141340357Y-57903571D01*
X141340357Y-57998809D01*
X140864166Y-58094047D01*
X142197500Y-58379761D02*
X142102261Y-58427380D01*
X141911785Y-58427380D01*
X141816547Y-58379761D01*
X141768928Y-58332142D01*
X141721309Y-58236904D01*
X141721309Y-57951190D01*
X141768928Y-57855952D01*
X141816547Y-57808333D01*
X141911785Y-57760714D01*
X142102261Y-57760714D01*
X142197500Y-57808333D01*
X142483214Y-57760714D02*
X142864166Y-57760714D01*
X142626071Y-57427380D02*
X142626071Y-58284523D01*
X142673690Y-58379761D01*
X142768928Y-58427380D01*
X142864166Y-58427380D01*
X132387976Y-60029761D02*
X132530833Y-60077380D01*
X132768928Y-60077380D01*
X132864166Y-60029761D01*
X132911785Y-59982142D01*
X132959404Y-59886904D01*
X132959404Y-59791666D01*
X132911785Y-59696428D01*
X132864166Y-59648809D01*
X132768928Y-59601190D01*
X132578452Y-59553571D01*
X132483214Y-59505952D01*
X132435595Y-59458333D01*
X132387976Y-59363095D01*
X132387976Y-59267857D01*
X132435595Y-59172619D01*
X132483214Y-59125000D01*
X132578452Y-59077380D01*
X132816547Y-59077380D01*
X132959404Y-59125000D01*
X133768928Y-60029761D02*
X133673690Y-60077380D01*
X133483214Y-60077380D01*
X133387976Y-60029761D01*
X133340357Y-59934523D01*
X133340357Y-59553571D01*
X133387976Y-59458333D01*
X133483214Y-59410714D01*
X133673690Y-59410714D01*
X133768928Y-59458333D01*
X133816547Y-59553571D01*
X133816547Y-59648809D01*
X133340357Y-59744047D01*
X134245119Y-59410714D02*
X134245119Y-60077380D01*
X134245119Y-59505952D02*
X134292738Y-59458333D01*
X134387976Y-59410714D01*
X134530833Y-59410714D01*
X134626071Y-59458333D01*
X134673690Y-59553571D01*
X134673690Y-60077380D01*
X135102261Y-60029761D02*
X135197500Y-60077380D01*
X135387976Y-60077380D01*
X135483214Y-60029761D01*
X135530833Y-59934523D01*
X135530833Y-59886904D01*
X135483214Y-59791666D01*
X135387976Y-59744047D01*
X135245119Y-59744047D01*
X135149880Y-59696428D01*
X135102261Y-59601190D01*
X135102261Y-59553571D01*
X135149880Y-59458333D01*
X135245119Y-59410714D01*
X135387976Y-59410714D01*
X135483214Y-59458333D01*
X136102261Y-60077380D02*
X136007023Y-60029761D01*
X135959404Y-59982142D01*
X135911785Y-59886904D01*
X135911785Y-59601190D01*
X135959404Y-59505952D01*
X136007023Y-59458333D01*
X136102261Y-59410714D01*
X136245119Y-59410714D01*
X136340357Y-59458333D01*
X136387976Y-59505952D01*
X136435595Y-59601190D01*
X136435595Y-59886904D01*
X136387976Y-59982142D01*
X136340357Y-60029761D01*
X136245119Y-60077380D01*
X136102261Y-60077380D01*
X136864166Y-60077380D02*
X136864166Y-59410714D01*
X136864166Y-59601190D02*
X136911785Y-59505952D01*
X136959404Y-59458333D01*
X137054642Y-59410714D01*
X137149880Y-59410714D01*
X138768928Y-60077380D02*
X138197500Y-60077380D01*
X138483214Y-60077380D02*
X138483214Y-59077380D01*
X138387976Y-59220238D01*
X138292738Y-59315476D01*
X138197500Y-59363095D01*
X132719047Y-54128571D02*
X132861904Y-54176190D01*
X132909523Y-54223809D01*
X132957142Y-54319047D01*
X132957142Y-54461904D01*
X132909523Y-54557142D01*
X132861904Y-54604761D01*
X132766666Y-54652380D01*
X132385714Y-54652380D01*
X132385714Y-53652380D01*
X132719047Y-53652380D01*
X132814285Y-53700000D01*
X132861904Y-53747619D01*
X132909523Y-53842857D01*
X132909523Y-53938095D01*
X132861904Y-54033333D01*
X132814285Y-54080952D01*
X132719047Y-54128571D01*
X132385714Y-54128571D01*
X133385714Y-54652380D02*
X133385714Y-53652380D01*
X133719047Y-54366666D01*
X134052380Y-53652380D01*
X134052380Y-54652380D01*
X134528571Y-54128571D02*
X134861904Y-54128571D01*
X135004761Y-54652380D02*
X134528571Y-54652380D01*
X134528571Y-53652380D01*
X135004761Y-53652380D01*
X135385714Y-53747619D02*
X135433333Y-53700000D01*
X135528571Y-53652380D01*
X135766666Y-53652380D01*
X135861904Y-53700000D01*
X135909523Y-53747619D01*
X135957142Y-53842857D01*
X135957142Y-53938095D01*
X135909523Y-54080952D01*
X135338095Y-54652380D01*
X135957142Y-54652380D01*
X136528571Y-54080952D02*
X136433333Y-54033333D01*
X136385714Y-53985714D01*
X136338095Y-53890476D01*
X136338095Y-53842857D01*
X136385714Y-53747619D01*
X136433333Y-53700000D01*
X136528571Y-53652380D01*
X136719047Y-53652380D01*
X136814285Y-53700000D01*
X136861904Y-53747619D01*
X136909523Y-53842857D01*
X136909523Y-53890476D01*
X136861904Y-53985714D01*
X136814285Y-54033333D01*
X136719047Y-54080952D01*
X136528571Y-54080952D01*
X136433333Y-54128571D01*
X136385714Y-54176190D01*
X136338095Y-54271428D01*
X136338095Y-54461904D01*
X136385714Y-54557142D01*
X136433333Y-54604761D01*
X136528571Y-54652380D01*
X136719047Y-54652380D01*
X136814285Y-54604761D01*
X136861904Y-54557142D01*
X136909523Y-54461904D01*
X136909523Y-54271428D01*
X136861904Y-54176190D01*
X136814285Y-54128571D01*
X136719047Y-54080952D01*
X137528571Y-53652380D02*
X137623809Y-53652380D01*
X137719047Y-53700000D01*
X137766666Y-53747619D01*
X137814285Y-53842857D01*
X137861904Y-54033333D01*
X137861904Y-54271428D01*
X137814285Y-54461904D01*
X137766666Y-54557142D01*
X137719047Y-54604761D01*
X137623809Y-54652380D01*
X137528571Y-54652380D01*
X137433333Y-54604761D01*
X137385714Y-54557142D01*
X137338095Y-54461904D01*
X137290476Y-54271428D01*
X137290476Y-54033333D01*
X137338095Y-53842857D01*
X137385714Y-53747619D01*
X137433333Y-53700000D01*
X137528571Y-53652380D01*
X126529761Y-51962023D02*
X126577380Y-51819166D01*
X126577380Y-51581071D01*
X126529761Y-51485833D01*
X126482142Y-51438214D01*
X126386904Y-51390595D01*
X126291666Y-51390595D01*
X126196428Y-51438214D01*
X126148809Y-51485833D01*
X126101190Y-51581071D01*
X126053571Y-51771547D01*
X126005952Y-51866785D01*
X125958333Y-51914404D01*
X125863095Y-51962023D01*
X125767857Y-51962023D01*
X125672619Y-51914404D01*
X125625000Y-51866785D01*
X125577380Y-51771547D01*
X125577380Y-51533452D01*
X125625000Y-51390595D01*
X126577380Y-50962023D02*
X125577380Y-50962023D01*
X125577380Y-50723928D01*
X125625000Y-50581071D01*
X125720238Y-50485833D01*
X125815476Y-50438214D01*
X126005952Y-50390595D01*
X126148809Y-50390595D01*
X126339285Y-50438214D01*
X126434523Y-50485833D01*
X126529761Y-50581071D01*
X126577380Y-50723928D01*
X126577380Y-50962023D01*
X126291666Y-50009642D02*
X126291666Y-49533452D01*
X126577380Y-50104880D02*
X125577380Y-49771547D01*
X126577380Y-49438214D01*
X128179761Y-51962023D02*
X128227380Y-51819166D01*
X128227380Y-51581071D01*
X128179761Y-51485833D01*
X128132142Y-51438214D01*
X128036904Y-51390595D01*
X127941666Y-51390595D01*
X127846428Y-51438214D01*
X127798809Y-51485833D01*
X127751190Y-51581071D01*
X127703571Y-51771547D01*
X127655952Y-51866785D01*
X127608333Y-51914404D01*
X127513095Y-51962023D01*
X127417857Y-51962023D01*
X127322619Y-51914404D01*
X127275000Y-51866785D01*
X127227380Y-51771547D01*
X127227380Y-51533452D01*
X127275000Y-51390595D01*
X128132142Y-50390595D02*
X128179761Y-50438214D01*
X128227380Y-50581071D01*
X128227380Y-50676309D01*
X128179761Y-50819166D01*
X128084523Y-50914404D01*
X127989285Y-50962023D01*
X127798809Y-51009642D01*
X127655952Y-51009642D01*
X127465476Y-50962023D01*
X127370238Y-50914404D01*
X127275000Y-50819166D01*
X127227380Y-50676309D01*
X127227380Y-50581071D01*
X127275000Y-50438214D01*
X127322619Y-50390595D01*
X128227380Y-49485833D02*
X128227380Y-49962023D01*
X127227380Y-49962023D01*
X128925000Y-51390595D02*
X128877380Y-51485833D01*
X128877380Y-51628690D01*
X128925000Y-51771547D01*
X129020238Y-51866785D01*
X129115476Y-51914404D01*
X129305952Y-51962023D01*
X129448809Y-51962023D01*
X129639285Y-51914404D01*
X129734523Y-51866785D01*
X129829761Y-51771547D01*
X129877380Y-51628690D01*
X129877380Y-51533452D01*
X129829761Y-51390595D01*
X129782142Y-51342976D01*
X129448809Y-51342976D01*
X129448809Y-51533452D01*
X129877380Y-50914404D02*
X128877380Y-50914404D01*
X129877380Y-50342976D01*
X128877380Y-50342976D01*
X129877380Y-49866785D02*
X128877380Y-49866785D01*
X128877380Y-49628690D01*
X128925000Y-49485833D01*
X129020238Y-49390595D01*
X129115476Y-49342976D01*
X129305952Y-49295357D01*
X129448809Y-49295357D01*
X129639285Y-49342976D01*
X129734523Y-49390595D01*
X129829761Y-49485833D01*
X129877380Y-49628690D01*
X129877380Y-49866785D01*
X130527380Y-52009642D02*
X130527380Y-51390595D01*
X130908333Y-51723928D01*
X130908333Y-51581071D01*
X130955952Y-51485833D01*
X131003571Y-51438214D01*
X131098809Y-51390595D01*
X131336904Y-51390595D01*
X131432142Y-51438214D01*
X131479761Y-51485833D01*
X131527380Y-51581071D01*
X131527380Y-51866785D01*
X131479761Y-51962023D01*
X131432142Y-52009642D01*
X130527380Y-51104880D02*
X131527380Y-50771547D01*
X130527380Y-50438214D01*
X130527380Y-50200119D02*
X130527380Y-49581071D01*
X130908333Y-49914404D01*
X130908333Y-49771547D01*
X130955952Y-49676309D01*
X131003571Y-49628690D01*
X131098809Y-49581071D01*
X131336904Y-49581071D01*
X131432142Y-49628690D01*
X131479761Y-49676309D01*
X131527380Y-49771547D01*
X131527380Y-50057261D01*
X131479761Y-50152500D01*
X131432142Y-50200119D01*
X124016666Y-55452380D02*
X123826190Y-55452380D01*
X123730952Y-55500000D01*
X123683333Y-55547619D01*
X123588095Y-55690476D01*
X123540476Y-55880952D01*
X123540476Y-56261904D01*
X123588095Y-56357142D01*
X123635714Y-56404761D01*
X123730952Y-56452380D01*
X123921428Y-56452380D01*
X124016666Y-56404761D01*
X124064285Y-56357142D01*
X124111904Y-56261904D01*
X124111904Y-56023809D01*
X124064285Y-55928571D01*
X124016666Y-55880952D01*
X123921428Y-55833333D01*
X123730952Y-55833333D01*
X123635714Y-55880952D01*
X123588095Y-55928571D01*
X123540476Y-56023809D01*
X124397619Y-55452380D02*
X124730952Y-56452380D01*
X125064285Y-55452380D01*
X126016666Y-55452380D02*
X126350000Y-56452380D01*
X126683333Y-55452380D01*
X127588095Y-56357142D02*
X127540476Y-56404761D01*
X127397619Y-56452380D01*
X127302380Y-56452380D01*
X127159523Y-56404761D01*
X127064285Y-56309523D01*
X127016666Y-56214285D01*
X126969047Y-56023809D01*
X126969047Y-55880952D01*
X127016666Y-55690476D01*
X127064285Y-55595238D01*
X127159523Y-55500000D01*
X127302380Y-55452380D01*
X127397619Y-55452380D01*
X127540476Y-55500000D01*
X127588095Y-55547619D01*
X128588095Y-56357142D02*
X128540476Y-56404761D01*
X128397619Y-56452380D01*
X128302380Y-56452380D01*
X128159523Y-56404761D01*
X128064285Y-56309523D01*
X128016666Y-56214285D01*
X127969047Y-56023809D01*
X127969047Y-55880952D01*
X128016666Y-55690476D01*
X128064285Y-55595238D01*
X128159523Y-55500000D01*
X128302380Y-55452380D01*
X128397619Y-55452380D01*
X128540476Y-55500000D01*
X128588095Y-55547619D01*
X129683333Y-55452380D02*
X130302380Y-55452380D01*
X129969047Y-55833333D01*
X130111904Y-55833333D01*
X130207142Y-55880952D01*
X130254761Y-55928571D01*
X130302380Y-56023809D01*
X130302380Y-56261904D01*
X130254761Y-56357142D01*
X130207142Y-56404761D01*
X130111904Y-56452380D01*
X129826190Y-56452380D01*
X129730952Y-56404761D01*
X129683333Y-56357142D01*
X130588095Y-55452380D02*
X130921428Y-56452380D01*
X131254761Y-55452380D01*
X124016666Y-80202380D02*
X123826190Y-80202380D01*
X123730952Y-80250000D01*
X123683333Y-80297619D01*
X123588095Y-80440476D01*
X123540476Y-80630952D01*
X123540476Y-81011904D01*
X123588095Y-81107142D01*
X123635714Y-81154761D01*
X123730952Y-81202380D01*
X123921428Y-81202380D01*
X124016666Y-81154761D01*
X124064285Y-81107142D01*
X124111904Y-81011904D01*
X124111904Y-80773809D01*
X124064285Y-80678571D01*
X124016666Y-80630952D01*
X123921428Y-80583333D01*
X123730952Y-80583333D01*
X123635714Y-80630952D01*
X123588095Y-80678571D01*
X123540476Y-80773809D01*
X124397619Y-80202380D02*
X124730952Y-81202380D01*
X125064285Y-80202380D01*
X126016666Y-80202380D02*
X126350000Y-81202380D01*
X126683333Y-80202380D01*
X127588095Y-81107142D02*
X127540476Y-81154761D01*
X127397619Y-81202380D01*
X127302380Y-81202380D01*
X127159523Y-81154761D01*
X127064285Y-81059523D01*
X127016666Y-80964285D01*
X126969047Y-80773809D01*
X126969047Y-80630952D01*
X127016666Y-80440476D01*
X127064285Y-80345238D01*
X127159523Y-80250000D01*
X127302380Y-80202380D01*
X127397619Y-80202380D01*
X127540476Y-80250000D01*
X127588095Y-80297619D01*
X128588095Y-81107142D02*
X128540476Y-81154761D01*
X128397619Y-81202380D01*
X128302380Y-81202380D01*
X128159523Y-81154761D01*
X128064285Y-81059523D01*
X128016666Y-80964285D01*
X127969047Y-80773809D01*
X127969047Y-80630952D01*
X128016666Y-80440476D01*
X128064285Y-80345238D01*
X128159523Y-80250000D01*
X128302380Y-80202380D01*
X128397619Y-80202380D01*
X128540476Y-80250000D01*
X128588095Y-80297619D01*
X129683333Y-80202380D02*
X130302380Y-80202380D01*
X129969047Y-80583333D01*
X130111904Y-80583333D01*
X130207142Y-80630952D01*
X130254761Y-80678571D01*
X130302380Y-80773809D01*
X130302380Y-81011904D01*
X130254761Y-81107142D01*
X130207142Y-81154761D01*
X130111904Y-81202380D01*
X129826190Y-81202380D01*
X129730952Y-81154761D01*
X129683333Y-81107142D01*
X130588095Y-80202380D02*
X130921428Y-81202380D01*
X131254761Y-80202380D01*
X135046428Y-93359404D02*
X135046428Y-92597500D01*
X135427380Y-92978452D02*
X134665476Y-92978452D01*
X134427380Y-92216547D02*
X134427380Y-91597500D01*
X134808333Y-91930833D01*
X134808333Y-91787976D01*
X134855952Y-91692738D01*
X134903571Y-91645119D01*
X134998809Y-91597500D01*
X135236904Y-91597500D01*
X135332142Y-91645119D01*
X135379761Y-91692738D01*
X135427380Y-91787976D01*
X135427380Y-92073690D01*
X135379761Y-92168928D01*
X135332142Y-92216547D01*
X134427380Y-91311785D02*
X135427380Y-90978452D01*
X134427380Y-90645119D01*
X134427380Y-90407023D02*
X134427380Y-89787976D01*
X134808333Y-90121309D01*
X134808333Y-89978452D01*
X134855952Y-89883214D01*
X134903571Y-89835595D01*
X134998809Y-89787976D01*
X135236904Y-89787976D01*
X135332142Y-89835595D01*
X135379761Y-89883214D01*
X135427380Y-89978452D01*
X135427380Y-90264166D01*
X135379761Y-90359404D01*
X135332142Y-90407023D01*
X136125000Y-91883214D02*
X136077380Y-91978452D01*
X136077380Y-92121309D01*
X136125000Y-92264166D01*
X136220238Y-92359404D01*
X136315476Y-92407023D01*
X136505952Y-92454642D01*
X136648809Y-92454642D01*
X136839285Y-92407023D01*
X136934523Y-92359404D01*
X137029761Y-92264166D01*
X137077380Y-92121309D01*
X137077380Y-92026071D01*
X137029761Y-91883214D01*
X136982142Y-91835595D01*
X136648809Y-91835595D01*
X136648809Y-92026071D01*
X137077380Y-91407023D02*
X136077380Y-91407023D01*
X137077380Y-90835595D01*
X136077380Y-90835595D01*
X137077380Y-90359404D02*
X136077380Y-90359404D01*
X136077380Y-90121309D01*
X136125000Y-89978452D01*
X136220238Y-89883214D01*
X136315476Y-89835595D01*
X136505952Y-89787976D01*
X136648809Y-89787976D01*
X136839285Y-89835595D01*
X136934523Y-89883214D01*
X137029761Y-89978452D01*
X137077380Y-90121309D01*
X137077380Y-90359404D01*
X138727380Y-92692738D02*
X138251190Y-93026071D01*
X138727380Y-93264166D02*
X137727380Y-93264166D01*
X137727380Y-92883214D01*
X137775000Y-92787976D01*
X137822619Y-92740357D01*
X137917857Y-92692738D01*
X138060714Y-92692738D01*
X138155952Y-92740357D01*
X138203571Y-92787976D01*
X138251190Y-92883214D01*
X138251190Y-93264166D01*
X137727380Y-92359404D02*
X138727380Y-91692738D01*
X137727380Y-91692738D02*
X138727380Y-92359404D01*
X138727380Y-91311785D02*
X137727380Y-91311785D01*
X137727380Y-91073690D01*
X137775000Y-90930833D01*
X137870238Y-90835595D01*
X137965476Y-90787976D01*
X138155952Y-90740357D01*
X138298809Y-90740357D01*
X138489285Y-90787976D01*
X138584523Y-90835595D01*
X138679761Y-90930833D01*
X138727380Y-91073690D01*
X138727380Y-91311785D01*
X137727380Y-90121309D02*
X137727380Y-90026071D01*
X137775000Y-89930833D01*
X137822619Y-89883214D01*
X137917857Y-89835595D01*
X138108333Y-89787976D01*
X138346428Y-89787976D01*
X138536904Y-89835595D01*
X138632142Y-89883214D01*
X138679761Y-89930833D01*
X138727380Y-90026071D01*
X138727380Y-90121309D01*
X138679761Y-90216547D01*
X138632142Y-90264166D01*
X138536904Y-90311785D01*
X138346428Y-90359404D01*
X138108333Y-90359404D01*
X137917857Y-90311785D01*
X137822619Y-90264166D01*
X137775000Y-90216547D01*
X137727380Y-90121309D01*
X139377380Y-93168928D02*
X139377380Y-92597500D01*
X140377380Y-92883214D02*
X139377380Y-92883214D01*
X139377380Y-92359404D02*
X140377380Y-91692738D01*
X139377380Y-91692738D02*
X140377380Y-92359404D01*
X140377380Y-91311785D02*
X139377380Y-91311785D01*
X139377380Y-91073690D01*
X139425000Y-90930833D01*
X139520238Y-90835595D01*
X139615476Y-90787976D01*
X139805952Y-90740357D01*
X139948809Y-90740357D01*
X140139285Y-90787976D01*
X140234523Y-90835595D01*
X140329761Y-90930833D01*
X140377380Y-91073690D01*
X140377380Y-91311785D01*
X139377380Y-90121309D02*
X139377380Y-90026071D01*
X139425000Y-89930833D01*
X139472619Y-89883214D01*
X139567857Y-89835595D01*
X139758333Y-89787976D01*
X139996428Y-89787976D01*
X140186904Y-89835595D01*
X140282142Y-89883214D01*
X140329761Y-89930833D01*
X140377380Y-90026071D01*
X140377380Y-90121309D01*
X140329761Y-90216547D01*
X140282142Y-90264166D01*
X140186904Y-90311785D01*
X139996428Y-90359404D01*
X139758333Y-90359404D01*
X139567857Y-90311785D01*
X139472619Y-90264166D01*
X139425000Y-90216547D01*
X139377380Y-90121309D01*
X141503571Y-91311785D02*
X141503571Y-90978452D01*
X142027380Y-90835595D02*
X142027380Y-91311785D01*
X141027380Y-91311785D01*
X141027380Y-90835595D01*
X142027380Y-90407023D02*
X141027380Y-90407023D01*
X142027380Y-89835595D01*
X141027380Y-89835595D01*
X143153571Y-92883214D02*
X143201190Y-92740357D01*
X143248809Y-92692738D01*
X143344047Y-92645119D01*
X143486904Y-92645119D01*
X143582142Y-92692738D01*
X143629761Y-92740357D01*
X143677380Y-92835595D01*
X143677380Y-93216547D01*
X142677380Y-93216547D01*
X142677380Y-92883214D01*
X142725000Y-92787976D01*
X142772619Y-92740357D01*
X142867857Y-92692738D01*
X142963095Y-92692738D01*
X143058333Y-92740357D01*
X143105952Y-92787976D01*
X143153571Y-92883214D01*
X143153571Y-93216547D01*
X142677380Y-92026071D02*
X142677380Y-91835595D01*
X142725000Y-91740357D01*
X142820238Y-91645119D01*
X143010714Y-91597500D01*
X143344047Y-91597500D01*
X143534523Y-91645119D01*
X143629761Y-91740357D01*
X143677380Y-91835595D01*
X143677380Y-92026071D01*
X143629761Y-92121309D01*
X143534523Y-92216547D01*
X143344047Y-92264166D01*
X143010714Y-92264166D01*
X142820238Y-92216547D01*
X142725000Y-92121309D01*
X142677380Y-92026071D01*
X142677380Y-90978452D02*
X142677380Y-90787976D01*
X142725000Y-90692738D01*
X142820238Y-90597500D01*
X143010714Y-90549880D01*
X143344047Y-90549880D01*
X143534523Y-90597500D01*
X143629761Y-90692738D01*
X143677380Y-90787976D01*
X143677380Y-90978452D01*
X143629761Y-91073690D01*
X143534523Y-91168928D01*
X143344047Y-91216547D01*
X143010714Y-91216547D01*
X142820238Y-91168928D01*
X142725000Y-91073690D01*
X142677380Y-90978452D01*
X142677380Y-90264166D02*
X142677380Y-89692738D01*
X143677380Y-89978452D02*
X142677380Y-89978452D01*
D12*
%TO.C,REF\u002A\u002A*%
G36*
X165720878Y-72076166D02*
G01*
X165751876Y-72126538D01*
X165799634Y-72206341D01*
X165862194Y-72312180D01*
X165937597Y-72440659D01*
X166023885Y-72588384D01*
X166119101Y-72751958D01*
X166221285Y-72927987D01*
X166328481Y-73113075D01*
X166438729Y-73303827D01*
X166550071Y-73496847D01*
X166660550Y-73688741D01*
X166768207Y-73876111D01*
X166871084Y-74055565D01*
X166967223Y-74223705D01*
X167054665Y-74377137D01*
X167131453Y-74512465D01*
X167195628Y-74626294D01*
X167245233Y-74715229D01*
X167278309Y-74775874D01*
X167292897Y-74804833D01*
X167293431Y-74806644D01*
X167275321Y-74831217D01*
X167224980Y-74868807D01*
X167148395Y-74915722D01*
X167051552Y-74968274D01*
X166950167Y-75018213D01*
X166812215Y-75078769D01*
X166667142Y-75133179D01*
X166509950Y-75182651D01*
X166335643Y-75228395D01*
X166139222Y-75271620D01*
X165915689Y-75313534D01*
X165660048Y-75355347D01*
X165395606Y-75394284D01*
X165165852Y-75428828D01*
X164972917Y-75463026D01*
X164811964Y-75498577D01*
X164678155Y-75537182D01*
X164566650Y-75580539D01*
X164472614Y-75630348D01*
X164391206Y-75688309D01*
X164317590Y-75756120D01*
X164293851Y-75781312D01*
X164242397Y-75839958D01*
X164204334Y-75887815D01*
X164186677Y-75915958D01*
X164186206Y-75918265D01*
X164180028Y-75932416D01*
X164158590Y-75932575D01*
X164117533Y-75916861D01*
X164052501Y-75883391D01*
X163959137Y-75830281D01*
X163894252Y-75792088D01*
X163797501Y-75732385D01*
X163722312Y-75681263D01*
X163673739Y-75642399D01*
X163656835Y-75619472D01*
X163656845Y-75619305D01*
X163667328Y-75597456D01*
X163696931Y-75542739D01*
X163743938Y-75458136D01*
X163806629Y-75346629D01*
X163883286Y-75211201D01*
X163972191Y-75054833D01*
X164071626Y-74880507D01*
X164179872Y-74691206D01*
X164295211Y-74489911D01*
X164415924Y-74279605D01*
X164540294Y-74063271D01*
X164666601Y-73843889D01*
X164793127Y-73624442D01*
X164918155Y-73407912D01*
X165039965Y-73197281D01*
X165156839Y-72995532D01*
X165267060Y-72805647D01*
X165368908Y-72630606D01*
X165460665Y-72473394D01*
X165540613Y-72336991D01*
X165607034Y-72224380D01*
X165658209Y-72138543D01*
X165692420Y-72082462D01*
X165707948Y-72059119D01*
X165708598Y-72058621D01*
X165720878Y-72076166D01*
G37*
X165720878Y-72076166D02*
X165751876Y-72126538D01*
X165799634Y-72206341D01*
X165862194Y-72312180D01*
X165937597Y-72440659D01*
X166023885Y-72588384D01*
X166119101Y-72751958D01*
X166221285Y-72927987D01*
X166328481Y-73113075D01*
X166438729Y-73303827D01*
X166550071Y-73496847D01*
X166660550Y-73688741D01*
X166768207Y-73876111D01*
X166871084Y-74055565D01*
X166967223Y-74223705D01*
X167054665Y-74377137D01*
X167131453Y-74512465D01*
X167195628Y-74626294D01*
X167245233Y-74715229D01*
X167278309Y-74775874D01*
X167292897Y-74804833D01*
X167293431Y-74806644D01*
X167275321Y-74831217D01*
X167224980Y-74868807D01*
X167148395Y-74915722D01*
X167051552Y-74968274D01*
X166950167Y-75018213D01*
X166812215Y-75078769D01*
X166667142Y-75133179D01*
X166509950Y-75182651D01*
X166335643Y-75228395D01*
X166139222Y-75271620D01*
X165915689Y-75313534D01*
X165660048Y-75355347D01*
X165395606Y-75394284D01*
X165165852Y-75428828D01*
X164972917Y-75463026D01*
X164811964Y-75498577D01*
X164678155Y-75537182D01*
X164566650Y-75580539D01*
X164472614Y-75630348D01*
X164391206Y-75688309D01*
X164317590Y-75756120D01*
X164293851Y-75781312D01*
X164242397Y-75839958D01*
X164204334Y-75887815D01*
X164186677Y-75915958D01*
X164186206Y-75918265D01*
X164180028Y-75932416D01*
X164158590Y-75932575D01*
X164117533Y-75916861D01*
X164052501Y-75883391D01*
X163959137Y-75830281D01*
X163894252Y-75792088D01*
X163797501Y-75732385D01*
X163722312Y-75681263D01*
X163673739Y-75642399D01*
X163656835Y-75619472D01*
X163656845Y-75619305D01*
X163667328Y-75597456D01*
X163696931Y-75542739D01*
X163743938Y-75458136D01*
X163806629Y-75346629D01*
X163883286Y-75211201D01*
X163972191Y-75054833D01*
X164071626Y-74880507D01*
X164179872Y-74691206D01*
X164295211Y-74489911D01*
X164415924Y-74279605D01*
X164540294Y-74063271D01*
X164666601Y-73843889D01*
X164793127Y-73624442D01*
X164918155Y-73407912D01*
X165039965Y-73197281D01*
X165156839Y-72995532D01*
X165267060Y-72805647D01*
X165368908Y-72630606D01*
X165460665Y-72473394D01*
X165540613Y-72336991D01*
X165607034Y-72224380D01*
X165658209Y-72138543D01*
X165692420Y-72082462D01*
X165707948Y-72059119D01*
X165708598Y-72058621D01*
X165720878Y-72076166D01*
G36*
X168176146Y-76315908D02*
G01*
X168191469Y-76341590D01*
X168225911Y-76400469D01*
X168277769Y-76489602D01*
X168345340Y-76606049D01*
X168426921Y-76746867D01*
X168520809Y-76909114D01*
X168625299Y-77089849D01*
X168738690Y-77286130D01*
X168859278Y-77495016D01*
X168983313Y-77710017D01*
X169109987Y-77929649D01*
X169231608Y-78140495D01*
X169346412Y-78339499D01*
X169452638Y-78523607D01*
X169548523Y-78689765D01*
X169632302Y-78834917D01*
X169702214Y-78956009D01*
X169756496Y-79049988D01*
X169793385Y-79113797D01*
X169810731Y-79143719D01*
X169839007Y-79194271D01*
X169854382Y-79225914D01*
X169855224Y-79231420D01*
X169836488Y-79221082D01*
X169784386Y-79191407D01*
X169701640Y-79143968D01*
X169590975Y-79080333D01*
X169455114Y-79002074D01*
X169296781Y-78910759D01*
X169118698Y-78807960D01*
X168923590Y-78695247D01*
X168714180Y-78574189D01*
X168493191Y-78446357D01*
X168409113Y-78397702D01*
X168184170Y-78267567D01*
X167969524Y-78143497D01*
X167767932Y-78027077D01*
X167582148Y-77919893D01*
X167414928Y-77823531D01*
X167269027Y-77739578D01*
X167147201Y-77669620D01*
X167052204Y-77615243D01*
X166986792Y-77578034D01*
X166953720Y-77559578D01*
X166950262Y-77557830D01*
X166960339Y-77542005D01*
X166995407Y-77499692D01*
X167051885Y-77434790D01*
X167126193Y-77351196D01*
X167214752Y-77252809D01*
X167313980Y-77143525D01*
X167420298Y-77027244D01*
X167530125Y-76907862D01*
X167639882Y-76789277D01*
X167745988Y-76675388D01*
X167844862Y-76570092D01*
X167932926Y-76477287D01*
X168006599Y-76400870D01*
X168062300Y-76344740D01*
X168081403Y-76326335D01*
X168144708Y-76266872D01*
X168176146Y-76315908D01*
G37*
X168176146Y-76315908D02*
X168191469Y-76341590D01*
X168225911Y-76400469D01*
X168277769Y-76489602D01*
X168345340Y-76606049D01*
X168426921Y-76746867D01*
X168520809Y-76909114D01*
X168625299Y-77089849D01*
X168738690Y-77286130D01*
X168859278Y-77495016D01*
X168983313Y-77710017D01*
X169109987Y-77929649D01*
X169231608Y-78140495D01*
X169346412Y-78339499D01*
X169452638Y-78523607D01*
X169548523Y-78689765D01*
X169632302Y-78834917D01*
X169702214Y-78956009D01*
X169756496Y-79049988D01*
X169793385Y-79113797D01*
X169810731Y-79143719D01*
X169839007Y-79194271D01*
X169854382Y-79225914D01*
X169855224Y-79231420D01*
X169836488Y-79221082D01*
X169784386Y-79191407D01*
X169701640Y-79143968D01*
X169590975Y-79080333D01*
X169455114Y-79002074D01*
X169296781Y-78910759D01*
X169118698Y-78807960D01*
X168923590Y-78695247D01*
X168714180Y-78574189D01*
X168493191Y-78446357D01*
X168409113Y-78397702D01*
X168184170Y-78267567D01*
X167969524Y-78143497D01*
X167767932Y-78027077D01*
X167582148Y-77919893D01*
X167414928Y-77823531D01*
X167269027Y-77739578D01*
X167147201Y-77669620D01*
X167052204Y-77615243D01*
X166986792Y-77578034D01*
X166953720Y-77559578D01*
X166950262Y-77557830D01*
X166960339Y-77542005D01*
X166995407Y-77499692D01*
X167051885Y-77434790D01*
X167126193Y-77351196D01*
X167214752Y-77252809D01*
X167313980Y-77143525D01*
X167420298Y-77027244D01*
X167530125Y-76907862D01*
X167639882Y-76789277D01*
X167745988Y-76675388D01*
X167844862Y-76570092D01*
X167932926Y-76477287D01*
X168006599Y-76400870D01*
X168062300Y-76344740D01*
X168081403Y-76326335D01*
X168144708Y-76266872D01*
X168176146Y-76315908D01*
G36*
X163240749Y-76392036D02*
G01*
X163284544Y-76408972D01*
X163351293Y-76442601D01*
X163447137Y-76495334D01*
X163454599Y-76499525D01*
X163542871Y-76550001D01*
X163617363Y-76594223D01*
X163670760Y-76627731D01*
X163695746Y-76646064D01*
X163696445Y-76646962D01*
X163690409Y-76672414D01*
X163662723Y-76729255D01*
X163615188Y-76814389D01*
X163549611Y-76924717D01*
X163467797Y-77057144D01*
X163371548Y-77208571D01*
X163347594Y-77245707D01*
X163285183Y-77348757D01*
X163239737Y-77437432D01*
X163215246Y-77503714D01*
X163212733Y-77516807D01*
X163213848Y-77574443D01*
X163226343Y-77665865D01*
X163248660Y-77785208D01*
X163279240Y-77926609D01*
X163316528Y-78084203D01*
X163358965Y-78252126D01*
X163404994Y-78424514D01*
X163453057Y-78595501D01*
X163501597Y-78759224D01*
X163549057Y-78909818D01*
X163593878Y-79041420D01*
X163634503Y-79148163D01*
X163662823Y-79211494D01*
X163696183Y-79278957D01*
X163727682Y-79343511D01*
X163729387Y-79347045D01*
X163781498Y-79412250D01*
X163857554Y-79456156D01*
X163946092Y-79477197D01*
X164035648Y-79473807D01*
X164114758Y-79444423D01*
X164159264Y-79405736D01*
X164223356Y-79299636D01*
X164270322Y-79167405D01*
X164296090Y-79022527D01*
X164299741Y-78940394D01*
X164285039Y-78787105D01*
X164241890Y-78660166D01*
X164167972Y-78553418D01*
X164144921Y-78529657D01*
X164076325Y-78463009D01*
X164071614Y-77991916D01*
X164066903Y-77520822D01*
X164186946Y-77339106D01*
X164243277Y-77256856D01*
X164297528Y-77182865D01*
X164341959Y-77127448D01*
X164361056Y-77107056D01*
X164415124Y-77056723D01*
X164488350Y-77096158D01*
X164534633Y-77124415D01*
X164559957Y-77146354D01*
X164561576Y-77150299D01*
X164578884Y-77167023D01*
X164608497Y-77179476D01*
X164637114Y-77190700D01*
X164680934Y-77212024D01*
X164743718Y-77245529D01*
X164829228Y-77293296D01*
X164941226Y-77357407D01*
X165083473Y-77439944D01*
X165160773Y-77485065D01*
X165251702Y-77539111D01*
X165311339Y-77577604D01*
X165344961Y-77605044D01*
X165357844Y-77625934D01*
X165355265Y-77644775D01*
X165353115Y-77649152D01*
X165332197Y-77676714D01*
X165287440Y-77728416D01*
X165224057Y-77798475D01*
X165147262Y-77881107D01*
X165080844Y-77951156D01*
X164927790Y-78117414D01*
X164808056Y-78261519D01*
X164720573Y-78384921D01*
X164664274Y-78489068D01*
X164645284Y-78541954D01*
X164637440Y-78588250D01*
X164629338Y-78667221D01*
X164621691Y-78769846D01*
X164615212Y-78887103D01*
X164612163Y-78961248D01*
X164607908Y-79089427D01*
X164606036Y-79183138D01*
X164607099Y-79249583D01*
X164611646Y-79295961D01*
X164620227Y-79329474D01*
X164633394Y-79357321D01*
X164643735Y-79374324D01*
X164703456Y-79439862D01*
X164780411Y-79485532D01*
X164861380Y-79505450D01*
X164922058Y-79498244D01*
X164976999Y-79467066D01*
X165045867Y-79411230D01*
X165119005Y-79340474D01*
X165186752Y-79264537D01*
X165239450Y-79193159D01*
X165258853Y-79158668D01*
X165287919Y-79111441D01*
X165340783Y-79039506D01*
X165412616Y-78948485D01*
X165498588Y-78844000D01*
X165593868Y-78731675D01*
X165693627Y-78617130D01*
X165793034Y-78505990D01*
X165887259Y-78403875D01*
X165971473Y-78316408D01*
X166037591Y-78252198D01*
X166110999Y-78188057D01*
X166172753Y-78140763D01*
X166216066Y-78115235D01*
X166230445Y-78112429D01*
X166252479Y-78123752D01*
X166307438Y-78154144D01*
X166392152Y-78201780D01*
X166503448Y-78264835D01*
X166638156Y-78341485D01*
X166793103Y-78429905D01*
X166965119Y-78528270D01*
X167151032Y-78634756D01*
X167347670Y-78747537D01*
X167551863Y-78864789D01*
X167760439Y-78984687D01*
X167970225Y-79105407D01*
X168178052Y-79225123D01*
X168380747Y-79342011D01*
X168575140Y-79454246D01*
X168758058Y-79560004D01*
X168926330Y-79657460D01*
X169076785Y-79744788D01*
X169206251Y-79820165D01*
X169311557Y-79881765D01*
X169389532Y-79927764D01*
X169437004Y-79956337D01*
X169450763Y-79965304D01*
X169432231Y-79967076D01*
X169373933Y-79968799D01*
X169277809Y-79970464D01*
X169145799Y-79972063D01*
X168979846Y-79973587D01*
X168781889Y-79975029D01*
X168553870Y-79976380D01*
X168297729Y-79977632D01*
X168015408Y-79978776D01*
X167708847Y-79979804D01*
X167379987Y-79980708D01*
X167030769Y-79981479D01*
X166663135Y-79982109D01*
X166279024Y-79982590D01*
X165880377Y-79982914D01*
X165469137Y-79983072D01*
X165296580Y-79983087D01*
X161122586Y-79983087D01*
X161420268Y-79466954D01*
X161483286Y-79357665D01*
X161564406Y-79216940D01*
X161660916Y-79049486D01*
X161770103Y-78860012D01*
X161889255Y-78653223D01*
X162015660Y-78433828D01*
X162146605Y-78206533D01*
X162279379Y-77976046D01*
X162411269Y-77747073D01*
X162444624Y-77689163D01*
X162566247Y-77478232D01*
X162682228Y-77277535D01*
X162790825Y-77090059D01*
X162890294Y-76918792D01*
X162978892Y-76766723D01*
X163054878Y-76636838D01*
X163116507Y-76532125D01*
X163162037Y-76455573D01*
X163189725Y-76410169D01*
X163197472Y-76398609D01*
X163213772Y-76389385D01*
X163240749Y-76392036D01*
G37*
X163240749Y-76392036D02*
X163284544Y-76408972D01*
X163351293Y-76442601D01*
X163447137Y-76495334D01*
X163454599Y-76499525D01*
X163542871Y-76550001D01*
X163617363Y-76594223D01*
X163670760Y-76627731D01*
X163695746Y-76646064D01*
X163696445Y-76646962D01*
X163690409Y-76672414D01*
X163662723Y-76729255D01*
X163615188Y-76814389D01*
X163549611Y-76924717D01*
X163467797Y-77057144D01*
X163371548Y-77208571D01*
X163347594Y-77245707D01*
X163285183Y-77348757D01*
X163239737Y-77437432D01*
X163215246Y-77503714D01*
X163212733Y-77516807D01*
X163213848Y-77574443D01*
X163226343Y-77665865D01*
X163248660Y-77785208D01*
X163279240Y-77926609D01*
X163316528Y-78084203D01*
X163358965Y-78252126D01*
X163404994Y-78424514D01*
X163453057Y-78595501D01*
X163501597Y-78759224D01*
X163549057Y-78909818D01*
X163593878Y-79041420D01*
X163634503Y-79148163D01*
X163662823Y-79211494D01*
X163696183Y-79278957D01*
X163727682Y-79343511D01*
X163729387Y-79347045D01*
X163781498Y-79412250D01*
X163857554Y-79456156D01*
X163946092Y-79477197D01*
X164035648Y-79473807D01*
X164114758Y-79444423D01*
X164159264Y-79405736D01*
X164223356Y-79299636D01*
X164270322Y-79167405D01*
X164296090Y-79022527D01*
X164299741Y-78940394D01*
X164285039Y-78787105D01*
X164241890Y-78660166D01*
X164167972Y-78553418D01*
X164144921Y-78529657D01*
X164076325Y-78463009D01*
X164071614Y-77991916D01*
X164066903Y-77520822D01*
X164186946Y-77339106D01*
X164243277Y-77256856D01*
X164297528Y-77182865D01*
X164341959Y-77127448D01*
X164361056Y-77107056D01*
X164415124Y-77056723D01*
X164488350Y-77096158D01*
X164534633Y-77124415D01*
X164559957Y-77146354D01*
X164561576Y-77150299D01*
X164578884Y-77167023D01*
X164608497Y-77179476D01*
X164637114Y-77190700D01*
X164680934Y-77212024D01*
X164743718Y-77245529D01*
X164829228Y-77293296D01*
X164941226Y-77357407D01*
X165083473Y-77439944D01*
X165160773Y-77485065D01*
X165251702Y-77539111D01*
X165311339Y-77577604D01*
X165344961Y-77605044D01*
X165357844Y-77625934D01*
X165355265Y-77644775D01*
X165353115Y-77649152D01*
X165332197Y-77676714D01*
X165287440Y-77728416D01*
X165224057Y-77798475D01*
X165147262Y-77881107D01*
X165080844Y-77951156D01*
X164927790Y-78117414D01*
X164808056Y-78261519D01*
X164720573Y-78384921D01*
X164664274Y-78489068D01*
X164645284Y-78541954D01*
X164637440Y-78588250D01*
X164629338Y-78667221D01*
X164621691Y-78769846D01*
X164615212Y-78887103D01*
X164612163Y-78961248D01*
X164607908Y-79089427D01*
X164606036Y-79183138D01*
X164607099Y-79249583D01*
X164611646Y-79295961D01*
X164620227Y-79329474D01*
X164633394Y-79357321D01*
X164643735Y-79374324D01*
X164703456Y-79439862D01*
X164780411Y-79485532D01*
X164861380Y-79505450D01*
X164922058Y-79498244D01*
X164976999Y-79467066D01*
X165045867Y-79411230D01*
X165119005Y-79340474D01*
X165186752Y-79264537D01*
X165239450Y-79193159D01*
X165258853Y-79158668D01*
X165287919Y-79111441D01*
X165340783Y-79039506D01*
X165412616Y-78948485D01*
X165498588Y-78844000D01*
X165593868Y-78731675D01*
X165693627Y-78617130D01*
X165793034Y-78505990D01*
X165887259Y-78403875D01*
X165971473Y-78316408D01*
X166037591Y-78252198D01*
X166110999Y-78188057D01*
X166172753Y-78140763D01*
X166216066Y-78115235D01*
X166230445Y-78112429D01*
X166252479Y-78123752D01*
X166307438Y-78154144D01*
X166392152Y-78201780D01*
X166503448Y-78264835D01*
X166638156Y-78341485D01*
X166793103Y-78429905D01*
X166965119Y-78528270D01*
X167151032Y-78634756D01*
X167347670Y-78747537D01*
X167551863Y-78864789D01*
X167760439Y-78984687D01*
X167970225Y-79105407D01*
X168178052Y-79225123D01*
X168380747Y-79342011D01*
X168575140Y-79454246D01*
X168758058Y-79560004D01*
X168926330Y-79657460D01*
X169076785Y-79744788D01*
X169206251Y-79820165D01*
X169311557Y-79881765D01*
X169389532Y-79927764D01*
X169437004Y-79956337D01*
X169450763Y-79965304D01*
X169432231Y-79967076D01*
X169373933Y-79968799D01*
X169277809Y-79970464D01*
X169145799Y-79972063D01*
X168979846Y-79973587D01*
X168781889Y-79975029D01*
X168553870Y-79976380D01*
X168297729Y-79977632D01*
X168015408Y-79978776D01*
X167708847Y-79979804D01*
X167379987Y-79980708D01*
X167030769Y-79981479D01*
X166663135Y-79982109D01*
X166279024Y-79982590D01*
X165880377Y-79982914D01*
X165469137Y-79983072D01*
X165296580Y-79983087D01*
X161122586Y-79983087D01*
X161420268Y-79466954D01*
X161483286Y-79357665D01*
X161564406Y-79216940D01*
X161660916Y-79049486D01*
X161770103Y-78860012D01*
X161889255Y-78653223D01*
X162015660Y-78433828D01*
X162146605Y-78206533D01*
X162279379Y-77976046D01*
X162411269Y-77747073D01*
X162444624Y-77689163D01*
X162566247Y-77478232D01*
X162682228Y-77277535D01*
X162790825Y-77090059D01*
X162890294Y-76918792D01*
X162978892Y-76766723D01*
X163054878Y-76636838D01*
X163116507Y-76532125D01*
X163162037Y-76455573D01*
X163189725Y-76410169D01*
X163197472Y-76398609D01*
X163213772Y-76389385D01*
X163240749Y-76392036D01*
D10*
%TO.C,J15*%
X148830000Y-88930000D02*
X148830000Y-86270000D01*
X136070000Y-88930000D02*
X148830000Y-88930000D01*
X136070000Y-86270000D02*
X148830000Y-86270000D01*
X136070000Y-88930000D02*
X136070000Y-86270000D01*
X134800000Y-88930000D02*
X133470000Y-88930000D01*
X133470000Y-88930000D02*
X133470000Y-87600000D01*
%TO.C,SW1*%
X152050000Y-82360000D02*
X158050000Y-82360000D01*
X158050000Y-82360000D02*
X158050000Y-88360000D01*
X158050000Y-88360000D02*
X152050000Y-88360000D01*
X152050000Y-88360000D02*
X152050000Y-82360000D01*
X153000000Y-83100000D02*
X157000000Y-83100000D01*
X157000000Y-87600000D02*
X153000000Y-87600000D01*
X155000000Y-87600000D02*
X155000000Y-86600000D01*
X155000000Y-84100000D02*
X155000000Y-83100000D01*
X154750000Y-85350000D02*
X154000000Y-85350000D01*
X154000000Y-85350000D02*
X154000000Y-84850000D01*
X154000000Y-84850000D02*
X154000000Y-85850000D01*
X154000000Y-84350000D02*
X154000000Y-86350000D01*
X155000000Y-86600000D02*
X154500000Y-84100000D01*
%TO.C,U5*%
X146400000Y-91632000D02*
X145620000Y-91632000D01*
X145620000Y-91632000D02*
X145620000Y-92632000D01*
X146400000Y-109872000D02*
X145620000Y-109872000D01*
X145620000Y-109872000D02*
X145620000Y-108872000D01*
X171365000Y-91632000D02*
X171365000Y-109872000D01*
X171365000Y-109872000D02*
X164945000Y-109872000D01*
X171365000Y-91632000D02*
X164945000Y-91632000D01*
X164945000Y-91632000D02*
X164945000Y-91252000D01*
%TO.C,U4*%
X130255000Y-120270000D02*
X130730000Y-120270000D01*
X130730000Y-120270000D02*
X130730000Y-120745000D01*
X127985000Y-123490000D02*
X127510000Y-123490000D01*
X127510000Y-123490000D02*
X127510000Y-123015000D01*
X130255000Y-123490000D02*
X130730000Y-123490000D01*
X130730000Y-123490000D02*
X130730000Y-123015000D01*
X127985000Y-120270000D02*
X127510000Y-120270000D01*
%TO.C,U3*%
X130215000Y-109290000D02*
X130690000Y-109290000D01*
X130690000Y-109290000D02*
X130690000Y-109765000D01*
X127945000Y-112510000D02*
X127470000Y-112510000D01*
X127470000Y-112510000D02*
X127470000Y-112035000D01*
X130215000Y-112510000D02*
X130690000Y-112510000D01*
X130690000Y-112510000D02*
X130690000Y-112035000D01*
X127945000Y-109290000D02*
X127470000Y-109290000D01*
%TO.C,U2*%
X160204000Y-67398000D02*
X160204000Y-56738000D01*
X160204000Y-56738000D02*
X144484000Y-56738000D01*
X144484000Y-72458000D02*
X144484000Y-56738000D01*
X160094000Y-72458000D02*
X144484000Y-72458000D01*
%TO.C,U1*%
X158750000Y-116700000D02*
X158750000Y-115800000D01*
X159100000Y-116700000D02*
X158750000Y-116700000D01*
X142900000Y-132900000D02*
X143300000Y-132900000D01*
X142900000Y-116700000D02*
X142900000Y-132900000D01*
X143300000Y-116700000D02*
X142900000Y-116700000D01*
X159100000Y-132900000D02*
X158700000Y-132900000D01*
X159100000Y-116700000D02*
X159100000Y-132900000D01*
%TO.C,R19*%
X148962742Y-112677500D02*
X149437258Y-112677500D01*
X148962742Y-113722500D02*
X149437258Y-113722500D01*
%TO.C,R18*%
X158562258Y-90422500D02*
X158087742Y-90422500D01*
X158562258Y-89377500D02*
X158087742Y-89377500D01*
%TO.C,R17*%
X159287742Y-111077500D02*
X159762258Y-111077500D01*
X159287742Y-112122500D02*
X159762258Y-112122500D01*
%TO.C,R16*%
X154837742Y-89377500D02*
X155312258Y-89377500D01*
X154837742Y-90422500D02*
X155312258Y-90422500D01*
%TO.C,R15*%
X143862742Y-84477500D02*
X144337258Y-84477500D01*
X143862742Y-85522500D02*
X144337258Y-85522500D01*
%TO.C,R14*%
X144222500Y-103737742D02*
X144222500Y-104212258D01*
X143177500Y-103737742D02*
X143177500Y-104212258D01*
%TO.C,R13*%
X125312258Y-125522500D02*
X124837742Y-125522500D01*
X125312258Y-124477500D02*
X124837742Y-124477500D01*
%TO.C,R12*%
X128462258Y-125522500D02*
X127987742Y-125522500D01*
X128462258Y-124477500D02*
X127987742Y-124477500D01*
%TO.C,R11*%
X125312258Y-114522500D02*
X124837742Y-114522500D01*
X125312258Y-113477500D02*
X124837742Y-113477500D01*
%TO.C,R10*%
X128462258Y-114522500D02*
X127987742Y-114522500D01*
X128462258Y-113477500D02*
X127987742Y-113477500D01*
%TO.C,R7*%
X139922500Y-116387742D02*
X139922500Y-116862258D01*
X138877500Y-116387742D02*
X138877500Y-116862258D01*
%TO.C,R6*%
X126856258Y-86078500D02*
X126381742Y-86078500D01*
X126856258Y-85033500D02*
X126381742Y-85033500D01*
%TO.C,R5*%
X122443742Y-85033500D02*
X122918258Y-85033500D01*
X122443742Y-86078500D02*
X122918258Y-86078500D01*
%TO.C,R4*%
X122378500Y-82715742D02*
X122378500Y-83190258D01*
X121333500Y-82715742D02*
X121333500Y-83190258D01*
%TO.C,R3*%
X126840258Y-61278500D02*
X126365742Y-61278500D01*
X126840258Y-60233500D02*
X126365742Y-60233500D01*
%TO.C,R2*%
X122427742Y-60233500D02*
X122902258Y-60233500D01*
X122427742Y-61278500D02*
X122902258Y-61278500D01*
%TO.C,R1*%
X122362500Y-57915742D02*
X122362500Y-58390258D01*
X121317500Y-57915742D02*
X121317500Y-58390258D01*
%TO.C,Q5*%
X134820000Y-117560000D02*
X135750000Y-117560000D01*
X137980000Y-117560000D02*
X137050000Y-117560000D01*
X137980000Y-117560000D02*
X137980000Y-115400000D01*
X134820000Y-117560000D02*
X134820000Y-116100000D01*
%TO.C,Q4*%
X127188000Y-89930000D02*
X127188000Y-89000000D01*
X127188000Y-86770000D02*
X127188000Y-87700000D01*
X127188000Y-86770000D02*
X125028000Y-86770000D01*
X127188000Y-89930000D02*
X125728000Y-89930000D01*
%TO.C,Q3*%
X123616000Y-89930000D02*
X123616000Y-89000000D01*
X123616000Y-86770000D02*
X123616000Y-87700000D01*
X123616000Y-86770000D02*
X121456000Y-86770000D01*
X123616000Y-89930000D02*
X122156000Y-89930000D01*
%TO.C,Q2*%
X127188000Y-65130000D02*
X127188000Y-64200000D01*
X127188000Y-61970000D02*
X127188000Y-62900000D01*
X127188000Y-61970000D02*
X125028000Y-61970000D01*
X127188000Y-65130000D02*
X125728000Y-65130000D01*
%TO.C,Q1*%
X123600000Y-65130000D02*
X123600000Y-64200000D01*
X123600000Y-61970000D02*
X123600000Y-62900000D01*
X123600000Y-61970000D02*
X121440000Y-61970000D01*
X123600000Y-65130000D02*
X122140000Y-65130000D01*
%TO.C,L2*%
X121950000Y-122300000D02*
X121950000Y-121300000D01*
X121950000Y-121300000D02*
X121700000Y-121050000D01*
X121700000Y-121050000D02*
X121700000Y-119550000D01*
X121700000Y-119550000D02*
X121950000Y-119300000D01*
X121950000Y-119300000D02*
X121950000Y-118300000D01*
X126450000Y-119300000D02*
X126700000Y-119550000D01*
X126700000Y-121050000D02*
X126450000Y-121300000D01*
X126450000Y-118300000D02*
X126450000Y-119300000D01*
X126700000Y-119550000D02*
X126700000Y-121050000D01*
X126450000Y-121300000D02*
X126450000Y-122300000D01*
%TO.C,L1*%
X121950000Y-111300000D02*
X121950000Y-110300000D01*
X121950000Y-110300000D02*
X121700000Y-110050000D01*
X121700000Y-110050000D02*
X121700000Y-108550000D01*
X121700000Y-108550000D02*
X121950000Y-108300000D01*
X121950000Y-108300000D02*
X121950000Y-107300000D01*
X126450000Y-108300000D02*
X126700000Y-108550000D01*
X126700000Y-110050000D02*
X126450000Y-110300000D01*
X126450000Y-107300000D02*
X126450000Y-108300000D01*
X126700000Y-108550000D02*
X126700000Y-110050000D01*
X126450000Y-110300000D02*
X126450000Y-111300000D01*
%TO.C,JP4*%
X136830000Y-107370000D02*
X136830000Y-110030000D01*
X139430000Y-107370000D02*
X136830000Y-107370000D01*
X139430000Y-110030000D02*
X136830000Y-110030000D01*
X139430000Y-107370000D02*
X139430000Y-110030000D01*
X140700000Y-107370000D02*
X142030000Y-107370000D01*
X142030000Y-107370000D02*
X142030000Y-108700000D01*
%TO.C,JP3*%
X136830000Y-103470000D02*
X136830000Y-106130000D01*
X139430000Y-103470000D02*
X136830000Y-103470000D01*
X139430000Y-106130000D02*
X136830000Y-106130000D01*
X139430000Y-103470000D02*
X139430000Y-106130000D01*
X140700000Y-103470000D02*
X142030000Y-103470000D01*
X142030000Y-103470000D02*
X142030000Y-104800000D01*
%TO.C,JP2*%
X131530000Y-84092000D02*
X131530000Y-81432000D01*
X126390000Y-84092000D02*
X131530000Y-84092000D01*
X126390000Y-81432000D02*
X131530000Y-81432000D01*
X126390000Y-84092000D02*
X126390000Y-81432000D01*
X125120000Y-84092000D02*
X123790000Y-84092000D01*
X123790000Y-84092000D02*
X123790000Y-82762000D01*
%TO.C,JP1*%
X131552000Y-59292000D02*
X131552000Y-56632000D01*
X126412000Y-59292000D02*
X131552000Y-59292000D01*
X126412000Y-56632000D02*
X131552000Y-56632000D01*
X126412000Y-59292000D02*
X126412000Y-56632000D01*
X125142000Y-59292000D02*
X123812000Y-59292000D01*
X123812000Y-59292000D02*
X123812000Y-57962000D01*
%TO.C,J14*%
X141460000Y-125260000D02*
X141460000Y-119290000D01*
X141460000Y-119290000D02*
X133840000Y-119290000D01*
X133840000Y-119290000D02*
X133840000Y-125260000D01*
X133840000Y-125260000D02*
X141460000Y-125260000D01*
X138150000Y-125250000D02*
X138150000Y-124500000D01*
X138150000Y-124500000D02*
X137150000Y-124500000D01*
X137150000Y-124500000D02*
X137150000Y-125250000D01*
X137150000Y-125250000D02*
X138150000Y-125250000D01*
X141450000Y-125250000D02*
X141450000Y-124500000D01*
X141450000Y-124500000D02*
X139650000Y-124500000D01*
X139650000Y-124500000D02*
X139650000Y-125250000D01*
X139650000Y-125250000D02*
X141450000Y-125250000D01*
X135650000Y-125250000D02*
X135650000Y-124500000D01*
X135650000Y-124500000D02*
X133850000Y-124500000D01*
X133850000Y-124500000D02*
X133850000Y-125250000D01*
X133850000Y-125250000D02*
X135650000Y-125250000D01*
X141450000Y-123000000D02*
X140700000Y-123000000D01*
X140700000Y-123000000D02*
X140700000Y-121660000D01*
X137650000Y-120050000D02*
X139640000Y-120050000D01*
X133850000Y-123000000D02*
X134600000Y-123000000D01*
X134600000Y-123000000D02*
X134600000Y-120050000D01*
X134600000Y-120050000D02*
X137650000Y-120050000D01*
X140500000Y-125550000D02*
X141750000Y-125550000D01*
X141750000Y-125550000D02*
X141750000Y-124300000D01*
%TO.C,J5*%
X123850000Y-55130000D02*
X123850000Y-52470000D01*
X123850000Y-55130000D02*
X131530000Y-55130000D01*
X131530000Y-55130000D02*
X131530000Y-52470000D01*
X123850000Y-52470000D02*
X131530000Y-52470000D01*
X121250000Y-52470000D02*
X122580000Y-52470000D01*
X121250000Y-53800000D02*
X121250000Y-52470000D01*
%TO.C,J4*%
X123828000Y-93938000D02*
X126488000Y-93938000D01*
X123828000Y-93938000D02*
X123828000Y-101618000D01*
X123828000Y-101618000D02*
X126488000Y-101618000D01*
X126488000Y-93938000D02*
X126488000Y-101618000D01*
X126488000Y-91338000D02*
X126488000Y-92668000D01*
X125158000Y-91338000D02*
X126488000Y-91338000D01*
%TO.C,J3*%
X128870000Y-88858000D02*
X131530000Y-88858000D01*
X128870000Y-88858000D02*
X128870000Y-104158000D01*
X128870000Y-104158000D02*
X131530000Y-104158000D01*
X131530000Y-88858000D02*
X131530000Y-104158000D01*
X131530000Y-86258000D02*
X131530000Y-87588000D01*
X130200000Y-86258000D02*
X131530000Y-86258000D01*
%TO.C,J2*%
X123812000Y-69138000D02*
X126472000Y-69138000D01*
X123812000Y-69138000D02*
X123812000Y-76818000D01*
X123812000Y-76818000D02*
X126472000Y-76818000D01*
X126472000Y-69138000D02*
X126472000Y-76818000D01*
X126472000Y-66538000D02*
X126472000Y-67868000D01*
X125142000Y-66538000D02*
X126472000Y-66538000D01*
%TO.C,J1*%
X128892000Y-64058000D02*
X131552000Y-64058000D01*
X128892000Y-64058000D02*
X128892000Y-79358000D01*
X128892000Y-79358000D02*
X131552000Y-79358000D01*
X131552000Y-64058000D02*
X131552000Y-79358000D01*
X131552000Y-61458000D02*
X131552000Y-62788000D01*
X130222000Y-61458000D02*
X131552000Y-61458000D01*
%TO.C,D1*%
X138900000Y-112300000D02*
X134600000Y-112300000D01*
X134600000Y-112300000D02*
X134600000Y-114300000D01*
X134600000Y-114300000D02*
X138900000Y-114300000D01*
%TO.C,C21*%
X162834420Y-87690000D02*
X163115580Y-87690000D01*
X162834420Y-88710000D02*
X163115580Y-88710000D01*
%TO.C,C20*%
X162834420Y-89390000D02*
X163115580Y-89390000D01*
X162834420Y-90410000D02*
X163115580Y-90410000D01*
%TO.C,C19*%
X147184420Y-84490000D02*
X147465580Y-84490000D01*
X147184420Y-85510000D02*
X147465580Y-85510000D01*
%TO.C,C12*%
X127265000Y-118061252D02*
X127265000Y-117538748D01*
X128735000Y-118061252D02*
X128735000Y-117538748D01*
%TO.C,C11*%
X127265000Y-107061252D02*
X127265000Y-106538748D01*
X128735000Y-107061252D02*
X128735000Y-106538748D01*
%TO.C,C10*%
X131234420Y-124490000D02*
X131515580Y-124490000D01*
X131234420Y-125510000D02*
X131515580Y-125510000D01*
%TO.C,C9*%
X131234420Y-113490000D02*
X131515580Y-113490000D01*
X131234420Y-114510000D02*
X131515580Y-114510000D01*
%TO.C,C8*%
X131590000Y-117940580D02*
X131590000Y-117659420D01*
X132610000Y-117940580D02*
X132610000Y-117659420D01*
%TO.C,C7*%
X131590000Y-106940580D02*
X131590000Y-106659420D01*
X132610000Y-106940580D02*
X132610000Y-106659420D01*
%TO.C,C6*%
X129465000Y-118061252D02*
X129465000Y-117538748D01*
X130935000Y-118061252D02*
X130935000Y-117538748D01*
%TO.C,C5*%
X129465000Y-107061252D02*
X129465000Y-106538748D01*
X130935000Y-107061252D02*
X130935000Y-106538748D01*
%TO.C,C4*%
X160942000Y-63907580D02*
X160942000Y-63626420D01*
X161962000Y-63907580D02*
X161962000Y-63626420D01*
%TO.C,C3*%
X149765580Y-74196000D02*
X149484420Y-74196000D01*
X149765580Y-73176000D02*
X149484420Y-73176000D01*
%TO.C,C2*%
X154334420Y-135790000D02*
X154615580Y-135790000D01*
X154334420Y-136810000D02*
X154615580Y-136810000D01*
%TO.C,C1*%
X151365580Y-136810000D02*
X151084420Y-136810000D01*
X151365580Y-135790000D02*
X151084420Y-135790000D01*
%TO.C,J15*%
D11*
X133540476Y-82952380D02*
X133540476Y-83666666D01*
X133492857Y-83809523D01*
X133397619Y-83904761D01*
X133254761Y-83952380D01*
X133159523Y-83952380D01*
X134540476Y-83952380D02*
X133969047Y-83952380D01*
X134254761Y-83952380D02*
X134254761Y-82952380D01*
X134159523Y-83095238D01*
X134064285Y-83190476D01*
X133969047Y-83238095D01*
X135445238Y-82952380D02*
X134969047Y-82952380D01*
X134921428Y-83428571D01*
X134969047Y-83380952D01*
X135064285Y-83333333D01*
X135302380Y-83333333D01*
X135397619Y-83380952D01*
X135445238Y-83428571D01*
X135492857Y-83523809D01*
X135492857Y-83761904D01*
X135445238Y-83857142D01*
X135397619Y-83904761D01*
X135302380Y-83952380D01*
X135064285Y-83952380D01*
X134969047Y-83904761D01*
X134921428Y-83857142D01*
X133159523Y-85452380D02*
X133159523Y-84452380D01*
X133540476Y-84452380D01*
X133635714Y-84500000D01*
X133683333Y-84547619D01*
X133730952Y-84642857D01*
X133730952Y-84785714D01*
X133683333Y-84880952D01*
X133635714Y-84928571D01*
X133540476Y-84976190D01*
X133159523Y-84976190D01*
X134730952Y-85452380D02*
X134397619Y-84976190D01*
X134159523Y-85452380D02*
X134159523Y-84452380D01*
X134540476Y-84452380D01*
X134635714Y-84500000D01*
X134683333Y-84547619D01*
X134730952Y-84642857D01*
X134730952Y-84785714D01*
X134683333Y-84880952D01*
X134635714Y-84928571D01*
X134540476Y-84976190D01*
X134159523Y-84976190D01*
X135350000Y-84452380D02*
X135540476Y-84452380D01*
X135635714Y-84500000D01*
X135730952Y-84595238D01*
X135778571Y-84785714D01*
X135778571Y-85119047D01*
X135730952Y-85309523D01*
X135635714Y-85404761D01*
X135540476Y-85452380D01*
X135350000Y-85452380D01*
X135254761Y-85404761D01*
X135159523Y-85309523D01*
X135111904Y-85119047D01*
X135111904Y-84785714D01*
X135159523Y-84595238D01*
X135254761Y-84500000D01*
X135350000Y-84452380D01*
X136730952Y-84500000D02*
X136635714Y-84452380D01*
X136492857Y-84452380D01*
X136350000Y-84500000D01*
X136254761Y-84595238D01*
X136207142Y-84690476D01*
X136159523Y-84880952D01*
X136159523Y-85023809D01*
X136207142Y-85214285D01*
X136254761Y-85309523D01*
X136350000Y-85404761D01*
X136492857Y-85452380D01*
X136588095Y-85452380D01*
X136730952Y-85404761D01*
X136778571Y-85357142D01*
X136778571Y-85023809D01*
X136588095Y-85023809D01*
X137969047Y-85452380D02*
X137969047Y-84452380D01*
X137969047Y-84928571D02*
X138540476Y-84928571D01*
X138540476Y-85452380D02*
X138540476Y-84452380D01*
X139016666Y-85452380D02*
X139016666Y-84452380D01*
X139254761Y-84452380D01*
X139397619Y-84500000D01*
X139492857Y-84595238D01*
X139540476Y-84690476D01*
X139588095Y-84880952D01*
X139588095Y-85023809D01*
X139540476Y-85214285D01*
X139492857Y-85309523D01*
X139397619Y-85404761D01*
X139254761Y-85452380D01*
X139016666Y-85452380D01*
X140588095Y-85452380D02*
X140254761Y-84976190D01*
X140016666Y-85452380D02*
X140016666Y-84452380D01*
X140397619Y-84452380D01*
X140492857Y-84500000D01*
X140540476Y-84547619D01*
X140588095Y-84642857D01*
X140588095Y-84785714D01*
X140540476Y-84880952D01*
X140492857Y-84928571D01*
X140397619Y-84976190D01*
X140016666Y-84976190D01*
%TO.C,J6*%
X166552380Y-123833333D02*
X167266666Y-123833333D01*
X167409523Y-123880952D01*
X167504761Y-123976190D01*
X167552380Y-124119047D01*
X167552380Y-124214285D01*
X166552380Y-122928571D02*
X166552380Y-123119047D01*
X166600000Y-123214285D01*
X166647619Y-123261904D01*
X166790476Y-123357142D01*
X166980952Y-123404761D01*
X167361904Y-123404761D01*
X167457142Y-123357142D01*
X167504761Y-123309523D01*
X167552380Y-123214285D01*
X167552380Y-123023809D01*
X167504761Y-122928571D01*
X167457142Y-122880952D01*
X167361904Y-122833333D01*
X167123809Y-122833333D01*
X167028571Y-122880952D01*
X166980952Y-122928571D01*
X166933333Y-123023809D01*
X166933333Y-123214285D01*
X166980952Y-123309523D01*
X167028571Y-123357142D01*
X167123809Y-123404761D01*
%TO.C,SW1*%
X152066666Y-80604761D02*
X152209523Y-80652380D01*
X152447619Y-80652380D01*
X152542857Y-80604761D01*
X152590476Y-80557142D01*
X152638095Y-80461904D01*
X152638095Y-80366666D01*
X152590476Y-80271428D01*
X152542857Y-80223809D01*
X152447619Y-80176190D01*
X152257142Y-80128571D01*
X152161904Y-80080952D01*
X152114285Y-80033333D01*
X152066666Y-79938095D01*
X152066666Y-79842857D01*
X152114285Y-79747619D01*
X152161904Y-79700000D01*
X152257142Y-79652380D01*
X152495238Y-79652380D01*
X152638095Y-79700000D01*
X152971428Y-79652380D02*
X153209523Y-80652380D01*
X153400000Y-79938095D01*
X153590476Y-80652380D01*
X153828571Y-79652380D01*
X154733333Y-80652380D02*
X154161904Y-80652380D01*
X154447619Y-80652380D02*
X154447619Y-79652380D01*
X154352380Y-79795238D01*
X154257142Y-79890476D01*
X154161904Y-79938095D01*
%TO.C,U5*%
X161838095Y-99952380D02*
X161838095Y-100761904D01*
X161885714Y-100857142D01*
X161933333Y-100904761D01*
X162028571Y-100952380D01*
X162219047Y-100952380D01*
X162314285Y-100904761D01*
X162361904Y-100857142D01*
X162409523Y-100761904D01*
X162409523Y-99952380D01*
X163361904Y-99952380D02*
X162885714Y-99952380D01*
X162838095Y-100428571D01*
X162885714Y-100380952D01*
X162980952Y-100333333D01*
X163219047Y-100333333D01*
X163314285Y-100380952D01*
X163361904Y-100428571D01*
X163409523Y-100523809D01*
X163409523Y-100761904D01*
X163361904Y-100857142D01*
X163314285Y-100904761D01*
X163219047Y-100952380D01*
X162980952Y-100952380D01*
X162885714Y-100904761D01*
X162838095Y-100857142D01*
%TO.C,U4*%
X131552380Y-123761904D02*
X132361904Y-123761904D01*
X132457142Y-123714285D01*
X132504761Y-123666666D01*
X132552380Y-123571428D01*
X132552380Y-123380952D01*
X132504761Y-123285714D01*
X132457142Y-123238095D01*
X132361904Y-123190476D01*
X131552380Y-123190476D01*
X131885714Y-122285714D02*
X132552380Y-122285714D01*
X131504761Y-122523809D02*
X132219047Y-122761904D01*
X132219047Y-122142857D01*
%TO.C,U3*%
X131552380Y-112761904D02*
X132361904Y-112761904D01*
X132457142Y-112714285D01*
X132504761Y-112666666D01*
X132552380Y-112571428D01*
X132552380Y-112380952D01*
X132504761Y-112285714D01*
X132457142Y-112238095D01*
X132361904Y-112190476D01*
X131552380Y-112190476D01*
X131552380Y-111809523D02*
X131552380Y-111190476D01*
X131933333Y-111523809D01*
X131933333Y-111380952D01*
X131980952Y-111285714D01*
X132028571Y-111238095D01*
X132123809Y-111190476D01*
X132361904Y-111190476D01*
X132457142Y-111238095D01*
X132504761Y-111285714D01*
X132552380Y-111380952D01*
X132552380Y-111666666D01*
X132504761Y-111761904D01*
X132457142Y-111809523D01*
%TO.C,U2*%
X144238095Y-55352380D02*
X144238095Y-56161904D01*
X144285714Y-56257142D01*
X144333333Y-56304761D01*
X144428571Y-56352380D01*
X144619047Y-56352380D01*
X144714285Y-56304761D01*
X144761904Y-56257142D01*
X144809523Y-56161904D01*
X144809523Y-55352380D01*
X145238095Y-55447619D02*
X145285714Y-55400000D01*
X145380952Y-55352380D01*
X145619047Y-55352380D01*
X145714285Y-55400000D01*
X145761904Y-55447619D01*
X145809523Y-55542857D01*
X145809523Y-55638095D01*
X145761904Y-55780952D01*
X145190476Y-56352380D01*
X145809523Y-56352380D01*
%TO.C,U1*%
X150338095Y-118952380D02*
X150338095Y-119761904D01*
X150385714Y-119857142D01*
X150433333Y-119904761D01*
X150528571Y-119952380D01*
X150719047Y-119952380D01*
X150814285Y-119904761D01*
X150861904Y-119857142D01*
X150909523Y-119761904D01*
X150909523Y-118952380D01*
X151909523Y-119952380D02*
X151338095Y-119952380D01*
X151623809Y-119952380D02*
X151623809Y-118952380D01*
X151528571Y-119095238D01*
X151433333Y-119190476D01*
X151338095Y-119238095D01*
%TO.C,R19*%
X148557142Y-112222380D02*
X148223809Y-111746190D01*
X147985714Y-112222380D02*
X147985714Y-111222380D01*
X148366666Y-111222380D01*
X148461904Y-111270000D01*
X148509523Y-111317619D01*
X148557142Y-111412857D01*
X148557142Y-111555714D01*
X148509523Y-111650952D01*
X148461904Y-111698571D01*
X148366666Y-111746190D01*
X147985714Y-111746190D01*
X149509523Y-112222380D02*
X148938095Y-112222380D01*
X149223809Y-112222380D02*
X149223809Y-111222380D01*
X149128571Y-111365238D01*
X149033333Y-111460476D01*
X148938095Y-111508095D01*
X149985714Y-112222380D02*
X150176190Y-112222380D01*
X150271428Y-112174761D01*
X150319047Y-112127142D01*
X150414285Y-111984285D01*
X150461904Y-111793809D01*
X150461904Y-111412857D01*
X150414285Y-111317619D01*
X150366666Y-111270000D01*
X150271428Y-111222380D01*
X150080952Y-111222380D01*
X149985714Y-111270000D01*
X149938095Y-111317619D01*
X149890476Y-111412857D01*
X149890476Y-111650952D01*
X149938095Y-111746190D01*
X149985714Y-111793809D01*
X150080952Y-111841428D01*
X150271428Y-111841428D01*
X150366666Y-111793809D01*
X150414285Y-111746190D01*
X150461904Y-111650952D01*
%TO.C,R18*%
X150457142Y-90452380D02*
X150123809Y-89976190D01*
X149885714Y-90452380D02*
X149885714Y-89452380D01*
X150266666Y-89452380D01*
X150361904Y-89500000D01*
X150409523Y-89547619D01*
X150457142Y-89642857D01*
X150457142Y-89785714D01*
X150409523Y-89880952D01*
X150361904Y-89928571D01*
X150266666Y-89976190D01*
X149885714Y-89976190D01*
X151409523Y-90452380D02*
X150838095Y-90452380D01*
X151123809Y-90452380D02*
X151123809Y-89452380D01*
X151028571Y-89595238D01*
X150933333Y-89690476D01*
X150838095Y-89738095D01*
X151980952Y-89880952D02*
X151885714Y-89833333D01*
X151838095Y-89785714D01*
X151790476Y-89690476D01*
X151790476Y-89642857D01*
X151838095Y-89547619D01*
X151885714Y-89500000D01*
X151980952Y-89452380D01*
X152171428Y-89452380D01*
X152266666Y-89500000D01*
X152314285Y-89547619D01*
X152361904Y-89642857D01*
X152361904Y-89690476D01*
X152314285Y-89785714D01*
X152266666Y-89833333D01*
X152171428Y-89880952D01*
X151980952Y-89880952D01*
X151885714Y-89928571D01*
X151838095Y-89976190D01*
X151790476Y-90071428D01*
X151790476Y-90261904D01*
X151838095Y-90357142D01*
X151885714Y-90404761D01*
X151980952Y-90452380D01*
X152171428Y-90452380D01*
X152266666Y-90404761D01*
X152314285Y-90357142D01*
X152361904Y-90261904D01*
X152361904Y-90071428D01*
X152314285Y-89976190D01*
X152266666Y-89928571D01*
X152171428Y-89880952D01*
%TO.C,R17*%
X158882142Y-113452380D02*
X158548809Y-112976190D01*
X158310714Y-113452380D02*
X158310714Y-112452380D01*
X158691666Y-112452380D01*
X158786904Y-112500000D01*
X158834523Y-112547619D01*
X158882142Y-112642857D01*
X158882142Y-112785714D01*
X158834523Y-112880952D01*
X158786904Y-112928571D01*
X158691666Y-112976190D01*
X158310714Y-112976190D01*
X159834523Y-113452380D02*
X159263095Y-113452380D01*
X159548809Y-113452380D02*
X159548809Y-112452380D01*
X159453571Y-112595238D01*
X159358333Y-112690476D01*
X159263095Y-112738095D01*
X160167857Y-112452380D02*
X160834523Y-112452380D01*
X160405952Y-113452380D01*
%TO.C,R16*%
X147207142Y-90452380D02*
X146873809Y-89976190D01*
X146635714Y-90452380D02*
X146635714Y-89452380D01*
X147016666Y-89452380D01*
X147111904Y-89500000D01*
X147159523Y-89547619D01*
X147207142Y-89642857D01*
X147207142Y-89785714D01*
X147159523Y-89880952D01*
X147111904Y-89928571D01*
X147016666Y-89976190D01*
X146635714Y-89976190D01*
X148159523Y-90452380D02*
X147588095Y-90452380D01*
X147873809Y-90452380D02*
X147873809Y-89452380D01*
X147778571Y-89595238D01*
X147683333Y-89690476D01*
X147588095Y-89738095D01*
X149016666Y-89452380D02*
X148826190Y-89452380D01*
X148730952Y-89500000D01*
X148683333Y-89547619D01*
X148588095Y-89690476D01*
X148540476Y-89880952D01*
X148540476Y-90261904D01*
X148588095Y-90357142D01*
X148635714Y-90404761D01*
X148730952Y-90452380D01*
X148921428Y-90452380D01*
X149016666Y-90404761D01*
X149064285Y-90357142D01*
X149111904Y-90261904D01*
X149111904Y-90023809D01*
X149064285Y-89928571D01*
X149016666Y-89880952D01*
X148921428Y-89833333D01*
X148730952Y-89833333D01*
X148635714Y-89880952D01*
X148588095Y-89928571D01*
X148540476Y-90023809D01*
%TO.C,R15*%
X143457142Y-84022380D02*
X143123809Y-83546190D01*
X142885714Y-84022380D02*
X142885714Y-83022380D01*
X143266666Y-83022380D01*
X143361904Y-83070000D01*
X143409523Y-83117619D01*
X143457142Y-83212857D01*
X143457142Y-83355714D01*
X143409523Y-83450952D01*
X143361904Y-83498571D01*
X143266666Y-83546190D01*
X142885714Y-83546190D01*
X144409523Y-84022380D02*
X143838095Y-84022380D01*
X144123809Y-84022380D02*
X144123809Y-83022380D01*
X144028571Y-83165238D01*
X143933333Y-83260476D01*
X143838095Y-83308095D01*
X145314285Y-83022380D02*
X144838095Y-83022380D01*
X144790476Y-83498571D01*
X144838095Y-83450952D01*
X144933333Y-83403333D01*
X145171428Y-83403333D01*
X145266666Y-83450952D01*
X145314285Y-83498571D01*
X145361904Y-83593809D01*
X145361904Y-83831904D01*
X145314285Y-83927142D01*
X145266666Y-83974761D01*
X145171428Y-84022380D01*
X144933333Y-84022380D01*
X144838095Y-83974761D01*
X144790476Y-83927142D01*
%TO.C,R14*%
X144152380Y-107642857D02*
X143676190Y-107976190D01*
X144152380Y-108214285D02*
X143152380Y-108214285D01*
X143152380Y-107833333D01*
X143200000Y-107738095D01*
X143247619Y-107690476D01*
X143342857Y-107642857D01*
X143485714Y-107642857D01*
X143580952Y-107690476D01*
X143628571Y-107738095D01*
X143676190Y-107833333D01*
X143676190Y-108214285D01*
X144152380Y-106690476D02*
X144152380Y-107261904D01*
X144152380Y-106976190D02*
X143152380Y-106976190D01*
X143295238Y-107071428D01*
X143390476Y-107166666D01*
X143438095Y-107261904D01*
X143485714Y-105833333D02*
X144152380Y-105833333D01*
X143104761Y-106071428D02*
X143819047Y-106309523D01*
X143819047Y-105690476D01*
%TO.C,R13*%
X124432142Y-126882380D02*
X124098809Y-126406190D01*
X123860714Y-126882380D02*
X123860714Y-125882380D01*
X124241666Y-125882380D01*
X124336904Y-125930000D01*
X124384523Y-125977619D01*
X124432142Y-126072857D01*
X124432142Y-126215714D01*
X124384523Y-126310952D01*
X124336904Y-126358571D01*
X124241666Y-126406190D01*
X123860714Y-126406190D01*
X125384523Y-126882380D02*
X124813095Y-126882380D01*
X125098809Y-126882380D02*
X125098809Y-125882380D01*
X125003571Y-126025238D01*
X124908333Y-126120476D01*
X124813095Y-126168095D01*
X125717857Y-125882380D02*
X126336904Y-125882380D01*
X126003571Y-126263333D01*
X126146428Y-126263333D01*
X126241666Y-126310952D01*
X126289285Y-126358571D01*
X126336904Y-126453809D01*
X126336904Y-126691904D01*
X126289285Y-126787142D01*
X126241666Y-126834761D01*
X126146428Y-126882380D01*
X125860714Y-126882380D01*
X125765476Y-126834761D01*
X125717857Y-126787142D01*
%TO.C,R12*%
X127582142Y-126882380D02*
X127248809Y-126406190D01*
X127010714Y-126882380D02*
X127010714Y-125882380D01*
X127391666Y-125882380D01*
X127486904Y-125930000D01*
X127534523Y-125977619D01*
X127582142Y-126072857D01*
X127582142Y-126215714D01*
X127534523Y-126310952D01*
X127486904Y-126358571D01*
X127391666Y-126406190D01*
X127010714Y-126406190D01*
X128534523Y-126882380D02*
X127963095Y-126882380D01*
X128248809Y-126882380D02*
X128248809Y-125882380D01*
X128153571Y-126025238D01*
X128058333Y-126120476D01*
X127963095Y-126168095D01*
X128915476Y-125977619D02*
X128963095Y-125930000D01*
X129058333Y-125882380D01*
X129296428Y-125882380D01*
X129391666Y-125930000D01*
X129439285Y-125977619D01*
X129486904Y-126072857D01*
X129486904Y-126168095D01*
X129439285Y-126310952D01*
X128867857Y-126882380D01*
X129486904Y-126882380D01*
%TO.C,R11*%
X124432142Y-115882380D02*
X124098809Y-115406190D01*
X123860714Y-115882380D02*
X123860714Y-114882380D01*
X124241666Y-114882380D01*
X124336904Y-114930000D01*
X124384523Y-114977619D01*
X124432142Y-115072857D01*
X124432142Y-115215714D01*
X124384523Y-115310952D01*
X124336904Y-115358571D01*
X124241666Y-115406190D01*
X123860714Y-115406190D01*
X125384523Y-115882380D02*
X124813095Y-115882380D01*
X125098809Y-115882380D02*
X125098809Y-114882380D01*
X125003571Y-115025238D01*
X124908333Y-115120476D01*
X124813095Y-115168095D01*
X126336904Y-115882380D02*
X125765476Y-115882380D01*
X126051190Y-115882380D02*
X126051190Y-114882380D01*
X125955952Y-115025238D01*
X125860714Y-115120476D01*
X125765476Y-115168095D01*
%TO.C,R10*%
X127582142Y-115882380D02*
X127248809Y-115406190D01*
X127010714Y-115882380D02*
X127010714Y-114882380D01*
X127391666Y-114882380D01*
X127486904Y-114930000D01*
X127534523Y-114977619D01*
X127582142Y-115072857D01*
X127582142Y-115215714D01*
X127534523Y-115310952D01*
X127486904Y-115358571D01*
X127391666Y-115406190D01*
X127010714Y-115406190D01*
X128534523Y-115882380D02*
X127963095Y-115882380D01*
X128248809Y-115882380D02*
X128248809Y-114882380D01*
X128153571Y-115025238D01*
X128058333Y-115120476D01*
X127963095Y-115168095D01*
X129153571Y-114882380D02*
X129248809Y-114882380D01*
X129344047Y-114930000D01*
X129391666Y-114977619D01*
X129439285Y-115072857D01*
X129486904Y-115263333D01*
X129486904Y-115501428D01*
X129439285Y-115691904D01*
X129391666Y-115787142D01*
X129344047Y-115834761D01*
X129248809Y-115882380D01*
X129153571Y-115882380D01*
X129058333Y-115834761D01*
X129010714Y-115787142D01*
X128963095Y-115691904D01*
X128915476Y-115501428D01*
X128915476Y-115263333D01*
X128963095Y-115072857D01*
X129010714Y-114977619D01*
X129058333Y-114930000D01*
X129153571Y-114882380D01*
%TO.C,R7*%
X141282380Y-116791666D02*
X140806190Y-117125000D01*
X141282380Y-117363095D02*
X140282380Y-117363095D01*
X140282380Y-116982142D01*
X140330000Y-116886904D01*
X140377619Y-116839285D01*
X140472857Y-116791666D01*
X140615714Y-116791666D01*
X140710952Y-116839285D01*
X140758571Y-116886904D01*
X140806190Y-116982142D01*
X140806190Y-117363095D01*
X140282380Y-116458333D02*
X140282380Y-115791666D01*
X141282380Y-116220238D01*
%TO.C,Q5*%
X134147619Y-116095238D02*
X134100000Y-116190476D01*
X134004761Y-116285714D01*
X133861904Y-116428571D01*
X133814285Y-116523809D01*
X133814285Y-116619047D01*
X134052380Y-116571428D02*
X134004761Y-116666666D01*
X133909523Y-116761904D01*
X133719047Y-116809523D01*
X133385714Y-116809523D01*
X133195238Y-116761904D01*
X133100000Y-116666666D01*
X133052380Y-116571428D01*
X133052380Y-116380952D01*
X133100000Y-116285714D01*
X133195238Y-116190476D01*
X133385714Y-116142857D01*
X133719047Y-116142857D01*
X133909523Y-116190476D01*
X134004761Y-116285714D01*
X134052380Y-116380952D01*
X134052380Y-116571428D01*
X133052380Y-115238095D02*
X133052380Y-115714285D01*
X133528571Y-115761904D01*
X133480952Y-115714285D01*
X133433333Y-115619047D01*
X133433333Y-115380952D01*
X133480952Y-115285714D01*
X133528571Y-115238095D01*
X133623809Y-115190476D01*
X133861904Y-115190476D01*
X133957142Y-115238095D01*
X134004761Y-115285714D01*
X134052380Y-115380952D01*
X134052380Y-115619047D01*
X134004761Y-115714285D01*
X133957142Y-115761904D01*
%TO.C,Q4*%
X125704761Y-91147619D02*
X125609523Y-91100000D01*
X125514285Y-91004761D01*
X125371428Y-90861904D01*
X125276190Y-90814285D01*
X125180952Y-90814285D01*
X125228571Y-91052380D02*
X125133333Y-91004761D01*
X125038095Y-90909523D01*
X124990476Y-90719047D01*
X124990476Y-90385714D01*
X125038095Y-90195238D01*
X125133333Y-90100000D01*
X125228571Y-90052380D01*
X125419047Y-90052380D01*
X125514285Y-90100000D01*
X125609523Y-90195238D01*
X125657142Y-90385714D01*
X125657142Y-90719047D01*
X125609523Y-90909523D01*
X125514285Y-91004761D01*
X125419047Y-91052380D01*
X125228571Y-91052380D01*
X126514285Y-90385714D02*
X126514285Y-91052380D01*
X126276190Y-90004761D02*
X126038095Y-90719047D01*
X126657142Y-90719047D01*
%TO.C,Q3*%
X122304761Y-91147619D02*
X122209523Y-91100000D01*
X122114285Y-91004761D01*
X121971428Y-90861904D01*
X121876190Y-90814285D01*
X121780952Y-90814285D01*
X121828571Y-91052380D02*
X121733333Y-91004761D01*
X121638095Y-90909523D01*
X121590476Y-90719047D01*
X121590476Y-90385714D01*
X121638095Y-90195238D01*
X121733333Y-90100000D01*
X121828571Y-90052380D01*
X122019047Y-90052380D01*
X122114285Y-90100000D01*
X122209523Y-90195238D01*
X122257142Y-90385714D01*
X122257142Y-90719047D01*
X122209523Y-90909523D01*
X122114285Y-91004761D01*
X122019047Y-91052380D01*
X121828571Y-91052380D01*
X122590476Y-90052380D02*
X123209523Y-90052380D01*
X122876190Y-90433333D01*
X123019047Y-90433333D01*
X123114285Y-90480952D01*
X123161904Y-90528571D01*
X123209523Y-90623809D01*
X123209523Y-90861904D01*
X123161904Y-90957142D01*
X123114285Y-91004761D01*
X123019047Y-91052380D01*
X122733333Y-91052380D01*
X122638095Y-91004761D01*
X122590476Y-90957142D01*
%TO.C,Q2*%
X125604761Y-66347619D02*
X125509523Y-66300000D01*
X125414285Y-66204761D01*
X125271428Y-66061904D01*
X125176190Y-66014285D01*
X125080952Y-66014285D01*
X125128571Y-66252380D02*
X125033333Y-66204761D01*
X124938095Y-66109523D01*
X124890476Y-65919047D01*
X124890476Y-65585714D01*
X124938095Y-65395238D01*
X125033333Y-65300000D01*
X125128571Y-65252380D01*
X125319047Y-65252380D01*
X125414285Y-65300000D01*
X125509523Y-65395238D01*
X125557142Y-65585714D01*
X125557142Y-65919047D01*
X125509523Y-66109523D01*
X125414285Y-66204761D01*
X125319047Y-66252380D01*
X125128571Y-66252380D01*
X125938095Y-65347619D02*
X125985714Y-65300000D01*
X126080952Y-65252380D01*
X126319047Y-65252380D01*
X126414285Y-65300000D01*
X126461904Y-65347619D01*
X126509523Y-65442857D01*
X126509523Y-65538095D01*
X126461904Y-65680952D01*
X125890476Y-66252380D01*
X126509523Y-66252380D01*
%TO.C,Q1*%
X122304761Y-66447619D02*
X122209523Y-66400000D01*
X122114285Y-66304761D01*
X121971428Y-66161904D01*
X121876190Y-66114285D01*
X121780952Y-66114285D01*
X121828571Y-66352380D02*
X121733333Y-66304761D01*
X121638095Y-66209523D01*
X121590476Y-66019047D01*
X121590476Y-65685714D01*
X121638095Y-65495238D01*
X121733333Y-65400000D01*
X121828571Y-65352380D01*
X122019047Y-65352380D01*
X122114285Y-65400000D01*
X122209523Y-65495238D01*
X122257142Y-65685714D01*
X122257142Y-66019047D01*
X122209523Y-66209523D01*
X122114285Y-66304761D01*
X122019047Y-66352380D01*
X121828571Y-66352380D01*
X123209523Y-66352380D02*
X122638095Y-66352380D01*
X122923809Y-66352380D02*
X122923809Y-65352380D01*
X122828571Y-65495238D01*
X122733333Y-65590476D01*
X122638095Y-65638095D01*
%TO.C,L2*%
X124033333Y-120752380D02*
X123557142Y-120752380D01*
X123557142Y-119752380D01*
X124319047Y-119847619D02*
X124366666Y-119800000D01*
X124461904Y-119752380D01*
X124700000Y-119752380D01*
X124795238Y-119800000D01*
X124842857Y-119847619D01*
X124890476Y-119942857D01*
X124890476Y-120038095D01*
X124842857Y-120180952D01*
X124271428Y-120752380D01*
X124890476Y-120752380D01*
%TO.C,L1*%
X124033333Y-109752380D02*
X123557142Y-109752380D01*
X123557142Y-108752380D01*
X124890476Y-109752380D02*
X124319047Y-109752380D01*
X124604761Y-109752380D02*
X124604761Y-108752380D01*
X124509523Y-108895238D01*
X124414285Y-108990476D01*
X124319047Y-109038095D01*
%TO.C,JP4*%
X135552380Y-109533333D02*
X136266666Y-109533333D01*
X136409523Y-109580952D01*
X136504761Y-109676190D01*
X136552380Y-109819047D01*
X136552380Y-109914285D01*
X136552380Y-109057142D02*
X135552380Y-109057142D01*
X135552380Y-108676190D01*
X135600000Y-108580952D01*
X135647619Y-108533333D01*
X135742857Y-108485714D01*
X135885714Y-108485714D01*
X135980952Y-108533333D01*
X136028571Y-108580952D01*
X136076190Y-108676190D01*
X136076190Y-109057142D01*
X135885714Y-107628571D02*
X136552380Y-107628571D01*
X135504761Y-107866666D02*
X136219047Y-108104761D01*
X136219047Y-107485714D01*
%TO.C,JP3*%
X135552380Y-105533333D02*
X136266666Y-105533333D01*
X136409523Y-105580952D01*
X136504761Y-105676190D01*
X136552380Y-105819047D01*
X136552380Y-105914285D01*
X136552380Y-105057142D02*
X135552380Y-105057142D01*
X135552380Y-104676190D01*
X135600000Y-104580952D01*
X135647619Y-104533333D01*
X135742857Y-104485714D01*
X135885714Y-104485714D01*
X135980952Y-104533333D01*
X136028571Y-104580952D01*
X136076190Y-104676190D01*
X136076190Y-105057142D01*
X135552380Y-104152380D02*
X135552380Y-103533333D01*
X135933333Y-103866666D01*
X135933333Y-103723809D01*
X135980952Y-103628571D01*
X136028571Y-103580952D01*
X136123809Y-103533333D01*
X136361904Y-103533333D01*
X136457142Y-103580952D01*
X136504761Y-103628571D01*
X136552380Y-103723809D01*
X136552380Y-104009523D01*
X136504761Y-104104761D01*
X136457142Y-104152380D01*
%TO.C,JP2*%
X131802380Y-83595333D02*
X132516666Y-83595333D01*
X132659523Y-83642952D01*
X132754761Y-83738190D01*
X132802380Y-83881047D01*
X132802380Y-83976285D01*
X132802380Y-83119142D02*
X131802380Y-83119142D01*
X131802380Y-82738190D01*
X131850000Y-82642952D01*
X131897619Y-82595333D01*
X131992857Y-82547714D01*
X132135714Y-82547714D01*
X132230952Y-82595333D01*
X132278571Y-82642952D01*
X132326190Y-82738190D01*
X132326190Y-83119142D01*
X131897619Y-82166761D02*
X131850000Y-82119142D01*
X131802380Y-82023904D01*
X131802380Y-81785809D01*
X131850000Y-81690571D01*
X131897619Y-81642952D01*
X131992857Y-81595333D01*
X132088095Y-81595333D01*
X132230952Y-81642952D01*
X132802380Y-82214380D01*
X132802380Y-81595333D01*
%TO.C,JP1*%
X132666666Y-55852380D02*
X132666666Y-56566666D01*
X132619047Y-56709523D01*
X132523809Y-56804761D01*
X132380952Y-56852380D01*
X132285714Y-56852380D01*
X133142857Y-56852380D02*
X133142857Y-55852380D01*
X133523809Y-55852380D01*
X133619047Y-55900000D01*
X133666666Y-55947619D01*
X133714285Y-56042857D01*
X133714285Y-56185714D01*
X133666666Y-56280952D01*
X133619047Y-56328571D01*
X133523809Y-56376190D01*
X133142857Y-56376190D01*
X134666666Y-56852380D02*
X134095238Y-56852380D01*
X134380952Y-56852380D02*
X134380952Y-55852380D01*
X134285714Y-55995238D01*
X134190476Y-56090476D01*
X134095238Y-56138095D01*
%TO.C,J14*%
X140290476Y-117952380D02*
X140290476Y-118666666D01*
X140242857Y-118809523D01*
X140147619Y-118904761D01*
X140004761Y-118952380D01*
X139909523Y-118952380D01*
X141290476Y-118952380D02*
X140719047Y-118952380D01*
X141004761Y-118952380D02*
X141004761Y-117952380D01*
X140909523Y-118095238D01*
X140814285Y-118190476D01*
X140719047Y-118238095D01*
X142147619Y-118285714D02*
X142147619Y-118952380D01*
X141909523Y-117904761D02*
X141671428Y-118619047D01*
X142290476Y-118619047D01*
%TO.C,J7*%
X132016666Y-133202380D02*
X132016666Y-133916666D01*
X131969047Y-134059523D01*
X131873809Y-134154761D01*
X131730952Y-134202380D01*
X131635714Y-134202380D01*
X132397619Y-133202380D02*
X133064285Y-133202380D01*
X132635714Y-134202380D01*
%TO.C,J5*%
X132766666Y-52152380D02*
X132766666Y-52866666D01*
X132719047Y-53009523D01*
X132623809Y-53104761D01*
X132480952Y-53152380D01*
X132385714Y-53152380D01*
X133719047Y-52152380D02*
X133242857Y-52152380D01*
X133195238Y-52628571D01*
X133242857Y-52580952D01*
X133338095Y-52533333D01*
X133576190Y-52533333D01*
X133671428Y-52580952D01*
X133719047Y-52628571D01*
X133766666Y-52723809D01*
X133766666Y-52961904D01*
X133719047Y-53057142D01*
X133671428Y-53104761D01*
X133576190Y-53152380D01*
X133338095Y-53152380D01*
X133242857Y-53104761D01*
X133195238Y-53057142D01*
%TO.C,J4*%
X127166666Y-100552380D02*
X127166666Y-101266666D01*
X127119047Y-101409523D01*
X127023809Y-101504761D01*
X126880952Y-101552380D01*
X126785714Y-101552380D01*
X128071428Y-100885714D02*
X128071428Y-101552380D01*
X127833333Y-100504761D02*
X127595238Y-101219047D01*
X128214285Y-101219047D01*
%TO.C,J3*%
X129866666Y-84952380D02*
X129866666Y-85666666D01*
X129819047Y-85809523D01*
X129723809Y-85904761D01*
X129580952Y-85952380D01*
X129485714Y-85952380D01*
X130247619Y-84952380D02*
X130866666Y-84952380D01*
X130533333Y-85333333D01*
X130676190Y-85333333D01*
X130771428Y-85380952D01*
X130819047Y-85428571D01*
X130866666Y-85523809D01*
X130866666Y-85761904D01*
X130819047Y-85857142D01*
X130771428Y-85904761D01*
X130676190Y-85952380D01*
X130390476Y-85952380D01*
X130295238Y-85904761D01*
X130247619Y-85857142D01*
%TO.C,J2*%
X124808666Y-77352380D02*
X124808666Y-78066666D01*
X124761047Y-78209523D01*
X124665809Y-78304761D01*
X124522952Y-78352380D01*
X124427714Y-78352380D01*
X125237238Y-77447619D02*
X125284857Y-77400000D01*
X125380095Y-77352380D01*
X125618190Y-77352380D01*
X125713428Y-77400000D01*
X125761047Y-77447619D01*
X125808666Y-77542857D01*
X125808666Y-77638095D01*
X125761047Y-77780952D01*
X125189619Y-78352380D01*
X125808666Y-78352380D01*
%TO.C,J1*%
X129866666Y-59952380D02*
X129866666Y-60666666D01*
X129819047Y-60809523D01*
X129723809Y-60904761D01*
X129580952Y-60952380D01*
X129485714Y-60952380D01*
X130866666Y-60952380D02*
X130295238Y-60952380D01*
X130580952Y-60952380D02*
X130580952Y-59952380D01*
X130485714Y-60095238D01*
X130390476Y-60190476D01*
X130295238Y-60238095D01*
%TO.C,D1*%
X137652380Y-114038095D02*
X136652380Y-114038095D01*
X136652380Y-113800000D01*
X136700000Y-113657142D01*
X136795238Y-113561904D01*
X136890476Y-113514285D01*
X137080952Y-113466666D01*
X137223809Y-113466666D01*
X137414285Y-113514285D01*
X137509523Y-113561904D01*
X137604761Y-113657142D01*
X137652380Y-113800000D01*
X137652380Y-114038095D01*
X137652380Y-112514285D02*
X137652380Y-113085714D01*
X137652380Y-112800000D02*
X136652380Y-112800000D01*
X136795238Y-112895238D01*
X136890476Y-112990476D01*
X136938095Y-113085714D01*
%TO.C,C21*%
X165432142Y-88527142D02*
X165384523Y-88574761D01*
X165241666Y-88622380D01*
X165146428Y-88622380D01*
X165003571Y-88574761D01*
X164908333Y-88479523D01*
X164860714Y-88384285D01*
X164813095Y-88193809D01*
X164813095Y-88050952D01*
X164860714Y-87860476D01*
X164908333Y-87765238D01*
X165003571Y-87670000D01*
X165146428Y-87622380D01*
X165241666Y-87622380D01*
X165384523Y-87670000D01*
X165432142Y-87717619D01*
X165813095Y-87717619D02*
X165860714Y-87670000D01*
X165955952Y-87622380D01*
X166194047Y-87622380D01*
X166289285Y-87670000D01*
X166336904Y-87717619D01*
X166384523Y-87812857D01*
X166384523Y-87908095D01*
X166336904Y-88050952D01*
X165765476Y-88622380D01*
X166384523Y-88622380D01*
X167336904Y-88622380D02*
X166765476Y-88622380D01*
X167051190Y-88622380D02*
X167051190Y-87622380D01*
X166955952Y-87765238D01*
X166860714Y-87860476D01*
X166765476Y-87908095D01*
%TO.C,C20*%
X165432142Y-90227142D02*
X165384523Y-90274761D01*
X165241666Y-90322380D01*
X165146428Y-90322380D01*
X165003571Y-90274761D01*
X164908333Y-90179523D01*
X164860714Y-90084285D01*
X164813095Y-89893809D01*
X164813095Y-89750952D01*
X164860714Y-89560476D01*
X164908333Y-89465238D01*
X165003571Y-89370000D01*
X165146428Y-89322380D01*
X165241666Y-89322380D01*
X165384523Y-89370000D01*
X165432142Y-89417619D01*
X165813095Y-89417619D02*
X165860714Y-89370000D01*
X165955952Y-89322380D01*
X166194047Y-89322380D01*
X166289285Y-89370000D01*
X166336904Y-89417619D01*
X166384523Y-89512857D01*
X166384523Y-89608095D01*
X166336904Y-89750952D01*
X165765476Y-90322380D01*
X166384523Y-90322380D01*
X167003571Y-89322380D02*
X167098809Y-89322380D01*
X167194047Y-89370000D01*
X167241666Y-89417619D01*
X167289285Y-89512857D01*
X167336904Y-89703333D01*
X167336904Y-89941428D01*
X167289285Y-90131904D01*
X167241666Y-90227142D01*
X167194047Y-90274761D01*
X167098809Y-90322380D01*
X167003571Y-90322380D01*
X166908333Y-90274761D01*
X166860714Y-90227142D01*
X166813095Y-90131904D01*
X166765476Y-89941428D01*
X166765476Y-89703333D01*
X166813095Y-89512857D01*
X166860714Y-89417619D01*
X166908333Y-89370000D01*
X167003571Y-89322380D01*
%TO.C,C19*%
X146682142Y-83927142D02*
X146634523Y-83974761D01*
X146491666Y-84022380D01*
X146396428Y-84022380D01*
X146253571Y-83974761D01*
X146158333Y-83879523D01*
X146110714Y-83784285D01*
X146063095Y-83593809D01*
X146063095Y-83450952D01*
X146110714Y-83260476D01*
X146158333Y-83165238D01*
X146253571Y-83070000D01*
X146396428Y-83022380D01*
X146491666Y-83022380D01*
X146634523Y-83070000D01*
X146682142Y-83117619D01*
X147634523Y-84022380D02*
X147063095Y-84022380D01*
X147348809Y-84022380D02*
X147348809Y-83022380D01*
X147253571Y-83165238D01*
X147158333Y-83260476D01*
X147063095Y-83308095D01*
X148110714Y-84022380D02*
X148301190Y-84022380D01*
X148396428Y-83974761D01*
X148444047Y-83927142D01*
X148539285Y-83784285D01*
X148586904Y-83593809D01*
X148586904Y-83212857D01*
X148539285Y-83117619D01*
X148491666Y-83070000D01*
X148396428Y-83022380D01*
X148205952Y-83022380D01*
X148110714Y-83070000D01*
X148063095Y-83117619D01*
X148015476Y-83212857D01*
X148015476Y-83450952D01*
X148063095Y-83546190D01*
X148110714Y-83593809D01*
X148205952Y-83641428D01*
X148396428Y-83641428D01*
X148491666Y-83593809D01*
X148539285Y-83546190D01*
X148586904Y-83450952D01*
%TO.C,C10*%
X130732142Y-126857142D02*
X130684523Y-126904761D01*
X130541666Y-126952380D01*
X130446428Y-126952380D01*
X130303571Y-126904761D01*
X130208333Y-126809523D01*
X130160714Y-126714285D01*
X130113095Y-126523809D01*
X130113095Y-126380952D01*
X130160714Y-126190476D01*
X130208333Y-126095238D01*
X130303571Y-126000000D01*
X130446428Y-125952380D01*
X130541666Y-125952380D01*
X130684523Y-126000000D01*
X130732142Y-126047619D01*
X131684523Y-126952380D02*
X131113095Y-126952380D01*
X131398809Y-126952380D02*
X131398809Y-125952380D01*
X131303571Y-126095238D01*
X131208333Y-126190476D01*
X131113095Y-126238095D01*
X132303571Y-125952380D02*
X132398809Y-125952380D01*
X132494047Y-126000000D01*
X132541666Y-126047619D01*
X132589285Y-126142857D01*
X132636904Y-126333333D01*
X132636904Y-126571428D01*
X132589285Y-126761904D01*
X132541666Y-126857142D01*
X132494047Y-126904761D01*
X132398809Y-126952380D01*
X132303571Y-126952380D01*
X132208333Y-126904761D01*
X132160714Y-126857142D01*
X132113095Y-126761904D01*
X132065476Y-126571428D01*
X132065476Y-126333333D01*
X132113095Y-126142857D01*
X132160714Y-126047619D01*
X132208333Y-126000000D01*
X132303571Y-125952380D01*
%TO.C,C9*%
X131208333Y-115857142D02*
X131160714Y-115904761D01*
X131017857Y-115952380D01*
X130922619Y-115952380D01*
X130779761Y-115904761D01*
X130684523Y-115809523D01*
X130636904Y-115714285D01*
X130589285Y-115523809D01*
X130589285Y-115380952D01*
X130636904Y-115190476D01*
X130684523Y-115095238D01*
X130779761Y-115000000D01*
X130922619Y-114952380D01*
X131017857Y-114952380D01*
X131160714Y-115000000D01*
X131208333Y-115047619D01*
X131684523Y-115952380D02*
X131875000Y-115952380D01*
X131970238Y-115904761D01*
X132017857Y-115857142D01*
X132113095Y-115714285D01*
X132160714Y-115523809D01*
X132160714Y-115142857D01*
X132113095Y-115047619D01*
X132065476Y-115000000D01*
X131970238Y-114952380D01*
X131779761Y-114952380D01*
X131684523Y-115000000D01*
X131636904Y-115047619D01*
X131589285Y-115142857D01*
X131589285Y-115380952D01*
X131636904Y-115476190D01*
X131684523Y-115523809D01*
X131779761Y-115571428D01*
X131970238Y-115571428D01*
X132065476Y-115523809D01*
X132113095Y-115476190D01*
X132160714Y-115380952D01*
%TO.C,C4*%
X163357142Y-63966666D02*
X163404761Y-64014285D01*
X163452380Y-64157142D01*
X163452380Y-64252380D01*
X163404761Y-64395238D01*
X163309523Y-64490476D01*
X163214285Y-64538095D01*
X163023809Y-64585714D01*
X162880952Y-64585714D01*
X162690476Y-64538095D01*
X162595238Y-64490476D01*
X162500000Y-64395238D01*
X162452380Y-64252380D01*
X162452380Y-64157142D01*
X162500000Y-64014285D01*
X162547619Y-63966666D01*
X162785714Y-63109523D02*
X163452380Y-63109523D01*
X162404761Y-63347619D02*
X163119047Y-63585714D01*
X163119047Y-62966666D01*
%TO.C,C3*%
X149433333Y-75557142D02*
X149385714Y-75604761D01*
X149242857Y-75652380D01*
X149147619Y-75652380D01*
X149004761Y-75604761D01*
X148909523Y-75509523D01*
X148861904Y-75414285D01*
X148814285Y-75223809D01*
X148814285Y-75080952D01*
X148861904Y-74890476D01*
X148909523Y-74795238D01*
X149004761Y-74700000D01*
X149147619Y-74652380D01*
X149242857Y-74652380D01*
X149385714Y-74700000D01*
X149433333Y-74747619D01*
X149766666Y-74652380D02*
X150385714Y-74652380D01*
X150052380Y-75033333D01*
X150195238Y-75033333D01*
X150290476Y-75080952D01*
X150338095Y-75128571D01*
X150385714Y-75223809D01*
X150385714Y-75461904D01*
X150338095Y-75557142D01*
X150290476Y-75604761D01*
X150195238Y-75652380D01*
X149909523Y-75652380D01*
X149814285Y-75604761D01*
X149766666Y-75557142D01*
%TO.C,C2*%
X154333333Y-138357142D02*
X154285714Y-138404761D01*
X154142857Y-138452380D01*
X154047619Y-138452380D01*
X153904761Y-138404761D01*
X153809523Y-138309523D01*
X153761904Y-138214285D01*
X153714285Y-138023809D01*
X153714285Y-137880952D01*
X153761904Y-137690476D01*
X153809523Y-137595238D01*
X153904761Y-137500000D01*
X154047619Y-137452380D01*
X154142857Y-137452380D01*
X154285714Y-137500000D01*
X154333333Y-137547619D01*
X154714285Y-137547619D02*
X154761904Y-137500000D01*
X154857142Y-137452380D01*
X155095238Y-137452380D01*
X155190476Y-137500000D01*
X155238095Y-137547619D01*
X155285714Y-137642857D01*
X155285714Y-137738095D01*
X155238095Y-137880952D01*
X154666666Y-138452380D01*
X155285714Y-138452380D01*
%TO.C,C1*%
X151058333Y-138357142D02*
X151010714Y-138404761D01*
X150867857Y-138452380D01*
X150772619Y-138452380D01*
X150629761Y-138404761D01*
X150534523Y-138309523D01*
X150486904Y-138214285D01*
X150439285Y-138023809D01*
X150439285Y-137880952D01*
X150486904Y-137690476D01*
X150534523Y-137595238D01*
X150629761Y-137500000D01*
X150772619Y-137452380D01*
X150867857Y-137452380D01*
X151010714Y-137500000D01*
X151058333Y-137547619D01*
X152010714Y-138452380D02*
X151439285Y-138452380D01*
X151725000Y-138452380D02*
X151725000Y-137452380D01*
X151629761Y-137595238D01*
X151534523Y-137690476D01*
X151439285Y-137738095D01*
%TD*%
M02*
