%TF.GenerationSoftware,KiCad,Pcbnew,(6.0.5)*%
%TF.CreationDate,2022-06-07T13:18:44+00:00*%
%TF.ProjectId,co2_sensor_node,636f325f-7365-46e7-936f-725f6e6f6465,rev?*%
%TF.SameCoordinates,Original*%
%TF.FileFunction,Legend,Bot*%
%TF.FilePolarity,Positive*%
%FSLAX46Y46*%
G04 Gerber Fmt 4.6, Leading zero omitted, Abs format (unit mm)*
G04 Created by KiCad (PCBNEW (6.0.5)) date 2022-06-07 13:18:44*
%MOMM*%
%LPD*%
G01*
G04 APERTURE LIST*
G04 Aperture macros list*
%AMRoundRect*
0 Rectangle with rounded corners*
0 $1 Rounding radius*
0 $2 $3 $4 $5 $6 $7 $8 $9 X,Y pos of 4 corners*
0 Add a 4 corners polygon primitive as box body*
4,1,4,$2,$3,$4,$5,$6,$7,$8,$9,$2,$3,0*
0 Add four circle primitives for the rounded corners*
1,1,$1+$1,$2,$3*
1,1,$1+$1,$4,$5*
1,1,$1+$1,$6,$7*
1,1,$1+$1,$8,$9*
0 Add four rect primitives between the rounded corners*
20,1,$1+$1,$2,$3,$4,$5,0*
20,1,$1+$1,$4,$5,$6,$7,0*
20,1,$1+$1,$6,$7,$8,$9,0*
20,1,$1+$1,$8,$9,$2,$3,0*%
G04 Aperture macros list end*
%ADD10RoundRect,0.015000X0.850000X0.850000X-0.850000X0.850000X-0.850000X-0.850000X0.850000X-0.850000X0*%
%ADD11O,1.730000X1.730000*%
%ADD12C,2.030000*%
%ADD13RoundRect,0.015000X1.980000X-0.990000X1.980000X0.990000X-1.980000X0.990000X-1.980000X-0.990000X0*%
%ADD14O,3.990000X2.010000*%
%ADD15C,3.230000*%
%ADD16RoundRect,0.015000X0.850000X-0.850000X0.850000X0.850000X-0.850000X0.850000X-0.850000X-0.850000X0*%
%ADD17RoundRect,0.265000X-0.725000X0.600000X-0.725000X-0.600000X0.725000X-0.600000X0.725000X0.600000X0*%
%ADD18O,1.980000X1.730000*%
%ADD19RoundRect,0.015000X-0.850000X-0.850000X0.850000X-0.850000X0.850000X0.850000X-0.850000X0.850000X0*%
%ADD20C,1.230000*%
%ADD21RoundRect,0.265000X-0.750000X0.600000X-0.750000X-0.600000X0.750000X-0.600000X0.750000X0.600000X0*%
%ADD22O,2.030000X1.730000*%
%ADD23RoundRect,0.265000X-0.600000X-0.725000X0.600000X-0.725000X0.600000X0.725000X-0.600000X0.725000X0*%
%ADD24O,1.730000X1.980000*%
%ADD25RoundRect,0.015000X-0.800000X-0.800000X0.800000X-0.800000X0.800000X0.800000X-0.800000X0.800000X0*%
%ADD26C,1.630000*%
%ADD27C,1.030000*%
%ADD28RoundRect,0.015000X-1.980000X0.990000X-1.980000X-0.990000X1.980000X-0.990000X1.980000X0.990000X0*%
G04 APERTURE END LIST*
%LPC*%
D10*
%TO.C,JP1*%
X169500000Y-106750000D03*
D11*
X169500000Y-104210000D03*
%TD*%
D12*
%TO.C,TP6*%
X156000000Y-96500000D03*
%TD*%
D13*
%TO.C,J3*%
X126625000Y-117335000D03*
D14*
X126625000Y-112335000D03*
%TD*%
D15*
%TO.C,H1*%
X118500000Y-137000000D03*
%TD*%
D12*
%TO.C,TP5*%
X171250000Y-88750000D03*
%TD*%
%TO.C,TP2*%
X154500000Y-72500000D03*
%TD*%
D13*
%TO.C,J5*%
X126625000Y-106045000D03*
D14*
X126625000Y-101045000D03*
X126625000Y-96045000D03*
%TD*%
D12*
%TO.C,TP4*%
X157250000Y-76000000D03*
%TD*%
D16*
%TO.C,J11*%
X179900000Y-122750000D03*
D11*
X182440000Y-122750000D03*
X184980000Y-122750000D03*
X187520000Y-122750000D03*
X190060000Y-122750000D03*
X192600000Y-122750000D03*
%TD*%
D15*
%TO.C,H4*%
X182500000Y-137000000D03*
%TD*%
D17*
%TO.C,J9*%
X155250000Y-103000000D03*
D18*
X155250000Y-105500000D03*
X155250000Y-108000000D03*
X155250000Y-110500000D03*
%TD*%
D12*
%TO.C,TP15*%
X179500000Y-92750000D03*
%TD*%
D10*
%TO.C,J2*%
X114000000Y-86290000D03*
D11*
X114000000Y-83750000D03*
X114000000Y-81210000D03*
%TD*%
D19*
%TO.C,J12*%
X164500000Y-121475000D03*
D11*
X164500000Y-124015000D03*
X164500000Y-126555000D03*
%TD*%
D12*
%TO.C,TP1*%
X162750000Y-90250000D03*
%TD*%
D20*
%TO.C,J7*%
X150775000Y-58900000D03*
D21*
X152775000Y-60500000D03*
D22*
X152775000Y-63000000D03*
%TD*%
D12*
%TO.C,TP16*%
X104750000Y-112000000D03*
%TD*%
D13*
%TO.C,J4*%
X126625000Y-128835000D03*
D14*
X126625000Y-123835000D03*
%TD*%
D12*
%TO.C,TP10*%
X105750000Y-93500000D03*
%TD*%
D15*
%TO.C,H2*%
X118500000Y-73000000D03*
%TD*%
D12*
%TO.C,TP13*%
X109000000Y-83750000D03*
%TD*%
%TO.C,TP18*%
X104250000Y-108000000D03*
%TD*%
D19*
%TO.C,JP2*%
X169500000Y-114975000D03*
D11*
X169500000Y-117515000D03*
%TD*%
D15*
%TO.C,H3*%
X182500000Y-73000000D03*
%TD*%
D12*
%TO.C,TP9*%
X167250000Y-88000000D03*
%TD*%
%TO.C,TP12*%
X109000000Y-101000000D03*
%TD*%
D23*
%TO.C,J10*%
X134000000Y-71250000D03*
D24*
X136500000Y-71250000D03*
X139000000Y-71250000D03*
X141500000Y-71250000D03*
%TD*%
D13*
%TO.C,J6*%
X126625000Y-89045000D03*
D14*
X126625000Y-84045000D03*
X126625000Y-79045000D03*
%TD*%
D12*
%TO.C,TP11*%
X165250000Y-133500000D03*
%TD*%
%TO.C,TP8*%
X154000000Y-81500000D03*
%TD*%
%TO.C,TP3*%
X146500000Y-72500000D03*
%TD*%
%TO.C,TP19*%
X105750000Y-120000000D03*
%TD*%
D25*
%TO.C,C10*%
X113347349Y-128750000D03*
D26*
X116847349Y-128750000D03*
%TD*%
D10*
%TO.C,J1*%
X114000000Y-103540000D03*
D11*
X114000000Y-101000000D03*
X114000000Y-98460000D03*
%TD*%
D12*
%TO.C,TP14*%
X183500000Y-92750000D03*
%TD*%
%TO.C,TP20*%
X168000000Y-142250000D03*
%TD*%
%TO.C,TP7*%
X160000000Y-96500000D03*
%TD*%
D27*
%TO.C,J14*%
X149700000Y-145550000D03*
X149700000Y-137550000D03*
%TD*%
D12*
%TO.C,TP17*%
X105250000Y-116000000D03*
%TD*%
%TO.C,TP21*%
X165250000Y-139250000D03*
%TD*%
%TO.C,TP22*%
X167500000Y-146250000D03*
%TD*%
D28*
%TO.C,J13*%
X155625000Y-121665000D03*
D14*
X155625000Y-126665000D03*
%TD*%
D12*
%TO.C,TP23*%
X168000000Y-136500000D03*
%TD*%
D20*
%TO.C,J8*%
X173900000Y-84225000D03*
D23*
X175500000Y-82225000D03*
D24*
X178000000Y-82225000D03*
X180500000Y-82225000D03*
%TD*%
M02*
