%TF.GenerationSoftware,KiCad,Pcbnew,(5.1.10)-1*%
%TF.CreationDate,2021-05-28T10:13:55+00:00*%
%TF.ProjectId,co2_sensor_node,636f325f-7365-46e7-936f-725f6e6f6465,rev?*%
%TF.SameCoordinates,Original*%
%TF.FileFunction,Paste,Top*%
%TF.FilePolarity,Positive*%
%FSLAX46Y46*%
G04 Gerber Fmt 4.6, Leading zero omitted, Abs format (unit mm)*
G04 Created by KiCad (PCBNEW (5.1.10)-1) date 2021-05-28 10:13:55*
%MOMM*%
%LPD*%
G01*
G04 APERTURE LIST*
%ADD10R,0.900000X2.000000*%
%ADD11R,2.000000X0.900000*%
%ADD12R,5.000000X5.000000*%
%ADD13R,0.580000X0.720000*%
%ADD14R,0.720000X0.580000*%
%ADD15R,1.000000X2.000000*%
%ADD16R,0.800000X0.900000*%
%ADD17R,0.900000X0.800000*%
%ADD18R,1.300000X1.700000*%
G04 APERTURE END LIST*
%TO.C,J6*%
G36*
G01*
X172180000Y-116500000D02*
X170220000Y-116500000D01*
G75*
G02*
X170100000Y-116380000I0J120000D01*
G01*
X170100000Y-115420000D01*
G75*
G02*
X170220000Y-115300000I120000J0D01*
G01*
X172180000Y-115300000D01*
G75*
G02*
X172300000Y-115420000I0J-120000D01*
G01*
X172300000Y-116380000D01*
G75*
G02*
X172180000Y-116500000I-120000J0D01*
G01*
G37*
G36*
G01*
X172180000Y-132000000D02*
X170220000Y-132000000D01*
G75*
G02*
X170100000Y-131880000I0J120000D01*
G01*
X170100000Y-130920000D01*
G75*
G02*
X170220000Y-130800000I120000J0D01*
G01*
X172180000Y-130800000D01*
G75*
G02*
X172300000Y-130920000I0J-120000D01*
G01*
X172300000Y-131880000D01*
G75*
G02*
X172180000Y-132000000I-120000J0D01*
G01*
G37*
G36*
G01*
X162200000Y-117600000D02*
X161000000Y-117600000D01*
G75*
G02*
X160850000Y-117450000I0J150000D01*
G01*
X160850000Y-116150000D01*
G75*
G02*
X161000000Y-116000000I150000J0D01*
G01*
X162200000Y-116000000D01*
G75*
G02*
X162350000Y-116150000I0J-150000D01*
G01*
X162350000Y-117450000D01*
G75*
G02*
X162200000Y-117600000I-150000J0D01*
G01*
G37*
G36*
G01*
X162230000Y-132000000D02*
X160970000Y-132000000D01*
G75*
G02*
X160850000Y-131880000I0J120000D01*
G01*
X160850000Y-130920000D01*
G75*
G02*
X160970000Y-130800000I120000J0D01*
G01*
X162230000Y-130800000D01*
G75*
G02*
X162350000Y-130920000I0J-120000D01*
G01*
X162350000Y-131880000D01*
G75*
G02*
X162230000Y-132000000I-120000J0D01*
G01*
G37*
G36*
G01*
X161225000Y-122850000D02*
X159975000Y-122850000D01*
G75*
G02*
X159800000Y-122675000I0J175000D01*
G01*
X159800000Y-122325000D01*
G75*
G02*
X159975000Y-122150000I175000J0D01*
G01*
X161225000Y-122150000D01*
G75*
G02*
X161400000Y-122325000I0J-175000D01*
G01*
X161400000Y-122675000D01*
G75*
G02*
X161225000Y-122850000I-175000J0D01*
G01*
G37*
G36*
G01*
X161225000Y-130550000D02*
X159975000Y-130550000D01*
G75*
G02*
X159800000Y-130375000I0J175000D01*
G01*
X159800000Y-130025000D01*
G75*
G02*
X159975000Y-129850000I175000J0D01*
G01*
X161225000Y-129850000D01*
G75*
G02*
X161400000Y-130025000I0J-175000D01*
G01*
X161400000Y-130375000D01*
G75*
G02*
X161225000Y-130550000I-175000J0D01*
G01*
G37*
G36*
G01*
X161225000Y-129450000D02*
X159975000Y-129450000D01*
G75*
G02*
X159800000Y-129275000I0J175000D01*
G01*
X159800000Y-128925000D01*
G75*
G02*
X159975000Y-128750000I175000J0D01*
G01*
X161225000Y-128750000D01*
G75*
G02*
X161400000Y-128925000I0J-175000D01*
G01*
X161400000Y-129275000D01*
G75*
G02*
X161225000Y-129450000I-175000J0D01*
G01*
G37*
G36*
G01*
X161225000Y-128350000D02*
X159975000Y-128350000D01*
G75*
G02*
X159800000Y-128175000I0J175000D01*
G01*
X159800000Y-127825000D01*
G75*
G02*
X159975000Y-127650000I175000J0D01*
G01*
X161225000Y-127650000D01*
G75*
G02*
X161400000Y-127825000I0J-175000D01*
G01*
X161400000Y-128175000D01*
G75*
G02*
X161225000Y-128350000I-175000J0D01*
G01*
G37*
G36*
G01*
X161225000Y-127250000D02*
X159975000Y-127250000D01*
G75*
G02*
X159800000Y-127075000I0J175000D01*
G01*
X159800000Y-126725000D01*
G75*
G02*
X159975000Y-126550000I175000J0D01*
G01*
X161225000Y-126550000D01*
G75*
G02*
X161400000Y-126725000I0J-175000D01*
G01*
X161400000Y-127075000D01*
G75*
G02*
X161225000Y-127250000I-175000J0D01*
G01*
G37*
G36*
G01*
X161225000Y-126150000D02*
X159975000Y-126150000D01*
G75*
G02*
X159800000Y-125975000I0J175000D01*
G01*
X159800000Y-125625000D01*
G75*
G02*
X159975000Y-125450000I175000J0D01*
G01*
X161225000Y-125450000D01*
G75*
G02*
X161400000Y-125625000I0J-175000D01*
G01*
X161400000Y-125975000D01*
G75*
G02*
X161225000Y-126150000I-175000J0D01*
G01*
G37*
G36*
G01*
X161225000Y-125050000D02*
X159975000Y-125050000D01*
G75*
G02*
X159800000Y-124875000I0J175000D01*
G01*
X159800000Y-124525000D01*
G75*
G02*
X159975000Y-124350000I175000J0D01*
G01*
X161225000Y-124350000D01*
G75*
G02*
X161400000Y-124525000I0J-175000D01*
G01*
X161400000Y-124875000D01*
G75*
G02*
X161225000Y-125050000I-175000J0D01*
G01*
G37*
G36*
G01*
X161225000Y-123950000D02*
X159975000Y-123950000D01*
G75*
G02*
X159800000Y-123775000I0J175000D01*
G01*
X159800000Y-123425000D01*
G75*
G02*
X159975000Y-123250000I175000J0D01*
G01*
X161225000Y-123250000D01*
G75*
G02*
X161400000Y-123425000I0J-175000D01*
G01*
X161400000Y-123775000D01*
G75*
G02*
X161225000Y-123950000I-175000J0D01*
G01*
G37*
G36*
G01*
X161225000Y-121750000D02*
X159975000Y-121750000D01*
G75*
G02*
X159800000Y-121575000I0J175000D01*
G01*
X159800000Y-121225000D01*
G75*
G02*
X159975000Y-121050000I175000J0D01*
G01*
X161225000Y-121050000D01*
G75*
G02*
X161400000Y-121225000I0J-175000D01*
G01*
X161400000Y-121575000D01*
G75*
G02*
X161225000Y-121750000I-175000J0D01*
G01*
G37*
%TD*%
%TO.C,SW1*%
G36*
G01*
X149550000Y-88000000D02*
X149550000Y-87200000D01*
G75*
G02*
X149650000Y-87100000I100000J0D01*
G01*
X151350000Y-87100000D01*
G75*
G02*
X151450000Y-87200000I0J-100000D01*
G01*
X151450000Y-88000000D01*
G75*
G02*
X151350000Y-88100000I-100000J0D01*
G01*
X149650000Y-88100000D01*
G75*
G02*
X149550000Y-88000000I0J100000D01*
G01*
G37*
G36*
G01*
X158650000Y-88000000D02*
X158650000Y-87200000D01*
G75*
G02*
X158750000Y-87100000I100000J0D01*
G01*
X160450000Y-87100000D01*
G75*
G02*
X160550000Y-87200000I0J-100000D01*
G01*
X160550000Y-88000000D01*
G75*
G02*
X160450000Y-88100000I-100000J0D01*
G01*
X158750000Y-88100000D01*
G75*
G02*
X158650000Y-88000000I0J100000D01*
G01*
G37*
G36*
G01*
X158650000Y-83500000D02*
X158650000Y-82700000D01*
G75*
G02*
X158750000Y-82600000I100000J0D01*
G01*
X160450000Y-82600000D01*
G75*
G02*
X160550000Y-82700000I0J-100000D01*
G01*
X160550000Y-83500000D01*
G75*
G02*
X160450000Y-83600000I-100000J0D01*
G01*
X158750000Y-83600000D01*
G75*
G02*
X158650000Y-83500000I0J100000D01*
G01*
G37*
G36*
G01*
X149550000Y-83500000D02*
X149550000Y-82700000D01*
G75*
G02*
X149650000Y-82600000I100000J0D01*
G01*
X151350000Y-82600000D01*
G75*
G02*
X151450000Y-82700000I0J-100000D01*
G01*
X151450000Y-83500000D01*
G75*
G02*
X151350000Y-83600000I-100000J0D01*
G01*
X149650000Y-83600000D01*
G75*
G02*
X149550000Y-83500000I0J100000D01*
G01*
G37*
%TD*%
D10*
%TO.C,U5*%
X163755000Y-109252000D03*
X162485000Y-109252000D03*
X161215000Y-109252000D03*
X159945000Y-109252000D03*
X158675000Y-109252000D03*
X157405000Y-109252000D03*
X156135000Y-109252000D03*
X154865000Y-109252000D03*
X153595000Y-109252000D03*
X152325000Y-109252000D03*
X151055000Y-109252000D03*
X149785000Y-109252000D03*
X148515000Y-109252000D03*
X147245000Y-109252000D03*
D11*
X146245000Y-106467000D03*
X146245000Y-105197000D03*
X146245000Y-103927000D03*
X146245000Y-102657000D03*
X146245000Y-101387000D03*
X146245000Y-100117000D03*
X146245000Y-98847000D03*
X146245000Y-97577000D03*
X146245000Y-96307000D03*
X146245000Y-95037000D03*
D10*
X147245000Y-92252000D03*
X148515000Y-92252000D03*
X149785000Y-92252000D03*
X151055000Y-92252000D03*
X152325000Y-92252000D03*
X153595000Y-92252000D03*
X154865000Y-92252000D03*
X156135000Y-92252000D03*
X157405000Y-92252000D03*
X158675000Y-92252000D03*
X159945000Y-92252000D03*
X161215000Y-92252000D03*
X162485000Y-92252000D03*
X163755000Y-92252000D03*
D12*
X156255000Y-99752000D03*
%TD*%
%TO.C,U4*%
G36*
G01*
X129175000Y-122482500D02*
X129175000Y-122117500D01*
G75*
G02*
X129357500Y-121935000I182500J0D01*
G01*
X129722500Y-121935000D01*
G75*
G02*
X129905000Y-122117500I0J-182500D01*
G01*
X129905000Y-122482500D01*
G75*
G02*
X129722500Y-122665000I-182500J0D01*
G01*
X129357500Y-122665000D01*
G75*
G02*
X129175000Y-122482500I0J182500D01*
G01*
G37*
G36*
G01*
X129175000Y-121642500D02*
X129175000Y-121277500D01*
G75*
G02*
X129357500Y-121095000I182500J0D01*
G01*
X129722500Y-121095000D01*
G75*
G02*
X129905000Y-121277500I0J-182500D01*
G01*
X129905000Y-121642500D01*
G75*
G02*
X129722500Y-121825000I-182500J0D01*
G01*
X129357500Y-121825000D01*
G75*
G02*
X129175000Y-121642500I0J182500D01*
G01*
G37*
G36*
G01*
X128335000Y-122482500D02*
X128335000Y-122117500D01*
G75*
G02*
X128517500Y-121935000I182500J0D01*
G01*
X128882500Y-121935000D01*
G75*
G02*
X129065000Y-122117500I0J-182500D01*
G01*
X129065000Y-122482500D01*
G75*
G02*
X128882500Y-122665000I-182500J0D01*
G01*
X128517500Y-122665000D01*
G75*
G02*
X128335000Y-122482500I0J182500D01*
G01*
G37*
G36*
G01*
X128335000Y-121642500D02*
X128335000Y-121277500D01*
G75*
G02*
X128517500Y-121095000I182500J0D01*
G01*
X128882500Y-121095000D01*
G75*
G02*
X129065000Y-121277500I0J-182500D01*
G01*
X129065000Y-121642500D01*
G75*
G02*
X128882500Y-121825000I-182500J0D01*
G01*
X128517500Y-121825000D01*
G75*
G02*
X128335000Y-121642500I0J182500D01*
G01*
G37*
G36*
G01*
X128245000Y-120767500D02*
X128245000Y-120067500D01*
G75*
G02*
X128307500Y-120005000I62500J0D01*
G01*
X128432500Y-120005000D01*
G75*
G02*
X128495000Y-120067500I0J-62500D01*
G01*
X128495000Y-120767500D01*
G75*
G02*
X128432500Y-120830000I-62500J0D01*
G01*
X128307500Y-120830000D01*
G75*
G02*
X128245000Y-120767500I0J62500D01*
G01*
G37*
G36*
G01*
X128745000Y-120767500D02*
X128745000Y-120067500D01*
G75*
G02*
X128807500Y-120005000I62500J0D01*
G01*
X128932500Y-120005000D01*
G75*
G02*
X128995000Y-120067500I0J-62500D01*
G01*
X128995000Y-120767500D01*
G75*
G02*
X128932500Y-120830000I-62500J0D01*
G01*
X128807500Y-120830000D01*
G75*
G02*
X128745000Y-120767500I0J62500D01*
G01*
G37*
G36*
G01*
X129245000Y-120767500D02*
X129245000Y-120067500D01*
G75*
G02*
X129307500Y-120005000I62500J0D01*
G01*
X129432500Y-120005000D01*
G75*
G02*
X129495000Y-120067500I0J-62500D01*
G01*
X129495000Y-120767500D01*
G75*
G02*
X129432500Y-120830000I-62500J0D01*
G01*
X129307500Y-120830000D01*
G75*
G02*
X129245000Y-120767500I0J62500D01*
G01*
G37*
G36*
G01*
X129745000Y-120767500D02*
X129745000Y-120067500D01*
G75*
G02*
X129807500Y-120005000I62500J0D01*
G01*
X129932500Y-120005000D01*
G75*
G02*
X129995000Y-120067500I0J-62500D01*
G01*
X129995000Y-120767500D01*
G75*
G02*
X129932500Y-120830000I-62500J0D01*
G01*
X129807500Y-120830000D01*
G75*
G02*
X129745000Y-120767500I0J62500D01*
G01*
G37*
G36*
G01*
X130170000Y-121192500D02*
X130170000Y-121067500D01*
G75*
G02*
X130232500Y-121005000I62500J0D01*
G01*
X130932500Y-121005000D01*
G75*
G02*
X130995000Y-121067500I0J-62500D01*
G01*
X130995000Y-121192500D01*
G75*
G02*
X130932500Y-121255000I-62500J0D01*
G01*
X130232500Y-121255000D01*
G75*
G02*
X130170000Y-121192500I0J62500D01*
G01*
G37*
G36*
G01*
X130170000Y-121692500D02*
X130170000Y-121567500D01*
G75*
G02*
X130232500Y-121505000I62500J0D01*
G01*
X130932500Y-121505000D01*
G75*
G02*
X130995000Y-121567500I0J-62500D01*
G01*
X130995000Y-121692500D01*
G75*
G02*
X130932500Y-121755000I-62500J0D01*
G01*
X130232500Y-121755000D01*
G75*
G02*
X130170000Y-121692500I0J62500D01*
G01*
G37*
G36*
G01*
X130170000Y-122192500D02*
X130170000Y-122067500D01*
G75*
G02*
X130232500Y-122005000I62500J0D01*
G01*
X130932500Y-122005000D01*
G75*
G02*
X130995000Y-122067500I0J-62500D01*
G01*
X130995000Y-122192500D01*
G75*
G02*
X130932500Y-122255000I-62500J0D01*
G01*
X130232500Y-122255000D01*
G75*
G02*
X130170000Y-122192500I0J62500D01*
G01*
G37*
G36*
G01*
X130170000Y-122692500D02*
X130170000Y-122567500D01*
G75*
G02*
X130232500Y-122505000I62500J0D01*
G01*
X130932500Y-122505000D01*
G75*
G02*
X130995000Y-122567500I0J-62500D01*
G01*
X130995000Y-122692500D01*
G75*
G02*
X130932500Y-122755000I-62500J0D01*
G01*
X130232500Y-122755000D01*
G75*
G02*
X130170000Y-122692500I0J62500D01*
G01*
G37*
G36*
G01*
X129745000Y-123692500D02*
X129745000Y-122992500D01*
G75*
G02*
X129807500Y-122930000I62500J0D01*
G01*
X129932500Y-122930000D01*
G75*
G02*
X129995000Y-122992500I0J-62500D01*
G01*
X129995000Y-123692500D01*
G75*
G02*
X129932500Y-123755000I-62500J0D01*
G01*
X129807500Y-123755000D01*
G75*
G02*
X129745000Y-123692500I0J62500D01*
G01*
G37*
G36*
G01*
X129245000Y-123692500D02*
X129245000Y-122992500D01*
G75*
G02*
X129307500Y-122930000I62500J0D01*
G01*
X129432500Y-122930000D01*
G75*
G02*
X129495000Y-122992500I0J-62500D01*
G01*
X129495000Y-123692500D01*
G75*
G02*
X129432500Y-123755000I-62500J0D01*
G01*
X129307500Y-123755000D01*
G75*
G02*
X129245000Y-123692500I0J62500D01*
G01*
G37*
G36*
G01*
X128745000Y-123692500D02*
X128745000Y-122992500D01*
G75*
G02*
X128807500Y-122930000I62500J0D01*
G01*
X128932500Y-122930000D01*
G75*
G02*
X128995000Y-122992500I0J-62500D01*
G01*
X128995000Y-123692500D01*
G75*
G02*
X128932500Y-123755000I-62500J0D01*
G01*
X128807500Y-123755000D01*
G75*
G02*
X128745000Y-123692500I0J62500D01*
G01*
G37*
G36*
G01*
X128245000Y-123692500D02*
X128245000Y-122992500D01*
G75*
G02*
X128307500Y-122930000I62500J0D01*
G01*
X128432500Y-122930000D01*
G75*
G02*
X128495000Y-122992500I0J-62500D01*
G01*
X128495000Y-123692500D01*
G75*
G02*
X128432500Y-123755000I-62500J0D01*
G01*
X128307500Y-123755000D01*
G75*
G02*
X128245000Y-123692500I0J62500D01*
G01*
G37*
G36*
G01*
X127245000Y-122692500D02*
X127245000Y-122567500D01*
G75*
G02*
X127307500Y-122505000I62500J0D01*
G01*
X128007500Y-122505000D01*
G75*
G02*
X128070000Y-122567500I0J-62500D01*
G01*
X128070000Y-122692500D01*
G75*
G02*
X128007500Y-122755000I-62500J0D01*
G01*
X127307500Y-122755000D01*
G75*
G02*
X127245000Y-122692500I0J62500D01*
G01*
G37*
G36*
G01*
X127245000Y-122192500D02*
X127245000Y-122067500D01*
G75*
G02*
X127307500Y-122005000I62500J0D01*
G01*
X128007500Y-122005000D01*
G75*
G02*
X128070000Y-122067500I0J-62500D01*
G01*
X128070000Y-122192500D01*
G75*
G02*
X128007500Y-122255000I-62500J0D01*
G01*
X127307500Y-122255000D01*
G75*
G02*
X127245000Y-122192500I0J62500D01*
G01*
G37*
G36*
G01*
X127245000Y-121692500D02*
X127245000Y-121567500D01*
G75*
G02*
X127307500Y-121505000I62500J0D01*
G01*
X128007500Y-121505000D01*
G75*
G02*
X128070000Y-121567500I0J-62500D01*
G01*
X128070000Y-121692500D01*
G75*
G02*
X128007500Y-121755000I-62500J0D01*
G01*
X127307500Y-121755000D01*
G75*
G02*
X127245000Y-121692500I0J62500D01*
G01*
G37*
G36*
G01*
X127245000Y-121192500D02*
X127245000Y-121067500D01*
G75*
G02*
X127307500Y-121005000I62500J0D01*
G01*
X128007500Y-121005000D01*
G75*
G02*
X128070000Y-121067500I0J-62500D01*
G01*
X128070000Y-121192500D01*
G75*
G02*
X128007500Y-121255000I-62500J0D01*
G01*
X127307500Y-121255000D01*
G75*
G02*
X127245000Y-121192500I0J62500D01*
G01*
G37*
%TD*%
%TO.C,U3*%
G36*
G01*
X129135000Y-111502500D02*
X129135000Y-111137500D01*
G75*
G02*
X129317500Y-110955000I182500J0D01*
G01*
X129682500Y-110955000D01*
G75*
G02*
X129865000Y-111137500I0J-182500D01*
G01*
X129865000Y-111502500D01*
G75*
G02*
X129682500Y-111685000I-182500J0D01*
G01*
X129317500Y-111685000D01*
G75*
G02*
X129135000Y-111502500I0J182500D01*
G01*
G37*
G36*
G01*
X129135000Y-110662500D02*
X129135000Y-110297500D01*
G75*
G02*
X129317500Y-110115000I182500J0D01*
G01*
X129682500Y-110115000D01*
G75*
G02*
X129865000Y-110297500I0J-182500D01*
G01*
X129865000Y-110662500D01*
G75*
G02*
X129682500Y-110845000I-182500J0D01*
G01*
X129317500Y-110845000D01*
G75*
G02*
X129135000Y-110662500I0J182500D01*
G01*
G37*
G36*
G01*
X128295000Y-111502500D02*
X128295000Y-111137500D01*
G75*
G02*
X128477500Y-110955000I182500J0D01*
G01*
X128842500Y-110955000D01*
G75*
G02*
X129025000Y-111137500I0J-182500D01*
G01*
X129025000Y-111502500D01*
G75*
G02*
X128842500Y-111685000I-182500J0D01*
G01*
X128477500Y-111685000D01*
G75*
G02*
X128295000Y-111502500I0J182500D01*
G01*
G37*
G36*
G01*
X128295000Y-110662500D02*
X128295000Y-110297500D01*
G75*
G02*
X128477500Y-110115000I182500J0D01*
G01*
X128842500Y-110115000D01*
G75*
G02*
X129025000Y-110297500I0J-182500D01*
G01*
X129025000Y-110662500D01*
G75*
G02*
X128842500Y-110845000I-182500J0D01*
G01*
X128477500Y-110845000D01*
G75*
G02*
X128295000Y-110662500I0J182500D01*
G01*
G37*
G36*
G01*
X128205000Y-109787500D02*
X128205000Y-109087500D01*
G75*
G02*
X128267500Y-109025000I62500J0D01*
G01*
X128392500Y-109025000D01*
G75*
G02*
X128455000Y-109087500I0J-62500D01*
G01*
X128455000Y-109787500D01*
G75*
G02*
X128392500Y-109850000I-62500J0D01*
G01*
X128267500Y-109850000D01*
G75*
G02*
X128205000Y-109787500I0J62500D01*
G01*
G37*
G36*
G01*
X128705000Y-109787500D02*
X128705000Y-109087500D01*
G75*
G02*
X128767500Y-109025000I62500J0D01*
G01*
X128892500Y-109025000D01*
G75*
G02*
X128955000Y-109087500I0J-62500D01*
G01*
X128955000Y-109787500D01*
G75*
G02*
X128892500Y-109850000I-62500J0D01*
G01*
X128767500Y-109850000D01*
G75*
G02*
X128705000Y-109787500I0J62500D01*
G01*
G37*
G36*
G01*
X129205000Y-109787500D02*
X129205000Y-109087500D01*
G75*
G02*
X129267500Y-109025000I62500J0D01*
G01*
X129392500Y-109025000D01*
G75*
G02*
X129455000Y-109087500I0J-62500D01*
G01*
X129455000Y-109787500D01*
G75*
G02*
X129392500Y-109850000I-62500J0D01*
G01*
X129267500Y-109850000D01*
G75*
G02*
X129205000Y-109787500I0J62500D01*
G01*
G37*
G36*
G01*
X129705000Y-109787500D02*
X129705000Y-109087500D01*
G75*
G02*
X129767500Y-109025000I62500J0D01*
G01*
X129892500Y-109025000D01*
G75*
G02*
X129955000Y-109087500I0J-62500D01*
G01*
X129955000Y-109787500D01*
G75*
G02*
X129892500Y-109850000I-62500J0D01*
G01*
X129767500Y-109850000D01*
G75*
G02*
X129705000Y-109787500I0J62500D01*
G01*
G37*
G36*
G01*
X130130000Y-110212500D02*
X130130000Y-110087500D01*
G75*
G02*
X130192500Y-110025000I62500J0D01*
G01*
X130892500Y-110025000D01*
G75*
G02*
X130955000Y-110087500I0J-62500D01*
G01*
X130955000Y-110212500D01*
G75*
G02*
X130892500Y-110275000I-62500J0D01*
G01*
X130192500Y-110275000D01*
G75*
G02*
X130130000Y-110212500I0J62500D01*
G01*
G37*
G36*
G01*
X130130000Y-110712500D02*
X130130000Y-110587500D01*
G75*
G02*
X130192500Y-110525000I62500J0D01*
G01*
X130892500Y-110525000D01*
G75*
G02*
X130955000Y-110587500I0J-62500D01*
G01*
X130955000Y-110712500D01*
G75*
G02*
X130892500Y-110775000I-62500J0D01*
G01*
X130192500Y-110775000D01*
G75*
G02*
X130130000Y-110712500I0J62500D01*
G01*
G37*
G36*
G01*
X130130000Y-111212500D02*
X130130000Y-111087500D01*
G75*
G02*
X130192500Y-111025000I62500J0D01*
G01*
X130892500Y-111025000D01*
G75*
G02*
X130955000Y-111087500I0J-62500D01*
G01*
X130955000Y-111212500D01*
G75*
G02*
X130892500Y-111275000I-62500J0D01*
G01*
X130192500Y-111275000D01*
G75*
G02*
X130130000Y-111212500I0J62500D01*
G01*
G37*
G36*
G01*
X130130000Y-111712500D02*
X130130000Y-111587500D01*
G75*
G02*
X130192500Y-111525000I62500J0D01*
G01*
X130892500Y-111525000D01*
G75*
G02*
X130955000Y-111587500I0J-62500D01*
G01*
X130955000Y-111712500D01*
G75*
G02*
X130892500Y-111775000I-62500J0D01*
G01*
X130192500Y-111775000D01*
G75*
G02*
X130130000Y-111712500I0J62500D01*
G01*
G37*
G36*
G01*
X129705000Y-112712500D02*
X129705000Y-112012500D01*
G75*
G02*
X129767500Y-111950000I62500J0D01*
G01*
X129892500Y-111950000D01*
G75*
G02*
X129955000Y-112012500I0J-62500D01*
G01*
X129955000Y-112712500D01*
G75*
G02*
X129892500Y-112775000I-62500J0D01*
G01*
X129767500Y-112775000D01*
G75*
G02*
X129705000Y-112712500I0J62500D01*
G01*
G37*
G36*
G01*
X129205000Y-112712500D02*
X129205000Y-112012500D01*
G75*
G02*
X129267500Y-111950000I62500J0D01*
G01*
X129392500Y-111950000D01*
G75*
G02*
X129455000Y-112012500I0J-62500D01*
G01*
X129455000Y-112712500D01*
G75*
G02*
X129392500Y-112775000I-62500J0D01*
G01*
X129267500Y-112775000D01*
G75*
G02*
X129205000Y-112712500I0J62500D01*
G01*
G37*
G36*
G01*
X128705000Y-112712500D02*
X128705000Y-112012500D01*
G75*
G02*
X128767500Y-111950000I62500J0D01*
G01*
X128892500Y-111950000D01*
G75*
G02*
X128955000Y-112012500I0J-62500D01*
G01*
X128955000Y-112712500D01*
G75*
G02*
X128892500Y-112775000I-62500J0D01*
G01*
X128767500Y-112775000D01*
G75*
G02*
X128705000Y-112712500I0J62500D01*
G01*
G37*
G36*
G01*
X128205000Y-112712500D02*
X128205000Y-112012500D01*
G75*
G02*
X128267500Y-111950000I62500J0D01*
G01*
X128392500Y-111950000D01*
G75*
G02*
X128455000Y-112012500I0J-62500D01*
G01*
X128455000Y-112712500D01*
G75*
G02*
X128392500Y-112775000I-62500J0D01*
G01*
X128267500Y-112775000D01*
G75*
G02*
X128205000Y-112712500I0J62500D01*
G01*
G37*
G36*
G01*
X127205000Y-111712500D02*
X127205000Y-111587500D01*
G75*
G02*
X127267500Y-111525000I62500J0D01*
G01*
X127967500Y-111525000D01*
G75*
G02*
X128030000Y-111587500I0J-62500D01*
G01*
X128030000Y-111712500D01*
G75*
G02*
X127967500Y-111775000I-62500J0D01*
G01*
X127267500Y-111775000D01*
G75*
G02*
X127205000Y-111712500I0J62500D01*
G01*
G37*
G36*
G01*
X127205000Y-111212500D02*
X127205000Y-111087500D01*
G75*
G02*
X127267500Y-111025000I62500J0D01*
G01*
X127967500Y-111025000D01*
G75*
G02*
X128030000Y-111087500I0J-62500D01*
G01*
X128030000Y-111212500D01*
G75*
G02*
X127967500Y-111275000I-62500J0D01*
G01*
X127267500Y-111275000D01*
G75*
G02*
X127205000Y-111212500I0J62500D01*
G01*
G37*
G36*
G01*
X127205000Y-110712500D02*
X127205000Y-110587500D01*
G75*
G02*
X127267500Y-110525000I62500J0D01*
G01*
X127967500Y-110525000D01*
G75*
G02*
X128030000Y-110587500I0J-62500D01*
G01*
X128030000Y-110712500D01*
G75*
G02*
X127967500Y-110775000I-62500J0D01*
G01*
X127267500Y-110775000D01*
G75*
G02*
X127205000Y-110712500I0J62500D01*
G01*
G37*
G36*
G01*
X127205000Y-110212500D02*
X127205000Y-110087500D01*
G75*
G02*
X127267500Y-110025000I62500J0D01*
G01*
X127967500Y-110025000D01*
G75*
G02*
X128030000Y-110087500I0J-62500D01*
G01*
X128030000Y-110212500D01*
G75*
G02*
X127967500Y-110275000I-62500J0D01*
G01*
X127267500Y-110275000D01*
G75*
G02*
X127205000Y-110212500I0J62500D01*
G01*
G37*
%TD*%
D13*
%TO.C,U2*%
X156569000Y-58498000D03*
X155719000Y-58498000D03*
X156569000Y-57498000D03*
X155719000Y-57498000D03*
X154669000Y-58498000D03*
X153819000Y-58498000D03*
X154669000Y-57498000D03*
X153819000Y-57498000D03*
X152769000Y-58498000D03*
X151919000Y-58498000D03*
X152769000Y-57498000D03*
X151919000Y-57498000D03*
X150019000Y-58498000D03*
X150869000Y-58498000D03*
X150019000Y-57498000D03*
X150869000Y-57498000D03*
X148969000Y-58498000D03*
X148119000Y-58498000D03*
X148969000Y-57498000D03*
X148119000Y-57498000D03*
X156569000Y-70698000D03*
X153819000Y-70698000D03*
X156569000Y-71698000D03*
X153819000Y-71698000D03*
X154669000Y-70698000D03*
X155719000Y-70698000D03*
X154669000Y-71698000D03*
X155719000Y-71698000D03*
X152769000Y-70698000D03*
X151919000Y-70698000D03*
X152769000Y-71698000D03*
X151919000Y-71698000D03*
X150869000Y-70698000D03*
X150019000Y-70698000D03*
X150869000Y-71698000D03*
X150019000Y-71698000D03*
X148969000Y-70698000D03*
X148119000Y-70698000D03*
X148969000Y-71698000D03*
X148119000Y-71698000D03*
D14*
X159444000Y-68823000D03*
X159444000Y-67973000D03*
X158444000Y-68823000D03*
X158444000Y-67973000D03*
X159444000Y-66923000D03*
X158444000Y-66923000D03*
X159444000Y-66073000D03*
X158444000Y-66073000D03*
X159444000Y-65023000D03*
X158444000Y-65023000D03*
X159444000Y-64173000D03*
X158444000Y-64173000D03*
X159444000Y-63123000D03*
X158444000Y-63123000D03*
X159444000Y-62273000D03*
X158444000Y-62273000D03*
X159444000Y-61223000D03*
X158444000Y-61223000D03*
X159444000Y-60373000D03*
X158444000Y-60373000D03*
X146244000Y-68823000D03*
X145244000Y-68823000D03*
X146244000Y-67973000D03*
X145244000Y-67973000D03*
X146244000Y-66923000D03*
X145244000Y-66923000D03*
X146244000Y-66073000D03*
X145244000Y-66073000D03*
X146244000Y-65023000D03*
X145244000Y-65023000D03*
X146244000Y-64173000D03*
X145244000Y-64173000D03*
X146244000Y-63123000D03*
X145244000Y-63123000D03*
X146244000Y-62273000D03*
X145244000Y-62273000D03*
X146244000Y-61223000D03*
X145244000Y-61223000D03*
X146244000Y-60373000D03*
X145244000Y-60373000D03*
%TD*%
D15*
%TO.C,U1*%
X158000000Y-116800000D03*
X156000000Y-116800000D03*
X154000000Y-116800000D03*
X152000000Y-116800000D03*
X150000000Y-116800000D03*
X148000000Y-116800000D03*
X146000000Y-116800000D03*
X144000000Y-116800000D03*
X144000000Y-132800000D03*
X146000000Y-132800000D03*
X148000000Y-132800000D03*
X150000000Y-132800000D03*
X152000000Y-132800000D03*
X154000000Y-132800000D03*
X156000000Y-132800000D03*
X158000000Y-132800000D03*
%TD*%
%TO.C,R19*%
G36*
G01*
X149625000Y-113475000D02*
X149625000Y-112925000D01*
G75*
G02*
X149825000Y-112725000I200000J0D01*
G01*
X150225000Y-112725000D01*
G75*
G02*
X150425000Y-112925000I0J-200000D01*
G01*
X150425000Y-113475000D01*
G75*
G02*
X150225000Y-113675000I-200000J0D01*
G01*
X149825000Y-113675000D01*
G75*
G02*
X149625000Y-113475000I0J200000D01*
G01*
G37*
G36*
G01*
X147975000Y-113475000D02*
X147975000Y-112925000D01*
G75*
G02*
X148175000Y-112725000I200000J0D01*
G01*
X148575000Y-112725000D01*
G75*
G02*
X148775000Y-112925000I0J-200000D01*
G01*
X148775000Y-113475000D01*
G75*
G02*
X148575000Y-113675000I-200000J0D01*
G01*
X148175000Y-113675000D01*
G75*
G02*
X147975000Y-113475000I0J200000D01*
G01*
G37*
%TD*%
%TO.C,R18*%
G36*
G01*
X157900000Y-89625000D02*
X157900000Y-90175000D01*
G75*
G02*
X157700000Y-90375000I-200000J0D01*
G01*
X157300000Y-90375000D01*
G75*
G02*
X157100000Y-90175000I0J200000D01*
G01*
X157100000Y-89625000D01*
G75*
G02*
X157300000Y-89425000I200000J0D01*
G01*
X157700000Y-89425000D01*
G75*
G02*
X157900000Y-89625000I0J-200000D01*
G01*
G37*
G36*
G01*
X159550000Y-89625000D02*
X159550000Y-90175000D01*
G75*
G02*
X159350000Y-90375000I-200000J0D01*
G01*
X158950000Y-90375000D01*
G75*
G02*
X158750000Y-90175000I0J200000D01*
G01*
X158750000Y-89625000D01*
G75*
G02*
X158950000Y-89425000I200000J0D01*
G01*
X159350000Y-89425000D01*
G75*
G02*
X159550000Y-89625000I0J-200000D01*
G01*
G37*
%TD*%
%TO.C,R17*%
G36*
G01*
X159950000Y-111875000D02*
X159950000Y-111325000D01*
G75*
G02*
X160150000Y-111125000I200000J0D01*
G01*
X160550000Y-111125000D01*
G75*
G02*
X160750000Y-111325000I0J-200000D01*
G01*
X160750000Y-111875000D01*
G75*
G02*
X160550000Y-112075000I-200000J0D01*
G01*
X160150000Y-112075000D01*
G75*
G02*
X159950000Y-111875000I0J200000D01*
G01*
G37*
G36*
G01*
X158300000Y-111875000D02*
X158300000Y-111325000D01*
G75*
G02*
X158500000Y-111125000I200000J0D01*
G01*
X158900000Y-111125000D01*
G75*
G02*
X159100000Y-111325000I0J-200000D01*
G01*
X159100000Y-111875000D01*
G75*
G02*
X158900000Y-112075000I-200000J0D01*
G01*
X158500000Y-112075000D01*
G75*
G02*
X158300000Y-111875000I0J200000D01*
G01*
G37*
%TD*%
%TO.C,R16*%
G36*
G01*
X155500000Y-90175000D02*
X155500000Y-89625000D01*
G75*
G02*
X155700000Y-89425000I200000J0D01*
G01*
X156100000Y-89425000D01*
G75*
G02*
X156300000Y-89625000I0J-200000D01*
G01*
X156300000Y-90175000D01*
G75*
G02*
X156100000Y-90375000I-200000J0D01*
G01*
X155700000Y-90375000D01*
G75*
G02*
X155500000Y-90175000I0J200000D01*
G01*
G37*
G36*
G01*
X153850000Y-90175000D02*
X153850000Y-89625000D01*
G75*
G02*
X154050000Y-89425000I200000J0D01*
G01*
X154450000Y-89425000D01*
G75*
G02*
X154650000Y-89625000I0J-200000D01*
G01*
X154650000Y-90175000D01*
G75*
G02*
X154450000Y-90375000I-200000J0D01*
G01*
X154050000Y-90375000D01*
G75*
G02*
X153850000Y-90175000I0J200000D01*
G01*
G37*
%TD*%
%TO.C,R15*%
G36*
G01*
X144525000Y-85275000D02*
X144525000Y-84725000D01*
G75*
G02*
X144725000Y-84525000I200000J0D01*
G01*
X145125000Y-84525000D01*
G75*
G02*
X145325000Y-84725000I0J-200000D01*
G01*
X145325000Y-85275000D01*
G75*
G02*
X145125000Y-85475000I-200000J0D01*
G01*
X144725000Y-85475000D01*
G75*
G02*
X144525000Y-85275000I0J200000D01*
G01*
G37*
G36*
G01*
X142875000Y-85275000D02*
X142875000Y-84725000D01*
G75*
G02*
X143075000Y-84525000I200000J0D01*
G01*
X143475000Y-84525000D01*
G75*
G02*
X143675000Y-84725000I0J-200000D01*
G01*
X143675000Y-85275000D01*
G75*
G02*
X143475000Y-85475000I-200000J0D01*
G01*
X143075000Y-85475000D01*
G75*
G02*
X142875000Y-85275000I0J200000D01*
G01*
G37*
%TD*%
%TO.C,R14*%
G36*
G01*
X143425000Y-104400000D02*
X143975000Y-104400000D01*
G75*
G02*
X144175000Y-104600000I0J-200000D01*
G01*
X144175000Y-105000000D01*
G75*
G02*
X143975000Y-105200000I-200000J0D01*
G01*
X143425000Y-105200000D01*
G75*
G02*
X143225000Y-105000000I0J200000D01*
G01*
X143225000Y-104600000D01*
G75*
G02*
X143425000Y-104400000I200000J0D01*
G01*
G37*
G36*
G01*
X143425000Y-102750000D02*
X143975000Y-102750000D01*
G75*
G02*
X144175000Y-102950000I0J-200000D01*
G01*
X144175000Y-103350000D01*
G75*
G02*
X143975000Y-103550000I-200000J0D01*
G01*
X143425000Y-103550000D01*
G75*
G02*
X143225000Y-103350000I0J200000D01*
G01*
X143225000Y-102950000D01*
G75*
G02*
X143425000Y-102750000I200000J0D01*
G01*
G37*
%TD*%
%TO.C,R13*%
G36*
G01*
X124650000Y-124725000D02*
X124650000Y-125275000D01*
G75*
G02*
X124450000Y-125475000I-200000J0D01*
G01*
X124050000Y-125475000D01*
G75*
G02*
X123850000Y-125275000I0J200000D01*
G01*
X123850000Y-124725000D01*
G75*
G02*
X124050000Y-124525000I200000J0D01*
G01*
X124450000Y-124525000D01*
G75*
G02*
X124650000Y-124725000I0J-200000D01*
G01*
G37*
G36*
G01*
X126300000Y-124725000D02*
X126300000Y-125275000D01*
G75*
G02*
X126100000Y-125475000I-200000J0D01*
G01*
X125700000Y-125475000D01*
G75*
G02*
X125500000Y-125275000I0J200000D01*
G01*
X125500000Y-124725000D01*
G75*
G02*
X125700000Y-124525000I200000J0D01*
G01*
X126100000Y-124525000D01*
G75*
G02*
X126300000Y-124725000I0J-200000D01*
G01*
G37*
%TD*%
%TO.C,R12*%
G36*
G01*
X127800000Y-124725000D02*
X127800000Y-125275000D01*
G75*
G02*
X127600000Y-125475000I-200000J0D01*
G01*
X127200000Y-125475000D01*
G75*
G02*
X127000000Y-125275000I0J200000D01*
G01*
X127000000Y-124725000D01*
G75*
G02*
X127200000Y-124525000I200000J0D01*
G01*
X127600000Y-124525000D01*
G75*
G02*
X127800000Y-124725000I0J-200000D01*
G01*
G37*
G36*
G01*
X129450000Y-124725000D02*
X129450000Y-125275000D01*
G75*
G02*
X129250000Y-125475000I-200000J0D01*
G01*
X128850000Y-125475000D01*
G75*
G02*
X128650000Y-125275000I0J200000D01*
G01*
X128650000Y-124725000D01*
G75*
G02*
X128850000Y-124525000I200000J0D01*
G01*
X129250000Y-124525000D01*
G75*
G02*
X129450000Y-124725000I0J-200000D01*
G01*
G37*
%TD*%
%TO.C,R11*%
G36*
G01*
X124650000Y-113725000D02*
X124650000Y-114275000D01*
G75*
G02*
X124450000Y-114475000I-200000J0D01*
G01*
X124050000Y-114475000D01*
G75*
G02*
X123850000Y-114275000I0J200000D01*
G01*
X123850000Y-113725000D01*
G75*
G02*
X124050000Y-113525000I200000J0D01*
G01*
X124450000Y-113525000D01*
G75*
G02*
X124650000Y-113725000I0J-200000D01*
G01*
G37*
G36*
G01*
X126300000Y-113725000D02*
X126300000Y-114275000D01*
G75*
G02*
X126100000Y-114475000I-200000J0D01*
G01*
X125700000Y-114475000D01*
G75*
G02*
X125500000Y-114275000I0J200000D01*
G01*
X125500000Y-113725000D01*
G75*
G02*
X125700000Y-113525000I200000J0D01*
G01*
X126100000Y-113525000D01*
G75*
G02*
X126300000Y-113725000I0J-200000D01*
G01*
G37*
%TD*%
%TO.C,R10*%
G36*
G01*
X127800000Y-113725000D02*
X127800000Y-114275000D01*
G75*
G02*
X127600000Y-114475000I-200000J0D01*
G01*
X127200000Y-114475000D01*
G75*
G02*
X127000000Y-114275000I0J200000D01*
G01*
X127000000Y-113725000D01*
G75*
G02*
X127200000Y-113525000I200000J0D01*
G01*
X127600000Y-113525000D01*
G75*
G02*
X127800000Y-113725000I0J-200000D01*
G01*
G37*
G36*
G01*
X129450000Y-113725000D02*
X129450000Y-114275000D01*
G75*
G02*
X129250000Y-114475000I-200000J0D01*
G01*
X128850000Y-114475000D01*
G75*
G02*
X128650000Y-114275000I0J200000D01*
G01*
X128650000Y-113725000D01*
G75*
G02*
X128850000Y-113525000I200000J0D01*
G01*
X129250000Y-113525000D01*
G75*
G02*
X129450000Y-113725000I0J-200000D01*
G01*
G37*
%TD*%
%TO.C,R7*%
G36*
G01*
X139125000Y-117050000D02*
X139675000Y-117050000D01*
G75*
G02*
X139875000Y-117250000I0J-200000D01*
G01*
X139875000Y-117650000D01*
G75*
G02*
X139675000Y-117850000I-200000J0D01*
G01*
X139125000Y-117850000D01*
G75*
G02*
X138925000Y-117650000I0J200000D01*
G01*
X138925000Y-117250000D01*
G75*
G02*
X139125000Y-117050000I200000J0D01*
G01*
G37*
G36*
G01*
X139125000Y-115400000D02*
X139675000Y-115400000D01*
G75*
G02*
X139875000Y-115600000I0J-200000D01*
G01*
X139875000Y-116000000D01*
G75*
G02*
X139675000Y-116200000I-200000J0D01*
G01*
X139125000Y-116200000D01*
G75*
G02*
X138925000Y-116000000I0J200000D01*
G01*
X138925000Y-115600000D01*
G75*
G02*
X139125000Y-115400000I200000J0D01*
G01*
G37*
%TD*%
%TO.C,R6*%
G36*
G01*
X126194000Y-85281000D02*
X126194000Y-85831000D01*
G75*
G02*
X125994000Y-86031000I-200000J0D01*
G01*
X125594000Y-86031000D01*
G75*
G02*
X125394000Y-85831000I0J200000D01*
G01*
X125394000Y-85281000D01*
G75*
G02*
X125594000Y-85081000I200000J0D01*
G01*
X125994000Y-85081000D01*
G75*
G02*
X126194000Y-85281000I0J-200000D01*
G01*
G37*
G36*
G01*
X127844000Y-85281000D02*
X127844000Y-85831000D01*
G75*
G02*
X127644000Y-86031000I-200000J0D01*
G01*
X127244000Y-86031000D01*
G75*
G02*
X127044000Y-85831000I0J200000D01*
G01*
X127044000Y-85281000D01*
G75*
G02*
X127244000Y-85081000I200000J0D01*
G01*
X127644000Y-85081000D01*
G75*
G02*
X127844000Y-85281000I0J-200000D01*
G01*
G37*
%TD*%
%TO.C,R5*%
G36*
G01*
X123106000Y-85831000D02*
X123106000Y-85281000D01*
G75*
G02*
X123306000Y-85081000I200000J0D01*
G01*
X123706000Y-85081000D01*
G75*
G02*
X123906000Y-85281000I0J-200000D01*
G01*
X123906000Y-85831000D01*
G75*
G02*
X123706000Y-86031000I-200000J0D01*
G01*
X123306000Y-86031000D01*
G75*
G02*
X123106000Y-85831000I0J200000D01*
G01*
G37*
G36*
G01*
X121456000Y-85831000D02*
X121456000Y-85281000D01*
G75*
G02*
X121656000Y-85081000I200000J0D01*
G01*
X122056000Y-85081000D01*
G75*
G02*
X122256000Y-85281000I0J-200000D01*
G01*
X122256000Y-85831000D01*
G75*
G02*
X122056000Y-86031000I-200000J0D01*
G01*
X121656000Y-86031000D01*
G75*
G02*
X121456000Y-85831000I0J200000D01*
G01*
G37*
%TD*%
%TO.C,R4*%
G36*
G01*
X121581000Y-83378000D02*
X122131000Y-83378000D01*
G75*
G02*
X122331000Y-83578000I0J-200000D01*
G01*
X122331000Y-83978000D01*
G75*
G02*
X122131000Y-84178000I-200000J0D01*
G01*
X121581000Y-84178000D01*
G75*
G02*
X121381000Y-83978000I0J200000D01*
G01*
X121381000Y-83578000D01*
G75*
G02*
X121581000Y-83378000I200000J0D01*
G01*
G37*
G36*
G01*
X121581000Y-81728000D02*
X122131000Y-81728000D01*
G75*
G02*
X122331000Y-81928000I0J-200000D01*
G01*
X122331000Y-82328000D01*
G75*
G02*
X122131000Y-82528000I-200000J0D01*
G01*
X121581000Y-82528000D01*
G75*
G02*
X121381000Y-82328000I0J200000D01*
G01*
X121381000Y-81928000D01*
G75*
G02*
X121581000Y-81728000I200000J0D01*
G01*
G37*
%TD*%
%TO.C,R3*%
G36*
G01*
X126178000Y-60481000D02*
X126178000Y-61031000D01*
G75*
G02*
X125978000Y-61231000I-200000J0D01*
G01*
X125578000Y-61231000D01*
G75*
G02*
X125378000Y-61031000I0J200000D01*
G01*
X125378000Y-60481000D01*
G75*
G02*
X125578000Y-60281000I200000J0D01*
G01*
X125978000Y-60281000D01*
G75*
G02*
X126178000Y-60481000I0J-200000D01*
G01*
G37*
G36*
G01*
X127828000Y-60481000D02*
X127828000Y-61031000D01*
G75*
G02*
X127628000Y-61231000I-200000J0D01*
G01*
X127228000Y-61231000D01*
G75*
G02*
X127028000Y-61031000I0J200000D01*
G01*
X127028000Y-60481000D01*
G75*
G02*
X127228000Y-60281000I200000J0D01*
G01*
X127628000Y-60281000D01*
G75*
G02*
X127828000Y-60481000I0J-200000D01*
G01*
G37*
%TD*%
%TO.C,R2*%
G36*
G01*
X123090000Y-61031000D02*
X123090000Y-60481000D01*
G75*
G02*
X123290000Y-60281000I200000J0D01*
G01*
X123690000Y-60281000D01*
G75*
G02*
X123890000Y-60481000I0J-200000D01*
G01*
X123890000Y-61031000D01*
G75*
G02*
X123690000Y-61231000I-200000J0D01*
G01*
X123290000Y-61231000D01*
G75*
G02*
X123090000Y-61031000I0J200000D01*
G01*
G37*
G36*
G01*
X121440000Y-61031000D02*
X121440000Y-60481000D01*
G75*
G02*
X121640000Y-60281000I200000J0D01*
G01*
X122040000Y-60281000D01*
G75*
G02*
X122240000Y-60481000I0J-200000D01*
G01*
X122240000Y-61031000D01*
G75*
G02*
X122040000Y-61231000I-200000J0D01*
G01*
X121640000Y-61231000D01*
G75*
G02*
X121440000Y-61031000I0J200000D01*
G01*
G37*
%TD*%
%TO.C,R1*%
G36*
G01*
X121565000Y-58578000D02*
X122115000Y-58578000D01*
G75*
G02*
X122315000Y-58778000I0J-200000D01*
G01*
X122315000Y-59178000D01*
G75*
G02*
X122115000Y-59378000I-200000J0D01*
G01*
X121565000Y-59378000D01*
G75*
G02*
X121365000Y-59178000I0J200000D01*
G01*
X121365000Y-58778000D01*
G75*
G02*
X121565000Y-58578000I200000J0D01*
G01*
G37*
G36*
G01*
X121565000Y-56928000D02*
X122115000Y-56928000D01*
G75*
G02*
X122315000Y-57128000I0J-200000D01*
G01*
X122315000Y-57528000D01*
G75*
G02*
X122115000Y-57728000I-200000J0D01*
G01*
X121565000Y-57728000D01*
G75*
G02*
X121365000Y-57528000I0J200000D01*
G01*
X121365000Y-57128000D01*
G75*
G02*
X121565000Y-56928000I200000J0D01*
G01*
G37*
%TD*%
D16*
%TO.C,Q5*%
X136400000Y-117800000D03*
X135450000Y-115800000D03*
X137350000Y-115800000D03*
%TD*%
D17*
%TO.C,Q4*%
X127428000Y-88350000D03*
X125428000Y-89300000D03*
X125428000Y-87400000D03*
%TD*%
%TO.C,Q3*%
X123856000Y-88350000D03*
X121856000Y-89300000D03*
X121856000Y-87400000D03*
%TD*%
%TO.C,Q2*%
X127428000Y-63550000D03*
X125428000Y-64500000D03*
X125428000Y-62600000D03*
%TD*%
%TO.C,Q1*%
X123840000Y-63550000D03*
X121840000Y-64500000D03*
X121840000Y-62600000D03*
%TD*%
%TO.C,L2*%
G36*
G01*
X125940000Y-119350000D02*
X122460000Y-119350000D01*
G75*
G02*
X122350000Y-119240000I0J110000D01*
G01*
X122350000Y-118360000D01*
G75*
G02*
X122460000Y-118250000I110000J0D01*
G01*
X125940000Y-118250000D01*
G75*
G02*
X126050000Y-118360000I0J-110000D01*
G01*
X126050000Y-119240000D01*
G75*
G02*
X125940000Y-119350000I-110000J0D01*
G01*
G37*
G36*
G01*
X125940000Y-122350000D02*
X122460000Y-122350000D01*
G75*
G02*
X122350000Y-122240000I0J110000D01*
G01*
X122350000Y-121360000D01*
G75*
G02*
X122460000Y-121250000I110000J0D01*
G01*
X125940000Y-121250000D01*
G75*
G02*
X126050000Y-121360000I0J-110000D01*
G01*
X126050000Y-122240000D01*
G75*
G02*
X125940000Y-122350000I-110000J0D01*
G01*
G37*
%TD*%
%TO.C,L1*%
G36*
G01*
X125940000Y-108350000D02*
X122460000Y-108350000D01*
G75*
G02*
X122350000Y-108240000I0J110000D01*
G01*
X122350000Y-107360000D01*
G75*
G02*
X122460000Y-107250000I110000J0D01*
G01*
X125940000Y-107250000D01*
G75*
G02*
X126050000Y-107360000I0J-110000D01*
G01*
X126050000Y-108240000D01*
G75*
G02*
X125940000Y-108350000I-110000J0D01*
G01*
G37*
G36*
G01*
X125940000Y-111350000D02*
X122460000Y-111350000D01*
G75*
G02*
X122350000Y-111240000I0J110000D01*
G01*
X122350000Y-110360000D01*
G75*
G02*
X122460000Y-110250000I110000J0D01*
G01*
X125940000Y-110250000D01*
G75*
G02*
X126050000Y-110360000I0J-110000D01*
G01*
X126050000Y-111240000D01*
G75*
G02*
X125940000Y-111350000I-110000J0D01*
G01*
G37*
%TD*%
D18*
%TO.C,D1*%
X138900000Y-113300000D03*
X135400000Y-113300000D03*
%TD*%
%TO.C,C21*%
G36*
G01*
X163300000Y-88450000D02*
X163300000Y-87950000D01*
G75*
G02*
X163525000Y-87725000I225000J0D01*
G01*
X163975000Y-87725000D01*
G75*
G02*
X164200000Y-87950000I0J-225000D01*
G01*
X164200000Y-88450000D01*
G75*
G02*
X163975000Y-88675000I-225000J0D01*
G01*
X163525000Y-88675000D01*
G75*
G02*
X163300000Y-88450000I0J225000D01*
G01*
G37*
G36*
G01*
X161750000Y-88450000D02*
X161750000Y-87950000D01*
G75*
G02*
X161975000Y-87725000I225000J0D01*
G01*
X162425000Y-87725000D01*
G75*
G02*
X162650000Y-87950000I0J-225000D01*
G01*
X162650000Y-88450000D01*
G75*
G02*
X162425000Y-88675000I-225000J0D01*
G01*
X161975000Y-88675000D01*
G75*
G02*
X161750000Y-88450000I0J225000D01*
G01*
G37*
%TD*%
%TO.C,C20*%
G36*
G01*
X163300000Y-90150000D02*
X163300000Y-89650000D01*
G75*
G02*
X163525000Y-89425000I225000J0D01*
G01*
X163975000Y-89425000D01*
G75*
G02*
X164200000Y-89650000I0J-225000D01*
G01*
X164200000Y-90150000D01*
G75*
G02*
X163975000Y-90375000I-225000J0D01*
G01*
X163525000Y-90375000D01*
G75*
G02*
X163300000Y-90150000I0J225000D01*
G01*
G37*
G36*
G01*
X161750000Y-90150000D02*
X161750000Y-89650000D01*
G75*
G02*
X161975000Y-89425000I225000J0D01*
G01*
X162425000Y-89425000D01*
G75*
G02*
X162650000Y-89650000I0J-225000D01*
G01*
X162650000Y-90150000D01*
G75*
G02*
X162425000Y-90375000I-225000J0D01*
G01*
X161975000Y-90375000D01*
G75*
G02*
X161750000Y-90150000I0J225000D01*
G01*
G37*
%TD*%
%TO.C,C19*%
G36*
G01*
X147650000Y-85250000D02*
X147650000Y-84750000D01*
G75*
G02*
X147875000Y-84525000I225000J0D01*
G01*
X148325000Y-84525000D01*
G75*
G02*
X148550000Y-84750000I0J-225000D01*
G01*
X148550000Y-85250000D01*
G75*
G02*
X148325000Y-85475000I-225000J0D01*
G01*
X147875000Y-85475000D01*
G75*
G02*
X147650000Y-85250000I0J225000D01*
G01*
G37*
G36*
G01*
X146100000Y-85250000D02*
X146100000Y-84750000D01*
G75*
G02*
X146325000Y-84525000I225000J0D01*
G01*
X146775000Y-84525000D01*
G75*
G02*
X147000000Y-84750000I0J-225000D01*
G01*
X147000000Y-85250000D01*
G75*
G02*
X146775000Y-85475000I-225000J0D01*
G01*
X146325000Y-85475000D01*
G75*
G02*
X146100000Y-85250000I0J225000D01*
G01*
G37*
%TD*%
%TO.C,C12*%
G36*
G01*
X128475000Y-117350000D02*
X127525000Y-117350000D01*
G75*
G02*
X127275000Y-117100000I0J250000D01*
G01*
X127275000Y-116600000D01*
G75*
G02*
X127525000Y-116350000I250000J0D01*
G01*
X128475000Y-116350000D01*
G75*
G02*
X128725000Y-116600000I0J-250000D01*
G01*
X128725000Y-117100000D01*
G75*
G02*
X128475000Y-117350000I-250000J0D01*
G01*
G37*
G36*
G01*
X128475000Y-119250000D02*
X127525000Y-119250000D01*
G75*
G02*
X127275000Y-119000000I0J250000D01*
G01*
X127275000Y-118500000D01*
G75*
G02*
X127525000Y-118250000I250000J0D01*
G01*
X128475000Y-118250000D01*
G75*
G02*
X128725000Y-118500000I0J-250000D01*
G01*
X128725000Y-119000000D01*
G75*
G02*
X128475000Y-119250000I-250000J0D01*
G01*
G37*
%TD*%
%TO.C,C11*%
G36*
G01*
X128475000Y-106350000D02*
X127525000Y-106350000D01*
G75*
G02*
X127275000Y-106100000I0J250000D01*
G01*
X127275000Y-105600000D01*
G75*
G02*
X127525000Y-105350000I250000J0D01*
G01*
X128475000Y-105350000D01*
G75*
G02*
X128725000Y-105600000I0J-250000D01*
G01*
X128725000Y-106100000D01*
G75*
G02*
X128475000Y-106350000I-250000J0D01*
G01*
G37*
G36*
G01*
X128475000Y-108250000D02*
X127525000Y-108250000D01*
G75*
G02*
X127275000Y-108000000I0J250000D01*
G01*
X127275000Y-107500000D01*
G75*
G02*
X127525000Y-107250000I250000J0D01*
G01*
X128475000Y-107250000D01*
G75*
G02*
X128725000Y-107500000I0J-250000D01*
G01*
X128725000Y-108000000D01*
G75*
G02*
X128475000Y-108250000I-250000J0D01*
G01*
G37*
%TD*%
%TO.C,C10*%
G36*
G01*
X131700000Y-125250000D02*
X131700000Y-124750000D01*
G75*
G02*
X131925000Y-124525000I225000J0D01*
G01*
X132375000Y-124525000D01*
G75*
G02*
X132600000Y-124750000I0J-225000D01*
G01*
X132600000Y-125250000D01*
G75*
G02*
X132375000Y-125475000I-225000J0D01*
G01*
X131925000Y-125475000D01*
G75*
G02*
X131700000Y-125250000I0J225000D01*
G01*
G37*
G36*
G01*
X130150000Y-125250000D02*
X130150000Y-124750000D01*
G75*
G02*
X130375000Y-124525000I225000J0D01*
G01*
X130825000Y-124525000D01*
G75*
G02*
X131050000Y-124750000I0J-225000D01*
G01*
X131050000Y-125250000D01*
G75*
G02*
X130825000Y-125475000I-225000J0D01*
G01*
X130375000Y-125475000D01*
G75*
G02*
X130150000Y-125250000I0J225000D01*
G01*
G37*
%TD*%
%TO.C,C9*%
G36*
G01*
X131700000Y-114250000D02*
X131700000Y-113750000D01*
G75*
G02*
X131925000Y-113525000I225000J0D01*
G01*
X132375000Y-113525000D01*
G75*
G02*
X132600000Y-113750000I0J-225000D01*
G01*
X132600000Y-114250000D01*
G75*
G02*
X132375000Y-114475000I-225000J0D01*
G01*
X131925000Y-114475000D01*
G75*
G02*
X131700000Y-114250000I0J225000D01*
G01*
G37*
G36*
G01*
X130150000Y-114250000D02*
X130150000Y-113750000D01*
G75*
G02*
X130375000Y-113525000I225000J0D01*
G01*
X130825000Y-113525000D01*
G75*
G02*
X131050000Y-113750000I0J-225000D01*
G01*
X131050000Y-114250000D01*
G75*
G02*
X130825000Y-114475000I-225000J0D01*
G01*
X130375000Y-114475000D01*
G75*
G02*
X130150000Y-114250000I0J225000D01*
G01*
G37*
%TD*%
%TO.C,C8*%
G36*
G01*
X132350000Y-117475000D02*
X131850000Y-117475000D01*
G75*
G02*
X131625000Y-117250000I0J225000D01*
G01*
X131625000Y-116800000D01*
G75*
G02*
X131850000Y-116575000I225000J0D01*
G01*
X132350000Y-116575000D01*
G75*
G02*
X132575000Y-116800000I0J-225000D01*
G01*
X132575000Y-117250000D01*
G75*
G02*
X132350000Y-117475000I-225000J0D01*
G01*
G37*
G36*
G01*
X132350000Y-119025000D02*
X131850000Y-119025000D01*
G75*
G02*
X131625000Y-118800000I0J225000D01*
G01*
X131625000Y-118350000D01*
G75*
G02*
X131850000Y-118125000I225000J0D01*
G01*
X132350000Y-118125000D01*
G75*
G02*
X132575000Y-118350000I0J-225000D01*
G01*
X132575000Y-118800000D01*
G75*
G02*
X132350000Y-119025000I-225000J0D01*
G01*
G37*
%TD*%
%TO.C,C7*%
G36*
G01*
X132350000Y-106475000D02*
X131850000Y-106475000D01*
G75*
G02*
X131625000Y-106250000I0J225000D01*
G01*
X131625000Y-105800000D01*
G75*
G02*
X131850000Y-105575000I225000J0D01*
G01*
X132350000Y-105575000D01*
G75*
G02*
X132575000Y-105800000I0J-225000D01*
G01*
X132575000Y-106250000D01*
G75*
G02*
X132350000Y-106475000I-225000J0D01*
G01*
G37*
G36*
G01*
X132350000Y-108025000D02*
X131850000Y-108025000D01*
G75*
G02*
X131625000Y-107800000I0J225000D01*
G01*
X131625000Y-107350000D01*
G75*
G02*
X131850000Y-107125000I225000J0D01*
G01*
X132350000Y-107125000D01*
G75*
G02*
X132575000Y-107350000I0J-225000D01*
G01*
X132575000Y-107800000D01*
G75*
G02*
X132350000Y-108025000I-225000J0D01*
G01*
G37*
%TD*%
%TO.C,C6*%
G36*
G01*
X130675000Y-117350000D02*
X129725000Y-117350000D01*
G75*
G02*
X129475000Y-117100000I0J250000D01*
G01*
X129475000Y-116600000D01*
G75*
G02*
X129725000Y-116350000I250000J0D01*
G01*
X130675000Y-116350000D01*
G75*
G02*
X130925000Y-116600000I0J-250000D01*
G01*
X130925000Y-117100000D01*
G75*
G02*
X130675000Y-117350000I-250000J0D01*
G01*
G37*
G36*
G01*
X130675000Y-119250000D02*
X129725000Y-119250000D01*
G75*
G02*
X129475000Y-119000000I0J250000D01*
G01*
X129475000Y-118500000D01*
G75*
G02*
X129725000Y-118250000I250000J0D01*
G01*
X130675000Y-118250000D01*
G75*
G02*
X130925000Y-118500000I0J-250000D01*
G01*
X130925000Y-119000000D01*
G75*
G02*
X130675000Y-119250000I-250000J0D01*
G01*
G37*
%TD*%
%TO.C,C5*%
G36*
G01*
X130675000Y-106350000D02*
X129725000Y-106350000D01*
G75*
G02*
X129475000Y-106100000I0J250000D01*
G01*
X129475000Y-105600000D01*
G75*
G02*
X129725000Y-105350000I250000J0D01*
G01*
X130675000Y-105350000D01*
G75*
G02*
X130925000Y-105600000I0J-250000D01*
G01*
X130925000Y-106100000D01*
G75*
G02*
X130675000Y-106350000I-250000J0D01*
G01*
G37*
G36*
G01*
X130675000Y-108250000D02*
X129725000Y-108250000D01*
G75*
G02*
X129475000Y-108000000I0J250000D01*
G01*
X129475000Y-107500000D01*
G75*
G02*
X129725000Y-107250000I250000J0D01*
G01*
X130675000Y-107250000D01*
G75*
G02*
X130925000Y-107500000I0J-250000D01*
G01*
X130925000Y-108000000D01*
G75*
G02*
X130675000Y-108250000I-250000J0D01*
G01*
G37*
%TD*%
%TO.C,C4*%
G36*
G01*
X161702000Y-63442000D02*
X161202000Y-63442000D01*
G75*
G02*
X160977000Y-63217000I0J225000D01*
G01*
X160977000Y-62767000D01*
G75*
G02*
X161202000Y-62542000I225000J0D01*
G01*
X161702000Y-62542000D01*
G75*
G02*
X161927000Y-62767000I0J-225000D01*
G01*
X161927000Y-63217000D01*
G75*
G02*
X161702000Y-63442000I-225000J0D01*
G01*
G37*
G36*
G01*
X161702000Y-64992000D02*
X161202000Y-64992000D01*
G75*
G02*
X160977000Y-64767000I0J225000D01*
G01*
X160977000Y-64317000D01*
G75*
G02*
X161202000Y-64092000I225000J0D01*
G01*
X161702000Y-64092000D01*
G75*
G02*
X161927000Y-64317000I0J-225000D01*
G01*
X161927000Y-64767000D01*
G75*
G02*
X161702000Y-64992000I-225000J0D01*
G01*
G37*
%TD*%
%TO.C,C3*%
G36*
G01*
X149300000Y-73436000D02*
X149300000Y-73936000D01*
G75*
G02*
X149075000Y-74161000I-225000J0D01*
G01*
X148625000Y-74161000D01*
G75*
G02*
X148400000Y-73936000I0J225000D01*
G01*
X148400000Y-73436000D01*
G75*
G02*
X148625000Y-73211000I225000J0D01*
G01*
X149075000Y-73211000D01*
G75*
G02*
X149300000Y-73436000I0J-225000D01*
G01*
G37*
G36*
G01*
X150850000Y-73436000D02*
X150850000Y-73936000D01*
G75*
G02*
X150625000Y-74161000I-225000J0D01*
G01*
X150175000Y-74161000D01*
G75*
G02*
X149950000Y-73936000I0J225000D01*
G01*
X149950000Y-73436000D01*
G75*
G02*
X150175000Y-73211000I225000J0D01*
G01*
X150625000Y-73211000D01*
G75*
G02*
X150850000Y-73436000I0J-225000D01*
G01*
G37*
%TD*%
%TO.C,C2*%
G36*
G01*
X154800000Y-136550000D02*
X154800000Y-136050000D01*
G75*
G02*
X155025000Y-135825000I225000J0D01*
G01*
X155475000Y-135825000D01*
G75*
G02*
X155700000Y-136050000I0J-225000D01*
G01*
X155700000Y-136550000D01*
G75*
G02*
X155475000Y-136775000I-225000J0D01*
G01*
X155025000Y-136775000D01*
G75*
G02*
X154800000Y-136550000I0J225000D01*
G01*
G37*
G36*
G01*
X153250000Y-136550000D02*
X153250000Y-136050000D01*
G75*
G02*
X153475000Y-135825000I225000J0D01*
G01*
X153925000Y-135825000D01*
G75*
G02*
X154150000Y-136050000I0J-225000D01*
G01*
X154150000Y-136550000D01*
G75*
G02*
X153925000Y-136775000I-225000J0D01*
G01*
X153475000Y-136775000D01*
G75*
G02*
X153250000Y-136550000I0J225000D01*
G01*
G37*
%TD*%
%TO.C,C1*%
G36*
G01*
X150900000Y-136050000D02*
X150900000Y-136550000D01*
G75*
G02*
X150675000Y-136775000I-225000J0D01*
G01*
X150225000Y-136775000D01*
G75*
G02*
X150000000Y-136550000I0J225000D01*
G01*
X150000000Y-136050000D01*
G75*
G02*
X150225000Y-135825000I225000J0D01*
G01*
X150675000Y-135825000D01*
G75*
G02*
X150900000Y-136050000I0J-225000D01*
G01*
G37*
G36*
G01*
X152450000Y-136050000D02*
X152450000Y-136550000D01*
G75*
G02*
X152225000Y-136775000I-225000J0D01*
G01*
X151775000Y-136775000D01*
G75*
G02*
X151550000Y-136550000I0J225000D01*
G01*
X151550000Y-136050000D01*
G75*
G02*
X151775000Y-135825000I225000J0D01*
G01*
X152225000Y-135825000D01*
G75*
G02*
X152450000Y-136050000I0J-225000D01*
G01*
G37*
%TD*%
M02*
