%TF.GenerationSoftware,KiCad,Pcbnew,(6.0.5)*%
%TF.CreationDate,2022-06-07T13:18:44+00:00*%
%TF.ProjectId,co2_sensor_node,636f325f-7365-46e7-936f-725f6e6f6465,rev?*%
%TF.SameCoordinates,Original*%
%TF.FileFunction,Soldermask,Top*%
%TF.FilePolarity,Negative*%
%FSLAX46Y46*%
G04 Gerber Fmt 4.6, Leading zero omitted, Abs format (unit mm)*
G04 Created by KiCad (PCBNEW (6.0.5)) date 2022-06-07 13:18:44*
%MOMM*%
%LPD*%
G01*
G04 APERTURE LIST*
G04 Aperture macros list*
%AMRoundRect*
0 Rectangle with rounded corners*
0 $1 Rounding radius*
0 $2 $3 $4 $5 $6 $7 $8 $9 X,Y pos of 4 corners*
0 Add a 4 corners polygon primitive as box body*
4,1,4,$2,$3,$4,$5,$6,$7,$8,$9,$2,$3,0*
0 Add four circle primitives for the rounded corners*
1,1,$1+$1,$2,$3*
1,1,$1+$1,$4,$5*
1,1,$1+$1,$6,$7*
1,1,$1+$1,$8,$9*
0 Add four rect primitives between the rounded corners*
20,1,$1+$1,$2,$3,$4,$5,0*
20,1,$1+$1,$4,$5,$6,$7,0*
20,1,$1+$1,$6,$7,$8,$9,0*
20,1,$1+$1,$8,$9,$2,$3,0*%
G04 Aperture macros list end*
%ADD10RoundRect,0.015000X0.850000X0.850000X-0.850000X0.850000X-0.850000X-0.850000X0.850000X-0.850000X0*%
%ADD11O,1.730000X1.730000*%
%ADD12C,2.030000*%
%ADD13RoundRect,0.240000X0.250000X-0.225000X0.250000X0.225000X-0.250000X0.225000X-0.250000X-0.225000X0*%
%ADD14RoundRect,0.215000X0.275000X-0.200000X0.275000X0.200000X-0.275000X0.200000X-0.275000X-0.200000X0*%
%ADD15RoundRect,0.015000X1.980000X-0.990000X1.980000X0.990000X-1.980000X0.990000X-1.980000X-0.990000X0*%
%ADD16O,3.990000X2.010000*%
%ADD17C,3.230000*%
%ADD18RoundRect,0.165000X-0.150000X0.587500X-0.150000X-0.587500X0.150000X-0.587500X0.150000X0.587500X0*%
%ADD19RoundRect,0.265000X-0.475000X0.250000X-0.475000X-0.250000X0.475000X-0.250000X0.475000X0.250000X0*%
%ADD20RoundRect,0.015000X0.850000X-0.850000X0.850000X0.850000X-0.850000X0.850000X-0.850000X-0.850000X0*%
%ADD21RoundRect,0.265000X-0.725000X0.600000X-0.725000X-0.600000X0.725000X-0.600000X0.725000X0.600000X0*%
%ADD22O,1.980000X1.730000*%
%ADD23RoundRect,0.015000X-0.850000X-0.850000X0.850000X-0.850000X0.850000X0.850000X-0.850000X0.850000X0*%
%ADD24RoundRect,0.115000X-0.850000X-0.400000X0.850000X-0.400000X0.850000X0.400000X-0.850000X0.400000X0*%
%ADD25RoundRect,0.215000X-0.275000X0.200000X-0.275000X-0.200000X0.275000X-0.200000X0.275000X0.200000X0*%
%ADD26C,1.230000*%
%ADD27RoundRect,0.265000X-0.750000X0.600000X-0.750000X-0.600000X0.750000X-0.600000X0.750000X0.600000X0*%
%ADD28O,2.030000X1.730000*%
%ADD29RoundRect,0.240000X-0.225000X-0.250000X0.225000X-0.250000X0.225000X0.250000X-0.225000X0.250000X0*%
%ADD30RoundRect,0.125000X0.440000X1.740000X-0.440000X1.740000X-0.440000X-1.740000X0.440000X-1.740000X0*%
%ADD31RoundRect,0.015000X0.650000X0.850000X-0.650000X0.850000X-0.650000X-0.850000X0.650000X-0.850000X0*%
%ADD32RoundRect,0.165000X0.587500X0.150000X-0.587500X0.150000X-0.587500X-0.150000X0.587500X-0.150000X0*%
%ADD33RoundRect,0.165000X0.150000X-0.587500X0.150000X0.587500X-0.150000X0.587500X-0.150000X-0.587500X0*%
%ADD34RoundRect,0.015000X-0.450000X1.000000X-0.450000X-1.000000X0.450000X-1.000000X0.450000X1.000000X0*%
%ADD35RoundRect,0.015000X-1.000000X-0.450000X1.000000X-0.450000X1.000000X0.450000X-1.000000X0.450000X0*%
%ADD36RoundRect,0.015000X-2.500000X2.500000X-2.500000X-2.500000X2.500000X-2.500000X2.500000X2.500000X0*%
%ADD37RoundRect,0.215000X0.200000X0.275000X-0.200000X0.275000X-0.200000X-0.275000X0.200000X-0.275000X0*%
%ADD38RoundRect,0.215000X-0.200000X-0.275000X0.200000X-0.275000X0.200000X0.275000X-0.200000X0.275000X0*%
%ADD39RoundRect,0.265000X-0.600000X-0.725000X0.600000X-0.725000X0.600000X0.725000X-0.600000X0.725000X0*%
%ADD40O,1.730000X1.980000*%
%ADD41RoundRect,0.233750X0.218750X0.256250X-0.218750X0.256250X-0.218750X-0.256250X0.218750X-0.256250X0*%
%ADD42RoundRect,0.265000X0.475000X-0.250000X0.475000X0.250000X-0.475000X0.250000X-0.475000X-0.250000X0*%
%ADD43RoundRect,0.265000X-0.250000X-0.475000X0.250000X-0.475000X0.250000X0.475000X-0.250000X0.475000X0*%
%ADD44RoundRect,0.165000X-0.850000X-0.150000X0.850000X-0.150000X0.850000X0.150000X-0.850000X0.150000X0*%
%ADD45RoundRect,0.015000X-0.800000X-0.800000X0.800000X-0.800000X0.800000X0.800000X-0.800000X0.800000X0*%
%ADD46C,1.630000*%
%ADD47C,1.030000*%
%ADD48RoundRect,0.190000X-0.625000X0.175000X-0.625000X-0.175000X0.625000X-0.175000X0.625000X0.175000X0*%
%ADD49RoundRect,0.135000X-0.630000X0.480000X-0.630000X-0.480000X0.630000X-0.480000X0.630000X0.480000X0*%
%ADD50RoundRect,0.165000X-0.600000X0.650000X-0.600000X-0.650000X0.600000X-0.650000X0.600000X0.650000X0*%
%ADD51RoundRect,0.135000X-0.980000X0.480000X-0.980000X-0.480000X0.980000X-0.480000X0.980000X0.480000X0*%
%ADD52RoundRect,0.015000X-0.900000X1.250000X-0.900000X-1.250000X0.900000X-1.250000X0.900000X1.250000X0*%
%ADD53RoundRect,0.077500X0.062500X-0.350000X0.062500X0.350000X-0.062500X0.350000X-0.062500X-0.350000X0*%
%ADD54RoundRect,0.077500X0.350000X-0.062500X0.350000X0.062500X-0.350000X0.062500X-0.350000X-0.062500X0*%
%ADD55RoundRect,0.015000X0.840000X-0.840000X0.840000X0.840000X-0.840000X0.840000X-0.840000X-0.840000X0*%
%ADD56RoundRect,0.015000X-1.980000X0.990000X-1.980000X-0.990000X1.980000X-0.990000X1.980000X0.990000X0*%
%ADD57RoundRect,0.265000X0.312500X1.450000X-0.312500X1.450000X-0.312500X-1.450000X0.312500X-1.450000X0*%
G04 APERTURE END LIST*
D10*
%TO.C,JP1*%
X169500000Y-106750000D03*
D11*
X169500000Y-104210000D03*
%TD*%
D12*
%TO.C,TP6*%
X156000000Y-96500000D03*
%TD*%
D13*
%TO.C,C3*%
X168000000Y-70000000D03*
X168000000Y-68450000D03*
%TD*%
D14*
%TO.C,R14*%
X177000000Y-124075000D03*
X177000000Y-122425000D03*
%TD*%
D15*
%TO.C,J3*%
X126625000Y-117335000D03*
D16*
X126625000Y-112335000D03*
%TD*%
D17*
%TO.C,H1*%
X118500000Y-137000000D03*
%TD*%
D12*
%TO.C,TP5*%
X171250000Y-88750000D03*
%TD*%
D18*
%TO.C,Q2*%
X163700000Y-85062500D03*
X161800000Y-85062500D03*
X162750000Y-86937500D03*
%TD*%
%TO.C,Q4*%
X178700000Y-127812500D03*
X176800000Y-127812500D03*
X177750000Y-129687500D03*
%TD*%
D12*
%TO.C,TP2*%
X154500000Y-72500000D03*
%TD*%
D19*
%TO.C,C1*%
X162000000Y-70550000D03*
X162000000Y-72450000D03*
%TD*%
D15*
%TO.C,J5*%
X126625000Y-106045000D03*
D16*
X126625000Y-101045000D03*
X126625000Y-96045000D03*
%TD*%
D14*
%TO.C,R3*%
X175250000Y-117825000D03*
X175250000Y-116175000D03*
%TD*%
D12*
%TO.C,TP4*%
X157250000Y-76000000D03*
%TD*%
D20*
%TO.C,J11*%
X179900000Y-122750000D03*
D11*
X182440000Y-122750000D03*
X184980000Y-122750000D03*
X187520000Y-122750000D03*
X190060000Y-122750000D03*
X192600000Y-122750000D03*
%TD*%
D14*
%TO.C,R4*%
X171250000Y-85575000D03*
X171250000Y-83925000D03*
%TD*%
D17*
%TO.C,H4*%
X182500000Y-137000000D03*
%TD*%
D21*
%TO.C,J9*%
X155250000Y-103000000D03*
D22*
X155250000Y-105500000D03*
X155250000Y-108000000D03*
X155250000Y-110500000D03*
%TD*%
D12*
%TO.C,TP15*%
X179500000Y-92750000D03*
%TD*%
D13*
%TO.C,C4*%
X181500000Y-89775000D03*
X181500000Y-88225000D03*
%TD*%
D10*
%TO.C,J2*%
X114000000Y-86290000D03*
D11*
X114000000Y-83750000D03*
X114000000Y-81210000D03*
%TD*%
D23*
%TO.C,J12*%
X164500000Y-121475000D03*
D11*
X164500000Y-124015000D03*
X164500000Y-126555000D03*
%TD*%
D12*
%TO.C,TP1*%
X162750000Y-90250000D03*
%TD*%
D24*
%TO.C,SW1*%
X193800000Y-84740000D03*
X184700000Y-84740000D03*
X193800000Y-89240000D03*
X184700000Y-89240000D03*
%TD*%
D25*
%TO.C,R11*%
X169500000Y-76175000D03*
X169500000Y-77825000D03*
%TD*%
D14*
%TO.C,R2*%
X149500000Y-73325000D03*
X149500000Y-71675000D03*
%TD*%
D25*
%TO.C,R13*%
X187500000Y-92425000D03*
X187500000Y-94075000D03*
%TD*%
D26*
%TO.C,J7*%
X150775000Y-58900000D03*
D27*
X152775000Y-60500000D03*
D28*
X152775000Y-63000000D03*
%TD*%
D12*
%TO.C,TP16*%
X104750000Y-112000000D03*
%TD*%
D14*
%TO.C,R9*%
X158250000Y-66075000D03*
X158250000Y-64425000D03*
%TD*%
D25*
%TO.C,R7*%
X179750000Y-88175000D03*
X179750000Y-89825000D03*
%TD*%
D29*
%TO.C,C12*%
X112975000Y-121000000D03*
X114525000Y-121000000D03*
%TD*%
D13*
%TO.C,C2*%
X166225000Y-70000000D03*
X166225000Y-68450000D03*
%TD*%
D15*
%TO.C,J4*%
X126625000Y-128835000D03*
D16*
X126625000Y-123835000D03*
%TD*%
D14*
%TO.C,R1*%
X151500000Y-73325000D03*
X151500000Y-71675000D03*
%TD*%
D30*
%TO.C,L1*%
X167000000Y-78500000D03*
X164000000Y-78500000D03*
%TD*%
D12*
%TO.C,TP10*%
X105750000Y-93500000D03*
%TD*%
D31*
%TO.C,D2*%
X162000000Y-68250000D03*
X158500000Y-68250000D03*
%TD*%
D32*
%TO.C,Q1*%
X167437500Y-83950000D03*
X167437500Y-82050000D03*
X165562500Y-83000000D03*
%TD*%
D17*
%TO.C,H2*%
X118500000Y-73000000D03*
%TD*%
D12*
%TO.C,TP13*%
X109000000Y-83750000D03*
%TD*%
%TO.C,TP18*%
X104250000Y-108000000D03*
%TD*%
D23*
%TO.C,JP2*%
X169500000Y-114975000D03*
D11*
X169500000Y-117515000D03*
%TD*%
D17*
%TO.C,H3*%
X182500000Y-73000000D03*
%TD*%
D29*
%TO.C,C8*%
X189225000Y-92500000D03*
X190775000Y-92500000D03*
%TD*%
D33*
%TO.C,Q3*%
X160050000Y-65687500D03*
X161950000Y-65687500D03*
X161000000Y-63812500D03*
%TD*%
D12*
%TO.C,TP9*%
X167250000Y-88000000D03*
%TD*%
D34*
%TO.C,U2*%
X190505000Y-96500000D03*
X189235000Y-96500000D03*
X187965000Y-96500000D03*
X186695000Y-96500000D03*
X185425000Y-96500000D03*
X184155000Y-96500000D03*
X182885000Y-96500000D03*
X181615000Y-96500000D03*
X180345000Y-96500000D03*
X179075000Y-96500000D03*
X177805000Y-96500000D03*
X176535000Y-96500000D03*
X175265000Y-96500000D03*
X173995000Y-96500000D03*
D35*
X172995000Y-99285000D03*
X172995000Y-100555000D03*
X172995000Y-101825000D03*
X172995000Y-103095000D03*
X172995000Y-104365000D03*
X172995000Y-105635000D03*
X172995000Y-106905000D03*
X172995000Y-108175000D03*
X172995000Y-109445000D03*
X172995000Y-110715000D03*
D34*
X173995000Y-113500000D03*
X175265000Y-113500000D03*
X176535000Y-113500000D03*
X177805000Y-113500000D03*
X179075000Y-113500000D03*
X180345000Y-113500000D03*
X181615000Y-113500000D03*
X182885000Y-113500000D03*
X184155000Y-113500000D03*
X185425000Y-113500000D03*
X186695000Y-113500000D03*
X187965000Y-113500000D03*
X189235000Y-113500000D03*
X190505000Y-113500000D03*
D36*
X183005000Y-104000000D03*
%TD*%
D13*
%TO.C,C7*%
X196000000Y-89275000D03*
X196000000Y-87725000D03*
%TD*%
D12*
%TO.C,TP12*%
X109000000Y-101000000D03*
%TD*%
D37*
%TO.C,R15*%
X178575000Y-125750000D03*
X176925000Y-125750000D03*
%TD*%
D38*
%TO.C,R6*%
X161925000Y-83000000D03*
X163575000Y-83000000D03*
%TD*%
D39*
%TO.C,J10*%
X134000000Y-71250000D03*
D40*
X136500000Y-71250000D03*
X139000000Y-71250000D03*
X141500000Y-71250000D03*
%TD*%
D41*
%TO.C,D1*%
X176787500Y-119500000D03*
X175212500Y-119500000D03*
%TD*%
D15*
%TO.C,J6*%
X126625000Y-89045000D03*
D16*
X126625000Y-84045000D03*
X126625000Y-79045000D03*
%TD*%
D14*
%TO.C,R12*%
X169750000Y-111150000D03*
X169750000Y-109500000D03*
%TD*%
D12*
%TO.C,TP11*%
X165250000Y-133500000D03*
%TD*%
%TO.C,TP8*%
X154000000Y-81500000D03*
%TD*%
D42*
%TO.C,C6*%
X162000000Y-75950000D03*
X162000000Y-74050000D03*
%TD*%
D12*
%TO.C,TP3*%
X146500000Y-72500000D03*
%TD*%
D43*
%TO.C,C11*%
X113050000Y-123000000D03*
X114950000Y-123000000D03*
%TD*%
D29*
%TO.C,C9*%
X189225000Y-94250000D03*
X190775000Y-94250000D03*
%TD*%
D14*
%TO.C,R5*%
X169500000Y-83825000D03*
X169500000Y-82175000D03*
%TD*%
%TO.C,R16*%
X163250000Y-145325000D03*
X163250000Y-143675000D03*
%TD*%
D13*
%TO.C,C5*%
X175500000Y-89775000D03*
X175500000Y-88225000D03*
%TD*%
D12*
%TO.C,TP19*%
X105750000Y-120000000D03*
%TD*%
D44*
%TO.C,U3*%
X111250000Y-110305000D03*
X111250000Y-111575000D03*
X111250000Y-112845000D03*
X111250000Y-114115000D03*
X111250000Y-115385000D03*
X111250000Y-116655000D03*
X111250000Y-117925000D03*
X111250000Y-119195000D03*
X116250000Y-119195000D03*
X116250000Y-117925000D03*
X116250000Y-116655000D03*
X116250000Y-115385000D03*
X116250000Y-114115000D03*
X116250000Y-112845000D03*
X116250000Y-111575000D03*
X116250000Y-110305000D03*
%TD*%
D45*
%TO.C,C10*%
X113347349Y-128750000D03*
D46*
X116847349Y-128750000D03*
%TD*%
D10*
%TO.C,J1*%
X114000000Y-103540000D03*
D11*
X114000000Y-101000000D03*
X114000000Y-98460000D03*
%TD*%
D12*
%TO.C,TP14*%
X183500000Y-92750000D03*
%TD*%
%TO.C,TP20*%
X168000000Y-142250000D03*
%TD*%
%TO.C,TP7*%
X160000000Y-96500000D03*
%TD*%
D47*
%TO.C,J14*%
X149700000Y-145550000D03*
X149700000Y-137550000D03*
D48*
X160700000Y-144750000D03*
X160700000Y-143650000D03*
X160700000Y-142550000D03*
X160700000Y-141450000D03*
X160700000Y-140350000D03*
X160700000Y-139250000D03*
X160700000Y-138150000D03*
X160700000Y-137050000D03*
X160700000Y-135950000D03*
D49*
X159700000Y-134750000D03*
D50*
X159700000Y-149350000D03*
D51*
X150100000Y-150250000D03*
X150100000Y-134750000D03*
%TD*%
D52*
%TO.C,D3*%
X173500000Y-124500000D03*
X173500000Y-128500000D03*
%TD*%
D12*
%TO.C,TP17*%
X105250000Y-116000000D03*
%TD*%
%TO.C,TP21*%
X165250000Y-139250000D03*
%TD*%
%TO.C,TP22*%
X167500000Y-146250000D03*
%TD*%
D53*
%TO.C,U1*%
X165250000Y-74962500D03*
X165750000Y-74962500D03*
X166250000Y-74962500D03*
X166750000Y-74962500D03*
D54*
X167462500Y-74250000D03*
X167462500Y-73750000D03*
X167462500Y-73250000D03*
X167462500Y-72750000D03*
D53*
X166750000Y-72037500D03*
X166250000Y-72037500D03*
X165750000Y-72037500D03*
X165250000Y-72037500D03*
D54*
X164537500Y-72750000D03*
X164537500Y-73250000D03*
X164537500Y-73750000D03*
X164537500Y-74250000D03*
D55*
X166000000Y-73500000D03*
%TD*%
D56*
%TO.C,J13*%
X155625000Y-121665000D03*
D16*
X155625000Y-126665000D03*
%TD*%
D57*
%TO.C,F1*%
X160887500Y-60250000D03*
X156612500Y-60250000D03*
%TD*%
D12*
%TO.C,TP23*%
X168000000Y-136500000D03*
%TD*%
D25*
%TO.C,R10*%
X169500000Y-72925000D03*
X169500000Y-74575000D03*
%TD*%
D26*
%TO.C,J8*%
X173900000Y-84225000D03*
D39*
X175500000Y-82225000D03*
D40*
X178000000Y-82225000D03*
X180500000Y-82225000D03*
%TD*%
D25*
%TO.C,R8*%
X177250000Y-88175000D03*
X177250000Y-89825000D03*
%TD*%
G36*
X166391862Y-74354000D02*
G01*
X166391862Y-74356000D01*
X166390748Y-74356902D01*
X166332592Y-74375798D01*
X166297028Y-74424747D01*
X166297028Y-74485227D01*
X166335969Y-74536669D01*
X166338346Y-74538257D01*
X166339231Y-74540051D01*
X166338120Y-74541714D01*
X166336845Y-74541882D01*
X166312301Y-74537000D01*
X166187699Y-74537000D01*
X166163155Y-74541882D01*
X166161261Y-74541239D01*
X166160871Y-74539277D01*
X166161654Y-74538257D01*
X166164048Y-74536657D01*
X166201713Y-74488880D01*
X166204086Y-74428424D01*
X166170485Y-74378137D01*
X166109214Y-74356890D01*
X166107905Y-74355377D01*
X166108560Y-74353488D01*
X166109869Y-74353000D01*
X166390130Y-74353000D01*
X166391862Y-74354000D01*
G37*
G36*
X166842320Y-74353517D02*
G01*
X166842711Y-74355479D01*
X166841928Y-74356500D01*
X166831227Y-74363650D01*
X166831357Y-74363844D01*
X166831488Y-74365839D01*
X166830671Y-74366700D01*
X166804629Y-74381285D01*
X166779300Y-74436229D01*
X166791105Y-74495570D01*
X166827117Y-74528858D01*
X166827710Y-74530768D01*
X166827582Y-74531065D01*
X166834385Y-74535610D01*
X166834632Y-74535805D01*
X166835689Y-74536782D01*
X166836303Y-74536982D01*
X166836795Y-74537221D01*
X166838345Y-74538257D01*
X166839230Y-74540051D01*
X166838118Y-74541714D01*
X166836844Y-74541882D01*
X166812301Y-74537000D01*
X166687699Y-74537000D01*
X166663155Y-74541882D01*
X166661261Y-74541239D01*
X166660871Y-74539277D01*
X166661654Y-74538257D01*
X166664048Y-74536657D01*
X166701713Y-74488880D01*
X166704088Y-74428425D01*
X166670486Y-74378137D01*
X166609215Y-74356890D01*
X166607906Y-74355377D01*
X166608561Y-74353488D01*
X166609870Y-74353000D01*
X166839804Y-74353000D01*
X166840426Y-74352876D01*
X166842320Y-74353517D01*
G37*
G36*
X165160199Y-74353000D02*
G01*
X165390134Y-74353000D01*
X165391866Y-74354000D01*
X165391866Y-74356000D01*
X165390752Y-74356902D01*
X165332593Y-74375799D01*
X165297029Y-74424748D01*
X165297029Y-74485228D01*
X165335970Y-74536670D01*
X165338345Y-74538257D01*
X165339230Y-74540051D01*
X165338118Y-74541714D01*
X165336844Y-74541882D01*
X165312301Y-74537000D01*
X165187699Y-74537000D01*
X165163155Y-74541882D01*
X165161261Y-74541239D01*
X165160871Y-74539277D01*
X165161654Y-74538257D01*
X165172356Y-74531106D01*
X165171598Y-74529972D01*
X165171467Y-74527976D01*
X165172284Y-74527116D01*
X165195364Y-74514193D01*
X165220699Y-74459251D01*
X165208900Y-74399909D01*
X165164318Y-74358691D01*
X165158805Y-74356899D01*
X165158312Y-74356660D01*
X165158074Y-74356501D01*
X165157189Y-74354707D01*
X165158300Y-74353044D01*
X165159575Y-74352876D01*
X165160199Y-74353000D01*
G37*
G36*
X165891866Y-74354000D02*
G01*
X165891866Y-74356000D01*
X165890752Y-74356902D01*
X165832593Y-74375799D01*
X165797029Y-74424748D01*
X165797029Y-74485229D01*
X165835970Y-74536670D01*
X165838345Y-74538257D01*
X165839230Y-74540051D01*
X165838118Y-74541714D01*
X165836844Y-74541882D01*
X165812301Y-74537000D01*
X165687699Y-74537000D01*
X165663156Y-74541882D01*
X165661262Y-74541239D01*
X165660872Y-74539277D01*
X165661655Y-74538257D01*
X165664047Y-74536658D01*
X165701712Y-74488882D01*
X165704087Y-74428427D01*
X165670485Y-74378138D01*
X165609211Y-74356890D01*
X165607902Y-74355377D01*
X165608557Y-74353488D01*
X165609866Y-74353000D01*
X165890134Y-74353000D01*
X165891866Y-74354000D01*
G37*
G36*
X166856902Y-74109249D02*
G01*
X166875799Y-74167407D01*
X166924748Y-74202971D01*
X166985228Y-74202971D01*
X167036670Y-74164030D01*
X167038257Y-74161655D01*
X167040051Y-74160770D01*
X167041714Y-74161882D01*
X167041882Y-74163156D01*
X167037000Y-74187699D01*
X167037000Y-74312301D01*
X167041882Y-74336845D01*
X167041239Y-74338739D01*
X167039277Y-74339129D01*
X167038257Y-74338346D01*
X167031106Y-74327644D01*
X167029972Y-74328402D01*
X167027976Y-74328533D01*
X167027116Y-74327716D01*
X167014193Y-74304636D01*
X166959251Y-74279301D01*
X166899909Y-74291100D01*
X166858691Y-74335682D01*
X166856899Y-74341195D01*
X166856660Y-74341688D01*
X166856501Y-74341926D01*
X166854707Y-74342811D01*
X166853044Y-74341700D01*
X166852876Y-74340425D01*
X166853000Y-74339801D01*
X166853000Y-74109867D01*
X166854000Y-74108135D01*
X166856000Y-74108135D01*
X166856902Y-74109249D01*
G37*
G36*
X165146512Y-74108561D02*
G01*
X165147000Y-74109870D01*
X165147000Y-74339804D01*
X165147124Y-74340426D01*
X165146483Y-74342320D01*
X165144521Y-74342711D01*
X165143500Y-74341928D01*
X165136350Y-74331227D01*
X165136156Y-74331357D01*
X165134161Y-74331488D01*
X165133300Y-74330671D01*
X165118715Y-74304629D01*
X165063771Y-74279300D01*
X165004430Y-74291105D01*
X164971142Y-74327117D01*
X164969232Y-74327710D01*
X164968935Y-74327582D01*
X164964390Y-74334385D01*
X164964195Y-74334632D01*
X164963218Y-74335689D01*
X164963018Y-74336303D01*
X164962779Y-74336795D01*
X164961743Y-74338345D01*
X164959949Y-74339230D01*
X164958286Y-74338118D01*
X164958118Y-74336844D01*
X164963000Y-74312301D01*
X164963000Y-74187699D01*
X164958118Y-74163155D01*
X164958761Y-74161261D01*
X164960723Y-74160871D01*
X164961743Y-74161654D01*
X164963343Y-74164048D01*
X165011120Y-74201713D01*
X165071575Y-74204088D01*
X165121863Y-74170486D01*
X165143110Y-74109215D01*
X165144623Y-74107906D01*
X165146512Y-74108561D01*
G37*
G36*
X166856902Y-73609248D02*
G01*
X166875799Y-73667407D01*
X166924748Y-73702971D01*
X166985229Y-73702971D01*
X167036670Y-73664030D01*
X167038257Y-73661655D01*
X167040051Y-73660770D01*
X167041714Y-73661882D01*
X167041882Y-73663156D01*
X167037000Y-73687699D01*
X167037000Y-73812301D01*
X167041882Y-73836844D01*
X167041239Y-73838738D01*
X167039277Y-73839128D01*
X167038257Y-73838345D01*
X167036658Y-73835953D01*
X166988882Y-73798288D01*
X166928427Y-73795913D01*
X166878138Y-73829515D01*
X166856890Y-73890788D01*
X166855377Y-73892097D01*
X166853488Y-73891442D01*
X166853000Y-73890133D01*
X166853000Y-73609866D01*
X166854000Y-73608134D01*
X166856000Y-73608134D01*
X166856902Y-73609248D01*
G37*
G36*
X165146512Y-73608560D02*
G01*
X165147000Y-73609869D01*
X165147000Y-73890130D01*
X165146000Y-73891862D01*
X165144000Y-73891862D01*
X165143098Y-73890748D01*
X165124202Y-73832592D01*
X165075253Y-73797028D01*
X165014773Y-73797028D01*
X164963331Y-73835969D01*
X164961743Y-73838346D01*
X164959949Y-73839231D01*
X164958286Y-73838120D01*
X164958118Y-73836845D01*
X164963000Y-73812301D01*
X164963000Y-73687699D01*
X164958118Y-73663155D01*
X164958761Y-73661261D01*
X164960723Y-73660871D01*
X164961743Y-73661654D01*
X164963343Y-73664048D01*
X165011120Y-73701713D01*
X165071576Y-73704086D01*
X165121863Y-73670485D01*
X165143110Y-73609214D01*
X165144623Y-73607905D01*
X165146512Y-73608560D01*
G37*
G36*
X166856902Y-73109252D02*
G01*
X166875798Y-73167408D01*
X166924747Y-73202972D01*
X166985227Y-73202972D01*
X167036669Y-73164031D01*
X167038257Y-73161654D01*
X167040051Y-73160769D01*
X167041714Y-73161880D01*
X167041882Y-73163155D01*
X167037000Y-73187699D01*
X167037000Y-73312301D01*
X167041882Y-73336845D01*
X167041239Y-73338739D01*
X167039277Y-73339129D01*
X167038257Y-73338346D01*
X167036657Y-73335952D01*
X166988880Y-73298287D01*
X166928424Y-73295914D01*
X166878137Y-73329515D01*
X166856890Y-73390786D01*
X166855377Y-73392095D01*
X166853488Y-73391440D01*
X166853000Y-73390131D01*
X166853000Y-73109870D01*
X166854000Y-73108138D01*
X166856000Y-73108138D01*
X166856902Y-73109252D01*
G37*
G36*
X165146512Y-73108558D02*
G01*
X165147000Y-73109867D01*
X165147000Y-73390134D01*
X165146000Y-73391866D01*
X165144000Y-73391866D01*
X165143098Y-73390752D01*
X165124201Y-73332593D01*
X165075252Y-73297029D01*
X165014771Y-73297029D01*
X164963330Y-73335970D01*
X164961743Y-73338345D01*
X164959949Y-73339230D01*
X164958286Y-73338118D01*
X164958118Y-73336844D01*
X164963000Y-73312301D01*
X164963000Y-73187699D01*
X164958118Y-73163156D01*
X164958761Y-73161262D01*
X164960723Y-73160872D01*
X164961743Y-73161655D01*
X164963342Y-73164047D01*
X165011118Y-73201712D01*
X165071573Y-73204087D01*
X165121862Y-73170485D01*
X165143110Y-73109212D01*
X165144623Y-73107903D01*
X165146512Y-73108558D01*
G37*
G36*
X166856500Y-72658072D02*
G01*
X166863650Y-72668773D01*
X166863844Y-72668643D01*
X166865839Y-72668512D01*
X166866700Y-72669329D01*
X166881285Y-72695371D01*
X166936229Y-72720700D01*
X166995570Y-72708895D01*
X167028858Y-72672883D01*
X167030768Y-72672290D01*
X167031065Y-72672418D01*
X167035610Y-72665615D01*
X167035805Y-72665368D01*
X167036782Y-72664311D01*
X167036982Y-72663697D01*
X167037221Y-72663205D01*
X167038257Y-72661655D01*
X167040051Y-72660770D01*
X167041714Y-72661882D01*
X167041882Y-72663156D01*
X167037000Y-72687699D01*
X167037000Y-72812301D01*
X167041882Y-72836845D01*
X167041239Y-72838739D01*
X167039277Y-72839129D01*
X167038257Y-72838346D01*
X167036657Y-72835952D01*
X166988880Y-72798287D01*
X166928425Y-72795912D01*
X166878137Y-72829514D01*
X166856890Y-72890785D01*
X166855377Y-72892094D01*
X166853488Y-72891439D01*
X166853000Y-72890130D01*
X166853000Y-72660196D01*
X166852876Y-72659574D01*
X166853517Y-72657680D01*
X166855479Y-72657289D01*
X166856500Y-72658072D01*
G37*
G36*
X165146956Y-72658300D02*
G01*
X165147124Y-72659575D01*
X165147000Y-72660199D01*
X165147000Y-72890133D01*
X165146000Y-72891865D01*
X165144000Y-72891865D01*
X165143098Y-72890751D01*
X165124201Y-72832593D01*
X165075252Y-72797029D01*
X165014772Y-72797029D01*
X164963330Y-72835970D01*
X164961743Y-72838345D01*
X164959949Y-72839230D01*
X164958286Y-72838118D01*
X164958118Y-72836844D01*
X164963000Y-72812301D01*
X164963000Y-72687699D01*
X164958118Y-72663155D01*
X164958761Y-72661261D01*
X164960723Y-72660871D01*
X164961743Y-72661654D01*
X164968894Y-72672356D01*
X164970028Y-72671598D01*
X164972024Y-72671467D01*
X164972884Y-72672284D01*
X164985807Y-72695364D01*
X165040749Y-72720699D01*
X165100091Y-72708900D01*
X165141309Y-72664318D01*
X165143101Y-72658805D01*
X165143340Y-72658312D01*
X165143499Y-72658074D01*
X165145293Y-72657189D01*
X165146956Y-72658300D01*
G37*
G36*
X166838739Y-72458761D02*
G01*
X166839129Y-72460723D01*
X166838346Y-72461743D01*
X166827644Y-72468894D01*
X166828402Y-72470028D01*
X166828533Y-72472024D01*
X166827716Y-72472884D01*
X166804636Y-72485807D01*
X166779301Y-72540749D01*
X166791100Y-72600091D01*
X166835682Y-72641309D01*
X166841195Y-72643101D01*
X166841688Y-72643340D01*
X166841926Y-72643499D01*
X166842811Y-72645293D01*
X166841700Y-72646956D01*
X166840425Y-72647124D01*
X166839801Y-72647000D01*
X166609866Y-72647000D01*
X166608134Y-72646000D01*
X166608134Y-72644000D01*
X166609248Y-72643098D01*
X166667407Y-72624201D01*
X166702971Y-72575252D01*
X166702971Y-72514772D01*
X166664030Y-72463330D01*
X166661655Y-72461743D01*
X166660770Y-72459949D01*
X166661882Y-72458286D01*
X166663156Y-72458118D01*
X166687699Y-72463000D01*
X166812301Y-72463000D01*
X166836845Y-72458118D01*
X166838739Y-72458761D01*
G37*
G36*
X165338739Y-72458761D02*
G01*
X165339129Y-72460723D01*
X165338346Y-72461743D01*
X165335952Y-72463343D01*
X165298287Y-72511120D01*
X165295912Y-72571575D01*
X165329514Y-72621863D01*
X165390785Y-72643110D01*
X165392094Y-72644623D01*
X165391439Y-72646512D01*
X165390130Y-72647000D01*
X165160196Y-72647000D01*
X165159574Y-72647124D01*
X165157680Y-72646483D01*
X165157289Y-72644521D01*
X165158072Y-72643500D01*
X165168773Y-72636350D01*
X165168643Y-72636156D01*
X165168512Y-72634161D01*
X165169329Y-72633300D01*
X165195371Y-72618715D01*
X165220700Y-72563771D01*
X165208895Y-72504430D01*
X165172883Y-72471142D01*
X165172290Y-72469232D01*
X165172418Y-72468935D01*
X165165615Y-72464390D01*
X165165368Y-72464195D01*
X165164311Y-72463218D01*
X165163697Y-72463018D01*
X165163205Y-72462779D01*
X165161655Y-72461743D01*
X165160770Y-72459949D01*
X165161882Y-72458286D01*
X165163156Y-72458118D01*
X165187699Y-72463000D01*
X165312301Y-72463000D01*
X165336845Y-72458118D01*
X165338739Y-72458761D01*
G37*
G36*
X166338738Y-72458761D02*
G01*
X166339128Y-72460723D01*
X166338345Y-72461743D01*
X166335953Y-72463342D01*
X166298288Y-72511118D01*
X166295913Y-72571573D01*
X166329515Y-72621862D01*
X166390789Y-72643110D01*
X166392098Y-72644623D01*
X166391443Y-72646512D01*
X166390134Y-72647000D01*
X166109866Y-72647000D01*
X166108134Y-72646000D01*
X166108134Y-72644000D01*
X166109248Y-72643098D01*
X166167407Y-72624201D01*
X166202971Y-72575252D01*
X166202971Y-72514771D01*
X166164030Y-72463330D01*
X166161655Y-72461743D01*
X166160770Y-72459949D01*
X166161882Y-72458286D01*
X166163156Y-72458118D01*
X166187699Y-72463000D01*
X166312301Y-72463000D01*
X166336844Y-72458118D01*
X166338738Y-72458761D01*
G37*
G36*
X165838739Y-72458761D02*
G01*
X165839129Y-72460723D01*
X165838346Y-72461743D01*
X165835952Y-72463343D01*
X165798287Y-72511120D01*
X165795914Y-72571576D01*
X165829515Y-72621863D01*
X165890786Y-72643110D01*
X165892095Y-72644623D01*
X165891440Y-72646512D01*
X165890131Y-72647000D01*
X165609870Y-72647000D01*
X165608138Y-72646000D01*
X165608138Y-72644000D01*
X165609252Y-72643098D01*
X165667408Y-72624202D01*
X165702972Y-72575253D01*
X165702972Y-72514773D01*
X165664031Y-72463331D01*
X165661654Y-72461743D01*
X165660769Y-72459949D01*
X165661880Y-72458286D01*
X165663155Y-72458118D01*
X165687699Y-72463000D01*
X165812301Y-72463000D01*
X165836845Y-72458118D01*
X165838739Y-72458761D01*
G37*
M02*
