%TF.GenerationSoftware,KiCad,Pcbnew,(6.0.5)*%
%TF.CreationDate,2022-06-07T13:18:44+00:00*%
%TF.ProjectId,co2_sensor_node,636f325f-7365-46e7-936f-725f6e6f6465,rev?*%
%TF.SameCoordinates,Original*%
%TF.FileFunction,Paste,Top*%
%TF.FilePolarity,Positive*%
%FSLAX46Y46*%
G04 Gerber Fmt 4.6, Leading zero omitted, Abs format (unit mm)*
G04 Created by KiCad (PCBNEW (6.0.5)) date 2022-06-07 13:18:44*
%MOMM*%
%LPD*%
G01*
G04 APERTURE LIST*
G04 Aperture macros list*
%AMRoundRect*
0 Rectangle with rounded corners*
0 $1 Rounding radius*
0 $2 $3 $4 $5 $6 $7 $8 $9 X,Y pos of 4 corners*
0 Add a 4 corners polygon primitive as box body*
4,1,4,$2,$3,$4,$5,$6,$7,$8,$9,$2,$3,0*
0 Add four circle primitives for the rounded corners*
1,1,$1+$1,$2,$3*
1,1,$1+$1,$4,$5*
1,1,$1+$1,$6,$7*
1,1,$1+$1,$8,$9*
0 Add four rect primitives between the rounded corners*
20,1,$1+$1,$2,$3,$4,$5,0*
20,1,$1+$1,$4,$5,$6,$7,0*
20,1,$1+$1,$6,$7,$8,$9,0*
20,1,$1+$1,$8,$9,$2,$3,0*%
G04 Aperture macros list end*
%ADD10RoundRect,0.225000X0.250000X-0.225000X0.250000X0.225000X-0.250000X0.225000X-0.250000X-0.225000X0*%
%ADD11RoundRect,0.200000X0.275000X-0.200000X0.275000X0.200000X-0.275000X0.200000X-0.275000X-0.200000X0*%
%ADD12RoundRect,0.150000X-0.150000X0.587500X-0.150000X-0.587500X0.150000X-0.587500X0.150000X0.587500X0*%
%ADD13RoundRect,0.250000X-0.475000X0.250000X-0.475000X-0.250000X0.475000X-0.250000X0.475000X0.250000X0*%
%ADD14RoundRect,0.100000X-0.850000X-0.400000X0.850000X-0.400000X0.850000X0.400000X-0.850000X0.400000X0*%
%ADD15RoundRect,0.200000X-0.275000X0.200000X-0.275000X-0.200000X0.275000X-0.200000X0.275000X0.200000X0*%
%ADD16RoundRect,0.225000X-0.225000X-0.250000X0.225000X-0.250000X0.225000X0.250000X-0.225000X0.250000X0*%
%ADD17RoundRect,0.110000X0.440000X1.740000X-0.440000X1.740000X-0.440000X-1.740000X0.440000X-1.740000X0*%
%ADD18R,1.300000X1.700000*%
%ADD19RoundRect,0.150000X0.587500X0.150000X-0.587500X0.150000X-0.587500X-0.150000X0.587500X-0.150000X0*%
%ADD20RoundRect,0.150000X0.150000X-0.587500X0.150000X0.587500X-0.150000X0.587500X-0.150000X-0.587500X0*%
%ADD21R,0.900000X2.000000*%
%ADD22R,2.000000X0.900000*%
%ADD23R,5.000000X5.000000*%
%ADD24RoundRect,0.200000X0.200000X0.275000X-0.200000X0.275000X-0.200000X-0.275000X0.200000X-0.275000X0*%
%ADD25RoundRect,0.200000X-0.200000X-0.275000X0.200000X-0.275000X0.200000X0.275000X-0.200000X0.275000X0*%
%ADD26RoundRect,0.218750X0.218750X0.256250X-0.218750X0.256250X-0.218750X-0.256250X0.218750X-0.256250X0*%
%ADD27RoundRect,0.250000X0.475000X-0.250000X0.475000X0.250000X-0.475000X0.250000X-0.475000X-0.250000X0*%
%ADD28RoundRect,0.250000X-0.250000X-0.475000X0.250000X-0.475000X0.250000X0.475000X-0.250000X0.475000X0*%
%ADD29RoundRect,0.150000X-0.850000X-0.150000X0.850000X-0.150000X0.850000X0.150000X-0.850000X0.150000X0*%
%ADD30RoundRect,0.175000X-0.625000X0.175000X-0.625000X-0.175000X0.625000X-0.175000X0.625000X0.175000X0*%
%ADD31RoundRect,0.120000X-0.630000X0.480000X-0.630000X-0.480000X0.630000X-0.480000X0.630000X0.480000X0*%
%ADD32RoundRect,0.150000X-0.600000X0.650000X-0.600000X-0.650000X0.600000X-0.650000X0.600000X0.650000X0*%
%ADD33RoundRect,0.120000X-0.980000X0.480000X-0.980000X-0.480000X0.980000X-0.480000X0.980000X0.480000X0*%
%ADD34R,1.800000X2.500000*%
%ADD35RoundRect,0.182500X0.182500X-0.182500X0.182500X0.182500X-0.182500X0.182500X-0.182500X-0.182500X0*%
%ADD36RoundRect,0.062500X0.062500X-0.350000X0.062500X0.350000X-0.062500X0.350000X-0.062500X-0.350000X0*%
%ADD37RoundRect,0.062500X0.350000X-0.062500X0.350000X0.062500X-0.350000X0.062500X-0.350000X-0.062500X0*%
%ADD38RoundRect,0.250000X0.312500X1.450000X-0.312500X1.450000X-0.312500X-1.450000X0.312500X-1.450000X0*%
G04 APERTURE END LIST*
D10*
%TO.C,C3*%
X168000000Y-70000000D03*
X168000000Y-68450000D03*
%TD*%
D11*
%TO.C,R14*%
X177000000Y-124075000D03*
X177000000Y-122425000D03*
%TD*%
D12*
%TO.C,Q2*%
X163700000Y-85062500D03*
X161800000Y-85062500D03*
X162750000Y-86937500D03*
%TD*%
%TO.C,Q4*%
X178700000Y-127812500D03*
X176800000Y-127812500D03*
X177750000Y-129687500D03*
%TD*%
D13*
%TO.C,C1*%
X162000000Y-70550000D03*
X162000000Y-72450000D03*
%TD*%
D11*
%TO.C,R3*%
X175250000Y-117825000D03*
X175250000Y-116175000D03*
%TD*%
%TO.C,R4*%
X171250000Y-85575000D03*
X171250000Y-83925000D03*
%TD*%
D10*
%TO.C,C4*%
X181500000Y-89775000D03*
X181500000Y-88225000D03*
%TD*%
D14*
%TO.C,SW1*%
X193800000Y-84740000D03*
X184700000Y-84740000D03*
X193800000Y-89240000D03*
X184700000Y-89240000D03*
%TD*%
D15*
%TO.C,R11*%
X169500000Y-76175000D03*
X169500000Y-77825000D03*
%TD*%
D11*
%TO.C,R2*%
X149500000Y-73325000D03*
X149500000Y-71675000D03*
%TD*%
D15*
%TO.C,R13*%
X187500000Y-92425000D03*
X187500000Y-94075000D03*
%TD*%
D11*
%TO.C,R9*%
X158250000Y-66075000D03*
X158250000Y-64425000D03*
%TD*%
D15*
%TO.C,R7*%
X179750000Y-88175000D03*
X179750000Y-89825000D03*
%TD*%
D16*
%TO.C,C12*%
X112975000Y-121000000D03*
X114525000Y-121000000D03*
%TD*%
D10*
%TO.C,C2*%
X166225000Y-70000000D03*
X166225000Y-68450000D03*
%TD*%
D11*
%TO.C,R1*%
X151500000Y-73325000D03*
X151500000Y-71675000D03*
%TD*%
D17*
%TO.C,L1*%
X167000000Y-78500000D03*
X164000000Y-78500000D03*
%TD*%
D18*
%TO.C,D2*%
X162000000Y-68250000D03*
X158500000Y-68250000D03*
%TD*%
D19*
%TO.C,Q1*%
X167437500Y-83950000D03*
X167437500Y-82050000D03*
X165562500Y-83000000D03*
%TD*%
D16*
%TO.C,C8*%
X189225000Y-92500000D03*
X190775000Y-92500000D03*
%TD*%
D20*
%TO.C,Q3*%
X160050000Y-65687500D03*
X161950000Y-65687500D03*
X161000000Y-63812500D03*
%TD*%
D21*
%TO.C,U2*%
X190505000Y-96500000D03*
X189235000Y-96500000D03*
X187965000Y-96500000D03*
X186695000Y-96500000D03*
X185425000Y-96500000D03*
X184155000Y-96500000D03*
X182885000Y-96500000D03*
X181615000Y-96500000D03*
X180345000Y-96500000D03*
X179075000Y-96500000D03*
X177805000Y-96500000D03*
X176535000Y-96500000D03*
X175265000Y-96500000D03*
X173995000Y-96500000D03*
D22*
X172995000Y-99285000D03*
X172995000Y-100555000D03*
X172995000Y-101825000D03*
X172995000Y-103095000D03*
X172995000Y-104365000D03*
X172995000Y-105635000D03*
X172995000Y-106905000D03*
X172995000Y-108175000D03*
X172995000Y-109445000D03*
X172995000Y-110715000D03*
D21*
X173995000Y-113500000D03*
X175265000Y-113500000D03*
X176535000Y-113500000D03*
X177805000Y-113500000D03*
X179075000Y-113500000D03*
X180345000Y-113500000D03*
X181615000Y-113500000D03*
X182885000Y-113500000D03*
X184155000Y-113500000D03*
X185425000Y-113500000D03*
X186695000Y-113500000D03*
X187965000Y-113500000D03*
X189235000Y-113500000D03*
X190505000Y-113500000D03*
D23*
X183005000Y-104000000D03*
%TD*%
D10*
%TO.C,C7*%
X196000000Y-89275000D03*
X196000000Y-87725000D03*
%TD*%
D24*
%TO.C,R15*%
X178575000Y-125750000D03*
X176925000Y-125750000D03*
%TD*%
D25*
%TO.C,R6*%
X161925000Y-83000000D03*
X163575000Y-83000000D03*
%TD*%
D26*
%TO.C,D1*%
X176787500Y-119500000D03*
X175212500Y-119500000D03*
%TD*%
D11*
%TO.C,R12*%
X169750000Y-111150000D03*
X169750000Y-109500000D03*
%TD*%
D27*
%TO.C,C6*%
X162000000Y-75950000D03*
X162000000Y-74050000D03*
%TD*%
D28*
%TO.C,C11*%
X113050000Y-123000000D03*
X114950000Y-123000000D03*
%TD*%
D16*
%TO.C,C9*%
X189225000Y-94250000D03*
X190775000Y-94250000D03*
%TD*%
D11*
%TO.C,R5*%
X169500000Y-83825000D03*
X169500000Y-82175000D03*
%TD*%
%TO.C,R16*%
X163250000Y-145325000D03*
X163250000Y-143675000D03*
%TD*%
D10*
%TO.C,C5*%
X175500000Y-89775000D03*
X175500000Y-88225000D03*
%TD*%
D29*
%TO.C,U3*%
X111250000Y-110305000D03*
X111250000Y-111575000D03*
X111250000Y-112845000D03*
X111250000Y-114115000D03*
X111250000Y-115385000D03*
X111250000Y-116655000D03*
X111250000Y-117925000D03*
X111250000Y-119195000D03*
X116250000Y-119195000D03*
X116250000Y-117925000D03*
X116250000Y-116655000D03*
X116250000Y-115385000D03*
X116250000Y-114115000D03*
X116250000Y-112845000D03*
X116250000Y-111575000D03*
X116250000Y-110305000D03*
%TD*%
D30*
%TO.C,J14*%
X160700000Y-144750000D03*
X160700000Y-143650000D03*
X160700000Y-142550000D03*
X160700000Y-141450000D03*
X160700000Y-140350000D03*
X160700000Y-139250000D03*
X160700000Y-138150000D03*
X160700000Y-137050000D03*
X160700000Y-135950000D03*
D31*
X159700000Y-134750000D03*
D32*
X159700000Y-149350000D03*
D33*
X150100000Y-150250000D03*
X150100000Y-134750000D03*
%TD*%
D34*
%TO.C,D3*%
X173500000Y-124500000D03*
X173500000Y-128500000D03*
%TD*%
D35*
%TO.C,U1*%
X166420000Y-73920000D03*
X165580000Y-73080000D03*
X166420000Y-73080000D03*
X165580000Y-73920000D03*
D36*
X165250000Y-74962500D03*
X165750000Y-74962500D03*
X166250000Y-74962500D03*
X166750000Y-74962500D03*
D37*
X167462500Y-74250000D03*
X167462500Y-73750000D03*
X167462500Y-73250000D03*
X167462500Y-72750000D03*
D36*
X166750000Y-72037500D03*
X166250000Y-72037500D03*
X165750000Y-72037500D03*
X165250000Y-72037500D03*
D37*
X164537500Y-72750000D03*
X164537500Y-73250000D03*
X164537500Y-73750000D03*
X164537500Y-74250000D03*
%TD*%
D38*
%TO.C,F1*%
X160887500Y-60250000D03*
X156612500Y-60250000D03*
%TD*%
D15*
%TO.C,R10*%
X169500000Y-72925000D03*
X169500000Y-74575000D03*
%TD*%
%TO.C,R8*%
X177250000Y-88175000D03*
X177250000Y-89825000D03*
%TD*%
M02*
