M48
; DRILL file {KiCad (6.0.5)} date Tue Jun  7 13:10:20 2022
; FORMAT={-:-/ absolute / metric / decimal}
; #@! TF.CreationDate,2022-06-07T13:10:20+00:00
; #@! TF.GenerationSoftware,Kicad,Pcbnew,(6.0.5)
; #@! TF.FileFunction,Plated,1,4,PTH
FMAT,2
METRIC
; #@! TA.AperFunction,Plated,PTH,ComponentDrill
T1C0.200
; #@! TA.AperFunction,Plated,PTH,ViaDrill
T2C0.400
; #@! TA.AperFunction,Plated,PTH,ComponentDrill
T3C0.800
; #@! TA.AperFunction,Plated,PTH,ComponentDrill
T4C0.950
; #@! TA.AperFunction,Plated,PTH,ComponentDrill
T5C1.000
; #@! TA.AperFunction,Plated,PTH,ComponentDrill
T6C1.320
%
G90
G05
T1
X165.41Y-72.91
X165.41Y-74.09
X166.59Y-72.91
X166.59Y-74.09
T2
X115.75Y-121.0
X118.0Y-111.75
X118.0Y-112.75
X118.25Y-116.75
X118.25Y-118.0
X150.75Y-70.5
X158.25Y-63.25
X161.25Y-149.4
X162.25Y-77.75
X162.25Y-79.25
X162.25Y-139.25
X162.5Y-136.0
X162.75Y-141.5
X163.25Y-146.75
X163.5Y-73.0
X163.75Y-70.75
X166.25Y-67.25
X169.25Y-68.5
X169.5Y-79.25
X169.5Y-81.0
X169.75Y-112.5
X170.5Y-71.75
X171.0Y-99.25
X171.25Y-110.75
X175.5Y-87.0
X175.75Y-126.75
X176.5Y-98.25
X176.5Y-111.5
X176.75Y-118.25
X177.75Y-98.25
X177.75Y-111.5
X179.0Y-98.25
X180.25Y-98.25
X180.75Y-115.5
X181.5Y-87.0
X181.5Y-98.25
X181.5Y-102.5
X181.5Y-105.75
X182.0Y-115.5
X183.0Y-104.25
X184.25Y-111.75
X184.5Y-102.5
X184.5Y-105.75
X188.0Y-115.5
X189.25Y-91.0
X189.25Y-115.5
X190.5Y-115.5
X190.75Y-91.0
X193.75Y-86.25
T3
X113.347Y-128.75
X116.847Y-128.75
T4
X134.0Y-71.25
X136.5Y-71.25
X139.0Y-71.25
X141.5Y-71.25
X155.25Y-103.0
X155.25Y-105.5
X155.25Y-108.0
X155.25Y-110.5
X175.5Y-82.225
X178.0Y-82.225
X180.5Y-82.225
T5
X104.25Y-108.0
X104.75Y-112.0
X105.25Y-116.0
X105.75Y-93.5
X105.75Y-120.0
X109.0Y-83.75
X109.0Y-101.0
X114.0Y-81.21
X114.0Y-83.75
X114.0Y-86.29
X114.0Y-98.46
X114.0Y-101.0
X114.0Y-103.54
X146.5Y-72.5
X152.775Y-60.5
X152.775Y-63.0
X154.0Y-81.5
X154.5Y-72.5
X156.0Y-96.5
X157.25Y-76.0
X160.0Y-96.5
X162.75Y-90.25
X164.5Y-121.475
X164.5Y-124.015
X164.5Y-126.555
X165.25Y-133.5
X165.25Y-139.25
X167.25Y-88.0
X167.5Y-146.25
X168.0Y-136.5
X168.0Y-142.25
X169.5Y-104.21
X169.5Y-106.75
X169.5Y-114.975
X169.5Y-117.515
X171.25Y-88.75
X179.5Y-92.75
X179.9Y-122.75
X182.44Y-122.75
X183.5Y-92.75
X184.98Y-122.75
X187.52Y-122.75
X190.06Y-122.75
X192.6Y-122.75
T6
X126.625Y-79.045
X126.625Y-84.045
X126.625Y-89.045
X126.625Y-96.045
X126.625Y-101.045
X126.625Y-106.045
X126.625Y-112.335
X126.625Y-117.335
X126.625Y-123.835
X126.625Y-128.835
X155.625Y-121.665
X155.625Y-126.665
T0
M30
