M48
; DRILL file {KiCad (5.1.10)-1} date 05/28/21 10:13:49
; FORMAT={-:-/ absolute / inch / decimal}
; #@! TF.CreationDate,2021-05-28T10:13:49+00:00
; #@! TF.GenerationSoftware,Kicad,Pcbnew,(5.1.10)-1
FMAT,2
INCH
T1C0.0079
T2C0.0118
T3C0.0157
T4C0.0394
T5C0.0591
T6C0.0630
T7C0.0394
T8C0.0454
T9C0.0472
T10C0.1260
%
G90
G05
T1
X5.0587Y-4.3429
X5.0587Y-4.3894
X5.0602Y-4.7752
X5.0602Y-4.8217
X5.1051Y-4.3429
X5.1051Y-4.3894
X5.1067Y-4.7752
X5.1067Y-4.8217
T2
X4.7874Y-1.8898
X4.7874Y-2.0079
X4.7874Y-2.2047
X4.7874Y-2.5984
X4.7874Y-2.6969
X4.7874Y-2.7953
X4.7874Y-2.8937
X4.7874Y-2.9921
X4.7874Y-3.0906
X4.7874Y-3.189
X4.7874Y-3.5827
X4.7874Y-3.6811
X4.7874Y-3.7795
X4.7874Y-3.878
X4.7874Y-3.9567
X4.7874Y-4.0157
X4.7874Y-4.0748
X4.7874Y-4.1339
X4.7874Y-4.1929
X4.7874Y-4.252
X4.7874Y-4.311
X4.7874Y-4.3701
X4.7874Y-4.4291
X4.7874Y-4.4882
X4.7874Y-4.5472
X4.7874Y-4.6063
X4.7874Y-4.6654
X4.7874Y-4.7244
X4.7874Y-4.7835
X4.7874Y-4.8425
X4.7874Y-4.9016
X4.7874Y-4.9606
X4.7874Y-5.0787
X4.7874Y-5.1772
X4.7874Y-5.2756
X4.7874Y-5.374
X4.8071Y-5.0197
X4.8661Y-5.0197
X4.8858Y-5.4724
X4.9016Y-1.7717
X4.9055Y-3.3701
X4.9252Y-4.1142
X4.9252Y-5.0197
X4.9646Y-3.1102
X4.9843Y-4.1142
X4.9843Y-5.0197
X4.9843Y-5.4724
X5.0Y-1.7717
X5.0433Y-4.1142
X5.0433Y-5.0197
X5.0827Y-5.4724
X5.0984Y-1.7717
X5.1024Y-4.1142
X5.1024Y-5.0197
X5.1614Y-4.1142
X5.1614Y-5.0197
X5.1811Y-5.1575
X5.1811Y-5.4724
X5.1969Y-1.7717
X5.2205Y-4.1142
X5.2205Y-5.0197
X5.2402Y-3.6811
X5.2795Y-4.1142
X5.2795Y-5.0197
X5.2795Y-5.4724
X5.2953Y-1.7717
X5.2992Y-3.937
X5.3189Y-4.1535
X5.3189Y-4.2126
X5.3189Y-4.2717
X5.3189Y-4.3307
X5.3189Y-4.685
X5.3189Y-4.7441
X5.3189Y-4.8031
X5.3189Y-4.8622
X5.3189Y-4.9213
X5.3189Y-4.9803
X5.3701Y-4.5276
X5.3701Y-4.5866
X5.378Y-2.0079
X5.378Y-2.4016
X5.378Y-2.7953
X5.378Y-3.189
X5.378Y-4.4094
X5.378Y-4.4685
X5.378Y-5.4724
X5.3937Y-1.7717
X5.4764Y-5.4724
X5.4921Y-1.7717
X5.5Y-5.2835
X5.5Y-5.3465
X5.5276Y-5.2835
X5.5276Y-5.3465
X5.5551Y-5.2835
X5.5551Y-5.3465
X5.5748Y-3.7795
X5.5748Y-4.9606
X5.5748Y-5.4724
X5.5827Y-5.2835
X5.5827Y-5.3465
X5.5906Y-1.7717
X5.6102Y-5.2835
X5.6102Y-5.3465
X5.6299Y-5.1772
X5.6299Y-5.2047
X5.6299Y-5.2323
X5.6299Y-5.2598
X5.6378Y-5.3465
X5.6555Y-5.1654
X5.6654Y-5.3346
X5.6732Y-5.4724
X5.6831Y-5.1654
X5.689Y-1.7717
X5.689Y-5.315
X5.7008Y-5.2874
X5.7087Y-5.1772
X5.7087Y-5.2047
X5.7087Y-5.2323
X5.7087Y-5.2598
X5.7126Y-4.8622
X5.7717Y-2.0079
X5.7717Y-3.189
X5.7717Y-5.4724
X5.7874Y-1.7717
X5.8701Y-5.4724
X5.8858Y-1.7717
X5.9488Y-4.8031
X5.9488Y-5.0394
X5.9685Y-3.9764
X5.9685Y-5.4724
X5.9843Y-1.7717
X6.0669Y-5.4724
X6.0827Y-1.7717
X6.0984Y-3.752
X6.1654Y-2.0079
X6.1654Y-3.189
X6.1654Y-4.7638
X6.1654Y-5.4724
X6.1811Y-1.7717
X6.2638Y-5.4724
X6.2795Y-1.7717
X6.3622Y-3.7795
X6.3622Y-4.1732
X6.3622Y-5.3543
X6.3622Y-5.4724
X6.378Y-1.7717
X6.4606Y-5.4724
X6.4764Y-1.7717
X6.5591Y-2.0079
X6.5591Y-2.4016
X6.5591Y-2.7953
X6.5591Y-3.189
X6.5591Y-4.7638
X6.5591Y-5.4724
X6.5748Y-1.7717
X6.6575Y-5.4724
X6.6732Y-1.7717
X6.7717Y-4.6811
X6.7717Y-4.878
X6.7717Y-4.9764
X6.7717Y-5.2717
X6.7717Y-5.3701
X6.7717Y-1.8714
X6.7717Y-1.9698
X6.7717Y-2.0683
X6.7717Y-2.1667
X6.7717Y-2.2651
X6.7717Y-2.3635
X6.7717Y-2.462
X6.7717Y-2.5604
X6.7717Y-2.6588
X6.7717Y-2.7572
X6.7717Y-2.8557
X6.7717Y-2.9541
X6.7717Y-3.0525
X6.7717Y-3.1509
X6.7717Y-3.2494
X6.7717Y-3.3478
T3
X4.8327Y-4.1831
X4.8327Y-4.6063
X4.8366Y-2.2894
X4.8425Y-4.4882
X4.8465Y-4.9173
X4.8652Y-3.2972
X4.872Y-4.1831
X4.872Y-4.6063
X4.8937Y-2.5866
X4.8937Y-3.563
X4.9075Y-2.3917
X4.9114Y-4.1831
X4.9114Y-4.6063
X4.9213Y-4.3031
X4.9213Y-4.4213
X4.9213Y-4.7362
X4.9508Y-4.1831
X4.9508Y-4.5394
X4.9508Y-4.6063
X4.9803Y-4.3031
X4.9803Y-4.4213
X4.9803Y-4.7362
X5.0197Y-4.7362
X5.063Y-4.5512
X5.0787Y-4.9724
X5.1063Y-4.5512
X5.1535Y-4.5512
X5.252Y-4.9173
X5.3445Y-5.2953
X5.3445Y-5.3346
X5.3661Y-3.622
X5.4035Y-5.2264
X5.4035Y-5.3937
X5.4528Y-5.2264
X5.4528Y-5.3937
X5.622Y-3.6939
X5.6535Y-3.6628
X5.6575Y-2.4685
X5.6575Y-3.9921
X5.6693Y-4.5236
X5.6811Y-3.7008
X5.6863Y-4.1916
X5.748Y-4.685
X5.748Y-5.3031
X5.7953Y-4.4567
X5.8268Y-5.1575
X5.8701Y-5.3661
X5.9055Y-5.1575
X5.9213Y-2.2047
X5.9252Y-3.3465
X5.9724Y-2.9016
X5.9843Y-5.4331
X5.997Y-4.3701
X5.9973Y-3.752
X6.0236Y-3.5433
X6.0276Y-3.7874
X6.047Y-4.4451
X6.0512Y-5.4331
X6.063Y-4.5157
X6.063Y-5.1575
X6.0748Y-2.8819
X6.0748Y-3.3504
X6.0984Y-4.3701
X6.0984Y-4.4252
X6.1378Y-3.4843
X6.1417Y-4.4843
X6.1417Y-5.1575
X6.1654Y-5.3661
X6.2008Y-3.4843
X6.2008Y-4.3937
X6.2205Y-5.1575
X6.248Y-4.2283
X6.2598Y-5.126
X6.2953Y-4.2283
X6.3185Y-3.5394
X6.3563Y-2.6181
X6.3583Y-4.378
X6.3858Y-3.4173
X6.3858Y-4.8661
X6.3858Y-4.9528
X6.3858Y-4.9961
X6.4213Y-4.6063
X6.4252Y-5.0394
X6.4488Y-3.4173
X6.4488Y-4.374
X6.4764Y-4.8661
T4
X4.826Y-2.1181
X4.8465Y-4.065
X4.8465Y-4.8622
X4.8465Y-5.0787
X4.926Y-2.1181
X4.926Y-3.2583
X4.9269Y-2.282
X4.9269Y-2.672
X4.9269Y-2.772
X4.9269Y-2.872
X4.9269Y-2.972
X4.9275Y-3.6483
X4.9275Y-3.7483
X4.9275Y-3.8483
X4.9275Y-3.9483
X5.026Y-2.1181
X5.026Y-3.2583
X5.0269Y-2.282
X5.126Y-2.1181
X5.126Y-3.2583
X5.126Y-3.4483
X5.126Y-3.5483
X5.126Y-3.6483
X5.126Y-3.7483
X5.126Y-3.8483
X5.126Y-3.9483
X5.126Y-4.0483
X5.1269Y-2.282
X5.1269Y-2.472
X5.1269Y-2.572
X5.1269Y-2.672
X5.1269Y-2.772
X5.1269Y-2.872
X5.1269Y-2.972
X5.1269Y-3.072
X5.3071Y-3.4488
X5.3701Y-4.8346
X5.4071Y-3.4488
X5.4394Y-4.126
X5.4394Y-4.2795
X5.4685Y-4.8346
X5.5071Y-3.4488
X5.5394Y-4.126
X5.5394Y-4.2795
X5.6071Y-3.4488
X5.7071Y-3.4488
X5.8071Y-3.4488
T5
X5.4291Y-5.315
T6
X5.3291Y-5.215
X5.3291Y-5.415
X5.5291Y-5.215
X5.5291Y-5.415
T7
X6.7559Y-4.748
X6.7559Y-5.063
T8
X4.8031Y-1.7913
X4.8031Y-5.4528
X6.752Y-1.7913
X6.752Y-5.4528
T9
X5.5315Y-4.7559
T10
X4.9016Y-1.8898
X4.9016Y-5.3543
X6.6535Y-1.8898
X6.6535Y-5.3543
T0
M30
