%TF.GenerationSoftware,KiCad,Pcbnew,(5.1.10)-1*%
%TF.CreationDate,2021-05-28T10:13:55+00:00*%
%TF.ProjectId,co2_sensor_node,636f325f-7365-46e7-936f-725f6e6f6465,rev?*%
%TF.SameCoordinates,Original*%
%TF.FileFunction,Soldermask,Top*%
%TF.FilePolarity,Negative*%
%FSLAX46Y46*%
G04 Gerber Fmt 4.6, Leading zero omitted, Abs format (unit mm)*
G04 Created by KiCad (PCBNEW (5.1.10)-1) date 2021-05-28 10:13:55*
%MOMM*%
%LPD*%
G01*
G04 APERTURE LIST*
%ADD10C,1.000000*%
%ADD11C,2.000000*%
%ADD12C,1.448000*%
%ADD13O,1.730000X1.730000*%
%ADD14C,1.030000*%
%ADD15C,1.230000*%
%ADD16O,1.730000X2.030000*%
%ADD17C,2.530000*%
%ADD18C,2.830000*%
%ADD19C,3.230000*%
%ADD20C,0.100000*%
G04 APERTURE END LIST*
D10*
X123350000Y-129000000D02*
G75*
G03*
X123350000Y-129000000I-250000J0D01*
G01*
X123350000Y-123500000D02*
G75*
G03*
X123350000Y-123500000I-250000J0D01*
G01*
X123350000Y-103250000D02*
G75*
G03*
X123350000Y-103250000I-250000J0D01*
G01*
X123350000Y-129000000D02*
G75*
G03*
X123350000Y-129000000I-250000J0D01*
G01*
X123350000Y-123500000D02*
G75*
G03*
X123350000Y-123500000I-250000J0D01*
G01*
X123350000Y-103250000D02*
G75*
G03*
X123350000Y-103250000I-250000J0D01*
G01*
D11*
%TO.C,BOARD_FIDUCIAL*%
X129500000Y-136000000D03*
%TD*%
D12*
%TO.C,REF\u002A\u002A*%
X171500000Y-45500000D03*
%TD*%
%TO.C,REF\u002A\u002A*%
X122000000Y-138500000D03*
%TD*%
%TO.C,REF\u002A\u002A*%
X122000000Y-45500000D03*
%TD*%
%TO.C,REF\u002A\u002A*%
X171500000Y-138500000D03*
%TD*%
D11*
%TO.C,BOARD_FIDUCIAL*%
X129500000Y-48000000D03*
%TD*%
%TO.C,BOARD_FIDUCIAL*%
X163500000Y-136000000D03*
%TD*%
D13*
%TO.C,J15*%
X147500000Y-87600000D03*
X144960000Y-87600000D03*
X142420000Y-87600000D03*
X139880000Y-87600000D03*
X137340000Y-87600000D03*
G36*
G01*
X135650001Y-88465000D02*
X133949999Y-88465000D01*
G75*
G02*
X133935000Y-88450001I0J14999D01*
G01*
X133935000Y-86749999D01*
G75*
G02*
X133949999Y-86735000I14999J0D01*
G01*
X135650001Y-86735000D01*
G75*
G02*
X135665000Y-86749999I0J-14999D01*
G01*
X135665000Y-88450001D01*
G75*
G02*
X135650001Y-88465000I-14999J0D01*
G01*
G37*
%TD*%
%TO.C,J6*%
G36*
G01*
X172192000Y-116515000D02*
X170208000Y-116515000D01*
G75*
G02*
X170085000Y-116392000I0J123000D01*
G01*
X170085000Y-115408000D01*
G75*
G02*
X170208000Y-115285000I123000J0D01*
G01*
X172192000Y-115285000D01*
G75*
G02*
X172315000Y-115408000I0J-123000D01*
G01*
X172315000Y-116392000D01*
G75*
G02*
X172192000Y-116515000I-123000J0D01*
G01*
G37*
G36*
G01*
X172192000Y-132015000D02*
X170208000Y-132015000D01*
G75*
G02*
X170085000Y-131892000I0J123000D01*
G01*
X170085000Y-130908000D01*
G75*
G02*
X170208000Y-130785000I123000J0D01*
G01*
X172192000Y-130785000D01*
G75*
G02*
X172315000Y-130908000I0J-123000D01*
G01*
X172315000Y-131892000D01*
G75*
G02*
X172192000Y-132015000I-123000J0D01*
G01*
G37*
G36*
G01*
X162212000Y-117615000D02*
X160988000Y-117615000D01*
G75*
G02*
X160835000Y-117462000I0J153000D01*
G01*
X160835000Y-116138000D01*
G75*
G02*
X160988000Y-115985000I153000J0D01*
G01*
X162212000Y-115985000D01*
G75*
G02*
X162365000Y-116138000I0J-153000D01*
G01*
X162365000Y-117462000D01*
G75*
G02*
X162212000Y-117615000I-153000J0D01*
G01*
G37*
G36*
G01*
X162242000Y-132015000D02*
X160958000Y-132015000D01*
G75*
G02*
X160835000Y-131892000I0J123000D01*
G01*
X160835000Y-130908000D01*
G75*
G02*
X160958000Y-130785000I123000J0D01*
G01*
X162242000Y-130785000D01*
G75*
G02*
X162365000Y-130908000I0J-123000D01*
G01*
X162365000Y-131892000D01*
G75*
G02*
X162242000Y-132015000I-123000J0D01*
G01*
G37*
D14*
X171600000Y-120600000D03*
X171600000Y-128600000D03*
G36*
G01*
X161232500Y-122865000D02*
X159967500Y-122865000D01*
G75*
G02*
X159785000Y-122682500I0J182500D01*
G01*
X159785000Y-122317500D01*
G75*
G02*
X159967500Y-122135000I182500J0D01*
G01*
X161232500Y-122135000D01*
G75*
G02*
X161415000Y-122317500I0J-182500D01*
G01*
X161415000Y-122682500D01*
G75*
G02*
X161232500Y-122865000I-182500J0D01*
G01*
G37*
G36*
G01*
X161232500Y-130565000D02*
X159967500Y-130565000D01*
G75*
G02*
X159785000Y-130382500I0J182500D01*
G01*
X159785000Y-130017500D01*
G75*
G02*
X159967500Y-129835000I182500J0D01*
G01*
X161232500Y-129835000D01*
G75*
G02*
X161415000Y-130017500I0J-182500D01*
G01*
X161415000Y-130382500D01*
G75*
G02*
X161232500Y-130565000I-182500J0D01*
G01*
G37*
G36*
G01*
X161232500Y-129465000D02*
X159967500Y-129465000D01*
G75*
G02*
X159785000Y-129282500I0J182500D01*
G01*
X159785000Y-128917500D01*
G75*
G02*
X159967500Y-128735000I182500J0D01*
G01*
X161232500Y-128735000D01*
G75*
G02*
X161415000Y-128917500I0J-182500D01*
G01*
X161415000Y-129282500D01*
G75*
G02*
X161232500Y-129465000I-182500J0D01*
G01*
G37*
G36*
G01*
X161232500Y-128365000D02*
X159967500Y-128365000D01*
G75*
G02*
X159785000Y-128182500I0J182500D01*
G01*
X159785000Y-127817500D01*
G75*
G02*
X159967500Y-127635000I182500J0D01*
G01*
X161232500Y-127635000D01*
G75*
G02*
X161415000Y-127817500I0J-182500D01*
G01*
X161415000Y-128182500D01*
G75*
G02*
X161232500Y-128365000I-182500J0D01*
G01*
G37*
G36*
G01*
X161232500Y-127265000D02*
X159967500Y-127265000D01*
G75*
G02*
X159785000Y-127082500I0J182500D01*
G01*
X159785000Y-126717500D01*
G75*
G02*
X159967500Y-126535000I182500J0D01*
G01*
X161232500Y-126535000D01*
G75*
G02*
X161415000Y-126717500I0J-182500D01*
G01*
X161415000Y-127082500D01*
G75*
G02*
X161232500Y-127265000I-182500J0D01*
G01*
G37*
G36*
G01*
X161232500Y-126165000D02*
X159967500Y-126165000D01*
G75*
G02*
X159785000Y-125982500I0J182500D01*
G01*
X159785000Y-125617500D01*
G75*
G02*
X159967500Y-125435000I182500J0D01*
G01*
X161232500Y-125435000D01*
G75*
G02*
X161415000Y-125617500I0J-182500D01*
G01*
X161415000Y-125982500D01*
G75*
G02*
X161232500Y-126165000I-182500J0D01*
G01*
G37*
G36*
G01*
X161232500Y-125065000D02*
X159967500Y-125065000D01*
G75*
G02*
X159785000Y-124882500I0J182500D01*
G01*
X159785000Y-124517500D01*
G75*
G02*
X159967500Y-124335000I182500J0D01*
G01*
X161232500Y-124335000D01*
G75*
G02*
X161415000Y-124517500I0J-182500D01*
G01*
X161415000Y-124882500D01*
G75*
G02*
X161232500Y-125065000I-182500J0D01*
G01*
G37*
G36*
G01*
X161232500Y-123965000D02*
X159967500Y-123965000D01*
G75*
G02*
X159785000Y-123782500I0J182500D01*
G01*
X159785000Y-123417500D01*
G75*
G02*
X159967500Y-123235000I182500J0D01*
G01*
X161232500Y-123235000D01*
G75*
G02*
X161415000Y-123417500I0J-182500D01*
G01*
X161415000Y-123782500D01*
G75*
G02*
X161232500Y-123965000I-182500J0D01*
G01*
G37*
G36*
G01*
X161232500Y-121765000D02*
X159967500Y-121765000D01*
G75*
G02*
X159785000Y-121582500I0J182500D01*
G01*
X159785000Y-121217500D01*
G75*
G02*
X159967500Y-121035000I182500J0D01*
G01*
X161232500Y-121035000D01*
G75*
G02*
X161415000Y-121217500I0J-182500D01*
G01*
X161415000Y-121582500D01*
G75*
G02*
X161232500Y-121765000I-182500J0D01*
G01*
G37*
%TD*%
%TO.C,SW1*%
G36*
G01*
X149535000Y-88012000D02*
X149535000Y-87188000D01*
G75*
G02*
X149638000Y-87085000I103000J0D01*
G01*
X151362000Y-87085000D01*
G75*
G02*
X151465000Y-87188000I0J-103000D01*
G01*
X151465000Y-88012000D01*
G75*
G02*
X151362000Y-88115000I-103000J0D01*
G01*
X149638000Y-88115000D01*
G75*
G02*
X149535000Y-88012000I0J103000D01*
G01*
G37*
G36*
G01*
X158635000Y-88012000D02*
X158635000Y-87188000D01*
G75*
G02*
X158738000Y-87085000I103000J0D01*
G01*
X160462000Y-87085000D01*
G75*
G02*
X160565000Y-87188000I0J-103000D01*
G01*
X160565000Y-88012000D01*
G75*
G02*
X160462000Y-88115000I-103000J0D01*
G01*
X158738000Y-88115000D01*
G75*
G02*
X158635000Y-88012000I0J103000D01*
G01*
G37*
G36*
G01*
X158635000Y-83512000D02*
X158635000Y-82688000D01*
G75*
G02*
X158738000Y-82585000I103000J0D01*
G01*
X160462000Y-82585000D01*
G75*
G02*
X160565000Y-82688000I0J-103000D01*
G01*
X160565000Y-83512000D01*
G75*
G02*
X160462000Y-83615000I-103000J0D01*
G01*
X158738000Y-83615000D01*
G75*
G02*
X158635000Y-83512000I0J103000D01*
G01*
G37*
G36*
G01*
X149535000Y-83512000D02*
X149535000Y-82688000D01*
G75*
G02*
X149638000Y-82585000I103000J0D01*
G01*
X151362000Y-82585000D01*
G75*
G02*
X151465000Y-82688000I0J-103000D01*
G01*
X151465000Y-83512000D01*
G75*
G02*
X151362000Y-83615000I-103000J0D01*
G01*
X149638000Y-83615000D01*
G75*
G02*
X149535000Y-83512000I0J103000D01*
G01*
G37*
%TD*%
%TO.C,U5*%
G36*
G01*
X163305000Y-108237000D02*
X164205000Y-108237000D01*
G75*
G02*
X164220000Y-108252000I0J-15000D01*
G01*
X164220000Y-110252000D01*
G75*
G02*
X164205000Y-110267000I-15000J0D01*
G01*
X163305000Y-110267000D01*
G75*
G02*
X163290000Y-110252000I0J15000D01*
G01*
X163290000Y-108252000D01*
G75*
G02*
X163305000Y-108237000I15000J0D01*
G01*
G37*
G36*
G01*
X162035000Y-108237000D02*
X162935000Y-108237000D01*
G75*
G02*
X162950000Y-108252000I0J-15000D01*
G01*
X162950000Y-110252000D01*
G75*
G02*
X162935000Y-110267000I-15000J0D01*
G01*
X162035000Y-110267000D01*
G75*
G02*
X162020000Y-110252000I0J15000D01*
G01*
X162020000Y-108252000D01*
G75*
G02*
X162035000Y-108237000I15000J0D01*
G01*
G37*
G36*
G01*
X160765000Y-108237000D02*
X161665000Y-108237000D01*
G75*
G02*
X161680000Y-108252000I0J-15000D01*
G01*
X161680000Y-110252000D01*
G75*
G02*
X161665000Y-110267000I-15000J0D01*
G01*
X160765000Y-110267000D01*
G75*
G02*
X160750000Y-110252000I0J15000D01*
G01*
X160750000Y-108252000D01*
G75*
G02*
X160765000Y-108237000I15000J0D01*
G01*
G37*
G36*
G01*
X159495000Y-108237000D02*
X160395000Y-108237000D01*
G75*
G02*
X160410000Y-108252000I0J-15000D01*
G01*
X160410000Y-110252000D01*
G75*
G02*
X160395000Y-110267000I-15000J0D01*
G01*
X159495000Y-110267000D01*
G75*
G02*
X159480000Y-110252000I0J15000D01*
G01*
X159480000Y-108252000D01*
G75*
G02*
X159495000Y-108237000I15000J0D01*
G01*
G37*
G36*
G01*
X158225000Y-108237000D02*
X159125000Y-108237000D01*
G75*
G02*
X159140000Y-108252000I0J-15000D01*
G01*
X159140000Y-110252000D01*
G75*
G02*
X159125000Y-110267000I-15000J0D01*
G01*
X158225000Y-110267000D01*
G75*
G02*
X158210000Y-110252000I0J15000D01*
G01*
X158210000Y-108252000D01*
G75*
G02*
X158225000Y-108237000I15000J0D01*
G01*
G37*
G36*
G01*
X156955000Y-108237000D02*
X157855000Y-108237000D01*
G75*
G02*
X157870000Y-108252000I0J-15000D01*
G01*
X157870000Y-110252000D01*
G75*
G02*
X157855000Y-110267000I-15000J0D01*
G01*
X156955000Y-110267000D01*
G75*
G02*
X156940000Y-110252000I0J15000D01*
G01*
X156940000Y-108252000D01*
G75*
G02*
X156955000Y-108237000I15000J0D01*
G01*
G37*
G36*
G01*
X155685000Y-108237000D02*
X156585000Y-108237000D01*
G75*
G02*
X156600000Y-108252000I0J-15000D01*
G01*
X156600000Y-110252000D01*
G75*
G02*
X156585000Y-110267000I-15000J0D01*
G01*
X155685000Y-110267000D01*
G75*
G02*
X155670000Y-110252000I0J15000D01*
G01*
X155670000Y-108252000D01*
G75*
G02*
X155685000Y-108237000I15000J0D01*
G01*
G37*
G36*
G01*
X154415000Y-108237000D02*
X155315000Y-108237000D01*
G75*
G02*
X155330000Y-108252000I0J-15000D01*
G01*
X155330000Y-110252000D01*
G75*
G02*
X155315000Y-110267000I-15000J0D01*
G01*
X154415000Y-110267000D01*
G75*
G02*
X154400000Y-110252000I0J15000D01*
G01*
X154400000Y-108252000D01*
G75*
G02*
X154415000Y-108237000I15000J0D01*
G01*
G37*
G36*
G01*
X153145000Y-108237000D02*
X154045000Y-108237000D01*
G75*
G02*
X154060000Y-108252000I0J-15000D01*
G01*
X154060000Y-110252000D01*
G75*
G02*
X154045000Y-110267000I-15000J0D01*
G01*
X153145000Y-110267000D01*
G75*
G02*
X153130000Y-110252000I0J15000D01*
G01*
X153130000Y-108252000D01*
G75*
G02*
X153145000Y-108237000I15000J0D01*
G01*
G37*
G36*
G01*
X151875000Y-108237000D02*
X152775000Y-108237000D01*
G75*
G02*
X152790000Y-108252000I0J-15000D01*
G01*
X152790000Y-110252000D01*
G75*
G02*
X152775000Y-110267000I-15000J0D01*
G01*
X151875000Y-110267000D01*
G75*
G02*
X151860000Y-110252000I0J15000D01*
G01*
X151860000Y-108252000D01*
G75*
G02*
X151875000Y-108237000I15000J0D01*
G01*
G37*
G36*
G01*
X150605000Y-108237000D02*
X151505000Y-108237000D01*
G75*
G02*
X151520000Y-108252000I0J-15000D01*
G01*
X151520000Y-110252000D01*
G75*
G02*
X151505000Y-110267000I-15000J0D01*
G01*
X150605000Y-110267000D01*
G75*
G02*
X150590000Y-110252000I0J15000D01*
G01*
X150590000Y-108252000D01*
G75*
G02*
X150605000Y-108237000I15000J0D01*
G01*
G37*
G36*
G01*
X149335000Y-108237000D02*
X150235000Y-108237000D01*
G75*
G02*
X150250000Y-108252000I0J-15000D01*
G01*
X150250000Y-110252000D01*
G75*
G02*
X150235000Y-110267000I-15000J0D01*
G01*
X149335000Y-110267000D01*
G75*
G02*
X149320000Y-110252000I0J15000D01*
G01*
X149320000Y-108252000D01*
G75*
G02*
X149335000Y-108237000I15000J0D01*
G01*
G37*
G36*
G01*
X148065000Y-108237000D02*
X148965000Y-108237000D01*
G75*
G02*
X148980000Y-108252000I0J-15000D01*
G01*
X148980000Y-110252000D01*
G75*
G02*
X148965000Y-110267000I-15000J0D01*
G01*
X148065000Y-110267000D01*
G75*
G02*
X148050000Y-110252000I0J15000D01*
G01*
X148050000Y-108252000D01*
G75*
G02*
X148065000Y-108237000I15000J0D01*
G01*
G37*
G36*
G01*
X146795000Y-108237000D02*
X147695000Y-108237000D01*
G75*
G02*
X147710000Y-108252000I0J-15000D01*
G01*
X147710000Y-110252000D01*
G75*
G02*
X147695000Y-110267000I-15000J0D01*
G01*
X146795000Y-110267000D01*
G75*
G02*
X146780000Y-110252000I0J15000D01*
G01*
X146780000Y-108252000D01*
G75*
G02*
X146795000Y-108237000I15000J0D01*
G01*
G37*
G36*
G01*
X145230000Y-106917000D02*
X145230000Y-106017000D01*
G75*
G02*
X145245000Y-106002000I15000J0D01*
G01*
X147245000Y-106002000D01*
G75*
G02*
X147260000Y-106017000I0J-15000D01*
G01*
X147260000Y-106917000D01*
G75*
G02*
X147245000Y-106932000I-15000J0D01*
G01*
X145245000Y-106932000D01*
G75*
G02*
X145230000Y-106917000I0J15000D01*
G01*
G37*
G36*
G01*
X145230000Y-105647000D02*
X145230000Y-104747000D01*
G75*
G02*
X145245000Y-104732000I15000J0D01*
G01*
X147245000Y-104732000D01*
G75*
G02*
X147260000Y-104747000I0J-15000D01*
G01*
X147260000Y-105647000D01*
G75*
G02*
X147245000Y-105662000I-15000J0D01*
G01*
X145245000Y-105662000D01*
G75*
G02*
X145230000Y-105647000I0J15000D01*
G01*
G37*
G36*
G01*
X145230000Y-104377000D02*
X145230000Y-103477000D01*
G75*
G02*
X145245000Y-103462000I15000J0D01*
G01*
X147245000Y-103462000D01*
G75*
G02*
X147260000Y-103477000I0J-15000D01*
G01*
X147260000Y-104377000D01*
G75*
G02*
X147245000Y-104392000I-15000J0D01*
G01*
X145245000Y-104392000D01*
G75*
G02*
X145230000Y-104377000I0J15000D01*
G01*
G37*
G36*
G01*
X145230000Y-103107000D02*
X145230000Y-102207000D01*
G75*
G02*
X145245000Y-102192000I15000J0D01*
G01*
X147245000Y-102192000D01*
G75*
G02*
X147260000Y-102207000I0J-15000D01*
G01*
X147260000Y-103107000D01*
G75*
G02*
X147245000Y-103122000I-15000J0D01*
G01*
X145245000Y-103122000D01*
G75*
G02*
X145230000Y-103107000I0J15000D01*
G01*
G37*
G36*
G01*
X145230000Y-101837000D02*
X145230000Y-100937000D01*
G75*
G02*
X145245000Y-100922000I15000J0D01*
G01*
X147245000Y-100922000D01*
G75*
G02*
X147260000Y-100937000I0J-15000D01*
G01*
X147260000Y-101837000D01*
G75*
G02*
X147245000Y-101852000I-15000J0D01*
G01*
X145245000Y-101852000D01*
G75*
G02*
X145230000Y-101837000I0J15000D01*
G01*
G37*
G36*
G01*
X145230000Y-100567000D02*
X145230000Y-99667000D01*
G75*
G02*
X145245000Y-99652000I15000J0D01*
G01*
X147245000Y-99652000D01*
G75*
G02*
X147260000Y-99667000I0J-15000D01*
G01*
X147260000Y-100567000D01*
G75*
G02*
X147245000Y-100582000I-15000J0D01*
G01*
X145245000Y-100582000D01*
G75*
G02*
X145230000Y-100567000I0J15000D01*
G01*
G37*
G36*
G01*
X145230000Y-99297000D02*
X145230000Y-98397000D01*
G75*
G02*
X145245000Y-98382000I15000J0D01*
G01*
X147245000Y-98382000D01*
G75*
G02*
X147260000Y-98397000I0J-15000D01*
G01*
X147260000Y-99297000D01*
G75*
G02*
X147245000Y-99312000I-15000J0D01*
G01*
X145245000Y-99312000D01*
G75*
G02*
X145230000Y-99297000I0J15000D01*
G01*
G37*
G36*
G01*
X145230000Y-98027000D02*
X145230000Y-97127000D01*
G75*
G02*
X145245000Y-97112000I15000J0D01*
G01*
X147245000Y-97112000D01*
G75*
G02*
X147260000Y-97127000I0J-15000D01*
G01*
X147260000Y-98027000D01*
G75*
G02*
X147245000Y-98042000I-15000J0D01*
G01*
X145245000Y-98042000D01*
G75*
G02*
X145230000Y-98027000I0J15000D01*
G01*
G37*
G36*
G01*
X145230000Y-96757000D02*
X145230000Y-95857000D01*
G75*
G02*
X145245000Y-95842000I15000J0D01*
G01*
X147245000Y-95842000D01*
G75*
G02*
X147260000Y-95857000I0J-15000D01*
G01*
X147260000Y-96757000D01*
G75*
G02*
X147245000Y-96772000I-15000J0D01*
G01*
X145245000Y-96772000D01*
G75*
G02*
X145230000Y-96757000I0J15000D01*
G01*
G37*
G36*
G01*
X145230000Y-95487000D02*
X145230000Y-94587000D01*
G75*
G02*
X145245000Y-94572000I15000J0D01*
G01*
X147245000Y-94572000D01*
G75*
G02*
X147260000Y-94587000I0J-15000D01*
G01*
X147260000Y-95487000D01*
G75*
G02*
X147245000Y-95502000I-15000J0D01*
G01*
X145245000Y-95502000D01*
G75*
G02*
X145230000Y-95487000I0J15000D01*
G01*
G37*
G36*
G01*
X146795000Y-91237000D02*
X147695000Y-91237000D01*
G75*
G02*
X147710000Y-91252000I0J-15000D01*
G01*
X147710000Y-93252000D01*
G75*
G02*
X147695000Y-93267000I-15000J0D01*
G01*
X146795000Y-93267000D01*
G75*
G02*
X146780000Y-93252000I0J15000D01*
G01*
X146780000Y-91252000D01*
G75*
G02*
X146795000Y-91237000I15000J0D01*
G01*
G37*
G36*
G01*
X148065000Y-91237000D02*
X148965000Y-91237000D01*
G75*
G02*
X148980000Y-91252000I0J-15000D01*
G01*
X148980000Y-93252000D01*
G75*
G02*
X148965000Y-93267000I-15000J0D01*
G01*
X148065000Y-93267000D01*
G75*
G02*
X148050000Y-93252000I0J15000D01*
G01*
X148050000Y-91252000D01*
G75*
G02*
X148065000Y-91237000I15000J0D01*
G01*
G37*
G36*
G01*
X149335000Y-91237000D02*
X150235000Y-91237000D01*
G75*
G02*
X150250000Y-91252000I0J-15000D01*
G01*
X150250000Y-93252000D01*
G75*
G02*
X150235000Y-93267000I-15000J0D01*
G01*
X149335000Y-93267000D01*
G75*
G02*
X149320000Y-93252000I0J15000D01*
G01*
X149320000Y-91252000D01*
G75*
G02*
X149335000Y-91237000I15000J0D01*
G01*
G37*
G36*
G01*
X150605000Y-91237000D02*
X151505000Y-91237000D01*
G75*
G02*
X151520000Y-91252000I0J-15000D01*
G01*
X151520000Y-93252000D01*
G75*
G02*
X151505000Y-93267000I-15000J0D01*
G01*
X150605000Y-93267000D01*
G75*
G02*
X150590000Y-93252000I0J15000D01*
G01*
X150590000Y-91252000D01*
G75*
G02*
X150605000Y-91237000I15000J0D01*
G01*
G37*
G36*
G01*
X151875000Y-91237000D02*
X152775000Y-91237000D01*
G75*
G02*
X152790000Y-91252000I0J-15000D01*
G01*
X152790000Y-93252000D01*
G75*
G02*
X152775000Y-93267000I-15000J0D01*
G01*
X151875000Y-93267000D01*
G75*
G02*
X151860000Y-93252000I0J15000D01*
G01*
X151860000Y-91252000D01*
G75*
G02*
X151875000Y-91237000I15000J0D01*
G01*
G37*
G36*
G01*
X153145000Y-91237000D02*
X154045000Y-91237000D01*
G75*
G02*
X154060000Y-91252000I0J-15000D01*
G01*
X154060000Y-93252000D01*
G75*
G02*
X154045000Y-93267000I-15000J0D01*
G01*
X153145000Y-93267000D01*
G75*
G02*
X153130000Y-93252000I0J15000D01*
G01*
X153130000Y-91252000D01*
G75*
G02*
X153145000Y-91237000I15000J0D01*
G01*
G37*
G36*
G01*
X154415000Y-91237000D02*
X155315000Y-91237000D01*
G75*
G02*
X155330000Y-91252000I0J-15000D01*
G01*
X155330000Y-93252000D01*
G75*
G02*
X155315000Y-93267000I-15000J0D01*
G01*
X154415000Y-93267000D01*
G75*
G02*
X154400000Y-93252000I0J15000D01*
G01*
X154400000Y-91252000D01*
G75*
G02*
X154415000Y-91237000I15000J0D01*
G01*
G37*
G36*
G01*
X155685000Y-91237000D02*
X156585000Y-91237000D01*
G75*
G02*
X156600000Y-91252000I0J-15000D01*
G01*
X156600000Y-93252000D01*
G75*
G02*
X156585000Y-93267000I-15000J0D01*
G01*
X155685000Y-93267000D01*
G75*
G02*
X155670000Y-93252000I0J15000D01*
G01*
X155670000Y-91252000D01*
G75*
G02*
X155685000Y-91237000I15000J0D01*
G01*
G37*
G36*
G01*
X156955000Y-91237000D02*
X157855000Y-91237000D01*
G75*
G02*
X157870000Y-91252000I0J-15000D01*
G01*
X157870000Y-93252000D01*
G75*
G02*
X157855000Y-93267000I-15000J0D01*
G01*
X156955000Y-93267000D01*
G75*
G02*
X156940000Y-93252000I0J15000D01*
G01*
X156940000Y-91252000D01*
G75*
G02*
X156955000Y-91237000I15000J0D01*
G01*
G37*
G36*
G01*
X158225000Y-91237000D02*
X159125000Y-91237000D01*
G75*
G02*
X159140000Y-91252000I0J-15000D01*
G01*
X159140000Y-93252000D01*
G75*
G02*
X159125000Y-93267000I-15000J0D01*
G01*
X158225000Y-93267000D01*
G75*
G02*
X158210000Y-93252000I0J15000D01*
G01*
X158210000Y-91252000D01*
G75*
G02*
X158225000Y-91237000I15000J0D01*
G01*
G37*
G36*
G01*
X159495000Y-91237000D02*
X160395000Y-91237000D01*
G75*
G02*
X160410000Y-91252000I0J-15000D01*
G01*
X160410000Y-93252000D01*
G75*
G02*
X160395000Y-93267000I-15000J0D01*
G01*
X159495000Y-93267000D01*
G75*
G02*
X159480000Y-93252000I0J15000D01*
G01*
X159480000Y-91252000D01*
G75*
G02*
X159495000Y-91237000I15000J0D01*
G01*
G37*
G36*
G01*
X160765000Y-91237000D02*
X161665000Y-91237000D01*
G75*
G02*
X161680000Y-91252000I0J-15000D01*
G01*
X161680000Y-93252000D01*
G75*
G02*
X161665000Y-93267000I-15000J0D01*
G01*
X160765000Y-93267000D01*
G75*
G02*
X160750000Y-93252000I0J15000D01*
G01*
X160750000Y-91252000D01*
G75*
G02*
X160765000Y-91237000I15000J0D01*
G01*
G37*
G36*
G01*
X162035000Y-91237000D02*
X162935000Y-91237000D01*
G75*
G02*
X162950000Y-91252000I0J-15000D01*
G01*
X162950000Y-93252000D01*
G75*
G02*
X162935000Y-93267000I-15000J0D01*
G01*
X162035000Y-93267000D01*
G75*
G02*
X162020000Y-93252000I0J15000D01*
G01*
X162020000Y-91252000D01*
G75*
G02*
X162035000Y-91237000I15000J0D01*
G01*
G37*
G36*
G01*
X163305000Y-91237000D02*
X164205000Y-91237000D01*
G75*
G02*
X164220000Y-91252000I0J-15000D01*
G01*
X164220000Y-93252000D01*
G75*
G02*
X164205000Y-93267000I-15000J0D01*
G01*
X163305000Y-93267000D01*
G75*
G02*
X163290000Y-93252000I0J15000D01*
G01*
X163290000Y-91252000D01*
G75*
G02*
X163305000Y-91237000I15000J0D01*
G01*
G37*
G36*
G01*
X153755000Y-97237000D02*
X158755000Y-97237000D01*
G75*
G02*
X158770000Y-97252000I0J-15000D01*
G01*
X158770000Y-102252000D01*
G75*
G02*
X158755000Y-102267000I-15000J0D01*
G01*
X153755000Y-102267000D01*
G75*
G02*
X153740000Y-102252000I0J15000D01*
G01*
X153740000Y-97252000D01*
G75*
G02*
X153755000Y-97237000I15000J0D01*
G01*
G37*
%TD*%
%TO.C,U4*%
G36*
G01*
X128265000Y-122720000D02*
X128265000Y-121040000D01*
G75*
G02*
X128280000Y-121025000I15000J0D01*
G01*
X129960000Y-121025000D01*
G75*
G02*
X129975000Y-121040000I0J-15000D01*
G01*
X129975000Y-122720000D01*
G75*
G02*
X129960000Y-122735000I-15000J0D01*
G01*
X128280000Y-122735000D01*
G75*
G02*
X128265000Y-122720000I0J15000D01*
G01*
G37*
G36*
G01*
X128230000Y-120775000D02*
X128230000Y-120060000D01*
G75*
G02*
X128300000Y-119990000I70000J0D01*
G01*
X128440000Y-119990000D01*
G75*
G02*
X128510000Y-120060000I0J-70000D01*
G01*
X128510000Y-120775000D01*
G75*
G02*
X128440000Y-120845000I-70000J0D01*
G01*
X128300000Y-120845000D01*
G75*
G02*
X128230000Y-120775000I0J70000D01*
G01*
G37*
G36*
G01*
X128730000Y-120775000D02*
X128730000Y-120060000D01*
G75*
G02*
X128800000Y-119990000I70000J0D01*
G01*
X128940000Y-119990000D01*
G75*
G02*
X129010000Y-120060000I0J-70000D01*
G01*
X129010000Y-120775000D01*
G75*
G02*
X128940000Y-120845000I-70000J0D01*
G01*
X128800000Y-120845000D01*
G75*
G02*
X128730000Y-120775000I0J70000D01*
G01*
G37*
G36*
G01*
X129230000Y-120775000D02*
X129230000Y-120060000D01*
G75*
G02*
X129300000Y-119990000I70000J0D01*
G01*
X129440000Y-119990000D01*
G75*
G02*
X129510000Y-120060000I0J-70000D01*
G01*
X129510000Y-120775000D01*
G75*
G02*
X129440000Y-120845000I-70000J0D01*
G01*
X129300000Y-120845000D01*
G75*
G02*
X129230000Y-120775000I0J70000D01*
G01*
G37*
G36*
G01*
X129730000Y-120775000D02*
X129730000Y-120060000D01*
G75*
G02*
X129800000Y-119990000I70000J0D01*
G01*
X129940000Y-119990000D01*
G75*
G02*
X130010000Y-120060000I0J-70000D01*
G01*
X130010000Y-120775000D01*
G75*
G02*
X129940000Y-120845000I-70000J0D01*
G01*
X129800000Y-120845000D01*
G75*
G02*
X129730000Y-120775000I0J70000D01*
G01*
G37*
G36*
G01*
X130155000Y-121200000D02*
X130155000Y-121060000D01*
G75*
G02*
X130225000Y-120990000I70000J0D01*
G01*
X130940000Y-120990000D01*
G75*
G02*
X131010000Y-121060000I0J-70000D01*
G01*
X131010000Y-121200000D01*
G75*
G02*
X130940000Y-121270000I-70000J0D01*
G01*
X130225000Y-121270000D01*
G75*
G02*
X130155000Y-121200000I0J70000D01*
G01*
G37*
G36*
G01*
X130155000Y-121700000D02*
X130155000Y-121560000D01*
G75*
G02*
X130225000Y-121490000I70000J0D01*
G01*
X130940000Y-121490000D01*
G75*
G02*
X131010000Y-121560000I0J-70000D01*
G01*
X131010000Y-121700000D01*
G75*
G02*
X130940000Y-121770000I-70000J0D01*
G01*
X130225000Y-121770000D01*
G75*
G02*
X130155000Y-121700000I0J70000D01*
G01*
G37*
G36*
G01*
X130155000Y-122200000D02*
X130155000Y-122060000D01*
G75*
G02*
X130225000Y-121990000I70000J0D01*
G01*
X130940000Y-121990000D01*
G75*
G02*
X131010000Y-122060000I0J-70000D01*
G01*
X131010000Y-122200000D01*
G75*
G02*
X130940000Y-122270000I-70000J0D01*
G01*
X130225000Y-122270000D01*
G75*
G02*
X130155000Y-122200000I0J70000D01*
G01*
G37*
G36*
G01*
X130155000Y-122700000D02*
X130155000Y-122560000D01*
G75*
G02*
X130225000Y-122490000I70000J0D01*
G01*
X130940000Y-122490000D01*
G75*
G02*
X131010000Y-122560000I0J-70000D01*
G01*
X131010000Y-122700000D01*
G75*
G02*
X130940000Y-122770000I-70000J0D01*
G01*
X130225000Y-122770000D01*
G75*
G02*
X130155000Y-122700000I0J70000D01*
G01*
G37*
G36*
G01*
X129730000Y-123700000D02*
X129730000Y-122985000D01*
G75*
G02*
X129800000Y-122915000I70000J0D01*
G01*
X129940000Y-122915000D01*
G75*
G02*
X130010000Y-122985000I0J-70000D01*
G01*
X130010000Y-123700000D01*
G75*
G02*
X129940000Y-123770000I-70000J0D01*
G01*
X129800000Y-123770000D01*
G75*
G02*
X129730000Y-123700000I0J70000D01*
G01*
G37*
G36*
G01*
X129230000Y-123700000D02*
X129230000Y-122985000D01*
G75*
G02*
X129300000Y-122915000I70000J0D01*
G01*
X129440000Y-122915000D01*
G75*
G02*
X129510000Y-122985000I0J-70000D01*
G01*
X129510000Y-123700000D01*
G75*
G02*
X129440000Y-123770000I-70000J0D01*
G01*
X129300000Y-123770000D01*
G75*
G02*
X129230000Y-123700000I0J70000D01*
G01*
G37*
G36*
G01*
X128730000Y-123700000D02*
X128730000Y-122985000D01*
G75*
G02*
X128800000Y-122915000I70000J0D01*
G01*
X128940000Y-122915000D01*
G75*
G02*
X129010000Y-122985000I0J-70000D01*
G01*
X129010000Y-123700000D01*
G75*
G02*
X128940000Y-123770000I-70000J0D01*
G01*
X128800000Y-123770000D01*
G75*
G02*
X128730000Y-123700000I0J70000D01*
G01*
G37*
G36*
G01*
X128230000Y-123700000D02*
X128230000Y-122985000D01*
G75*
G02*
X128300000Y-122915000I70000J0D01*
G01*
X128440000Y-122915000D01*
G75*
G02*
X128510000Y-122985000I0J-70000D01*
G01*
X128510000Y-123700000D01*
G75*
G02*
X128440000Y-123770000I-70000J0D01*
G01*
X128300000Y-123770000D01*
G75*
G02*
X128230000Y-123700000I0J70000D01*
G01*
G37*
G36*
G01*
X127230000Y-122700000D02*
X127230000Y-122560000D01*
G75*
G02*
X127300000Y-122490000I70000J0D01*
G01*
X128015000Y-122490000D01*
G75*
G02*
X128085000Y-122560000I0J-70000D01*
G01*
X128085000Y-122700000D01*
G75*
G02*
X128015000Y-122770000I-70000J0D01*
G01*
X127300000Y-122770000D01*
G75*
G02*
X127230000Y-122700000I0J70000D01*
G01*
G37*
G36*
G01*
X127230000Y-122200000D02*
X127230000Y-122060000D01*
G75*
G02*
X127300000Y-121990000I70000J0D01*
G01*
X128015000Y-121990000D01*
G75*
G02*
X128085000Y-122060000I0J-70000D01*
G01*
X128085000Y-122200000D01*
G75*
G02*
X128015000Y-122270000I-70000J0D01*
G01*
X127300000Y-122270000D01*
G75*
G02*
X127230000Y-122200000I0J70000D01*
G01*
G37*
G36*
G01*
X127230000Y-121700000D02*
X127230000Y-121560000D01*
G75*
G02*
X127300000Y-121490000I70000J0D01*
G01*
X128015000Y-121490000D01*
G75*
G02*
X128085000Y-121560000I0J-70000D01*
G01*
X128085000Y-121700000D01*
G75*
G02*
X128015000Y-121770000I-70000J0D01*
G01*
X127300000Y-121770000D01*
G75*
G02*
X127230000Y-121700000I0J70000D01*
G01*
G37*
G36*
G01*
X127230000Y-121200000D02*
X127230000Y-121060000D01*
G75*
G02*
X127300000Y-120990000I70000J0D01*
G01*
X128015000Y-120990000D01*
G75*
G02*
X128085000Y-121060000I0J-70000D01*
G01*
X128085000Y-121200000D01*
G75*
G02*
X128015000Y-121270000I-70000J0D01*
G01*
X127300000Y-121270000D01*
G75*
G02*
X127230000Y-121200000I0J70000D01*
G01*
G37*
%TD*%
%TO.C,U3*%
G36*
G01*
X128225000Y-111740000D02*
X128225000Y-110060000D01*
G75*
G02*
X128240000Y-110045000I15000J0D01*
G01*
X129920000Y-110045000D01*
G75*
G02*
X129935000Y-110060000I0J-15000D01*
G01*
X129935000Y-111740000D01*
G75*
G02*
X129920000Y-111755000I-15000J0D01*
G01*
X128240000Y-111755000D01*
G75*
G02*
X128225000Y-111740000I0J15000D01*
G01*
G37*
G36*
G01*
X128190000Y-109795000D02*
X128190000Y-109080000D01*
G75*
G02*
X128260000Y-109010000I70000J0D01*
G01*
X128400000Y-109010000D01*
G75*
G02*
X128470000Y-109080000I0J-70000D01*
G01*
X128470000Y-109795000D01*
G75*
G02*
X128400000Y-109865000I-70000J0D01*
G01*
X128260000Y-109865000D01*
G75*
G02*
X128190000Y-109795000I0J70000D01*
G01*
G37*
G36*
G01*
X128690000Y-109795000D02*
X128690000Y-109080000D01*
G75*
G02*
X128760000Y-109010000I70000J0D01*
G01*
X128900000Y-109010000D01*
G75*
G02*
X128970000Y-109080000I0J-70000D01*
G01*
X128970000Y-109795000D01*
G75*
G02*
X128900000Y-109865000I-70000J0D01*
G01*
X128760000Y-109865000D01*
G75*
G02*
X128690000Y-109795000I0J70000D01*
G01*
G37*
G36*
G01*
X129190000Y-109795000D02*
X129190000Y-109080000D01*
G75*
G02*
X129260000Y-109010000I70000J0D01*
G01*
X129400000Y-109010000D01*
G75*
G02*
X129470000Y-109080000I0J-70000D01*
G01*
X129470000Y-109795000D01*
G75*
G02*
X129400000Y-109865000I-70000J0D01*
G01*
X129260000Y-109865000D01*
G75*
G02*
X129190000Y-109795000I0J70000D01*
G01*
G37*
G36*
G01*
X129690000Y-109795000D02*
X129690000Y-109080000D01*
G75*
G02*
X129760000Y-109010000I70000J0D01*
G01*
X129900000Y-109010000D01*
G75*
G02*
X129970000Y-109080000I0J-70000D01*
G01*
X129970000Y-109795000D01*
G75*
G02*
X129900000Y-109865000I-70000J0D01*
G01*
X129760000Y-109865000D01*
G75*
G02*
X129690000Y-109795000I0J70000D01*
G01*
G37*
G36*
G01*
X130115000Y-110220000D02*
X130115000Y-110080000D01*
G75*
G02*
X130185000Y-110010000I70000J0D01*
G01*
X130900000Y-110010000D01*
G75*
G02*
X130970000Y-110080000I0J-70000D01*
G01*
X130970000Y-110220000D01*
G75*
G02*
X130900000Y-110290000I-70000J0D01*
G01*
X130185000Y-110290000D01*
G75*
G02*
X130115000Y-110220000I0J70000D01*
G01*
G37*
G36*
G01*
X130115000Y-110720000D02*
X130115000Y-110580000D01*
G75*
G02*
X130185000Y-110510000I70000J0D01*
G01*
X130900000Y-110510000D01*
G75*
G02*
X130970000Y-110580000I0J-70000D01*
G01*
X130970000Y-110720000D01*
G75*
G02*
X130900000Y-110790000I-70000J0D01*
G01*
X130185000Y-110790000D01*
G75*
G02*
X130115000Y-110720000I0J70000D01*
G01*
G37*
G36*
G01*
X130115000Y-111220000D02*
X130115000Y-111080000D01*
G75*
G02*
X130185000Y-111010000I70000J0D01*
G01*
X130900000Y-111010000D01*
G75*
G02*
X130970000Y-111080000I0J-70000D01*
G01*
X130970000Y-111220000D01*
G75*
G02*
X130900000Y-111290000I-70000J0D01*
G01*
X130185000Y-111290000D01*
G75*
G02*
X130115000Y-111220000I0J70000D01*
G01*
G37*
G36*
G01*
X130115000Y-111720000D02*
X130115000Y-111580000D01*
G75*
G02*
X130185000Y-111510000I70000J0D01*
G01*
X130900000Y-111510000D01*
G75*
G02*
X130970000Y-111580000I0J-70000D01*
G01*
X130970000Y-111720000D01*
G75*
G02*
X130900000Y-111790000I-70000J0D01*
G01*
X130185000Y-111790000D01*
G75*
G02*
X130115000Y-111720000I0J70000D01*
G01*
G37*
G36*
G01*
X129690000Y-112720000D02*
X129690000Y-112005000D01*
G75*
G02*
X129760000Y-111935000I70000J0D01*
G01*
X129900000Y-111935000D01*
G75*
G02*
X129970000Y-112005000I0J-70000D01*
G01*
X129970000Y-112720000D01*
G75*
G02*
X129900000Y-112790000I-70000J0D01*
G01*
X129760000Y-112790000D01*
G75*
G02*
X129690000Y-112720000I0J70000D01*
G01*
G37*
G36*
G01*
X129190000Y-112720000D02*
X129190000Y-112005000D01*
G75*
G02*
X129260000Y-111935000I70000J0D01*
G01*
X129400000Y-111935000D01*
G75*
G02*
X129470000Y-112005000I0J-70000D01*
G01*
X129470000Y-112720000D01*
G75*
G02*
X129400000Y-112790000I-70000J0D01*
G01*
X129260000Y-112790000D01*
G75*
G02*
X129190000Y-112720000I0J70000D01*
G01*
G37*
G36*
G01*
X128690000Y-112720000D02*
X128690000Y-112005000D01*
G75*
G02*
X128760000Y-111935000I70000J0D01*
G01*
X128900000Y-111935000D01*
G75*
G02*
X128970000Y-112005000I0J-70000D01*
G01*
X128970000Y-112720000D01*
G75*
G02*
X128900000Y-112790000I-70000J0D01*
G01*
X128760000Y-112790000D01*
G75*
G02*
X128690000Y-112720000I0J70000D01*
G01*
G37*
G36*
G01*
X128190000Y-112720000D02*
X128190000Y-112005000D01*
G75*
G02*
X128260000Y-111935000I70000J0D01*
G01*
X128400000Y-111935000D01*
G75*
G02*
X128470000Y-112005000I0J-70000D01*
G01*
X128470000Y-112720000D01*
G75*
G02*
X128400000Y-112790000I-70000J0D01*
G01*
X128260000Y-112790000D01*
G75*
G02*
X128190000Y-112720000I0J70000D01*
G01*
G37*
G36*
G01*
X127190000Y-111720000D02*
X127190000Y-111580000D01*
G75*
G02*
X127260000Y-111510000I70000J0D01*
G01*
X127975000Y-111510000D01*
G75*
G02*
X128045000Y-111580000I0J-70000D01*
G01*
X128045000Y-111720000D01*
G75*
G02*
X127975000Y-111790000I-70000J0D01*
G01*
X127260000Y-111790000D01*
G75*
G02*
X127190000Y-111720000I0J70000D01*
G01*
G37*
G36*
G01*
X127190000Y-111220000D02*
X127190000Y-111080000D01*
G75*
G02*
X127260000Y-111010000I70000J0D01*
G01*
X127975000Y-111010000D01*
G75*
G02*
X128045000Y-111080000I0J-70000D01*
G01*
X128045000Y-111220000D01*
G75*
G02*
X127975000Y-111290000I-70000J0D01*
G01*
X127260000Y-111290000D01*
G75*
G02*
X127190000Y-111220000I0J70000D01*
G01*
G37*
G36*
G01*
X127190000Y-110720000D02*
X127190000Y-110580000D01*
G75*
G02*
X127260000Y-110510000I70000J0D01*
G01*
X127975000Y-110510000D01*
G75*
G02*
X128045000Y-110580000I0J-70000D01*
G01*
X128045000Y-110720000D01*
G75*
G02*
X127975000Y-110790000I-70000J0D01*
G01*
X127260000Y-110790000D01*
G75*
G02*
X127190000Y-110720000I0J70000D01*
G01*
G37*
G36*
G01*
X127190000Y-110220000D02*
X127190000Y-110080000D01*
G75*
G02*
X127260000Y-110010000I70000J0D01*
G01*
X127975000Y-110010000D01*
G75*
G02*
X128045000Y-110080000I0J-70000D01*
G01*
X128045000Y-110220000D01*
G75*
G02*
X127975000Y-110290000I-70000J0D01*
G01*
X127260000Y-110290000D01*
G75*
G02*
X127190000Y-110220000I0J70000D01*
G01*
G37*
%TD*%
%TO.C,U2*%
G36*
G01*
X156894001Y-70298000D02*
X156894001Y-72098000D01*
G75*
G02*
X156894000Y-72098001I-1J0D01*
G01*
X155394000Y-72098001D01*
G75*
G02*
X155393999Y-72098000I0J1D01*
G01*
X155393999Y-70298000D01*
G75*
G02*
X155394000Y-70297999I1J0D01*
G01*
X156894000Y-70297999D01*
G75*
G02*
X156894001Y-70298000I0J-1D01*
G01*
G37*
G36*
G01*
X154994001Y-70298000D02*
X154994001Y-72098000D01*
G75*
G02*
X154994000Y-72098001I-1J0D01*
G01*
X153494000Y-72098001D01*
G75*
G02*
X153493999Y-72098000I0J1D01*
G01*
X153493999Y-70298000D01*
G75*
G02*
X153494000Y-70297999I1J0D01*
G01*
X154994000Y-70297999D01*
G75*
G02*
X154994001Y-70298000I0J-1D01*
G01*
G37*
G36*
G01*
X153094001Y-70298000D02*
X153094001Y-72098000D01*
G75*
G02*
X153094000Y-72098001I-1J0D01*
G01*
X151594000Y-72098001D01*
G75*
G02*
X151593999Y-72098000I0J1D01*
G01*
X151593999Y-70298000D01*
G75*
G02*
X151594000Y-70297999I1J0D01*
G01*
X153094000Y-70297999D01*
G75*
G02*
X153094001Y-70298000I0J-1D01*
G01*
G37*
G36*
G01*
X151194001Y-70298000D02*
X151194001Y-72098000D01*
G75*
G02*
X151194000Y-72098001I-1J0D01*
G01*
X149694000Y-72098001D01*
G75*
G02*
X149693999Y-72098000I0J1D01*
G01*
X149693999Y-70298000D01*
G75*
G02*
X149694000Y-70297999I1J0D01*
G01*
X151194000Y-70297999D01*
G75*
G02*
X151194001Y-70298000I0J-1D01*
G01*
G37*
G36*
G01*
X149294001Y-70298000D02*
X149294001Y-72098000D01*
G75*
G02*
X149294000Y-72098001I-1J0D01*
G01*
X147794000Y-72098001D01*
G75*
G02*
X147793999Y-72098000I0J1D01*
G01*
X147793999Y-70298000D01*
G75*
G02*
X147794000Y-70297999I1J0D01*
G01*
X149294000Y-70297999D01*
G75*
G02*
X149294001Y-70298000I0J-1D01*
G01*
G37*
G36*
G01*
X146644001Y-67648000D02*
X146644001Y-69148000D01*
G75*
G02*
X146644000Y-69148001I-1J0D01*
G01*
X144844000Y-69148001D01*
G75*
G02*
X144843999Y-69148000I0J1D01*
G01*
X144843999Y-67648000D01*
G75*
G02*
X144844000Y-67647999I1J0D01*
G01*
X146644000Y-67647999D01*
G75*
G02*
X146644001Y-67648000I0J-1D01*
G01*
G37*
G36*
G01*
X146644001Y-65748000D02*
X146644001Y-67248000D01*
G75*
G02*
X146644000Y-67248001I-1J0D01*
G01*
X144844000Y-67248001D01*
G75*
G02*
X144843999Y-67248000I0J1D01*
G01*
X144843999Y-65748000D01*
G75*
G02*
X144844000Y-65747999I1J0D01*
G01*
X146644000Y-65747999D01*
G75*
G02*
X146644001Y-65748000I0J-1D01*
G01*
G37*
G36*
G01*
X146644001Y-63848000D02*
X146644001Y-65348000D01*
G75*
G02*
X146644000Y-65348001I-1J0D01*
G01*
X144844000Y-65348001D01*
G75*
G02*
X144843999Y-65348000I0J1D01*
G01*
X144843999Y-63848000D01*
G75*
G02*
X144844000Y-63847999I1J0D01*
G01*
X146644000Y-63847999D01*
G75*
G02*
X146644001Y-63848000I0J-1D01*
G01*
G37*
G36*
G01*
X146644001Y-61948000D02*
X146644001Y-63448000D01*
G75*
G02*
X146644000Y-63448001I-1J0D01*
G01*
X144844000Y-63448001D01*
G75*
G02*
X144843999Y-63448000I0J1D01*
G01*
X144843999Y-61948000D01*
G75*
G02*
X144844000Y-61947999I1J0D01*
G01*
X146644000Y-61947999D01*
G75*
G02*
X146644001Y-61948000I0J-1D01*
G01*
G37*
G36*
G01*
X146644001Y-60048000D02*
X146644001Y-61548000D01*
G75*
G02*
X146644000Y-61548001I-1J0D01*
G01*
X144844000Y-61548001D01*
G75*
G02*
X144843999Y-61548000I0J1D01*
G01*
X144843999Y-60048000D01*
G75*
G02*
X144844000Y-60047999I1J0D01*
G01*
X146644000Y-60047999D01*
G75*
G02*
X146644001Y-60048000I0J-1D01*
G01*
G37*
G36*
G01*
X149294001Y-57098000D02*
X149294001Y-58898000D01*
G75*
G02*
X149294000Y-58898001I-1J0D01*
G01*
X147794000Y-58898001D01*
G75*
G02*
X147793999Y-58898000I0J1D01*
G01*
X147793999Y-57098000D01*
G75*
G02*
X147794000Y-57097999I1J0D01*
G01*
X149294000Y-57097999D01*
G75*
G02*
X149294001Y-57098000I0J-1D01*
G01*
G37*
G36*
G01*
X151194001Y-57098000D02*
X151194001Y-58898000D01*
G75*
G02*
X151194000Y-58898001I-1J0D01*
G01*
X149694000Y-58898001D01*
G75*
G02*
X149693999Y-58898000I0J1D01*
G01*
X149693999Y-57098000D01*
G75*
G02*
X149694000Y-57097999I1J0D01*
G01*
X151194000Y-57097999D01*
G75*
G02*
X151194001Y-57098000I0J-1D01*
G01*
G37*
G36*
G01*
X153094001Y-57098000D02*
X153094001Y-58898000D01*
G75*
G02*
X153094000Y-58898001I-1J0D01*
G01*
X151594000Y-58898001D01*
G75*
G02*
X151593999Y-58898000I0J1D01*
G01*
X151593999Y-57098000D01*
G75*
G02*
X151594000Y-57097999I1J0D01*
G01*
X153094000Y-57097999D01*
G75*
G02*
X153094001Y-57098000I0J-1D01*
G01*
G37*
G36*
G01*
X154994001Y-57098000D02*
X154994001Y-58898000D01*
G75*
G02*
X154994000Y-58898001I-1J0D01*
G01*
X153494000Y-58898001D01*
G75*
G02*
X153493999Y-58898000I0J1D01*
G01*
X153493999Y-57098000D01*
G75*
G02*
X153494000Y-57097999I1J0D01*
G01*
X154994000Y-57097999D01*
G75*
G02*
X154994001Y-57098000I0J-1D01*
G01*
G37*
G36*
G01*
X156894001Y-57098000D02*
X156894001Y-58898000D01*
G75*
G02*
X156894000Y-58898001I-1J0D01*
G01*
X155394000Y-58898001D01*
G75*
G02*
X155393999Y-58898000I0J1D01*
G01*
X155393999Y-57098000D01*
G75*
G02*
X155394000Y-57097999I1J0D01*
G01*
X156894000Y-57097999D01*
G75*
G02*
X156894001Y-57098000I0J-1D01*
G01*
G37*
G36*
G01*
X159844001Y-60048000D02*
X159844001Y-61548000D01*
G75*
G02*
X159844000Y-61548001I-1J0D01*
G01*
X158044000Y-61548001D01*
G75*
G02*
X158043999Y-61548000I0J1D01*
G01*
X158043999Y-60048000D01*
G75*
G02*
X158044000Y-60047999I1J0D01*
G01*
X159844000Y-60047999D01*
G75*
G02*
X159844001Y-60048000I0J-1D01*
G01*
G37*
G36*
G01*
X159844001Y-61948000D02*
X159844001Y-63448000D01*
G75*
G02*
X159844000Y-63448001I-1J0D01*
G01*
X158044000Y-63448001D01*
G75*
G02*
X158043999Y-63448000I0J1D01*
G01*
X158043999Y-61948000D01*
G75*
G02*
X158044000Y-61947999I1J0D01*
G01*
X159844000Y-61947999D01*
G75*
G02*
X159844001Y-61948000I0J-1D01*
G01*
G37*
G36*
G01*
X159844001Y-63848000D02*
X159844001Y-65348000D01*
G75*
G02*
X159844000Y-65348001I-1J0D01*
G01*
X158044000Y-65348001D01*
G75*
G02*
X158043999Y-65348000I0J1D01*
G01*
X158043999Y-63848000D01*
G75*
G02*
X158044000Y-63847999I1J0D01*
G01*
X159844000Y-63847999D01*
G75*
G02*
X159844001Y-63848000I0J-1D01*
G01*
G37*
G36*
G01*
X159844001Y-65748000D02*
X159844001Y-67248000D01*
G75*
G02*
X159844000Y-67248001I-1J0D01*
G01*
X158044000Y-67248001D01*
G75*
G02*
X158043999Y-67248000I0J1D01*
G01*
X158043999Y-65748000D01*
G75*
G02*
X158044000Y-65747999I1J0D01*
G01*
X159844000Y-65747999D01*
G75*
G02*
X159844001Y-65748000I0J-1D01*
G01*
G37*
G36*
G01*
X159844001Y-67648000D02*
X159844001Y-69148000D01*
G75*
G02*
X159844000Y-69148001I-1J0D01*
G01*
X158044000Y-69148001D01*
G75*
G02*
X158043999Y-69148000I0J1D01*
G01*
X158043999Y-67648000D01*
G75*
G02*
X158044000Y-67647999I1J0D01*
G01*
X159844000Y-67647999D01*
G75*
G02*
X159844001Y-67648000I0J-1D01*
G01*
G37*
%TD*%
%TO.C,U1*%
G36*
G01*
X157500000Y-115785000D02*
X158500000Y-115785000D01*
G75*
G02*
X158515000Y-115800000I0J-15000D01*
G01*
X158515000Y-117800000D01*
G75*
G02*
X158500000Y-117815000I-15000J0D01*
G01*
X157500000Y-117815000D01*
G75*
G02*
X157485000Y-117800000I0J15000D01*
G01*
X157485000Y-115800000D01*
G75*
G02*
X157500000Y-115785000I15000J0D01*
G01*
G37*
G36*
G01*
X155500000Y-115785000D02*
X156500000Y-115785000D01*
G75*
G02*
X156515000Y-115800000I0J-15000D01*
G01*
X156515000Y-117800000D01*
G75*
G02*
X156500000Y-117815000I-15000J0D01*
G01*
X155500000Y-117815000D01*
G75*
G02*
X155485000Y-117800000I0J15000D01*
G01*
X155485000Y-115800000D01*
G75*
G02*
X155500000Y-115785000I15000J0D01*
G01*
G37*
G36*
G01*
X153500000Y-115785000D02*
X154500000Y-115785000D01*
G75*
G02*
X154515000Y-115800000I0J-15000D01*
G01*
X154515000Y-117800000D01*
G75*
G02*
X154500000Y-117815000I-15000J0D01*
G01*
X153500000Y-117815000D01*
G75*
G02*
X153485000Y-117800000I0J15000D01*
G01*
X153485000Y-115800000D01*
G75*
G02*
X153500000Y-115785000I15000J0D01*
G01*
G37*
G36*
G01*
X151500000Y-115785000D02*
X152500000Y-115785000D01*
G75*
G02*
X152515000Y-115800000I0J-15000D01*
G01*
X152515000Y-117800000D01*
G75*
G02*
X152500000Y-117815000I-15000J0D01*
G01*
X151500000Y-117815000D01*
G75*
G02*
X151485000Y-117800000I0J15000D01*
G01*
X151485000Y-115800000D01*
G75*
G02*
X151500000Y-115785000I15000J0D01*
G01*
G37*
G36*
G01*
X149500000Y-115785000D02*
X150500000Y-115785000D01*
G75*
G02*
X150515000Y-115800000I0J-15000D01*
G01*
X150515000Y-117800000D01*
G75*
G02*
X150500000Y-117815000I-15000J0D01*
G01*
X149500000Y-117815000D01*
G75*
G02*
X149485000Y-117800000I0J15000D01*
G01*
X149485000Y-115800000D01*
G75*
G02*
X149500000Y-115785000I15000J0D01*
G01*
G37*
G36*
G01*
X147500000Y-115785000D02*
X148500000Y-115785000D01*
G75*
G02*
X148515000Y-115800000I0J-15000D01*
G01*
X148515000Y-117800000D01*
G75*
G02*
X148500000Y-117815000I-15000J0D01*
G01*
X147500000Y-117815000D01*
G75*
G02*
X147485000Y-117800000I0J15000D01*
G01*
X147485000Y-115800000D01*
G75*
G02*
X147500000Y-115785000I15000J0D01*
G01*
G37*
G36*
G01*
X145500000Y-115785000D02*
X146500000Y-115785000D01*
G75*
G02*
X146515000Y-115800000I0J-15000D01*
G01*
X146515000Y-117800000D01*
G75*
G02*
X146500000Y-117815000I-15000J0D01*
G01*
X145500000Y-117815000D01*
G75*
G02*
X145485000Y-117800000I0J15000D01*
G01*
X145485000Y-115800000D01*
G75*
G02*
X145500000Y-115785000I15000J0D01*
G01*
G37*
G36*
G01*
X143500000Y-115785000D02*
X144500000Y-115785000D01*
G75*
G02*
X144515000Y-115800000I0J-15000D01*
G01*
X144515000Y-117800000D01*
G75*
G02*
X144500000Y-117815000I-15000J0D01*
G01*
X143500000Y-117815000D01*
G75*
G02*
X143485000Y-117800000I0J15000D01*
G01*
X143485000Y-115800000D01*
G75*
G02*
X143500000Y-115785000I15000J0D01*
G01*
G37*
G36*
G01*
X143500000Y-131785000D02*
X144500000Y-131785000D01*
G75*
G02*
X144515000Y-131800000I0J-15000D01*
G01*
X144515000Y-133800000D01*
G75*
G02*
X144500000Y-133815000I-15000J0D01*
G01*
X143500000Y-133815000D01*
G75*
G02*
X143485000Y-133800000I0J15000D01*
G01*
X143485000Y-131800000D01*
G75*
G02*
X143500000Y-131785000I15000J0D01*
G01*
G37*
G36*
G01*
X145500000Y-131785000D02*
X146500000Y-131785000D01*
G75*
G02*
X146515000Y-131800000I0J-15000D01*
G01*
X146515000Y-133800000D01*
G75*
G02*
X146500000Y-133815000I-15000J0D01*
G01*
X145500000Y-133815000D01*
G75*
G02*
X145485000Y-133800000I0J15000D01*
G01*
X145485000Y-131800000D01*
G75*
G02*
X145500000Y-131785000I15000J0D01*
G01*
G37*
G36*
G01*
X147500000Y-131785000D02*
X148500000Y-131785000D01*
G75*
G02*
X148515000Y-131800000I0J-15000D01*
G01*
X148515000Y-133800000D01*
G75*
G02*
X148500000Y-133815000I-15000J0D01*
G01*
X147500000Y-133815000D01*
G75*
G02*
X147485000Y-133800000I0J15000D01*
G01*
X147485000Y-131800000D01*
G75*
G02*
X147500000Y-131785000I15000J0D01*
G01*
G37*
G36*
G01*
X149500000Y-131785000D02*
X150500000Y-131785000D01*
G75*
G02*
X150515000Y-131800000I0J-15000D01*
G01*
X150515000Y-133800000D01*
G75*
G02*
X150500000Y-133815000I-15000J0D01*
G01*
X149500000Y-133815000D01*
G75*
G02*
X149485000Y-133800000I0J15000D01*
G01*
X149485000Y-131800000D01*
G75*
G02*
X149500000Y-131785000I15000J0D01*
G01*
G37*
G36*
G01*
X151500000Y-131785000D02*
X152500000Y-131785000D01*
G75*
G02*
X152515000Y-131800000I0J-15000D01*
G01*
X152515000Y-133800000D01*
G75*
G02*
X152500000Y-133815000I-15000J0D01*
G01*
X151500000Y-133815000D01*
G75*
G02*
X151485000Y-133800000I0J15000D01*
G01*
X151485000Y-131800000D01*
G75*
G02*
X151500000Y-131785000I15000J0D01*
G01*
G37*
G36*
G01*
X153500000Y-131785000D02*
X154500000Y-131785000D01*
G75*
G02*
X154515000Y-131800000I0J-15000D01*
G01*
X154515000Y-133800000D01*
G75*
G02*
X154500000Y-133815000I-15000J0D01*
G01*
X153500000Y-133815000D01*
G75*
G02*
X153485000Y-133800000I0J15000D01*
G01*
X153485000Y-131800000D01*
G75*
G02*
X153500000Y-131785000I15000J0D01*
G01*
G37*
G36*
G01*
X155500000Y-131785000D02*
X156500000Y-131785000D01*
G75*
G02*
X156515000Y-131800000I0J-15000D01*
G01*
X156515000Y-133800000D01*
G75*
G02*
X156500000Y-133815000I-15000J0D01*
G01*
X155500000Y-133815000D01*
G75*
G02*
X155485000Y-133800000I0J15000D01*
G01*
X155485000Y-131800000D01*
G75*
G02*
X155500000Y-131785000I15000J0D01*
G01*
G37*
G36*
G01*
X157500000Y-131785000D02*
X158500000Y-131785000D01*
G75*
G02*
X158515000Y-131800000I0J-15000D01*
G01*
X158515000Y-133800000D01*
G75*
G02*
X158500000Y-133815000I-15000J0D01*
G01*
X157500000Y-133815000D01*
G75*
G02*
X157485000Y-133800000I0J15000D01*
G01*
X157485000Y-131800000D01*
G75*
G02*
X157500000Y-131785000I15000J0D01*
G01*
G37*
%TD*%
%TO.C,R19*%
G36*
G01*
X149610000Y-113482500D02*
X149610000Y-112917500D01*
G75*
G02*
X149817500Y-112710000I207500J0D01*
G01*
X150232500Y-112710000D01*
G75*
G02*
X150440000Y-112917500I0J-207500D01*
G01*
X150440000Y-113482500D01*
G75*
G02*
X150232500Y-113690000I-207500J0D01*
G01*
X149817500Y-113690000D01*
G75*
G02*
X149610000Y-113482500I0J207500D01*
G01*
G37*
G36*
G01*
X147960000Y-113482500D02*
X147960000Y-112917500D01*
G75*
G02*
X148167500Y-112710000I207500J0D01*
G01*
X148582500Y-112710000D01*
G75*
G02*
X148790000Y-112917500I0J-207500D01*
G01*
X148790000Y-113482500D01*
G75*
G02*
X148582500Y-113690000I-207500J0D01*
G01*
X148167500Y-113690000D01*
G75*
G02*
X147960000Y-113482500I0J207500D01*
G01*
G37*
%TD*%
%TO.C,R18*%
G36*
G01*
X157915000Y-89617500D02*
X157915000Y-90182500D01*
G75*
G02*
X157707500Y-90390000I-207500J0D01*
G01*
X157292500Y-90390000D01*
G75*
G02*
X157085000Y-90182500I0J207500D01*
G01*
X157085000Y-89617500D01*
G75*
G02*
X157292500Y-89410000I207500J0D01*
G01*
X157707500Y-89410000D01*
G75*
G02*
X157915000Y-89617500I0J-207500D01*
G01*
G37*
G36*
G01*
X159565000Y-89617500D02*
X159565000Y-90182500D01*
G75*
G02*
X159357500Y-90390000I-207500J0D01*
G01*
X158942500Y-90390000D01*
G75*
G02*
X158735000Y-90182500I0J207500D01*
G01*
X158735000Y-89617500D01*
G75*
G02*
X158942500Y-89410000I207500J0D01*
G01*
X159357500Y-89410000D01*
G75*
G02*
X159565000Y-89617500I0J-207500D01*
G01*
G37*
%TD*%
%TO.C,R17*%
G36*
G01*
X159935000Y-111882500D02*
X159935000Y-111317500D01*
G75*
G02*
X160142500Y-111110000I207500J0D01*
G01*
X160557500Y-111110000D01*
G75*
G02*
X160765000Y-111317500I0J-207500D01*
G01*
X160765000Y-111882500D01*
G75*
G02*
X160557500Y-112090000I-207500J0D01*
G01*
X160142500Y-112090000D01*
G75*
G02*
X159935000Y-111882500I0J207500D01*
G01*
G37*
G36*
G01*
X158285000Y-111882500D02*
X158285000Y-111317500D01*
G75*
G02*
X158492500Y-111110000I207500J0D01*
G01*
X158907500Y-111110000D01*
G75*
G02*
X159115000Y-111317500I0J-207500D01*
G01*
X159115000Y-111882500D01*
G75*
G02*
X158907500Y-112090000I-207500J0D01*
G01*
X158492500Y-112090000D01*
G75*
G02*
X158285000Y-111882500I0J207500D01*
G01*
G37*
%TD*%
%TO.C,R16*%
G36*
G01*
X155485000Y-90182500D02*
X155485000Y-89617500D01*
G75*
G02*
X155692500Y-89410000I207500J0D01*
G01*
X156107500Y-89410000D01*
G75*
G02*
X156315000Y-89617500I0J-207500D01*
G01*
X156315000Y-90182500D01*
G75*
G02*
X156107500Y-90390000I-207500J0D01*
G01*
X155692500Y-90390000D01*
G75*
G02*
X155485000Y-90182500I0J207500D01*
G01*
G37*
G36*
G01*
X153835000Y-90182500D02*
X153835000Y-89617500D01*
G75*
G02*
X154042500Y-89410000I207500J0D01*
G01*
X154457500Y-89410000D01*
G75*
G02*
X154665000Y-89617500I0J-207500D01*
G01*
X154665000Y-90182500D01*
G75*
G02*
X154457500Y-90390000I-207500J0D01*
G01*
X154042500Y-90390000D01*
G75*
G02*
X153835000Y-90182500I0J207500D01*
G01*
G37*
%TD*%
%TO.C,R15*%
G36*
G01*
X144510000Y-85282500D02*
X144510000Y-84717500D01*
G75*
G02*
X144717500Y-84510000I207500J0D01*
G01*
X145132500Y-84510000D01*
G75*
G02*
X145340000Y-84717500I0J-207500D01*
G01*
X145340000Y-85282500D01*
G75*
G02*
X145132500Y-85490000I-207500J0D01*
G01*
X144717500Y-85490000D01*
G75*
G02*
X144510000Y-85282500I0J207500D01*
G01*
G37*
G36*
G01*
X142860000Y-85282500D02*
X142860000Y-84717500D01*
G75*
G02*
X143067500Y-84510000I207500J0D01*
G01*
X143482500Y-84510000D01*
G75*
G02*
X143690000Y-84717500I0J-207500D01*
G01*
X143690000Y-85282500D01*
G75*
G02*
X143482500Y-85490000I-207500J0D01*
G01*
X143067500Y-85490000D01*
G75*
G02*
X142860000Y-85282500I0J207500D01*
G01*
G37*
%TD*%
%TO.C,R14*%
G36*
G01*
X143417500Y-104385000D02*
X143982500Y-104385000D01*
G75*
G02*
X144190000Y-104592500I0J-207500D01*
G01*
X144190000Y-105007500D01*
G75*
G02*
X143982500Y-105215000I-207500J0D01*
G01*
X143417500Y-105215000D01*
G75*
G02*
X143210000Y-105007500I0J207500D01*
G01*
X143210000Y-104592500D01*
G75*
G02*
X143417500Y-104385000I207500J0D01*
G01*
G37*
G36*
G01*
X143417500Y-102735000D02*
X143982500Y-102735000D01*
G75*
G02*
X144190000Y-102942500I0J-207500D01*
G01*
X144190000Y-103357500D01*
G75*
G02*
X143982500Y-103565000I-207500J0D01*
G01*
X143417500Y-103565000D01*
G75*
G02*
X143210000Y-103357500I0J207500D01*
G01*
X143210000Y-102942500D01*
G75*
G02*
X143417500Y-102735000I207500J0D01*
G01*
G37*
%TD*%
%TO.C,R13*%
G36*
G01*
X124665000Y-124717500D02*
X124665000Y-125282500D01*
G75*
G02*
X124457500Y-125490000I-207500J0D01*
G01*
X124042500Y-125490000D01*
G75*
G02*
X123835000Y-125282500I0J207500D01*
G01*
X123835000Y-124717500D01*
G75*
G02*
X124042500Y-124510000I207500J0D01*
G01*
X124457500Y-124510000D01*
G75*
G02*
X124665000Y-124717500I0J-207500D01*
G01*
G37*
G36*
G01*
X126315000Y-124717500D02*
X126315000Y-125282500D01*
G75*
G02*
X126107500Y-125490000I-207500J0D01*
G01*
X125692500Y-125490000D01*
G75*
G02*
X125485000Y-125282500I0J207500D01*
G01*
X125485000Y-124717500D01*
G75*
G02*
X125692500Y-124510000I207500J0D01*
G01*
X126107500Y-124510000D01*
G75*
G02*
X126315000Y-124717500I0J-207500D01*
G01*
G37*
%TD*%
%TO.C,R12*%
G36*
G01*
X127815000Y-124717500D02*
X127815000Y-125282500D01*
G75*
G02*
X127607500Y-125490000I-207500J0D01*
G01*
X127192500Y-125490000D01*
G75*
G02*
X126985000Y-125282500I0J207500D01*
G01*
X126985000Y-124717500D01*
G75*
G02*
X127192500Y-124510000I207500J0D01*
G01*
X127607500Y-124510000D01*
G75*
G02*
X127815000Y-124717500I0J-207500D01*
G01*
G37*
G36*
G01*
X129465000Y-124717500D02*
X129465000Y-125282500D01*
G75*
G02*
X129257500Y-125490000I-207500J0D01*
G01*
X128842500Y-125490000D01*
G75*
G02*
X128635000Y-125282500I0J207500D01*
G01*
X128635000Y-124717500D01*
G75*
G02*
X128842500Y-124510000I207500J0D01*
G01*
X129257500Y-124510000D01*
G75*
G02*
X129465000Y-124717500I0J-207500D01*
G01*
G37*
%TD*%
%TO.C,R11*%
G36*
G01*
X124665000Y-113717500D02*
X124665000Y-114282500D01*
G75*
G02*
X124457500Y-114490000I-207500J0D01*
G01*
X124042500Y-114490000D01*
G75*
G02*
X123835000Y-114282500I0J207500D01*
G01*
X123835000Y-113717500D01*
G75*
G02*
X124042500Y-113510000I207500J0D01*
G01*
X124457500Y-113510000D01*
G75*
G02*
X124665000Y-113717500I0J-207500D01*
G01*
G37*
G36*
G01*
X126315000Y-113717500D02*
X126315000Y-114282500D01*
G75*
G02*
X126107500Y-114490000I-207500J0D01*
G01*
X125692500Y-114490000D01*
G75*
G02*
X125485000Y-114282500I0J207500D01*
G01*
X125485000Y-113717500D01*
G75*
G02*
X125692500Y-113510000I207500J0D01*
G01*
X126107500Y-113510000D01*
G75*
G02*
X126315000Y-113717500I0J-207500D01*
G01*
G37*
%TD*%
%TO.C,R10*%
G36*
G01*
X127815000Y-113717500D02*
X127815000Y-114282500D01*
G75*
G02*
X127607500Y-114490000I-207500J0D01*
G01*
X127192500Y-114490000D01*
G75*
G02*
X126985000Y-114282500I0J207500D01*
G01*
X126985000Y-113717500D01*
G75*
G02*
X127192500Y-113510000I207500J0D01*
G01*
X127607500Y-113510000D01*
G75*
G02*
X127815000Y-113717500I0J-207500D01*
G01*
G37*
G36*
G01*
X129465000Y-113717500D02*
X129465000Y-114282500D01*
G75*
G02*
X129257500Y-114490000I-207500J0D01*
G01*
X128842500Y-114490000D01*
G75*
G02*
X128635000Y-114282500I0J207500D01*
G01*
X128635000Y-113717500D01*
G75*
G02*
X128842500Y-113510000I207500J0D01*
G01*
X129257500Y-113510000D01*
G75*
G02*
X129465000Y-113717500I0J-207500D01*
G01*
G37*
%TD*%
%TO.C,R7*%
G36*
G01*
X139117500Y-117035000D02*
X139682500Y-117035000D01*
G75*
G02*
X139890000Y-117242500I0J-207500D01*
G01*
X139890000Y-117657500D01*
G75*
G02*
X139682500Y-117865000I-207500J0D01*
G01*
X139117500Y-117865000D01*
G75*
G02*
X138910000Y-117657500I0J207500D01*
G01*
X138910000Y-117242500D01*
G75*
G02*
X139117500Y-117035000I207500J0D01*
G01*
G37*
G36*
G01*
X139117500Y-115385000D02*
X139682500Y-115385000D01*
G75*
G02*
X139890000Y-115592500I0J-207500D01*
G01*
X139890000Y-116007500D01*
G75*
G02*
X139682500Y-116215000I-207500J0D01*
G01*
X139117500Y-116215000D01*
G75*
G02*
X138910000Y-116007500I0J207500D01*
G01*
X138910000Y-115592500D01*
G75*
G02*
X139117500Y-115385000I207500J0D01*
G01*
G37*
%TD*%
%TO.C,R6*%
G36*
G01*
X126209000Y-85273500D02*
X126209000Y-85838500D01*
G75*
G02*
X126001500Y-86046000I-207500J0D01*
G01*
X125586500Y-86046000D01*
G75*
G02*
X125379000Y-85838500I0J207500D01*
G01*
X125379000Y-85273500D01*
G75*
G02*
X125586500Y-85066000I207500J0D01*
G01*
X126001500Y-85066000D01*
G75*
G02*
X126209000Y-85273500I0J-207500D01*
G01*
G37*
G36*
G01*
X127859000Y-85273500D02*
X127859000Y-85838500D01*
G75*
G02*
X127651500Y-86046000I-207500J0D01*
G01*
X127236500Y-86046000D01*
G75*
G02*
X127029000Y-85838500I0J207500D01*
G01*
X127029000Y-85273500D01*
G75*
G02*
X127236500Y-85066000I207500J0D01*
G01*
X127651500Y-85066000D01*
G75*
G02*
X127859000Y-85273500I0J-207500D01*
G01*
G37*
%TD*%
%TO.C,R5*%
G36*
G01*
X123091000Y-85838500D02*
X123091000Y-85273500D01*
G75*
G02*
X123298500Y-85066000I207500J0D01*
G01*
X123713500Y-85066000D01*
G75*
G02*
X123921000Y-85273500I0J-207500D01*
G01*
X123921000Y-85838500D01*
G75*
G02*
X123713500Y-86046000I-207500J0D01*
G01*
X123298500Y-86046000D01*
G75*
G02*
X123091000Y-85838500I0J207500D01*
G01*
G37*
G36*
G01*
X121441000Y-85838500D02*
X121441000Y-85273500D01*
G75*
G02*
X121648500Y-85066000I207500J0D01*
G01*
X122063500Y-85066000D01*
G75*
G02*
X122271000Y-85273500I0J-207500D01*
G01*
X122271000Y-85838500D01*
G75*
G02*
X122063500Y-86046000I-207500J0D01*
G01*
X121648500Y-86046000D01*
G75*
G02*
X121441000Y-85838500I0J207500D01*
G01*
G37*
%TD*%
%TO.C,R4*%
G36*
G01*
X121573500Y-83363000D02*
X122138500Y-83363000D01*
G75*
G02*
X122346000Y-83570500I0J-207500D01*
G01*
X122346000Y-83985500D01*
G75*
G02*
X122138500Y-84193000I-207500J0D01*
G01*
X121573500Y-84193000D01*
G75*
G02*
X121366000Y-83985500I0J207500D01*
G01*
X121366000Y-83570500D01*
G75*
G02*
X121573500Y-83363000I207500J0D01*
G01*
G37*
G36*
G01*
X121573500Y-81713000D02*
X122138500Y-81713000D01*
G75*
G02*
X122346000Y-81920500I0J-207500D01*
G01*
X122346000Y-82335500D01*
G75*
G02*
X122138500Y-82543000I-207500J0D01*
G01*
X121573500Y-82543000D01*
G75*
G02*
X121366000Y-82335500I0J207500D01*
G01*
X121366000Y-81920500D01*
G75*
G02*
X121573500Y-81713000I207500J0D01*
G01*
G37*
%TD*%
%TO.C,R3*%
G36*
G01*
X126193000Y-60473500D02*
X126193000Y-61038500D01*
G75*
G02*
X125985500Y-61246000I-207500J0D01*
G01*
X125570500Y-61246000D01*
G75*
G02*
X125363000Y-61038500I0J207500D01*
G01*
X125363000Y-60473500D01*
G75*
G02*
X125570500Y-60266000I207500J0D01*
G01*
X125985500Y-60266000D01*
G75*
G02*
X126193000Y-60473500I0J-207500D01*
G01*
G37*
G36*
G01*
X127843000Y-60473500D02*
X127843000Y-61038500D01*
G75*
G02*
X127635500Y-61246000I-207500J0D01*
G01*
X127220500Y-61246000D01*
G75*
G02*
X127013000Y-61038500I0J207500D01*
G01*
X127013000Y-60473500D01*
G75*
G02*
X127220500Y-60266000I207500J0D01*
G01*
X127635500Y-60266000D01*
G75*
G02*
X127843000Y-60473500I0J-207500D01*
G01*
G37*
%TD*%
%TO.C,R2*%
G36*
G01*
X123075000Y-61038500D02*
X123075000Y-60473500D01*
G75*
G02*
X123282500Y-60266000I207500J0D01*
G01*
X123697500Y-60266000D01*
G75*
G02*
X123905000Y-60473500I0J-207500D01*
G01*
X123905000Y-61038500D01*
G75*
G02*
X123697500Y-61246000I-207500J0D01*
G01*
X123282500Y-61246000D01*
G75*
G02*
X123075000Y-61038500I0J207500D01*
G01*
G37*
G36*
G01*
X121425000Y-61038500D02*
X121425000Y-60473500D01*
G75*
G02*
X121632500Y-60266000I207500J0D01*
G01*
X122047500Y-60266000D01*
G75*
G02*
X122255000Y-60473500I0J-207500D01*
G01*
X122255000Y-61038500D01*
G75*
G02*
X122047500Y-61246000I-207500J0D01*
G01*
X121632500Y-61246000D01*
G75*
G02*
X121425000Y-61038500I0J207500D01*
G01*
G37*
%TD*%
%TO.C,R1*%
G36*
G01*
X121557500Y-58563000D02*
X122122500Y-58563000D01*
G75*
G02*
X122330000Y-58770500I0J-207500D01*
G01*
X122330000Y-59185500D01*
G75*
G02*
X122122500Y-59393000I-207500J0D01*
G01*
X121557500Y-59393000D01*
G75*
G02*
X121350000Y-59185500I0J207500D01*
G01*
X121350000Y-58770500D01*
G75*
G02*
X121557500Y-58563000I207500J0D01*
G01*
G37*
G36*
G01*
X121557500Y-56913000D02*
X122122500Y-56913000D01*
G75*
G02*
X122330000Y-57120500I0J-207500D01*
G01*
X122330000Y-57535500D01*
G75*
G02*
X122122500Y-57743000I-207500J0D01*
G01*
X121557500Y-57743000D01*
G75*
G02*
X121350000Y-57535500I0J207500D01*
G01*
X121350000Y-57120500D01*
G75*
G02*
X121557500Y-56913000I207500J0D01*
G01*
G37*
%TD*%
%TO.C,Q5*%
G36*
G01*
X136000000Y-117335000D02*
X136800000Y-117335000D01*
G75*
G02*
X136815000Y-117350000I0J-15000D01*
G01*
X136815000Y-118250000D01*
G75*
G02*
X136800000Y-118265000I-15000J0D01*
G01*
X136000000Y-118265000D01*
G75*
G02*
X135985000Y-118250000I0J15000D01*
G01*
X135985000Y-117350000D01*
G75*
G02*
X136000000Y-117335000I15000J0D01*
G01*
G37*
G36*
G01*
X135050000Y-115335000D02*
X135850000Y-115335000D01*
G75*
G02*
X135865000Y-115350000I0J-15000D01*
G01*
X135865000Y-116250000D01*
G75*
G02*
X135850000Y-116265000I-15000J0D01*
G01*
X135050000Y-116265000D01*
G75*
G02*
X135035000Y-116250000I0J15000D01*
G01*
X135035000Y-115350000D01*
G75*
G02*
X135050000Y-115335000I15000J0D01*
G01*
G37*
G36*
G01*
X136950000Y-115335000D02*
X137750000Y-115335000D01*
G75*
G02*
X137765000Y-115350000I0J-15000D01*
G01*
X137765000Y-116250000D01*
G75*
G02*
X137750000Y-116265000I-15000J0D01*
G01*
X136950000Y-116265000D01*
G75*
G02*
X136935000Y-116250000I0J15000D01*
G01*
X136935000Y-115350000D01*
G75*
G02*
X136950000Y-115335000I15000J0D01*
G01*
G37*
%TD*%
%TO.C,Q4*%
G36*
G01*
X126963000Y-88750000D02*
X126963000Y-87950000D01*
G75*
G02*
X126978000Y-87935000I15000J0D01*
G01*
X127878000Y-87935000D01*
G75*
G02*
X127893000Y-87950000I0J-15000D01*
G01*
X127893000Y-88750000D01*
G75*
G02*
X127878000Y-88765000I-15000J0D01*
G01*
X126978000Y-88765000D01*
G75*
G02*
X126963000Y-88750000I0J15000D01*
G01*
G37*
G36*
G01*
X124963000Y-89700000D02*
X124963000Y-88900000D01*
G75*
G02*
X124978000Y-88885000I15000J0D01*
G01*
X125878000Y-88885000D01*
G75*
G02*
X125893000Y-88900000I0J-15000D01*
G01*
X125893000Y-89700000D01*
G75*
G02*
X125878000Y-89715000I-15000J0D01*
G01*
X124978000Y-89715000D01*
G75*
G02*
X124963000Y-89700000I0J15000D01*
G01*
G37*
G36*
G01*
X124963000Y-87800000D02*
X124963000Y-87000000D01*
G75*
G02*
X124978000Y-86985000I15000J0D01*
G01*
X125878000Y-86985000D01*
G75*
G02*
X125893000Y-87000000I0J-15000D01*
G01*
X125893000Y-87800000D01*
G75*
G02*
X125878000Y-87815000I-15000J0D01*
G01*
X124978000Y-87815000D01*
G75*
G02*
X124963000Y-87800000I0J15000D01*
G01*
G37*
%TD*%
%TO.C,Q3*%
G36*
G01*
X123391000Y-88750000D02*
X123391000Y-87950000D01*
G75*
G02*
X123406000Y-87935000I15000J0D01*
G01*
X124306000Y-87935000D01*
G75*
G02*
X124321000Y-87950000I0J-15000D01*
G01*
X124321000Y-88750000D01*
G75*
G02*
X124306000Y-88765000I-15000J0D01*
G01*
X123406000Y-88765000D01*
G75*
G02*
X123391000Y-88750000I0J15000D01*
G01*
G37*
G36*
G01*
X121391000Y-89700000D02*
X121391000Y-88900000D01*
G75*
G02*
X121406000Y-88885000I15000J0D01*
G01*
X122306000Y-88885000D01*
G75*
G02*
X122321000Y-88900000I0J-15000D01*
G01*
X122321000Y-89700000D01*
G75*
G02*
X122306000Y-89715000I-15000J0D01*
G01*
X121406000Y-89715000D01*
G75*
G02*
X121391000Y-89700000I0J15000D01*
G01*
G37*
G36*
G01*
X121391000Y-87800000D02*
X121391000Y-87000000D01*
G75*
G02*
X121406000Y-86985000I15000J0D01*
G01*
X122306000Y-86985000D01*
G75*
G02*
X122321000Y-87000000I0J-15000D01*
G01*
X122321000Y-87800000D01*
G75*
G02*
X122306000Y-87815000I-15000J0D01*
G01*
X121406000Y-87815000D01*
G75*
G02*
X121391000Y-87800000I0J15000D01*
G01*
G37*
%TD*%
%TO.C,Q2*%
G36*
G01*
X126963000Y-63950000D02*
X126963000Y-63150000D01*
G75*
G02*
X126978000Y-63135000I15000J0D01*
G01*
X127878000Y-63135000D01*
G75*
G02*
X127893000Y-63150000I0J-15000D01*
G01*
X127893000Y-63950000D01*
G75*
G02*
X127878000Y-63965000I-15000J0D01*
G01*
X126978000Y-63965000D01*
G75*
G02*
X126963000Y-63950000I0J15000D01*
G01*
G37*
G36*
G01*
X124963000Y-64900000D02*
X124963000Y-64100000D01*
G75*
G02*
X124978000Y-64085000I15000J0D01*
G01*
X125878000Y-64085000D01*
G75*
G02*
X125893000Y-64100000I0J-15000D01*
G01*
X125893000Y-64900000D01*
G75*
G02*
X125878000Y-64915000I-15000J0D01*
G01*
X124978000Y-64915000D01*
G75*
G02*
X124963000Y-64900000I0J15000D01*
G01*
G37*
G36*
G01*
X124963000Y-63000000D02*
X124963000Y-62200000D01*
G75*
G02*
X124978000Y-62185000I15000J0D01*
G01*
X125878000Y-62185000D01*
G75*
G02*
X125893000Y-62200000I0J-15000D01*
G01*
X125893000Y-63000000D01*
G75*
G02*
X125878000Y-63015000I-15000J0D01*
G01*
X124978000Y-63015000D01*
G75*
G02*
X124963000Y-63000000I0J15000D01*
G01*
G37*
%TD*%
%TO.C,Q1*%
G36*
G01*
X123375000Y-63950000D02*
X123375000Y-63150000D01*
G75*
G02*
X123390000Y-63135000I15000J0D01*
G01*
X124290000Y-63135000D01*
G75*
G02*
X124305000Y-63150000I0J-15000D01*
G01*
X124305000Y-63950000D01*
G75*
G02*
X124290000Y-63965000I-15000J0D01*
G01*
X123390000Y-63965000D01*
G75*
G02*
X123375000Y-63950000I0J15000D01*
G01*
G37*
G36*
G01*
X121375000Y-64900000D02*
X121375000Y-64100000D01*
G75*
G02*
X121390000Y-64085000I15000J0D01*
G01*
X122290000Y-64085000D01*
G75*
G02*
X122305000Y-64100000I0J-15000D01*
G01*
X122305000Y-64900000D01*
G75*
G02*
X122290000Y-64915000I-15000J0D01*
G01*
X121390000Y-64915000D01*
G75*
G02*
X121375000Y-64900000I0J15000D01*
G01*
G37*
G36*
G01*
X121375000Y-63000000D02*
X121375000Y-62200000D01*
G75*
G02*
X121390000Y-62185000I15000J0D01*
G01*
X122290000Y-62185000D01*
G75*
G02*
X122305000Y-62200000I0J-15000D01*
G01*
X122305000Y-63000000D01*
G75*
G02*
X122290000Y-63015000I-15000J0D01*
G01*
X121390000Y-63015000D01*
G75*
G02*
X121375000Y-63000000I0J15000D01*
G01*
G37*
%TD*%
%TO.C,L2*%
G36*
G01*
X125952000Y-119365000D02*
X122448000Y-119365000D01*
G75*
G02*
X122335000Y-119252000I0J113000D01*
G01*
X122335000Y-118348000D01*
G75*
G02*
X122448000Y-118235000I113000J0D01*
G01*
X125952000Y-118235000D01*
G75*
G02*
X126065000Y-118348000I0J-113000D01*
G01*
X126065000Y-119252000D01*
G75*
G02*
X125952000Y-119365000I-113000J0D01*
G01*
G37*
G36*
G01*
X125952000Y-122365000D02*
X122448000Y-122365000D01*
G75*
G02*
X122335000Y-122252000I0J113000D01*
G01*
X122335000Y-121348000D01*
G75*
G02*
X122448000Y-121235000I113000J0D01*
G01*
X125952000Y-121235000D01*
G75*
G02*
X126065000Y-121348000I0J-113000D01*
G01*
X126065000Y-122252000D01*
G75*
G02*
X125952000Y-122365000I-113000J0D01*
G01*
G37*
%TD*%
%TO.C,L1*%
G36*
G01*
X125952000Y-108365000D02*
X122448000Y-108365000D01*
G75*
G02*
X122335000Y-108252000I0J113000D01*
G01*
X122335000Y-107348000D01*
G75*
G02*
X122448000Y-107235000I113000J0D01*
G01*
X125952000Y-107235000D01*
G75*
G02*
X126065000Y-107348000I0J-113000D01*
G01*
X126065000Y-108252000D01*
G75*
G02*
X125952000Y-108365000I-113000J0D01*
G01*
G37*
G36*
G01*
X125952000Y-111365000D02*
X122448000Y-111365000D01*
G75*
G02*
X122335000Y-111252000I0J113000D01*
G01*
X122335000Y-110348000D01*
G75*
G02*
X122448000Y-110235000I113000J0D01*
G01*
X125952000Y-110235000D01*
G75*
G02*
X126065000Y-110348000I0J-113000D01*
G01*
X126065000Y-111252000D01*
G75*
G02*
X125952000Y-111365000I-113000J0D01*
G01*
G37*
%TD*%
D13*
%TO.C,JP4*%
X138160000Y-108700000D03*
G36*
G01*
X139849999Y-107835000D02*
X141550001Y-107835000D01*
G75*
G02*
X141565000Y-107849999I0J-14999D01*
G01*
X141565000Y-109550001D01*
G75*
G02*
X141550001Y-109565000I-14999J0D01*
G01*
X139849999Y-109565000D01*
G75*
G02*
X139835000Y-109550001I0J14999D01*
G01*
X139835000Y-107849999D01*
G75*
G02*
X139849999Y-107835000I14999J0D01*
G01*
G37*
%TD*%
%TO.C,JP3*%
X138160000Y-104800000D03*
G36*
G01*
X139849999Y-103935000D02*
X141550001Y-103935000D01*
G75*
G02*
X141565000Y-103949999I0J-14999D01*
G01*
X141565000Y-105650001D01*
G75*
G02*
X141550001Y-105665000I-14999J0D01*
G01*
X139849999Y-105665000D01*
G75*
G02*
X139835000Y-105650001I0J14999D01*
G01*
X139835000Y-103949999D01*
G75*
G02*
X139849999Y-103935000I14999J0D01*
G01*
G37*
%TD*%
%TO.C,JP2*%
X130200000Y-82762000D03*
X127660000Y-82762000D03*
G36*
G01*
X125970001Y-83627000D02*
X124269999Y-83627000D01*
G75*
G02*
X124255000Y-83612001I0J14999D01*
G01*
X124255000Y-81911999D01*
G75*
G02*
X124269999Y-81897000I14999J0D01*
G01*
X125970001Y-81897000D01*
G75*
G02*
X125985000Y-81911999I0J-14999D01*
G01*
X125985000Y-83612001D01*
G75*
G02*
X125970001Y-83627000I-14999J0D01*
G01*
G37*
%TD*%
%TO.C,JP1*%
X130222000Y-57962000D03*
X127682000Y-57962000D03*
G36*
G01*
X125992001Y-58827000D02*
X124291999Y-58827000D01*
G75*
G02*
X124277000Y-58812001I0J14999D01*
G01*
X124277000Y-57111999D01*
G75*
G02*
X124291999Y-57097000I14999J0D01*
G01*
X125992001Y-57097000D01*
G75*
G02*
X126007000Y-57111999I0J-14999D01*
G01*
X126007000Y-58812001D01*
G75*
G02*
X125992001Y-58827000I-14999J0D01*
G01*
G37*
%TD*%
D15*
%TO.C,J14*%
X140500000Y-120800000D03*
D16*
X136400000Y-122800000D03*
G36*
G01*
X139765000Y-122039411D02*
X139765000Y-123560589D01*
G75*
G02*
X139510589Y-123815000I-254411J0D01*
G01*
X138289411Y-123815000D01*
G75*
G02*
X138035000Y-123560589I0J254411D01*
G01*
X138035000Y-122039411D01*
G75*
G02*
X138289411Y-121785000I254411J0D01*
G01*
X139510589Y-121785000D01*
G75*
G02*
X139765000Y-122039411I0J-254411D01*
G01*
G37*
%TD*%
D17*
%TO.C,J7*%
X140440000Y-132460000D03*
X135360000Y-132460000D03*
X135360000Y-137540000D03*
X140440000Y-137540000D03*
D18*
X137900000Y-135000000D03*
%TD*%
D13*
%TO.C,J5*%
X130200000Y-53800000D03*
X127660000Y-53800000D03*
X125120000Y-53800000D03*
G36*
G01*
X123430001Y-54665000D02*
X121729999Y-54665000D01*
G75*
G02*
X121715000Y-54650001I0J14999D01*
G01*
X121715000Y-52949999D01*
G75*
G02*
X121729999Y-52935000I14999J0D01*
G01*
X123430001Y-52935000D01*
G75*
G02*
X123445000Y-52949999I0J-14999D01*
G01*
X123445000Y-54650001D01*
G75*
G02*
X123430001Y-54665000I-14999J0D01*
G01*
G37*
%TD*%
%TO.C,J4*%
X125158000Y-100288000D03*
X125158000Y-97748000D03*
X125158000Y-95208000D03*
G36*
G01*
X124293000Y-93518001D02*
X124293000Y-91817999D01*
G75*
G02*
X124307999Y-91803000I14999J0D01*
G01*
X126008001Y-91803000D01*
G75*
G02*
X126023000Y-91817999I0J-14999D01*
G01*
X126023000Y-93518001D01*
G75*
G02*
X126008001Y-93533000I-14999J0D01*
G01*
X124307999Y-93533000D01*
G75*
G02*
X124293000Y-93518001I0J14999D01*
G01*
G37*
%TD*%
%TO.C,J3*%
X130200000Y-102828000D03*
X130200000Y-100288000D03*
X130200000Y-97748000D03*
X130200000Y-95208000D03*
X130200000Y-92668000D03*
X130200000Y-90128000D03*
G36*
G01*
X129335000Y-88438001D02*
X129335000Y-86737999D01*
G75*
G02*
X129349999Y-86723000I14999J0D01*
G01*
X131050001Y-86723000D01*
G75*
G02*
X131065000Y-86737999I0J-14999D01*
G01*
X131065000Y-88438001D01*
G75*
G02*
X131050001Y-88453000I-14999J0D01*
G01*
X129349999Y-88453000D01*
G75*
G02*
X129335000Y-88438001I0J14999D01*
G01*
G37*
%TD*%
%TO.C,J2*%
X125142000Y-75488000D03*
X125142000Y-72948000D03*
X125142000Y-70408000D03*
G36*
G01*
X124277000Y-68718001D02*
X124277000Y-67017999D01*
G75*
G02*
X124291999Y-67003000I14999J0D01*
G01*
X125992001Y-67003000D01*
G75*
G02*
X126007000Y-67017999I0J-14999D01*
G01*
X126007000Y-68718001D01*
G75*
G02*
X125992001Y-68733000I-14999J0D01*
G01*
X124291999Y-68733000D01*
G75*
G02*
X124277000Y-68718001I0J14999D01*
G01*
G37*
%TD*%
%TO.C,J1*%
X130222000Y-78028000D03*
X130222000Y-75488000D03*
X130222000Y-72948000D03*
X130222000Y-70408000D03*
X130222000Y-67868000D03*
X130222000Y-65328000D03*
G36*
G01*
X129357000Y-63638001D02*
X129357000Y-61937999D01*
G75*
G02*
X129371999Y-61923000I14999J0D01*
G01*
X131072001Y-61923000D01*
G75*
G02*
X131087000Y-61937999I0J-14999D01*
G01*
X131087000Y-63638001D01*
G75*
G02*
X131072001Y-63653000I-14999J0D01*
G01*
X129371999Y-63653000D01*
G75*
G02*
X129357000Y-63638001I0J14999D01*
G01*
G37*
%TD*%
D19*
%TO.C,H4*%
X169000000Y-136000000D03*
%TD*%
%TO.C,H3*%
X124500000Y-136000000D03*
%TD*%
%TO.C,H2*%
X169000000Y-48000000D03*
%TD*%
%TO.C,H1*%
X124500000Y-48000000D03*
%TD*%
%TO.C,D1*%
G36*
G01*
X138235000Y-114150000D02*
X138235000Y-112450000D01*
G75*
G02*
X138250000Y-112435000I15000J0D01*
G01*
X139550000Y-112435000D01*
G75*
G02*
X139565000Y-112450000I0J-15000D01*
G01*
X139565000Y-114150000D01*
G75*
G02*
X139550000Y-114165000I-15000J0D01*
G01*
X138250000Y-114165000D01*
G75*
G02*
X138235000Y-114150000I0J15000D01*
G01*
G37*
G36*
G01*
X134735000Y-114150000D02*
X134735000Y-112450000D01*
G75*
G02*
X134750000Y-112435000I15000J0D01*
G01*
X136050000Y-112435000D01*
G75*
G02*
X136065000Y-112450000I0J-15000D01*
G01*
X136065000Y-114150000D01*
G75*
G02*
X136050000Y-114165000I-15000J0D01*
G01*
X134750000Y-114165000D01*
G75*
G02*
X134735000Y-114150000I0J15000D01*
G01*
G37*
%TD*%
%TO.C,C21*%
G36*
G01*
X163285000Y-88457500D02*
X163285000Y-87942500D01*
G75*
G02*
X163517500Y-87710000I232500J0D01*
G01*
X163982500Y-87710000D01*
G75*
G02*
X164215000Y-87942500I0J-232500D01*
G01*
X164215000Y-88457500D01*
G75*
G02*
X163982500Y-88690000I-232500J0D01*
G01*
X163517500Y-88690000D01*
G75*
G02*
X163285000Y-88457500I0J232500D01*
G01*
G37*
G36*
G01*
X161735000Y-88457500D02*
X161735000Y-87942500D01*
G75*
G02*
X161967500Y-87710000I232500J0D01*
G01*
X162432500Y-87710000D01*
G75*
G02*
X162665000Y-87942500I0J-232500D01*
G01*
X162665000Y-88457500D01*
G75*
G02*
X162432500Y-88690000I-232500J0D01*
G01*
X161967500Y-88690000D01*
G75*
G02*
X161735000Y-88457500I0J232500D01*
G01*
G37*
%TD*%
%TO.C,C20*%
G36*
G01*
X163285000Y-90157500D02*
X163285000Y-89642500D01*
G75*
G02*
X163517500Y-89410000I232500J0D01*
G01*
X163982500Y-89410000D01*
G75*
G02*
X164215000Y-89642500I0J-232500D01*
G01*
X164215000Y-90157500D01*
G75*
G02*
X163982500Y-90390000I-232500J0D01*
G01*
X163517500Y-90390000D01*
G75*
G02*
X163285000Y-90157500I0J232500D01*
G01*
G37*
G36*
G01*
X161735000Y-90157500D02*
X161735000Y-89642500D01*
G75*
G02*
X161967500Y-89410000I232500J0D01*
G01*
X162432500Y-89410000D01*
G75*
G02*
X162665000Y-89642500I0J-232500D01*
G01*
X162665000Y-90157500D01*
G75*
G02*
X162432500Y-90390000I-232500J0D01*
G01*
X161967500Y-90390000D01*
G75*
G02*
X161735000Y-90157500I0J232500D01*
G01*
G37*
%TD*%
%TO.C,C19*%
G36*
G01*
X147635000Y-85257500D02*
X147635000Y-84742500D01*
G75*
G02*
X147867500Y-84510000I232500J0D01*
G01*
X148332500Y-84510000D01*
G75*
G02*
X148565000Y-84742500I0J-232500D01*
G01*
X148565000Y-85257500D01*
G75*
G02*
X148332500Y-85490000I-232500J0D01*
G01*
X147867500Y-85490000D01*
G75*
G02*
X147635000Y-85257500I0J232500D01*
G01*
G37*
G36*
G01*
X146085000Y-85257500D02*
X146085000Y-84742500D01*
G75*
G02*
X146317500Y-84510000I232500J0D01*
G01*
X146782500Y-84510000D01*
G75*
G02*
X147015000Y-84742500I0J-232500D01*
G01*
X147015000Y-85257500D01*
G75*
G02*
X146782500Y-85490000I-232500J0D01*
G01*
X146317500Y-85490000D01*
G75*
G02*
X146085000Y-85257500I0J232500D01*
G01*
G37*
%TD*%
%TO.C,C12*%
G36*
G01*
X128482500Y-117365000D02*
X127517500Y-117365000D01*
G75*
G02*
X127260000Y-117107500I0J257500D01*
G01*
X127260000Y-116592500D01*
G75*
G02*
X127517500Y-116335000I257500J0D01*
G01*
X128482500Y-116335000D01*
G75*
G02*
X128740000Y-116592500I0J-257500D01*
G01*
X128740000Y-117107500D01*
G75*
G02*
X128482500Y-117365000I-257500J0D01*
G01*
G37*
G36*
G01*
X128482500Y-119265000D02*
X127517500Y-119265000D01*
G75*
G02*
X127260000Y-119007500I0J257500D01*
G01*
X127260000Y-118492500D01*
G75*
G02*
X127517500Y-118235000I257500J0D01*
G01*
X128482500Y-118235000D01*
G75*
G02*
X128740000Y-118492500I0J-257500D01*
G01*
X128740000Y-119007500D01*
G75*
G02*
X128482500Y-119265000I-257500J0D01*
G01*
G37*
%TD*%
%TO.C,C11*%
G36*
G01*
X128482500Y-106365000D02*
X127517500Y-106365000D01*
G75*
G02*
X127260000Y-106107500I0J257500D01*
G01*
X127260000Y-105592500D01*
G75*
G02*
X127517500Y-105335000I257500J0D01*
G01*
X128482500Y-105335000D01*
G75*
G02*
X128740000Y-105592500I0J-257500D01*
G01*
X128740000Y-106107500D01*
G75*
G02*
X128482500Y-106365000I-257500J0D01*
G01*
G37*
G36*
G01*
X128482500Y-108265000D02*
X127517500Y-108265000D01*
G75*
G02*
X127260000Y-108007500I0J257500D01*
G01*
X127260000Y-107492500D01*
G75*
G02*
X127517500Y-107235000I257500J0D01*
G01*
X128482500Y-107235000D01*
G75*
G02*
X128740000Y-107492500I0J-257500D01*
G01*
X128740000Y-108007500D01*
G75*
G02*
X128482500Y-108265000I-257500J0D01*
G01*
G37*
%TD*%
%TO.C,C10*%
G36*
G01*
X131685000Y-125257500D02*
X131685000Y-124742500D01*
G75*
G02*
X131917500Y-124510000I232500J0D01*
G01*
X132382500Y-124510000D01*
G75*
G02*
X132615000Y-124742500I0J-232500D01*
G01*
X132615000Y-125257500D01*
G75*
G02*
X132382500Y-125490000I-232500J0D01*
G01*
X131917500Y-125490000D01*
G75*
G02*
X131685000Y-125257500I0J232500D01*
G01*
G37*
G36*
G01*
X130135000Y-125257500D02*
X130135000Y-124742500D01*
G75*
G02*
X130367500Y-124510000I232500J0D01*
G01*
X130832500Y-124510000D01*
G75*
G02*
X131065000Y-124742500I0J-232500D01*
G01*
X131065000Y-125257500D01*
G75*
G02*
X130832500Y-125490000I-232500J0D01*
G01*
X130367500Y-125490000D01*
G75*
G02*
X130135000Y-125257500I0J232500D01*
G01*
G37*
%TD*%
%TO.C,C9*%
G36*
G01*
X131685000Y-114257500D02*
X131685000Y-113742500D01*
G75*
G02*
X131917500Y-113510000I232500J0D01*
G01*
X132382500Y-113510000D01*
G75*
G02*
X132615000Y-113742500I0J-232500D01*
G01*
X132615000Y-114257500D01*
G75*
G02*
X132382500Y-114490000I-232500J0D01*
G01*
X131917500Y-114490000D01*
G75*
G02*
X131685000Y-114257500I0J232500D01*
G01*
G37*
G36*
G01*
X130135000Y-114257500D02*
X130135000Y-113742500D01*
G75*
G02*
X130367500Y-113510000I232500J0D01*
G01*
X130832500Y-113510000D01*
G75*
G02*
X131065000Y-113742500I0J-232500D01*
G01*
X131065000Y-114257500D01*
G75*
G02*
X130832500Y-114490000I-232500J0D01*
G01*
X130367500Y-114490000D01*
G75*
G02*
X130135000Y-114257500I0J232500D01*
G01*
G37*
%TD*%
%TO.C,C8*%
G36*
G01*
X132357500Y-117490000D02*
X131842500Y-117490000D01*
G75*
G02*
X131610000Y-117257500I0J232500D01*
G01*
X131610000Y-116792500D01*
G75*
G02*
X131842500Y-116560000I232500J0D01*
G01*
X132357500Y-116560000D01*
G75*
G02*
X132590000Y-116792500I0J-232500D01*
G01*
X132590000Y-117257500D01*
G75*
G02*
X132357500Y-117490000I-232500J0D01*
G01*
G37*
G36*
G01*
X132357500Y-119040000D02*
X131842500Y-119040000D01*
G75*
G02*
X131610000Y-118807500I0J232500D01*
G01*
X131610000Y-118342500D01*
G75*
G02*
X131842500Y-118110000I232500J0D01*
G01*
X132357500Y-118110000D01*
G75*
G02*
X132590000Y-118342500I0J-232500D01*
G01*
X132590000Y-118807500D01*
G75*
G02*
X132357500Y-119040000I-232500J0D01*
G01*
G37*
%TD*%
%TO.C,C7*%
G36*
G01*
X132357500Y-106490000D02*
X131842500Y-106490000D01*
G75*
G02*
X131610000Y-106257500I0J232500D01*
G01*
X131610000Y-105792500D01*
G75*
G02*
X131842500Y-105560000I232500J0D01*
G01*
X132357500Y-105560000D01*
G75*
G02*
X132590000Y-105792500I0J-232500D01*
G01*
X132590000Y-106257500D01*
G75*
G02*
X132357500Y-106490000I-232500J0D01*
G01*
G37*
G36*
G01*
X132357500Y-108040000D02*
X131842500Y-108040000D01*
G75*
G02*
X131610000Y-107807500I0J232500D01*
G01*
X131610000Y-107342500D01*
G75*
G02*
X131842500Y-107110000I232500J0D01*
G01*
X132357500Y-107110000D01*
G75*
G02*
X132590000Y-107342500I0J-232500D01*
G01*
X132590000Y-107807500D01*
G75*
G02*
X132357500Y-108040000I-232500J0D01*
G01*
G37*
%TD*%
%TO.C,C6*%
G36*
G01*
X130682500Y-117365000D02*
X129717500Y-117365000D01*
G75*
G02*
X129460000Y-117107500I0J257500D01*
G01*
X129460000Y-116592500D01*
G75*
G02*
X129717500Y-116335000I257500J0D01*
G01*
X130682500Y-116335000D01*
G75*
G02*
X130940000Y-116592500I0J-257500D01*
G01*
X130940000Y-117107500D01*
G75*
G02*
X130682500Y-117365000I-257500J0D01*
G01*
G37*
G36*
G01*
X130682500Y-119265000D02*
X129717500Y-119265000D01*
G75*
G02*
X129460000Y-119007500I0J257500D01*
G01*
X129460000Y-118492500D01*
G75*
G02*
X129717500Y-118235000I257500J0D01*
G01*
X130682500Y-118235000D01*
G75*
G02*
X130940000Y-118492500I0J-257500D01*
G01*
X130940000Y-119007500D01*
G75*
G02*
X130682500Y-119265000I-257500J0D01*
G01*
G37*
%TD*%
%TO.C,C5*%
G36*
G01*
X130682500Y-106365000D02*
X129717500Y-106365000D01*
G75*
G02*
X129460000Y-106107500I0J257500D01*
G01*
X129460000Y-105592500D01*
G75*
G02*
X129717500Y-105335000I257500J0D01*
G01*
X130682500Y-105335000D01*
G75*
G02*
X130940000Y-105592500I0J-257500D01*
G01*
X130940000Y-106107500D01*
G75*
G02*
X130682500Y-106365000I-257500J0D01*
G01*
G37*
G36*
G01*
X130682500Y-108265000D02*
X129717500Y-108265000D01*
G75*
G02*
X129460000Y-108007500I0J257500D01*
G01*
X129460000Y-107492500D01*
G75*
G02*
X129717500Y-107235000I257500J0D01*
G01*
X130682500Y-107235000D01*
G75*
G02*
X130940000Y-107492500I0J-257500D01*
G01*
X130940000Y-108007500D01*
G75*
G02*
X130682500Y-108265000I-257500J0D01*
G01*
G37*
%TD*%
%TO.C,C4*%
G36*
G01*
X161709500Y-63457000D02*
X161194500Y-63457000D01*
G75*
G02*
X160962000Y-63224500I0J232500D01*
G01*
X160962000Y-62759500D01*
G75*
G02*
X161194500Y-62527000I232500J0D01*
G01*
X161709500Y-62527000D01*
G75*
G02*
X161942000Y-62759500I0J-232500D01*
G01*
X161942000Y-63224500D01*
G75*
G02*
X161709500Y-63457000I-232500J0D01*
G01*
G37*
G36*
G01*
X161709500Y-65007000D02*
X161194500Y-65007000D01*
G75*
G02*
X160962000Y-64774500I0J232500D01*
G01*
X160962000Y-64309500D01*
G75*
G02*
X161194500Y-64077000I232500J0D01*
G01*
X161709500Y-64077000D01*
G75*
G02*
X161942000Y-64309500I0J-232500D01*
G01*
X161942000Y-64774500D01*
G75*
G02*
X161709500Y-65007000I-232500J0D01*
G01*
G37*
%TD*%
%TO.C,C3*%
G36*
G01*
X149315000Y-73428500D02*
X149315000Y-73943500D01*
G75*
G02*
X149082500Y-74176000I-232500J0D01*
G01*
X148617500Y-74176000D01*
G75*
G02*
X148385000Y-73943500I0J232500D01*
G01*
X148385000Y-73428500D01*
G75*
G02*
X148617500Y-73196000I232500J0D01*
G01*
X149082500Y-73196000D01*
G75*
G02*
X149315000Y-73428500I0J-232500D01*
G01*
G37*
G36*
G01*
X150865000Y-73428500D02*
X150865000Y-73943500D01*
G75*
G02*
X150632500Y-74176000I-232500J0D01*
G01*
X150167500Y-74176000D01*
G75*
G02*
X149935000Y-73943500I0J232500D01*
G01*
X149935000Y-73428500D01*
G75*
G02*
X150167500Y-73196000I232500J0D01*
G01*
X150632500Y-73196000D01*
G75*
G02*
X150865000Y-73428500I0J-232500D01*
G01*
G37*
%TD*%
%TO.C,C2*%
G36*
G01*
X154785000Y-136557500D02*
X154785000Y-136042500D01*
G75*
G02*
X155017500Y-135810000I232500J0D01*
G01*
X155482500Y-135810000D01*
G75*
G02*
X155715000Y-136042500I0J-232500D01*
G01*
X155715000Y-136557500D01*
G75*
G02*
X155482500Y-136790000I-232500J0D01*
G01*
X155017500Y-136790000D01*
G75*
G02*
X154785000Y-136557500I0J232500D01*
G01*
G37*
G36*
G01*
X153235000Y-136557500D02*
X153235000Y-136042500D01*
G75*
G02*
X153467500Y-135810000I232500J0D01*
G01*
X153932500Y-135810000D01*
G75*
G02*
X154165000Y-136042500I0J-232500D01*
G01*
X154165000Y-136557500D01*
G75*
G02*
X153932500Y-136790000I-232500J0D01*
G01*
X153467500Y-136790000D01*
G75*
G02*
X153235000Y-136557500I0J232500D01*
G01*
G37*
%TD*%
%TO.C,C1*%
G36*
G01*
X150915000Y-136042500D02*
X150915000Y-136557500D01*
G75*
G02*
X150682500Y-136790000I-232500J0D01*
G01*
X150217500Y-136790000D01*
G75*
G02*
X149985000Y-136557500I0J232500D01*
G01*
X149985000Y-136042500D01*
G75*
G02*
X150217500Y-135810000I232500J0D01*
G01*
X150682500Y-135810000D01*
G75*
G02*
X150915000Y-136042500I0J-232500D01*
G01*
G37*
G36*
G01*
X152465000Y-136042500D02*
X152465000Y-136557500D01*
G75*
G02*
X152232500Y-136790000I-232500J0D01*
G01*
X151767500Y-136790000D01*
G75*
G02*
X151535000Y-136557500I0J232500D01*
G01*
X151535000Y-136042500D01*
G75*
G02*
X151767500Y-135810000I232500J0D01*
G01*
X152232500Y-135810000D01*
G75*
G02*
X152465000Y-136042500I0J-232500D01*
G01*
G37*
%TD*%
D20*
G36*
X129557979Y-122734000D02*
G01*
X129557979Y-122736000D01*
X129556443Y-122736990D01*
X129537133Y-122738891D01*
X129518748Y-122744469D01*
X129501807Y-122753524D01*
X129486958Y-122765710D01*
X129474772Y-122780559D01*
X129465717Y-122797500D01*
X129460139Y-122815885D01*
X129458257Y-122834999D01*
X129460139Y-122854113D01*
X129465717Y-122872498D01*
X129474772Y-122889439D01*
X129486958Y-122904288D01*
X129494743Y-122910676D01*
X129495017Y-122911405D01*
X129505069Y-122919654D01*
X129505346Y-122919931D01*
X129507776Y-122922893D01*
X129507994Y-122923219D01*
X129509793Y-122926584D01*
X129509943Y-122926946D01*
X129511056Y-122930613D01*
X129511132Y-122930998D01*
X129511990Y-122939714D01*
X129512000Y-122939910D01*
X129512000Y-122985000D01*
X129511000Y-122986732D01*
X129509000Y-122986732D01*
X129508010Y-122985196D01*
X129506684Y-122971738D01*
X129502816Y-122958982D01*
X129496532Y-122947226D01*
X129488076Y-122936924D01*
X129477774Y-122928468D01*
X129466018Y-122922184D01*
X129453262Y-122918316D01*
X129439906Y-122917000D01*
X129300094Y-122917000D01*
X129286738Y-122918316D01*
X129273982Y-122922184D01*
X129262226Y-122928468D01*
X129251924Y-122936924D01*
X129243468Y-122947226D01*
X129237184Y-122958982D01*
X129233316Y-122971738D01*
X129231990Y-122985196D01*
X129230825Y-122986822D01*
X129228835Y-122986626D01*
X129228000Y-122985000D01*
X129228000Y-122939910D01*
X129228010Y-122939714D01*
X129228868Y-122930998D01*
X129228944Y-122930613D01*
X129230057Y-122926946D01*
X129230207Y-122926584D01*
X129232006Y-122923219D01*
X129232224Y-122922893D01*
X129234654Y-122919931D01*
X129234931Y-122919654D01*
X129245129Y-122911285D01*
X129245287Y-122911168D01*
X129245914Y-122910749D01*
X129259496Y-122897168D01*
X129270169Y-122881196D01*
X129277521Y-122863450D01*
X129281270Y-122844607D01*
X129281271Y-122825402D01*
X129277524Y-122806558D01*
X129270174Y-122788812D01*
X129259503Y-122772838D01*
X129245922Y-122759256D01*
X129229950Y-122748583D01*
X129212204Y-122741231D01*
X129193315Y-122737473D01*
X129183655Y-122736998D01*
X129181974Y-122735914D01*
X129182072Y-122733916D01*
X129183753Y-122733000D01*
X129556247Y-122733000D01*
X129557979Y-122734000D01*
G37*
G36*
X129057979Y-122734000D02*
G01*
X129057979Y-122736000D01*
X129056443Y-122736990D01*
X129037133Y-122738891D01*
X129018748Y-122744469D01*
X129001807Y-122753524D01*
X128986958Y-122765710D01*
X128974772Y-122780559D01*
X128965717Y-122797500D01*
X128960139Y-122815885D01*
X128958257Y-122834999D01*
X128960139Y-122854113D01*
X128965717Y-122872498D01*
X128974772Y-122889439D01*
X128986958Y-122904288D01*
X128994743Y-122910676D01*
X128995017Y-122911405D01*
X129005069Y-122919654D01*
X129005346Y-122919931D01*
X129007776Y-122922893D01*
X129007994Y-122923219D01*
X129009793Y-122926584D01*
X129009943Y-122926946D01*
X129011056Y-122930613D01*
X129011132Y-122930998D01*
X129011990Y-122939714D01*
X129012000Y-122939910D01*
X129012000Y-122985000D01*
X129011000Y-122986732D01*
X129009000Y-122986732D01*
X129008010Y-122985196D01*
X129006684Y-122971738D01*
X129002816Y-122958982D01*
X128996532Y-122947226D01*
X128988076Y-122936924D01*
X128977774Y-122928468D01*
X128966018Y-122922184D01*
X128953262Y-122918316D01*
X128939906Y-122917000D01*
X128800094Y-122917000D01*
X128786738Y-122918316D01*
X128773982Y-122922184D01*
X128762226Y-122928468D01*
X128751924Y-122936924D01*
X128743468Y-122947226D01*
X128737184Y-122958982D01*
X128733316Y-122971738D01*
X128731990Y-122985196D01*
X128730825Y-122986822D01*
X128728835Y-122986626D01*
X128728000Y-122985000D01*
X128728000Y-122939910D01*
X128728010Y-122939714D01*
X128728868Y-122930998D01*
X128728944Y-122930613D01*
X128730057Y-122926946D01*
X128730207Y-122926584D01*
X128732006Y-122923219D01*
X128732224Y-122922893D01*
X128734654Y-122919931D01*
X128734931Y-122919654D01*
X128745129Y-122911285D01*
X128745287Y-122911168D01*
X128745914Y-122910749D01*
X128759496Y-122897168D01*
X128770169Y-122881196D01*
X128777521Y-122863450D01*
X128781270Y-122844607D01*
X128781271Y-122825402D01*
X128777524Y-122806558D01*
X128770174Y-122788812D01*
X128759503Y-122772838D01*
X128745922Y-122759256D01*
X128729950Y-122748583D01*
X128712204Y-122741231D01*
X128693315Y-122737473D01*
X128683655Y-122736998D01*
X128681974Y-122735914D01*
X128682072Y-122733916D01*
X128683753Y-122733000D01*
X129056247Y-122733000D01*
X129057979Y-122734000D01*
G37*
G36*
X129976990Y-122443557D02*
G01*
X129978891Y-122462867D01*
X129984469Y-122481252D01*
X129993524Y-122498193D01*
X130005710Y-122513042D01*
X130020559Y-122525228D01*
X130037500Y-122534283D01*
X130055885Y-122539861D01*
X130074999Y-122541743D01*
X130094113Y-122539861D01*
X130112498Y-122534283D01*
X130129439Y-122525228D01*
X130144288Y-122513042D01*
X130150676Y-122505257D01*
X130151405Y-122504983D01*
X130159654Y-122494931D01*
X130159931Y-122494654D01*
X130162893Y-122492224D01*
X130163219Y-122492006D01*
X130166584Y-122490207D01*
X130166946Y-122490057D01*
X130170613Y-122488944D01*
X130170998Y-122488868D01*
X130179714Y-122488010D01*
X130179910Y-122488000D01*
X130225000Y-122488000D01*
X130226732Y-122489000D01*
X130226732Y-122491000D01*
X130225196Y-122491990D01*
X130211738Y-122493316D01*
X130198982Y-122497184D01*
X130187226Y-122503468D01*
X130176924Y-122511924D01*
X130168468Y-122522226D01*
X130162184Y-122533982D01*
X130158316Y-122546738D01*
X130157000Y-122560094D01*
X130157000Y-122699906D01*
X130158316Y-122713262D01*
X130162184Y-122726018D01*
X130168468Y-122737774D01*
X130176924Y-122748076D01*
X130187226Y-122756532D01*
X130198982Y-122762816D01*
X130211738Y-122766684D01*
X130225196Y-122768010D01*
X130226822Y-122769175D01*
X130226626Y-122771165D01*
X130225000Y-122772000D01*
X130179910Y-122772000D01*
X130179714Y-122771990D01*
X130170998Y-122771132D01*
X130170613Y-122771056D01*
X130166946Y-122769943D01*
X130166584Y-122769793D01*
X130163219Y-122767994D01*
X130162893Y-122767776D01*
X130159931Y-122765346D01*
X130159654Y-122765069D01*
X130151285Y-122754871D01*
X130151168Y-122754713D01*
X130150749Y-122754086D01*
X130137168Y-122740504D01*
X130121196Y-122729831D01*
X130103450Y-122722479D01*
X130084607Y-122718730D01*
X130065402Y-122718729D01*
X130046558Y-122722476D01*
X130028812Y-122729826D01*
X130012838Y-122740497D01*
X129999256Y-122754078D01*
X129997143Y-122757241D01*
X129996749Y-122757676D01*
X129986958Y-122765710D01*
X129974772Y-122780559D01*
X129965717Y-122797500D01*
X129960139Y-122815885D01*
X129958257Y-122834999D01*
X129960139Y-122854113D01*
X129965717Y-122872498D01*
X129974772Y-122889439D01*
X129986958Y-122904288D01*
X129994743Y-122910676D01*
X129995017Y-122911405D01*
X130005069Y-122919654D01*
X130005346Y-122919931D01*
X130007776Y-122922893D01*
X130007994Y-122923219D01*
X130009793Y-122926584D01*
X130009943Y-122926946D01*
X130011056Y-122930613D01*
X130011132Y-122930998D01*
X130011990Y-122939714D01*
X130012000Y-122939910D01*
X130012000Y-122985000D01*
X130011000Y-122986732D01*
X130009000Y-122986732D01*
X130008010Y-122985196D01*
X130006684Y-122971738D01*
X130002816Y-122958982D01*
X129996532Y-122947226D01*
X129988076Y-122936924D01*
X129977774Y-122928468D01*
X129966018Y-122922184D01*
X129953262Y-122918316D01*
X129939906Y-122917000D01*
X129800094Y-122917000D01*
X129786738Y-122918316D01*
X129773982Y-122922184D01*
X129762226Y-122928468D01*
X129751924Y-122936924D01*
X129743468Y-122947226D01*
X129737184Y-122958982D01*
X129733316Y-122971738D01*
X129731990Y-122985196D01*
X129730825Y-122986822D01*
X129728835Y-122986626D01*
X129728000Y-122985000D01*
X129728000Y-122939910D01*
X129728010Y-122939714D01*
X129728868Y-122930998D01*
X129728944Y-122930613D01*
X129730057Y-122926946D01*
X129730207Y-122926584D01*
X129732006Y-122923219D01*
X129732224Y-122922893D01*
X129734654Y-122919931D01*
X129734931Y-122919654D01*
X129745129Y-122911285D01*
X129745287Y-122911168D01*
X129745914Y-122910749D01*
X129759496Y-122897168D01*
X129770169Y-122881196D01*
X129777521Y-122863450D01*
X129781270Y-122844607D01*
X129781271Y-122825402D01*
X129777524Y-122806558D01*
X129770174Y-122788812D01*
X129759503Y-122772838D01*
X129745922Y-122759256D01*
X129729950Y-122748583D01*
X129712204Y-122741231D01*
X129693315Y-122737473D01*
X129683655Y-122736998D01*
X129681974Y-122735914D01*
X129682072Y-122733916D01*
X129683753Y-122733000D01*
X129973000Y-122733000D01*
X129973000Y-122443753D01*
X129974000Y-122442021D01*
X129976000Y-122442021D01*
X129976990Y-122443557D01*
G37*
G36*
X128266084Y-122442072D02*
G01*
X128267000Y-122443753D01*
X128267000Y-122733000D01*
X128556247Y-122733000D01*
X128557979Y-122734000D01*
X128557979Y-122736000D01*
X128556443Y-122736990D01*
X128537133Y-122738891D01*
X128518748Y-122744469D01*
X128501807Y-122753524D01*
X128486958Y-122765710D01*
X128474772Y-122780559D01*
X128465717Y-122797500D01*
X128460139Y-122815885D01*
X128458257Y-122834999D01*
X128460139Y-122854113D01*
X128465717Y-122872498D01*
X128474772Y-122889439D01*
X128486958Y-122904288D01*
X128494743Y-122910676D01*
X128495017Y-122911405D01*
X128505069Y-122919654D01*
X128505346Y-122919931D01*
X128507776Y-122922893D01*
X128507994Y-122923219D01*
X128509793Y-122926584D01*
X128509943Y-122926946D01*
X128511056Y-122930613D01*
X128511132Y-122930998D01*
X128511990Y-122939714D01*
X128512000Y-122939910D01*
X128512000Y-122985000D01*
X128511000Y-122986732D01*
X128509000Y-122986732D01*
X128508010Y-122985196D01*
X128506684Y-122971738D01*
X128502816Y-122958982D01*
X128496532Y-122947226D01*
X128488076Y-122936924D01*
X128477774Y-122928468D01*
X128466018Y-122922184D01*
X128453262Y-122918316D01*
X128439906Y-122917000D01*
X128300094Y-122917000D01*
X128286738Y-122918316D01*
X128273982Y-122922184D01*
X128262226Y-122928468D01*
X128251924Y-122936924D01*
X128243468Y-122947226D01*
X128237184Y-122958982D01*
X128233316Y-122971738D01*
X128231990Y-122985196D01*
X128230825Y-122986822D01*
X128228835Y-122986626D01*
X128228000Y-122985000D01*
X128228000Y-122939910D01*
X128228010Y-122939714D01*
X128228868Y-122930998D01*
X128228944Y-122930613D01*
X128230057Y-122926946D01*
X128230207Y-122926584D01*
X128232006Y-122923219D01*
X128232224Y-122922893D01*
X128234654Y-122919931D01*
X128234931Y-122919654D01*
X128245129Y-122911285D01*
X128245287Y-122911168D01*
X128245914Y-122910749D01*
X128259496Y-122897168D01*
X128270169Y-122881196D01*
X128277521Y-122863450D01*
X128281270Y-122844607D01*
X128281271Y-122825402D01*
X128277524Y-122806558D01*
X128270174Y-122788812D01*
X128259503Y-122772838D01*
X128245922Y-122759256D01*
X128242759Y-122757143D01*
X128242324Y-122756749D01*
X128234290Y-122746958D01*
X128219441Y-122734772D01*
X128202500Y-122725717D01*
X128184115Y-122720139D01*
X128165001Y-122718257D01*
X128145887Y-122720139D01*
X128127502Y-122725717D01*
X128110561Y-122734772D01*
X128095712Y-122746958D01*
X128089324Y-122754743D01*
X128088595Y-122755017D01*
X128080346Y-122765069D01*
X128080069Y-122765346D01*
X128077107Y-122767776D01*
X128076781Y-122767994D01*
X128073416Y-122769793D01*
X128073054Y-122769943D01*
X128069387Y-122771056D01*
X128069002Y-122771132D01*
X128060286Y-122771990D01*
X128060090Y-122772000D01*
X128015000Y-122772000D01*
X128013268Y-122771000D01*
X128013268Y-122769000D01*
X128014804Y-122768010D01*
X128028262Y-122766684D01*
X128041018Y-122762816D01*
X128052774Y-122756532D01*
X128063076Y-122748076D01*
X128071532Y-122737774D01*
X128077816Y-122726018D01*
X128081684Y-122713262D01*
X128083000Y-122699906D01*
X128083000Y-122560094D01*
X128081684Y-122546738D01*
X128077816Y-122533982D01*
X128071532Y-122522226D01*
X128063076Y-122511924D01*
X128052774Y-122503468D01*
X128041018Y-122497184D01*
X128028262Y-122493316D01*
X128014804Y-122491990D01*
X128013178Y-122490825D01*
X128013374Y-122488835D01*
X128015000Y-122488000D01*
X128060090Y-122488000D01*
X128060286Y-122488010D01*
X128069002Y-122488868D01*
X128069387Y-122488944D01*
X128073054Y-122490057D01*
X128073416Y-122490207D01*
X128076781Y-122492006D01*
X128077107Y-122492224D01*
X128080069Y-122494654D01*
X128080346Y-122494931D01*
X128088715Y-122505129D01*
X128088832Y-122505287D01*
X128089251Y-122505914D01*
X128102832Y-122519496D01*
X128118804Y-122530169D01*
X128136550Y-122537521D01*
X128155393Y-122541270D01*
X128174598Y-122541271D01*
X128193442Y-122537524D01*
X128211188Y-122530174D01*
X128227162Y-122519503D01*
X128240744Y-122505922D01*
X128251417Y-122489950D01*
X128258769Y-122472204D01*
X128262527Y-122453315D01*
X128263002Y-122443655D01*
X128264086Y-122441974D01*
X128266084Y-122442072D01*
G37*
G36*
X129976990Y-121943557D02*
G01*
X129978891Y-121962867D01*
X129984469Y-121981252D01*
X129993524Y-121998193D01*
X130005710Y-122013042D01*
X130020559Y-122025228D01*
X130037500Y-122034283D01*
X130055885Y-122039861D01*
X130074999Y-122041743D01*
X130094113Y-122039861D01*
X130112498Y-122034283D01*
X130129439Y-122025228D01*
X130144288Y-122013042D01*
X130150676Y-122005257D01*
X130151405Y-122004983D01*
X130159654Y-121994931D01*
X130159931Y-121994654D01*
X130162893Y-121992224D01*
X130163219Y-121992006D01*
X130166584Y-121990207D01*
X130166946Y-121990057D01*
X130170613Y-121988944D01*
X130170998Y-121988868D01*
X130179714Y-121988010D01*
X130179910Y-121988000D01*
X130225000Y-121988000D01*
X130226732Y-121989000D01*
X130226732Y-121991000D01*
X130225196Y-121991990D01*
X130211738Y-121993316D01*
X130198982Y-121997184D01*
X130187226Y-122003468D01*
X130176924Y-122011924D01*
X130168468Y-122022226D01*
X130162184Y-122033982D01*
X130158316Y-122046738D01*
X130157000Y-122060094D01*
X130157000Y-122199906D01*
X130158316Y-122213262D01*
X130162184Y-122226018D01*
X130168468Y-122237774D01*
X130176924Y-122248076D01*
X130187226Y-122256532D01*
X130198982Y-122262816D01*
X130211738Y-122266684D01*
X130225196Y-122268010D01*
X130226822Y-122269175D01*
X130226626Y-122271165D01*
X130225000Y-122272000D01*
X130179910Y-122272000D01*
X130179714Y-122271990D01*
X130170998Y-122271132D01*
X130170613Y-122271056D01*
X130166946Y-122269943D01*
X130166584Y-122269793D01*
X130163219Y-122267994D01*
X130162893Y-122267776D01*
X130159931Y-122265346D01*
X130159654Y-122265069D01*
X130151285Y-122254871D01*
X130151168Y-122254713D01*
X130150749Y-122254086D01*
X130137168Y-122240504D01*
X130121196Y-122229831D01*
X130103450Y-122222479D01*
X130084607Y-122218730D01*
X130065402Y-122218729D01*
X130046558Y-122222476D01*
X130028812Y-122229826D01*
X130012838Y-122240497D01*
X129999256Y-122254078D01*
X129988583Y-122270050D01*
X129981231Y-122287796D01*
X129977473Y-122306685D01*
X129976998Y-122316345D01*
X129975914Y-122318026D01*
X129973916Y-122317928D01*
X129973000Y-122316247D01*
X129973000Y-121943753D01*
X129974000Y-121942021D01*
X129976000Y-121942021D01*
X129976990Y-121943557D01*
G37*
G36*
X128266084Y-121942072D02*
G01*
X128267000Y-121943753D01*
X128267000Y-122316247D01*
X128266000Y-122317979D01*
X128264000Y-122317979D01*
X128263010Y-122316443D01*
X128261109Y-122297133D01*
X128255531Y-122278748D01*
X128246476Y-122261807D01*
X128234290Y-122246958D01*
X128219441Y-122234772D01*
X128202500Y-122225717D01*
X128184115Y-122220139D01*
X128165001Y-122218257D01*
X128145887Y-122220139D01*
X128127502Y-122225717D01*
X128110561Y-122234772D01*
X128095712Y-122246958D01*
X128089324Y-122254743D01*
X128088595Y-122255017D01*
X128080346Y-122265069D01*
X128080069Y-122265346D01*
X128077107Y-122267776D01*
X128076781Y-122267994D01*
X128073416Y-122269793D01*
X128073054Y-122269943D01*
X128069387Y-122271056D01*
X128069002Y-122271132D01*
X128060286Y-122271990D01*
X128060090Y-122272000D01*
X128015000Y-122272000D01*
X128013268Y-122271000D01*
X128013268Y-122269000D01*
X128014804Y-122268010D01*
X128028262Y-122266684D01*
X128041018Y-122262816D01*
X128052774Y-122256532D01*
X128063076Y-122248076D01*
X128071532Y-122237774D01*
X128077816Y-122226018D01*
X128081684Y-122213262D01*
X128083000Y-122199906D01*
X128083000Y-122060094D01*
X128081684Y-122046738D01*
X128077816Y-122033982D01*
X128071532Y-122022226D01*
X128063076Y-122011924D01*
X128052774Y-122003468D01*
X128041018Y-121997184D01*
X128028262Y-121993316D01*
X128014804Y-121991990D01*
X128013178Y-121990825D01*
X128013374Y-121988835D01*
X128015000Y-121988000D01*
X128060090Y-121988000D01*
X128060286Y-121988010D01*
X128069002Y-121988868D01*
X128069387Y-121988944D01*
X128073054Y-121990057D01*
X128073416Y-121990207D01*
X128076781Y-121992006D01*
X128077107Y-121992224D01*
X128080069Y-121994654D01*
X128080346Y-121994931D01*
X128088715Y-122005129D01*
X128088832Y-122005287D01*
X128089251Y-122005914D01*
X128102832Y-122019496D01*
X128118804Y-122030169D01*
X128136550Y-122037521D01*
X128155393Y-122041270D01*
X128174598Y-122041271D01*
X128193442Y-122037524D01*
X128211188Y-122030174D01*
X128227162Y-122019503D01*
X128240744Y-122005922D01*
X128251417Y-121989950D01*
X128258769Y-121972204D01*
X128262527Y-121953315D01*
X128263002Y-121943655D01*
X128264086Y-121941974D01*
X128266084Y-121942072D01*
G37*
G36*
X129976990Y-121443557D02*
G01*
X129978891Y-121462867D01*
X129984469Y-121481252D01*
X129993524Y-121498193D01*
X130005710Y-121513042D01*
X130020559Y-121525228D01*
X130037500Y-121534283D01*
X130055885Y-121539861D01*
X130074999Y-121541743D01*
X130094113Y-121539861D01*
X130112498Y-121534283D01*
X130129439Y-121525228D01*
X130144288Y-121513042D01*
X130150676Y-121505257D01*
X130151405Y-121504983D01*
X130159654Y-121494931D01*
X130159931Y-121494654D01*
X130162893Y-121492224D01*
X130163219Y-121492006D01*
X130166584Y-121490207D01*
X130166946Y-121490057D01*
X130170613Y-121488944D01*
X130170998Y-121488868D01*
X130179714Y-121488010D01*
X130179910Y-121488000D01*
X130225000Y-121488000D01*
X130226732Y-121489000D01*
X130226732Y-121491000D01*
X130225196Y-121491990D01*
X130211738Y-121493316D01*
X130198982Y-121497184D01*
X130187226Y-121503468D01*
X130176924Y-121511924D01*
X130168468Y-121522226D01*
X130162184Y-121533982D01*
X130158316Y-121546738D01*
X130157000Y-121560094D01*
X130157000Y-121699906D01*
X130158316Y-121713262D01*
X130162184Y-121726018D01*
X130168468Y-121737774D01*
X130176924Y-121748076D01*
X130187226Y-121756532D01*
X130198982Y-121762816D01*
X130211738Y-121766684D01*
X130225196Y-121768010D01*
X130226822Y-121769175D01*
X130226626Y-121771165D01*
X130225000Y-121772000D01*
X130179910Y-121772000D01*
X130179714Y-121771990D01*
X130170998Y-121771132D01*
X130170613Y-121771056D01*
X130166946Y-121769943D01*
X130166584Y-121769793D01*
X130163219Y-121767994D01*
X130162893Y-121767776D01*
X130159931Y-121765346D01*
X130159654Y-121765069D01*
X130151285Y-121754871D01*
X130151168Y-121754713D01*
X130150749Y-121754086D01*
X130137168Y-121740504D01*
X130121196Y-121729831D01*
X130103450Y-121722479D01*
X130084607Y-121718730D01*
X130065402Y-121718729D01*
X130046558Y-121722476D01*
X130028812Y-121729826D01*
X130012838Y-121740497D01*
X129999256Y-121754078D01*
X129988583Y-121770050D01*
X129981231Y-121787796D01*
X129977473Y-121806685D01*
X129976998Y-121816345D01*
X129975914Y-121818026D01*
X129973916Y-121817928D01*
X129973000Y-121816247D01*
X129973000Y-121443753D01*
X129974000Y-121442021D01*
X129976000Y-121442021D01*
X129976990Y-121443557D01*
G37*
G36*
X128266084Y-121442072D02*
G01*
X128267000Y-121443753D01*
X128267000Y-121816247D01*
X128266000Y-121817979D01*
X128264000Y-121817979D01*
X128263010Y-121816443D01*
X128261109Y-121797133D01*
X128255531Y-121778748D01*
X128246476Y-121761807D01*
X128234290Y-121746958D01*
X128219441Y-121734772D01*
X128202500Y-121725717D01*
X128184115Y-121720139D01*
X128165001Y-121718257D01*
X128145887Y-121720139D01*
X128127502Y-121725717D01*
X128110561Y-121734772D01*
X128095712Y-121746958D01*
X128089324Y-121754743D01*
X128088595Y-121755017D01*
X128080346Y-121765069D01*
X128080069Y-121765346D01*
X128077107Y-121767776D01*
X128076781Y-121767994D01*
X128073416Y-121769793D01*
X128073054Y-121769943D01*
X128069387Y-121771056D01*
X128069002Y-121771132D01*
X128060286Y-121771990D01*
X128060090Y-121772000D01*
X128015000Y-121772000D01*
X128013268Y-121771000D01*
X128013268Y-121769000D01*
X128014804Y-121768010D01*
X128028262Y-121766684D01*
X128041018Y-121762816D01*
X128052774Y-121756532D01*
X128063076Y-121748076D01*
X128071532Y-121737774D01*
X128077816Y-121726018D01*
X128081684Y-121713262D01*
X128083000Y-121699906D01*
X128083000Y-121560094D01*
X128081684Y-121546738D01*
X128077816Y-121533982D01*
X128071532Y-121522226D01*
X128063076Y-121511924D01*
X128052774Y-121503468D01*
X128041018Y-121497184D01*
X128028262Y-121493316D01*
X128014804Y-121491990D01*
X128013178Y-121490825D01*
X128013374Y-121488835D01*
X128015000Y-121488000D01*
X128060090Y-121488000D01*
X128060286Y-121488010D01*
X128069002Y-121488868D01*
X128069387Y-121488944D01*
X128073054Y-121490057D01*
X128073416Y-121490207D01*
X128076781Y-121492006D01*
X128077107Y-121492224D01*
X128080069Y-121494654D01*
X128080346Y-121494931D01*
X128088715Y-121505129D01*
X128088832Y-121505287D01*
X128089251Y-121505914D01*
X128102832Y-121519496D01*
X128118804Y-121530169D01*
X128136550Y-121537521D01*
X128155393Y-121541270D01*
X128174598Y-121541271D01*
X128193442Y-121537524D01*
X128211188Y-121530174D01*
X128227162Y-121519503D01*
X128240744Y-121505922D01*
X128251417Y-121489950D01*
X128258769Y-121472204D01*
X128262527Y-121453315D01*
X128263002Y-121443655D01*
X128264086Y-121441974D01*
X128266084Y-121442072D01*
G37*
G36*
X130011165Y-120773374D02*
G01*
X130012000Y-120775000D01*
X130012000Y-120820090D01*
X130011990Y-120820286D01*
X130011132Y-120829002D01*
X130011056Y-120829387D01*
X130009943Y-120833054D01*
X130009793Y-120833416D01*
X130007994Y-120836781D01*
X130007776Y-120837107D01*
X130005346Y-120840069D01*
X130005069Y-120840346D01*
X129994871Y-120848715D01*
X129994713Y-120848832D01*
X129994086Y-120849251D01*
X129980504Y-120862832D01*
X129969831Y-120878804D01*
X129962479Y-120896550D01*
X129958730Y-120915393D01*
X129958729Y-120934598D01*
X129962476Y-120953442D01*
X129969826Y-120971188D01*
X129980497Y-120987162D01*
X129994078Y-121000744D01*
X129997241Y-121002857D01*
X129997676Y-121003251D01*
X130005710Y-121013042D01*
X130020559Y-121025228D01*
X130037500Y-121034283D01*
X130055885Y-121039861D01*
X130074999Y-121041743D01*
X130094113Y-121039861D01*
X130112498Y-121034283D01*
X130129439Y-121025228D01*
X130144288Y-121013042D01*
X130150676Y-121005257D01*
X130151405Y-121004983D01*
X130159654Y-120994931D01*
X130159931Y-120994654D01*
X130162893Y-120992224D01*
X130163219Y-120992006D01*
X130166584Y-120990207D01*
X130166946Y-120990057D01*
X130170613Y-120988944D01*
X130170998Y-120988868D01*
X130179714Y-120988010D01*
X130179910Y-120988000D01*
X130225000Y-120988000D01*
X130226732Y-120989000D01*
X130226732Y-120991000D01*
X130225196Y-120991990D01*
X130211738Y-120993316D01*
X130198982Y-120997184D01*
X130187226Y-121003468D01*
X130176924Y-121011924D01*
X130168468Y-121022226D01*
X130162184Y-121033982D01*
X130158316Y-121046738D01*
X130157000Y-121060094D01*
X130157000Y-121199906D01*
X130158316Y-121213262D01*
X130162184Y-121226018D01*
X130168468Y-121237774D01*
X130176924Y-121248076D01*
X130187226Y-121256532D01*
X130198982Y-121262816D01*
X130211738Y-121266684D01*
X130225196Y-121268010D01*
X130226822Y-121269175D01*
X130226626Y-121271165D01*
X130225000Y-121272000D01*
X130179910Y-121272000D01*
X130179714Y-121271990D01*
X130170998Y-121271132D01*
X130170613Y-121271056D01*
X130166946Y-121269943D01*
X130166584Y-121269793D01*
X130163219Y-121267994D01*
X130162893Y-121267776D01*
X130159931Y-121265346D01*
X130159654Y-121265069D01*
X130151285Y-121254871D01*
X130151168Y-121254713D01*
X130150749Y-121254086D01*
X130137168Y-121240504D01*
X130121196Y-121229831D01*
X130103450Y-121222479D01*
X130084607Y-121218730D01*
X130065402Y-121218729D01*
X130046558Y-121222476D01*
X130028812Y-121229826D01*
X130012838Y-121240497D01*
X129999256Y-121254078D01*
X129988583Y-121270050D01*
X129981231Y-121287796D01*
X129977473Y-121306685D01*
X129976998Y-121316345D01*
X129975914Y-121318026D01*
X129973916Y-121317928D01*
X129973000Y-121316247D01*
X129973000Y-121027000D01*
X129683753Y-121027000D01*
X129682021Y-121026000D01*
X129682021Y-121024000D01*
X129683557Y-121023010D01*
X129702867Y-121021109D01*
X129721252Y-121015531D01*
X129738193Y-121006476D01*
X129753042Y-120994290D01*
X129765228Y-120979441D01*
X129774283Y-120962500D01*
X129779861Y-120944115D01*
X129781743Y-120925001D01*
X129779861Y-120905887D01*
X129774283Y-120887502D01*
X129765228Y-120870561D01*
X129753042Y-120855712D01*
X129745257Y-120849324D01*
X129744983Y-120848595D01*
X129734931Y-120840346D01*
X129734654Y-120840069D01*
X129732224Y-120837107D01*
X129732006Y-120836781D01*
X129730207Y-120833416D01*
X129730057Y-120833054D01*
X129728944Y-120829387D01*
X129728868Y-120829002D01*
X129728010Y-120820286D01*
X129728000Y-120820090D01*
X129728000Y-120775000D01*
X129729000Y-120773268D01*
X129731000Y-120773268D01*
X129731990Y-120774804D01*
X129733316Y-120788262D01*
X129737184Y-120801018D01*
X129743468Y-120812774D01*
X129751924Y-120823076D01*
X129762226Y-120831532D01*
X129773982Y-120837816D01*
X129786738Y-120841684D01*
X129800094Y-120843000D01*
X129939906Y-120843000D01*
X129953262Y-120841684D01*
X129966018Y-120837816D01*
X129977774Y-120831532D01*
X129988076Y-120823076D01*
X129996532Y-120812774D01*
X130002816Y-120801018D01*
X130006684Y-120788262D01*
X130008010Y-120774804D01*
X130009175Y-120773178D01*
X130011165Y-120773374D01*
G37*
G36*
X128511165Y-120773374D02*
G01*
X128512000Y-120775000D01*
X128512000Y-120820090D01*
X128511990Y-120820286D01*
X128511132Y-120829002D01*
X128511056Y-120829387D01*
X128509943Y-120833054D01*
X128509793Y-120833416D01*
X128507994Y-120836781D01*
X128507776Y-120837107D01*
X128505346Y-120840069D01*
X128505069Y-120840346D01*
X128494871Y-120848715D01*
X128494713Y-120848832D01*
X128494086Y-120849251D01*
X128480504Y-120862832D01*
X128469831Y-120878804D01*
X128462479Y-120896550D01*
X128458730Y-120915393D01*
X128458729Y-120934598D01*
X128462476Y-120953442D01*
X128469826Y-120971188D01*
X128480497Y-120987162D01*
X128494078Y-121000744D01*
X128510050Y-121011417D01*
X128527796Y-121018769D01*
X128546685Y-121022527D01*
X128556345Y-121023002D01*
X128558026Y-121024086D01*
X128557928Y-121026084D01*
X128556247Y-121027000D01*
X128267000Y-121027000D01*
X128267000Y-121316247D01*
X128266000Y-121317979D01*
X128264000Y-121317979D01*
X128263010Y-121316443D01*
X128261109Y-121297133D01*
X128255531Y-121278748D01*
X128246476Y-121261807D01*
X128234290Y-121246958D01*
X128219441Y-121234772D01*
X128202500Y-121225717D01*
X128184115Y-121220139D01*
X128165001Y-121218257D01*
X128145887Y-121220139D01*
X128127502Y-121225717D01*
X128110561Y-121234772D01*
X128095712Y-121246958D01*
X128089324Y-121254743D01*
X128088595Y-121255017D01*
X128080346Y-121265069D01*
X128080069Y-121265346D01*
X128077107Y-121267776D01*
X128076781Y-121267994D01*
X128073416Y-121269793D01*
X128073054Y-121269943D01*
X128069387Y-121271056D01*
X128069002Y-121271132D01*
X128060286Y-121271990D01*
X128060090Y-121272000D01*
X128015000Y-121272000D01*
X128013268Y-121271000D01*
X128013268Y-121269000D01*
X128014804Y-121268010D01*
X128028262Y-121266684D01*
X128041018Y-121262816D01*
X128052774Y-121256532D01*
X128063076Y-121248076D01*
X128071532Y-121237774D01*
X128077816Y-121226018D01*
X128081684Y-121213262D01*
X128083000Y-121199906D01*
X128083000Y-121060094D01*
X128081684Y-121046738D01*
X128077816Y-121033982D01*
X128071532Y-121022226D01*
X128063076Y-121011924D01*
X128052774Y-121003468D01*
X128041018Y-120997184D01*
X128028262Y-120993316D01*
X128014804Y-120991990D01*
X128013178Y-120990825D01*
X128013374Y-120988835D01*
X128015000Y-120988000D01*
X128060090Y-120988000D01*
X128060286Y-120988010D01*
X128069002Y-120988868D01*
X128069387Y-120988944D01*
X128073054Y-120990057D01*
X128073416Y-120990207D01*
X128076781Y-120992006D01*
X128077107Y-120992224D01*
X128080069Y-120994654D01*
X128080346Y-120994931D01*
X128088715Y-121005129D01*
X128088832Y-121005287D01*
X128089251Y-121005914D01*
X128102832Y-121019496D01*
X128118804Y-121030169D01*
X128136550Y-121037521D01*
X128155393Y-121041270D01*
X128174598Y-121041271D01*
X128193442Y-121037524D01*
X128211188Y-121030174D01*
X128227162Y-121019503D01*
X128240744Y-121005922D01*
X128242857Y-121002759D01*
X128243251Y-121002324D01*
X128253042Y-120994290D01*
X128265228Y-120979441D01*
X128274283Y-120962500D01*
X128279861Y-120944115D01*
X128281743Y-120925001D01*
X128279861Y-120905887D01*
X128274283Y-120887502D01*
X128265228Y-120870561D01*
X128253042Y-120855712D01*
X128245257Y-120849324D01*
X128244983Y-120848595D01*
X128234931Y-120840346D01*
X128234654Y-120840069D01*
X128232224Y-120837107D01*
X128232006Y-120836781D01*
X128230207Y-120833416D01*
X128230057Y-120833054D01*
X128228944Y-120829387D01*
X128228868Y-120829002D01*
X128228010Y-120820286D01*
X128228000Y-120820090D01*
X128228000Y-120775000D01*
X128229000Y-120773268D01*
X128231000Y-120773268D01*
X128231990Y-120774804D01*
X128233316Y-120788262D01*
X128237184Y-120801018D01*
X128243468Y-120812774D01*
X128251924Y-120823076D01*
X128262226Y-120831532D01*
X128273982Y-120837816D01*
X128286738Y-120841684D01*
X128300094Y-120843000D01*
X128439906Y-120843000D01*
X128453262Y-120841684D01*
X128466018Y-120837816D01*
X128477774Y-120831532D01*
X128488076Y-120823076D01*
X128496532Y-120812774D01*
X128502816Y-120801018D01*
X128506684Y-120788262D01*
X128508010Y-120774804D01*
X128509175Y-120773178D01*
X128511165Y-120773374D01*
G37*
G36*
X129511165Y-120773374D02*
G01*
X129512000Y-120775000D01*
X129512000Y-120820090D01*
X129511990Y-120820286D01*
X129511132Y-120829002D01*
X129511056Y-120829387D01*
X129509943Y-120833054D01*
X129509793Y-120833416D01*
X129507994Y-120836781D01*
X129507776Y-120837107D01*
X129505346Y-120840069D01*
X129505069Y-120840346D01*
X129494871Y-120848715D01*
X129494713Y-120848832D01*
X129494086Y-120849251D01*
X129480504Y-120862832D01*
X129469831Y-120878804D01*
X129462479Y-120896550D01*
X129458730Y-120915393D01*
X129458729Y-120934598D01*
X129462476Y-120953442D01*
X129469826Y-120971188D01*
X129480497Y-120987162D01*
X129494078Y-121000744D01*
X129510050Y-121011417D01*
X129527796Y-121018769D01*
X129546685Y-121022527D01*
X129556345Y-121023002D01*
X129558026Y-121024086D01*
X129557928Y-121026084D01*
X129556247Y-121027000D01*
X129183753Y-121027000D01*
X129182021Y-121026000D01*
X129182021Y-121024000D01*
X129183557Y-121023010D01*
X129202867Y-121021109D01*
X129221252Y-121015531D01*
X129238193Y-121006476D01*
X129253042Y-120994290D01*
X129265228Y-120979441D01*
X129274283Y-120962500D01*
X129279861Y-120944115D01*
X129281743Y-120925001D01*
X129279861Y-120905887D01*
X129274283Y-120887502D01*
X129265228Y-120870561D01*
X129253042Y-120855712D01*
X129245257Y-120849324D01*
X129244983Y-120848595D01*
X129234931Y-120840346D01*
X129234654Y-120840069D01*
X129232224Y-120837107D01*
X129232006Y-120836781D01*
X129230207Y-120833416D01*
X129230057Y-120833054D01*
X129228944Y-120829387D01*
X129228868Y-120829002D01*
X129228010Y-120820286D01*
X129228000Y-120820090D01*
X129228000Y-120775000D01*
X129229000Y-120773268D01*
X129231000Y-120773268D01*
X129231990Y-120774804D01*
X129233316Y-120788262D01*
X129237184Y-120801018D01*
X129243468Y-120812774D01*
X129251924Y-120823076D01*
X129262226Y-120831532D01*
X129273982Y-120837816D01*
X129286738Y-120841684D01*
X129300094Y-120843000D01*
X129439906Y-120843000D01*
X129453262Y-120841684D01*
X129466018Y-120837816D01*
X129477774Y-120831532D01*
X129488076Y-120823076D01*
X129496532Y-120812774D01*
X129502816Y-120801018D01*
X129506684Y-120788262D01*
X129508010Y-120774804D01*
X129509175Y-120773178D01*
X129511165Y-120773374D01*
G37*
G36*
X129011165Y-120773374D02*
G01*
X129012000Y-120775000D01*
X129012000Y-120820090D01*
X129011990Y-120820286D01*
X129011132Y-120829002D01*
X129011056Y-120829387D01*
X129009943Y-120833054D01*
X129009793Y-120833416D01*
X129007994Y-120836781D01*
X129007776Y-120837107D01*
X129005346Y-120840069D01*
X129005069Y-120840346D01*
X128994871Y-120848715D01*
X128994713Y-120848832D01*
X128994086Y-120849251D01*
X128980504Y-120862832D01*
X128969831Y-120878804D01*
X128962479Y-120896550D01*
X128958730Y-120915393D01*
X128958729Y-120934598D01*
X128962476Y-120953442D01*
X128969826Y-120971188D01*
X128980497Y-120987162D01*
X128994078Y-121000744D01*
X129010050Y-121011417D01*
X129027796Y-121018769D01*
X129046685Y-121022527D01*
X129056345Y-121023002D01*
X129058026Y-121024086D01*
X129057928Y-121026084D01*
X129056247Y-121027000D01*
X128683753Y-121027000D01*
X128682021Y-121026000D01*
X128682021Y-121024000D01*
X128683557Y-121023010D01*
X128702867Y-121021109D01*
X128721252Y-121015531D01*
X128738193Y-121006476D01*
X128753042Y-120994290D01*
X128765228Y-120979441D01*
X128774283Y-120962500D01*
X128779861Y-120944115D01*
X128781743Y-120925001D01*
X128779861Y-120905887D01*
X128774283Y-120887502D01*
X128765228Y-120870561D01*
X128753042Y-120855712D01*
X128745257Y-120849324D01*
X128744983Y-120848595D01*
X128734931Y-120840346D01*
X128734654Y-120840069D01*
X128732224Y-120837107D01*
X128732006Y-120836781D01*
X128730207Y-120833416D01*
X128730057Y-120833054D01*
X128728944Y-120829387D01*
X128728868Y-120829002D01*
X128728010Y-120820286D01*
X128728000Y-120820090D01*
X128728000Y-120775000D01*
X128729000Y-120773268D01*
X128731000Y-120773268D01*
X128731990Y-120774804D01*
X128733316Y-120788262D01*
X128737184Y-120801018D01*
X128743468Y-120812774D01*
X128751924Y-120823076D01*
X128762226Y-120831532D01*
X128773982Y-120837816D01*
X128786738Y-120841684D01*
X128800094Y-120843000D01*
X128939906Y-120843000D01*
X128953262Y-120841684D01*
X128966018Y-120837816D01*
X128977774Y-120831532D01*
X128988076Y-120823076D01*
X128996532Y-120812774D01*
X129002816Y-120801018D01*
X129006684Y-120788262D01*
X129008010Y-120774804D01*
X129009175Y-120773178D01*
X129011165Y-120773374D01*
G37*
G36*
X129936990Y-111463557D02*
G01*
X129938891Y-111482867D01*
X129944469Y-111501252D01*
X129953524Y-111518193D01*
X129965710Y-111533042D01*
X129980559Y-111545228D01*
X129997500Y-111554283D01*
X130015885Y-111559861D01*
X130034999Y-111561743D01*
X130054113Y-111559861D01*
X130072498Y-111554283D01*
X130089439Y-111545228D01*
X130104288Y-111533042D01*
X130110676Y-111525257D01*
X130111405Y-111524983D01*
X130119654Y-111514931D01*
X130119931Y-111514654D01*
X130122893Y-111512224D01*
X130123219Y-111512006D01*
X130126584Y-111510207D01*
X130126946Y-111510057D01*
X130130613Y-111508944D01*
X130130998Y-111508868D01*
X130139714Y-111508010D01*
X130139910Y-111508000D01*
X130185000Y-111508000D01*
X130186732Y-111509000D01*
X130186732Y-111511000D01*
X130185196Y-111511990D01*
X130171738Y-111513316D01*
X130158982Y-111517184D01*
X130147226Y-111523468D01*
X130136924Y-111531924D01*
X130128468Y-111542226D01*
X130122184Y-111553982D01*
X130118316Y-111566738D01*
X130117000Y-111580094D01*
X130117000Y-111719906D01*
X130118316Y-111733262D01*
X130122184Y-111746018D01*
X130128468Y-111757774D01*
X130136924Y-111768076D01*
X130147226Y-111776532D01*
X130158982Y-111782816D01*
X130171738Y-111786684D01*
X130185196Y-111788010D01*
X130186822Y-111789175D01*
X130186626Y-111791165D01*
X130185000Y-111792000D01*
X130139910Y-111792000D01*
X130139714Y-111791990D01*
X130130998Y-111791132D01*
X130130613Y-111791056D01*
X130126946Y-111789943D01*
X130126584Y-111789793D01*
X130123219Y-111787994D01*
X130122893Y-111787776D01*
X130119931Y-111785346D01*
X130119654Y-111785069D01*
X130111285Y-111774871D01*
X130111168Y-111774713D01*
X130110749Y-111774086D01*
X130097168Y-111760504D01*
X130081196Y-111749831D01*
X130063450Y-111742479D01*
X130044607Y-111738730D01*
X130025402Y-111738729D01*
X130006558Y-111742476D01*
X129988812Y-111749826D01*
X129972838Y-111760497D01*
X129959256Y-111774078D01*
X129957143Y-111777241D01*
X129956749Y-111777676D01*
X129946958Y-111785710D01*
X129934772Y-111800559D01*
X129925717Y-111817500D01*
X129920139Y-111835885D01*
X129918257Y-111854999D01*
X129920139Y-111874113D01*
X129925717Y-111892498D01*
X129934772Y-111909439D01*
X129946958Y-111924288D01*
X129954743Y-111930676D01*
X129955017Y-111931405D01*
X129965069Y-111939654D01*
X129965346Y-111939931D01*
X129967776Y-111942893D01*
X129967994Y-111943219D01*
X129969793Y-111946584D01*
X129969943Y-111946946D01*
X129971056Y-111950613D01*
X129971132Y-111950998D01*
X129971990Y-111959714D01*
X129972000Y-111959910D01*
X129972000Y-112005000D01*
X129971000Y-112006732D01*
X129969000Y-112006732D01*
X129968010Y-112005196D01*
X129966684Y-111991738D01*
X129962816Y-111978982D01*
X129956532Y-111967226D01*
X129948076Y-111956924D01*
X129937774Y-111948468D01*
X129926018Y-111942184D01*
X129913262Y-111938316D01*
X129899906Y-111937000D01*
X129760094Y-111937000D01*
X129746738Y-111938316D01*
X129733982Y-111942184D01*
X129722226Y-111948468D01*
X129711924Y-111956924D01*
X129703468Y-111967226D01*
X129697184Y-111978982D01*
X129693316Y-111991738D01*
X129691990Y-112005196D01*
X129690825Y-112006822D01*
X129688835Y-112006626D01*
X129688000Y-112005000D01*
X129688000Y-111959910D01*
X129688010Y-111959714D01*
X129688868Y-111950998D01*
X129688944Y-111950613D01*
X129690057Y-111946946D01*
X129690207Y-111946584D01*
X129692006Y-111943219D01*
X129692224Y-111942893D01*
X129694654Y-111939931D01*
X129694931Y-111939654D01*
X129705129Y-111931285D01*
X129705287Y-111931168D01*
X129705914Y-111930749D01*
X129719496Y-111917168D01*
X129730169Y-111901196D01*
X129737521Y-111883450D01*
X129741270Y-111864607D01*
X129741271Y-111845402D01*
X129737524Y-111826558D01*
X129730174Y-111808812D01*
X129719503Y-111792838D01*
X129705922Y-111779256D01*
X129689950Y-111768583D01*
X129672204Y-111761231D01*
X129653315Y-111757473D01*
X129643655Y-111756998D01*
X129641974Y-111755914D01*
X129642072Y-111753916D01*
X129643753Y-111753000D01*
X129933000Y-111753000D01*
X129933000Y-111463753D01*
X129934000Y-111462021D01*
X129936000Y-111462021D01*
X129936990Y-111463557D01*
G37*
G36*
X129017979Y-111754000D02*
G01*
X129017979Y-111756000D01*
X129016443Y-111756990D01*
X128997133Y-111758891D01*
X128978748Y-111764469D01*
X128961807Y-111773524D01*
X128946958Y-111785710D01*
X128934772Y-111800559D01*
X128925717Y-111817500D01*
X128920139Y-111835885D01*
X128918257Y-111854999D01*
X128920139Y-111874113D01*
X128925717Y-111892498D01*
X128934772Y-111909439D01*
X128946958Y-111924288D01*
X128954743Y-111930676D01*
X128955017Y-111931405D01*
X128965069Y-111939654D01*
X128965346Y-111939931D01*
X128967776Y-111942893D01*
X128967994Y-111943219D01*
X128969793Y-111946584D01*
X128969943Y-111946946D01*
X128971056Y-111950613D01*
X128971132Y-111950998D01*
X128971990Y-111959714D01*
X128972000Y-111959910D01*
X128972000Y-112005000D01*
X128971000Y-112006732D01*
X128969000Y-112006732D01*
X128968010Y-112005196D01*
X128966684Y-111991738D01*
X128962816Y-111978982D01*
X128956532Y-111967226D01*
X128948076Y-111956924D01*
X128937774Y-111948468D01*
X128926018Y-111942184D01*
X128913262Y-111938316D01*
X128899906Y-111937000D01*
X128760094Y-111937000D01*
X128746738Y-111938316D01*
X128733982Y-111942184D01*
X128722226Y-111948468D01*
X128711924Y-111956924D01*
X128703468Y-111967226D01*
X128697184Y-111978982D01*
X128693316Y-111991738D01*
X128691990Y-112005196D01*
X128690825Y-112006822D01*
X128688835Y-112006626D01*
X128688000Y-112005000D01*
X128688000Y-111959910D01*
X128688010Y-111959714D01*
X128688868Y-111950998D01*
X128688944Y-111950613D01*
X128690057Y-111946946D01*
X128690207Y-111946584D01*
X128692006Y-111943219D01*
X128692224Y-111942893D01*
X128694654Y-111939931D01*
X128694931Y-111939654D01*
X128705129Y-111931285D01*
X128705287Y-111931168D01*
X128705914Y-111930749D01*
X128719496Y-111917168D01*
X128730169Y-111901196D01*
X128737521Y-111883450D01*
X128741270Y-111864607D01*
X128741271Y-111845402D01*
X128737524Y-111826558D01*
X128730174Y-111808812D01*
X128719503Y-111792838D01*
X128705922Y-111779256D01*
X128689950Y-111768583D01*
X128672204Y-111761231D01*
X128653315Y-111757473D01*
X128643655Y-111756998D01*
X128641974Y-111755914D01*
X128642072Y-111753916D01*
X128643753Y-111753000D01*
X129016247Y-111753000D01*
X129017979Y-111754000D01*
G37*
G36*
X129517979Y-111754000D02*
G01*
X129517979Y-111756000D01*
X129516443Y-111756990D01*
X129497133Y-111758891D01*
X129478748Y-111764469D01*
X129461807Y-111773524D01*
X129446958Y-111785710D01*
X129434772Y-111800559D01*
X129425717Y-111817500D01*
X129420139Y-111835885D01*
X129418257Y-111854999D01*
X129420139Y-111874113D01*
X129425717Y-111892498D01*
X129434772Y-111909439D01*
X129446958Y-111924288D01*
X129454743Y-111930676D01*
X129455017Y-111931405D01*
X129465069Y-111939654D01*
X129465346Y-111939931D01*
X129467776Y-111942893D01*
X129467994Y-111943219D01*
X129469793Y-111946584D01*
X129469943Y-111946946D01*
X129471056Y-111950613D01*
X129471132Y-111950998D01*
X129471990Y-111959714D01*
X129472000Y-111959910D01*
X129472000Y-112005000D01*
X129471000Y-112006732D01*
X129469000Y-112006732D01*
X129468010Y-112005196D01*
X129466684Y-111991738D01*
X129462816Y-111978982D01*
X129456532Y-111967226D01*
X129448076Y-111956924D01*
X129437774Y-111948468D01*
X129426018Y-111942184D01*
X129413262Y-111938316D01*
X129399906Y-111937000D01*
X129260094Y-111937000D01*
X129246738Y-111938316D01*
X129233982Y-111942184D01*
X129222226Y-111948468D01*
X129211924Y-111956924D01*
X129203468Y-111967226D01*
X129197184Y-111978982D01*
X129193316Y-111991738D01*
X129191990Y-112005196D01*
X129190825Y-112006822D01*
X129188835Y-112006626D01*
X129188000Y-112005000D01*
X129188000Y-111959910D01*
X129188010Y-111959714D01*
X129188868Y-111950998D01*
X129188944Y-111950613D01*
X129190057Y-111946946D01*
X129190207Y-111946584D01*
X129192006Y-111943219D01*
X129192224Y-111942893D01*
X129194654Y-111939931D01*
X129194931Y-111939654D01*
X129205129Y-111931285D01*
X129205287Y-111931168D01*
X129205914Y-111930749D01*
X129219496Y-111917168D01*
X129230169Y-111901196D01*
X129237521Y-111883450D01*
X129241270Y-111864607D01*
X129241271Y-111845402D01*
X129237524Y-111826558D01*
X129230174Y-111808812D01*
X129219503Y-111792838D01*
X129205922Y-111779256D01*
X129189950Y-111768583D01*
X129172204Y-111761231D01*
X129153315Y-111757473D01*
X129143655Y-111756998D01*
X129141974Y-111755914D01*
X129142072Y-111753916D01*
X129143753Y-111753000D01*
X129516247Y-111753000D01*
X129517979Y-111754000D01*
G37*
G36*
X128226084Y-111462072D02*
G01*
X128227000Y-111463753D01*
X128227000Y-111753000D01*
X128516247Y-111753000D01*
X128517979Y-111754000D01*
X128517979Y-111756000D01*
X128516443Y-111756990D01*
X128497133Y-111758891D01*
X128478748Y-111764469D01*
X128461807Y-111773524D01*
X128446958Y-111785710D01*
X128434772Y-111800559D01*
X128425717Y-111817500D01*
X128420139Y-111835885D01*
X128418257Y-111854999D01*
X128420139Y-111874113D01*
X128425717Y-111892498D01*
X128434772Y-111909439D01*
X128446958Y-111924288D01*
X128454743Y-111930676D01*
X128455017Y-111931405D01*
X128465069Y-111939654D01*
X128465346Y-111939931D01*
X128467776Y-111942893D01*
X128467994Y-111943219D01*
X128469793Y-111946584D01*
X128469943Y-111946946D01*
X128471056Y-111950613D01*
X128471132Y-111950998D01*
X128471990Y-111959714D01*
X128472000Y-111959910D01*
X128472000Y-112005000D01*
X128471000Y-112006732D01*
X128469000Y-112006732D01*
X128468010Y-112005196D01*
X128466684Y-111991738D01*
X128462816Y-111978982D01*
X128456532Y-111967226D01*
X128448076Y-111956924D01*
X128437774Y-111948468D01*
X128426018Y-111942184D01*
X128413262Y-111938316D01*
X128399906Y-111937000D01*
X128260094Y-111937000D01*
X128246738Y-111938316D01*
X128233982Y-111942184D01*
X128222226Y-111948468D01*
X128211924Y-111956924D01*
X128203468Y-111967226D01*
X128197184Y-111978982D01*
X128193316Y-111991738D01*
X128191990Y-112005196D01*
X128190825Y-112006822D01*
X128188835Y-112006626D01*
X128188000Y-112005000D01*
X128188000Y-111959910D01*
X128188010Y-111959714D01*
X128188868Y-111950998D01*
X128188944Y-111950613D01*
X128190057Y-111946946D01*
X128190207Y-111946584D01*
X128192006Y-111943219D01*
X128192224Y-111942893D01*
X128194654Y-111939931D01*
X128194931Y-111939654D01*
X128205129Y-111931285D01*
X128205287Y-111931168D01*
X128205914Y-111930749D01*
X128219496Y-111917168D01*
X128230169Y-111901196D01*
X128237521Y-111883450D01*
X128241270Y-111864607D01*
X128241271Y-111845402D01*
X128237524Y-111826558D01*
X128230174Y-111808812D01*
X128219503Y-111792838D01*
X128205922Y-111779256D01*
X128202759Y-111777143D01*
X128202324Y-111776749D01*
X128194290Y-111766958D01*
X128179441Y-111754772D01*
X128162500Y-111745717D01*
X128144115Y-111740139D01*
X128125001Y-111738257D01*
X128105887Y-111740139D01*
X128087502Y-111745717D01*
X128070561Y-111754772D01*
X128055712Y-111766958D01*
X128049324Y-111774743D01*
X128048595Y-111775017D01*
X128040346Y-111785069D01*
X128040069Y-111785346D01*
X128037107Y-111787776D01*
X128036781Y-111787994D01*
X128033416Y-111789793D01*
X128033054Y-111789943D01*
X128029387Y-111791056D01*
X128029002Y-111791132D01*
X128020286Y-111791990D01*
X128020090Y-111792000D01*
X127975000Y-111792000D01*
X127973268Y-111791000D01*
X127973268Y-111789000D01*
X127974804Y-111788010D01*
X127988262Y-111786684D01*
X128001018Y-111782816D01*
X128012774Y-111776532D01*
X128023076Y-111768076D01*
X128031532Y-111757774D01*
X128037816Y-111746018D01*
X128041684Y-111733262D01*
X128043000Y-111719906D01*
X128043000Y-111580094D01*
X128041684Y-111566738D01*
X128037816Y-111553982D01*
X128031532Y-111542226D01*
X128023076Y-111531924D01*
X128012774Y-111523468D01*
X128001018Y-111517184D01*
X127988262Y-111513316D01*
X127974804Y-111511990D01*
X127973178Y-111510825D01*
X127973374Y-111508835D01*
X127975000Y-111508000D01*
X128020090Y-111508000D01*
X128020286Y-111508010D01*
X128029002Y-111508868D01*
X128029387Y-111508944D01*
X128033054Y-111510057D01*
X128033416Y-111510207D01*
X128036781Y-111512006D01*
X128037107Y-111512224D01*
X128040069Y-111514654D01*
X128040346Y-111514931D01*
X128048715Y-111525129D01*
X128048832Y-111525287D01*
X128049251Y-111525914D01*
X128062832Y-111539496D01*
X128078804Y-111550169D01*
X128096550Y-111557521D01*
X128115393Y-111561270D01*
X128134598Y-111561271D01*
X128153442Y-111557524D01*
X128171188Y-111550174D01*
X128187162Y-111539503D01*
X128200744Y-111525922D01*
X128211417Y-111509950D01*
X128218769Y-111492204D01*
X128222527Y-111473315D01*
X128223002Y-111463655D01*
X128224086Y-111461974D01*
X128226084Y-111462072D01*
G37*
G36*
X129936990Y-110963557D02*
G01*
X129938891Y-110982867D01*
X129944469Y-111001252D01*
X129953524Y-111018193D01*
X129965710Y-111033042D01*
X129980559Y-111045228D01*
X129997500Y-111054283D01*
X130015885Y-111059861D01*
X130034999Y-111061743D01*
X130054113Y-111059861D01*
X130072498Y-111054283D01*
X130089439Y-111045228D01*
X130104288Y-111033042D01*
X130110676Y-111025257D01*
X130111405Y-111024983D01*
X130119654Y-111014931D01*
X130119931Y-111014654D01*
X130122893Y-111012224D01*
X130123219Y-111012006D01*
X130126584Y-111010207D01*
X130126946Y-111010057D01*
X130130613Y-111008944D01*
X130130998Y-111008868D01*
X130139714Y-111008010D01*
X130139910Y-111008000D01*
X130185000Y-111008000D01*
X130186732Y-111009000D01*
X130186732Y-111011000D01*
X130185196Y-111011990D01*
X130171738Y-111013316D01*
X130158982Y-111017184D01*
X130147226Y-111023468D01*
X130136924Y-111031924D01*
X130128468Y-111042226D01*
X130122184Y-111053982D01*
X130118316Y-111066738D01*
X130117000Y-111080094D01*
X130117000Y-111219906D01*
X130118316Y-111233262D01*
X130122184Y-111246018D01*
X130128468Y-111257774D01*
X130136924Y-111268076D01*
X130147226Y-111276532D01*
X130158982Y-111282816D01*
X130171738Y-111286684D01*
X130185196Y-111288010D01*
X130186822Y-111289175D01*
X130186626Y-111291165D01*
X130185000Y-111292000D01*
X130139910Y-111292000D01*
X130139714Y-111291990D01*
X130130998Y-111291132D01*
X130130613Y-111291056D01*
X130126946Y-111289943D01*
X130126584Y-111289793D01*
X130123219Y-111287994D01*
X130122893Y-111287776D01*
X130119931Y-111285346D01*
X130119654Y-111285069D01*
X130111285Y-111274871D01*
X130111168Y-111274713D01*
X130110749Y-111274086D01*
X130097168Y-111260504D01*
X130081196Y-111249831D01*
X130063450Y-111242479D01*
X130044607Y-111238730D01*
X130025402Y-111238729D01*
X130006558Y-111242476D01*
X129988812Y-111249826D01*
X129972838Y-111260497D01*
X129959256Y-111274078D01*
X129948583Y-111290050D01*
X129941231Y-111307796D01*
X129937473Y-111326685D01*
X129936998Y-111336345D01*
X129935914Y-111338026D01*
X129933916Y-111337928D01*
X129933000Y-111336247D01*
X129933000Y-110963753D01*
X129934000Y-110962021D01*
X129936000Y-110962021D01*
X129936990Y-110963557D01*
G37*
G36*
X128226084Y-110962072D02*
G01*
X128227000Y-110963753D01*
X128227000Y-111336247D01*
X128226000Y-111337979D01*
X128224000Y-111337979D01*
X128223010Y-111336443D01*
X128221109Y-111317133D01*
X128215531Y-111298748D01*
X128206476Y-111281807D01*
X128194290Y-111266958D01*
X128179441Y-111254772D01*
X128162500Y-111245717D01*
X128144115Y-111240139D01*
X128125001Y-111238257D01*
X128105887Y-111240139D01*
X128087502Y-111245717D01*
X128070561Y-111254772D01*
X128055712Y-111266958D01*
X128049324Y-111274743D01*
X128048595Y-111275017D01*
X128040346Y-111285069D01*
X128040069Y-111285346D01*
X128037107Y-111287776D01*
X128036781Y-111287994D01*
X128033416Y-111289793D01*
X128033054Y-111289943D01*
X128029387Y-111291056D01*
X128029002Y-111291132D01*
X128020286Y-111291990D01*
X128020090Y-111292000D01*
X127975000Y-111292000D01*
X127973268Y-111291000D01*
X127973268Y-111289000D01*
X127974804Y-111288010D01*
X127988262Y-111286684D01*
X128001018Y-111282816D01*
X128012774Y-111276532D01*
X128023076Y-111268076D01*
X128031532Y-111257774D01*
X128037816Y-111246018D01*
X128041684Y-111233262D01*
X128043000Y-111219906D01*
X128043000Y-111080094D01*
X128041684Y-111066738D01*
X128037816Y-111053982D01*
X128031532Y-111042226D01*
X128023076Y-111031924D01*
X128012774Y-111023468D01*
X128001018Y-111017184D01*
X127988262Y-111013316D01*
X127974804Y-111011990D01*
X127973178Y-111010825D01*
X127973374Y-111008835D01*
X127975000Y-111008000D01*
X128020090Y-111008000D01*
X128020286Y-111008010D01*
X128029002Y-111008868D01*
X128029387Y-111008944D01*
X128033054Y-111010057D01*
X128033416Y-111010207D01*
X128036781Y-111012006D01*
X128037107Y-111012224D01*
X128040069Y-111014654D01*
X128040346Y-111014931D01*
X128048715Y-111025129D01*
X128048832Y-111025287D01*
X128049251Y-111025914D01*
X128062832Y-111039496D01*
X128078804Y-111050169D01*
X128096550Y-111057521D01*
X128115393Y-111061270D01*
X128134598Y-111061271D01*
X128153442Y-111057524D01*
X128171188Y-111050174D01*
X128187162Y-111039503D01*
X128200744Y-111025922D01*
X128211417Y-111009950D01*
X128218769Y-110992204D01*
X128222527Y-110973315D01*
X128223002Y-110963655D01*
X128224086Y-110961974D01*
X128226084Y-110962072D01*
G37*
G36*
X129936990Y-110463557D02*
G01*
X129938891Y-110482867D01*
X129944469Y-110501252D01*
X129953524Y-110518193D01*
X129965710Y-110533042D01*
X129980559Y-110545228D01*
X129997500Y-110554283D01*
X130015885Y-110559861D01*
X130034999Y-110561743D01*
X130054113Y-110559861D01*
X130072498Y-110554283D01*
X130089439Y-110545228D01*
X130104288Y-110533042D01*
X130110676Y-110525257D01*
X130111405Y-110524983D01*
X130119654Y-110514931D01*
X130119931Y-110514654D01*
X130122893Y-110512224D01*
X130123219Y-110512006D01*
X130126584Y-110510207D01*
X130126946Y-110510057D01*
X130130613Y-110508944D01*
X130130998Y-110508868D01*
X130139714Y-110508010D01*
X130139910Y-110508000D01*
X130185000Y-110508000D01*
X130186732Y-110509000D01*
X130186732Y-110511000D01*
X130185196Y-110511990D01*
X130171738Y-110513316D01*
X130158982Y-110517184D01*
X130147226Y-110523468D01*
X130136924Y-110531924D01*
X130128468Y-110542226D01*
X130122184Y-110553982D01*
X130118316Y-110566738D01*
X130117000Y-110580094D01*
X130117000Y-110719906D01*
X130118316Y-110733262D01*
X130122184Y-110746018D01*
X130128468Y-110757774D01*
X130136924Y-110768076D01*
X130147226Y-110776532D01*
X130158982Y-110782816D01*
X130171738Y-110786684D01*
X130185196Y-110788010D01*
X130186822Y-110789175D01*
X130186626Y-110791165D01*
X130185000Y-110792000D01*
X130139910Y-110792000D01*
X130139714Y-110791990D01*
X130130998Y-110791132D01*
X130130613Y-110791056D01*
X130126946Y-110789943D01*
X130126584Y-110789793D01*
X130123219Y-110787994D01*
X130122893Y-110787776D01*
X130119931Y-110785346D01*
X130119654Y-110785069D01*
X130111285Y-110774871D01*
X130111168Y-110774713D01*
X130110749Y-110774086D01*
X130097168Y-110760504D01*
X130081196Y-110749831D01*
X130063450Y-110742479D01*
X130044607Y-110738730D01*
X130025402Y-110738729D01*
X130006558Y-110742476D01*
X129988812Y-110749826D01*
X129972838Y-110760497D01*
X129959256Y-110774078D01*
X129948583Y-110790050D01*
X129941231Y-110807796D01*
X129937473Y-110826685D01*
X129936998Y-110836345D01*
X129935914Y-110838026D01*
X129933916Y-110837928D01*
X129933000Y-110836247D01*
X129933000Y-110463753D01*
X129934000Y-110462021D01*
X129936000Y-110462021D01*
X129936990Y-110463557D01*
G37*
G36*
X128226084Y-110462072D02*
G01*
X128227000Y-110463753D01*
X128227000Y-110836247D01*
X128226000Y-110837979D01*
X128224000Y-110837979D01*
X128223010Y-110836443D01*
X128221109Y-110817133D01*
X128215531Y-110798748D01*
X128206476Y-110781807D01*
X128194290Y-110766958D01*
X128179441Y-110754772D01*
X128162500Y-110745717D01*
X128144115Y-110740139D01*
X128125001Y-110738257D01*
X128105887Y-110740139D01*
X128087502Y-110745717D01*
X128070561Y-110754772D01*
X128055712Y-110766958D01*
X128049324Y-110774743D01*
X128048595Y-110775017D01*
X128040346Y-110785069D01*
X128040069Y-110785346D01*
X128037107Y-110787776D01*
X128036781Y-110787994D01*
X128033416Y-110789793D01*
X128033054Y-110789943D01*
X128029387Y-110791056D01*
X128029002Y-110791132D01*
X128020286Y-110791990D01*
X128020090Y-110792000D01*
X127975000Y-110792000D01*
X127973268Y-110791000D01*
X127973268Y-110789000D01*
X127974804Y-110788010D01*
X127988262Y-110786684D01*
X128001018Y-110782816D01*
X128012774Y-110776532D01*
X128023076Y-110768076D01*
X128031532Y-110757774D01*
X128037816Y-110746018D01*
X128041684Y-110733262D01*
X128043000Y-110719906D01*
X128043000Y-110580094D01*
X128041684Y-110566738D01*
X128037816Y-110553982D01*
X128031532Y-110542226D01*
X128023076Y-110531924D01*
X128012774Y-110523468D01*
X128001018Y-110517184D01*
X127988262Y-110513316D01*
X127974804Y-110511990D01*
X127973178Y-110510825D01*
X127973374Y-110508835D01*
X127975000Y-110508000D01*
X128020090Y-110508000D01*
X128020286Y-110508010D01*
X128029002Y-110508868D01*
X128029387Y-110508944D01*
X128033054Y-110510057D01*
X128033416Y-110510207D01*
X128036781Y-110512006D01*
X128037107Y-110512224D01*
X128040069Y-110514654D01*
X128040346Y-110514931D01*
X128048715Y-110525129D01*
X128048832Y-110525287D01*
X128049251Y-110525914D01*
X128062832Y-110539496D01*
X128078804Y-110550169D01*
X128096550Y-110557521D01*
X128115393Y-110561270D01*
X128134598Y-110561271D01*
X128153442Y-110557524D01*
X128171188Y-110550174D01*
X128187162Y-110539503D01*
X128200744Y-110525922D01*
X128211417Y-110509950D01*
X128218769Y-110492204D01*
X128222527Y-110473315D01*
X128223002Y-110463655D01*
X128224086Y-110461974D01*
X128226084Y-110462072D01*
G37*
G36*
X129971165Y-109793374D02*
G01*
X129972000Y-109795000D01*
X129972000Y-109840090D01*
X129971990Y-109840286D01*
X129971132Y-109849002D01*
X129971056Y-109849387D01*
X129969943Y-109853054D01*
X129969793Y-109853416D01*
X129967994Y-109856781D01*
X129967776Y-109857107D01*
X129965346Y-109860069D01*
X129965069Y-109860346D01*
X129954871Y-109868715D01*
X129954713Y-109868832D01*
X129954086Y-109869251D01*
X129940504Y-109882832D01*
X129929831Y-109898804D01*
X129922479Y-109916550D01*
X129918730Y-109935393D01*
X129918729Y-109954598D01*
X129922476Y-109973442D01*
X129929826Y-109991188D01*
X129940497Y-110007162D01*
X129954078Y-110020744D01*
X129957241Y-110022857D01*
X129957676Y-110023251D01*
X129965710Y-110033042D01*
X129980559Y-110045228D01*
X129997500Y-110054283D01*
X130015885Y-110059861D01*
X130034999Y-110061743D01*
X130054113Y-110059861D01*
X130072498Y-110054283D01*
X130089439Y-110045228D01*
X130104288Y-110033042D01*
X130110676Y-110025257D01*
X130111405Y-110024983D01*
X130119654Y-110014931D01*
X130119931Y-110014654D01*
X130122893Y-110012224D01*
X130123219Y-110012006D01*
X130126584Y-110010207D01*
X130126946Y-110010057D01*
X130130613Y-110008944D01*
X130130998Y-110008868D01*
X130139714Y-110008010D01*
X130139910Y-110008000D01*
X130185000Y-110008000D01*
X130186732Y-110009000D01*
X130186732Y-110011000D01*
X130185196Y-110011990D01*
X130171738Y-110013316D01*
X130158982Y-110017184D01*
X130147226Y-110023468D01*
X130136924Y-110031924D01*
X130128468Y-110042226D01*
X130122184Y-110053982D01*
X130118316Y-110066738D01*
X130117000Y-110080094D01*
X130117000Y-110219906D01*
X130118316Y-110233262D01*
X130122184Y-110246018D01*
X130128468Y-110257774D01*
X130136924Y-110268076D01*
X130147226Y-110276532D01*
X130158982Y-110282816D01*
X130171738Y-110286684D01*
X130185196Y-110288010D01*
X130186822Y-110289175D01*
X130186626Y-110291165D01*
X130185000Y-110292000D01*
X130139910Y-110292000D01*
X130139714Y-110291990D01*
X130130998Y-110291132D01*
X130130613Y-110291056D01*
X130126946Y-110289943D01*
X130126584Y-110289793D01*
X130123219Y-110287994D01*
X130122893Y-110287776D01*
X130119931Y-110285346D01*
X130119654Y-110285069D01*
X130111285Y-110274871D01*
X130111168Y-110274713D01*
X130110749Y-110274086D01*
X130097168Y-110260504D01*
X130081196Y-110249831D01*
X130063450Y-110242479D01*
X130044607Y-110238730D01*
X130025402Y-110238729D01*
X130006558Y-110242476D01*
X129988812Y-110249826D01*
X129972838Y-110260497D01*
X129959256Y-110274078D01*
X129948583Y-110290050D01*
X129941231Y-110307796D01*
X129937473Y-110326685D01*
X129936998Y-110336345D01*
X129935914Y-110338026D01*
X129933916Y-110337928D01*
X129933000Y-110336247D01*
X129933000Y-110047000D01*
X129643753Y-110047000D01*
X129642021Y-110046000D01*
X129642021Y-110044000D01*
X129643557Y-110043010D01*
X129662867Y-110041109D01*
X129681252Y-110035531D01*
X129698193Y-110026476D01*
X129713042Y-110014290D01*
X129725228Y-109999441D01*
X129734283Y-109982500D01*
X129739861Y-109964115D01*
X129741743Y-109945001D01*
X129739861Y-109925887D01*
X129734283Y-109907502D01*
X129725228Y-109890561D01*
X129713042Y-109875712D01*
X129705257Y-109869324D01*
X129704983Y-109868595D01*
X129694931Y-109860346D01*
X129694654Y-109860069D01*
X129692224Y-109857107D01*
X129692006Y-109856781D01*
X129690207Y-109853416D01*
X129690057Y-109853054D01*
X129688944Y-109849387D01*
X129688868Y-109849002D01*
X129688010Y-109840286D01*
X129688000Y-109840090D01*
X129688000Y-109795000D01*
X129689000Y-109793268D01*
X129691000Y-109793268D01*
X129691990Y-109794804D01*
X129693316Y-109808262D01*
X129697184Y-109821018D01*
X129703468Y-109832774D01*
X129711924Y-109843076D01*
X129722226Y-109851532D01*
X129733982Y-109857816D01*
X129746738Y-109861684D01*
X129760094Y-109863000D01*
X129899906Y-109863000D01*
X129913262Y-109861684D01*
X129926018Y-109857816D01*
X129937774Y-109851532D01*
X129948076Y-109843076D01*
X129956532Y-109832774D01*
X129962816Y-109821018D01*
X129966684Y-109808262D01*
X129968010Y-109794804D01*
X129969175Y-109793178D01*
X129971165Y-109793374D01*
G37*
G36*
X128471165Y-109793374D02*
G01*
X128472000Y-109795000D01*
X128472000Y-109840090D01*
X128471990Y-109840286D01*
X128471132Y-109849002D01*
X128471056Y-109849387D01*
X128469943Y-109853054D01*
X128469793Y-109853416D01*
X128467994Y-109856781D01*
X128467776Y-109857107D01*
X128465346Y-109860069D01*
X128465069Y-109860346D01*
X128454871Y-109868715D01*
X128454713Y-109868832D01*
X128454086Y-109869251D01*
X128440504Y-109882832D01*
X128429831Y-109898804D01*
X128422479Y-109916550D01*
X128418730Y-109935393D01*
X128418729Y-109954598D01*
X128422476Y-109973442D01*
X128429826Y-109991188D01*
X128440497Y-110007162D01*
X128454078Y-110020744D01*
X128470050Y-110031417D01*
X128487796Y-110038769D01*
X128506685Y-110042527D01*
X128516345Y-110043002D01*
X128518026Y-110044086D01*
X128517928Y-110046084D01*
X128516247Y-110047000D01*
X128227000Y-110047000D01*
X128227000Y-110336247D01*
X128226000Y-110337979D01*
X128224000Y-110337979D01*
X128223010Y-110336443D01*
X128221109Y-110317133D01*
X128215531Y-110298748D01*
X128206476Y-110281807D01*
X128194290Y-110266958D01*
X128179441Y-110254772D01*
X128162500Y-110245717D01*
X128144115Y-110240139D01*
X128125001Y-110238257D01*
X128105887Y-110240139D01*
X128087502Y-110245717D01*
X128070561Y-110254772D01*
X128055712Y-110266958D01*
X128049324Y-110274743D01*
X128048595Y-110275017D01*
X128040346Y-110285069D01*
X128040069Y-110285346D01*
X128037107Y-110287776D01*
X128036781Y-110287994D01*
X128033416Y-110289793D01*
X128033054Y-110289943D01*
X128029387Y-110291056D01*
X128029002Y-110291132D01*
X128020286Y-110291990D01*
X128020090Y-110292000D01*
X127975000Y-110292000D01*
X127973268Y-110291000D01*
X127973268Y-110289000D01*
X127974804Y-110288010D01*
X127988262Y-110286684D01*
X128001018Y-110282816D01*
X128012774Y-110276532D01*
X128023076Y-110268076D01*
X128031532Y-110257774D01*
X128037816Y-110246018D01*
X128041684Y-110233262D01*
X128043000Y-110219906D01*
X128043000Y-110080094D01*
X128041684Y-110066738D01*
X128037816Y-110053982D01*
X128031532Y-110042226D01*
X128023076Y-110031924D01*
X128012774Y-110023468D01*
X128001018Y-110017184D01*
X127988262Y-110013316D01*
X127974804Y-110011990D01*
X127973178Y-110010825D01*
X127973374Y-110008835D01*
X127975000Y-110008000D01*
X128020090Y-110008000D01*
X128020286Y-110008010D01*
X128029002Y-110008868D01*
X128029387Y-110008944D01*
X128033054Y-110010057D01*
X128033416Y-110010207D01*
X128036781Y-110012006D01*
X128037107Y-110012224D01*
X128040069Y-110014654D01*
X128040346Y-110014931D01*
X128048715Y-110025129D01*
X128048832Y-110025287D01*
X128049251Y-110025914D01*
X128062832Y-110039496D01*
X128078804Y-110050169D01*
X128096550Y-110057521D01*
X128115393Y-110061270D01*
X128134598Y-110061271D01*
X128153442Y-110057524D01*
X128171188Y-110050174D01*
X128187162Y-110039503D01*
X128200744Y-110025922D01*
X128202857Y-110022759D01*
X128203251Y-110022324D01*
X128213042Y-110014290D01*
X128225228Y-109999441D01*
X128234283Y-109982500D01*
X128239861Y-109964115D01*
X128241743Y-109945001D01*
X128239861Y-109925887D01*
X128234283Y-109907502D01*
X128225228Y-109890561D01*
X128213042Y-109875712D01*
X128205257Y-109869324D01*
X128204983Y-109868595D01*
X128194931Y-109860346D01*
X128194654Y-109860069D01*
X128192224Y-109857107D01*
X128192006Y-109856781D01*
X128190207Y-109853416D01*
X128190057Y-109853054D01*
X128188944Y-109849387D01*
X128188868Y-109849002D01*
X128188010Y-109840286D01*
X128188000Y-109840090D01*
X128188000Y-109795000D01*
X128189000Y-109793268D01*
X128191000Y-109793268D01*
X128191990Y-109794804D01*
X128193316Y-109808262D01*
X128197184Y-109821018D01*
X128203468Y-109832774D01*
X128211924Y-109843076D01*
X128222226Y-109851532D01*
X128233982Y-109857816D01*
X128246738Y-109861684D01*
X128260094Y-109863000D01*
X128399906Y-109863000D01*
X128413262Y-109861684D01*
X128426018Y-109857816D01*
X128437774Y-109851532D01*
X128448076Y-109843076D01*
X128456532Y-109832774D01*
X128462816Y-109821018D01*
X128466684Y-109808262D01*
X128468010Y-109794804D01*
X128469175Y-109793178D01*
X128471165Y-109793374D01*
G37*
G36*
X128971165Y-109793374D02*
G01*
X128972000Y-109795000D01*
X128972000Y-109840090D01*
X128971990Y-109840286D01*
X128971132Y-109849002D01*
X128971056Y-109849387D01*
X128969943Y-109853054D01*
X128969793Y-109853416D01*
X128967994Y-109856781D01*
X128967776Y-109857107D01*
X128965346Y-109860069D01*
X128965069Y-109860346D01*
X128954871Y-109868715D01*
X128954713Y-109868832D01*
X128954086Y-109869251D01*
X128940504Y-109882832D01*
X128929831Y-109898804D01*
X128922479Y-109916550D01*
X128918730Y-109935393D01*
X128918729Y-109954598D01*
X128922476Y-109973442D01*
X128929826Y-109991188D01*
X128940497Y-110007162D01*
X128954078Y-110020744D01*
X128970050Y-110031417D01*
X128987796Y-110038769D01*
X129006685Y-110042527D01*
X129016345Y-110043002D01*
X129018026Y-110044086D01*
X129017928Y-110046084D01*
X129016247Y-110047000D01*
X128643753Y-110047000D01*
X128642021Y-110046000D01*
X128642021Y-110044000D01*
X128643557Y-110043010D01*
X128662867Y-110041109D01*
X128681252Y-110035531D01*
X128698193Y-110026476D01*
X128713042Y-110014290D01*
X128725228Y-109999441D01*
X128734283Y-109982500D01*
X128739861Y-109964115D01*
X128741743Y-109945001D01*
X128739861Y-109925887D01*
X128734283Y-109907502D01*
X128725228Y-109890561D01*
X128713042Y-109875712D01*
X128705257Y-109869324D01*
X128704983Y-109868595D01*
X128694931Y-109860346D01*
X128694654Y-109860069D01*
X128692224Y-109857107D01*
X128692006Y-109856781D01*
X128690207Y-109853416D01*
X128690057Y-109853054D01*
X128688944Y-109849387D01*
X128688868Y-109849002D01*
X128688010Y-109840286D01*
X128688000Y-109840090D01*
X128688000Y-109795000D01*
X128689000Y-109793268D01*
X128691000Y-109793268D01*
X128691990Y-109794804D01*
X128693316Y-109808262D01*
X128697184Y-109821018D01*
X128703468Y-109832774D01*
X128711924Y-109843076D01*
X128722226Y-109851532D01*
X128733982Y-109857816D01*
X128746738Y-109861684D01*
X128760094Y-109863000D01*
X128899906Y-109863000D01*
X128913262Y-109861684D01*
X128926018Y-109857816D01*
X128937774Y-109851532D01*
X128948076Y-109843076D01*
X128956532Y-109832774D01*
X128962816Y-109821018D01*
X128966684Y-109808262D01*
X128968010Y-109794804D01*
X128969175Y-109793178D01*
X128971165Y-109793374D01*
G37*
G36*
X129471165Y-109793374D02*
G01*
X129472000Y-109795000D01*
X129472000Y-109840090D01*
X129471990Y-109840286D01*
X129471132Y-109849002D01*
X129471056Y-109849387D01*
X129469943Y-109853054D01*
X129469793Y-109853416D01*
X129467994Y-109856781D01*
X129467776Y-109857107D01*
X129465346Y-109860069D01*
X129465069Y-109860346D01*
X129454871Y-109868715D01*
X129454713Y-109868832D01*
X129454086Y-109869251D01*
X129440504Y-109882832D01*
X129429831Y-109898804D01*
X129422479Y-109916550D01*
X129418730Y-109935393D01*
X129418729Y-109954598D01*
X129422476Y-109973442D01*
X129429826Y-109991188D01*
X129440497Y-110007162D01*
X129454078Y-110020744D01*
X129470050Y-110031417D01*
X129487796Y-110038769D01*
X129506685Y-110042527D01*
X129516345Y-110043002D01*
X129518026Y-110044086D01*
X129517928Y-110046084D01*
X129516247Y-110047000D01*
X129143753Y-110047000D01*
X129142021Y-110046000D01*
X129142021Y-110044000D01*
X129143557Y-110043010D01*
X129162867Y-110041109D01*
X129181252Y-110035531D01*
X129198193Y-110026476D01*
X129213042Y-110014290D01*
X129225228Y-109999441D01*
X129234283Y-109982500D01*
X129239861Y-109964115D01*
X129241743Y-109945001D01*
X129239861Y-109925887D01*
X129234283Y-109907502D01*
X129225228Y-109890561D01*
X129213042Y-109875712D01*
X129205257Y-109869324D01*
X129204983Y-109868595D01*
X129194931Y-109860346D01*
X129194654Y-109860069D01*
X129192224Y-109857107D01*
X129192006Y-109856781D01*
X129190207Y-109853416D01*
X129190057Y-109853054D01*
X129188944Y-109849387D01*
X129188868Y-109849002D01*
X129188010Y-109840286D01*
X129188000Y-109840090D01*
X129188000Y-109795000D01*
X129189000Y-109793268D01*
X129191000Y-109793268D01*
X129191990Y-109794804D01*
X129193316Y-109808262D01*
X129197184Y-109821018D01*
X129203468Y-109832774D01*
X129211924Y-109843076D01*
X129222226Y-109851532D01*
X129233982Y-109857816D01*
X129246738Y-109861684D01*
X129260094Y-109863000D01*
X129399906Y-109863000D01*
X129413262Y-109861684D01*
X129426018Y-109857816D01*
X129437774Y-109851532D01*
X129448076Y-109843076D01*
X129456532Y-109832774D01*
X129462816Y-109821018D01*
X129466684Y-109808262D01*
X129468010Y-109794804D01*
X129469175Y-109793178D01*
X129471165Y-109793374D01*
G37*
M02*
