%TF.GenerationSoftware,KiCad,Pcbnew,(6.0.5)*%
%TF.CreationDate,2022-06-07T15:07:26+00:00*%
%TF.ProjectId,co2_sensor_node,636f325f-7365-46e7-936f-725f6e6f6465,rev?*%
%TF.SameCoordinates,Original*%
%TF.FileFunction,Legend,Bot*%
%TF.FilePolarity,Positive*%
%FSLAX46Y46*%
G04 Gerber Fmt 4.6, Leading zero omitted, Abs format (unit mm)*
G04 Created by KiCad (PCBNEW (6.0.5)) date 2022-06-07 15:07:26*
%MOMM*%
%LPD*%
G01*
G04 APERTURE LIST*
G04 Aperture macros list*
%AMRoundRect*
0 Rectangle with rounded corners*
0 $1 Rounding radius*
0 $2 $3 $4 $5 $6 $7 $8 $9 X,Y pos of 4 corners*
0 Add a 4 corners polygon primitive as box body*
4,1,4,$2,$3,$4,$5,$6,$7,$8,$9,$2,$3,0*
0 Add four circle primitives for the rounded corners*
1,1,$1+$1,$2,$3*
1,1,$1+$1,$4,$5*
1,1,$1+$1,$6,$7*
1,1,$1+$1,$8,$9*
0 Add four rect primitives between the rounded corners*
20,1,$1+$1,$2,$3,$4,$5,0*
20,1,$1+$1,$4,$5,$6,$7,0*
20,1,$1+$1,$6,$7,$8,$9,0*
20,1,$1+$1,$8,$9,$2,$3,0*%
G04 Aperture macros list end*
%ADD10C,0.010000*%
%ADD11RoundRect,0.015000X0.850000X0.850000X-0.850000X0.850000X-0.850000X-0.850000X0.850000X-0.850000X0*%
%ADD12O,1.730000X1.730000*%
%ADD13C,2.030000*%
%ADD14RoundRect,0.015000X1.980000X-0.990000X1.980000X0.990000X-1.980000X0.990000X-1.980000X-0.990000X0*%
%ADD15O,3.990000X2.010000*%
%ADD16C,3.230000*%
%ADD17RoundRect,0.015000X0.850000X-0.850000X0.850000X0.850000X-0.850000X0.850000X-0.850000X-0.850000X0*%
%ADD18RoundRect,0.265000X-0.725000X0.600000X-0.725000X-0.600000X0.725000X-0.600000X0.725000X0.600000X0*%
%ADD19O,1.980000X1.730000*%
%ADD20RoundRect,0.015000X-0.850000X-0.850000X0.850000X-0.850000X0.850000X0.850000X-0.850000X0.850000X0*%
%ADD21C,1.230000*%
%ADD22RoundRect,0.265000X-0.750000X0.600000X-0.750000X-0.600000X0.750000X-0.600000X0.750000X0.600000X0*%
%ADD23O,2.030000X1.730000*%
%ADD24RoundRect,0.265000X-0.600000X-0.725000X0.600000X-0.725000X0.600000X0.725000X-0.600000X0.725000X0*%
%ADD25O,1.730000X1.980000*%
%ADD26RoundRect,0.015000X-0.800000X-0.800000X0.800000X-0.800000X0.800000X0.800000X-0.800000X0.800000X0*%
%ADD27C,1.630000*%
%ADD28C,1.030000*%
%ADD29RoundRect,0.015000X-1.980000X0.990000X-1.980000X-0.990000X1.980000X-0.990000X1.980000X0.990000X0*%
G04 APERTURE END LIST*
%TO.C,REF\u002A\u002A*%
G36*
X174191121Y-66646350D02*
G01*
X174214186Y-66681023D01*
X174265001Y-66764324D01*
X174341015Y-66891823D01*
X174439674Y-67059091D01*
X174558426Y-67261699D01*
X174694719Y-67495218D01*
X174846001Y-67755216D01*
X175009719Y-68037266D01*
X175183320Y-68336937D01*
X175364253Y-68649801D01*
X175549964Y-68971427D01*
X175737902Y-69297386D01*
X175925515Y-69623248D01*
X176110249Y-69944584D01*
X176289552Y-70256965D01*
X176460872Y-70555961D01*
X176621657Y-70837143D01*
X176769354Y-71096080D01*
X176901411Y-71328344D01*
X177015275Y-71529505D01*
X177108395Y-71695134D01*
X177178217Y-71820800D01*
X177222189Y-71902075D01*
X177237759Y-71934529D01*
X177237774Y-71934776D01*
X177212666Y-71968832D01*
X177140517Y-72026559D01*
X177028834Y-72102494D01*
X176885122Y-72191175D01*
X176788746Y-72247905D01*
X176650065Y-72326793D01*
X176553469Y-72376509D01*
X176492485Y-72399849D01*
X176460640Y-72399612D01*
X176451464Y-72378594D01*
X176450765Y-72375167D01*
X176424537Y-72333364D01*
X176368000Y-72262279D01*
X176291572Y-72175167D01*
X176256311Y-72137750D01*
X176146964Y-72037024D01*
X176026044Y-71950931D01*
X175886365Y-71876947D01*
X175720741Y-71812546D01*
X175521985Y-71755204D01*
X175282910Y-71702397D01*
X174996332Y-71651600D01*
X174655063Y-71600290D01*
X174262269Y-71542454D01*
X173882549Y-71480346D01*
X173550521Y-71418088D01*
X173258764Y-71353884D01*
X172999854Y-71285938D01*
X172766367Y-71212453D01*
X172550881Y-71131635D01*
X172345971Y-71041687D01*
X172195377Y-70967509D01*
X172051530Y-70889450D01*
X171937773Y-70819764D01*
X171862998Y-70763930D01*
X171836098Y-70727429D01*
X171836892Y-70724740D01*
X171858561Y-70681724D01*
X171907690Y-70591645D01*
X171981371Y-70459544D01*
X172076695Y-70290466D01*
X172190753Y-70089455D01*
X172320637Y-69861552D01*
X172463438Y-69611802D01*
X172616248Y-69345248D01*
X172776158Y-69066934D01*
X172940260Y-68781902D01*
X173105644Y-68495197D01*
X173269403Y-68211860D01*
X173428627Y-67936937D01*
X173580408Y-67675469D01*
X173721838Y-67432501D01*
X173850008Y-67213076D01*
X173962009Y-67022237D01*
X174054933Y-66865028D01*
X174125871Y-66746491D01*
X174171915Y-66671671D01*
X174190155Y-66645610D01*
X174191121Y-66646350D01*
G37*
D10*
X174191121Y-66646350D02*
X174214186Y-66681023D01*
X174265001Y-66764324D01*
X174341015Y-66891823D01*
X174439674Y-67059091D01*
X174558426Y-67261699D01*
X174694719Y-67495218D01*
X174846001Y-67755216D01*
X175009719Y-68037266D01*
X175183320Y-68336937D01*
X175364253Y-68649801D01*
X175549964Y-68971427D01*
X175737902Y-69297386D01*
X175925515Y-69623248D01*
X176110249Y-69944584D01*
X176289552Y-70256965D01*
X176460872Y-70555961D01*
X176621657Y-70837143D01*
X176769354Y-71096080D01*
X176901411Y-71328344D01*
X177015275Y-71529505D01*
X177108395Y-71695134D01*
X177178217Y-71820800D01*
X177222189Y-71902075D01*
X177237759Y-71934529D01*
X177237774Y-71934776D01*
X177212666Y-71968832D01*
X177140517Y-72026559D01*
X177028834Y-72102494D01*
X176885122Y-72191175D01*
X176788746Y-72247905D01*
X176650065Y-72326793D01*
X176553469Y-72376509D01*
X176492485Y-72399849D01*
X176460640Y-72399612D01*
X176451464Y-72378594D01*
X176450765Y-72375167D01*
X176424537Y-72333364D01*
X176368000Y-72262279D01*
X176291572Y-72175167D01*
X176256311Y-72137750D01*
X176146964Y-72037024D01*
X176026044Y-71950931D01*
X175886365Y-71876947D01*
X175720741Y-71812546D01*
X175521985Y-71755204D01*
X175282910Y-71702397D01*
X174996332Y-71651600D01*
X174655063Y-71600290D01*
X174262269Y-71542454D01*
X173882549Y-71480346D01*
X173550521Y-71418088D01*
X173258764Y-71353884D01*
X172999854Y-71285938D01*
X172766367Y-71212453D01*
X172550881Y-71131635D01*
X172345971Y-71041687D01*
X172195377Y-70967509D01*
X172051530Y-70889450D01*
X171937773Y-70819764D01*
X171862998Y-70763930D01*
X171836098Y-70727429D01*
X171836892Y-70724740D01*
X171858561Y-70681724D01*
X171907690Y-70591645D01*
X171981371Y-70459544D01*
X172076695Y-70290466D01*
X172190753Y-70089455D01*
X172320637Y-69861552D01*
X172463438Y-69611802D01*
X172616248Y-69345248D01*
X172776158Y-69066934D01*
X172940260Y-68781902D01*
X173105644Y-68495197D01*
X173269403Y-68211860D01*
X173428627Y-67936937D01*
X173580408Y-67675469D01*
X173721838Y-67432501D01*
X173850008Y-67213076D01*
X173962009Y-67022237D01*
X174054933Y-66865028D01*
X174125871Y-66746491D01*
X174171915Y-66671671D01*
X174190155Y-66645610D01*
X174191121Y-66646350D01*
G36*
X170665672Y-72984726D02*
G01*
X170694047Y-73012065D01*
X170776784Y-73095439D01*
X170886214Y-73208945D01*
X171017021Y-73346795D01*
X171163886Y-73503198D01*
X171321492Y-73672365D01*
X171484521Y-73848506D01*
X171647655Y-74025832D01*
X171805576Y-74198553D01*
X171952966Y-74360879D01*
X172084508Y-74507020D01*
X172194883Y-74631188D01*
X172278773Y-74727591D01*
X172330862Y-74790441D01*
X172345830Y-74813948D01*
X172340693Y-74816544D01*
X172291570Y-74843957D01*
X172194409Y-74899227D01*
X172053304Y-74979996D01*
X171872347Y-75083910D01*
X171655630Y-75208610D01*
X171407248Y-75351743D01*
X171131291Y-75510950D01*
X170831853Y-75683877D01*
X170513026Y-75868167D01*
X170178903Y-76061464D01*
X170054016Y-76133735D01*
X169725767Y-76323613D01*
X169414716Y-76503428D01*
X169124909Y-76670848D01*
X168860391Y-76823542D01*
X168625208Y-76959178D01*
X168423405Y-77075422D01*
X168259027Y-77169942D01*
X168136119Y-77240407D01*
X168058728Y-77284484D01*
X168030898Y-77299841D01*
X168032150Y-77291663D01*
X168054986Y-77244661D01*
X168096987Y-77169573D01*
X168122752Y-77125128D01*
X168177545Y-77030347D01*
X168258174Y-76890755D01*
X168362019Y-76710889D01*
X168486462Y-76495284D01*
X168628886Y-76248480D01*
X168786670Y-75975012D01*
X168957197Y-75679418D01*
X169137848Y-75366235D01*
X169326005Y-75040000D01*
X169510243Y-74720646D01*
X169689360Y-74410374D01*
X169857787Y-74118824D01*
X170012994Y-73850367D01*
X170152451Y-73609370D01*
X170273628Y-73400204D01*
X170373996Y-73227238D01*
X170451025Y-73094843D01*
X170502184Y-73007386D01*
X170524944Y-72969238D01*
X170571641Y-72896403D01*
X170665672Y-72984726D01*
G37*
X170665672Y-72984726D02*
X170694047Y-73012065D01*
X170776784Y-73095439D01*
X170886214Y-73208945D01*
X171017021Y-73346795D01*
X171163886Y-73503198D01*
X171321492Y-73672365D01*
X171484521Y-73848506D01*
X171647655Y-74025832D01*
X171805576Y-74198553D01*
X171952966Y-74360879D01*
X172084508Y-74507020D01*
X172194883Y-74631188D01*
X172278773Y-74727591D01*
X172330862Y-74790441D01*
X172345830Y-74813948D01*
X172340693Y-74816544D01*
X172291570Y-74843957D01*
X172194409Y-74899227D01*
X172053304Y-74979996D01*
X171872347Y-75083910D01*
X171655630Y-75208610D01*
X171407248Y-75351743D01*
X171131291Y-75510950D01*
X170831853Y-75683877D01*
X170513026Y-75868167D01*
X170178903Y-76061464D01*
X170054016Y-76133735D01*
X169725767Y-76323613D01*
X169414716Y-76503428D01*
X169124909Y-76670848D01*
X168860391Y-76823542D01*
X168625208Y-76959178D01*
X168423405Y-77075422D01*
X168259027Y-77169942D01*
X168136119Y-77240407D01*
X168058728Y-77284484D01*
X168030898Y-77299841D01*
X168032150Y-77291663D01*
X168054986Y-77244661D01*
X168096987Y-77169573D01*
X168122752Y-77125128D01*
X168177545Y-77030347D01*
X168258174Y-76890755D01*
X168362019Y-76710889D01*
X168486462Y-76495284D01*
X168628886Y-76248480D01*
X168786670Y-75975012D01*
X168957197Y-75679418D01*
X169137848Y-75366235D01*
X169326005Y-75040000D01*
X169510243Y-74720646D01*
X169689360Y-74410374D01*
X169857787Y-74118824D01*
X170012994Y-73850367D01*
X170152451Y-73609370D01*
X170273628Y-73400204D01*
X170373996Y-73227238D01*
X170451025Y-73094843D01*
X170502184Y-73007386D01*
X170524944Y-72969238D01*
X170571641Y-72896403D01*
X170665672Y-72984726D01*
G36*
X177920095Y-73092080D02*
G01*
X177931604Y-73109250D01*
X177972730Y-73176692D01*
X178040359Y-73290401D01*
X178131901Y-73445937D01*
X178244767Y-73638864D01*
X178376368Y-73864743D01*
X178524116Y-74119136D01*
X178685422Y-74397606D01*
X178857696Y-74695715D01*
X179038351Y-75009025D01*
X179087895Y-75095043D01*
X179283800Y-75435151D01*
X179481018Y-75777509D01*
X179675520Y-76115125D01*
X179863277Y-76441007D01*
X180040262Y-76748164D01*
X180202444Y-77029603D01*
X180345796Y-77278332D01*
X180466289Y-77487360D01*
X180559894Y-77649695D01*
X181002061Y-78416342D01*
X174802152Y-78416342D01*
X174545843Y-78416319D01*
X173935000Y-78416085D01*
X173342864Y-78415604D01*
X172772319Y-78414889D01*
X172226247Y-78413952D01*
X171707531Y-78412807D01*
X171219054Y-78411464D01*
X170763699Y-78409937D01*
X170344348Y-78408238D01*
X169963886Y-78406379D01*
X169625194Y-78404373D01*
X169331156Y-78402231D01*
X169084654Y-78399966D01*
X168888572Y-78397592D01*
X168745792Y-78395118D01*
X168659197Y-78392560D01*
X168631671Y-78389927D01*
X168652109Y-78376608D01*
X168722622Y-78334167D01*
X168838443Y-78265841D01*
X168994861Y-78174342D01*
X169187166Y-78062380D01*
X169410646Y-77932666D01*
X169660592Y-77787908D01*
X169932292Y-77630819D01*
X170221036Y-77464109D01*
X170522112Y-77290487D01*
X170830811Y-77112665D01*
X171142421Y-76933352D01*
X171452232Y-76755259D01*
X171755533Y-76581097D01*
X172047613Y-76413576D01*
X172323762Y-76255406D01*
X172579268Y-76109298D01*
X172809422Y-75977962D01*
X173009512Y-75864109D01*
X173174828Y-75770449D01*
X173300659Y-75699692D01*
X173382294Y-75654548D01*
X173415022Y-75637729D01*
X173436379Y-75641898D01*
X173500716Y-75679817D01*
X173592443Y-75750065D01*
X173701480Y-75845339D01*
X173799690Y-75940713D01*
X173924778Y-76070633D01*
X174064737Y-76222311D01*
X174212393Y-76387396D01*
X174360571Y-76557536D01*
X174502097Y-76724381D01*
X174629797Y-76879578D01*
X174736495Y-77014778D01*
X174815018Y-77121628D01*
X174858191Y-77191778D01*
X174887012Y-77243010D01*
X174965287Y-77349032D01*
X175065917Y-77461825D01*
X175174553Y-77566924D01*
X175276848Y-77649861D01*
X175358455Y-77696172D01*
X175448584Y-77706876D01*
X175568853Y-77677291D01*
X175683158Y-77609453D01*
X175771866Y-77512106D01*
X175787227Y-77486850D01*
X175806784Y-77445487D01*
X175819531Y-77395708D01*
X175826285Y-77326819D01*
X175827863Y-77228124D01*
X175825082Y-77088929D01*
X175818762Y-76898537D01*
X175814233Y-76788404D01*
X175804609Y-76614234D01*
X175793251Y-76461799D01*
X175781217Y-76344498D01*
X175769566Y-76275732D01*
X175741358Y-76197176D01*
X175657733Y-76042480D01*
X175527790Y-75859183D01*
X175349941Y-75645134D01*
X175122600Y-75398180D01*
X175023944Y-75294132D01*
X174909876Y-75171393D01*
X174815729Y-75067330D01*
X174749248Y-74990533D01*
X174718178Y-74949593D01*
X174714984Y-74943092D01*
X174711154Y-74915107D01*
X174730290Y-74884078D01*
X174780230Y-74843319D01*
X174868813Y-74786143D01*
X175003876Y-74705864D01*
X175118695Y-74638844D01*
X175329984Y-74516247D01*
X175496342Y-74421018D01*
X175623356Y-74350066D01*
X175716613Y-74300299D01*
X175781701Y-74268626D01*
X175824208Y-74251954D01*
X175868194Y-74233456D01*
X175893903Y-74208615D01*
X175896308Y-74202756D01*
X175933923Y-74170168D01*
X176002670Y-74128196D01*
X176111438Y-74069621D01*
X176191748Y-74144384D01*
X176220115Y-74174673D01*
X176286111Y-74256987D01*
X176366693Y-74366891D01*
X176450365Y-74489062D01*
X176628672Y-74758978D01*
X176614678Y-76158470D01*
X176512787Y-76257467D01*
X176478549Y-76292759D01*
X176368753Y-76451320D01*
X176304661Y-76639870D01*
X176282824Y-76867561D01*
X176288247Y-76989559D01*
X176326522Y-77204756D01*
X176396282Y-77401166D01*
X176491484Y-77558764D01*
X176557590Y-77616228D01*
X176675099Y-77659875D01*
X176808122Y-77664909D01*
X176939632Y-77633656D01*
X177052603Y-77568440D01*
X177130007Y-77471586D01*
X177132540Y-77466337D01*
X177179327Y-77370451D01*
X177228879Y-77270244D01*
X177270945Y-77176174D01*
X177331288Y-77017621D01*
X177397864Y-76822145D01*
X177468359Y-76598457D01*
X177540458Y-76355269D01*
X177611850Y-76101290D01*
X177680220Y-75845232D01*
X177743254Y-75595804D01*
X177798640Y-75361719D01*
X177844064Y-75151687D01*
X177877212Y-74974418D01*
X177895771Y-74838624D01*
X177897428Y-74753014D01*
X177893695Y-74733565D01*
X177857317Y-74635112D01*
X177789814Y-74503398D01*
X177697110Y-74350331D01*
X177661529Y-74295170D01*
X177518565Y-74070245D01*
X177397040Y-73873544D01*
X177299634Y-73709665D01*
X177229029Y-73583210D01*
X177187904Y-73498780D01*
X177178939Y-73460974D01*
X177179977Y-73459641D01*
X177217090Y-73432410D01*
X177296404Y-73382638D01*
X177407053Y-73316952D01*
X177538168Y-73241977D01*
X177549253Y-73235752D01*
X177691615Y-73157425D01*
X177790763Y-73107473D01*
X177855813Y-73082317D01*
X177895885Y-73078379D01*
X177920095Y-73092080D01*
G37*
X177920095Y-73092080D02*
X177931604Y-73109250D01*
X177972730Y-73176692D01*
X178040359Y-73290401D01*
X178131901Y-73445937D01*
X178244767Y-73638864D01*
X178376368Y-73864743D01*
X178524116Y-74119136D01*
X178685422Y-74397606D01*
X178857696Y-74695715D01*
X179038351Y-75009025D01*
X179087895Y-75095043D01*
X179283800Y-75435151D01*
X179481018Y-75777509D01*
X179675520Y-76115125D01*
X179863277Y-76441007D01*
X180040262Y-76748164D01*
X180202444Y-77029603D01*
X180345796Y-77278332D01*
X180466289Y-77487360D01*
X180559894Y-77649695D01*
X181002061Y-78416342D01*
X174802152Y-78416342D01*
X174545843Y-78416319D01*
X173935000Y-78416085D01*
X173342864Y-78415604D01*
X172772319Y-78414889D01*
X172226247Y-78413952D01*
X171707531Y-78412807D01*
X171219054Y-78411464D01*
X170763699Y-78409937D01*
X170344348Y-78408238D01*
X169963886Y-78406379D01*
X169625194Y-78404373D01*
X169331156Y-78402231D01*
X169084654Y-78399966D01*
X168888572Y-78397592D01*
X168745792Y-78395118D01*
X168659197Y-78392560D01*
X168631671Y-78389927D01*
X168652109Y-78376608D01*
X168722622Y-78334167D01*
X168838443Y-78265841D01*
X168994861Y-78174342D01*
X169187166Y-78062380D01*
X169410646Y-77932666D01*
X169660592Y-77787908D01*
X169932292Y-77630819D01*
X170221036Y-77464109D01*
X170522112Y-77290487D01*
X170830811Y-77112665D01*
X171142421Y-76933352D01*
X171452232Y-76755259D01*
X171755533Y-76581097D01*
X172047613Y-76413576D01*
X172323762Y-76255406D01*
X172579268Y-76109298D01*
X172809422Y-75977962D01*
X173009512Y-75864109D01*
X173174828Y-75770449D01*
X173300659Y-75699692D01*
X173382294Y-75654548D01*
X173415022Y-75637729D01*
X173436379Y-75641898D01*
X173500716Y-75679817D01*
X173592443Y-75750065D01*
X173701480Y-75845339D01*
X173799690Y-75940713D01*
X173924778Y-76070633D01*
X174064737Y-76222311D01*
X174212393Y-76387396D01*
X174360571Y-76557536D01*
X174502097Y-76724381D01*
X174629797Y-76879578D01*
X174736495Y-77014778D01*
X174815018Y-77121628D01*
X174858191Y-77191778D01*
X174887012Y-77243010D01*
X174965287Y-77349032D01*
X175065917Y-77461825D01*
X175174553Y-77566924D01*
X175276848Y-77649861D01*
X175358455Y-77696172D01*
X175448584Y-77706876D01*
X175568853Y-77677291D01*
X175683158Y-77609453D01*
X175771866Y-77512106D01*
X175787227Y-77486850D01*
X175806784Y-77445487D01*
X175819531Y-77395708D01*
X175826285Y-77326819D01*
X175827863Y-77228124D01*
X175825082Y-77088929D01*
X175818762Y-76898537D01*
X175814233Y-76788404D01*
X175804609Y-76614234D01*
X175793251Y-76461799D01*
X175781217Y-76344498D01*
X175769566Y-76275732D01*
X175741358Y-76197176D01*
X175657733Y-76042480D01*
X175527790Y-75859183D01*
X175349941Y-75645134D01*
X175122600Y-75398180D01*
X175023944Y-75294132D01*
X174909876Y-75171393D01*
X174815729Y-75067330D01*
X174749248Y-74990533D01*
X174718178Y-74949593D01*
X174714984Y-74943092D01*
X174711154Y-74915107D01*
X174730290Y-74884078D01*
X174780230Y-74843319D01*
X174868813Y-74786143D01*
X175003876Y-74705864D01*
X175118695Y-74638844D01*
X175329984Y-74516247D01*
X175496342Y-74421018D01*
X175623356Y-74350066D01*
X175716613Y-74300299D01*
X175781701Y-74268626D01*
X175824208Y-74251954D01*
X175868194Y-74233456D01*
X175893903Y-74208615D01*
X175896308Y-74202756D01*
X175933923Y-74170168D01*
X176002670Y-74128196D01*
X176111438Y-74069621D01*
X176191748Y-74144384D01*
X176220115Y-74174673D01*
X176286111Y-74256987D01*
X176366693Y-74366891D01*
X176450365Y-74489062D01*
X176628672Y-74758978D01*
X176614678Y-76158470D01*
X176512787Y-76257467D01*
X176478549Y-76292759D01*
X176368753Y-76451320D01*
X176304661Y-76639870D01*
X176282824Y-76867561D01*
X176288247Y-76989559D01*
X176326522Y-77204756D01*
X176396282Y-77401166D01*
X176491484Y-77558764D01*
X176557590Y-77616228D01*
X176675099Y-77659875D01*
X176808122Y-77664909D01*
X176939632Y-77633656D01*
X177052603Y-77568440D01*
X177130007Y-77471586D01*
X177132540Y-77466337D01*
X177179327Y-77370451D01*
X177228879Y-77270244D01*
X177270945Y-77176174D01*
X177331288Y-77017621D01*
X177397864Y-76822145D01*
X177468359Y-76598457D01*
X177540458Y-76355269D01*
X177611850Y-76101290D01*
X177680220Y-75845232D01*
X177743254Y-75595804D01*
X177798640Y-75361719D01*
X177844064Y-75151687D01*
X177877212Y-74974418D01*
X177895771Y-74838624D01*
X177897428Y-74753014D01*
X177893695Y-74733565D01*
X177857317Y-74635112D01*
X177789814Y-74503398D01*
X177697110Y-74350331D01*
X177661529Y-74295170D01*
X177518565Y-74070245D01*
X177397040Y-73873544D01*
X177299634Y-73709665D01*
X177229029Y-73583210D01*
X177187904Y-73498780D01*
X177178939Y-73460974D01*
X177179977Y-73459641D01*
X177217090Y-73432410D01*
X177296404Y-73382638D01*
X177407053Y-73316952D01*
X177538168Y-73241977D01*
X177549253Y-73235752D01*
X177691615Y-73157425D01*
X177790763Y-73107473D01*
X177855813Y-73082317D01*
X177895885Y-73078379D01*
X177920095Y-73092080D01*
%TO.C,kibuzzard-629F66E0*%
G36*
X119651509Y-123034018D02*
G01*
X119539347Y-122846887D01*
X119446067Y-122649663D01*
X119372567Y-122444246D01*
X119319556Y-122232613D01*
X119287544Y-122016804D01*
X119276839Y-121798896D01*
X119276839Y-120621500D01*
X120059344Y-120621500D01*
X120073730Y-120873516D01*
X120116891Y-121073938D01*
X120267703Y-121347782D01*
X120476062Y-121482719D01*
X120706250Y-121518438D01*
X120870953Y-121497106D01*
X121015812Y-121433110D01*
X121230125Y-121204907D01*
X121337281Y-121414754D01*
X121476187Y-121544235D01*
X121634938Y-121611207D01*
X121801625Y-121633532D01*
X122005520Y-121614680D01*
X122172703Y-121558125D01*
X122410828Y-121353735D01*
X122487227Y-121212844D01*
X122537828Y-121048141D01*
X122566105Y-120865082D01*
X122575531Y-120669125D01*
X122571066Y-120503430D01*
X122557672Y-120331782D01*
X122535348Y-120158149D01*
X122504094Y-119986500D01*
X120118875Y-119986500D01*
X120077203Y-120292094D01*
X120059344Y-120621500D01*
X119276839Y-120621500D01*
X119276839Y-119010188D01*
X120031562Y-119010188D01*
X120053391Y-119246328D01*
X120103000Y-119430875D01*
X120162531Y-119563828D01*
X120210156Y-119645188D01*
X120599094Y-119518188D01*
X120497891Y-119297922D01*
X120456219Y-119002250D01*
X120497891Y-118778016D01*
X120636797Y-118583547D01*
X120896750Y-118444641D01*
X121079312Y-118404457D01*
X121301562Y-118391063D01*
X121560193Y-118407158D01*
X121775167Y-118455445D01*
X121946484Y-118535922D01*
X122114660Y-118726918D01*
X122170719Y-119010188D01*
X122127063Y-119325703D01*
X122039750Y-119526125D01*
X122424719Y-119649157D01*
X122541797Y-119369360D01*
X122581980Y-119179356D01*
X122595375Y-118962563D01*
X122558333Y-118643299D01*
X122447208Y-118378716D01*
X122262000Y-118168813D01*
X122077701Y-118049006D01*
X121858180Y-117963430D01*
X121603436Y-117912084D01*
X121313469Y-117894969D01*
X121024742Y-117915805D01*
X120769750Y-117978313D01*
X120549980Y-118078028D01*
X120366922Y-118210485D01*
X120222062Y-118373203D01*
X120116891Y-118563703D01*
X120052895Y-118777520D01*
X120031562Y-119010188D01*
X119276839Y-119010188D01*
X119276839Y-116692438D01*
X120059344Y-116692438D01*
X120080731Y-116981275D01*
X120144892Y-117223368D01*
X120251828Y-117418719D01*
X120407271Y-117562035D01*
X120616953Y-117648025D01*
X120880875Y-117676688D01*
X121147443Y-117647804D01*
X121359771Y-117561153D01*
X121517859Y-117416735D01*
X121627000Y-117219400D01*
X121692484Y-116973999D01*
X121714313Y-116680532D01*
X121714313Y-116505907D01*
X122543781Y-116505907D01*
X122543781Y-116017750D01*
X120118875Y-116017750D01*
X120091094Y-116178485D01*
X120073234Y-116359063D01*
X120063312Y-116537657D01*
X120059344Y-116692438D01*
X119276839Y-116692438D01*
X119276839Y-113065000D01*
X120642750Y-113065000D01*
X120646719Y-113178110D01*
X120660609Y-113334875D01*
X120684422Y-113503547D01*
X120722125Y-113656344D01*
X121174562Y-113569032D01*
X121150750Y-113455922D01*
X121128922Y-113322969D01*
X121115031Y-113192000D01*
X121111062Y-113084844D01*
X121120984Y-112882438D01*
X121158687Y-112680032D01*
X122543781Y-112680032D01*
X122543781Y-112187907D01*
X120801500Y-112187907D01*
X120737008Y-112384856D01*
X120686406Y-112586766D01*
X120653664Y-112808520D01*
X120642750Y-113065000D01*
X119276839Y-113065000D01*
X119276839Y-110854407D01*
X120630844Y-110854407D01*
X120657964Y-111107525D01*
X120739323Y-111316545D01*
X120874922Y-111481469D01*
X121062556Y-111600532D01*
X121300019Y-111671969D01*
X121587313Y-111695782D01*
X121686531Y-111693797D01*
X121769875Y-111687844D01*
X121769875Y-110477375D01*
X121933090Y-110515078D01*
X122057609Y-110628188D01*
X122136488Y-110800828D01*
X122162781Y-111017125D01*
X122131031Y-111296922D01*
X122067531Y-111521157D01*
X122484250Y-111588625D01*
X122557672Y-111318750D01*
X122587438Y-110997282D01*
X122572059Y-110771559D01*
X122525922Y-110570641D01*
X122449523Y-110396016D01*
X122343359Y-110249172D01*
X122207926Y-110131598D01*
X122043719Y-110044782D01*
X121850242Y-109991203D01*
X121627000Y-109973344D01*
X121395820Y-109992196D01*
X121194406Y-110048750D01*
X121023254Y-110136063D01*
X120882859Y-110247188D01*
X120773223Y-110379149D01*
X120694344Y-110528969D01*
X120646719Y-110689703D01*
X120630844Y-110854407D01*
X119276839Y-110854407D01*
X119276839Y-108600157D01*
X119789469Y-108600157D01*
X120722125Y-108600157D01*
X120656641Y-108798594D01*
X120638781Y-108989094D01*
X120656145Y-109160743D01*
X120708234Y-109310563D01*
X120906672Y-109542735D01*
X121048059Y-109624590D01*
X121214250Y-109683625D01*
X121402766Y-109719344D01*
X121611125Y-109731250D01*
X121822957Y-109716368D01*
X122013953Y-109671719D01*
X122181137Y-109598297D01*
X122321531Y-109497094D01*
X122434145Y-109369102D01*
X122517984Y-109215313D01*
X122570074Y-109036719D01*
X122587438Y-108834313D01*
X122580492Y-108641828D01*
X122559656Y-108445375D01*
X122527906Y-108262813D01*
X122488219Y-108112000D01*
X119872812Y-108112000D01*
X119789469Y-108600157D01*
X119276839Y-108600157D01*
X119276839Y-107242844D01*
X120658625Y-107242844D01*
X120706250Y-107496844D01*
X120849125Y-107653610D01*
X121089234Y-107731000D01*
X121246496Y-107745883D01*
X121428562Y-107750844D01*
X122543781Y-107750844D01*
X122543781Y-107353969D01*
X121404750Y-107353969D01*
X121226156Y-107340078D01*
X121122969Y-107304360D01*
X121075344Y-107252766D01*
X121063437Y-107191250D01*
X121069391Y-107115844D01*
X121091219Y-107044407D01*
X121257906Y-107064250D01*
X121460312Y-107072188D01*
X121833375Y-107072188D01*
X121833375Y-106675313D01*
X121404750Y-106675313D01*
X121138844Y-106637610D01*
X121063437Y-106516563D01*
X121067406Y-106459016D01*
X121079312Y-106393532D01*
X122543781Y-106393532D01*
X122543781Y-105996657D01*
X120749906Y-105996657D01*
X120682437Y-106302250D01*
X120658625Y-106568157D01*
X120684422Y-106752703D01*
X120769750Y-106893594D01*
X120692359Y-107052344D01*
X120658625Y-107242844D01*
X119276839Y-107242844D01*
X119276839Y-104849688D01*
X120630844Y-104849688D01*
X120644238Y-105060528D01*
X120684422Y-105232672D01*
X120835234Y-105476750D01*
X121073359Y-105607719D01*
X121388875Y-105647407D01*
X122500125Y-105647407D01*
X122555688Y-105329907D01*
X122579500Y-105106664D01*
X122587438Y-104857625D01*
X122555688Y-104534172D01*
X122450516Y-104286125D01*
X122260016Y-104127375D01*
X121972281Y-104071813D01*
X121698438Y-104135313D01*
X121519844Y-104305969D01*
X121422609Y-104552032D01*
X121392844Y-104841750D01*
X121400781Y-105021336D01*
X121424594Y-105179094D01*
X121365062Y-105179094D01*
X121132891Y-105091782D01*
X121062941Y-104972719D01*
X121039625Y-104790157D01*
X121059469Y-104522266D01*
X121107094Y-104313907D01*
X120714187Y-104246438D01*
X120656641Y-104504407D01*
X120637293Y-104674071D01*
X120630844Y-104849688D01*
X119276839Y-104849688D01*
X119276839Y-102651000D01*
X119789469Y-102651000D01*
X120694344Y-102651000D01*
X120656641Y-102793875D01*
X120638781Y-102940719D01*
X120654160Y-103130227D01*
X120700297Y-103286000D01*
X120874922Y-103508250D01*
X121144797Y-103627313D01*
X121309996Y-103654102D01*
X121492062Y-103663032D01*
X122543781Y-103663032D01*
X122543781Y-103174875D01*
X121555563Y-103174875D01*
X121330336Y-103159993D01*
X121178531Y-103115344D01*
X121063437Y-102889125D01*
X121079312Y-102756172D01*
X121107094Y-102651000D01*
X122543781Y-102651000D01*
X122543781Y-102162844D01*
X119872812Y-102162844D01*
X119789469Y-102651000D01*
X119276839Y-102651000D01*
X119276839Y-101170657D01*
X120630844Y-101170657D01*
X120654656Y-101472282D01*
X120734031Y-101746125D01*
X121126937Y-101638969D01*
X121077328Y-101462360D01*
X121055500Y-101214313D01*
X121097172Y-100922610D01*
X121212266Y-100734094D01*
X121388875Y-100630907D01*
X121611125Y-100599157D01*
X121841313Y-100635371D01*
X122015938Y-100744016D01*
X122126070Y-100939973D01*
X122162781Y-101238125D01*
X122146906Y-101478235D01*
X122095313Y-101706438D01*
X122496156Y-101777875D01*
X122561641Y-101527844D01*
X122580988Y-101368102D01*
X122587438Y-101182563D01*
X122568586Y-100917153D01*
X122512031Y-100692422D01*
X122422734Y-100506387D01*
X122305656Y-100357063D01*
X122162781Y-100243457D01*
X121996094Y-100164578D01*
X121810555Y-100118442D01*
X121611125Y-100103063D01*
X121414672Y-100118938D01*
X121230125Y-100166563D01*
X121062941Y-100246930D01*
X120918578Y-100361032D01*
X120799516Y-100509364D01*
X120708234Y-100692422D01*
X120650191Y-100912192D01*
X120630844Y-101170657D01*
X119276839Y-101170657D01*
X119276839Y-97320969D01*
X120658625Y-97320969D01*
X120706250Y-97574969D01*
X120849125Y-97731735D01*
X121089234Y-97809125D01*
X121246496Y-97824008D01*
X121428562Y-97828969D01*
X122543781Y-97828969D01*
X122543781Y-97432094D01*
X121404750Y-97432094D01*
X121226156Y-97418203D01*
X121122969Y-97382485D01*
X121075344Y-97330891D01*
X121063437Y-97269375D01*
X121069391Y-97193969D01*
X121091219Y-97122532D01*
X121257906Y-97142375D01*
X121460312Y-97150313D01*
X121833375Y-97150313D01*
X121833375Y-96753438D01*
X121404750Y-96753438D01*
X121138844Y-96715735D01*
X121063437Y-96594688D01*
X121067406Y-96537141D01*
X121079312Y-96471657D01*
X122543781Y-96471657D01*
X122543781Y-96074782D01*
X120749906Y-96074782D01*
X120682437Y-96380375D01*
X120658625Y-96646282D01*
X120684422Y-96830828D01*
X120769750Y-96971719D01*
X120692359Y-97130469D01*
X120658625Y-97320969D01*
X119276839Y-97320969D01*
X119276839Y-95205625D01*
X120642750Y-95205625D01*
X120646719Y-95318735D01*
X120660609Y-95475500D01*
X120684422Y-95644172D01*
X120722125Y-95796969D01*
X121174562Y-95709657D01*
X121150750Y-95596547D01*
X121128922Y-95463594D01*
X121115031Y-95332625D01*
X121111062Y-95225469D01*
X121120984Y-95023063D01*
X121158687Y-94820657D01*
X122543781Y-94820657D01*
X122543781Y-94328532D01*
X120801500Y-94328532D01*
X120737008Y-94525481D01*
X120686406Y-94727391D01*
X120653664Y-94949145D01*
X120642750Y-95205625D01*
X119276839Y-95205625D01*
X119276839Y-92995032D01*
X120630844Y-92995032D01*
X120657964Y-93248150D01*
X120739323Y-93457170D01*
X120874922Y-93622094D01*
X121062556Y-93741157D01*
X121300019Y-93812594D01*
X121587313Y-93836407D01*
X121686531Y-93834422D01*
X121769875Y-93828469D01*
X121769875Y-92618000D01*
X121933090Y-92655703D01*
X122057609Y-92768813D01*
X122136488Y-92941453D01*
X122162781Y-93157750D01*
X122131031Y-93437547D01*
X122067531Y-93661782D01*
X122484250Y-93729250D01*
X122557672Y-93459375D01*
X122587438Y-93137907D01*
X122572059Y-92912184D01*
X122525922Y-92711266D01*
X122449523Y-92536641D01*
X122343359Y-92389797D01*
X122207926Y-92272223D01*
X122043719Y-92185407D01*
X121850242Y-92131828D01*
X121627000Y-92113969D01*
X121395820Y-92132821D01*
X121194406Y-92189375D01*
X121023254Y-92276688D01*
X120882859Y-92387813D01*
X120773223Y-92519774D01*
X120694344Y-92669594D01*
X120646719Y-92830328D01*
X120630844Y-92995032D01*
X119276839Y-92995032D01*
X119276839Y-91062250D01*
X120130781Y-91062250D01*
X120678469Y-91062250D01*
X120678469Y-91844094D01*
X121083281Y-91844094D01*
X121083281Y-91062250D01*
X121837344Y-91062250D01*
X122004031Y-91082094D01*
X122103250Y-91137657D01*
X122150875Y-91224969D01*
X122162781Y-91340063D01*
X122158813Y-91465078D01*
X122144922Y-91576203D01*
X122115156Y-91687328D01*
X122063563Y-91812344D01*
X122484250Y-91879813D01*
X122563625Y-91588110D01*
X122587438Y-91284500D01*
X122559656Y-90982875D01*
X122452500Y-90760625D01*
X122228266Y-90621719D01*
X122061082Y-90586000D01*
X121849250Y-90574094D01*
X121083281Y-90574094D01*
X121083281Y-90149438D01*
X120678469Y-90149438D01*
X120678469Y-90574094D01*
X120210156Y-90574094D01*
X120130781Y-91062250D01*
X119276839Y-91062250D01*
X119276839Y-87113344D01*
X120638781Y-87113344D01*
X120649806Y-87322806D01*
X120682878Y-87543733D01*
X120738000Y-87776125D01*
X122317563Y-87776125D01*
X122595375Y-87751651D01*
X122820271Y-87678230D01*
X122992250Y-87555860D01*
X123113517Y-87379250D01*
X123186278Y-87143110D01*
X123210531Y-86847438D01*
X123201602Y-86676286D01*
X123174813Y-86512078D01*
X123091469Y-86204500D01*
X122678719Y-86295782D01*
X122760078Y-86537875D01*
X122797781Y-86855375D01*
X122768016Y-87065719D01*
X122686656Y-87196688D01*
X122565609Y-87264157D01*
X122416781Y-87284000D01*
X122341375Y-87284000D01*
X122400906Y-87095485D01*
X122420750Y-86910938D01*
X122395174Y-86687144D01*
X122318444Y-86502598D01*
X122190563Y-86357297D01*
X122017260Y-86252566D01*
X121804271Y-86189728D01*
X121551594Y-86168782D01*
X121270694Y-86197004D01*
X121041830Y-86281670D01*
X120865000Y-86422782D01*
X120739323Y-86612400D01*
X120663917Y-86842587D01*
X120638781Y-87113344D01*
X119276839Y-87113344D01*
X119276839Y-85045625D01*
X120638781Y-85045625D01*
X120654160Y-85249024D01*
X120700297Y-85414719D01*
X120874922Y-85646891D01*
X121144797Y-85767938D01*
X121309996Y-85794727D01*
X121492062Y-85803657D01*
X122543781Y-85803657D01*
X122543781Y-85315500D01*
X121555563Y-85315500D01*
X121330336Y-85300618D01*
X121178531Y-85255969D01*
X121063437Y-85013875D01*
X121067406Y-84904735D01*
X121079312Y-84791625D01*
X122543781Y-84791625D01*
X122543781Y-84303469D01*
X120738000Y-84303469D01*
X120703273Y-84449817D01*
X120670531Y-84626922D01*
X120646719Y-84827840D01*
X120638781Y-85045625D01*
X119276839Y-85045625D01*
X119276839Y-83065219D01*
X120630844Y-83065219D01*
X120648207Y-83251254D01*
X120700297Y-83420422D01*
X120784633Y-83570243D01*
X120898734Y-83698235D01*
X121040617Y-83801918D01*
X121208297Y-83878813D01*
X121398301Y-83926438D01*
X121607156Y-83942313D01*
X121818988Y-83926438D01*
X122009984Y-83878813D01*
X122178160Y-83802414D01*
X122321531Y-83700219D01*
X122437617Y-83573715D01*
X122523938Y-83424391D01*
X122577516Y-83254231D01*
X122595375Y-83065219D01*
X122577516Y-82876207D01*
X122523938Y-82706047D01*
X122437617Y-82556227D01*
X122321531Y-82428235D01*
X122178160Y-82324551D01*
X122009984Y-82247657D01*
X121818988Y-82200032D01*
X121607156Y-82184157D01*
X121398301Y-82200528D01*
X121208297Y-82249641D01*
X121040617Y-82328024D01*
X120898734Y-82432203D01*
X120784633Y-82560692D01*
X120700297Y-82712000D01*
X120648207Y-82881664D01*
X120630844Y-83065219D01*
X119276839Y-83065219D01*
X119276839Y-80858594D01*
X120087125Y-80858594D01*
X122138969Y-80858594D01*
X122138969Y-81910313D01*
X122543781Y-81910313D01*
X122543781Y-80366469D01*
X120087125Y-80366469D01*
X120087125Y-80858594D01*
X119276839Y-80858594D01*
X119276839Y-80201105D01*
X119287544Y-79983197D01*
X119319556Y-79767387D01*
X119372567Y-79555755D01*
X119446067Y-79350337D01*
X119539347Y-79153113D01*
X119651509Y-78965982D01*
X119781473Y-78790746D01*
X119927987Y-78629092D01*
X120089641Y-78482578D01*
X120264878Y-78352613D01*
X120452009Y-78240451D01*
X120649233Y-78147171D01*
X120854650Y-78073672D01*
X121066283Y-78020661D01*
X121282092Y-77988648D01*
X121500000Y-77977943D01*
X121717908Y-77988648D01*
X121933717Y-78020661D01*
X122145350Y-78073672D01*
X122350767Y-78147171D01*
X122547991Y-78240451D01*
X122735122Y-78352613D01*
X122910359Y-78482578D01*
X123072013Y-78629092D01*
X123218527Y-78790746D01*
X123348491Y-78965982D01*
X123460653Y-79153113D01*
X123553933Y-79350337D01*
X123627433Y-79555755D01*
X123680444Y-79767387D01*
X123712456Y-79983197D01*
X123723161Y-80201105D01*
X123723161Y-121798896D01*
X123712456Y-122016804D01*
X123680444Y-122232613D01*
X123627433Y-122444246D01*
X123553933Y-122649663D01*
X123460653Y-122846887D01*
X123348491Y-123034018D01*
X123218527Y-123209254D01*
X123072012Y-123370908D01*
X122910358Y-123517423D01*
X122735122Y-123647387D01*
X122547991Y-123759549D01*
X122350767Y-123852829D01*
X122145350Y-123926328D01*
X121933717Y-123979339D01*
X121717908Y-124011352D01*
X121500000Y-124022057D01*
X121282092Y-124011352D01*
X121066283Y-123979339D01*
X120854650Y-123926328D01*
X120649233Y-123852829D01*
X120452009Y-123759549D01*
X120264878Y-123647387D01*
X120089642Y-123517423D01*
X119927988Y-123370908D01*
X119781473Y-123209254D01*
X119651509Y-123034018D01*
G37*
G36*
X121837344Y-82702575D02*
G01*
X122015938Y-82769547D01*
X122132023Y-82886129D01*
X122170719Y-83057282D01*
X122132023Y-83224465D01*
X122015938Y-83345016D01*
X121837344Y-83417942D01*
X121611125Y-83442250D01*
X121385402Y-83419926D01*
X121208297Y-83352953D01*
X121093699Y-83236371D01*
X121055500Y-83065219D01*
X121093699Y-82898036D01*
X121208297Y-82777485D01*
X121385402Y-82704559D01*
X121611125Y-82680250D01*
X121837344Y-82702575D01*
G37*
G36*
X122162781Y-108717235D02*
G01*
X122166750Y-108822407D01*
X122134504Y-108993063D01*
X122037766Y-109124032D01*
X121863637Y-109207375D01*
X121599219Y-109235157D01*
X121368039Y-109213825D01*
X121198375Y-109149828D01*
X121094195Y-109042176D01*
X121059469Y-108889875D01*
X121081297Y-108733110D01*
X121134875Y-108600157D01*
X122146906Y-108600157D01*
X122162781Y-108717235D01*
G37*
G36*
X121754496Y-86685711D02*
G01*
X121902828Y-86748219D01*
X122023875Y-87010157D01*
X122004031Y-87158985D01*
X121952438Y-87284000D01*
X121055500Y-87284000D01*
X121039625Y-87184782D01*
X121035656Y-87093500D01*
X121092983Y-86855375D01*
X121264962Y-86712500D01*
X121551594Y-86664875D01*
X121754496Y-86685711D01*
G37*
G36*
X121289656Y-116704344D02*
G01*
X121266340Y-116909727D01*
X121196391Y-117057563D01*
X121069887Y-117146860D01*
X120876906Y-117176625D01*
X120693848Y-117147356D01*
X120573297Y-117059547D01*
X120506324Y-116923121D01*
X120484000Y-116748000D01*
X120485984Y-116626953D01*
X120495906Y-116505907D01*
X121289656Y-116505907D01*
X121289656Y-116704344D01*
G37*
G36*
X122146906Y-120587766D02*
G01*
X122150875Y-120708813D01*
X122136984Y-120871532D01*
X122085391Y-121012422D01*
X121978234Y-121113625D01*
X121801625Y-121153313D01*
X121545641Y-121040203D01*
X121468250Y-120736594D01*
X121468250Y-120474657D01*
X122135000Y-120474657D01*
X122146906Y-120587766D01*
G37*
G36*
X121432531Y-93364125D02*
G01*
X121287672Y-93344282D01*
X121162656Y-93280782D01*
X121073359Y-93169657D01*
X121039625Y-93002969D01*
X121071375Y-92838266D01*
X121158687Y-92723172D01*
X121285687Y-92651735D01*
X121432531Y-92618000D01*
X121432531Y-93364125D01*
G37*
G36*
X121432531Y-111223500D02*
G01*
X121287672Y-111203657D01*
X121162656Y-111140157D01*
X121073359Y-111029032D01*
X121039625Y-110862344D01*
X121071375Y-110697641D01*
X121158687Y-110582547D01*
X121285687Y-110511110D01*
X121432531Y-110477375D01*
X121432531Y-111223500D01*
G37*
G36*
X121063437Y-120665157D02*
G01*
X120982078Y-120946938D01*
X120757844Y-121042188D01*
X120616953Y-121014407D01*
X120533609Y-120939000D01*
X120493922Y-120827875D01*
X120484000Y-120696907D01*
X120487969Y-120581813D01*
X120499875Y-120474657D01*
X121063437Y-120474657D01*
X121063437Y-120665157D01*
G37*
G36*
X122140953Y-104647282D02*
G01*
X122194531Y-104893344D01*
X122192547Y-105048125D01*
X122182625Y-105179094D01*
X121754000Y-105179094D01*
X121740109Y-105064000D01*
X121734156Y-104940969D01*
X121744078Y-104794125D01*
X121777813Y-104669110D01*
X121845281Y-104583782D01*
X121960375Y-104552032D01*
X122140953Y-104647282D01*
G37*
%TO.C,kibuzzard-629F65FE*%
G36*
X158249543Y-137742157D02*
G01*
X158433710Y-137755742D01*
X158616987Y-137778347D01*
X158798935Y-137809918D01*
X158979115Y-137850379D01*
X159157092Y-137899632D01*
X159332438Y-137957558D01*
X159504731Y-138024019D01*
X159673555Y-138098853D01*
X159838504Y-138181881D01*
X159999180Y-138272903D01*
X160155196Y-138371700D01*
X160306176Y-138478032D01*
X160451758Y-138591645D01*
X160591589Y-138712264D01*
X160725333Y-138839599D01*
X160852668Y-138973343D01*
X160973287Y-139113175D01*
X161086900Y-139258756D01*
X161193233Y-139409736D01*
X161292029Y-139565753D01*
X161383051Y-139726429D01*
X161466079Y-139891377D01*
X161540914Y-140060201D01*
X161607374Y-140232494D01*
X161665301Y-140407840D01*
X161714554Y-140585817D01*
X161755014Y-140765997D01*
X161786585Y-140947945D01*
X161809190Y-141131223D01*
X161822775Y-141315389D01*
X161827307Y-141500000D01*
X161822775Y-141684611D01*
X161809190Y-141868777D01*
X161786585Y-142052055D01*
X161755014Y-142234003D01*
X161714554Y-142414183D01*
X161665301Y-142592160D01*
X161607374Y-142767506D01*
X161540914Y-142939799D01*
X161466079Y-143108623D01*
X161383051Y-143273571D01*
X161292029Y-143434247D01*
X161193233Y-143590264D01*
X161086900Y-143741244D01*
X160973287Y-143886825D01*
X160852668Y-144026657D01*
X160725333Y-144160401D01*
X160591589Y-144287736D01*
X160451758Y-144408355D01*
X160306176Y-144521968D01*
X160155196Y-144628300D01*
X159999180Y-144727097D01*
X159838504Y-144818119D01*
X159673555Y-144901147D01*
X159504731Y-144975981D01*
X159332438Y-145042442D01*
X159157092Y-145100368D01*
X158979115Y-145149621D01*
X158798935Y-145190082D01*
X158616987Y-145221653D01*
X158433710Y-145244258D01*
X158249543Y-145257843D01*
X158064932Y-145262375D01*
X124435068Y-145262375D01*
X124250457Y-145257843D01*
X124066290Y-145244258D01*
X123883013Y-145221653D01*
X123701065Y-145190082D01*
X123520885Y-145149621D01*
X123342908Y-145100368D01*
X123167562Y-145042442D01*
X122995269Y-144975981D01*
X122826445Y-144901147D01*
X122661496Y-144818119D01*
X122500820Y-144727097D01*
X122344804Y-144628300D01*
X122193824Y-144521968D01*
X122048242Y-144408355D01*
X121908411Y-144287736D01*
X121774667Y-144160401D01*
X121647332Y-144026657D01*
X121526713Y-143886825D01*
X121413100Y-143741244D01*
X121306767Y-143590264D01*
X121207971Y-143434247D01*
X121116949Y-143273571D01*
X121033921Y-143108623D01*
X120959086Y-142939799D01*
X120892626Y-142767506D01*
X120834699Y-142592160D01*
X120785446Y-142414183D01*
X120744986Y-142234003D01*
X120713415Y-142052055D01*
X120690810Y-141868777D01*
X120685271Y-141793688D01*
X144278818Y-141793688D01*
X144294693Y-142005520D01*
X144342318Y-142196516D01*
X144418716Y-142364691D01*
X144520911Y-142508063D01*
X144647415Y-142624148D01*
X144796740Y-142710469D01*
X144966900Y-142764047D01*
X145155911Y-142781906D01*
X145344923Y-142764047D01*
X145452060Y-142730313D01*
X146386224Y-142730313D01*
X146874380Y-142730313D01*
X146874380Y-141742094D01*
X146889263Y-141516867D01*
X146933911Y-141365062D01*
X147176005Y-141249969D01*
X147285146Y-141253937D01*
X147398255Y-141265844D01*
X147398255Y-142730313D01*
X147886411Y-142730313D01*
X147886411Y-142416781D01*
X150755818Y-142416781D01*
X150862974Y-142682688D01*
X151109036Y-142773969D01*
X151243974Y-142750156D01*
X151357083Y-142680703D01*
X151436458Y-142569578D01*
X151466224Y-142416781D01*
X151436458Y-142267953D01*
X151357083Y-142158813D01*
X151243974Y-142091344D01*
X151109036Y-142067531D01*
X150862974Y-142158813D01*
X150755818Y-142416781D01*
X147886411Y-142416781D01*
X147886411Y-140924531D01*
X147819508Y-140908656D01*
X152267911Y-140908656D01*
X152355224Y-141361094D01*
X152468333Y-141337281D01*
X152601286Y-141315453D01*
X152732255Y-141301562D01*
X152839411Y-141297594D01*
X153041818Y-141307516D01*
X153244224Y-141345219D01*
X153244224Y-142730313D01*
X153736349Y-142730313D01*
X153736349Y-141773844D01*
X154228474Y-141773844D01*
X154230458Y-141873063D01*
X154236411Y-141956406D01*
X155446880Y-141956406D01*
X155409177Y-142119621D01*
X155296068Y-142244141D01*
X155123427Y-142323020D01*
X154907130Y-142349313D01*
X154627333Y-142317563D01*
X154403099Y-142254063D01*
X154335630Y-142670781D01*
X154605505Y-142744203D01*
X154926974Y-142773969D01*
X155152697Y-142758590D01*
X155353615Y-142712453D01*
X155528240Y-142636055D01*
X155675083Y-142529891D01*
X155792658Y-142394457D01*
X155879474Y-142230250D01*
X155926732Y-142059594D01*
X156232693Y-142059594D01*
X156288751Y-142365684D01*
X156456927Y-142593391D01*
X156632214Y-142698122D01*
X156859094Y-142760960D01*
X157137568Y-142781906D01*
X157412404Y-142765535D01*
X157625724Y-142716422D01*
X157899568Y-142595375D01*
X157756693Y-142198500D01*
X157500708Y-142317563D01*
X157335509Y-142359234D01*
X157137568Y-142373125D01*
X156933177Y-142347328D01*
X156804193Y-142275891D01*
X156738708Y-142172703D01*
X156720849Y-142055625D01*
X156764505Y-141920688D01*
X156875630Y-141815516D01*
X157026443Y-141732172D01*
X157193130Y-141662719D01*
X157423318Y-141571438D01*
X157639615Y-141440469D01*
X157800349Y-141244016D01*
X157863849Y-140952312D01*
X157807790Y-140644734D01*
X157639615Y-140412562D01*
X157471384Y-140304524D01*
X157265670Y-140239701D01*
X157022474Y-140218094D01*
X156810642Y-140230992D01*
X156627583Y-140269687D01*
X156343818Y-140384781D01*
X156486693Y-140761812D01*
X156706958Y-140666562D01*
X156986755Y-140626875D01*
X157202832Y-140658184D01*
X157332477Y-140752111D01*
X157375693Y-140908656D01*
X157336005Y-141033672D01*
X157234802Y-141128922D01*
X157095896Y-141202344D01*
X156943099Y-141261875D01*
X156702990Y-141359109D01*
X156472802Y-141501984D01*
X156300161Y-141724234D01*
X156249560Y-141874551D01*
X156232693Y-142059594D01*
X155926732Y-142059594D01*
X155933052Y-142036773D01*
X155950911Y-141813531D01*
X155932060Y-141582352D01*
X155875505Y-141380937D01*
X155788193Y-141209785D01*
X155677068Y-141069391D01*
X155545107Y-140959754D01*
X155395286Y-140880875D01*
X155234552Y-140833250D01*
X155069849Y-140817375D01*
X154816731Y-140844495D01*
X154607710Y-140925854D01*
X154442786Y-141061453D01*
X154323724Y-141249087D01*
X154252286Y-141486550D01*
X154228474Y-141773844D01*
X153736349Y-141773844D01*
X153736349Y-140988031D01*
X153539400Y-140923539D01*
X153337490Y-140872937D01*
X153115736Y-140840195D01*
X152859255Y-140829281D01*
X152746146Y-140833250D01*
X152589380Y-140847141D01*
X152420708Y-140870953D01*
X152267911Y-140908656D01*
X147819508Y-140908656D01*
X147740064Y-140889805D01*
X147562958Y-140857062D01*
X147362040Y-140833250D01*
X147144255Y-140825312D01*
X146940857Y-140840691D01*
X146775161Y-140886828D01*
X146542990Y-141061453D01*
X146421943Y-141331328D01*
X146395154Y-141496527D01*
X146386224Y-141678594D01*
X146386224Y-142730313D01*
X145452060Y-142730313D01*
X145515083Y-142710469D01*
X145664904Y-142624148D01*
X145792896Y-142508063D01*
X145896579Y-142364691D01*
X145973474Y-142196516D01*
X146021099Y-142005520D01*
X146036974Y-141793688D01*
X146020603Y-141584832D01*
X145971490Y-141394828D01*
X145893107Y-141227148D01*
X145788927Y-141085266D01*
X145660439Y-140971164D01*
X145509130Y-140886828D01*
X145339466Y-140834738D01*
X145155911Y-140817375D01*
X144969876Y-140834738D01*
X144800708Y-140886828D01*
X144650888Y-140971164D01*
X144522896Y-141085266D01*
X144419212Y-141227148D01*
X144342318Y-141394828D01*
X144294693Y-141584832D01*
X144278818Y-141793688D01*
X120685271Y-141793688D01*
X120677225Y-141684611D01*
X120672693Y-141500000D01*
X120677225Y-141315389D01*
X120690810Y-141131223D01*
X120713415Y-140947945D01*
X120744986Y-140765997D01*
X120785446Y-140585817D01*
X120834699Y-140407840D01*
X120892626Y-140232494D01*
X120959086Y-140060201D01*
X121033921Y-139891377D01*
X121116949Y-139726429D01*
X121207971Y-139565753D01*
X121306767Y-139409736D01*
X121413100Y-139258756D01*
X121526713Y-139113175D01*
X121647332Y-138973343D01*
X121774667Y-138839599D01*
X121908411Y-138712264D01*
X122048242Y-138591645D01*
X122193824Y-138478032D01*
X122344804Y-138371700D01*
X122500820Y-138272903D01*
X122661496Y-138181881D01*
X122826445Y-138098853D01*
X122995269Y-138024019D01*
X123167562Y-137957558D01*
X123342908Y-137899632D01*
X123520885Y-137850379D01*
X123701065Y-137809918D01*
X123883013Y-137778347D01*
X124066290Y-137755742D01*
X124250457Y-137742157D01*
X124435068Y-137737625D01*
X158064932Y-137737625D01*
X158249543Y-137742157D01*
G37*
G36*
X145323095Y-141280230D02*
G01*
X145443646Y-141394828D01*
X145516572Y-141571934D01*
X145540880Y-141797656D01*
X145518556Y-142023875D01*
X145451583Y-142202469D01*
X145335001Y-142318555D01*
X145163849Y-142357250D01*
X144996665Y-142318555D01*
X144876115Y-142202469D01*
X144803189Y-142023875D01*
X144778880Y-141797656D01*
X144801204Y-141571934D01*
X144868177Y-141394828D01*
X144984759Y-141280230D01*
X145155911Y-141242031D01*
X145323095Y-141280230D01*
G37*
G36*
X155226615Y-141257906D02*
G01*
X155341708Y-141345219D01*
X155413146Y-141472219D01*
X155446880Y-141619063D01*
X154700755Y-141619063D01*
X154720599Y-141474203D01*
X154784099Y-141349187D01*
X154895224Y-141259891D01*
X155061911Y-141226156D01*
X155226615Y-141257906D01*
G37*
%TO.C,kibuzzard-629F6579*%
G36*
X126637770Y-136682834D02*
G01*
X126424850Y-136651250D01*
X126216051Y-136598949D01*
X126013384Y-136526434D01*
X125818801Y-136434402D01*
X125634175Y-136323742D01*
X125461285Y-136195518D01*
X125301795Y-136050965D01*
X125157243Y-135891476D01*
X125029018Y-135718585D01*
X124942086Y-135573547D01*
X127018125Y-135573547D01*
X128621500Y-135573547D01*
X129002500Y-135573547D01*
X130605875Y-135573547D01*
X130615797Y-135474328D01*
X130613813Y-135390984D01*
X130595457Y-135200484D01*
X130540391Y-135025859D01*
X130457047Y-134865621D01*
X130353859Y-134718281D01*
X130236781Y-134582352D01*
X130111766Y-134456344D01*
X129988320Y-134339266D01*
X130974969Y-134339266D01*
X130988611Y-134643867D01*
X131029539Y-134906797D01*
X131097752Y-135128055D01*
X131193250Y-135307641D01*
X131360819Y-135484030D01*
X131572486Y-135589863D01*
X131828250Y-135625141D01*
X132084014Y-135589863D01*
X132116646Y-135573547D01*
X132971250Y-135573547D01*
X134574625Y-135573547D01*
X134584547Y-135474328D01*
X134582563Y-135390984D01*
X134576062Y-135323516D01*
X137396406Y-135323516D01*
X137440063Y-135601328D01*
X137580953Y-135859297D01*
X137692574Y-135970422D01*
X137832969Y-136065672D01*
X138004617Y-136138102D01*
X138210000Y-136180766D01*
X138273500Y-135863266D01*
X138128641Y-135835484D01*
X137989734Y-135799766D01*
X137872656Y-135732297D01*
X137789313Y-135613234D01*
X137867364Y-135573547D01*
X139007719Y-135573547D01*
X139495875Y-135573547D01*
X139495875Y-134585328D01*
X139510758Y-134360102D01*
X139555406Y-134208297D01*
X139781625Y-134093203D01*
X139914578Y-134109078D01*
X140019750Y-134136859D01*
X140019750Y-135573547D01*
X140507906Y-135573547D01*
X140507906Y-135514016D01*
X140869063Y-135514016D01*
X141160766Y-135593391D01*
X141464375Y-135617203D01*
X141766000Y-135589422D01*
X141988250Y-135482266D01*
X142127156Y-135258031D01*
X142162875Y-135090848D01*
X142174781Y-134879016D01*
X142174781Y-134113047D01*
X142599438Y-134113047D01*
X142599438Y-133708234D01*
X142174781Y-133708234D01*
X142174781Y-133485984D01*
X142928844Y-133485984D01*
X143040961Y-133633820D01*
X143163000Y-133831266D01*
X143286527Y-134068398D01*
X143403109Y-134335297D01*
X143509273Y-134626504D01*
X143601547Y-134936563D01*
X143670504Y-135255551D01*
X143706719Y-135573547D01*
X144202813Y-135573547D01*
X144176023Y-135312105D01*
X144119469Y-135035781D01*
X144040590Y-134753504D01*
X143994791Y-134617078D01*
X146849969Y-134617078D01*
X146851953Y-134716297D01*
X146857906Y-134799641D01*
X148068375Y-134799641D01*
X148030672Y-134962855D01*
X147917563Y-135087375D01*
X147744922Y-135166254D01*
X147528625Y-135192547D01*
X147248828Y-135160797D01*
X147024594Y-135097297D01*
X146957125Y-135514016D01*
X147227000Y-135587438D01*
X147548469Y-135617203D01*
X147774191Y-135601824D01*
X147897335Y-135573547D01*
X148929594Y-135573547D01*
X149417750Y-135573547D01*
X149417750Y-134585328D01*
X149432633Y-134360102D01*
X149477281Y-134208297D01*
X149719375Y-134093203D01*
X149828516Y-134097172D01*
X149941625Y-134109078D01*
X149941625Y-135573547D01*
X150429781Y-135573547D01*
X150429781Y-135510047D01*
X150925875Y-135510047D01*
X151075199Y-135545766D01*
X151253297Y-135581484D01*
X151454215Y-135608273D01*
X151672000Y-135617203D01*
X151881352Y-135601328D01*
X152049031Y-135553703D01*
X152281203Y-135373125D01*
X152398281Y-135097297D01*
X152422094Y-134930609D01*
X152429858Y-134752016D01*
X152910250Y-134752016D01*
X152921660Y-134925648D01*
X152955891Y-135089359D01*
X153106703Y-135367172D01*
X153227254Y-135473832D01*
X153378563Y-135555688D01*
X153563109Y-135607777D01*
X153783375Y-135625141D01*
X154012570Y-135609266D01*
X154200094Y-135561641D01*
X154481875Y-135406859D01*
X154295344Y-135017922D01*
X154075078Y-135140953D01*
X153827031Y-135200484D01*
X153654887Y-135175184D01*
X153519453Y-135099281D01*
X153431645Y-134954918D01*
X153402375Y-134724234D01*
X153402375Y-133521703D01*
X154223906Y-133521703D01*
X154223906Y-133116891D01*
X152910250Y-133116891D01*
X152910250Y-134752016D01*
X152429858Y-134752016D01*
X152430031Y-134748047D01*
X152430031Y-133708234D01*
X151941875Y-133708234D01*
X151941875Y-134684547D01*
X151926496Y-134909277D01*
X151880359Y-135067531D01*
X151640250Y-135192547D01*
X151418000Y-135172703D01*
X151418000Y-133708234D01*
X150925875Y-133708234D01*
X150925875Y-135510047D01*
X150429781Y-135510047D01*
X150429781Y-133767766D01*
X150283434Y-133733039D01*
X150106328Y-133700297D01*
X149905410Y-133676484D01*
X149687625Y-133668547D01*
X149484227Y-133683926D01*
X149318531Y-133730062D01*
X149086359Y-133904687D01*
X148965313Y-134174562D01*
X148938523Y-134339762D01*
X148929594Y-134521828D01*
X148929594Y-135573547D01*
X147897335Y-135573547D01*
X147975109Y-135555688D01*
X148149734Y-135479289D01*
X148296578Y-135373125D01*
X148414152Y-135237691D01*
X148500969Y-135073484D01*
X148554547Y-134880008D01*
X148572406Y-134656766D01*
X148553555Y-134425586D01*
X148497000Y-134224172D01*
X148409688Y-134053020D01*
X148298563Y-133912625D01*
X148166602Y-133802988D01*
X148016781Y-133724109D01*
X147856047Y-133676484D01*
X147691344Y-133660609D01*
X147438226Y-133687729D01*
X147229205Y-133769089D01*
X147064281Y-133904687D01*
X146945219Y-134092321D01*
X146873781Y-134329785D01*
X146849969Y-134617078D01*
X143994791Y-134617078D01*
X143946828Y-134474203D01*
X143841160Y-134203832D01*
X143726563Y-133948344D01*
X143610477Y-133717660D01*
X143500344Y-133521703D01*
X144532219Y-133521703D01*
X144532219Y-133116891D01*
X142928844Y-133116891D01*
X142928844Y-133485984D01*
X142174781Y-133485984D01*
X142174781Y-133239922D01*
X141686625Y-133160547D01*
X141686625Y-133708234D01*
X140904781Y-133708234D01*
X140904781Y-134113047D01*
X141686625Y-134113047D01*
X141686625Y-134867109D01*
X141666781Y-135033797D01*
X141611219Y-135133016D01*
X141523906Y-135180641D01*
X141408813Y-135192547D01*
X141283797Y-135188578D01*
X141172672Y-135174688D01*
X141061547Y-135144922D01*
X140936531Y-135093328D01*
X140869063Y-135514016D01*
X140507906Y-135514016D01*
X140507906Y-132902578D01*
X140019750Y-132819234D01*
X140019750Y-133724109D01*
X139876875Y-133686406D01*
X139730031Y-133668547D01*
X139540523Y-133683926D01*
X139384750Y-133730062D01*
X139162500Y-133904687D01*
X139043438Y-134174562D01*
X139016648Y-134339762D01*
X139007719Y-134521828D01*
X139007719Y-135573547D01*
X137867364Y-135573547D01*
X138023469Y-135494172D01*
X138106813Y-135263984D01*
X138005609Y-135009984D01*
X137749625Y-134910766D01*
X137489672Y-135021891D01*
X137419723Y-135152859D01*
X137396406Y-135323516D01*
X134576062Y-135323516D01*
X134564207Y-135200484D01*
X134509141Y-135025859D01*
X134425797Y-134865621D01*
X134322609Y-134718281D01*
X134205531Y-134582352D01*
X134080516Y-134456344D01*
X133955500Y-134337777D01*
X133838422Y-134224172D01*
X133651891Y-134009859D01*
X133578469Y-133799516D01*
X133669750Y-133567344D01*
X133899938Y-133485984D01*
X134142031Y-133541547D01*
X134392063Y-133728078D01*
X134634156Y-133386766D01*
X134463004Y-133241906D01*
X134267047Y-133140703D01*
X134059184Y-133081172D01*
X133852313Y-133061328D01*
X133562594Y-133104984D01*
X133316531Y-133235953D01*
X133145875Y-133456219D01*
X133082375Y-133763797D01*
X133130000Y-134007875D01*
X133257000Y-134236078D01*
X133435594Y-134450391D01*
X133638000Y-134648828D01*
X133757063Y-134761938D01*
X133884063Y-134896875D01*
X133985266Y-135037766D01*
X134026938Y-135168734D01*
X132971250Y-135168734D01*
X132971250Y-135573547D01*
X132116646Y-135573547D01*
X132295681Y-135484030D01*
X132463250Y-135307641D01*
X132558748Y-135128055D01*
X132626961Y-134906797D01*
X132667889Y-134643867D01*
X132681531Y-134339266D01*
X132667641Y-134038137D01*
X132625969Y-133777687D01*
X132556516Y-133557918D01*
X132459281Y-133378828D01*
X132290389Y-133202439D01*
X132080045Y-133096606D01*
X131828250Y-133061328D01*
X131572486Y-133096385D01*
X131360819Y-133201557D01*
X131193250Y-133376844D01*
X131097752Y-133555313D01*
X131029539Y-133775207D01*
X130988611Y-134036524D01*
X130974969Y-134339266D01*
X129988320Y-134339266D01*
X129986750Y-134337777D01*
X129869672Y-134224172D01*
X129683141Y-134009859D01*
X129609719Y-133799516D01*
X129701000Y-133567344D01*
X129931188Y-133485984D01*
X130173281Y-133541547D01*
X130423313Y-133728078D01*
X130665406Y-133386766D01*
X130494254Y-133241906D01*
X130298297Y-133140703D01*
X130090434Y-133081172D01*
X129883563Y-133061328D01*
X129593844Y-133104984D01*
X129347781Y-133235953D01*
X129177125Y-133456219D01*
X129113625Y-133763797D01*
X129161250Y-134007875D01*
X129288250Y-134236078D01*
X129466844Y-134450391D01*
X129669250Y-134648828D01*
X129788313Y-134761938D01*
X129915313Y-134896875D01*
X130016516Y-135037766D01*
X130058188Y-135168734D01*
X129002500Y-135168734D01*
X129002500Y-135573547D01*
X128621500Y-135573547D01*
X128631422Y-135474328D01*
X128629438Y-135390984D01*
X128611082Y-135200484D01*
X128556016Y-135025859D01*
X128472672Y-134865621D01*
X128369484Y-134718281D01*
X128252406Y-134582352D01*
X128127391Y-134456344D01*
X128002375Y-134337777D01*
X127885297Y-134224172D01*
X127698766Y-134009859D01*
X127625344Y-133799516D01*
X127716625Y-133567344D01*
X127946813Y-133485984D01*
X128188906Y-133541547D01*
X128438938Y-133728078D01*
X128681031Y-133386766D01*
X128509879Y-133241906D01*
X128313922Y-133140703D01*
X128106059Y-133081172D01*
X127899188Y-133061328D01*
X127609469Y-133104984D01*
X127363406Y-133235953D01*
X127192750Y-133456219D01*
X127129250Y-133763797D01*
X127176875Y-134007875D01*
X127303875Y-134236078D01*
X127482469Y-134450391D01*
X127684875Y-134648828D01*
X127803938Y-134761938D01*
X127930938Y-134896875D01*
X128032141Y-135037766D01*
X128073813Y-135168734D01*
X127018125Y-135168734D01*
X127018125Y-135573547D01*
X124942086Y-135573547D01*
X124918358Y-135533960D01*
X124826327Y-135339376D01*
X124753811Y-135136709D01*
X124701510Y-134927910D01*
X124669926Y-134714990D01*
X124659365Y-134500000D01*
X124669926Y-134285010D01*
X124701510Y-134072090D01*
X124753811Y-133863291D01*
X124826327Y-133660624D01*
X124918358Y-133466040D01*
X125029018Y-133281415D01*
X125157243Y-133108524D01*
X125301795Y-132949035D01*
X125461285Y-132804482D01*
X125634175Y-132676258D01*
X125818801Y-132565598D01*
X126013384Y-132473566D01*
X126216051Y-132401051D01*
X126424850Y-132348750D01*
X126637770Y-132317166D01*
X126852760Y-132306604D01*
X154647240Y-132306604D01*
X154862230Y-132317166D01*
X155075150Y-132348750D01*
X155283949Y-132401051D01*
X155486616Y-132473566D01*
X155681199Y-132565598D01*
X155865825Y-132676258D01*
X156038715Y-132804482D01*
X156198205Y-132949035D01*
X156342757Y-133108524D01*
X156470982Y-133281415D01*
X156581642Y-133466040D01*
X156673673Y-133660624D01*
X156746189Y-133863291D01*
X156798490Y-134072090D01*
X156830074Y-134285010D01*
X156840635Y-134500000D01*
X156830074Y-134714990D01*
X156798490Y-134927910D01*
X156746189Y-135136709D01*
X156673673Y-135339376D01*
X156581642Y-135533960D01*
X156470982Y-135718585D01*
X156342757Y-135891476D01*
X156198205Y-136050965D01*
X156038715Y-136195518D01*
X155865825Y-136323742D01*
X155681199Y-136434402D01*
X155486616Y-136526434D01*
X155283949Y-136598949D01*
X155075150Y-136651250D01*
X154862230Y-136682834D01*
X154647240Y-136693396D01*
X126852760Y-136693396D01*
X126637770Y-136682834D01*
G37*
G36*
X131462243Y-133867425D02*
G01*
X131520672Y-133698312D01*
X131650152Y-133533113D01*
X131828250Y-133478047D01*
X132003867Y-133533113D01*
X132133844Y-133698312D01*
X132193375Y-133867425D01*
X132229094Y-134081076D01*
X132241000Y-134339266D01*
X132229094Y-134599660D01*
X132193375Y-134814634D01*
X132133844Y-134984188D01*
X132003867Y-135149387D01*
X131828250Y-135204453D01*
X131650152Y-135149387D01*
X131520672Y-134984188D01*
X131462243Y-134814634D01*
X131427186Y-134599660D01*
X131415500Y-134339266D01*
X131417296Y-134299578D01*
X131606000Y-134299578D01*
X131667516Y-134484125D01*
X131824281Y-134561516D01*
X131987000Y-134484125D01*
X132046531Y-134299578D01*
X131987000Y-134113047D01*
X131824281Y-134033672D01*
X131667516Y-134113047D01*
X131606000Y-134299578D01*
X131417296Y-134299578D01*
X131427186Y-134081076D01*
X131462243Y-133867425D01*
G37*
G36*
X147848109Y-134101141D02*
G01*
X147963203Y-134188453D01*
X148034641Y-134315453D01*
X148068375Y-134462297D01*
X147322250Y-134462297D01*
X147342094Y-134317437D01*
X147405594Y-134192422D01*
X147516719Y-134103125D01*
X147683406Y-134069391D01*
X147848109Y-134101141D01*
G37*
%TD*%
%LPC*%
D11*
%TO.C,JP1*%
X169500000Y-106750000D03*
D12*
X169500000Y-104210000D03*
%TD*%
D13*
%TO.C,TP6*%
X156000000Y-96500000D03*
%TD*%
D14*
%TO.C,J3*%
X126625000Y-117335000D03*
D15*
X126625000Y-112335000D03*
%TD*%
D16*
%TO.C,H1*%
X118500000Y-137000000D03*
%TD*%
D13*
%TO.C,TP5*%
X171250000Y-88750000D03*
%TD*%
%TO.C,TP2*%
X154500000Y-72500000D03*
%TD*%
D14*
%TO.C,J5*%
X126625000Y-106045000D03*
D15*
X126625000Y-101045000D03*
X126625000Y-96045000D03*
%TD*%
D13*
%TO.C,TP4*%
X157250000Y-76000000D03*
%TD*%
D17*
%TO.C,J11*%
X179900000Y-122750000D03*
D12*
X182440000Y-122750000D03*
X184980000Y-122750000D03*
X187520000Y-122750000D03*
X190060000Y-122750000D03*
X192600000Y-122750000D03*
%TD*%
D16*
%TO.C,H4*%
X182500000Y-137000000D03*
%TD*%
D18*
%TO.C,J9*%
X155250000Y-103000000D03*
D19*
X155250000Y-105500000D03*
X155250000Y-108000000D03*
X155250000Y-110500000D03*
%TD*%
D13*
%TO.C,TP15*%
X179500000Y-92750000D03*
%TD*%
D11*
%TO.C,J2*%
X114000000Y-86290000D03*
D12*
X114000000Y-83750000D03*
X114000000Y-81210000D03*
%TD*%
D20*
%TO.C,J12*%
X164500000Y-121475000D03*
D12*
X164500000Y-124015000D03*
X164500000Y-126555000D03*
%TD*%
D13*
%TO.C,TP1*%
X162750000Y-90250000D03*
%TD*%
D21*
%TO.C,J7*%
X150775000Y-58900000D03*
D22*
X152775000Y-60500000D03*
D23*
X152775000Y-63000000D03*
%TD*%
D13*
%TO.C,TP16*%
X104750000Y-112000000D03*
%TD*%
D14*
%TO.C,J4*%
X126625000Y-128835000D03*
D15*
X126625000Y-123835000D03*
%TD*%
D13*
%TO.C,TP10*%
X105750000Y-93500000D03*
%TD*%
D16*
%TO.C,H2*%
X118500000Y-73000000D03*
%TD*%
D13*
%TO.C,TP13*%
X109000000Y-83750000D03*
%TD*%
%TO.C,TP18*%
X104250000Y-108000000D03*
%TD*%
D20*
%TO.C,JP2*%
X169500000Y-114975000D03*
D12*
X169500000Y-117515000D03*
%TD*%
D16*
%TO.C,H3*%
X182500000Y-73000000D03*
%TD*%
D13*
%TO.C,TP9*%
X167250000Y-88000000D03*
%TD*%
%TO.C,TP12*%
X109000000Y-101000000D03*
%TD*%
D24*
%TO.C,J10*%
X134000000Y-71250000D03*
D25*
X136500000Y-71250000D03*
X139000000Y-71250000D03*
X141500000Y-71250000D03*
%TD*%
D14*
%TO.C,J6*%
X126625000Y-89045000D03*
D15*
X126625000Y-84045000D03*
X126625000Y-79045000D03*
%TD*%
D13*
%TO.C,TP11*%
X165250000Y-133500000D03*
%TD*%
%TO.C,TP8*%
X154000000Y-81500000D03*
%TD*%
%TO.C,TP3*%
X146500000Y-72500000D03*
%TD*%
%TO.C,TP19*%
X105750000Y-120000000D03*
%TD*%
D26*
%TO.C,C10*%
X113347349Y-128750000D03*
D27*
X116847349Y-128750000D03*
%TD*%
D11*
%TO.C,J1*%
X114000000Y-103540000D03*
D12*
X114000000Y-101000000D03*
X114000000Y-98460000D03*
%TD*%
D13*
%TO.C,TP14*%
X183500000Y-92750000D03*
%TD*%
%TO.C,TP20*%
X168000000Y-142250000D03*
%TD*%
%TO.C,TP7*%
X160000000Y-96500000D03*
%TD*%
D28*
%TO.C,J14*%
X149700000Y-145550000D03*
X149700000Y-137550000D03*
%TD*%
D13*
%TO.C,TP17*%
X105250000Y-116000000D03*
%TD*%
%TO.C,TP21*%
X165250000Y-139250000D03*
%TD*%
%TO.C,TP22*%
X167500000Y-146250000D03*
%TD*%
D29*
%TO.C,J13*%
X155625000Y-121665000D03*
D15*
X155625000Y-126665000D03*
%TD*%
D13*
%TO.C,TP23*%
X168000000Y-136500000D03*
%TD*%
D21*
%TO.C,J8*%
X173900000Y-84225000D03*
D24*
X175500000Y-82225000D03*
D25*
X178000000Y-82225000D03*
X180500000Y-82225000D03*
%TD*%
M02*
