%TF.GenerationSoftware,KiCad,Pcbnew,(6.0.5)*%
%TF.CreationDate,2022-06-07T15:07:26+00:00*%
%TF.ProjectId,co2_sensor_node,636f325f-7365-46e7-936f-725f6e6f6465,rev?*%
%TF.SameCoordinates,Original*%
%TF.FileFunction,Copper,L1,Top*%
%TF.FilePolarity,Positive*%
%FSLAX46Y46*%
G04 Gerber Fmt 4.6, Leading zero omitted, Abs format (unit mm)*
G04 Created by KiCad (PCBNEW (6.0.5)) date 2022-06-07 15:07:26*
%MOMM*%
%LPD*%
G01*
G04 APERTURE LIST*
G04 Aperture macros list*
%AMRoundRect*
0 Rectangle with rounded corners*
0 $1 Rounding radius*
0 $2 $3 $4 $5 $6 $7 $8 $9 X,Y pos of 4 corners*
0 Add a 4 corners polygon primitive as box body*
4,1,4,$2,$3,$4,$5,$6,$7,$8,$9,$2,$3,0*
0 Add four circle primitives for the rounded corners*
1,1,$1+$1,$2,$3*
1,1,$1+$1,$4,$5*
1,1,$1+$1,$6,$7*
1,1,$1+$1,$8,$9*
0 Add four rect primitives between the rounded corners*
20,1,$1+$1,$2,$3,$4,$5,0*
20,1,$1+$1,$4,$5,$6,$7,0*
20,1,$1+$1,$6,$7,$8,$9,0*
20,1,$1+$1,$8,$9,$2,$3,0*%
G04 Aperture macros list end*
%TA.AperFunction,EtchedComponent*%
%ADD10C,0.381000*%
%TD*%
%TA.AperFunction,ComponentPad*%
%ADD11R,1.700000X1.700000*%
%TD*%
%TA.AperFunction,ComponentPad*%
%ADD12O,1.700000X1.700000*%
%TD*%
%TA.AperFunction,ComponentPad*%
%ADD13C,2.000000*%
%TD*%
%TA.AperFunction,SMDPad,CuDef*%
%ADD14RoundRect,0.225000X0.250000X-0.225000X0.250000X0.225000X-0.250000X0.225000X-0.250000X-0.225000X0*%
%TD*%
%TA.AperFunction,SMDPad,CuDef*%
%ADD15RoundRect,0.200000X0.275000X-0.200000X0.275000X0.200000X-0.275000X0.200000X-0.275000X-0.200000X0*%
%TD*%
%TA.AperFunction,ComponentPad*%
%ADD16R,3.960000X1.980000*%
%TD*%
%TA.AperFunction,ComponentPad*%
%ADD17O,3.960000X1.980000*%
%TD*%
%TA.AperFunction,SMDPad,CuDef*%
%ADD18RoundRect,0.150000X-0.150000X0.587500X-0.150000X-0.587500X0.150000X-0.587500X0.150000X0.587500X0*%
%TD*%
%TA.AperFunction,SMDPad,CuDef*%
%ADD19RoundRect,0.250000X-0.475000X0.250000X-0.475000X-0.250000X0.475000X-0.250000X0.475000X0.250000X0*%
%TD*%
%TA.AperFunction,ComponentPad*%
%ADD20RoundRect,0.250000X-0.725000X0.600000X-0.725000X-0.600000X0.725000X-0.600000X0.725000X0.600000X0*%
%TD*%
%TA.AperFunction,ComponentPad*%
%ADD21O,1.950000X1.700000*%
%TD*%
%TA.AperFunction,SMDPad,CuDef*%
%ADD22RoundRect,0.100000X-0.850000X-0.400000X0.850000X-0.400000X0.850000X0.400000X-0.850000X0.400000X0*%
%TD*%
%TA.AperFunction,SMDPad,CuDef*%
%ADD23RoundRect,0.200000X-0.275000X0.200000X-0.275000X-0.200000X0.275000X-0.200000X0.275000X0.200000X0*%
%TD*%
%TA.AperFunction,ComponentPad*%
%ADD24RoundRect,0.250000X-0.750000X0.600000X-0.750000X-0.600000X0.750000X-0.600000X0.750000X0.600000X0*%
%TD*%
%TA.AperFunction,ComponentPad*%
%ADD25O,2.000000X1.700000*%
%TD*%
%TA.AperFunction,SMDPad,CuDef*%
%ADD26RoundRect,0.225000X-0.225000X-0.250000X0.225000X-0.250000X0.225000X0.250000X-0.225000X0.250000X0*%
%TD*%
%TA.AperFunction,SMDPad,CuDef*%
%ADD27RoundRect,0.110000X0.440000X1.740000X-0.440000X1.740000X-0.440000X-1.740000X0.440000X-1.740000X0*%
%TD*%
%TA.AperFunction,SMDPad,CuDef*%
%ADD28R,1.300000X1.700000*%
%TD*%
%TA.AperFunction,SMDPad,CuDef*%
%ADD29RoundRect,0.150000X0.587500X0.150000X-0.587500X0.150000X-0.587500X-0.150000X0.587500X-0.150000X0*%
%TD*%
%TA.AperFunction,SMDPad,CuDef*%
%ADD30RoundRect,0.150000X0.150000X-0.587500X0.150000X0.587500X-0.150000X0.587500X-0.150000X-0.587500X0*%
%TD*%
%TA.AperFunction,SMDPad,CuDef*%
%ADD31R,0.900000X2.000000*%
%TD*%
%TA.AperFunction,SMDPad,CuDef*%
%ADD32R,2.000000X0.900000*%
%TD*%
%TA.AperFunction,SMDPad,CuDef*%
%ADD33R,5.000000X5.000000*%
%TD*%
%TA.AperFunction,SMDPad,CuDef*%
%ADD34RoundRect,0.200000X0.200000X0.275000X-0.200000X0.275000X-0.200000X-0.275000X0.200000X-0.275000X0*%
%TD*%
%TA.AperFunction,SMDPad,CuDef*%
%ADD35RoundRect,0.200000X-0.200000X-0.275000X0.200000X-0.275000X0.200000X0.275000X-0.200000X0.275000X0*%
%TD*%
%TA.AperFunction,ComponentPad*%
%ADD36RoundRect,0.250000X-0.600000X-0.725000X0.600000X-0.725000X0.600000X0.725000X-0.600000X0.725000X0*%
%TD*%
%TA.AperFunction,ComponentPad*%
%ADD37O,1.700000X1.950000*%
%TD*%
%TA.AperFunction,SMDPad,CuDef*%
%ADD38RoundRect,0.218750X0.218750X0.256250X-0.218750X0.256250X-0.218750X-0.256250X0.218750X-0.256250X0*%
%TD*%
%TA.AperFunction,SMDPad,CuDef*%
%ADD39RoundRect,0.250000X0.475000X-0.250000X0.475000X0.250000X-0.475000X0.250000X-0.475000X-0.250000X0*%
%TD*%
%TA.AperFunction,SMDPad,CuDef*%
%ADD40RoundRect,0.250000X-0.250000X-0.475000X0.250000X-0.475000X0.250000X0.475000X-0.250000X0.475000X0*%
%TD*%
%TA.AperFunction,SMDPad,CuDef*%
%ADD41RoundRect,0.150000X-0.850000X-0.150000X0.850000X-0.150000X0.850000X0.150000X-0.850000X0.150000X0*%
%TD*%
%TA.AperFunction,ComponentPad*%
%ADD42R,1.600000X1.600000*%
%TD*%
%TA.AperFunction,ComponentPad*%
%ADD43C,1.600000*%
%TD*%
%TA.AperFunction,SMDPad,CuDef*%
%ADD44RoundRect,0.175000X-0.625000X0.175000X-0.625000X-0.175000X0.625000X-0.175000X0.625000X0.175000X0*%
%TD*%
%TA.AperFunction,SMDPad,CuDef*%
%ADD45RoundRect,0.120000X-0.630000X0.480000X-0.630000X-0.480000X0.630000X-0.480000X0.630000X0.480000X0*%
%TD*%
%TA.AperFunction,SMDPad,CuDef*%
%ADD46RoundRect,0.150000X-0.600000X0.650000X-0.600000X-0.650000X0.600000X-0.650000X0.600000X0.650000X0*%
%TD*%
%TA.AperFunction,SMDPad,CuDef*%
%ADD47RoundRect,0.120000X-0.980000X0.480000X-0.980000X-0.480000X0.980000X-0.480000X0.980000X0.480000X0*%
%TD*%
%TA.AperFunction,SMDPad,CuDef*%
%ADD48R,1.800000X2.500000*%
%TD*%
%TA.AperFunction,SMDPad,CuDef*%
%ADD49RoundRect,0.062500X0.062500X-0.350000X0.062500X0.350000X-0.062500X0.350000X-0.062500X-0.350000X0*%
%TD*%
%TA.AperFunction,SMDPad,CuDef*%
%ADD50RoundRect,0.062500X0.350000X-0.062500X0.350000X0.062500X-0.350000X0.062500X-0.350000X-0.062500X0*%
%TD*%
%TA.AperFunction,ComponentPad*%
%ADD51C,0.500000*%
%TD*%
%TA.AperFunction,SMDPad,CuDef*%
%ADD52R,1.680000X1.680000*%
%TD*%
%TA.AperFunction,SMDPad,CuDef*%
%ADD53RoundRect,0.250000X0.312500X1.450000X-0.312500X1.450000X-0.312500X-1.450000X0.312500X-1.450000X0*%
%TD*%
%TA.AperFunction,ViaPad*%
%ADD54C,0.800000*%
%TD*%
%TA.AperFunction,Conductor*%
%ADD55C,0.250000*%
%TD*%
%TA.AperFunction,Conductor*%
%ADD56C,0.500000*%
%TD*%
G04 APERTURE END LIST*
D10*
%TO.C,REF\u002A\u002A*%
X184611000Y-131659000D02*
X184865000Y-131913000D01*
X186770000Y-130262000D02*
X186389000Y-130262000D01*
X188421000Y-127341000D02*
X188929000Y-127214000D01*
X184484000Y-131405000D02*
X184484000Y-131024000D01*
X187786000Y-127849000D02*
X188421000Y-127341000D01*
X183214000Y-130008000D02*
X183722000Y-130135000D01*
X184865000Y-131913000D02*
X185246000Y-132040000D01*
X186643000Y-131024000D02*
X186643000Y-131405000D01*
X186897000Y-127341000D02*
X187405000Y-127849000D01*
X187659000Y-130008000D02*
X187151000Y-130262000D01*
X183087000Y-128738000D02*
X183341000Y-128103000D01*
X187278000Y-130643000D02*
X188167000Y-131532000D01*
X185627000Y-132040000D02*
X185246000Y-132040000D01*
X188167000Y-131532000D02*
X188421000Y-131532000D01*
X188421000Y-127341000D02*
X188421000Y-126833000D01*
X183722000Y-130135000D02*
X184357000Y-130262000D01*
X185754000Y-129881000D02*
X185246000Y-129881000D01*
X184484000Y-131024000D02*
X184484000Y-130262000D01*
X186135000Y-131151000D02*
X184992000Y-131151000D01*
X188167000Y-131532000D02*
X188167000Y-131913000D01*
X183087000Y-129754000D02*
X183214000Y-130008000D01*
X188040000Y-129119000D02*
X188040000Y-129500000D01*
X187913000Y-128738000D02*
X188040000Y-129119000D01*
X186643000Y-131405000D02*
X186516000Y-131786000D01*
X183849000Y-127595000D02*
X184484000Y-127214000D01*
X186643000Y-130262000D02*
X186643000Y-131024000D01*
X182960000Y-129500000D02*
X183087000Y-129754000D01*
X185500000Y-129119000D02*
X185754000Y-129881000D01*
X186516000Y-131786000D02*
X186135000Y-131913000D01*
X185627000Y-130770000D02*
X185627000Y-131024000D01*
X182833000Y-131532000D02*
X182833000Y-132040000D01*
X184484000Y-127214000D02*
X185119000Y-126960000D01*
X186135000Y-131913000D02*
X185627000Y-132040000D01*
X187405000Y-127849000D02*
X187659000Y-128230000D01*
X182833000Y-131532000D02*
X182452000Y-131532000D01*
X184992000Y-131151000D02*
X184992000Y-130643000D01*
X182960000Y-129246000D02*
X183087000Y-128738000D01*
X188167000Y-131913000D02*
X188294000Y-131913000D01*
X183341000Y-128103000D02*
X183849000Y-127595000D01*
X186135000Y-130643000D02*
X186135000Y-131151000D01*
X185246000Y-129881000D02*
X185500000Y-129119000D01*
X187913000Y-129881000D02*
X187659000Y-130008000D01*
X182960000Y-129500000D02*
X182960000Y-129246000D01*
X184484000Y-131405000D02*
X184611000Y-131659000D01*
X183849000Y-130643000D02*
X182833000Y-131532000D01*
X182579000Y-127468000D02*
X182579000Y-127087000D01*
X185119000Y-126960000D02*
X185627000Y-126960000D01*
X188040000Y-129500000D02*
X187913000Y-129881000D01*
X182579000Y-127468000D02*
X182198000Y-127595000D01*
X185627000Y-126960000D02*
X186262000Y-127087000D01*
X187151000Y-130262000D02*
X186770000Y-130262000D01*
X183087000Y-127849000D02*
X182579000Y-127468000D01*
X186262000Y-127087000D02*
X186897000Y-127341000D01*
X184992000Y-130643000D02*
X186135000Y-130643000D01*
X187659000Y-128230000D02*
X187913000Y-128738000D01*
X184357000Y-130262000D02*
X184738000Y-130262000D01*
X184767981Y-129119000D02*
G75*
G03*
X184767981Y-129119000I-283981J0D01*
G01*
X186799981Y-129119000D02*
G75*
G03*
X186799981Y-129119000I-283981J0D01*
G01*
%TD*%
D11*
%TO.P,JP1,1,Pin_1*%
%TO.N,/Microprocessor section/MTDO*%
X169500000Y-106750000D03*
D12*
%TO.P,JP1,2,Pin_2*%
%TO.N,+3V3*%
X169500000Y-104210000D03*
%TD*%
D13*
%TO.P,TP6,1,1*%
%TO.N,/CO2 Sensor Connector/UART_RX*%
X156000000Y-96500000D03*
%TD*%
D14*
%TO.P,C3,1*%
%TO.N,Net-(C3-Pad1)*%
X168000000Y-70000000D03*
%TO.P,C3,2*%
%TO.N,GND*%
X168000000Y-68450000D03*
%TD*%
D15*
%TO.P,R14,1*%
%TO.N,Net-(Q4-Pad1)*%
X177000000Y-124075000D03*
%TO.P,R14,2*%
%TO.N,/Fan/FAN*%
X177000000Y-122425000D03*
%TD*%
D16*
%TO.P,J3,1,Pin_1*%
%TO.N,/Valve Driver/OUT_B*%
X126625000Y-117335000D03*
D17*
%TO.P,J3,2,Pin_2*%
%TO.N,/Valve Driver/OUT_A*%
X126625000Y-112335000D03*
%TD*%
D13*
%TO.P,TP5,1,1*%
%TO.N,/Microprocessor section/PWR_EN*%
X171250000Y-88750000D03*
%TD*%
D18*
%TO.P,Q2,1,G*%
%TO.N,Net-(Q1-Pad3)*%
X163700000Y-85062500D03*
%TO.P,Q2,2,S*%
%TO.N,+3V3*%
X161800000Y-85062500D03*
%TO.P,Q2,3,D*%
%TO.N,/Atmo sensor/3V3_IN*%
X162750000Y-86937500D03*
%TD*%
%TO.P,Q4,1,G*%
%TO.N,Net-(Q4-Pad1)*%
X178700000Y-127812500D03*
%TO.P,Q4,2,S*%
%TO.N,GND*%
X176800000Y-127812500D03*
%TO.P,Q4,3,D*%
%TO.N,Net-(D3-Pad2)*%
X177750000Y-129687500D03*
%TD*%
D13*
%TO.P,TP2,1,1*%
%TO.N,/Atmo sensor/SCL*%
X154500000Y-72500000D03*
%TD*%
D19*
%TO.P,C1,1*%
%TO.N,+BATT*%
X162000000Y-70550000D03*
%TO.P,C1,2*%
%TO.N,GND*%
X162000000Y-72450000D03*
%TD*%
D16*
%TO.P,J5,1,Pin_1*%
%TO.N,/Atmo sensor/3V3_IN*%
X126625000Y-106045000D03*
D17*
%TO.P,J5,2,Pin_2*%
%TO.N,/Microprocessor section/MOISTURE_SENSOR*%
X126625000Y-101045000D03*
%TO.P,J5,3,Pin_3*%
%TO.N,GND*%
X126625000Y-96045000D03*
%TD*%
D15*
%TO.P,R3,1*%
%TO.N,Net-(D1-Pad2)*%
X175250000Y-117825000D03*
%TO.P,R3,2*%
%TO.N,/Microprocessor section/STATUS_LED*%
X175250000Y-116175000D03*
%TD*%
D13*
%TO.P,TP4,1,1*%
%TO.N,+3V3*%
X157250000Y-76000000D03*
%TD*%
D11*
%TO.P,J11,1,Pin_1*%
%TO.N,+3V3*%
X179900000Y-122750000D03*
D12*
%TO.P,J11,2,Pin_2*%
%TO.N,GND*%
X182440000Y-122750000D03*
%TO.P,J11,3,Pin_3*%
%TO.N,/Microprocessor section/RXD0*%
X184980000Y-122750000D03*
%TO.P,J11,4,Pin_4*%
%TO.N,/Microprocessor section/TXD0*%
X187520000Y-122750000D03*
%TO.P,J11,5,Pin_5*%
%TO.N,/Microprocessor section/EN*%
X190060000Y-122750000D03*
%TO.P,J11,6,Pin_6*%
%TO.N,/Microprocessor section/BOOT*%
X192600000Y-122750000D03*
%TD*%
D15*
%TO.P,R4,1*%
%TO.N,/Microprocessor section/PWR_EN*%
X171250000Y-85575000D03*
%TO.P,R4,2*%
%TO.N,Net-(Q1-Pad1)*%
X171250000Y-83925000D03*
%TD*%
D20*
%TO.P,J9,1,Pin_1*%
%TO.N,/CO2 Sensor Connector/UART_TX*%
X155250000Y-103000000D03*
D21*
%TO.P,J9,2,Pin_2*%
%TO.N,/CO2 Sensor Connector/UART_RX*%
X155250000Y-105500000D03*
%TO.P,J9,3,Pin_3*%
%TO.N,/Atmo sensor/3V3_IN*%
X155250000Y-108000000D03*
%TO.P,J9,4,Pin_4*%
%TO.N,GND*%
X155250000Y-110500000D03*
%TD*%
D13*
%TO.P,TP15,1,1*%
%TO.N,/Microprocessor section/CELL_2*%
X179500000Y-92750000D03*
%TD*%
D14*
%TO.P,C4,1*%
%TO.N,/Microprocessor section/CELL_1*%
X181500000Y-89775000D03*
%TO.P,C4,2*%
%TO.N,GND*%
X181500000Y-88225000D03*
%TD*%
D11*
%TO.P,J2,1,Pin_1*%
%TO.N,/Atmo sensor/3V3_IN*%
X114000000Y-86290000D03*
D12*
%TO.P,J2,2,Pin_2*%
%TO.N,/Microprocessor section/TEMP_SENSOR*%
X114000000Y-83750000D03*
%TO.P,J2,3,Pin_3*%
%TO.N,GND*%
X114000000Y-81210000D03*
%TD*%
D11*
%TO.P,J12,1,Pin_1*%
%TO.N,+BATT*%
X164500000Y-121475000D03*
D12*
%TO.P,J12,2,Pin_2*%
%TO.N,Net-(D3-Pad1)*%
X164500000Y-124015000D03*
%TO.P,J12,3,Pin_3*%
%TO.N,/Atmo sensor/3V3_IN*%
X164500000Y-126555000D03*
%TD*%
D13*
%TO.P,TP1,1,1*%
%TO.N,/Atmo sensor/3V3_IN*%
X162750000Y-90250000D03*
%TD*%
D22*
%TO.P,SW1,1,1*%
%TO.N,GND*%
X193800000Y-84740000D03*
X184700000Y-84740000D03*
%TO.P,SW1,2,2*%
%TO.N,/Microprocessor section/EN*%
X193800000Y-89240000D03*
X184700000Y-89240000D03*
%TD*%
D23*
%TO.P,R11,1*%
%TO.N,Net-(R10-Pad2)*%
X169500000Y-76175000D03*
%TO.P,R11,2*%
%TO.N,GND*%
X169500000Y-77825000D03*
%TD*%
D15*
%TO.P,R2,1*%
%TO.N,/Atmo sensor/SDA*%
X149500000Y-73325000D03*
%TO.P,R2,2*%
%TO.N,/Atmo sensor/3V3_IN*%
X149500000Y-71675000D03*
%TD*%
D23*
%TO.P,R13,1*%
%TO.N,+3V3*%
X187500000Y-92425000D03*
%TO.P,R13,2*%
%TO.N,/Microprocessor section/EN*%
X187500000Y-94075000D03*
%TD*%
D24*
%TO.P,J7,1,Pin_1*%
%TO.N,Net-(F1-Pad2)*%
X152775000Y-60500000D03*
D25*
%TO.P,J7,2,Pin_2*%
%TO.N,GND*%
X152775000Y-63000000D03*
%TD*%
D13*
%TO.P,TP16,1,1*%
%TO.N,/Microprocessor section/VALVE_1_REV*%
X104750000Y-112000000D03*
%TD*%
D15*
%TO.P,R9,1*%
%TO.N,Net-(D2-Pad2)*%
X158250000Y-66075000D03*
%TO.P,R9,2*%
%TO.N,GND*%
X158250000Y-64425000D03*
%TD*%
D23*
%TO.P,R7,1*%
%TO.N,Net-(J8-Pad2)*%
X179750000Y-88175000D03*
%TO.P,R7,2*%
%TO.N,/Microprocessor section/CELL_1*%
X179750000Y-89825000D03*
%TD*%
D26*
%TO.P,C12,1*%
%TO.N,/Atmo sensor/3V3_IN*%
X112975000Y-121000000D03*
%TO.P,C12,2*%
%TO.N,GND*%
X114525000Y-121000000D03*
%TD*%
D14*
%TO.P,C2,1*%
%TO.N,+BATT*%
X166225000Y-70000000D03*
%TO.P,C2,2*%
%TO.N,GND*%
X166225000Y-68450000D03*
%TD*%
D16*
%TO.P,J4,1,Pin_1*%
%TO.N,/Valve Driver/OUT_D*%
X126625000Y-128835000D03*
D17*
%TO.P,J4,2,Pin_2*%
%TO.N,/Valve Driver/OUT_C*%
X126625000Y-123835000D03*
%TD*%
D15*
%TO.P,R1,1*%
%TO.N,/Atmo sensor/SCL*%
X151500000Y-73325000D03*
%TO.P,R1,2*%
%TO.N,/Atmo sensor/3V3_IN*%
X151500000Y-71675000D03*
%TD*%
D27*
%TO.P,L1,1,1*%
%TO.N,Net-(L1-Pad1)*%
X167000000Y-78500000D03*
%TO.P,L1,2,2*%
%TO.N,+3V3*%
X164000000Y-78500000D03*
%TD*%
D13*
%TO.P,TP10,1,1*%
%TO.N,GND*%
X105750000Y-93500000D03*
%TD*%
D28*
%TO.P,D2,1,K*%
%TO.N,+BATT*%
X162000000Y-68250000D03*
%TO.P,D2,2,A*%
%TO.N,Net-(D2-Pad2)*%
X158500000Y-68250000D03*
%TD*%
D29*
%TO.P,Q1,1,G*%
%TO.N,Net-(Q1-Pad1)*%
X167437500Y-83950000D03*
%TO.P,Q1,2,S*%
%TO.N,GND*%
X167437500Y-82050000D03*
%TO.P,Q1,3,D*%
%TO.N,Net-(Q1-Pad3)*%
X165562500Y-83000000D03*
%TD*%
D13*
%TO.P,TP13,1,1*%
%TO.N,/Microprocessor section/TEMP_SENSOR*%
X109000000Y-83750000D03*
%TD*%
%TO.P,TP18,1,1*%
%TO.N,/Microprocessor section/VALVE_1_FWD*%
X104250000Y-108000000D03*
%TD*%
D11*
%TO.P,JP2,1,Pin_1*%
%TO.N,/Microprocessor section/BOOT*%
X169500000Y-114975000D03*
D12*
%TO.P,JP2,2,Pin_2*%
%TO.N,GND*%
X169500000Y-117515000D03*
%TD*%
D26*
%TO.P,C8,1*%
%TO.N,+3V3*%
X189225000Y-92500000D03*
%TO.P,C8,2*%
%TO.N,GND*%
X190775000Y-92500000D03*
%TD*%
D30*
%TO.P,Q3,1,G*%
%TO.N,Net-(D2-Pad2)*%
X160050000Y-65687500D03*
%TO.P,Q3,2,S*%
%TO.N,+BATT*%
X161950000Y-65687500D03*
%TO.P,Q3,3,D*%
%TO.N,Net-(F1-Pad1)*%
X161000000Y-63812500D03*
%TD*%
D13*
%TO.P,TP9,1,1*%
%TO.N,GND*%
X167250000Y-88000000D03*
%TD*%
D31*
%TO.P,U2,1,GND*%
%TO.N,GND*%
X190505000Y-96500000D03*
%TO.P,U2,2,VDD*%
%TO.N,+3V3*%
X189235000Y-96500000D03*
%TO.P,U2,3,EN*%
%TO.N,/Microprocessor section/EN*%
X187965000Y-96500000D03*
%TO.P,U2,4,SENSOR_VP*%
%TO.N,unconnected-(U2-Pad4)*%
X186695000Y-96500000D03*
%TO.P,U2,5,SENSOR_VN*%
%TO.N,unconnected-(U2-Pad5)*%
X185425000Y-96500000D03*
%TO.P,U2,6,IO34*%
%TO.N,/Microprocessor section/CELL_1*%
X184155000Y-96500000D03*
%TO.P,U2,7,IO35*%
%TO.N,/Microprocessor section/CELL_2*%
X182885000Y-96500000D03*
%TO.P,U2,8,IO32*%
%TO.N,/Microprocessor section/VALVE_1_FWD*%
X181615000Y-96500000D03*
%TO.P,U2,9,IO33*%
%TO.N,/Microprocessor section/VALVE_1_REV*%
X180345000Y-96500000D03*
%TO.P,U2,10,IO25*%
%TO.N,/Microprocessor section/MOISTURE_SENSOR*%
X179075000Y-96500000D03*
%TO.P,U2,11,IO26*%
%TO.N,/Microprocessor section/VALVE_2_FWD*%
X177805000Y-96500000D03*
%TO.P,U2,12,IO27*%
%TO.N,/Microprocessor section/VALVE_2_REV*%
X176535000Y-96500000D03*
%TO.P,U2,13,IO14*%
%TO.N,/CO2 Sensor Connector/UART_TX*%
X175265000Y-96500000D03*
%TO.P,U2,14,IO12*%
%TO.N,/Microprocessor section/MTDI*%
X173995000Y-96500000D03*
D32*
%TO.P,U2,15,GND*%
%TO.N,GND*%
X172995000Y-99285000D03*
%TO.P,U2,16,IO13*%
%TO.N,/CO2 Sensor Connector/UART_RX*%
X172995000Y-100555000D03*
%TO.P,U2,17,SHD/SD2*%
%TO.N,unconnected-(U2-Pad17)*%
X172995000Y-101825000D03*
%TO.P,U2,18,SWP/SD3*%
%TO.N,unconnected-(U2-Pad18)*%
X172995000Y-103095000D03*
%TO.P,U2,19,SCS/CMD*%
%TO.N,unconnected-(U2-Pad19)*%
X172995000Y-104365000D03*
%TO.P,U2,20,SCK/CLK*%
%TO.N,unconnected-(U2-Pad20)*%
X172995000Y-105635000D03*
%TO.P,U2,21,SDO/SD0*%
%TO.N,unconnected-(U2-Pad21)*%
X172995000Y-106905000D03*
%TO.P,U2,22,SDI/SD1*%
%TO.N,unconnected-(U2-Pad22)*%
X172995000Y-108175000D03*
%TO.P,U2,23,IO15*%
%TO.N,/Microprocessor section/MTDO*%
X172995000Y-109445000D03*
%TO.P,U2,24,IO2*%
%TO.N,/Microprocessor section/PWR_EN*%
X172995000Y-110715000D03*
D31*
%TO.P,U2,25,IO0*%
%TO.N,/Microprocessor section/BOOT*%
X173995000Y-113500000D03*
%TO.P,U2,26,IO4*%
%TO.N,/Microprocessor section/STATUS_LED*%
X175265000Y-113500000D03*
%TO.P,U2,27,IO16*%
%TO.N,/Atmo sensor/SDA*%
X176535000Y-113500000D03*
%TO.P,U2,28,IO17*%
%TO.N,/Atmo sensor/SCL*%
X177805000Y-113500000D03*
%TO.P,U2,29,IO5*%
%TO.N,/Fan/FAN*%
X179075000Y-113500000D03*
%TO.P,U2,30,IO18*%
%TO.N,/Microprocessor section/SPI_SCLK*%
X180345000Y-113500000D03*
%TO.P,U2,31,IO19*%
%TO.N,/Microprocessor section/SPI_MISO*%
X181615000Y-113500000D03*
%TO.P,U2,32,NC*%
%TO.N,unconnected-(U2-Pad32)*%
X182885000Y-113500000D03*
%TO.P,U2,33,IO21*%
%TO.N,/Microprocessor section/TEMP_SENSOR*%
X184155000Y-113500000D03*
%TO.P,U2,34,RXD0/IO3*%
%TO.N,/Microprocessor section/RXD0*%
X185425000Y-113500000D03*
%TO.P,U2,35,TXD0/IO1*%
%TO.N,/Microprocessor section/TXD0*%
X186695000Y-113500000D03*
%TO.P,U2,36,IO22*%
%TO.N,/Microprocessor section/SPI_SD_CSN*%
X187965000Y-113500000D03*
%TO.P,U2,37,IO23*%
%TO.N,/Microprocessor section/SPI_MOSI*%
X189235000Y-113500000D03*
%TO.P,U2,38,GND*%
%TO.N,GND*%
X190505000Y-113500000D03*
D33*
%TO.P,U2,39,GND*%
X183005000Y-104000000D03*
%TD*%
D14*
%TO.P,C7,1*%
%TO.N,/Microprocessor section/EN*%
X196000000Y-89275000D03*
%TO.P,C7,2*%
%TO.N,GND*%
X196000000Y-87725000D03*
%TD*%
D13*
%TO.P,TP12,1,1*%
%TO.N,/Microprocessor section/MOISTURE_SENSOR*%
X109000000Y-101000000D03*
%TD*%
D34*
%TO.P,R15,1*%
%TO.N,Net-(Q4-Pad1)*%
X178575000Y-125750000D03*
%TO.P,R15,2*%
%TO.N,GND*%
X176925000Y-125750000D03*
%TD*%
D35*
%TO.P,R6,1*%
%TO.N,+3V3*%
X161925000Y-83000000D03*
%TO.P,R6,2*%
%TO.N,Net-(Q1-Pad3)*%
X163575000Y-83000000D03*
%TD*%
D36*
%TO.P,J10,1,Pin_1*%
%TO.N,/Atmo sensor/3V3_IN*%
X134000000Y-71250000D03*
D37*
%TO.P,J10,2,Pin_2*%
%TO.N,/Atmo sensor/SCL*%
X136500000Y-71250000D03*
%TO.P,J10,3,Pin_3*%
%TO.N,/Atmo sensor/SDA*%
X139000000Y-71250000D03*
%TO.P,J10,4,Pin_4*%
%TO.N,GND*%
X141500000Y-71250000D03*
%TD*%
D38*
%TO.P,D1,1,K*%
%TO.N,GND*%
X176787500Y-119500000D03*
%TO.P,D1,2,A*%
%TO.N,Net-(D1-Pad2)*%
X175212500Y-119500000D03*
%TD*%
D16*
%TO.P,J6,1,Pin_1*%
%TO.N,/Atmo sensor/3V3_IN*%
X126625000Y-89045000D03*
D17*
%TO.P,J6,2,Pin_2*%
%TO.N,/Microprocessor section/TEMP_SENSOR*%
X126625000Y-84045000D03*
%TO.P,J6,3,Pin_3*%
%TO.N,GND*%
X126625000Y-79045000D03*
%TD*%
D15*
%TO.P,R12,1*%
%TO.N,GND*%
X169750000Y-111150000D03*
%TO.P,R12,2*%
%TO.N,/Microprocessor section/MTDO*%
X169750000Y-109500000D03*
%TD*%
D13*
%TO.P,TP11,1,1*%
%TO.N,GND*%
X165250000Y-133500000D03*
%TD*%
%TO.P,TP8,1,1*%
%TO.N,GND*%
X154000000Y-81500000D03*
%TD*%
D39*
%TO.P,C6,1*%
%TO.N,+3V3*%
X162000000Y-75950000D03*
%TO.P,C6,2*%
%TO.N,GND*%
X162000000Y-74050000D03*
%TD*%
D13*
%TO.P,TP3,1,1*%
%TO.N,/Atmo sensor/SDA*%
X146500000Y-72500000D03*
%TD*%
D40*
%TO.P,C11,1*%
%TO.N,/Atmo sensor/3V3_IN*%
X113050000Y-123000000D03*
%TO.P,C11,2*%
%TO.N,GND*%
X114950000Y-123000000D03*
%TD*%
D26*
%TO.P,C9,1*%
%TO.N,+3V3*%
X189225000Y-94250000D03*
%TO.P,C9,2*%
%TO.N,GND*%
X190775000Y-94250000D03*
%TD*%
D15*
%TO.P,R5,1*%
%TO.N,Net-(Q1-Pad1)*%
X169500000Y-83825000D03*
%TO.P,R5,2*%
%TO.N,GND*%
X169500000Y-82175000D03*
%TD*%
%TO.P,R16,1*%
%TO.N,/Atmo sensor/3V3_IN*%
X163250000Y-145325000D03*
%TO.P,R16,2*%
%TO.N,/Microprocessor section/SPI_SD_CSN*%
X163250000Y-143675000D03*
%TD*%
D14*
%TO.P,C5,1*%
%TO.N,/Microprocessor section/CELL_2*%
X175500000Y-89775000D03*
%TO.P,C5,2*%
%TO.N,GND*%
X175500000Y-88225000D03*
%TD*%
D13*
%TO.P,TP19,1,1*%
%TO.N,/Microprocessor section/VALVE_2_REV*%
X105750000Y-120000000D03*
%TD*%
D41*
%TO.P,U3,1*%
%TO.N,N/C*%
X111250000Y-110305000D03*
%TO.P,U3,2,INA*%
%TO.N,/Microprocessor section/VALVE_1_FWD*%
X111250000Y-111575000D03*
%TO.P,U3,3,INB*%
%TO.N,/Microprocessor section/VALVE_1_REV*%
X111250000Y-112845000D03*
%TO.P,U3,4,VDD*%
%TO.N,/Atmo sensor/3V3_IN*%
X111250000Y-114115000D03*
%TO.P,U3,5*%
%TO.N,N/C*%
X111250000Y-115385000D03*
%TO.P,U3,6,INC*%
%TO.N,/Microprocessor section/VALVE_2_FWD*%
X111250000Y-116655000D03*
%TO.P,U3,7,IND*%
%TO.N,/Microprocessor section/VALVE_2_REV*%
X111250000Y-117925000D03*
%TO.P,U3,8,VDD*%
%TO.N,/Atmo sensor/3V3_IN*%
X111250000Y-119195000D03*
%TO.P,U3,9,OUTD*%
%TO.N,/Valve Driver/OUT_D*%
X116250000Y-119195000D03*
%TO.P,U3,10,AGND*%
%TO.N,GND*%
X116250000Y-117925000D03*
%TO.P,U3,11,PGND*%
X116250000Y-116655000D03*
%TO.P,U3,12,OUTC*%
%TO.N,/Valve Driver/OUT_C*%
X116250000Y-115385000D03*
%TO.P,U3,13,OUTB*%
%TO.N,/Valve Driver/OUT_B*%
X116250000Y-114115000D03*
%TO.P,U3,14,AGND*%
%TO.N,GND*%
X116250000Y-112845000D03*
%TO.P,U3,15,PGND*%
X116250000Y-111575000D03*
%TO.P,U3,16,OUTA*%
%TO.N,/Valve Driver/OUT_A*%
X116250000Y-110305000D03*
%TD*%
D42*
%TO.P,C10,1*%
%TO.N,/Atmo sensor/3V3_IN*%
X113347349Y-128750000D03*
D43*
%TO.P,C10,2*%
%TO.N,GND*%
X116847349Y-128750000D03*
%TD*%
D11*
%TO.P,J1,1,Pin_1*%
%TO.N,/Atmo sensor/3V3_IN*%
X114000000Y-103540000D03*
D12*
%TO.P,J1,2,Pin_2*%
%TO.N,/Microprocessor section/MOISTURE_SENSOR*%
X114000000Y-101000000D03*
%TO.P,J1,3,Pin_3*%
%TO.N,GND*%
X114000000Y-98460000D03*
%TD*%
D13*
%TO.P,TP14,1,1*%
%TO.N,/Microprocessor section/CELL_1*%
X183500000Y-92750000D03*
%TD*%
%TO.P,TP20,1,1*%
%TO.N,/Microprocessor section/SPI_MOSI*%
X168000000Y-142250000D03*
%TD*%
%TO.P,TP7,1,1*%
%TO.N,/CO2 Sensor Connector/UART_TX*%
X160000000Y-96500000D03*
%TD*%
D44*
%TO.P,J14,1,DAT2*%
%TO.N,unconnected-(J14-Pad1)*%
X160700000Y-144750000D03*
%TO.P,J14,2,DAT3/CD*%
%TO.N,/Microprocessor section/SPI_SD_CSN*%
X160700000Y-143650000D03*
%TO.P,J14,3,CMD*%
%TO.N,/Microprocessor section/SPI_MOSI*%
X160700000Y-142550000D03*
%TO.P,J14,4,VDD*%
%TO.N,/Atmo sensor/3V3_IN*%
X160700000Y-141450000D03*
%TO.P,J14,5,CLK*%
%TO.N,/Microprocessor section/SPI_SCLK*%
X160700000Y-140350000D03*
%TO.P,J14,6,VSS*%
%TO.N,GND*%
X160700000Y-139250000D03*
%TO.P,J14,7,DAT0*%
%TO.N,/Microprocessor section/SPI_MISO*%
X160700000Y-138150000D03*
%TO.P,J14,8,DAT1*%
%TO.N,unconnected-(J14-Pad8)*%
X160700000Y-137050000D03*
%TO.P,J14,9,DET_B*%
%TO.N,GND*%
X160700000Y-135950000D03*
D45*
%TO.P,J14,11,SHIELD*%
X159700000Y-134750000D03*
D46*
X159700000Y-149350000D03*
D47*
X150100000Y-150250000D03*
X150100000Y-134750000D03*
%TD*%
D48*
%TO.P,D3,1,K*%
%TO.N,Net-(D3-Pad1)*%
X173500000Y-124500000D03*
%TO.P,D3,2,A*%
%TO.N,Net-(D3-Pad2)*%
X173500000Y-128500000D03*
%TD*%
D13*
%TO.P,TP17,1,1*%
%TO.N,/Microprocessor section/VALVE_2_FWD*%
X105250000Y-116000000D03*
%TD*%
%TO.P,TP21,1,1*%
%TO.N,/Microprocessor section/SPI_SCLK*%
X165250000Y-139250000D03*
%TD*%
%TO.P,TP22,1,1*%
%TO.N,/Microprocessor section/SPI_SD_CSN*%
X167500000Y-146250000D03*
%TD*%
D49*
%TO.P,U1,1,SW*%
%TO.N,Net-(L1-Pad1)*%
X165250000Y-74962500D03*
%TO.P,U1,2,SW*%
X165750000Y-74962500D03*
%TO.P,U1,3,SW*%
X166250000Y-74962500D03*
%TO.P,U1,4,PG*%
%TO.N,unconnected-(U1-Pad4)*%
X166750000Y-74962500D03*
D50*
%TO.P,U1,5,FB*%
%TO.N,Net-(R10-Pad2)*%
X167462500Y-74250000D03*
%TO.P,U1,6,AGND*%
%TO.N,GND*%
X167462500Y-73750000D03*
%TO.P,U1,7,FSW*%
%TO.N,+3V3*%
X167462500Y-73250000D03*
%TO.P,U1,8,DEF*%
%TO.N,GND*%
X167462500Y-72750000D03*
D49*
%TO.P,U1,9,SS/TR*%
%TO.N,Net-(C3-Pad1)*%
X166750000Y-72037500D03*
%TO.P,U1,10,AVIN*%
%TO.N,+BATT*%
X166250000Y-72037500D03*
%TO.P,U1,11,PVIN*%
X165750000Y-72037500D03*
%TO.P,U1,12,PVIN*%
X165250000Y-72037500D03*
D50*
%TO.P,U1,13,EN*%
X164537500Y-72750000D03*
%TO.P,U1,14,VOS*%
%TO.N,+3V3*%
X164537500Y-73250000D03*
%TO.P,U1,15,PGND*%
%TO.N,GND*%
X164537500Y-73750000D03*
%TO.P,U1,16,PGND*%
X164537500Y-74250000D03*
D51*
%TO.P,U1,17,EP*%
X166590000Y-74090000D03*
X165410000Y-74090000D03*
D52*
X166000000Y-73500000D03*
D51*
X166590000Y-72910000D03*
X165410000Y-72910000D03*
%TD*%
D16*
%TO.P,J13,1,Pin_1*%
%TO.N,Net-(D3-Pad1)*%
X155625000Y-121665000D03*
D17*
%TO.P,J13,2,Pin_2*%
%TO.N,Net-(D3-Pad2)*%
X155625000Y-126665000D03*
%TD*%
D53*
%TO.P,F1,1*%
%TO.N,Net-(F1-Pad1)*%
X160887500Y-60250000D03*
%TO.P,F1,2*%
%TO.N,Net-(F1-Pad2)*%
X156612500Y-60250000D03*
%TD*%
D13*
%TO.P,TP23,1,1*%
%TO.N,/Microprocessor section/SPI_MISO*%
X168000000Y-136500000D03*
%TD*%
D23*
%TO.P,R10,1*%
%TO.N,+3V3*%
X169500000Y-72925000D03*
%TO.P,R10,2*%
%TO.N,Net-(R10-Pad2)*%
X169500000Y-74575000D03*
%TD*%
D36*
%TO.P,J8,1,Pin_1*%
%TO.N,Net-(J8-Pad1)*%
X175500000Y-82225000D03*
D37*
%TO.P,J8,2,Pin_2*%
%TO.N,Net-(J8-Pad2)*%
X178000000Y-82225000D03*
%TO.P,J8,3,Pin_3*%
%TO.N,GND*%
X180500000Y-82225000D03*
%TD*%
D23*
%TO.P,R8,1*%
%TO.N,Net-(J8-Pad1)*%
X177250000Y-88175000D03*
%TO.P,R8,2*%
%TO.N,/Microprocessor section/CELL_2*%
X177250000Y-89825000D03*
%TD*%
D54*
%TO.N,GND*%
X169750000Y-112500000D03*
X118250000Y-116750000D03*
X181500000Y-102500000D03*
X181500000Y-87000000D03*
X118000000Y-112750000D03*
X169250000Y-68500000D03*
X169500000Y-79250000D03*
X162250000Y-139250000D03*
X190500000Y-115500000D03*
X175750000Y-126750000D03*
X118250000Y-118000000D03*
X193750000Y-86250000D03*
X183000000Y-104250000D03*
X115750000Y-121000000D03*
X176750000Y-118250000D03*
X118000000Y-111750000D03*
X171000000Y-99250000D03*
X184500000Y-105750000D03*
X184500000Y-102500000D03*
X181500000Y-105750000D03*
X162500000Y-136000000D03*
X190750000Y-91000000D03*
X169500000Y-81000000D03*
X158250000Y-63250000D03*
X175500000Y-87000000D03*
X166250000Y-67250000D03*
X161250000Y-149400000D03*
%TO.N,/Atmo sensor/3V3_IN*%
X163250000Y-146750000D03*
X162750000Y-141500000D03*
X150750000Y-70500000D03*
%TO.N,+BATT*%
X163750000Y-70750000D03*
%TO.N,+3V3*%
X163500000Y-73000000D03*
X189250000Y-91000000D03*
X162250000Y-77750000D03*
X162250000Y-79250000D03*
X170500000Y-71750000D03*
%TO.N,/Microprocessor section/MOISTURE_SENSOR*%
X179000000Y-98250000D03*
%TO.N,/Microprocessor section/TEMP_SENSOR*%
X184250000Y-111750000D03*
%TO.N,/Atmo sensor/SCL*%
X177750000Y-111500000D03*
%TO.N,/Atmo sensor/SDA*%
X176500000Y-111500000D03*
%TO.N,/Microprocessor section/SPI_MOSI*%
X189250000Y-115500000D03*
%TO.N,/Microprocessor section/SPI_SCLK*%
X180750000Y-115500000D03*
%TO.N,/Microprocessor section/SPI_MISO*%
X182000000Y-115500000D03*
%TO.N,/Microprocessor section/SPI_SD_CSN*%
X188000000Y-115500000D03*
%TO.N,/Microprocessor section/PWR_EN*%
X171250000Y-110750000D03*
%TO.N,/Microprocessor section/VALVE_1_REV*%
X180250000Y-98250000D03*
%TO.N,/Microprocessor section/VALVE_2_FWD*%
X177750000Y-98250000D03*
%TO.N,/Microprocessor section/VALVE_1_FWD*%
X181500000Y-98250000D03*
%TO.N,/Microprocessor section/VALVE_2_REV*%
X176500000Y-98250000D03*
%TD*%
D55*
%TO.N,GND*%
X115750000Y-121000000D02*
X114525000Y-121000000D01*
X158250000Y-64425000D02*
X158250000Y-63250000D01*
X195225000Y-87725000D02*
X196000000Y-87725000D01*
X176800000Y-127800000D02*
X175750000Y-126750000D01*
X160700000Y-139250000D02*
X162250000Y-139250000D01*
D56*
X190505000Y-96500000D02*
X190505000Y-94520000D01*
D55*
X116250000Y-116655000D02*
X118155000Y-116655000D01*
X169750000Y-112500000D02*
X169750000Y-111150000D01*
X166250000Y-73750000D02*
X166000000Y-73500000D01*
X114525000Y-121000000D02*
X114525000Y-122575000D01*
X167562500Y-82175000D02*
X167437500Y-82050000D01*
X162500000Y-135250000D02*
X162500000Y-136000000D01*
X114525000Y-122575000D02*
X114950000Y-123000000D01*
D56*
X190500000Y-115500000D02*
X190500000Y-113505000D01*
D55*
X160700000Y-135950000D02*
X162450000Y-135950000D01*
X176925000Y-125750000D02*
X176750000Y-125750000D01*
X176800000Y-127812500D02*
X176800000Y-127800000D01*
X193750000Y-86250000D02*
X195225000Y-87725000D01*
D56*
X190775000Y-94250000D02*
X190775000Y-92500000D01*
D55*
X166225000Y-67275000D02*
X166250000Y-67250000D01*
X169500000Y-79250000D02*
X169500000Y-77825000D01*
X169500000Y-81000000D02*
X169500000Y-82175000D01*
D56*
X190775000Y-92500000D02*
X190775000Y-91025000D01*
D55*
X116250000Y-112845000D02*
X117905000Y-112845000D01*
D56*
X190505000Y-94520000D02*
X190775000Y-94250000D01*
D55*
X181500000Y-88225000D02*
X181500000Y-87000000D01*
X159700000Y-134750000D02*
X162000000Y-134750000D01*
X117905000Y-112845000D02*
X118000000Y-112750000D01*
X117825000Y-111575000D02*
X118000000Y-111750000D01*
X116250000Y-117925000D02*
X118175000Y-117925000D01*
X169500000Y-82175000D02*
X167562500Y-82175000D01*
X150100000Y-134750000D02*
X159700000Y-134750000D01*
X176787500Y-118287500D02*
X176750000Y-118250000D01*
D56*
X190775000Y-91025000D02*
X190750000Y-91000000D01*
D55*
X166225000Y-68450000D02*
X166225000Y-67275000D01*
X159650000Y-149400000D02*
X159700000Y-149350000D01*
X118155000Y-116655000D02*
X118250000Y-116750000D01*
X162000000Y-134750000D02*
X162500000Y-135250000D01*
X162450000Y-135950000D02*
X162500000Y-136000000D01*
X176750000Y-125750000D02*
X175750000Y-126750000D01*
X161200000Y-149350000D02*
X161250000Y-149400000D01*
X158800000Y-150250000D02*
X159650000Y-149400000D01*
X193800000Y-86200000D02*
X193750000Y-86250000D01*
X168000000Y-68450000D02*
X169200000Y-68450000D01*
D56*
X171000000Y-99250000D02*
X172960000Y-99250000D01*
D55*
X159700000Y-149350000D02*
X161200000Y-149350000D01*
X150100000Y-150250000D02*
X158800000Y-150250000D01*
D56*
X172960000Y-99250000D02*
X172995000Y-99285000D01*
D55*
X167462500Y-73750000D02*
X166250000Y-73750000D01*
X175500000Y-88225000D02*
X175500000Y-87000000D01*
D56*
X190500000Y-113505000D02*
X190505000Y-113500000D01*
D55*
X193800000Y-84740000D02*
X193800000Y-86200000D01*
X169200000Y-68450000D02*
X169250000Y-68500000D01*
X116250000Y-111575000D02*
X117825000Y-111575000D01*
X184700000Y-84740000D02*
X193800000Y-84740000D01*
X176787500Y-119500000D02*
X176787500Y-118287500D01*
X118175000Y-117925000D02*
X118250000Y-118000000D01*
%TO.N,/Microprocessor section/CELL_1*%
X184155000Y-94905000D02*
X184155000Y-96500000D01*
X181450000Y-89825000D02*
X181500000Y-89775000D01*
X181500000Y-89775000D02*
X181525000Y-89750000D01*
X179750000Y-89825000D02*
X181450000Y-89825000D01*
X181525000Y-89750000D02*
X182250000Y-89750000D01*
X183500000Y-91000000D02*
X183500000Y-92750000D01*
X183500000Y-92750000D02*
X183500000Y-94250000D01*
X182250000Y-89750000D02*
X183500000Y-91000000D01*
X183500000Y-94250000D02*
X184155000Y-94905000D01*
%TO.N,/Microprocessor section/CELL_2*%
X179500000Y-92750000D02*
X181000000Y-92750000D01*
X182885000Y-94635000D02*
X182885000Y-96500000D01*
X175550000Y-89825000D02*
X175500000Y-89775000D01*
X177250000Y-89825000D02*
X175550000Y-89825000D01*
X177250000Y-90500000D02*
X179500000Y-92750000D01*
X181000000Y-92750000D02*
X182885000Y-94635000D01*
X177250000Y-89825000D02*
X177250000Y-90500000D01*
D56*
%TO.N,/Atmo sensor/3V3_IN*%
X112975000Y-121000000D02*
X112975000Y-114475000D01*
X114000000Y-86290000D02*
X119040000Y-86290000D01*
D55*
X162700000Y-141450000D02*
X162750000Y-141500000D01*
D56*
X121795000Y-89045000D02*
X126625000Y-89045000D01*
D55*
X151250000Y-70500000D02*
X151500000Y-70750000D01*
X151500000Y-70750000D02*
X151500000Y-71675000D01*
X163250000Y-146750000D02*
X163250000Y-145325000D01*
D56*
X113347349Y-123297349D02*
X113050000Y-123000000D01*
X122045000Y-106045000D02*
X126625000Y-106045000D01*
X119040000Y-86290000D02*
X121795000Y-89045000D01*
X114000000Y-103540000D02*
X119540000Y-103540000D01*
X112975000Y-114475000D02*
X112615000Y-114115000D01*
X113050000Y-121075000D02*
X112975000Y-121000000D01*
X113347349Y-128750000D02*
X113347349Y-123297349D01*
X111750000Y-121000000D02*
X111250000Y-120500000D01*
X119540000Y-103540000D02*
X122045000Y-106045000D01*
X113050000Y-123000000D02*
X113050000Y-121075000D01*
X111250000Y-120500000D02*
X111250000Y-119195000D01*
X112975000Y-121000000D02*
X111750000Y-121000000D01*
X112615000Y-114115000D02*
X111250000Y-114115000D01*
D55*
X149500000Y-71675000D02*
X151500000Y-71675000D01*
X150750000Y-70500000D02*
X151250000Y-70500000D01*
X160700000Y-141450000D02*
X162700000Y-141450000D01*
%TO.N,+BATT*%
X163750000Y-68250000D02*
X165500000Y-70000000D01*
X166225000Y-70000000D02*
X166225000Y-72012500D01*
X166225000Y-72012500D02*
X166250000Y-72037500D01*
X165500000Y-70000000D02*
X166225000Y-70000000D01*
X162000000Y-68250000D02*
X163750000Y-68250000D01*
%TO.N,+3V3*%
X170500000Y-71750000D02*
X170000000Y-71750000D01*
D56*
X189235000Y-96500000D02*
X189235000Y-94260000D01*
X189225000Y-94250000D02*
X189225000Y-92500000D01*
D55*
X164537500Y-73250000D02*
X163750000Y-73250000D01*
D56*
X189250000Y-91000000D02*
X189250000Y-92475000D01*
X189250000Y-92475000D02*
X189225000Y-92500000D01*
X161950000Y-76000000D02*
X162000000Y-75950000D01*
X157250000Y-76000000D02*
X161950000Y-76000000D01*
D55*
X189225000Y-92500000D02*
X187575000Y-92500000D01*
X169175000Y-73250000D02*
X169500000Y-72925000D01*
D56*
X189235000Y-94260000D02*
X189225000Y-94250000D01*
D55*
X163750000Y-73250000D02*
X163500000Y-73000000D01*
X169500000Y-72250000D02*
X169500000Y-72925000D01*
X167462500Y-73250000D02*
X169175000Y-73250000D01*
X187575000Y-92500000D02*
X187500000Y-92425000D01*
X170000000Y-71750000D02*
X169500000Y-72250000D01*
%TO.N,/Microprocessor section/EN*%
X187965000Y-94540000D02*
X187965000Y-96500000D01*
X195965000Y-89240000D02*
X196000000Y-89275000D01*
X187500000Y-94075000D02*
X186575000Y-94075000D01*
X184700000Y-90200000D02*
X184700000Y-89240000D01*
X191549520Y-121260480D02*
X191549520Y-89430480D01*
X185750000Y-91250000D02*
X184700000Y-90200000D01*
X186575000Y-94075000D02*
X185750000Y-93250000D01*
X184700000Y-89240000D02*
X191740000Y-89240000D01*
X191740000Y-89240000D02*
X193800000Y-89240000D01*
X193800000Y-89240000D02*
X195965000Y-89240000D01*
X185750000Y-93250000D02*
X185750000Y-91250000D01*
X191549520Y-89430480D02*
X191740000Y-89240000D01*
X190060000Y-122750000D02*
X191549520Y-121260480D01*
X187500000Y-94075000D02*
X187965000Y-94540000D01*
%TO.N,Net-(D1-Pad2)*%
X175250000Y-119462500D02*
X175212500Y-119500000D01*
X175250000Y-117825000D02*
X175250000Y-119462500D01*
%TO.N,Net-(D2-Pad2)*%
X158250000Y-66075000D02*
X158250000Y-68000000D01*
X158250000Y-68000000D02*
X158500000Y-68250000D01*
X160050000Y-65687500D02*
X158637500Y-65687500D01*
X158637500Y-65687500D02*
X158250000Y-66075000D01*
D56*
%TO.N,Net-(D3-Pad2)*%
X177750000Y-129687500D02*
X176187500Y-129687500D01*
X175000000Y-128500000D02*
X173500000Y-128500000D01*
X176187500Y-129687500D02*
X175000000Y-128500000D01*
X173500000Y-128500000D02*
X158000000Y-128500000D01*
X156165000Y-126665000D02*
X155625000Y-126665000D01*
X158000000Y-128500000D02*
X156165000Y-126665000D01*
D55*
%TO.N,/Microprocessor section/MOISTURE_SENSOR*%
X179075000Y-96500000D02*
X179075000Y-98175000D01*
X126625000Y-101045000D02*
X114045000Y-101045000D01*
X179075000Y-98175000D02*
X179000000Y-98250000D01*
X114000000Y-101000000D02*
X109000000Y-101000000D01*
X114045000Y-101045000D02*
X114000000Y-101000000D01*
%TO.N,/Microprocessor section/TEMP_SENSOR*%
X126330000Y-83750000D02*
X126625000Y-84045000D01*
X184250000Y-113405000D02*
X184155000Y-113500000D01*
X114000000Y-83750000D02*
X126330000Y-83750000D01*
X184250000Y-111750000D02*
X184250000Y-113405000D01*
X109000000Y-83750000D02*
X114000000Y-83750000D01*
%TO.N,/CO2 Sensor Connector/UART_TX*%
X162000000Y-94500000D02*
X174515000Y-94500000D01*
X174515000Y-94500000D02*
X175265000Y-95250000D01*
X155250000Y-101250000D02*
X160000000Y-96500000D01*
X160000000Y-96500000D02*
X162000000Y-94500000D01*
X175265000Y-95250000D02*
X175265000Y-96500000D01*
X155250000Y-103000000D02*
X155250000Y-101250000D01*
%TO.N,/CO2 Sensor Connector/UART_RX*%
X160195000Y-100555000D02*
X172995000Y-100555000D01*
X153750000Y-98750000D02*
X156000000Y-96500000D01*
X155250000Y-105500000D02*
X160195000Y-100555000D01*
X155250000Y-105500000D02*
X153750000Y-104000000D01*
X153750000Y-104000000D02*
X153750000Y-98750000D01*
%TO.N,/Atmo sensor/SCL*%
X177750000Y-113445000D02*
X177805000Y-113500000D01*
X152950480Y-74049520D02*
X137299520Y-74049520D01*
X136500000Y-73250000D02*
X136500000Y-71250000D01*
X152750000Y-72500000D02*
X154500000Y-72500000D01*
X151925000Y-73325000D02*
X152750000Y-72500000D01*
X151500000Y-73325000D02*
X151925000Y-73325000D01*
X154500000Y-72500000D02*
X152950480Y-74049520D01*
X137299520Y-74049520D02*
X136500000Y-73250000D01*
X177750000Y-111500000D02*
X177750000Y-113445000D01*
%TO.N,/Atmo sensor/SDA*%
X146000000Y-73000000D02*
X146500000Y-72500000D01*
X147325000Y-73325000D02*
X146500000Y-72500000D01*
X176500000Y-113465000D02*
X176535000Y-113500000D01*
X176500000Y-111500000D02*
X176500000Y-113465000D01*
X140750000Y-73000000D02*
X146000000Y-73000000D01*
X149500000Y-73325000D02*
X147325000Y-73325000D01*
X139000000Y-71250000D02*
X140750000Y-73000000D01*
%TO.N,/Microprocessor section/SPI_MOSI*%
X162950000Y-142550000D02*
X163250000Y-142250000D01*
X163250000Y-142250000D02*
X168000000Y-142250000D01*
X160700000Y-142550000D02*
X162950000Y-142550000D01*
X189235000Y-113500000D02*
X189235000Y-115485000D01*
X189235000Y-115485000D02*
X189250000Y-115500000D01*
%TO.N,/Microprocessor section/SPI_SCLK*%
X160700000Y-140350000D02*
X164150000Y-140350000D01*
X180345000Y-115095000D02*
X180750000Y-115500000D01*
X164150000Y-140350000D02*
X165250000Y-139250000D01*
X180345000Y-113500000D02*
X180345000Y-115095000D01*
%TO.N,/Microprocessor section/SPI_MISO*%
X181615000Y-113500000D02*
X181615000Y-115115000D01*
X165000000Y-136500000D02*
X168000000Y-136500000D01*
X163350000Y-138150000D02*
X165000000Y-136500000D01*
X160700000Y-138150000D02*
X163350000Y-138150000D01*
X181615000Y-115115000D02*
X182000000Y-115500000D01*
%TO.N,/Microprocessor section/SPI_SD_CSN*%
X163225000Y-143650000D02*
X163250000Y-143675000D01*
X163250000Y-143675000D02*
X164925000Y-143675000D01*
X187965000Y-113500000D02*
X187965000Y-115465000D01*
X160700000Y-143650000D02*
X163225000Y-143650000D01*
X187965000Y-115465000D02*
X188000000Y-115500000D01*
X164925000Y-143675000D02*
X167500000Y-146250000D01*
%TO.N,/Microprocessor section/RXD0*%
X185425000Y-113500000D02*
X185425000Y-122305000D01*
X185425000Y-122305000D02*
X184980000Y-122750000D01*
%TO.N,/Microprocessor section/TXD0*%
X186695000Y-113500000D02*
X186695000Y-121925000D01*
X186695000Y-121925000D02*
X187520000Y-122750000D01*
%TO.N,/Microprocessor section/BOOT*%
X169500000Y-114975000D02*
X170775000Y-114975000D01*
X170775000Y-114975000D02*
X172250000Y-113500000D01*
X172250000Y-113500000D02*
X173995000Y-113500000D01*
%TO.N,/Microprocessor section/MTDO*%
X169750000Y-109500000D02*
X169805000Y-109445000D01*
X169500000Y-109250000D02*
X169500000Y-106750000D01*
X169750000Y-109500000D02*
X169500000Y-109250000D01*
X169805000Y-109445000D02*
X172995000Y-109445000D01*
%TO.N,Net-(Q1-Pad1)*%
X169375000Y-83950000D02*
X169500000Y-83825000D01*
X171150000Y-83825000D02*
X171250000Y-83925000D01*
X169500000Y-83825000D02*
X171150000Y-83825000D01*
X167437500Y-83950000D02*
X169375000Y-83950000D01*
%TO.N,Net-(Q1-Pad3)*%
X163700000Y-83125000D02*
X163575000Y-83000000D01*
X163700000Y-85062500D02*
X163700000Y-83125000D01*
X163575000Y-83000000D02*
X165562500Y-83000000D01*
%TO.N,/Microprocessor section/PWR_EN*%
X172960000Y-110750000D02*
X172995000Y-110715000D01*
X171250000Y-85575000D02*
X171250000Y-88750000D01*
X171250000Y-110750000D02*
X172960000Y-110750000D01*
%TO.N,/Microprocessor section/STATUS_LED*%
X175265000Y-116160000D02*
X175250000Y-116175000D01*
X175265000Y-113500000D02*
X175265000Y-116160000D01*
%TO.N,/Fan/FAN*%
X177000000Y-122250000D02*
X177000000Y-122425000D01*
X179075000Y-120175000D02*
X179075000Y-113500000D01*
X179075000Y-120175000D02*
X177000000Y-122250000D01*
%TO.N,Net-(C3-Pad1)*%
X166750000Y-72037500D02*
X167212500Y-72037500D01*
X168000000Y-71250000D02*
X168000000Y-70000000D01*
X167212500Y-72037500D02*
X168000000Y-71250000D01*
D56*
%TO.N,/Valve Driver/OUT_A*%
X116250000Y-110305000D02*
X120305000Y-110305000D01*
X122335000Y-112335000D02*
X126625000Y-112335000D01*
X120305000Y-110305000D02*
X122335000Y-112335000D01*
%TO.N,/Valve Driver/OUT_B*%
X116250000Y-114115000D02*
X119615000Y-114115000D01*
X122835000Y-117335000D02*
X126625000Y-117335000D01*
X119615000Y-114115000D02*
X122835000Y-117335000D01*
%TO.N,/Valve Driver/OUT_C*%
X124835000Y-123835000D02*
X126625000Y-123835000D01*
X123500000Y-122500000D02*
X124835000Y-123835000D01*
X123500000Y-120798609D02*
X123500000Y-122500000D01*
X116250000Y-115385000D02*
X118086391Y-115385000D01*
X118086391Y-115385000D02*
X123500000Y-120798609D01*
%TO.N,/Valve Driver/OUT_D*%
X116250000Y-119195000D02*
X117945000Y-119195000D01*
X122835000Y-128835000D02*
X126625000Y-128835000D01*
X122000000Y-123250000D02*
X122000000Y-128000000D01*
X122000000Y-128000000D02*
X122835000Y-128835000D01*
X117945000Y-119195000D02*
X122000000Y-123250000D01*
D55*
%TO.N,Net-(J8-Pad1)*%
X177250000Y-88175000D02*
X177250000Y-85750000D01*
X177250000Y-85750000D02*
X175500000Y-84000000D01*
X175500000Y-84000000D02*
X175500000Y-82225000D01*
%TO.N,Net-(J8-Pad2)*%
X179750000Y-86000000D02*
X178000000Y-84250000D01*
X179750000Y-88175000D02*
X179750000Y-86000000D01*
X178000000Y-84250000D02*
X178000000Y-82225000D01*
D56*
%TO.N,Net-(D3-Pad1)*%
X167015000Y-124015000D02*
X164500000Y-124015000D01*
X164500000Y-124015000D02*
X161265000Y-124015000D01*
X167500000Y-124500000D02*
X167015000Y-124015000D01*
X161265000Y-124015000D02*
X158915000Y-121665000D01*
X158915000Y-121665000D02*
X155625000Y-121665000D01*
X173500000Y-124500000D02*
X167500000Y-124500000D01*
D55*
%TO.N,Net-(Q4-Pad1)*%
X177000000Y-124075000D02*
X177000000Y-124175000D01*
X178575000Y-125750000D02*
X178575000Y-127687500D01*
X178575000Y-127687500D02*
X178700000Y-127812500D01*
X177000000Y-124175000D02*
X178575000Y-125750000D01*
%TO.N,Net-(R10-Pad2)*%
X169175000Y-74250000D02*
X169500000Y-74575000D01*
X169500000Y-74575000D02*
X169500000Y-76175000D01*
X167462500Y-74250000D02*
X169175000Y-74250000D01*
%TO.N,/Microprocessor section/VALVE_1_REV*%
X180345000Y-98155000D02*
X180250000Y-98250000D01*
X111250000Y-112845000D02*
X105595000Y-112845000D01*
X105595000Y-112845000D02*
X104750000Y-112000000D01*
X180345000Y-96500000D02*
X180345000Y-98155000D01*
%TO.N,/Microprocessor section/VALVE_2_FWD*%
X105905000Y-116655000D02*
X111250000Y-116655000D01*
X177805000Y-96500000D02*
X177805000Y-98195000D01*
X105250000Y-116000000D02*
X105905000Y-116655000D01*
X177805000Y-98195000D02*
X177750000Y-98250000D01*
%TO.N,/Microprocessor section/VALVE_1_FWD*%
X107825000Y-111575000D02*
X104250000Y-108000000D01*
X181615000Y-98135000D02*
X181500000Y-98250000D01*
X181615000Y-96500000D02*
X181615000Y-98135000D01*
X111250000Y-111575000D02*
X107825000Y-111575000D01*
%TO.N,/Microprocessor section/VALVE_2_REV*%
X105750000Y-120000000D02*
X107825000Y-117925000D01*
X107825000Y-117925000D02*
X111250000Y-117925000D01*
X176535000Y-96500000D02*
X176535000Y-98215000D01*
X176535000Y-98215000D02*
X176500000Y-98250000D01*
%TD*%
%TA.AperFunction,Conductor*%
%TO.N,+BATT*%
G36*
X163015931Y-64770002D02*
G01*
X163036905Y-64786905D01*
X163213095Y-64963095D01*
X163247121Y-65025407D01*
X163250000Y-65052190D01*
X163250000Y-68750000D01*
X165963095Y-71463095D01*
X165997121Y-71525407D01*
X166000000Y-71552190D01*
X166000000Y-72333500D01*
X165979998Y-72401621D01*
X165926342Y-72448114D01*
X165874000Y-72459500D01*
X165417778Y-72459500D01*
X165417009Y-72459498D01*
X165348231Y-72459078D01*
X165347011Y-72459427D01*
X165345933Y-72459500D01*
X165140252Y-72459500D01*
X165081769Y-72471133D01*
X165071450Y-72478028D01*
X165070347Y-72478765D01*
X165067821Y-72479531D01*
X165059985Y-72482777D01*
X165059665Y-72482005D01*
X165033999Y-72489791D01*
X165035498Y-72494896D01*
X165018116Y-72500000D01*
X165000000Y-72500000D01*
X165000000Y-72513547D01*
X164997121Y-72526783D01*
X164992298Y-72525734D01*
X164982005Y-72559665D01*
X164982777Y-72559985D01*
X164979531Y-72567821D01*
X164978765Y-72570347D01*
X164971133Y-72581769D01*
X164959500Y-72640252D01*
X164959500Y-72798500D01*
X164939498Y-72866621D01*
X164885842Y-72913114D01*
X164833500Y-72924500D01*
X164226690Y-72924500D01*
X164158569Y-72904498D01*
X164137595Y-72887595D01*
X164096973Y-72846973D01*
X164069659Y-72806096D01*
X164061074Y-72785369D01*
X164024536Y-72697159D01*
X164019509Y-72690607D01*
X164016880Y-72686054D01*
X164000000Y-72623055D01*
X164000000Y-72250000D01*
X163250000Y-71500000D01*
X161552190Y-71500000D01*
X161484069Y-71479998D01*
X161463095Y-71463095D01*
X161036905Y-71036905D01*
X161002879Y-70974593D01*
X161000000Y-70947810D01*
X161000000Y-67302190D01*
X161020002Y-67234069D01*
X161036905Y-67213095D01*
X161500000Y-66750000D01*
X161500000Y-65052190D01*
X161520002Y-64984069D01*
X161536905Y-64963095D01*
X161713095Y-64786905D01*
X161775407Y-64752879D01*
X161802190Y-64750000D01*
X162947810Y-64750000D01*
X163015931Y-64770002D01*
G37*
%TD.AperFunction*%
%TD*%
%TA.AperFunction,Conductor*%
%TO.N,GND*%
G36*
X162768306Y-71768306D02*
G01*
X162981694Y-71981694D01*
X163000000Y-72025888D01*
X163000000Y-72643966D01*
X162987085Y-72682013D01*
X162977957Y-72693909D01*
X162977955Y-72693913D01*
X162975464Y-72697159D01*
X162973897Y-72700942D01*
X162916960Y-72838401D01*
X162914956Y-72843238D01*
X162914421Y-72847300D01*
X162914421Y-72847301D01*
X162902249Y-72939760D01*
X162894318Y-73000000D01*
X162914956Y-73156762D01*
X162916524Y-73160547D01*
X162916524Y-73160548D01*
X162961319Y-73268692D01*
X162975464Y-73302841D01*
X163071718Y-73428282D01*
X163197159Y-73524536D01*
X163200942Y-73526103D01*
X163339452Y-73583476D01*
X163339453Y-73583476D01*
X163343238Y-73585044D01*
X163347300Y-73585579D01*
X163347301Y-73585579D01*
X163495936Y-73605147D01*
X163500000Y-73605682D01*
X163504064Y-73605147D01*
X163652699Y-73585579D01*
X163652700Y-73585579D01*
X163656762Y-73585044D01*
X163660544Y-73583478D01*
X163660546Y-73583477D01*
X163670946Y-73579169D01*
X163711039Y-73576542D01*
X163721193Y-73579263D01*
X163761485Y-73575738D01*
X163766933Y-73575500D01*
X164565975Y-73575500D01*
X164565977Y-73575499D01*
X164913400Y-73575499D01*
X164916409Y-73574900D01*
X164916414Y-73574900D01*
X164984079Y-73561441D01*
X164990117Y-73560240D01*
X165064509Y-73510533D01*
X165099232Y-73500000D01*
X165250000Y-73500000D01*
X165250000Y-72812500D01*
X165268306Y-72768306D01*
X165312500Y-72750000D01*
X166750000Y-72750000D01*
X166838850Y-72661150D01*
X166870851Y-72644045D01*
X166899966Y-72638254D01*
X166915117Y-72635240D01*
X166920234Y-72631821D01*
X166920236Y-72631820D01*
X166996995Y-72580531D01*
X167002112Y-72577112D01*
X167035077Y-72527776D01*
X167074849Y-72501201D01*
X167087043Y-72500000D01*
X167937500Y-72500000D01*
X167981694Y-72518306D01*
X168000000Y-72562500D01*
X168000000Y-72862000D01*
X167981694Y-72906194D01*
X167937500Y-72924500D01*
X167434025Y-72924500D01*
X167434023Y-72924501D01*
X167086600Y-72924501D01*
X167083591Y-72925100D01*
X167083586Y-72925100D01*
X167015921Y-72938559D01*
X167009883Y-72939760D01*
X166922888Y-72997888D01*
X166864760Y-73084883D01*
X166863559Y-73090922D01*
X166855955Y-73129149D01*
X166838850Y-73161150D01*
X166750000Y-73250000D01*
X166750000Y-74187500D01*
X166731694Y-74231694D01*
X166687500Y-74250000D01*
X165000000Y-74250000D01*
X164768306Y-74481694D01*
X164724112Y-74500000D01*
X161525888Y-74500000D01*
X161481694Y-74481694D01*
X161268306Y-74268306D01*
X161250000Y-74224112D01*
X161250000Y-72025888D01*
X161268306Y-71981694D01*
X161481694Y-71768306D01*
X161525888Y-71750000D01*
X162724112Y-71750000D01*
X162768306Y-71768306D01*
G37*
%TD.AperFunction*%
%TD*%
%TA.AperFunction,Conductor*%
%TO.N,Net-(F1-Pad1)*%
G36*
X161515931Y-58520002D02*
G01*
X161536905Y-58536905D01*
X161713095Y-58713095D01*
X161747121Y-58775407D01*
X161750000Y-58802190D01*
X161750000Y-64197810D01*
X161729998Y-64265931D01*
X161713095Y-64286905D01*
X161286905Y-64713095D01*
X161224593Y-64747121D01*
X161197810Y-64750000D01*
X160802190Y-64750000D01*
X160734069Y-64729998D01*
X160713095Y-64713095D01*
X160286905Y-64286905D01*
X160252879Y-64224593D01*
X160250000Y-64197810D01*
X160250000Y-58802190D01*
X160270002Y-58734069D01*
X160286905Y-58713095D01*
X160463095Y-58536905D01*
X160525407Y-58502879D01*
X160552190Y-58500000D01*
X161447810Y-58500000D01*
X161515931Y-58520002D01*
G37*
%TD.AperFunction*%
%TD*%
%TA.AperFunction,Conductor*%
%TO.N,+3V3*%
G36*
X163265931Y-75270002D02*
G01*
X163286905Y-75286905D01*
X164713095Y-76713095D01*
X164747121Y-76775407D01*
X164750000Y-76802190D01*
X164750000Y-80447810D01*
X164729998Y-80515931D01*
X164713095Y-80536905D01*
X164536905Y-80713095D01*
X164474593Y-80747121D01*
X164447810Y-80750000D01*
X163000000Y-80750000D01*
X162500000Y-81250000D01*
X162500000Y-83947810D01*
X162479998Y-84015931D01*
X162463095Y-84036905D01*
X162250000Y-84250000D01*
X162250000Y-85697810D01*
X162229998Y-85765931D01*
X162213095Y-85786905D01*
X162036905Y-85963095D01*
X161974593Y-85997121D01*
X161947810Y-86000000D01*
X161552190Y-86000000D01*
X161484069Y-85979998D01*
X161463095Y-85963095D01*
X161286905Y-85786905D01*
X161252879Y-85724593D01*
X161250000Y-85697810D01*
X161250000Y-75552190D01*
X161270002Y-75484069D01*
X161286905Y-75463095D01*
X161463095Y-75286905D01*
X161525407Y-75252879D01*
X161552190Y-75250000D01*
X163197810Y-75250000D01*
X163265931Y-75270002D01*
G37*
%TD.AperFunction*%
%TD*%
%TA.AperFunction,Conductor*%
%TO.N,Net-(L1-Pad1)*%
G36*
X165404444Y-74540510D02*
G01*
X165466255Y-74541643D01*
X165469341Y-74540801D01*
X165474204Y-74540500D01*
X166362000Y-74540500D01*
X166406194Y-74558806D01*
X166424500Y-74603000D01*
X166424501Y-75338400D01*
X166439760Y-75415117D01*
X166497888Y-75502112D01*
X166503005Y-75505531D01*
X166503007Y-75505533D01*
X166505502Y-75507200D01*
X166514972Y-75514972D01*
X166750000Y-75750000D01*
X167224112Y-75750000D01*
X167268306Y-75768306D01*
X167981694Y-76481694D01*
X168000000Y-76525888D01*
X168000000Y-80474112D01*
X167981694Y-80518306D01*
X167768306Y-80731694D01*
X167724112Y-80750000D01*
X166275888Y-80750000D01*
X166231694Y-80731694D01*
X165768306Y-80268306D01*
X165750000Y-80224112D01*
X165750000Y-76750000D01*
X165115269Y-76017618D01*
X165100000Y-75976685D01*
X165100000Y-74603000D01*
X165118306Y-74558806D01*
X165162500Y-74540500D01*
X165403300Y-74540500D01*
X165404444Y-74540510D01*
G37*
%TD.AperFunction*%
%TD*%
%TA.AperFunction,Conductor*%
%TO.N,Net-(F1-Pad2)*%
G36*
X157265931Y-58520002D02*
G01*
X157286905Y-58536905D01*
X157463095Y-58713095D01*
X157497121Y-58775407D01*
X157500000Y-58802190D01*
X157500000Y-62197810D01*
X157479998Y-62265931D01*
X157463095Y-62286905D01*
X157286905Y-62463095D01*
X157224593Y-62497121D01*
X157197810Y-62500000D01*
X156044198Y-62500000D01*
X155976077Y-62479998D01*
X155965486Y-62472389D01*
X154750000Y-61500000D01*
X152052190Y-61500000D01*
X151984069Y-61479998D01*
X151963095Y-61463095D01*
X151786905Y-61286905D01*
X151752879Y-61224593D01*
X151750000Y-61197810D01*
X151750000Y-59802190D01*
X151770002Y-59734069D01*
X151786905Y-59713095D01*
X152963095Y-58536905D01*
X153025407Y-58502879D01*
X153052190Y-58500000D01*
X157197810Y-58500000D01*
X157265931Y-58520002D01*
G37*
%TD.AperFunction*%
%TD*%
%TA.AperFunction,Conductor*%
%TO.N,/Atmo sensor/3V3_IN*%
G36*
X163015931Y-86020002D02*
G01*
X163036905Y-86036905D01*
X163213095Y-86213095D01*
X163247121Y-86275407D01*
X163250000Y-86302190D01*
X163250000Y-87500000D01*
X163963095Y-88213095D01*
X163997121Y-88275407D01*
X164000000Y-88302190D01*
X164000000Y-90947810D01*
X163979998Y-91015931D01*
X163963095Y-91036905D01*
X163536905Y-91463095D01*
X163474593Y-91497121D01*
X163447810Y-91500000D01*
X162052190Y-91500000D01*
X161984069Y-91479998D01*
X161963095Y-91463095D01*
X161536905Y-91036905D01*
X161502879Y-90974593D01*
X161500000Y-90947810D01*
X161500000Y-88302190D01*
X161520002Y-88234069D01*
X161536905Y-88213095D01*
X162250000Y-87500000D01*
X162250000Y-86302190D01*
X162270002Y-86234069D01*
X162286905Y-86213095D01*
X162463095Y-86036905D01*
X162525407Y-86002879D01*
X162552190Y-86000000D01*
X162947810Y-86000000D01*
X163015931Y-86020002D01*
G37*
%TD.AperFunction*%
%TD*%
M02*
